/* XPM */
static char *rcp0712180657987[] = {
/* columns rows colors chars-per-pixel */
"64 64 226 2 ",
"   c #1D2535",
".  c #232D3A",
"X  c #262833",
"o  c #26323E",
"O  c #2C373C",
"+  c #36383B",
"@  c #1B1F2F",
"#  c #4D3E3C",
"$  c #3A483C",
"%  c #49463A",
"&  c #54453D",
"*  c #46543C",
"=  c #55563A",
"-  c #615A3B",
";  c #54643D",
":  c #5F723F",
">  c #757939",
",  c #686938",
"<  c #2E3B44",
"1  c #273441",
"2  c #333D45",
"3  c #2F424B",
"4  c #33434B",
"5  c #384748",
"6  c #3B4D53",
"7  c #364A52",
"8  c #3E5559",
"9  c #3E5549",
"0  c #3E5961",
"q  c #444A47",
"w  c #5B4843",
"e  c #465846",
"r  c #445A5C",
"t  c #475958",
"y  c #595749",
"u  c #6A5746",
"i  c #745A46",
"p  c #715E51",
"a  c #4E6749",
"s  c #556848",
"d  c #4C6558",
"f  c #566758",
"g  c #5B7D52",
"h  c #577456",
"j  c #5C774B",
"k  c #696845",
"l  c #677844",
"z  c #77764A",
"x  c #627E51",
"c  c #777658",
"v  c #716551",
"b  c #455D62",
"n  c #4B6364",
"m  c #4C6A6C",
"M  c #486467",
"N  c #526D6B",
"B  c #576C67",
"V  c #587968",
"C  c #4E7377",
"Z  c #537374",
"A  c #567976",
"S  c #557A7B",
"D  c #5A7D7C",
"F  c #54777A",
"G  c #4A6D74",
"H  c #6D786B",
"J  c #8A694C",
"K  c #867347",
"L  c #977253",
"P  c #91724F",
"I  c #A77A53",
"U  c #B07F54",
"Y  c #837A63",
"T  c #7B8238",
"R  c #5E8254",
"E  c #6D8444",
"W  c #6A8449",
"Q  c #738944",
"!  c #758A47",
"~  c #7B9447",
"^  c #628453",
"/  c #688B57",
"(  c #7D8657",
")  c #6B925A",
"_  c #6F9658",
"`  c #729B5C",
"'  c #789957",
"]  c #79A35E",
"[  c #7FAB5E",
"{  c #6D956C",
"}  c #73996C",
"|  c #7A9A6F",
" . c #739865",
".. c #679175",
"X. c #6B9472",
"o. c #719572",
"O. c #73917F",
"+. c #708470",
"@. c #76A462",
"#. c #79A762",
"$. c #7AA962",
"%. c #5C817B",
"&. c #91973A",
"*. c #9DA43B",
"=. c #A7AD3D",
"-. c #E7EF3C",
";. c #83864E",
":. c #86884C",
">. c #8B8A4D",
",. c #8F8245",
"<. c #839D48",
"1. c #959548",
"2. c #88845D",
"3. c #979951",
"4. c #918D51",
"5. c #AA8659",
"6. c #B48758",
"7. c #AC944E",
"8. c #8CA64B",
"9. c #88A54B",
"0. c #93AD4C",
"q. c #95B34E",
"w. c #99B64E",
"e. c #9CB94E",
"r. c #8DAE54",
"t. c #82AB5E",
"y. c #8AAE5C",
"u. c #9EA255",
"i. c #8FB156",
"p. c #95B651",
"a. c #9AB751",
"s. c #9EB850",
"d. c #A9AA57",
"f. c #B5AD58",
"g. c #A3B950",
"h. c #AEB55B",
"j. c #A1B750",
"k. c #B4B55D",
"l. c #B6B959",
"z. c #BDBA5A",
"x. c #B5B858",
"c. c #AEB349",
"v. c #829E6B",
"b. c #85967D",
"n. c #99987A",
"m. c #8B8866",
"M. c #BB9361",
"N. c #A49B61",
"B. c #82AA61",
"V. c #88AC61",
"C. c #84A660",
"Z. c #ACB160",
"A. c #AFAD71",
"S. c #C8A956",
"D. c #C9B356",
"F. c #D1B64F",
"G. c #C59C63",
"H. c #C8B97B",
"J. c #BAC246",
"K. c #D7C94B",
"L. c #D8D845",
"P. c #C9C65A",
"I. c #CECA4A",
"U. c #E2DC48",
"Y. c #E7EB45",
"T. c #EAF045",
"R. c #EBF15B",
"E. c #D2CD70",
"W. c #EEF377",
"Q. c #EBF06C",
"!. c #DDDF6A",
"~. c #527C81",
"^. c #5B8383",
"/. c #5E8B8C",
"(. c #5A8386",
"). c #5F9090",
"_. c #5F908F",
"`. c #628C8C",
"'. c #638788",
"]. c #66928F",
"[. c #789588",
"{. c #648D92",
"}. c #629494",
"|. c #6A9292",
" X c #659C9B",
".X c #6B9D9C",
"XX c #699896",
"oX c #739996",
"OX c #758E89",
"+X c #6BA19E",
"@X c #7AA392",
"#X c #699FA1",
"$X c #719FA1",
"%X c #6DA3A3",
"&X c #73A4A4",
"*X c #75ABAB",
"=X c #7AACAD",
"-X c #7BA9A4",
";X c #7CAEB1",
":X c #7CB2B3",
">X c #7EB1AB",
",X c #849A87",
"<X c #8D9E90",
"1X c #8EAE95",
"2X c #85ADA3",
"3X c #87B4AB",
"4X c #96BAA9",
"5X c #81B5B5",
"6X c #85BBBC",
"7X c #8ABDBB",
"8X c #86BAB7",
"9X c #94BDB4",
"0X c #A9B49D",
"qX c #92C2BC",
"wX c #9DC6B8",
"eX c #A9C9B2",
"rX c #D7D186",
"tX c #EFF289",
"yX c #F1F398",
"uX c #F4F6AC",
"iX c #89BFC0",
"pX c #8BC2C2",
"aX c #97C7C1",
"sX c #A2CCC0",
"dX c #F7F9C2",
"fX c #FEFEFA",
/* pixels */
"e.e.e.e.i.X.......X.r.r.X.......o.k.z.z.z.z.k.| o...| k.z.z.z.z.z.k.v.a.z.D.z.z.z.z.z.z.l.e.e.e.e.e.e.e.e.g.z.D.z.z.D.D.D.D.z.l.",
"p.p.e.p.} ..o.o.....X.X...o.o...o.Z.z.z.z.z.z.k.Z.v.Z.z.z.z.D.z.z.z.k.l.z.D.z.z.z.z.z.D.l.g.e.e.e.e.e.l.l.l.z.D.z.z.D.D.z.z.l.g.",
"X.} y.} ..| Z.Z.| ......| Z.Z.| o.| k.z.z.z.z.z.z.k.z.z.z.z.z.D.z.z.z.z.D.z.z.z.z.z.z.z.z.l.l.s.e.e.e.l.l.l.l.l.l.l.l.l.l.g.s.p.",
"..o.} ..o.Z.z.z.Z.| o.| Z.z.z.k.Z.v.k.z.z.z.z.z.D.D.z.z.z.z.l.l.l.l.z.z.D.z.z.l.l.z.z.z.D.D.z.g.e.s.e.e.s.e.e.s.e.s.s.s.e.e.p.} ",
"| Z.Z.| | k.z.z.z.k.k.k.z.z.z.z.z.k.z.z.z.l.l.l.l.z.z.z.z.l.g.s.e.g.l.z.z.z.k.V.V.k.z.z.z.z.z.z.l.l.g.e.e.e.e.e.e.e.e.s.s.p.r.X.",
"k.z.z.k.k.l.l.l.z.z.z.z.z.l.l.l.z.z.z.z.k.V.B.B.V.k.l.l.l.g.e.e.e.e.g.l.l.h.V.#.#.V.l.z.z.z.D.z.l.l.x.e.e.e.e.e.e.e.g.l.k.v.| o.",
"z.z.D.z.l.g.e.g.l.z.D.z.l.g.e.s.s.k.l.h.V.#.#.#.#.V.s.g.x.s.e.e.e.p.p.p.V.B.#.#.#.B.k.l.l.l.l.l.g.e.e.e.e.e.e.s.g.l.l.z.z.k.k.k.",
"z.z.z.l.g.e.e.e.g.z.D.l.g.e.p.t.$.B.B.B.#.#.#.#.#.t.p.e.e.e.e.e.p.t.$.$.#.#.#.#.#.$.a.e.e.e.g.s.e.e.e.e.e.e.g.l.l.l.l.l.z.D.z.z.",
"l.l.g.e.e.e.e.e.e.l.l.l.s.p.t.#.#.#.#.#.#.#.#.#.$.p.p.p.p.e.e.p.[ #.#.#.#.$.$.#.#.#.[ p.e.e.e.e.e.e.e.e.e.g.l.z.l.g.e.g.l.z.z.z.",
"e.e.e.e.e.e.e.e.e.e.g.x.s.p.$.#.#.#.#.#.#.#.#.#.#.$.$.$.t.p.p.[ #.#.#.#.[ p.p.t.$.#.#.[ p.p.e.e.e.e.e.e.x.l.l.l.g.e.e.e.g.l.l.l.",
"e.e.e.e.e.e.p.p.p.p.p.p.t.$.#.#.$.$.$.#.#.#.#.#.#.#.#.#.#.$.$.#.#.#.#.$.p.e.e.p.p.t.$.$.t.t.a.e.e.e.e.e.e.e.e.e.e.e.e.e.e.e.e.e.",
"e.e.e.e.e.a.t.t.t.$.$.$.#.#.#.[ p.p.p.[ #.#.$.$.$.#.#.#.#.#.@.@.] ] #.$.p.w.e.e.e.p.p.p.p.p.e.e.e.e.e.e.e.e.p.p.p.e.e.e.e.e.e.e.",
"e.e.e.e.e.e.p.p.p.t.$.$.#.#.$.p.e.e.e.p.$.[ p.w.p.` ) / h 9 e d s s e j ~ 9.8.w.w.e.e.e.e.e.e.e.e.e.e.e.e.p.t.$.t.p.e.e.e.e.e.e.",
"e.e.e.e.e.e.e.e.e.a.p.p.t.$.t.p.e.e.e.p.t.p.q.Q s t 9 A C m Z }././.C 8 d z ( s Q q.e.e.e.e.p.p.p.e.e.e.p.[ #.#.#.t.p.e.e.e.e.e.",
"e.e.e.e.e.g.l.l.g.e.e.e.a.a.s.e.e.e.e.w.w.<.e M *XS .X:X*X X`. X X X X/.XX( 1X.Xn e <.w.w.p.t.$.t.p.p.p.[ #.#.#.#.$.p.e.e.e.e.e.",
"e.e.e.e.g.l.z.z.l.g.e.e.g.l.l.l.l.j.0.E l $ m *XpX.XOX&X*X&X}..X*X:X:X%X*X`.XXpX*Xm $ l E ] #.#.#.$.$.$.#.#.#.#.#.$.p.p.p.e.e.e.",
"p.a.g.l.l.z.D.D.z.z.l.l.l.z.z.z.k.3.s 7 3 < A %XqX1XH.1X:X*X}.|.5XpXiX6X(.m *XqX%XA < 3 7 e ) @.#.#.#.#.#.#.#.#.#.#.$.$.t.p.p.p.",
"t.y.x.l.l.z.z.z.z.D.z.z.z.z.z.h.^ 5 3 XXr 4 n /.2X1XN.B XX X X}.XX*X|.&Xm ^.*X-X/.n 4 r XX3 5 g #.#.#.#.#.#.#.#.#.#.#.#.#.$.$.$.",
"p.a.s.s.g.l.z.z.z.z.z.z.l.l.h.' r ).m ,X2.n Z `. X^.n A *X%X%X*XXX}..X6X|.2.N.oX}.M b m }.m ).8 ) #.#.#.#.#.#.#.#.#.#.#.#.$.$.$.",
"e.e.e.s.g.g.z.D.z.z.z.l.j.y.' 5 7 }.r A.A.B :X6X&Xr 6 n &X6X6X-XB m *X%Xn f.uX0X6XiXD (./.b }.7 5 ) $.$.$.#.#.#.#.#.#.#.[ p.p.p.",
"e.g.l.l.l.l.z.z.z.z.l.g.w.8.* r r r q e + n .XwX7X.X1 m XX%X*X3X2XA  X XA K P.<X6X$Xm 4 6 5 r r r e 8.p.i.{ X.X.X.#.#.$.p.e.e.e.",
"l.l.z.z.z.z.z.z.z.z.l.e.~ * < n 6 n n.z 4 D  X&X.XG 0 N ). XXX X}.b }.XXZ 7 t `.%X XD 6 O 6 b 6 n < * ' } o.o.o...X.X.#.p.e.e.e.",
"l.l.l.l.l.z.z.z.D.z.g.0.e r 6 1 .X-XE.c y H ^.C XXiX6X&X'.^./.XX^.7 ^.*X=X7X9X|.C F b n F :XpX{.o 6 r 9 { Z.k.Z.| ....{ p.s.g.l.",
"s.e.e.e.g.l.z.z.D.z.g.l r n < r &X6X@X( rXE.p 8 D *XqXaXsX2X7 n r . b `.9X4X-X`.8 4 M %X6XpXpX&Xr o n r c z.z.z.Z.| o.o.v.k.l.l.",
"e.e.e.e.e.g.l.l.z.z.3.q r 2 7 N }.*X4XP.W.E.y n Z }.+X-X4X[.6 '.`.&X=X|.A XX X/.n 2.N.<X:X:X%XXXN 6 2 f e 3.z.z.z.k.k.k.k.l.g.s.",
"s.s.e.e.e.e.e.g.l.x.= < O   4 n ^..X X[.> z 2 n ^.}. X X XC 4 |.:X7X9X`.m  X+.b.e I.tXE.XX+X X/.n 4 % A.4 = x.z.z.z.D.D.z.l.s.s.",
"l.l.g.e.e.e.e.e.j.z 2 n 6 6 Z &X`.M /.XXr r o 8 /. X X X}.V t ^. X X XG b ~.z A.% 7.!.J.A /.M `.&XZ 6 e n 2 z x.z.z.z.z.z.l.g.l.",
"D.z.l.s.e.e.e.e.8.e t 2.p r |.pXpX=X;X5X|.6 1 {.XX`.XXXXA 7.A.D ^.*X;X|.=X6X|.2X`.5 c [.5X;X=XpXpX|.r 8 m t q 3.z.z.z.z.z.z.l.z.",
"D.D.l.e.e.g.l.x.! d c !.7.A =XiXpXpXpXpX=Xn 4 '.6X8X8X=XoX,Xb.n 4 '.=X3X2X%X#X%X'.4 n =XpXpXpXqXqX=XF 2 r 6 d ( f.z.D.z.z.z.z.z.",
"D.D.z.g.g.l.z.f.l r e 1.u ~. X%X*XwXeX2XZ n < m `.3XeXeXeX>X#XA 4 A }. X XXXXX(.m < n Z 2XeXeX4X&X X)..   4 t l d.z.z.z.z.z.z.z.",
"D.D.z.l.l.z.k.3.y 5 < r m S XX X X.X.X`.N r . r ^.}..X.X.X.X(.f y r ^.}.}.XX}.(.n < r N `..XXXH A.oXS m 8 < 5 * >.d.z.D.z.l.l.l.",
"l.l.l.l.l.l.d.z + 4 o m /.$X:X&X%X X XXXb . & P Y +.H n.n.c v G.G.v v Y Y H f c P u . b XXOX+.y rX,X&X`.B k y + z 3.l.l.l.g.e.e.",
"e.e.s.s.e.e.q.; O < 6 m B OX3X6X6X*X}.^.n 4 % 5.5.u u 6.M.u p M.5.u u M.I u u 6.5.q 4 n B f.rX2.[.$X`.N t A.c o ; 8.e.s.e.e.e.e.",
"e.e.e.e.e.w.<.; < Z &X'.n.D.u.D .X.Xm b m r % I I i i 5.6.i i 6.I i i 6.U i u U I % r N q S.tXR.%.N n N D 2Xn < = ~ 0.e.e.e.e.e.",
"e.e.e.e.e.8.E $ m %XpX-X!.tXI.% n.( 0 b M 1 + J K & & 7.1.- & J c.- - c.K & = P J + o n r c N.C.< n |.=XpXpX%Xm + E <.e.e.e.e.e.",
"e.e.e.e.e.9.l 3 ^. X*XD j.K.P $ Z.z {.qXoXn . X X X @ % T &.&.> T 1.&.T % @ X X X . n oXwXqXiX;X4 ^.8XwX9X:X.X^.3 l ~ w.e.e.e.e.",
"e.e.e.p.p./ a 4 }. X XXXXXO.t 6 %.`.3X2X`.N 2 u w p w *.T.R.yXyXQ.W.Q.T.*.w w w i 2 N `.-X4X&X`.6 m XX+X.X X X}.3 a ! 0.e.e.p.p.",
"p.e.a.t._ R e o /.&X.XXX X|.Y 5 /. X X XXXA 4 u P 5.K > T.tXfXfXdXW.T.T.> ,.J L i 4 A  X X X|.b.y 2 C  X X X&X/.o e x ! q.p.[ $.",
"t.p.p.p.9.E $ r }.5X5X=X:X4XrX% G  X X X}.Z 4 u I I 7.> T.W.uXuXuXyXT.T., c.6.I u q m.oX X XH D.rXoX=X5X=X5X5X}.r $ g / #.#.#.#.",
"$.t.t.t.~ : o Z XX%X7X9X7XqX[.6 `.&X*X&XD 8   # I L c.> T.-.-.R.yXW.T.L.% I.5.6.# % rXb.&X=Xb ,.u.oXqX7X9X7X%X XZ o a R @.#.#.#.",
"p.p.p.q.~ ; < m }.XX.X].oX&X/..XpXpXpXpX6X=X~.+ I 5.F.= L.Y.Y.Y.T.Y.T.L.% P.P 5.+ M ,X7XpXpX:X&X.X/.&XoX]..XXX}.m < ; ^ ` $.$.$.",
"e.e.e.w.<.E e $ 7 0 ). X X/.D 4XwXqX7X5X5X&XM . J G.D.> L.U.K.K.K.K.U.L., S.I J . m =X5X5X7XaXaX4XD _. X X}.0 6 $ e E Q q.p.p.a.",
"e.e.e.e.8.! W h d d V }./.0 4 %.-X-X.XXXXX}.Z 6 i 6.7., I.K.K.F.S.K.Y.*.= 6.6.i 6 N }.XXXX.X-X-X%.4 0 _.].V s l E E Q <.w.e.e.e.",
"e.w.p.p.r.{ / h ( ;.;.( d e 5 m  X X X.X/.8 t t u U I - L.Y.K.S.S.S.F.*.% I I & 5 4 8 (. X X X XM . e a g g W E E Q 9.q.p.e.e.e.",
"s.p.} } } | u.;.>.4.>.>.;.;.;.z h +.o.m.c z z l + J J i =.L.f.S.S.S.F., w J L & s s a j / X.V f s : E g g ^ ^ ^ g / $.$.t.p.p.p.",
"k.v.| Z.k.k.z.f.f.z.3.4.3.>.4.>.>.>.>.>.>.>.;.a O % u K k d.v.k.l.g.g.u.k k u k >.:.:.Q Q Q Q Q Q ! Q g g ` @.@.` $.B.B.B.t.t.t.",
"l.k.k.l.l.l.z.z.l.h.V.] C.d.d.4.>.;.;.;.;.;.x g g g x u.k.k.k.l.s.e.e.j.d.>.:.:.:.>.>.:.:.Q Q Q Q 8.r.` ` B.B.V.h.l.l.l.l.l.l.l.",
"e.e.e.e.e.g.l.l.y.t.$.$.#.B.V.d.4.^ ^ ) ) x g g g g ^ $.B.V.a.a.a.e.e.e.e.0.~ Q Q :.:.1.8.~ 9.<.8.p.t.t.h.x.x.l.l.l.l.l.l.l.l.l.",
"e.e.e.e.e.e.e.e.a.p.p.p.t.$.$.V.$.@.@.#.#.` ) g g g ` #.#.#.$.$.t.p.p.p.e.e.<.E E ! 8.p.p.w.e.w.e.e.p.a.e.e.e.e.e.e.e.e.e.e.s.s.",
"e.e.e.e.e.e.e.e.e.e.e.e.p.p.p.p.t.$.$.$.#.#.` R g / #.#.#.#.#.#.#.$.$.t.p.p.r.^ g / $.$.t.p.e.e.e.e.e.e.e.e.e.e.e.e.e.e.e.e.e.s.",
"l.l.l.g.e.e.e.e.e.e.e.e.e.e.e.e.p.p.p.i.$. .) / ^ ] #.#.#.#.#.#.#.#.#.#.$.$.$.) ^ ] ] B.$.p.e.e.e.e.e.e.e.e.e.e.e.e.e.e.e.e.g.l.",
"D.z.z.l.g.e.e.e.e.e.e.p.p.p.p.p.t.$.$.$.#./ ` ! 9.p.[ #.#.#.#.#.#.#.$.$.$.$.$.] / 3.3.h.y.a.e.e.e.e.e.e.e.e.e.e.e.e.e.e.e.g.l.z.",
"l.l.z.z.l.l.l.g.e.e.a.t.t.t.t.t.$.$.$.$.] _ 8.8.w.e.p.$.#.#.#.$.$.t.p.p.a.a.p.a.d.d.d.f.l.g.e.e.e.e.e.e.e.e.e.e.e.e.x.l.l.l.z.z.",
"s.s.g.l.z.z.z.l.g.e.e.p.p.p.p.p.p.p.p.p.p.w.e.e.e.e.p.t.$.$.t.p.p.a.e.g.l.l.s.g.l.z.z.z.z.l.e.e.e.e.e.e.e.e.e.e.e.e.e.g.l.l.z.l.",
"e.e.e.g.l.l.l.l.x.e.e.e.e.e.e.e.e.e.e.e.e.e.e.e.e.e.e.p.p.p.p.e.e.g.l.l.z.z.z.z.z.l.l.l.z.l.g.e.e.e.e.e.e.e.e.e.e.e.e.e.e.g.x.g.",
"e.e.e.e.s.s.s.s.e.e.e.e.e.e.e.e.e.e.e.e.e.e.e.e.e.e.e.e.e.e.e.e.a.h.l.l.l.l.l.l.h.V.B.V.k.z.l.l.l.l.g.e.e.e.e.a.p.a.e.e.e.e.e.e.",
"e.e.e.e.e.e.e.e.e.e.e.e.e.e.e.e.e.e.e.e.e.e.e.e.e.e.e.e.e.e.e.p.t.B.B.B.t.t.B.B.B.#.#.#.V.h.l.l.l.l.x.x.x.x.h.t.$.t.p.p.p.p.p.e.",
"p.p.p.p.p.p.p.p.e.e.e.e.e.e.e.e.e.e.e.e.e.e.e.e.e.e.e.e.p.p.p.[ #.#.$.t.p.p.[ #.#.#.#.#.#.B.B.B.B.B.B.B.B.B.B.#.#.#.$.$.$.$.t.p.",
"$.$.$.$.t.t.t.t.a.e.e.e.e.e.e.e.e.e.e.e.e.e.e.e.e.e.e.a.t.t.t.$.$.t.p.p.e.e.p.t.$.$.#.#.#.#.#.#.#.#.#.#.#.#.#.#.#.#.#.#.#.#.#.$.",
"$.$.$.t.p.p.p.p.e.e.e.e.e.e.e.e.e.e.e.e.e.e.e.e.e.e.e.e.p.p.p.p.p.p.e.e.e.e.e.p.p.p.[ #.#.#.$.$.$.$.#.#.#.#.#.#.#.#.#.#.#.#.$.$.",
"p.p.p.p.e.e.e.e.e.e.e.e.e.e.e.e.e.e.p.p.p.p.p.e.e.e.e.p.p.p.p.p.e.e.e.e.e.e.e.e.e.e.p.$.#.[ p.p.p.p.[ #.$.$.$.#.#.$.$.$.$.t.p.a.",
"e.e.e.e.e.e.e.e.e.e.e.e.e.e.e.e.p.i.} X.X.X.} p.e.e.p.} X.X.X.} p.e.e.e.e.g.l.l.l.g.a.$.$.p.e.e.e.e.p.t.p.p.p.t.t.p.p.p.p.p.e.e.",
"e.e.e.e.e.e.e.e.e.e.e.e.e.e.e.p.} X.o.o.o.....} i.i.} ..o.o.o.o.} p.e.e.g.l.z.z.z.l.s.V.$.p.e.e.e.e.e.a.e.e.e.p.p.e.e.e.e.e.s.s.",
"e.e.e.e.e.e.e.e.e.e.e.e.e.e.p.} ..o.Z.k.Z.o.....X.X...o.Z.k.k.Z.o.} p.e.l.z.z.z.z.z.l.h.B.t.p.e.e.e.e.e.e.e.e.e.e.e.e.l.l.l.l.l."
};
