/* XPM */
static char *rcp03113408688927[] = {
/* columns rows colors chars-per-pixel */
"64 64 156 2 ",
"   c #1B130B",
".  c #3B0101",
"X  c #26140A",
"o  c #2B1509",
"O  c #331309",
"+  c #2F1A11",
"@  c #232515",
"#  c #2C2614",
"$  c #242718",
"%  c #322712",
"&  c #332812",
"*  c #3B2914",
"=  c #382619",
"-  c #35291A",
";  c #392A18",
":  c #332F28",
">  c #353324",
",  c #3E3720",
"<  c #460000",
"1  c #4B0000",
"2  c #510000",
"3  c #5C0000",
"4  c #50190C",
"5  c #491110",
"6  c #461B13",
"7  c #481C11",
"8  c #521111",
"9  c #5A1111",
"0  c #630000",
"q  c #6D0202",
"w  c #760201",
"e  c #750F0F",
"r  c #661212",
"t  c #6F1414",
"y  c #711616",
"u  c #472913",
"i  c #432F2B",
"p  c #453523",
"a  c #493327",
"s  c #463129",
"d  c #4D3329",
"f  c #58775A",
"g  c #810201",
"h  c #8C0101",
"j  c #940000",
"k  c #9C0202",
"l  c #9E0F0F",
"z  c #831211",
"x  c #8C1412",
"c  c #9C1111",
"v  c #A20101",
"b  c #AC0404",
"n  c #A20D0D",
"m  c #AC0F0F",
"M  c #B50909",
"N  c #A21111",
"B  c #AD1111",
"V  c #AC1E1E",
"C  c #B51E1E",
"Z  c #C00D0D",
"A  c #C01D1C",
"S  c #CD1C1C",
"D  c #D71616",
"F  c #D51C1C",
"G  c #DF1B1B",
"H  c #E01A1A",
"J  c #EA1F1F",
"K  c #C92120",
"L  c #C02E2E",
"P  c #DF2323",
"I  c #E62323",
"U  c #F32323",
"Y  c #FC2727",
"T  c #FF2828",
"R  c #B05F5E",
"E  c #BC5F5E",
"W  c #CB6C6C",
"Q  c #D66C6C",
"!  c #DC6A6A",
"~  c #C9716F",
"^  c #C97170",
"/  c #E06161",
"(  c #E46C6C",
")  c #E96D6D",
"_  c #E67777",
"`  c #EC7070",
"'  c #E47C7C",
"]  c #F37C7C",
"[  c #798F3F",
"{  c #7C913E",
"}  c #63844C",
"|  c #68874E",
" . c #67894F",
".. c #68884C",
"X. c #788F40",
"o. c #7A9140",
"O. c #648850",
"+. c #6C9456",
"@. c #6B9558",
"#. c #709654",
"$. c #749955",
"%. c #7BA75F",
"&. c #7FAB5E",
"*. c #658764",
"=. c #6E976F",
"-. c #719E67",
";. c #73996C",
":. c #7A9A6F",
">. c #679175",
",. c #6B9472",
"<. c #719671",
"1. c #77A563",
"2. c #7AA763",
"3. c #7AA962",
"4. c #8A8C4D",
"5. c #809240",
"6. c #879E48",
"7. c #939146",
"8. c #969348",
"9. c #999349",
"0. c #87A347",
"q. c #8BA445",
"w. c #83A149",
"e. c #91A448",
"r. c #95B44F",
"t. c #98B54D",
"y. c #9CB94E",
"u. c #8EAF57",
"i. c #81AB5E",
"p. c #8AAE5C",
"a. c #9EA252",
"s. c #8FB156",
"d. c #95B651",
"f. c #9AB751",
"g. c #9EB850",
"h. c #A6A34F",
"j. c #A0B64F",
"k. c #A0B94F",
"l. c #A2A452",
"z. c #AAA551",
"x. c #A0B752",
"c. c #AFB755",
"v. c #A3B950",
"b. c #AFBA55",
"n. c #AEB65C",
"m. c #B3BA56",
"M. c #B4B55D",
"N. c #BAB759",
"B. c #B6B959",
"V. c #BDBA5A",
"C. c #829E6B",
"Z. c #82AA62",
"A. c #88AC61",
"S. c #ACB160",
"D. c #F68080",
"F. c #FE8C8C",
/* pixels */
"y.y.y.y.s.,.>.>.>.,.u.u.,.>.>.>.<.M.V.V.V.V.M.:.<.>.:.M.V.V.V.V.V.M.C.f.V.V.V.V.V.V.V.V.N.y.y.y.y.y.y.y.y.v.V.V.V.V.V.V.V.V.V.N.",
"d.d.y.d.;.>.<.<.>.>.,.,.>.<.<.>.<.S.V.V.V.V.V.M.S.C.S.V.V.V.V.V.V.V.M.N.V.V.V.V.V.V.V.V.N.v.y.y.y.y.y.B.N.N.V.V.V.V.V.V.V.V.N.v.",
",.;.p.;.>.:.S.S.:.>.>.>.:.S.S.:.<.:.M.V.V.V.V.V.V.M.V.V.V.V.V.V.V.V.V.V.V.V.V.V.V.V.V.V.V.N.B.k.y.y.y.B.N.N.N.N.N.N.N.N.N.v.y.d.",
">.<.;.>.<.S.V.V.S.:.<.:.S.V.V.M.S.C.M.V.V.V.V.V.V.V.V.V.V.V.V.N.N.N.V.V.V.V.V.B.N.V.V.V.V.V.N.v.y.y.y.y.k.k.y.k.y.y.y.y.k.y.d.;.",
":.S.S.:.:.M.V.V.V.M.M.M.V.V.V.V.V.M.V.V.V.B.B.B.B.V.V.V.V.N.v.k.y.v.B.V.V.V.M.A.A.M.V.V.V.V.V.V.N.B.v.y.y.y.y.y.y.y.y.y.g.d.u.,.",
"M.V.V.M.M.N.N.N.V.V.V.V.V.N.N.N.N.V.V.V.M.A.Z.Z.A.M.N.N.N.v.y.y.y.y.v.B.B.n.A.3.3.A.B.V.V.V.V.V.N.N.m.y.y.y.y.y.y.y.v.B.M.C.;.<.",
"V.V.V.V.B.v.y.v.B.V.V.V.B.v.y.g.g.M.B.n.A.3.3.3.3.A.g.v.m.y.y.y.y.d.d.d.Z.Z.3.3.3.Z.M.N.N.N.N.B.v.y.y.y.y.y.y.y.v.B.N.V.V.M.M.M.",
"V.V.N.B.v.y.y.y.v.N.V.N.v.y.d.i.3.Z.Z.Z.3.3.3.3.3.i.d.y.y.y.y.y.d.i.3.3.3.3.3.3.3.3.d.y.y.y.v.k.y.y.y.y.y.y.v.B.N.N.N.N.V.V.V.V.",
"N.B.v.y.y.y.y.y.y.B.N.N.y.d.i.3.3.3.3.3.3.3.3.3.3.d.d.d.d.y.y.d.&.3.3.3.3.3.3.3.3.3.&.d.y.y.y.y.y.y.y.y.y.v.B.V.B.v.y.v.B.V.V.V.",
"y.y.y.y.y.y.y.y.y.y.v.m.f.d.3.3.3.3.3.3.3.3.3.3.3.3.3.3.i.d.d.&.3.3.3.3.&.d.d.i.3.3.3.&.d.d.y.y.y.y.y.y.m.B.N.B.v.y.y.y.v.B.N.N.",
"y.y.y.y.y.y.d.d.d.d.d.d.i.3.3.3.3.3.3.3.3.3.3.3.3.3.3.3.3.%.+.+.1.3.3.3.d.y.y.d.d.i.3.3.i.i.f.y.y.y.y.y.y.y.y.y.y.y.y.y.y.y.y.y.",
"y.y.y.y.y.f.i.i.i.3.3.3.3.3.3.&.d.d.d.&.3.3.3.3.3.3.3.3.1.} $ >  .%.3.3.d.y.y.y.y.d.d.d.d.d.y.y.y.y.y.y.y.y.d.d.d.y.y.y.y.y.y.y.",
"y.y.y.y.y.y.d.d.d.i.3.3.3.3.3.d.y.y.y.d.3.&.d.d.d.i.3.3.@.@ 5 R , w.&.3.d.y.y.y.y.y.y.y.y.y.y.y.y.y.y.y.y.d.i.3.i.d.y.y.y.y.y.y.",
"y.y.y.y.y.y.y.y.y.d.d.d.i.3.i.d.y.y.y.d.i.d.y.y.y.d.d.&.}   8 W a { d.i.i.f.y.y.y.y.y.y.y.y.d.d.d.y.y.y.d.&.3.3.3.i.d.y.y.y.y.y.",
"y.y.y.y.y.v.B.B.v.y.y.y.f.f.g.y.y.y.y.y.f.y.y.y.y.y.y.0.# . 9 ' ~ , q.d.d.y.y.y.y.y.y.y.y.d.i.3.i.d.d.d.&.3.3.3.3.3.d.y.y.y.y.y.",
"y.y.y.y.v.B.V.V.B.v.y.y.v.B.N.N.B.v.y.y.y.y.y.y.y.y.t.[ X . 9 ' ' a { t.y.y.y.y.y.y.y.y.d.&.3.3.3.3.3.3.3.3.3.3.3.3.d.d.d.y.y.y.",
"d.d.v.B.V.V.V.V.V.N.N.N.N.V.V.V.B.m.n.f.y.y.d.d.d.d.w.# w 1 9 ' F.~ , 0.d.d.d.y.y.y.y.d.&.3.3.3.3.3.3.3.3.3.3.3.3.3.3.3.i.d.d.d.",
"i.p.m.N.V.V.V.V.V.V.V.V.V.V.V.M.A.Z.Z.i.d.d.i.3.3.%.} O g 2 9 ' F.' s ..%.3.i.d.d.d.d.&.3.3.3.3.3.3.3.3.3.3.3.3.3.3.3.3.3.3.3.3.",
"d.f.y.k.v.N.V.V.V.V.V.V.N.B.n.A.3.3.3.3.3.3.3.3.3.@.# g j 2 9 ' D.F.~ > @.3.3.3.2.2.2.1.2.3.3.3.3.3.2.2.3.3.3.3.3.3.3.3.3.3.3.3.",
"y.y.y.k.k.v.N.V.V.V.V.B.x.p.i.i.d.d.d.i.3.3.3.3.1.} O j j 2 9 ! L ` ' s } 1.2.1.,.,.,.,.1.3.3.3.3.3.3.3.3.1.1.1.1.2.3.3.&.d.d.d.",
"y.v.B.N.N.N.V.V.V.V.V.v.y.d.d.d.y.y.d.d.d.d.s.3.@.# g k j 2 9 ! B C ] ^ > @.1.,.>.>.>.>.=.p.d.d.d.d.d.d.u.=.,.,.,.1.1.3.d.y.y.y.",
"N.N.V.V.V.V.V.V.V.V.N.k.y.y.y.y.y.f.i.i.3.3.3.1.} O j v j 2 9 ! B m ) ' i f -.,.>.>.>.>.>.,.,.,.,.;.s.s.;.<.<.<.>.,.,.1.d.y.y.y.",
"N.N.N.N.N.V.V.V.V.N.v.y.y.y.y.y.y.y.d.d.i.3.3.@.# g b v j 2 9 ! B v C ] ^ : *.<.<.<.>.>.>.>.<.<.<.<.,.,.:.S.M.S.:.>.>.=.d.g.v.B.",
"y.y.y.y.v.B.V.V.V.V.v.y.y.y.y.y.y.y.y.y.d.d.&.} O k G b j 2 9 ! B v B ] ' s 4.M.M.S.:.>.>.:.S.M.M.S.:.:.S.V.V.V.S.:.<.<.C.M.N.N.",
"y.y.y.y.y.v.B.N.V.V.B.v.B.B.v.y.y.y.y.y.y.y.0.% g M J b j 2 9 ! B v m ) F.~ p z.V.V.S.<.:.S.V.V.V.V.M.M.V.V.V.V.V.M.M.M.M.N.v.y.",
"y.y.y.y.y.y.y.v.B.V.V.N.N.N.m.v.y.y.y.y.y.t.{ O k J U M j 2 9 ! B v v C ] ' d 9.N.V.M.C.S.V.V.V.V.V.V.V.V.V.V.V.V.V.V.V.V.N.k.y.",
"N.N.v.y.y.y.y.y.v.B.N.B.v.y.v.b.y.y.y.y.y.q.& g b U Y J v 2 9 ! B v v C ] F.~ p z.V.V.M.V.V.V.V.V.V.V.V.V.V.V.V.V.V.V.V.V.V.v.N.",
"V.V.N.k.y.y.y.y.y.y.k.k.y.y.y.y.y.y.y.y.t.{ O k b U T U v 2 9 ! B v m ) F.F.' d 8.N.V.V.V.V.V.N.N.V.V.V.V.V.V.V.V.V.V.V.V.V.V.V.",
"V.V.N.y.y.v.B.B.v.y.y.y.y.y.y.y.y.y.y.y.q.& h G Z U T U v 2 9 ! B v B ] F.F.F.~ p e.B.V.V.N.B.v.v.B.N.V.N.v.v.N.V.V.V.V.V.V.V.V.",
"V.V.N.v.v.B.V.V.N.B.v.y.y.y.y.y.y.y.y.t.{ O k U U Y T U v 2 9 ! B v C ] F.F.F.' a { j.N.B.v.y.y.y.y.v.m.v.y.y.v.V.V.V.V.V.V.V.V.",
"V.V.V.N.N.V.V.V.V.N.B.B.B.B.B.B.B.B.m.q.& g b J T T T U v 2 9 ! B m ) F.F.F.F.F.~ , q.B.v.y.y.y.y.y.y.y.y.y.y.y.N.V.V.V.V.N.N.N.",
"N.N.N.N.N.N.N.N.B.v.y.y.g.f.f.f.f.f.y.{ O j v M U T T U v 2 9 ! B B ] F.F.F.F.F.' a 5.c.y.y.y.y.y.y.y.y.y.y.y.y.B.N.N.N.B.v.y.y.",
"y.k.k.k.y.y.y.y.y.y.d.d.i.3.3.3.3.i.w.& g k v b J U U G j 2 9 ! C B ) ] ] ] F.F.F.~ , q.y.y.y.y.y.y.y.y.y.y.y.y.y.y.y.y.y.y.y.y.",
"y.y.y.y.y.y.y.y.d.d.i.3.3.3.3.3.3.3.+.X k b b b b b b q 3 2 r _ / n n N N C ( ] ] Q = 0.d.d.d.y.y.y.y.y.y.y.y.y.y.y.y.y.y.y.y.y.",
"y.y.y.y.y.y.y.d.i.3.3.3.3.3.3.3.3.3.+.+ F U U H b v v j j j N ) V 3 2 2 3 h e c B l 4 6.i.3.i.d.y.y.y.y.y.y.y.y.y.y.y.y.y.y.y.y.",
"y.y.y.y.y.d.d.&.3.3.3.3.3.3.3.3.3.3.+.+ P Y J M b v v v v v B ) N 2 < < < 3 g q j h o #.3.3.3.&.d.y.y.y.y.y.y.d.d.d.y.y.y.y.y.y.",
"y.y.y.d.d.i.3.3.3.3.&.d.d.d.d.d.&.3.@.- K U M M D b v v v v N ( N 2 < < < 2 h h 0 w # $.d.d.&.3.&.d.y.y.y.y.d.i.3.i.d.y.y.y.d.d.",
"d.y.f.i.i.3.3.3.3.i.d.y.y.y.y.y.d.3.1.} 6 S M H M v v v v j t ! N 2 < < < < 3 h 2 X } d.y.y.d.i.3.i.f.y.y.d.&.3.3.3.&.d.d.d.i.3.",
"i.d.d.d.d.d.d.d.d.d.y.y.y.y.y.y.d.i.i.w.& h b G b v v v v k r ! N 2 2 2 < < 2 h w & 0.y.y.d.d.d.d.d.y.y.d.i.3.3.3.3.3.3.3.3.3.3.",
"3.i.i.i.f.y.y.y.y.y.y.y.y.y.y.y.y.d.d.t.{ O j b v v v v M F t ! N 3 h h 2 < < < X { r.d.d.i.3.3.i.d.y.y.d.3.3.3.3.3.3.3.3.3.3.3.",
"d.d.d.d.y.y.y.y.d.d.d.d.d.y.y.d.d.d.y.y.q.& g k v v v b J I y ! N 3 j j 2 < < . @ w.i.3.3.3.3.3.3.&.d.d.&.3.3.&.d.d.d.i.3.3.3.3.",
"y.y.y.y.y.y.y.d.;.,.,.,.;.s.s.;.,.;.d.y.j.7.O j v v v M U I y ! N 3 j j 3 < .   } %.3.3.3.3.3.3.3.3.3.3.3.3.3.d.y.y.y.f.d.d.d.d.",
"y.y.y.y.y.d.s.;.<.<.<.<.>.,.,.<.<.>.;.f.B.h.o h v v b J Y I y ! N 3 j v h 2 .   +.3.3.3.3.3.3.3.3.3.3.3.3.3.i.d.y.y.y.y.y.y.y.y.",
"y.y.d.d.s.;.;.:.S.M.M.S.:.<.:.S.S.:.:.M.V.z.* g k v M U T I y ! N 3 j v j 2 . # $.3.3.d.d.i.i.d.d.d.&.3.3.3.d.d.d.d.d.d.d.y.y.y.",
"g.d.;.;.;.:.S.M.V.V.V.V.M.M.M.V.V.M.M.V.V.N.8.O j b J Y T I y ! N 3 j v j < X 8.n.A.i.f.y.d.d.y.y.y.d.3.3.3.3.3.3.3.3.3.i.d.d.d.",
"M.C.:.S.M.M.V.V.V.V.B.B.B.V.V.V.V.V.V.V.V.V.a.# g b U T T I y ! N 3 j v j < & z.V.B.m.v.y.y.y.y.y.y.d.3.3.2.3.3.Z.Z.Z.Z.Z.i.i.i.",
"N.M.M.N.N.N.V.V.B.n.A.Z.A.n.B.V.V.B.B.B.B.n.A.} O n U T T I y ! N 3 j v h o 7.B.N.V.V.N.m.y.y.y.y.y.d.3.Z.Z.Z.A.n.B.B.B.B.B.B.B.",
"y.y.y.y.y.v.B.B.p.i.3.3.3.Z.A.n.n.A.Z.Z.Z.Z.3.@.- A Y T T I y ! N 3 j k g & q.y.v.B.N.B.v.y.y.y.y.f.i.Z.n.m.m.m.N.N.N.N.N.N.N.N.",
"y.y.y.y.y.y.y.y.f.d.d.d.i.3.3.A.Z.3.3.3.3.3.3.1.} 6 I T T I y ! N 3 j j O { t.d.d.f.f.f.d.y.y.y.y.y.d.f.y.y.y.y.y.y.y.y.y.y.y.k.",
"y.y.y.y.y.y.y.y.y.y.y.y.d.d.d.d.i.3.3.3.3.3.3.3.@.- K Y T I y ! N 0 j g % 0.d.i.3.3.3.3.i.d.y.y.y.y.y.y.y.y.y.y.y.y.y.y.y.y.y.k.",
"N.N.B.v.y.y.y.y.y.y.y.y.y.y.y.y.d.d.d.s.3.3.3.3.%.} 6 I T I y ! B j h O } %.3.3.3.Z.Z.Z.3.d.y.y.y.y.y.y.y.y.y.y.y.y.y.y.y.y.v.N.",
"V.V.V.N.v.y.y.y.y.y.y.d.d.d.d.d.i.3.3.3.3.3.&.d.d.w.; K Y I y ! B k g # #.3.3.3.A.n.B.n.p.f.y.y.y.y.y.y.y.y.y.y.y.y.y.y.y.v.N.V.",
"N.N.N.V.N.N.B.v.y.y.f.i.i.i.i.i.3.3.3.3.3.i.d.y.y.t.X.6 I I y ! B j O [ f.f.d.f.m.V.V.V.B.v.y.y.y.y.y.y.y.y.y.y.y.y.m.B.N.N.V.V.",
"y.y.v.B.V.V.V.B.v.y.y.d.d.d.d.d.d.d.d.d.d.d.y.y.y.y.0.; K I y ! B g & e.B.B.v.v.N.V.V.V.V.B.y.y.y.y.y.y.y.y.y.y.y.y.y.v.B.N.V.N.",
"y.y.y.v.B.N.N.N.m.y.y.y.y.y.y.y.y.y.y.y.y.y.y.y.y.y.t.{ 7 S y ! c O 7.N.V.V.N.N.V.B.B.B.V.N.v.y.y.y.y.y.y.y.y.y.y.y.y.y.y.v.m.v.",
"y.y.y.y.y.y.k.y.y.y.y.y.y.y.y.y.y.y.y.y.y.y.y.y.y.y.y.q.* C y ! x * l.B.B.B.B.B.n.A.Z.A.M.V.N.N.N.B.v.y.y.y.y.f.d.d.y.y.y.y.y.y.",
"y.y.y.y.y.y.y.y.y.y.y.y.y.y.y.y.y.y.y.y.y.y.y.y.y.y.y.t.{ u z E p | 3.Z.i.i.Z.Z.Z.3.3.3.A.n.B.B.B.B.m.m.m.m.n.i.3.&.d.d.d.d.d.y.",
"d.d.d.d.d.d.d.d.y.y.y.y.y.y.y.y.y.y.y.y.y.y.y.y.y.y.y.y.r.o.& > O.1.3.i.d.d.&.3.3.3.3.3.3.Z.Z.Z.Z.Z.Z.Z.Z.Z.Z.3.3.3.3.3.3.3.i.d.",
"3.3.3.3.i.i.i.i.f.y.y.y.y.y.y.y.y.y.y.y.y.y.y.y.y.y.y.f.i.i.$.#.%.i.d.d.y.y.d.i.3.3.3.3.3.3.3.3.3.3.3.3.3.3.3.3.3.3.3.3.3.3.3.3.",
"3.3.3.i.d.d.d.d.y.y.y.y.y.y.y.y.y.y.y.y.y.y.y.y.y.y.y.y.d.d.d.d.d.d.y.y.y.y.y.d.d.d.&.3.3.3.3.3.3.3.3.3.3.3.3.3.3.3.3.2.3.3.3.3.",
"d.d.d.d.y.y.y.y.y.y.y.y.y.y.y.y.y.y.d.d.d.d.d.y.y.y.y.d.d.d.d.d.y.y.y.y.y.y.y.y.y.y.d.3.3.&.d.d.d.d.&.3.3.3.3.3.3.3.3.3.3.i.d.f.",
"y.y.y.y.y.y.y.y.y.y.y.y.y.y.y.y.d.s.;.,.,.,.;.d.y.y.d.;.,.,.,.;.d.y.y.y.y.v.B.N.B.v.d.3.3.d.y.y.y.y.d.i.d.d.d.i.i.d.d.d.d.d.y.y.",
"y.y.y.y.y.y.y.y.y.y.y.y.y.y.y.d.;.,.<.<.<.>.>.;.s.s.;.>.<.<.<.<.;.d.y.y.v.B.V.V.V.B.g.A.3.d.y.y.y.y.y.f.y.y.y.d.d.y.y.y.y.y.y.k.",
"y.y.y.y.y.y.y.y.y.y.y.y.y.y.d.;.>.<.S.M.S.<.>.>.,.,.>.<.S.M.M.S.<.;.d.y.B.V.V.V.V.V.N.n.Z.i.d.y.y.y.y.y.y.y.y.y.y.y.y.B.N.N.N.N."
};
