/* XPM */
static char *rcp07111715487259[] = {
/* columns rows colors chars-per-pixel */
"64 64 179 2 ",
"   c #20132A",
".  c #28023C",
"X  c #281331",
"o  c #351C3B",
"O  c #2E2328",
"+  c #373538",
"@  c #433C39",
"#  c #354231",
"$  c #414828",
"%  c #45443B",
"&  c #554E3C",
"*  c #44513B",
"=  c #6D663C",
"-  c #6B7E38",
";  c #2D0143",
":  c #2F0048",
">  c #33014D",
",  c #330646",
"<  c #3C0554",
"1  c #350150",
"2  c #361545",
"3  c #3B3E43",
"4  c #41164C",
"5  c #4A135E",
"6  c #473B44",
"7  c #4C2854",
"8  c #47294C",
"9  c #49076B",
"0  c #4C1562",
"q  c #4D0172",
"w  c #55017D",
"e  c #571570",
"r  c #4E2F64",
"t  c #552B60",
"y  c #693E62",
"u  c #662F7F",
"i  c #623F73",
"p  c #5F4F41",
"a  c #4D5C43",
"s  c #584455",
"d  c #705E46",
"f  c #516A46",
"g  c #5F7D46",
"h  c #5B794D",
"j  c #506456",
"k  c #5F7C51",
"l  c #606146",
"z  c #726E49",
"x  c #637E4B",
"c  c #737D48",
"v  c #624E6F",
"b  c #73576B",
"n  c #6C5876",
"m  c #7C5B77",
"M  c #546660",
"N  c #5C7F63",
"B  c #837C4E",
"V  c #8A7F54",
"C  c #748C3C",
"Z  c #62864D",
"A  c #798A43",
"S  c #758445",
"D  c #7F9943",
"F  c #658C53",
"G  c #699056",
"H  c #729C5C",
"J  c #789F58",
"K  c #7AA65F",
"L  c #7FAB5E",
"P  c #658162",
"I  c #6D8765",
"U  c #6D966F",
"Y  c #73996C",
"T  c #7A9A6F",
"R  c #749A68",
"E  c #668F72",
"W  c #679175",
"Q  c #6B9472",
"!  c #719671",
"~  c #76A464",
"^  c #79A763",
"/  c #7AA962",
"(  c #73A069",
")  c #839D4B",
"_  c #9A984C",
"`  c #A19D4D",
"'  c #8AA54B",
"]  c #93AC4A",
"[  c #95B34D",
"{  c #9AB64D",
"}  c #9CB94E",
"|  c #8EAF57",
" . c #81AB5E",
".. c #8AAE5C",
"X. c #80A45E",
"o. c #8FB156",
"O. c #95B651",
"+. c #9AB751",
"@. c #9EB850",
"#. c #A0B94F",
"$. c #A7A95A",
"%. c #A3B950",
"&. c #AEB65C",
"*. c #A8B954",
"=. c #B3BA56",
"-. c #B4B55D",
";. c #B6B959",
":. c #BDBA5A",
">. c #B8B658",
",. c #829E6B",
"<. c #82AA62",
"1. c #88AC61",
"2. c #ACB160",
"3. c #5B0385",
"4. c #5E058A",
"5. c #5E1983",
"6. c #600889",
"7. c #601087",
"8. c #64118B",
"9. c #6A178E",
"0. c #640193",
"q. c #6A019B",
"w. c #6E0B9F",
"e. c #670099",
"r. c #6B1793",
"t. c #751E93",
"y. c #6D2788",
"u. c #7506AA",
"i. c #760BA9",
"p. c #790CAD",
"a. c #7612A5",
"s. c #7914A5",
"d. c #7712A8",
"f. c #7913A9",
"g. c #791AA8",
"h. c #7C09B3",
"j. c #7E24AD",
"k. c #7D28A8",
"l. c #8717B4",
"z. c #8917B4",
"x. c #8814B7",
"c. c #8423B2",
"v. c #8E3DB8",
"b. c #9136BE",
"n. c #8E4DAE",
"m. c #9157AE",
"M. c #934CB5",
"N. c #9859B7",
"B. c #9966A7",
"V. c #A972AE",
"C. c #A26FB6",
"Z. c #A870BA",
"A. c #870FC1",
"S. c #8C12C6",
"D. c #8F15C8",
"F. c #9115CA",
"G. c #9716D2",
"H. c #9918D6",
"J. c #A522DA",
"K. c #A31EE3",
"L. c #AF22EE",
"P. c #B125E3",
"I. c #B626F4",
"U. c #BC28FB",
"Y. c #B826FA",
"T. c #9D44C5",
"R. c #9F52C2",
"E. c #A34DCC",
"W. c #B35FD9",
"Q. c #B664D8",
"!. c #BA64E0",
"~. c #C271DE",
"^. c #CA7AEB",
"/. c #CE86E8",
"(. c #D48AE5",
"). c #D084EC",
"_. c #D78AFA",
"`. c #D88AF6",
"'. c #DE90F8",
/* pixels */
"} } } } o.Q W W W Q | | Q W W W ! -.:.:.:.:.-.T ! W T -.:.:.:.:.:.-.,.+.:.:.:.:.:.:.:.:.;.} } } } } } } } %.:.:.:.:.:.:.:.:.:.;.",
"O.O.} O.Y W ! ! W W Q Q W ! ! W ! 2.:.:.:.:.:.-.2.,.2.:.:.:.:.:.:.:.-.;.:.:.:.:.:.:.:.:.;.%.} } } } } ;.;.;.:.:.:.:.:.:.:.:.;.%.",
"Q Y ..Y W T 2.2.T W W W T 2.2.T ! T -.:.:.:.:.:.:.-.:.:.:.:.:.:.:.:.:.:.:.:.:.:.:.:.:.:.:.:.;.#.} } #.;.;.;.;.;.;.;.;.;.;.%.} O.",
"W ! Y W ! 2.:.:.2.T ! T 2.:.:.-.2.,.-.:.:.:.:.:.:.:.:.:.:.:.:.;.;.;.:.:.:.:.:.;.;.:.:.:.:.:.:.%.} } } #.#.#.#.} #.#.#.#.#.} O.Y ",
"T 2.2.T T -.:.:.:.-.-.-.:.:.:.:.:.-.:.:.:.;.;.;.;.:.:.:.:.;.%.#.} %.;.:.:.:.-.1.1.-.:.:.:.:.:.:.;.;.%.} } } } } } } } #.@.O.| Q ",
"-.:.:.-.-.;.;.;.:.:.:.:.:.;.;.;.;.:.:.:.-.1.<.<.1.-.;.;.;.%.} } } } %.;.;.&.1.^ ^ 1.;.:.:.:.:.:.;.;.=.} } } } } } } %.;.-.,.T ! ",
":.:.:.:.;.%.} %.;.:.:.:.;.%.} @.@.-.;.-.1.^ ^ ^ ^ 1.@.%.=.#.} } } O.O.O.<.<.^ ^ ^ <.-.;.;.;.;.;.%.} } } } } } #.%.;.;.:.:.-.-.-.",
":.:.:.;.%.} } } %.:.:.;.%.} O. ./ <.<.<.^ ^ ^ ^ ^  .O.} } } } } O. ./ / ^ ^ ^ ^ ^ / O.#.#.#.#.#.} } } } } } %.;.;.;.;.;.:.:.:.:.",
";.;.%.} } } } } } ;.;.;.#.O. .^ ^ ^ ^ ^ ^ ^ ^ ^ / O.O.O.O.} } O.L ^ ^ ^ ^ / / ^ ^ ^ L O.} } } } } } } } } %.;.:.;.%.} %.;.:.:.:.",
"} } } } } } } } } } %.=.@.O./ ^ ^ ^ ^ ^ ^ ^ ^ ^ ^ / / /  .O.O.L ^ ^ ^ ^ L O.O. ./ ^ ^ L O.O.} } } } } } =.;.;.;.%.} } } %.;.;.;.",
"} } } } } } O.O.O.O.O.O. ./ ^ ^ / / / ^ ^ ^ ^ ^ ^ ^ ^ ^ ^ / / ^ ^ ^ ^ / O.} } O.O. ./ /  . .+.} } } } } } } } } } } } } } } } } ",
"} } } } } +. . . ./ / / ^ ^ ^ L O.O.O.L ^ ^ / / / ^ ^ ^ ^ ^ ^ ^ / / ^ / O.} } } } O.O.O.O.O.} } } } } } } } O.O.O.} } } } } } } ",
"} } } } } } O.O.O. ./ / ^ ^ / O.} } } O./ L O.O.O. ./ ^ ^ ^ ^ L O.O.L / O.} } } } } } } } } } } } } } } } O. ./  .O.} } } } } } ",
"} } } } } } } } } +.O.O. ./  .O.} } } O. .O.} } } O.O. ./ /  .O.} } O. . .+.} } } } } } } } O.O.O.} } } O.L ^ ^ ^  .O.} } } } } ",
"} } } } } %.;.;.%.} } } +.+.@.} } } } } +.} } } } } } O.O.O.O.} } } } O.O.} } } } } } } } O. ./  .O.O.O.L ^ ^ ^ ^ / O.} } } } } ",
"} } } } %.;.:.:.;.%.} } %.;.;.;.;.%.} } } } } } } } } O.O.O.O.} } } } } } } } } } } } } O.L ^ ^ ^ / / / ^ ^ ^ ^ ^ / O.O.O.} } } ",
"O.O.%.;.:.:.:.:.:.:.;.;.;.:.:.:.;.=.&.+.} } O.O.O.O.O. ./ /  .O.O.} } O.O.O.O.} } } } O.L ^ ^ ^ ^ ^ ^ ^ ^ ^ ^ ^ ^ ^ / /  .O.O.O.",
" ...=.;.:.:.:.:.:.:.:.:.:.:.:.-.1.<.<. .O.O. ./ / / / ^ ^ ^ ^ K  .O.O. ./ /  .O.O.O.O.L ^ ^ ^ ^ ^ ^ ^ ^ ^ ^ ^ ^ ^ ^ ^ ^ ^ / / / ",
"O.+.} #.%.;.:.:.:.:.:.:.;.;.&.1./ / / ^ / / ^ ^ ^ ^ ^ ^ ^ ^ G h H / / ^ ^ ^ ^ / ^ ^ ^ ~ ^ ^ ^ ^ ^ ^ ^ ^ ^ ^ ^ ^ ^ ^ ^ ^ ^ / / / ",
"} } } } #.*.:.:.:.:.:.;.%... . .O.O.O. ./ / / ^ ^ ^ ^ ^ ^ H # i a ^ ^ ^ ^ ^ ^ ( Q Q Q Q ( / / / / / / / / ~ ~ ~ ~ ^ ^ ^ L O.O.O.",
"#.%.;.;.;.;.:.:.:.:.:.%.} O.O.O.} } O.O.O.O.o./ ^ ^ ^ ^ ^ h   m.n F ^ ~ ^ ~ ~ Q W W W W U ..O.O.O.O.O.O.| U Q Q Q ( ~ / O.} } } ",
";.;.:.:.:.:.:.:.:.:.;.#.} } } } } +. . ./ / / ^ ^ ^ ^ ^ H % . N.C.f R Q Q Q ( Q W W W W W Q Q Q Q Y o.o.Y ! ! ! W Q Q ^ O.} } } ",
";.;.;.;.;.:.:.:.:.:.%.} } } } } } } O.O. ./ ^ ^ ^ ^ ^ ^ k < 1 N.(.n N E W W ! ! ! ! W W W W ! ! ! ! Q Q T 2.-.2.T W W U O.@.%.;.",
"#.} } } %.;.:.:.:.:.%.} } } } } } } } } O.O. ./ / / ^ ^ + 3.> m.~.B.M E ! T 2.-.-.2.T W W T 2.-.-.2.T T 2.:.:.:.2.T ! ! ,.-.;.;.",
"} } } } } %.;.;.:.:.;.%.;.;.%.} } } } } } } O.O.O.O.K f 0 e.> n.c.Q.v I 2.-.:.:.:.:.2.! T 2.:.:.:.:.-.-.:.:.:.:.:.-.-.-.-.;.%.#.",
"#.#.} } } } } %.;.:.:.;.;.;.=.%.} } } } } } } } } [ J 6 6.e.> n.f.T.B.z :.:.:.:.:.:.-.,.2.:.:.:.:.:.:.:.:.:.:.:.:.:.:.:.:.;.#.#.",
";.;.%.} } } } } %.;.;.;.%.#.%.=.} } } } } } } } } { S 5 S.e.> n.a.j.).b ` :.:.:.:.:.:.-.:.:.:.:.:.:.:.:.:.:.:.:.:.:.:.:.:.:.*.;.",
":.:.;.#.} } } } } #.#.#.} } } } } } } } } } } } { ] p a.K.q.> n.d.w.!.Z.= >.:.;.;.:.:.:.:.:.:.;.;.:.:.:.:.:.:.:.:.:.:.:.:.:.:.:.",
":.:.;.#.} %.;.;.%.} } } } } } } } } } } } } } } } A < S.I.S.> n.d.w.W.(.m ` ;.%.#.%.;.:.:.;.;.%.%.;.;.:.;.%.%.;.:.:.:.:.:.:.:.:.",
":.:.:.%.%.;.:.:.;.;.%.} } } } } } } } } } } } } [ % p.H.I.F.> n.d.j.).`.V.B { { } } %.;.;.%.} } } } %.=.%.} } %.:.:.:.:.:.:.:.:.",
":.:.:.:.;.:.:.:.:.;.;.;.;.;.;.;.;.;.=.} } } } { - 5 G.I.Y.F.> n.f.T._._./.b ' } } } #.;.%.} } } } } } } } } } } ;.:.:.:.:.;.;.;.",
";.;.;.;.;.;.;.;.;.%.} } @.+.+.+.+.+.} } } } { ] @ 3.p.L.Y.D.> M.g.Q._._.'.B.c { } } #.=.} } } } } } } } } } } } ;.;.;.;.;.%.} } ",
"#.} #.#.} } } } } } O.O. ./ / / /  .O.} O.O.[ C 0 i.i.A.x.4.> N.b.k.v.E.^.^.s [ } } } } } } } } } } } } } } } } } } } } } } } } ",
"} } } } } } } } O.O. ./ ^ ^ ^ ^ ^ ^ L O. ./ K g y.P.G.q.e.0.4.E.9.: > q 5.g.8 [ } } } } O.O.O.} } } } } } } } } } } } } } } } } ",
"} } } } } } } O. ./ ^ ^ ^ ^ ^ ^ ^ ^ ^ / ^ ^ ^ Z u J.h.h.q.q.0.E.7.; ; < 3.q @ [ [ } } O. ./  .O.} } } } } } } } } } } } } } } } ",
"} } } } } O.O.L ^ ^ ^ / / / / / ^ ^ ^ ^ ^ ^ ^ ^ * r.S.u.e.q.w M.7.; ; ; q , x /  .O.O. ./ / ^ L O.} } } } } } O.O.O.} } } } } } ",
"} } } O.O. ./ ^ ^ ^ L O.O.+.+.O.L ^ ^ ^ / / / ^ F 2 u.q.e.h.i.M.7.q 9 ; > @ H K ^ / /  .O.O.L ^ L O.} } } } O. ./  .O.} } } O.O.",
"O.} +. . ./ / / /  .O.} } } } } O./ ^ L O.O.O. .K a q q.e.F.z.M.7.w q ; X g O.O. ./  .O.} } O. ./  .+.} } O.L ^ ^ ^ L O.O.O. ./ ",
" .O.O.O.O.O.O.O.O.O.} } } } } } O. . .O.} } } O.O.A < q.u.I.l.M.8.w e.> O D [ O.O.O.O.} } O.O.O.O.O.} } O. .^ ^ ^ ^ ^ / / / ^ ^ ",
"/  . . .+.} } } } } } } } } } } } O.O.} } } } O.O.) 6 0.H.U.l.M.8.w e., $ ' L  .O.} O.O.O. ./ /  .O.} } O./ ^ ^ / / / ^ ^ ^ ^ ^ ",
"O.O.O.O.} } } } O.O.O.O.O.} } O.O.O.} } } } +.T Y U j 9 K.U.l.M.8.w e.o Z / ^ ^ L O. ./ / ^ ^ ^ ^ L O.O.L ^ ^ L O.O.O. ./ / / / ",
"} } } } } } } O.Y Q Q Q Y o.o.Y Q Y O.} %.;.;.-.2.T P r J.U.l.M.8.w 3.3 ( ^ ^ ^ ^ / ^ ^ ^ ^ ^ ^ ^ ^ / / ^ ^ / O.} } } O.O.+.O.+.",
"} } } } } O.O.Y ! ! ! ! W Q Q ! ! W Y +.;.:.:.:.:.-.$.a j.U.l.M.8.w 4 P Q ( <.<.^ ^ ^ / / ^ ^ / / / ^ ^ ^ ^  .O.} } } } } } } } ",
"} } O.O.o.Y Y T 2.-.-.2.T ! T 2.2.T T -.:.:.:.:.:.:.:.$.7 I.z.M.f.w d $.T T &.-.1.^ / O.O. . .O.O.O.L ^ ^ / O.O.O.O.O.O.O.} } } ",
"@.O.Y Y Y T 2.-.:.:.:.:.-.-.-.:.:.-.-.:.:.:.:.;.;.;.:.:.B t.z.M.a.7 _ :.-.-.:.:.-.1. .+.} O.O.} } } O./ ^ ^ / / / / / /  .O.O.O.",
"-.,.T 2.-.-.:.:.:.:.;.;.;.:.:.:.:.:.:.:.:.:.-.1.<.1.-.:.$.y s.M.9.& ] >.:.:.:.:.:.;.=.%.} } } } } } O./ ^ ^ ^ ^ <.<.<.<.<. . . .",
";.-.-.;.;.;.:.:.;.&.1.<.1.&.;.:.:.;.;.;.;.&.1.^ ^ ^ 1.&.-.V e R.t C { %.;.;.;.;.;.:.:.;.=.} } } } } O./ <.<.<.1.&.;.;.;.;.;.;.;.",
"} } } } } %.;.;... ./ / ^ <.1.&.&.1.<.<.<.<.^ ^ ^ ^ ^ <.<.X.l s S [ } } } } } } %.;.;.;.%.} } } } +. . .&.=.=.=.;.;.;.;.;.;.;.;.",
"} } } } } } #.} +.O.O.O. ./ / 1.<.^ ^ ^ ^ ^ ^ ^ ^ ^ ^ ^ ^ ^ K H L O.O.O.} } } O.O.+.+.+.O.} } } } } O.+.} } } } } } } } } } #.#.",
"} } } } } } } } } } } } O.O.O.O. ./ / / ^ ^ ^ ^ ^ ^ ^ ^ ^ ^ ^ ^ ^ / /  .O.O.O. ./ / / /  .O.} } } } } } } } } } } } } } } } } #.",
";.;.;.%.} } } } } } } } } } } } O.O.O.o./ ^ ^ / / / ^ ^ ^ ^ ^ ^ ^ ^ ^ ^ / / / ^ ^ <.<.<./ +.} } } } } } } } } } } } } } } } %.;.",
":.:.:.;.%.} } } } } } O.O.O.O.O. ./ / / ^ ^ L O.O.O.L ^ ^ ^ ^ ^ ^ ^ / / / / / / 1.&.;.&...+.} } } } } } } } } } } } } } } %.;.:.",
";.;.;.:.;.;.;.%.} } +. . . . . ./ / / / /  .O.} } } O./ ^ ^ ^ / /  .O.O.+.+.O.+.=.:.:.:.;.%.} } } } } } } } } } } } =.;.;.;.:.:.",
"} #.%.;.:.:.:.;.%.} } O.O.O.O.O.O.O.O.O.O.O.} } } } O. ./ /  .O.O.+.} %.;.;.%.%.;.:.:.:.:.;.} } } } } } } } } } } } } %.;.:.:.;.",
"} } } %.;.;.;.;.=.} } } } } } } } } } } } } } } } } } O.O.O.O.} } %.;.;.:.:.:.:.:.;.;.;.:.;.%.} } } } } } } } } } } } } } %.=.%.",
"} } } } #.#.#.#.} } } } } } } } } } } } } } } } } } } } } } } } +.&.;.;.;.;.;.;.&.1.<.1.-.:.;.;.;.;.%.} } } } +.O.+.} } } } } } ",
"} } } } } } } } } } } } } } } } } } } } } } } } } } } } } } } O. .<.<.<. . .<.<.<.^ ^ ^ 1.&.;.;.;.;.=.=.=.=.&. ./  .O.O.O.O.O.} ",
"O.O.O.O.O.O.O.O.} } } } } } } } } } } } } } } } } } } } O.O.O.L ^ ^ /  .O.O.L ^ ^ ^ ^ ^ ^ <.<.<.<.<.<.<.<.<.<.^ ^ ^ / / / /  .O.",
"/ / / /  . . . .+.} } } } } } } } } } } } } } } } } } +. . . ./ /  .O.O.} } O. ./ / ^ ^ ^ ^ ^ ^ ^ ^ ^ ^ ^ ^ ^ ^ ^ ^ ^ ^ ^ ^ ^ / ",
"/ / /  .O.O.O.O.} } } } } } } } } } } } } } } } } } } } O.O.O.O.O.O.} } } } } O.O.O.L ^ ^ ^ / / / / ^ ^ ^ ^ ^ ^ ^ ^ ^ ^ ^ ^ / / ",
"O.O.+.O.} } } } } } } } } } } } } } O.O.O.O.O.} } } } O.O.O.O.O.} } } } } } } } } } O./ ^ L O.O.O.O.L ^ / / / ^ ^ / / / /  .O.+.",
"} } } } } } } } } } } } } } } } O.o.Y Q Q Q Y O.} } O.Y Q Q Q Y O.} } } } %.;.;.;.%.+./ / O.} } } } O. .O.O.O. . .O.O.O.O.O.} } ",
"} } } } } } } } } } } } } } } O.Y Q ! ! ! W W Y o.o.Y W ! ! ! ! Y O.} } %.;.:.:.:.;.@.1./ O.} } } } } +.} } } O.O.} } } } } #.#.",
"} } } } } } } } } } } } } } O.Y W ! 2.-.2.! W W Q Q W ! 2.-.-.2.! Y O.} ;.:.:.:.:.:.;.&.<. .O.} } } } } } } } } } } } ;.;.;.;.;."
};
