/* XPM */
static char *result[] = {
/* columns rows colors chars-per-pixel */
"64 64 173 2 ",
"   c #29241F",
".  c #31271F",
"X  c #2F2522",
"o  c #2F2D24",
"O  c #332624",
"+  c #322E23",
"@  c #3E2A26",
"#  c #3F2E2D",
"$  c #383127",
"%  c #3D3D25",
"&  c #412A27",
"*  c #432E2C",
"=  c #413324",
"-  c #42312F",
";  c #4E362E",
":  c #553B2D",
">  c #583829",
",  c #4A3934",
"<  c #593A30",
"1  c #523E39",
"2  c #633F30",
"3  c #4B422E",
"4  c #554729",
"5  c #59442A",
"6  c #5B4436",
"7  c #56433A",
"8  c #5A453E",
"9  c #584939",
"0  c #60412D",
"q  c #664832",
"w  c #634B3B",
"e  c #7C4430",
"r  c #6E513A",
"t  c #785637",
"y  c #5F6E3F",
"u  c #624E44",
"i  c #645142",
"p  c #675546",
"a  c #68534A",
"s  c #735B43",
"d  c #5D6C40",
"f  c #526848",
"g  c #5B6F4C",
"h  c #4D6356",
"j  c #516654",
"k  c #5A745E",
"l  c #7C6245",
"z  c #77654D",
"x  c #667444",
"c  c #697845",
"v  c #637548",
"b  c #627C53",
"n  c #567365",
"m  c #5A7562",
"M  c #824631",
"N  c #884933",
"B  c #914F34",
"V  c #895831",
"C  c #955A32",
"Z  c #985D35",
"A  c #9D6035",
"S  c #A06D3D",
"D  c #AB7432",
"F  c #AA733B",
"G  c #B6783E",
"H  c #816446",
"J  c #866A4A",
"K  c #8E714F",
"L  c #8E765C",
"P  c #92795D",
"I  c #6E834A",
"U  c #768D4D",
"Y  c #7F9542",
"T  c #78904B",
"R  c #638155",
"E  c #6A8654",
"W  c #62845A",
"Q  c #6D945B",
"!  c #759757",
"~  c #7AA45E",
"^  c #7FAB5E",
"/  c #638569",
"(  c #698F6E",
")  c #6D956F",
"_  c #739F60",
"`  c #75946E",
"'  c #79946C",
"]  c #73996C",
"[  c #7A9A6F",
"{  c #658C71",
"}  c #679175",
"|  c #6B9472",
" . c #719671",
".. c #76A465",
"X. c #79A763",
"o. c #7AA962",
"O. c #AC8739",
"+. c #B8873D",
"@. c #D4AB3D",
"#. c #DDA93B",
"$. c #CAB03E",
"%. c #E0AD3C",
"&. c #EBB33D",
"*. c #849744",
"=. c #9D9B4D",
"-. c #909150",
";. c #A69C4E",
":. c #8CA447",
">. c #87A349",
",. c #8DA749",
"<. c #91A648",
"1. c #93B24F",
"2. c #9AB64E",
"3. c #9CB94E",
"4. c #8DAD54",
"5. c #8EA55A",
"6. c #81AB5E",
"7. c #8BAD5B",
"8. c #9BAA55",
"9. c #8FB156",
"0. c #95B651",
"q. c #9AB751",
"w. c #9EB850",
"e. c #A2B74B",
"r. c #A9B54B",
"t. c #A0B94F",
"y. c #ABA754",
"u. c #A6AB5F",
"i. c #A3B950",
"p. c #A8B954",
"a. c #AFB65C",
"s. c #BBB157",
"d. c #B3BA56",
"f. c #B4B55D",
"g. c #BBB659",
"h. c #B6B959",
"j. c #BDBA5A",
"k. c #8B9A65",
"l. c #829768",
"z. c #829E6B",
"x. c #82AA62",
"c. c #88AC61",
"v. c #ACB160",
"b. c #C88B49",
"n. c #C59645",
"m. c #CF9F42",
"M. c #C4A645",
"N. c #CDAA47",
"B. c #D3A646",
"V. c #D4AC44",
"C. c #DDB342",
"Z. c #C2B956",
"A. c #C8B855",
"S. c #E6B644",
"D. c #E1B74B",
"F. c #C6BC6C",
"G. c #F6C94E",
"H. c #F5CC51",
"J. c #F8D15B",
"K. c #C9C37D",
"L. c #D9D37B",
"P. c #E1D878",
"I. c #FAE07F",
"U. c #D7D385",
"Y. c #DCD892",
"T. c #E4DA85",
"R. c #ECDF85",
"E. c #E8E48B",
"W. c #FDE98B",
"Q. c #F9E891",
"!. c #FCFBD6",
"~. c #FCFCD8",
"^. c #FDFCE0",
/* pixels */
"3.2.3.3.9.| } } } | 0.7.| } } }  .f.Z.j.F.g.f.[ | } [ f.Z.j.K.Z.j.h.[ w.j.j.j.F.j.j.j.Z.d.e.3.3.3.3.3.3.t.i.j.j.j.j.j.j.j.j.j.j.",
"0.0.q.9.] } |  .} } |  .}  . .}  .v.j.j.Z.j.j.f.v.x.u.F.j.j.d.Z.j.j.h.j.j.Z.j.j.j.j.j.K.j.e.t.3.3.3.i.h.h.j.j.j.Z.j.j.j.j.j.j.i.",
"| ] 7.] | [ v.v.[ } } } [ v.v.[  .[ h.Z.j.j.Z.F.j.f.Z.Z.j.Z.j.j.j.j.j.j.j.j.j.j.Z.j.Z.Z.j.j.h.3.3.3.t.h.h.j.h.d.j.h.j.h.h.i.3.3.",
"}  .] } | v.j.j.v.[  .[ v.j.j.f.a.z.h.d.j.Z.j.j.F.j.Z.j.Z.j.g.j.j.j.j.Z.Z.j.j.j.h.j.j.d.Z.j.j.t.t.t.3.t.3.i.i.t.i.t.t.t.3.q.0...",
"[ a.v.[ [ f.j.j.j.f.f.f.j.j.Z.j.h.h.j.K.F.h.a.a.h.g.j.j.j.h.t.t.w.i.h.j.j.j.f.c.c.a.j.K.j.Z.j.h.h.d.t.3.3.3.3.3.3.3.3.3.w.q.7.| ",
"f.j.j.f.f.j.j.j.j.Z.j.j.j.j.j.j.h.F.j.j.p.c.^ o.c.f.j.j.j.t.3.3.3.3.i.h.f.f.c.X.o.c.h.j.Z.j.j.d.j.j.d.3.3.3.3.3.3.t.t.h.h.X.[  .",
"j.Z.j.j.j.i.w.i.j.j.j.j.j.i.w.q.w.h.h.a.c.o.o.o.o.6.q.i.h.3.3.3.3.q.q.0.c.o.X...o.o.d.j.j.j.d.d.t.t.t.3.3.3.3.t.t.h.h.Z.j.f.f.f.",
"j.j.j.h.w.q.w.3.i.j.j.j.i.3.0.o.o.c.o.o.o.o.o.o.o.^ 0.3.3.3.3.3.0.^ o.o.o.o.o.o.o.^ 0.t.t.t.3.3.3.3.3.3.3.3.t.d.j.j.h.j.j.F.j.Z.",
"j.h.t.3.3.3.3.3.w.d.j.j.3.0.6.o.o.o.o...o.o.o.o.o.0.0.0.0.3.3.0.^ o.o.....^ ^ ^ ..o.o.0.3.3.3.3.3.3.3.3.i.i.h.j.h.t.3.t.h.Z.j.j.",
"3.3.3.3.3.3.3.3.q.w.i.d.q.0.o.o.o.o.o.o.o...o.o.o.o.o.o.o.0.0.o.o.o.o.o.^ 0.9.o.o.o.o.^ 0.3.3.3.3.3.3.3.d.d.h.h.t.3.3.3.t.h.j.j.",
"3.3.3.3.3.3.0.0.0.3.0.0.^ o.o.o.o.o.^ o.o.o...o.o.o.o.o.o.o.o.o.o.o...^ 0.3.3.3.0.^ o.o.^ ^ 0.3.3.3.3.3.3.i.3.3.3.3.3.3.3.3.3.t.",
"3.3.3.3.3.0.7.6.6.o.^ o.o.o.o.^ 0.3.0.^ ..o.o.o.o.o.o.o.o.o.o.o.o.o.o.o.3.3.3.3.3.3.0.3.3.0.3.3.3.3.3.3.3.3.0.0.3.3.3.3.3.3.3.3.",
"3.3.3.3.3.3.3.0.0.6.o.o.o.o.o.0.3.3.3.0.o.^ 0.0.0.^ o.o.o.o.o.^ 0.0.^ o.0.3.3.3.3.3.0.3.3.3.3.3.3.3.3.3.3.0.^ o.^ 0.3.3.3.3.3.3.",
"3.3.3.3.3.3.3.t.3.0.3.0.^ o.^ 0.3.3.3.0.^ 0.3.3.3.0.0.^ o.o.^ 0.3.0.0.^ ^ 0.3.3.3.3.3.3.3.3.0.0.3.3.3.3.0.^ o.o.o.^ 0.3.3.3.3.3.",
"3.3.3.3.3.t.h.h.i.3.3.3.3.3.q.t.3.3.3.3.3.3.3.3.3.3.0.0.3.0.0.3.3.3.3.0.3.e.3.3.0.3.3.3.3.1.^ ^ ^ 0.0.0.o.o.o.o.o.o.3.3.3.3.3.3.",
"3.3.3.3.t.h.j.j.h.i.3.3.i.h.h.j.d.3.3.3.3.3.3.3.3.3.3.0.0.0.3.0.3.3.3.3.e.$.e.3.3.3.3.3.0.^ o.o.o.o.^ o.o...o.o.o.o.0.0.0.3.3.3.",
"3.0.t.h.j.j.j.j.Z.d.d.j.j.j.j.j.h.h.a.q.3.q.0.0.0.0.0.^ ^ ^ o.0.2.2.3.r.@.r.0.2.3.3.q.0.^ ..o.o.o.o.o...o.o.X...o.o.o.o.o.0.0.0.",
"^ 7.d.j.j.j.j.j.Z.K.Z.j.j.j.j.a.c.^ ^ x.0.0.^ ^ o.o.o.o.o.o.o.o.^ 2.3.@.#.5.7.0.0.0.0.^ o.o.o.o.o.o.o.o.X.o.o.o.X.X.o.o.o.o.o.o.",
"3.0.3.3.i.j.j.j.j.j.j.j.j.h.a.c.o.^ o.o.^ o.o.o.o...o.o.o...o.o.o.~ 8.#.%.8.N.7.o.o.....o.o.o.o.o.o.o...X.o.X.X.X.o.o.o.o.o.o.o.",
"3.3.3.3.i.p.j.j.j.j.j.h.i.9.c.^ 0.0.0.^ o.^ o.o.o.o.o...o.o.o.....7.@.&.G.S.%.5.| | | | ..o.o.o.o.o.o.o.o...X.X...X...o.^ 0.3.3.",
"t.t.d.j.j.j.j.j.j.j.j.i.3.3.0.3.3.3.0.0.0.9.9.o.o...o.o.o.X.o.X.o.6.V.G.W.Q.H.V.] } } } ] 7.9.9.9.0.3.0.7.] } }  ...X.o.0.3.3.3.",
"j.j.j.j.j.j.j.j.j.j.h.t.3.3.3.3.3.3.6.^ o.^ ^ o.o.o...o...o.o.o...o.5.V.J.W.H.B. .|  .} } | ) ) } ..9.9...|  .| } } | o.0.3.3.3.",
"j.d.j.h.j.j.j.j.j.j.t.3.3.3.3.3.3.3.0.0.^ o.o.o.o.o.o.o.o...X.X.o...] l.B.H.C.k. .k.M.` } }  . .| ] | | [ v.f.v.[ } }  .9.3.i.h.",
"t.t.t.t.i.j.j.j.j.j.i.3.3.3.3.3.3.3.3.3.0.0.^ o.o.o.o...o.o.7.6...| } } k.B.s.f.s.C.#.' } [ v.f.a.v.[ [ v.j.j.j.v.[  . .X.h.h.h.",
"3.3.3.3.3.t.d.j.j.j.j.i.h.h.i.3.3.3.3.3.3.3.0.0.0.0.o.o.o.4.;.! Q / / ` v.g.Z.Z.A.H.&.c.' v.j.j.Z.d.f.j.j.j.j.j.F.v.d.h.h.j.i.w.",
"t.t.3.3.3.3.t.i.d.j.j.j.h.h.d.i.3.3.3.3.3.3.3.3.3.0.^ o.! O.> . # 5 3 -.y.g.j.Z.D.I.G.N.f.Z.Z.j.Z.j.K.j.j.j.j.j.j.j.j.j.j.h.i.w.",
"j.d.t.3.3.3.3.3.i.d.j.d.t.t.t.d.3.3.3.3.3.3.3.3.3.3.3.=.3 - u p l +.D 4 4 ;.g.Z.A.H.&.Z.g.g.j.j.Z.j.Z.j.Z.j.j.j.j.K.Z.j.j.j.p.h.",
"j.j.d.t.3.3.t.t.t.t.t.t.3.3.3.t.3.3.3.3.3.3.3.3.3.e.<.t a a z L n.J H D D V ;.j.j.C.A.Z.Z.F.j.j.j.j.j.j.j.j.j.j.j.j.Z.j.j.j.j.j.",
"j.j.h.i.3.i.j.d.t.t.t.3.3.3.3.3.3.3.3.3.3.3.3.3.2.*.4 O.J P L K n.s a u r D 4 *.3.e.d.Z.j.j.h.i.t.h.j.j.h.t.i.j.j.j.j.j.j.Z.j.Z.",
"j.j.j.i.i.d.j.j.j.j.i.t.t.t.t.t.3.3.3.3.3.3.3.3.:.% 7 l m.B.B.B.J a 1 7 r F ; % ,.3.i.j.j.i.3.3.3.t.t.d.e.3.t.t.d.j.K.j.j.j.j.j.",
"Z.j.j.h.j.j.j.j.j.j.d.d.d.d.d.h.d.h.d.3.3.3.3.0.*.+ 1 l B.J J n.J 8 w s +.5 # . Y 3.t.h.t.3.3.3.3.3.3.3.3.3.3.3.j.Z.j.j.j.j.j.j.",
"j.j.j.j.h.j.h.j.d.t.t.t.3.3.t.3.q.3.3.3.3.3.3.1.% , w L.T.z 8 r S V n.R.P.9 # O % ,.t.d.t.3.3.3.3.3.3.3.3.3.3.e.d.j.h.j.h.i.w.w.",
"t.3.3.3.3.3.3.3.3.3.q.0.^ o.^ o.^ ^ 0.0.0.0.0.>.+ , a E.~.Y.z 7 s n.Q.!.E.9 - * > <.3.3.3.3.3.3.3.3.3.3.3.3.3.3.3.3.3.3.3.3.3.3.",
"3.3.3.3.3.3.3.3.0.0.^ o.o.o.o.o...o.^ 0.^ ^ ^ ! X * s T.~.!.K.u i U.!.^.U.w < M = :.3.3.0.2.0.3.3.3.3.3.3.3.3.3.3.3.3.3.3.3.3.3.",
"3.3.3.3.3.3.3.0.^ o.o.o.o.o.o.o.o.o.o.o.o.o.o.Q + : S b.T.U.z , 2 G Q.T.H Z B N $ :.3.9.^ ^ ^ 0.3.3.3.3.3.3.3.3.3.3.3.3.3.3.3.3.",
"3.3.3.3.3.q.9.^ o.o.o.o.o.o.o.~ o.o...o.o.o...! 6 e 0 A r 9 , w S q F G Z 2 * & 4 >.0.^ ^ ~ o.^ 0.3.3.3.3.3.3.0.0.0.3.3.3.3.3.3.",
"3.3.3.0.0.^ ^ o.o.o.^ 0.0.2.0.0.o.o.o.o.o.~ o.~ g $ @ : V < w F.F.7 ; ; < N @ + g ~ ^ ^ 0.0.^ o.^ 0.3.3.3.3.0.^ o.^ 0.0.3.3.0.3.",
"3.3.3.6.^ ^ o.^ o.^ 0.3.3.3.3.0.0.o.o.o.0.2.0.~ b f o O > C Z r 9 - * O & M = d R ~ ^ 0.3.0.0.^ ^ ^ 0.3.0.0.o.o.o.o.^ 0.0.0.^ ^ ",
"^ 0.0.0.0.0.3.0.0.0.3.3.3.3.3.3.0.^ ^ 0.3.3.2.1.T I d +   & > 2 @ O O O O < x I T 1.3.3.0.0.0.0.0.0.0.3.3.o.^ ..o.o.o.o.o.o.o.o.",
"^ ^ 6.6.0.3.3.3.3.3.3.3.3.3.3.3.3.0.0.3.3.3.2.0.4.U I v y @ . > X X   + y c b E 1.0.0.0.0.^ ^ o.^ 0.3.3.0.~ ^ ..o.o.o.o.o.o.o.o.",
"q.q.0.0.3.3.3.3.0.0.0.0.0.q.3.0.0.0.3.3.3.3.q.X. .| m n m v c c j h j v k R R ~ ~ 9.^ ^ o.o.o...o.^ 0.9.^ o.^ o.0.0.0.^ ^ ^ ^ ^ ",
"3.3.3.3.3.3.0.0.]  .| | ] 9.9.] | ] 9.q.i.h.j.f.v.[ | { n m E k n m m k W ~ ~ o.o.o.o.o.o.o...o.o.o.o.o.o.o.^ 0.3.3.3.0.0.0.0.0.",
"3.3.3.3.2.0.9.]  . . .| } |  . .] | ] q.h.g.j.j.j.f.v.[ } { ( { ` u.u.` } ..x.o.o.o.o.o.^ o.o.^ o.o.o.o.o.o.o.3.3.3.3.3.3.3.3.3.",
"3.3.9.0.9...] ] v.f.f.v.[  .[ v.v.[ [ v.j.j.j.F.j.j.j.v.[ } } [ v.g.j.v.[ [ a.f.6.o.^ 9.9.^ ^ 0.0.0.o.o.o.o.9.q.0.0.0.0.0.0.3.3.",
"w.0.] ] ] [ v.f.j.j.j.j.f.h.f.j.j.f.f.j.Z.Z.j.h.j.f.j.j.v.[  .a.j.j.j.j.f.f.j.j.a.c.6.q.3.0.q.3.3.3.0.o.o.o.o.o.o.o.^ o.^ 0.3.0.",
"f.[ [ a.f.f.j.Z.j.j.j.f.h.g.F.j.F.j.j.j.j.j.f.c.o.x.h.j.F.a.[ a.h.i.t.h.j.Z.j.j.j.h.d.w.w.3.3.3.3.3.0.o.o.o.o.o.c.x.x.x.^ ^ 6.^ ",
"h.f.f.j.j.j.j.j.j.f.c.x.c.a.h.j.j.h.h.h.h.v.c.o.o.o.c.h.h.a.p.d.i.3.3.t.h.j.h.j.j.j.j.j.d.3.3.3.3.3.0.^ o.o.x.c.a.h.h.h.h.h.d.d.",
"w.w.t.3.q.p.h.f.7.6.o.o.X.x.c.a.a.c.x.x.x.x.o...o.o.o.o.x.x.0.0.0.3.3.3.w.i.3.t.i.h.j.h.i.3.3.3.3.3.6.^ a.h.h.h.h.h.d.j.j.d.j.j.",
"3.3.3.3.3.3.t.3.3.0.0.0.o.o.o.^ ^ o.o.o.o.o.o.o.o.o...o...o.o.o.^ 0.0.0.3.3.3.0.q.q.q.3.0.3.3.3.3.3.0.3.3.3.3.3.t.t.t.t.3.t.t.t.",
"3.t.3.3.3.3.3.3.3.3.3.3.3.0.0.3.^ o.^ o.o.o.o.o...o...o.o.o.o.o.o.o.^ ^ 0.0.0.^ ^ o.^ ^ ^ 0.3.3.3.3.3.3.3.3.3.3.3.3.3.3.3.3.3.3.",
"j.j.j.t.3.3.3.3.3.3.3.3.3.3.3.3.0.0.0.9.o.o...o.o.o.o.o.o.o.o.o.o.o.o.o.o.o.^ o.o.o.o.x.^ 0.3.3.3.3.3.3.3.3.3.3.3.3.3.3.3.3.i.h.",
"j.j.j.h.t.t.t.3.3.3.3.3.0.0.0.0.^ o.^ o.o.o.o.0.0.0.o...o.o.o.o.o.o.o.^ ^ o.o.^ c.a.h.a.c.3.3.3.3.3.3.3.3.3.3.3.3.3.3.3.t.i.h.j.",
"h.h.j.j.j.h.h.i.3.3.3.^ ^ ^ ^ ^ ^ o.^ ^ o.^ 0.3.3.3.0.^ o.o.o.o.o.o.0.q.3.3.q.3.h.j.j.j.d.i.3.3.3.3.3.3.3.3.3.3.3.3.d.h.h.j.j.j.",
"t.t.t.h.j.j.j.h.3.3.3.0.3.0.3.3.3.0.0.0.0.0.3.3.3.3.0.^ ^ o.^ 0.0.0.3.i.h.h.3.i.j.j.j.j.j.h.t.3.0.3.3.3.3.3.3.3.3.3.t.t.h.j.j.j.",
"3.3.3.t.j.j.j.j.d.3.3.3.3.3.3.3.3.3.3.3.3.3.3.3.3.3.3.0.0.0.3.3.3.i.h.j.F.h.j.j.j.j.f.j.F.h.p.3.3.t.3.3.3.3.3.3.3.3.3.3.t.t.d.t.",
"3.3.3.3.3.e.3.3.3.3.3.3.3.3.3.3.3.3.3.3.3.3.3.3.3.3.3.3.0.3.3.3.3.a.h.h.f.h.h.h.v.c.o.c.a.j.h.j.d.d.i.t.3.t.3.3.3.3.3.3.3.3.t.3.",
"3.3.3.0.3.3.3.3.3.3.3.3.3.3.3.3.3.3.3.3.3.3.3.3.3.3.3.3.3.3.q.0.^ x.^ ^ c.x.x.x.o.o.o.o.c.a.j.h.h.h.h.a.h.h.p.^ o.^ 0.0.0.0.0.3.",
"3.0.0.0.3.0.0.3.3.3.3.3.0.3.3.3.3.3.3.3.3.3.0.3.3.3.3.3.q.0.0.^ o.o.^ ^ 0.9.^ o.o.o.o.o.o.o.o.o.x.x.o.o.o.o.o.o.o.o.o.o.o.o.o.0.",
"^ ^ ^ ^ ^ ^ ^ ^ 3.3.3.3.3.3.3.3.3.3.3.q.3.3.3.3.3.3.3.3.6.c.6.^ o.^ 0.0.3.3.0.^ o.o.o.o.o.o.o.o.o.o.o.o.o.o.o.o.o.o.o.o.o.o.o.o.",
"^ o.^ ^ 0.3.0.0.3.3.3.3.3.3.3.3.3.3.3.0.3.3.3.3.3.3.3.3.0.0.0.0.0.q.3.3.3.3.3.0.0.0.^ o.o.o.o.o.o.o.o.o.o.o.o.o.o.o.o.o.o.o.^ o.",
"0.0.0.3.3.3.3.3.3.3.3.3.3.3.3.3.3.q.0.0.9.0.0.0.3.3.3.0.0.0.0.0.3.3.3.3.3.3.3.i.t.3.0.o.o.^ 0.0.q.0.o.o.o.o.o.o.o.o.^ ^ o.o.0.3.",
"3.3.3.3.3.0.3.3.3.3.3.3.3.3.3.3.0.7...| ) | ] 0.0.3.9.] | | | ] 9.3.3.3.3.3.h.j.d.i.3.^ o.0.3.3.q.3.0.c.0.0.0.^ ^ 0.0.3.3.0.3.3.",
"3.0.3.3.3.3.3.3.3.3.3.3.3.0.0.1.]  . .] ) | } ] 9.0.) }  . . .| ] 9.3.3.i.j.j.j.j.d.3.c.o.0.3.3.3.3.3.0.3.3.3.0.0.3.3.t.t.t.3.3.",
"3.3.3.3.3.3.3.3.3.3.3.3.3.3.9._ } | v.v.v.] } } } ) } ) v.f.f.v.] ] 0.3.h.j.j.j.F.j.h.a.o.^ 0.3.3.3.3.3.3.3.3.3.3.3.t.h.h.j.h.d."
};
