/* XPM */
static char *f9eca40945504c79dff998df69ceef02pB0pBzhurSJxYapf[] = {
/* columns rows colors chars-per-pixel */
"64 64 5 1 ",
"  c #9BB94E",
". c #679175",
"X c #BFBA5B",
"o c #79A863",
"O c white",
/* pixels */
"     .....  .....XXXXXX....XXXXXXX. XXXXXXXXX         XXXXXXXXXX",
"    .............XXXXXXXX.XXXXXXXXXXXXXXXXXXX      XXXXXXXXXXXX ",
".. ...XX.....XX...XXXXXXXXXXXXXXXXXXXXXXXXXXXXX    XXXXXXXXXX   ",
".....XXXX...XXXXX.XXXXXXXXXXXXXXXXXXXXXXXXXXXXX                .",
".XX..XXXXXXXXXXXXXXXXXXXXXXXXX    XXXXXooXXXXXXXXX             .",
"XXXXXXXXXXXXXXXXXXXXXooooXXXX      XXXooooXXXXXXXXX        XX...",
"XXXXX   XXXXX    XXXoooooo  X       ooooooXXXXXX         XXXXXXX",
"XXXX     XXX   ooooooooooo       ooooooooo             XXXXXXXXX",
"XX       XXX  ooooooooooo       ooooooooooo           XXX   XXXX",
"           X  ooooooooooooooo  oooooo  ooooo        XXXX     XXX",
"            oooooooooooooooooooooooo     ooooo                  ",
"      oooooooooo   ooooooooooooooooo                            ",
"         oooooo     oo   ooooooo  oo                  ooo       ",
"            ooo     o      oooo    oo                ooooo      ",
"      XX                                      ooo   oooooo      ",
"     XXXX    XXXX                            ooooooooooooo      ",
"   XXXXXXXXXXXXXXXX        oooo             ooooooooooooooooo   ",
"ooXXXXXXXXXXXXXXoooo  ooooooooooo  oooo    ooooooooooooooooooooo",
"     XXXXXXXXXXooooooooooooooooooooooooooooooooooooooooooooooooo",
"      XXXXXX ooo   ooooooooooooooooooooo....ooooooooooooooooo   ",
"  XXXXXXXXX            oooooooooooooooo......        ....ooo    ",
"XXXXXXXXXXX       ooooooooooooooooo...o...........  .......o    ",
"XXXXXXXXXX          oooooooooooooo...................XXX....   X",
"     XXXXX            ooooooooooo.....XXXX....XXXX..XXXXX....XXX",
"      XXXXX XX            ooooooo...XXXXXXX..XXXXXXXXXXXXXXXXX  ",
"        XXXXXXX           ooooo....XXXXXXXX.XXXXXXXXXXXXXXXXXX  ",
"XX       XXX   X           XXXXXX.XXXXXXXXXXXXXXXXXXXXXXXXXXXX X",
"XXX                       XX  XXXXXXXXXXXXXXXXXXXXXXXXXXXXXXXXXX",
"XXX   XX                  X    XXXXXXXX   XXXXX  XXXX  XXXXXXXXX",
"XXX  XXXXX                         XXX     XX      X    XXXXXXXX",
"XXXXXXXXXXXXXXXXXXX                 XX     X            XXXXXXXX",
"XXXXXXXXX                                  X            XXXXX   ",
"            oooooo                                              ",
"          ooooooooo oooo      XXX                               ",
"        ooooooooooooooooo   XXXXXX          ooo                 ",
"       ooooooooooooooooooXXXXXXXXXXXXXooo  ooooo                ",
"     oooooo     ooooooooooooXXXXXXXXXooooooo  ooo      ooo      ",
"   ooooooo       ooo   oooooooXXXooooo  ooo    ooo    ooooo   oo",
"o                oo                                  ooooooooooo",
"oooo                                  oo     oooo    ooooooooooo",
"                       ......   ... ooooo oooooooo  oooo   ooooo",
"        .....  ...   XXXX..... .....ooooooooooooooooooo         ",
"       ............ XXXXXXX......XX..oooooooooooooooooo         ",
"     ...XXXX...XX..XXXXXXXXX....XXXX..XXooo  oo   oooo          ",
"  ....XXXXXXXXXXXXXXXXXXXXXXX..XXXXXXXXXXoo        oooooooooo   ",
"X..XXXXXXXXXXXXXXXXXXXXoooXXXX.XX  XXXXXXXX        ooooooooooooo",
"XXXXXXXXXXoooXXXXXXXXXoooooXXXXX    XXXXXXXXX      oooooXXXXXXXX",
"      XXoooooooXXooooooooooooo           XXX      ooXXXXXXXXXXXX",
"            ooooooooooooooooooooo                               ",
"                oooooooooooooooooooo   oooooo                   ",
"XXX                 ooooooooooooooooooooooooo                  X",
"XXXX            ooooooo   oooooooooooooooXXXo                 XX",
"XXXXXXX    ooooooooooo     ooooooo      XXXXX             XXXXXX",
"   XXXXX                   oooo     XX  XXXXXX              XXXX",
"    XXXXX                         XXXXXXXXXXXX                X ",
"                                 XXXXXXXXoooXXXXXX              ",
"                                oooooooooooooXXXXXXXXXXooo      ",
"                               ooooo  ooooooooooooooooooooooooo ",
"oooooooo                    oooooo     ooooooooooooooooooooooooo",
"oooo                                      oooooooooooooooooooooo",
"                                           ooo    oooooooooooo  ",
"                  .....    .....      XXX  oo      o   oo       ",
"                ........  .......    XXXXX oo                   ",
"               ...XXX.......XXXX..  XXXXXXXXoo             XXXXX"
};
