/* XPM */
static char *_b6cdaa45992490289d73fbaaf0414c9IGxXCkRtkyn6POxA[] = {
/* columns rows colors chars-per-pixel */
"64 64 206 2 ",
"   c #1A1F10",
".  c #272B17",
"X  c #232E16",
"o  c #262E19",
"O  c #2C2D1B",
"+  c #322D1A",
"@  c #3A281D",
"#  c #243117",
"$  c #283017",
"%  c #273219",
"&  c #29331A",
"*  c #2E3A1D",
"=  c #31351E",
"-  c #353E1D",
";  c #3A381E",
":  c #3B2620",
">  c #2D3724",
",  c #2E3C22",
"<  c #333322",
"1  c #333C22",
"2  c #393A26",
"3  c #3E372A",
"4  c #3E3F2C",
"5  c #3E3734",
"6  c #3E3834",
"7  c #472A25",
"8  c #46372A",
"9  c #403B2B",
"0  c #56352C",
"q  c #423E37",
"w  c #573731",
"e  c #67363B",
"r  c #364123",
"t  c #3B4422",
"y  c #394C29",
"u  c #444925",
"i  c #42452B",
"p  c #454A2C",
"a  c #494E2E",
"s  c #4A502F",
"d  c #454334",
"f  c #454439",
"g  c #4B483A",
"h  c #51483E",
"j  c #4E5332",
"k  c #4F5F39",
"l  c #505734",
"z  c #525A37",
"x  c #56553B",
"c  c #565A3C",
"v  c #78542D",
"b  c #66563B",
"n  c #52633B",
"m  c #58663C",
"M  c #5D713E",
"N  c #6F3C41",
"B  c #7A3F46",
"V  c #4F4740",
"C  c #544D40",
"Z  c #5B5743",
"A  c #704F48",
"S  c #586341",
"D  c #5A6A43",
"F  c #5D7145",
"G  c #5F7E46",
"H  c #666747",
"J  c #627345",
"K  c #647549",
"L  c #6E754D",
"P  c #637A49",
"I  c #677B48",
"U  c #6F6952",
"Y  c #6B625A",
"T  c #716C55",
"R  c #796F67",
"E  c #7C7168",
"W  c #8C5C35",
"Q  c #896135",
"!  c #99643B",
"~  c #90444E",
"^  c #A44A57",
"/  c #887456",
"(  c #8B7B5B",
")  c #977B5B",
"_  c #A66A43",
"`  c #B46F44",
"'  c #A77347",
"]  c #AB7B45",
"[  c #B47548",
"{  c #887D6A",
"}  c #887C71",
"|  c #73893D",
" . c #66824F",
".. c #6D844B",
"X. c #6A8D4E",
"o. c #7C9642",
"O. c #7E9843",
"+. c #688C51",
"@. c #6E9859",
"#. c #739A56",
"$. c #759D5C",
"%. c #799958",
"&. c #78A25A",
"*. c #7BA55D",
"=. c #7FAB5E",
"-. c #668A66",
";. c #6D966F",
":. c #73996C",
">. c #7A9A6F",
",. c #679175",
"<. c #6B9472",
"1. c #719671",
"2. c #77A463",
"3. c #79A762",
"4. c #7AA962",
"5. c #829942",
"6. c #839A46",
"7. c #97984B",
"8. c #96825E",
"9. c #B4824A",
"0. c #BE874E",
"q. c #B38955",
"w. c #8CA647",
"e. c #85A24A",
"r. c #8CA34A",
"t. c #8DAA4C",
"y. c #92A94A",
"u. c #95B34E",
"i. c #99B64D",
"p. c #9CB94E",
"a. c #8DAE54",
"s. c #89A459",
"d. c #81AB5E",
"f. c #8AAD5C",
"g. c #9AA755",
"h. c #8FB056",
"j. c #95B651",
"k. c #9AB751",
"l. c #9DB950",
"z. c #9EB95F",
"x. c #A0B84F",
"c. c #A8A851",
"v. c #A3B950",
"b. c #AEB55B",
"n. c #B4B757",
"m. c #B3BA56",
"M. c #B3B55D",
"N. c #B6B65D",
"B. c #B5B55E",
"V. c #BAB759",
"C. c #B7BA58",
"Z. c #B7B85B",
"A. c #BAB95A",
"S. c #BDB95B",
"D. c #BFBA5B",
"F. c #958463",
"G. c #9B8865",
"H. c #9C8B69",
"J. c #829E6B",
"K. c #938879",
"L. c #A4906D",
"P. c #AA936D",
"I. c #A19D6F",
"U. c #BA9968",
"Y. c #AA9773",
"T. c #82AA61",
"R. c #88AC61",
"E. c #8FB16A",
"W. c #94B168",
"Q. c #ACB160",
"!. c #ADA272",
"~. c #B4A27C",
"^. c #A8B673",
"/. c #C08053",
"(. c #C38E52",
"). c #C8975C",
"_. c #C89C64",
"`. c #CCA368",
"'. c #A5C05D",
"]. c #AEC568",
"[. c #BCAF8B",
"{. c #B8B08A",
"}. c #BABB9B",
"|. c #C8B68B",
" X c #C5BA93",
".X c #CABD94",
"XX c #CEC095",
"oX c #CDC29A",
"OX c #D2C69D",
"+X c #D5C99D",
"@X c #DAC898",
"#X c #E0CB9A",
"$X c #CAC9A6",
"%X c #D5CCA2",
"&X c #DBCEA3",
"*X c #DDD1A4",
"=X c #DBD7A7",
"-X c #D8D9B1",
";X c #E3D3A4",
":X c #E3D7AA",
">X c #E6DAAD",
",X c #E5DEB4",
"<X c #DEE5B2",
"1X c #E5E4B6",
"2X c #EDEAC1",
"3X c #F2EFC5",
/* pixels */
"p.p.p.p.h.<.,.,.,.<.a.a.<.,.,.,.1.B.S.S.S.S.B.>.1.,.>.B.S.S.S.S.S.B.J.k.S.S.S.S.S.S.S.S.A.p.p.p.p.p.p.p.p.v.S.S.S.S.S.S.S.S.S.A.",
"j.j.p.j.:.,.1.1.,.,.<.<.,.1.1.,.1.Q.S.S.S.S.S.B.Q.J.Q.S.S.S.S.S.S.S.B.A.S.S.S.S.S.S.S.S.A.v.p.p.p.p.p.C.A.A.S.S.S.S.S.S.S.S.C.v.",
"<.:.f.:.,.>.Q.Q.>.,.,.,.>.Q.Q.>.1.>.B.S.S.S.S.S.S.B.S.S.S.S.S.S.S.S.S.S.S.S.S.S.S.S.S.S.S.A.C.x.p.p.p.C.A.A.A.A.A.A.A.A.A.v.p.j.",
",.1.:.,.1.Q.S.S.Q.>.1.>.Q.S.S.B.Q.J.B.S.S.S.S.S.S.S.S.S.S.S.S.A.A.A.S.S.S.S.S.C.C.S.S.S.S.S.S.v.p.p.p.p.x.p.p.p.p.p.p.p.x.p.j.:.",
">.Q.Q.>.>.B.S.S.S.B.B.B.S.S.S.S.S.B.S.S.S.C.C.C.C.S.S.S.S.A.v.x.p.v.C.S.S.S.M.R.R.B.S.S.S.S.S.S.A.C.v.p.p.p.p.p.p.p.p.p.l.j.a.<.",
"B.S.S.B.B.A.A.A.S.S.S.S.S.A.A.A.A.S.S.S.M.R.T.T.R.M.A.A.A.v.p.p.p.p.v.C.C.b.R.3.3.R.C.S.S.S.S.S.A.A.m.p.p.p.p.p.p.p.v.C.M.J.:.1.",
"S.S.S.S.C.v.p.v.C.S.S.S.C.v.p.l.l.b.b.b.R.3.3.3.3.R.l.v.m.p.p.p.p.j.j.j.T.T.3.3.3.T.B.A.A.A.A.b.k.p.p.p.p.p.p.x.v.C.A.S.S.B.B.B.",
"S.S.A.C.v.p.p.p.v.A.S.A.v.p.j.d.*.P  .*.3.3.3.3.3.d.j.p.p.p.p.p.j.d.4.4.3.3.3.3.3.4.j.p.p.p.y...I u.p.p.p.p.v.A.A.A.A.A.S.S.S.S.",
"A.C.v.p.p.p.p.p.p.C.A.A.p.j.d.3.@.y F  .$.2.3.3.4.j.j.j.j.p.p.j.=.3.3.3.3.4.4.3.3.3.=.j.i.t...D r w.p.p.p.v.C.S.C.v.p.v.C.S.S.S.",
"p.p.p.p.p.p.p.p.p.p.v.m.k.j.4.3.@.y D P P  .$.3.3.4.4.4.d.j.j.=.3.3.3.3.=.j.j.d.4.3.3.*.a...J j & w.p.p.m.C.A.C.v.p.p.p.v.C.A.A.",
"p.p.p.p.p.p.j.j.j.j.j.j.d.4.3.3.+.r j F K P  .$.3.3.3.3.3.4.4.3.3.3.3.4.j.p.p.j.j.d.$. .P J D j & o.i.p.p.p.p.p.p.p.p.p.p.p.p.p.",
"p.p.p.p.p.k.d.d.d.4.4.4.3.3.3.#.- & a z F F P  .$.2.3.3.3.3.3.3.4.4.3.4.j.p.p.p.u.t...P F z l a $ - w.p.p.p.j.j.j.p.p.p.p.p.p.p.",
"p.p.p.p.p.p.j.j.j.d.4.4.3.3.4.e.$ % a j l z F P P  .$.&.2.2.&.*.a.a.*.*.a.u.u.t...I J F z j j a % $ w.p.p.j.d.4.d.j.p.p.p.p.p.p.",
"p.p.p.p.p.p.p.p.p.j.j.j.d.4.d.e.$ % a j j j z F K P I P P P P I I I I P P I I I P F z l j j j a % $ w.p.j.=.3.3.3.d.j.p.p.p.p.p.",
"p.p.p.p.p.v.C.C.v.p.p.p.k.k.l.w.$ % a j j s j z F F z l l l l l l l l l l l z z F F z j j j j a % $ e.j.=.3.3.3.3.4.j.p.p.p.p.p.",
"p.p.p.p.v.C.S.S.C.v.p.p.v.C.A.c.& % p j a r j D z l j j j j j j j j j j j j j j l z D j s j j a % o #.4.3.3.3.3.3.4.j.j.j.p.p.p.",
"j.j.v.A.A.S.S.S.S.A.A.A.A.S.S.c.& X * p t n j l j j j j j j j j j j j j j j j j j j l j r a j p % o @.3.3.3.3.3.3.3.4.4.d.j.j.j.",
"d.f.m.A.A.S.S.S.S.S.S.S.S.S.S.g.o X # * n z j j j j j j j j j j j j j j j j j j j j j j n t p * X % @.3.3.3.3.3.3.3.3.3.3.4.4.4.",
"j.k.p.x.v.A.S.S.S.S.S.S.A.C.b.%., X # r m l j j j j j j l l l l l l l l l l j j j j j j z n * # X , @.3.3.3.3.3.3.3.3.3.3.4.4.4.",
"p.p.x.x.x.v.A.S.S.S.S.A.x.f.d.d.o.o $ n z j j j j j l z D D D D K K K D D D z l j j j j l m 1 X o +.=.4.4.2.2.2.2.3.3.3.=.j.j.j.",
"p.v.C.A.A.A.S.S.S.S.A.v.p.j.j.j.w.$ . j j j j j l z J J h f f C ( F.( C f f S D z l j j j z k . o 6.j.j.a.;.<.<.<.2.2.4.j.p.p.p.",
"A.A.S.S.S.S.S.S.S.S.A.x.p.p.p.i.o.= i j j j j z J L ' 8.( h h ( G.G.G.( h 6 q f S D z j j j j p > P a.h.:.1.1.1.,.<.<.3.j.p.p.p.",
"A.A.A.A.A.S.S.S.S.S.v.p.p.p.p.w.t p j j j j z L ' [ [ G.L.H.H.L.P.P.P.L.F.h 6 6 q f S z j j j j p > -.<.>.Q.B.Q.>.,.,.;.j.l.v.C.",
"p.p.p.p.v.C.S.S.S.S.v.p.p.p.i.o.= a j j j l J ' ` [ q.P.+X*X*X*X*X*X*X*X+XH.V q 5 6 f D l j j j a < P >.Q.S.S.S.Q.>.1.1.J.M.C.A.",
"p.p.p.p.p.v.C.A.S.S.C.v.C.n.5.t p j j j j j J Q ! ] 9.).@XOXOX:X>X>X:XOXOXOX} Y f 6 g D l j j j j p u 7.V.S.S.S.S.B.B.B.B.A.v.p.",
"p.p.p.p.p.p.p.v.C.S.S.A.V.7.u p j j j j j c L [ [ ).).q._.H U %X>X>X%XU U OXOXK.R Z { L j j j j j j p u 7.V.S.S.S.S.S.S.S.A.x.p.",
"A.A.v.p.p.p.p.p.v.C.A.n.6.t i j j j j j l ! [ (.).|..XXX+XOXOX:X>X>X:XOX%X*X%X X XOX+XH.9 p j j j j j i t 7.V.S.S.S.S.S.S.A.v.C.",
"S.S.A.x.p.p.p.p.p.p.p.y.u o & p a j j a + W ] 9.] b Z s.W.<X1X>X>X>X>X1X<XW.s.Z U &X>X+X( < a j j a p & o a c.S.S.S.S.S.S.S.A.S.",
"S.S.A.p.p.v.C.C.v.p.p.i.5.- $ % & p a p + ! 0.(.(.q.U.s.m W.<X>X>X>X>X<XW.m &.W.-X3X>X+X( O p a p & $ & - 5.x.A.S.S.S.S.S.S.S.S.",
"S.S.A.v.v.C.S.S.A.C.v.p.p.y.5.- $ % $ & o + v ] 9.9.`.`.J f.^.=X>X,X=X^.f.M W.<X1X>X+XF.< o & $ $ $ - 7.y.i.p.v.S.S.S.S.S.S.S.S.",
"S.S.S.A.A.S.S.S.S.A.C.C.C.C.n.c.7.- $ X X X + ! (.`.#X;X+X*X=X>X,X,X>X=X*XOX=X>X>X+XF.< X X X $ - o.w.p.p.p.p.x.A.S.S.S.S.A.A.A.",
"A.A.A.A.A.A.A.A.C.v.p.p.l.k.k.k.k.r.5.- $ $ $ ; ( |.oX:X>X>X>X%XT T %X>X>X>X:XoX X8.< o $ $ - o.w.i.p.p.p.p.p.x.C.A.A.A.C.v.p.p.",
"p.x.x.x.p.p.p.p.p.p.j.j.d.4.4.4.4.d.j.w.e.e.o.- . < d {.oXoXoX.X[.[..XoXoXoX{.d < . - 5.w.w.w.i.p.p.p.p.p.p.p.p.p.p.p.p.p.p.p.p.",
"p.p.p.p.p.p.p.p.j.j.d.4.3.3.3.3.3.3.=.j.d.4.*.X.*   X < < 3 9 9 8 8 9 9 3 < < X   - 5.i.j.j.j.p.p.p.p.p.p.p.p.p.p.p.p.p.p.p.p.p.",
"p.p.p.p.p.p.p.j.d.4.3.3.3.3.3.3.3.3.3.4.3.3.3.2.G o X . 7 B A N 7 7 N A B 7 . X o | u.j.d.4.d.j.p.p.p.p.p.p.p.p.p.p.p.p.p.p.p.p.",
"p.p.p.p.p.j.j.=.3.3.3.4.4.4.4.4.3.3.3.3.3.3.2.+., X o 7 ~ ^ ~ w / / w ~ ^ ~ 7 o X - o.=.4.4.3.=.j.p.l.'.'.l.p.j.j.j.p.p.p.p.p.p.",
"p.p.p.j.j.d.4.3.3.3.=.j.j.k.k.j.=.3.3.3.4.4.#., X # o 7 ~ ~ e w ) ) w e ~ ~ 7 o # X , #.j.j.=.3.T.z.].1X1X].j.d.4.d.j.p.p.p.j.j.",
"j.p.k.d.d.4.4.4.4.d.j.p.p.p.p.p.j.4.3.=.j.u.o.& $ & o : e e w / L.L./ w e e : o & $ & o.i.p.j.d.E.<X=X>X>X=XE.3.3.3.=.j.j.j.d.4.",
"d.j.j.j.j.j.j.j.j.j.p.p.p.p.p.p.j.d.d.j.p.w.t p a p * o : w / Y.+X+XP._ 0 @ o * p a p t w.j.j.g.!.=X>X+X!.I.4.3.3.3.3.4.4.4.3.3.",
"4.d.d.d.k.p.p.p.p.p.p.p.p.p.p.p.p.j.j.p.i.o.= a j j p $ < / Y.+X>X>X@X/.! @ $ p j j a = o.*.%.L.XX*X+X!.g.T.3.3.4.4.4.3.3.3.3.3.",
"j.j.j.j.p.p.p.p.j.j.j.j.j.p.p.j.j.j.p.p.w.t p j j j p 2 / Y.+X>X>X:X#X).` v ; i j j j p 1  .c 8.G.I.z.j.d.3.3.=.j.j.j.d.4.4.4.4.",
"p.p.p.p.p.p.p.j.:.<.<.<.:.h.h.:.<.:.j.i.5.= a j j a < / Y.+X>X>X>X;X`.(.! ` W + a j j a . 4 / / c $.4.4.3.3.4.j.p.p.p.k.j.j.j.j.",
"p.p.p.p.p.j.h.:.1.1.1.1.,.<.<.1.1.,.:.r.t p j j j a = H.+X>X>X>X>X&Xq.9.0.0.Q O a j j j i O T c @.*.3.3.3.3.d.j.p.p.p.p.p.p.p.p.",
"p.p.j.j.h.:.:.>.Q.B.B.Q.>.1.>.Q.Q.>.>.g.= a j j j p g  X*X:X>X>X>X;X`.).9.9.] 8 p j j j a . a 6.u.j.=.3.3.4.j.j.j.j.j.j.j.p.p.p.",
"l.j.:.:.:.>.Q.B.S.S.S.S.B.B.B.S.S.B.M.7.= a j j a 2 {.&X~.*X>X>X*X*X;X#X_.0.).q.; a j j a $ | u.p.p.j.4.3.3.4.4.4.4.4.4.d.j.j.j.",
"M.J.>.Q.B.B.S.S.S.S.C.C.C.S.S.S.S.S.c.2 $ a j j a 2 oX*XY..X>X2X~.~.2X>X|.P.@X.X2 a j j a $ - w.p.p.j.4.3.3.3.3.T.T.T.T.T.d.d.d.",
"A.M.M.A.A.A.S.S.C.b.R.T.R.b.C.S.S.B.7.$ % a j j a 2 oX*XL.H &X2XH.H.2X&XH L.*XoX2 a j j a $ $ o.i.p.j.4.T.T.T.R.b.C.C.C.C.C.C.C.",
"p.p.p.p.p.v.C.C.f.d.4.4.3.T.R.b.b.%.1 o * a j j a 2 .X:X.XH $X1Xx x 1X$XH .X>XoX2 a j j a * o - w.k.d.d.b.m.m.m.A.A.A.A.A.A.A.A.",
"p.p.p.p.p.p.p.p.k.j.j.j.d.4.4.R.4.+.o & a j j j i ; U.@X&XH.T }.d d }.T H.&X>XoXi p j j j a & $ o.i.j.k.p.p.p.p.p.p.p.p.p.p.p.x.",
"p.p.p.p.p.p.p.p.p.p.p.p.j.j.j.j.X.1 & a j s j a + v ] U.&X+XH.Z 9 9 Z H.+X>X>X&X( < a j s j a * t 5.i.p.p.p.p.p.p.p.p.p.p.p.p.p.",
"A.A.C.v.p.p.p.p.p.p.p.p.p.p.i.5.t p a j s r s a + _ _.@X:X>X+XL.G.G.L.+X>X>X>X*XF.O a s r s j a p t 5.i.p.p.p.p.p.p.p.p.p.p.v.A.",
"S.S.S.A.v.p.p.p.p.p.p.j.j.u.O.t p a j j j s j a + ) @X:X>X>X>X*X*X*X*X>X>X>X>X*XF.O a j s j j j a p t 5.i.p.p.p.p.p.p.p.p.v.A.S.",
"A.A.A.S.A.A.C.v.p.p.k.d.d.X.r p a r s j s j j a O F.&X>X>X>X>X>X>X>X>X&X&X>X>X*XF.O a j j s j s r a p t 5.i.p.p.p.p.m.C.A.A.S.S.",
"x.x.v.C.S.S.S.C.v.p.p.u.O.t p a j s j s r s j a O F.*X>X>X>X>X>X>X&XoXK.K.&X>X*XF.= a j s r s j s j j p t 5.i.p.p.p.p.v.C.A.S.A.",
"p.p.p.v.C.A.A.A.m.p.p.w.t p a r s j j a a j j a O ( &X>X>X>X>X,X*XK.} E } &X>X&X( 1 a j j a a j j j j j p t w.p.p.p.p.p.p.v.m.v.",
"p.p.p.p.p.p.p.p.p.p.p.w.t p a a j j a 1 a j j a $ 4 oX>X>X>X>X2X,XK.} E } oX>XoX4 & a j j a 1 a j j a a p t r.k.j.j.p.p.p.p.p.p.",
"p.p.p.p.p.p.p.p.p.p.p.i.5.t $ & p p * & p a a p % <  X:X>X:X+XL.F.V g Y R K.&X X< % p a a p & * p p & $ t 7.b.d.4.d.j.j.j.j.j.p.",
"j.j.j.j.j.j.j.j.p.p.p.p.i.O.- $ % % X # & & & & X O H.+X*X+XG.x d 4 4 f Y { .XH.o X % & & & # X % % o , X.T.T.3.3.3.4.4.4.4.d.j.",
"4.4.4.4.d.d.d.d.k.p.p.p.p.i.w.o.- $ $ X X X X X X = ( Y.~.L.x X.#.%.o.i Z Y L./ < X X X X X X o o , +.@.2.3.3.3.3.3.3.3.3.3.3.4.",
"4.4.4.d.j.j.j.j.p.p.p.p.p.p.p.i.w.w.o.- $ $ $ $ - | H $X-X$Xm t.j.j.t.c }.$X$XH | - o o o o , X.#.#.3.3.3.3.3.3.3.3.3.3.3.3.4.4.",
"j.j.j.j.p.p.p.p.p.p.p.p.p.p.p.p.p.p.j.e.e.e.e.w.w.u.6.S c S 6.j.p.p.i.e.m c m 6.i.w.e.#.@.#.e.u.j.j.=.3.4.4.4.3.3.4.4.4.4.d.j.k.",
"p.p.p.p.p.p.p.p.p.p.p.p.p.p.p.p.j.h.:.<.<.<.:.j.p.p.a.-.-.-.;.:.j.p.p.i.t.y.c.V.C.v.j.4.4.j.p.p.p.p.j.d.j.j.j.d.d.j.j.j.j.j.p.p.",
"p.p.p.p.p.p.p.p.p.p.p.p.p.p.p.j.:.<.1.1.1.,.,.:.h.h.:.,.1.1.1.1.:.j.p.p.v.C.S.S.S.C.l.R.4.j.p.p.p.p.p.k.p.p.p.j.j.p.p.p.p.p.p.x.",
"p.p.p.p.p.p.p.p.p.p.p.p.p.p.j.:.,.1.Q.B.Q.1.,.,.<.<.,.1.Q.B.B.Q.1.:.j.p.C.S.S.S.S.S.A.b.T.d.j.p.p.p.p.p.p.p.p.p.p.p.p.C.A.A.A.A."
};
