/* XPM */
static char *rcp02591782115601[] = {
/* columns rows colors chars-per-pixel */
"64 64 153 2 ",
"   c #470000",
".  c #4B0101",
"X  c #4E0F08",
"o  c #570200",
"O  c #5E120B",
"+  c #6A0706",
"@  c #6C0904",
"#  c #7B0404",
"$  c #6C170D",
"%  c #77150B",
"&  c #771818",
"*  c #4E2411",
"=  c #77201E",
"-  c #722F18",
";  c #6D3B1B",
":  c #763B1D",
">  c #413621",
",  c #593029",
"<  c #55392B",
"1  c #585F36",
"2  c #654920",
"3  c #6C4E22",
"4  c #695E2F",
"5  c #7D5328",
"6  c #725C2A",
"7  c #795A32",
"8  c #66612A",
"9  c #797E3E",
"0  c #5E5341",
"q  c #6A5A44",
"w  c #5E7A48",
"e  c #5F6B58",
"r  c #5E7C5A",
"t  c #647443",
"y  c #647255",
"u  c #6F7E55",
"i  c #8C0804",
"p  c #860808",
"a  c #8B0F0E",
"s  c #830805",
"d  c #920403",
"f  c #9C0303",
"g  c #980D0D",
"h  c #910B0B",
"j  c #821008",
"k  c #89130C",
"l  c #831616",
"z  c #8F1817",
"x  c #9F1717",
"c  c #A20302",
"v  c #A90B09",
"b  c #B20808",
"n  c #BD0C0C",
"m  c #A41610",
"M  c #AA1A1A",
"N  c #BD1010",
"B  c #832B2B",
"V  c #9B2E22",
"C  c #893737",
"Z  c #8B3D3C",
"A  c #943030",
"S  c #A12B2B",
"D  c #BA2524",
"F  c #B72B2B",
"G  c #A43122",
"H  c #A63231",
"J  c #AE3434",
"K  c #B13635",
"L  c #C0100F",
"P  c #CE1816",
"I  c #CC1F1D",
"U  c #C41212",
"Y  c #D31515",
"T  c #E31E1E",
"R  c #DB201F",
"E  c #D02522",
"W  c #C53D3C",
"Q  c #EC2423",
"!  c #F32626",
"~  c #FE2929",
"^  c #827B37",
"/  c #875F40",
"(  c #805F51",
")  c #90674D",
"_  c #896054",
"`  c #9D6F56",
"'  c #C94E4E",
"]  c #D35654",
"[  c #C3635D",
"{  c #DD6160",
"}  c #C67471",
"|  c #CD7A74",
" . c #E56564",
".. c #E4716F",
"X. c #F17E7E",
"o. c #758137",
"O. c #788236",
"+. c #75873E",
"@. c #678047",
"#. c #678B52",
"$. c #6E8F51",
"%. c #74A15F",
"&. c #7FAB5E",
"*. c #63876C",
"=. c #64896C",
"-. c #6E966E",
";. c #73996C",
":. c #7A9A6F",
">. c #679175",
",. c #6B9472",
"<. c #719671",
"1. c #76A465",
"2. c #79A763",
"3. c #7AA962",
"4. c #73A069",
"5. c #838239",
"6. c #96894A",
"7. c #93844A",
"8. c #869645",
"9. c #8EAC4B",
"0. c #91AD49",
"q. c #9BAF4C",
"w. c #9AB64E",
"e. c #9CB94E",
"r. c #93B24E",
"t. c #8EAF57",
"y. c #81AB5E",
"u. c #8BAE5B",
"i. c #8FB156",
"p. c #95B651",
"a. c #9AB751",
"s. c #9EB850",
"d. c #A0B94F",
"f. c #A2A752",
"g. c #ABA752",
"h. c #AEAF54",
"j. c #A2A459",
"k. c #A6AA58",
"l. c #A0B752",
"z. c #A3B950",
"x. c #AFBA55",
"c. c #AEB65C",
"v. c #B3BA56",
"b. c #B4B55D",
"n. c #BCB75B",
"m. c #B6B959",
"M. c #BDBA5A",
"N. c #829E6B",
"B. c #82AA62",
"V. c #88AC61",
"C. c #ACB160",
"Z. c #F68F8E",
"A. c #FD8F8E",
/* pixels */
"e.e.e.e.i.,.>.>.>.,.t.t.,.>.>.>.<.b.M.M.M.M.b.:.<.>.:.b.M.M.M.M.M.b.N.a.M.M.M.M.M.M.M.M.m.e.e.e.e.e.e.e.e.z.m.M.M.M.M.M.M.M.M.m.",
"p.p.e.p.;.>.<.<.>.>.,.,.>.<.<.>.<.C.M.M.M.M.M.b.C.N.C.M.M.M.M.M.M.M.b.m.M.M.M.M.M.M.M.M.m.z.e.e.e.e.e.m.m.m.M.M.M.M.M.M.M.M.m.z.",
",.;.u.;.>.:.C.C.:.>.>.>.:.C.C.:.<.:.b.M.M.M.M.M.M.b.M.M.M.M.M.M.M.M.M.M.M.M.M.M.M.M.M.M.M.M.m.d.e.e.d.m.m.m.m.m.m.m.m.m.m.z.e.p.",
">.<.;.>.<.C.M.M.C.:.<.:.C.M.M.b.C.N.b.M.M.M.M.M.M.M.M.M.M.M.M.m.m.m.M.M.M.M.M.m.m.M.M.M.M.M.M.z.d.d.e.d.d.d.d.e.d.d.d.d.d.e.p.;.",
":.C.C.:.:.b.M.M.M.b.b.b.M.M.M.M.M.b.M.M.M.m.m.m.m.M.M.M.M.m.z.d.e.z.m.M.M.M.b.V.V.b.M.M.M.M.M.M.m.m.z.e.e.e.e.e.e.e.e.d.s.p.t.,.",
"b.M.M.b.b.m.m.m.M.M.M.M.M.m.m.m.m.M.M.M.b.V.B.B.V.b.m.m.m.z.e.e.e.e.z.m.m.c.V.2.2.V.m.M.M.M.M.M.m.m.v.e.e.e.e.e.e.e.z.m.b.N.:.<.",
"M.M.M.M.m.z.e.z.m.M.M.M.m.z.e.s.s.b.m.b.V.2.2.2.2.V.s.z.v.d.e.e.e.p.p.p.V.B.2.2.2.B.b.m.m.m.m.m.z.e.e.e.e.e.e.d.z.m.m.M.M.b.b.b.",
"M.M.M.m.z.e.e.e.z.M.M.m.z.e.p.y.3.B.B.B.2.2.2.2.2.y.p.e.e.e.e.e.p.y.3.3.2.2.2.2.2.3.a.d.e.e.e.d.e.e.e.e.e.e.z.m.m.m.m.m.M.M.M.M.",
"m.m.z.e.e.e.e.e.e.m.m.m.d.p.y.2.2.2.2.2.2.2.2.2.3.p.p.p.p.e.e.p.&.2.2.2.2.3.3.2.2.2.&.p.e.e.e.e.e.e.e.e.e.z.m.M.m.z.e.z.m.M.M.M.",
"e.e.e.e.e.e.e.e.e.e.z.v.s.p.3.2.2.2.2.2.2.2.2.2.2.3.3.3.y.p.p.&.2.2.2.2.&.p.p.y.3.2.2.&.p.p.e.e.e.e.e.e.v.m.m.m.z.e.e.e.z.m.m.m.",
"e.e.e.e.e.e.p.p.p.p.p.p.y.3.2.2.3.3.3.2.2.2.2.2.2.2.2.2.2.3.3.2.2.2.2.3.p.e.e.p.p.y.3.3.y.y.a.e.e.e.e.e.e.e.e.e.e.e.e.e.e.e.e.e.",
"e.e.e.e.e.a.y.y.y.3.3.3.2.2.2.&.p.p.p.&.2.2.3.3.3.2.2.2.2.2.2.2.3.3.2.3.p.e.e.e.e.p.p.p.p.p.e.e.e.e.e.e.e.e.p.p.p.e.e.e.e.e.e.e.",
"e.e.e.e.e.e.p.p.p.y.3.3.2.2.3.p.e.e.e.p.3.&.p.p.p.y.3.2.2.2.2.&.p.p.&.3.p.e.e.e.e.e.e.e.e.e.e.e.e.e.e.e.e.p.y.3.y.p.e.e.e.e.e.e.",
"e.e.e.e.e.e.e.e.e.a.p.p.y.3.y.p.e.e.e.p.y.p.e.e.e.p.p.y.3.3.y.p.e.e.p.y.y.a.e.e.e.e.e.e.e.e.p.p.p.e.e.e.p.&.2.2.2.y.p.e.e.e.e.e.",
"e.e.e.e.e.z.m.m.z.e.e.e.a.a.s.e.e.e.e.e.a.e.e.e.e.e.e.p.p.p.p.e.e.e.e.p.p.e.e.e.e.e.e.e.e.p.y.3.y.p.p.p.&.2.2.2.2.3.p.e.e.e.e.e.",
"e.e.e.e.z.m.M.M.m.z.e.e.z.m.m.m.m.z.e.e.e.e.e.e.e.e.e.p.p.p.p.e.e.e.e.e.e.e.e.e.e.e.e.e.p.&.2.2.2.3.3.3.2.2.2.2.2.3.p.p.p.e.e.e.",
"p.p.z.m.M.M.M.M.M.M.m.m.m.M.M.M.m.v.c.a.e.e.p.p.p.p.p.y.3.3.y.p.p.e.e.p.p.p.p.e.e.e.e.p.&.2.2.2.2.2.2.2.2.2.2.2.2.2.3.3.y.p.p.p.",
"y.u.v.m.M.M.M.M.M.M.M.M.M.M.M.b.V.B.B.y.p.p.y.3.&.3.3.2.2.2.2.3.y.p.p.y.3.3.y.p.p.p.p.&.2.2.2.2.2.2.2.2.2.2.2.2.2.2.2.2.2.3.3.3.",
"a.a.e.d.z.m.M.M.M.M.M.M.m.m.c.V.3.3.3.2.3.3.2.2.2.2.2.2.2.2.2.2.2.3.3.2.2.2.2.3.2.2.2.1.2.2.2.2.2.2.2.2.2.2.2.2.2.2.2.2.2.3.3.3.",
"e.e.e.e.d.z.M.M.M.M.M.m.l.u.y.y.p.p.p.y.3.3.3.2.2.2.2.2.2.2.2.2.2.2.2.2.2.2.2.1.,.,.,.,.1.3.3.3.3.3.3.3.3.1.1.1.1.2.2.2.&.p.p.p.",
"d.z.m.m.m.m.M.M.M.M.M.z.e.p.p.p.e.e.p.p.p.p.i.3.2.2.2.2.2.2.2.2.2.2.2.1.2.2.2.,.>.>.>.>.-.u.p.p.p.p.p.p.t.-.,.,.,.1.1.3.p.e.e.e.",
"m.m.M.M.M.M.M.M.M.M.m.d.e.e.e.e.e.a.y.y.3.3.3.2.2.2.2.2.2.2.2.2.2.2.1.,.,.,.4.,.>.>.>.>.>.,.,.,.,.;.i.i.;.<.<.<.>.,.,.2.p.e.e.e.",
"m.m.m.m.m.M.M.M.M.M.z.e.e.e.e.e.e.e.p.p.y.3.2.2.2.2.2.2.2.2.%.#.%.1.,.>.>.>.<.<.<.<.>.>.>.>.<.<.<.<.,.,.:.C.b.C.:.>.>.-.p.s.z.m.",
"d.e.e.e.z.m.M.M.M.M.z.e.e.e.e.e.e.e.e.e.p.p.y.3.3.3.2.2.2.2.w , u -.>.>.<.:.C.b.b.C.:.>.>.:.C.b.b.C.:.:.C.M.M.M.C.:.<.<.N.b.m.m.",
"e.e.e.e.e.z.m.m.M.M.m.z.m.m.z.e.e.e.e.e.e.e.p.p.p.p.3.2.2.%.> C ( =.>.:.C.b.M.M.M.M.C.<.:.C.M.M.M.M.b.b.M.M.M.M.M.b.b.b.b.m.z.d.",
"d.d.e.e.e.e.e.z.m.M.M.m.m.m.v.z.e.e.e.e.e.e.e.e.e.p.y.B.B.t O Z } e :.C.M.M.M.M.M.M.b.N.C.M.M.M.M.M.M.M.M.M.M.M.M.M.M.M.M.m.d.d.",
"m.m.z.e.e.e.e.e.z.m.m.m.z.d.z.v.e.e.e.e.e.e.e.e.e.e.s.b.k.: # B  ._ j.M.M.M.M.M.M.M.M.b.M.M.M.M.M.M.M.M.M.M.M.M.M.M.M.M.M.M.z.m.",
"M.M.m.d.e.e.e.e.e.d.d.d.e.e.e.e.e.e.e.e.e.e.e.e.e.e.v.v.5.s s B D [ 7.M.M.M.M.m.m.M.M.M.M.M.M.m.m.M.M.M.M.M.M.M.M.M.M.M.M.M.M.M.",
"M.M.m.d.e.z.m.m.z.e.e.e.e.e.e.e.e.e.e.e.e.e.e.e.e.e.v.q.; L p B M ] ` g.M.M.m.z.d.z.m.M.M.m.m.z.z.m.m.M.m.z.z.m.M.M.M.M.M.M.M.M.",
"M.M.M.z.z.m.M.M.m.m.z.e.e.e.e.e.e.e.e.e.e.e.e.e.e.e.e.o.k Q h B M W } 6.M.m.z.e.e.e.z.m.m.z.e.e.e.e.z.v.z.e.e.z.M.M.M.M.M.M.M.M.",
"M.M.M.M.m.M.M.M.M.m.m.m.m.m.m.m.m.m.v.e.e.e.e.e.e.e.0.; P ! g B M { Z.) h.m.e.e.e.e.d.m.z.e.e.e.e.e.e.e.e.e.e.e.m.M.M.M.M.m.m.m.",
"m.m.m.m.m.m.m.m.m.z.e.e.s.a.a.a.a.a.e.e.e.e.e.e.e.w.O.j T ~ g B D X.A.| 9 e.e.e.e.e.d.v.e.e.e.e.e.e.e.e.e.e.e.e.m.m.m.m.m.z.e.e.",
"d.e.d.d.e.e.e.e.e.e.p.p.y.3.3.3.3.y.p.e.p.p.p.p.w.0.3 v n N # A F K ' ../ 0.e.e.e.e.e.e.e.e.e.e.e.e.e.e.e.e.e.e.e.e.e.e.e.e.e.e.",
"e.e.e.e.e.e.e.e.p.p.y.3.2.2.2.2.2.2.&.p.y.3.3.y.p.0.5 R n c f F & . + a ; 0.e.e.e.e.e.e.p.p.p.e.e.e.e.e.e.e.e.e.e.e.e.e.e.e.e.e.",
"e.e.e.e.e.e.e.p.y.3.2.2.2.2.2.2.2.2.2.3.2.2.2.2.y.p.^ m n c f S & . o @ 8 w.p.p.p.e.e.p.y.3.y.p.e.e.e.e.e.e.e.e.e.e.e.e.e.e.e.e.",
"e.e.e.e.e.p.p.&.2.2.2.3.3.3.3.3.2.2.2.2.2.2.2.2.B.c.f.- c f U H l #   * g.c.y.3.y.p.p.y.3.3.2.&.p.e.e.e.e.e.e.p.p.p.e.e.e.e.e.e.",
"e.e.e.p.p.y.3.2.2.2.&.p.p.a.a.p.&.2.2.2.3.3.3.2.2.B.B.1 i b T H l d . 4 c.V.3.3.2.3.3.y.p.p.&.2.&.p.e.e.e.e.p.y.3.y.p.e.e.e.p.p.",
"p.e.a.y.y.3.3.3.3.y.p.e.e.e.e.e.p.3.2.&.p.p.p.y.3.3.3.$.$ Y Q H l f X @.y.y.p.p.y.3.y.p.e.e.p.y.3.y.a.e.e.p.&.2.2.2.&.p.p.p.y.3.",
"y.p.p.p.p.p.p.p.p.p.e.e.e.e.e.e.p.y.y.p.e.e.e.p.p.p.p.r.6 I ! H l d 2 9.p.p.p.p.p.p.p.e.e.p.p.p.p.p.e.e.p.y.2.2.2.2.2.3.3.3.2.2.",
"3.y.y.y.a.e.e.e.e.e.e.e.e.e.e.e.e.p.p.e.e.e.e.p.p.p.p.p.8.G Q H z % +.w.p.p.y.y.p.e.p.p.p.y.3.3.y.p.e.e.p.3.2.2.3.3.3.2.2.2.2.2.",
"p.p.p.p.e.e.e.e.p.p.p.p.p.e.e.p.p.p.e.e.e.e.a.:.;.-.,.-.-.7 E H x < -.t.y.3.2.2.&.p.y.3.3.2.2.2.2.&.p.p.&.2.2.&.p.p.p.y.3.3.3.3.",
"e.e.e.e.e.e.e.p.;.,.,.,.;.i.i.;.,.;.p.e.z.m.m.b.C.:.<.>.>.r V J = y <.-.1.2.2.2.2.3.2.2.2.2.2.2.2.2.3.3.2.2.3.p.e.e.e.p.p.a.p.a.",
"e.e.e.e.e.p.p.;.<.<.<.<.>.,.,.<.<.>.;.a.m.M.M.M.M.b.C.:.>.>.0 B q k.C.:.,.1.B.B.2.2.2.3.3.2.2.3.3.3.2.2.2.2.y.p.e.e.e.e.e.e.e.e.",
"e.e.p.p.i.;.;.:.C.b.b.C.:.<.:.C.C.:.:.b.M.M.M.M.M.M.M.C.:.>.*.y j.n.M.C.:.:.c.b.V.2.3.p.p.y.y.p.p.p.&.2.2.3.p.p.p.p.p.p.p.e.e.e.",
"s.p.;.;.;.:.C.b.M.M.M.M.b.b.b.M.M.b.b.M.M.M.M.m.m.m.M.M.C.:.<.C.M.m.m.M.b.b.M.M.b.V.y.a.e.p.p.e.e.e.p.3.2.2.3.3.3.3.3.3.y.p.p.p.",
"b.N.:.C.b.b.M.M.M.M.m.m.m.M.M.M.M.M.M.M.M.M.b.V.B.V.b.M.M.C.N.b.m.z.z.m.M.M.M.M.M.m.v.z.e.e.e.e.e.e.p.3.2.2.2.2.B.B.B.B.B.y.y.y.",
"m.b.b.m.m.m.M.M.m.c.V.B.V.c.m.M.M.m.m.m.m.c.V.2.2.2.V.c.m.b.b.m.z.e.e.z.m.m.m.m.m.M.M.m.v.e.e.e.e.e.p.3.B.B.B.V.c.m.m.m.m.m.m.m.",
"e.e.e.e.e.z.m.m.u.y.3.3.2.B.V.c.c.V.B.B.B.B.2.2.2.2.2.B.B.V.a.a.p.e.e.e.e.e.e.e.z.m.m.m.z.e.e.e.e.a.y.y.c.v.v.v.m.m.m.m.m.m.m.m.",
"e.e.e.e.e.e.d.e.a.p.p.p.y.3.3.V.B.2.2.2.2.2.2.2.2.2.2.2.2.2.3.3.y.p.p.p.e.e.e.p.p.a.a.a.p.e.e.e.e.e.p.a.e.e.e.e.e.e.e.e.e.e.d.d.",
"e.e.e.e.e.e.e.e.e.e.e.e.p.p.p.p.y.3.3.3.2.2.2.2.2.2.2.2.2.2.2.2.2.3.3.y.p.p.p.y.3.3.3.3.y.p.e.e.e.e.e.e.e.e.e.e.e.e.e.e.e.e.e.d.",
"m.m.m.z.e.e.e.e.e.e.e.e.e.e.e.e.p.p.p.i.3.2.2.3.3.3.2.2.2.2.2.2.2.2.2.2.3.3.3.2.2.B.B.B.3.a.e.e.e.e.e.e.e.e.e.e.e.e.e.e.e.e.z.m.",
"M.M.M.m.z.e.e.e.e.e.e.p.p.p.p.p.y.3.3.3.2.2.&.p.p.p.&.2.2.2.2.2.2.2.3.3.3.3.3.3.V.c.m.c.u.a.e.e.e.e.e.e.e.e.e.e.e.e.e.e.e.z.m.M.",
"m.m.m.M.m.m.m.z.e.e.a.y.y.y.y.y.3.3.3.3.3.y.p.e.e.e.p.3.2.2.2.3.3.y.p.p.a.a.p.a.v.M.M.M.m.z.e.e.e.e.e.e.e.e.e.e.e.e.v.m.m.m.M.M.",
"e.d.z.m.M.M.M.m.z.e.e.p.p.p.p.p.p.p.p.p.p.p.e.e.e.e.p.y.3.3.y.p.p.a.e.z.m.m.z.z.m.M.M.M.M.m.e.e.e.e.e.e.e.e.e.e.e.e.e.z.m.M.M.m.",
"e.e.e.z.m.m.m.m.v.e.e.e.e.e.e.e.e.e.e.e.e.e.e.e.e.e.e.p.p.p.p.e.e.z.m.m.M.M.M.M.M.m.m.m.M.m.z.e.e.e.e.e.e.e.e.e.e.e.e.e.e.z.v.z.",
"e.e.e.e.d.d.d.d.e.e.e.e.e.e.e.e.e.e.e.e.e.e.e.e.e.e.e.e.e.e.e.e.a.c.m.m.m.m.m.m.c.V.B.V.b.M.m.m.m.m.z.e.e.e.e.a.p.a.e.e.e.e.e.e.",
"e.e.e.e.e.e.e.e.e.e.e.e.e.e.e.e.e.e.e.e.e.e.e.e.e.e.e.e.e.e.e.p.y.B.B.B.y.y.B.B.B.2.2.2.V.c.m.m.m.m.v.v.v.v.c.y.3.y.p.p.p.p.p.e.",
"p.p.p.p.p.p.p.p.e.e.e.e.e.e.e.e.e.e.e.e.e.e.e.e.e.e.e.e.p.p.p.&.2.2.3.y.p.p.&.2.2.2.2.2.2.B.B.B.B.B.B.B.B.B.B.2.2.2.3.3.3.3.y.p.",
"3.3.3.3.y.y.y.y.a.e.e.e.e.e.e.e.e.e.e.e.e.e.e.e.e.e.e.a.y.y.y.3.3.y.p.p.e.e.p.y.3.3.2.2.2.2.2.2.2.2.2.2.2.2.2.2.2.2.2.2.2.2.2.3.",
"3.3.3.y.p.p.p.p.e.e.e.e.e.e.e.e.e.e.e.e.e.e.e.e.e.e.e.e.p.p.p.p.p.p.e.e.e.e.e.p.p.p.&.2.2.2.3.3.3.3.2.2.2.2.2.2.2.2.2.2.2.2.3.3.",
"p.p.a.p.e.e.e.e.e.e.e.e.e.e.e.e.e.e.p.p.p.p.p.e.e.e.e.p.p.p.p.p.e.e.e.e.e.e.e.e.e.e.p.3.2.&.p.p.p.p.&.2.3.3.3.2.2.3.3.3.3.y.p.a.",
"e.e.e.e.e.e.e.e.e.e.e.e.e.e.e.e.p.i.;.,.,.,.;.p.e.e.p.;.,.,.,.;.p.e.e.e.e.z.m.m.m.z.a.3.3.p.e.e.e.e.p.y.p.p.p.y.y.p.p.p.p.p.e.e.",
"e.e.e.e.e.e.e.e.e.e.e.e.e.e.e.p.;.,.<.<.<.>.>.;.i.i.;.>.<.<.<.<.;.p.e.e.z.m.M.M.M.m.s.V.3.p.e.e.e.e.e.a.e.e.e.p.p.e.e.e.e.e.d.d.",
"e.e.e.e.e.e.e.e.e.e.e.e.e.e.p.;.>.<.C.b.C.<.>.>.,.,.>.<.C.b.b.C.<.;.p.e.m.M.M.M.M.M.m.c.B.y.p.e.e.e.e.e.e.e.e.e.e.e.e.m.m.m.m.m."
};
