/* XPM */
static char *rcp07112143567958[] = {
/* columns rows colors chars-per-pixel */
"64 64 187 2 ",
"   c #1D0B27",
".  c #281F2B",
"X  c #2A003F",
"o  c #3E223A",
"O  c #3B373B",
"+  c #403E2F",
"@  c #413A37",
"#  c #34402F",
"$  c #3B4438",
"%  c #505036",
"&  c #53483D",
"*  c #63553D",
"=  c #657A38",
"-  c #2C0043",
";  c #310149",
":  c #380F4B",
">  c #361544",
",  c #3D005B",
"<  c #3A0454",
"1  c #3D1751",
"2  c #440D5C",
"3  c #431258",
"4  c #49234F",
"5  c #413E42",
"6  c #522F5E",
"7  c #4A2D57",
"8  c #430064",
"9  c #490767",
"0  c #4E1666",
"q  c #501066",
"w  c #4E0173",
"e  c #4D0D70",
"r  c #53007B",
"t  c #510077",
"y  c #581976",
"u  c #52216A",
"i  c #5C2C71",
"p  c #632F64",
"a  c #602F78",
"s  c #6C3176",
"d  c #4F4442",
"f  c #49414D",
"g  c #4A4F50",
"h  c #56425F",
"j  c #534C46",
"k  c #615643",
"l  c #65544E",
"z  c #6F5D56",
"x  c #725D53",
"c  c #577547",
"v  c #59645B",
"b  c #516A49",
"n  c #716D4C",
"m  c #5B5561",
"M  c #5C7E61",
"N  c #817D45",
"B  c #5E814E",
"V  c #61854C",
"C  c #758942",
"Z  c #7A8A48",
"A  c #7E9644",
"S  c #658A53",
"D  c #638554",
"F  c #6E995A",
"G  c #6C915B",
"H  c #739B59",
"J  c #7FAB5E",
"K  c #7CA45D",
"L  c #5E846A",
"P  c #618363",
"I  c #6C966F",
"U  c #76956C",
"Y  c #73996C",
"T  c #7A9A6F",
"R  c #679175",
"E  c #6B9472",
"W  c #719671",
"Q  c #76A463",
"!  c #79A762",
"~  c #7AA962",
"^  c #73A069",
"/  c #928A4F",
"(  c #919352",
")  c #9B974A",
"_  c #A09C4F",
"`  c #8BA44D",
"'  c #8FAA48",
"]  c #92AD4B",
"[  c #93B24D",
"{  c #9AB64D",
"}  c #9CB94E",
"|  c #8EAF57",
" . c #81AB5E",
".. c #8AAE5C",
"X. c #8FB156",
"o. c #95B651",
"O. c #9AB751",
"+. c #9EB850",
"@. c #A0B94F",
"#. c #A0B54F",
"$. c #A6A754",
"%. c #B3AF56",
"&. c #A3B950",
"*. c #AFB65C",
"=. c #AAB654",
"-. c #B3BA56",
";. c #B4B55D",
":. c #BBB759",
">. c #B6B959",
",. c #BDBA5A",
"<. c #829E6B",
"1. c #82AA62",
"2. c #88AC61",
"3. c #ACB160",
"4. c #5B0384",
"5. c #5E018A",
"6. c #64078E",
"7. c #640294",
"8. c #6A029C",
"9. c #680797",
"0. c #6F1B97",
"q. c #6F1B98",
"w. c #6F169A",
"e. c #721D9B",
"r. c #71139F",
"t. c #682689",
"y. c #7E3C9D",
"u. c #78299F",
"i. c #6E05A1",
"p. c #7507AA",
"a. c #7A09AD",
"s. c #7408A7",
"d. c #7416A2",
"f. c #7E16AD",
"g. c #7B1AA9",
"h. c #7F16B2",
"j. c #7B08B1",
"k. c #7A2DA0",
"l. c #7F439D",
"z. c #820DBA",
"x. c #881CBB",
"c. c #8320B2",
"v. c #9132BF",
"b. c #82489F",
"n. c #8A5B93",
"m. c #8745A7",
"M. c #8B51A7",
"N. c #8F4AB2",
"B. c #904AB2",
"V. c #984CBE",
"C. c #9264A3",
"Z. c #880FC1",
"A. c #8A11C4",
"S. c #941BC6",
"D. c #9314CD",
"F. c #9E1FCE",
"G. c #9415D1",
"H. c #9B1BD7",
"J. c #9D19DC",
"K. c #9817D2",
"L. c #A01FCE",
"P. c #9524C8",
"I. c #9A38C9",
"U. c #A121CA",
"Y. c #A21CE2",
"T. c #AC20EE",
"R. c #B327E9",
"E. c #AF22F2",
"W. c #B425F3",
"Q. c #B927FA",
"!. c #B928FA",
"~. c #9E4CC9",
"^. c #A44BCD",
"/. c #A247CC",
"(. c #A546D2",
"). c #B25DD9",
"_. c #BB6CD8",
"`. c #B75CE2",
"'. c #BC6AE3",
"]. c #C27EDB",
"[. c #C26FE9",
"{. c #C574E4",
"}. c #CD7CEB",
"|. c #D37BEF",
" X c #C784D7",
".X c #DE91F7",
"XX c #D88AF8",
/* pixels */
"} } } } X.E R R R E | | E R R R W ;.,.,.,.,.;.T W R T ;.,.,.,.,.,.;.<.O.,.,.,.,.,.,.,.,.>.} } } } } } } } &.,.,.,.,.,.,.,.,.,.>.",
"o.o.} o.Y R W W R R E E R W W R W 3.,.,.,.,.,.;.3.<.3.,.,.,.,.,.,.,.;.>.,.,.,.,.,.,.,.,.>.&.} } } } } >.>.>.,.,.,.,.,.,.,.,.>.&.",
"E Y ..Y R T 3.3.T R R R T 3.3.T W T ;.,.,.,.,.,.,.;.,.,.,.,.,.,.,.,.,.,.,.,.,.,.,.,.,.,.,.,.>.@.} } @.>.>.>.>.>.>.>.>.>.>.&.} o.",
"R W Y R W 3.,.,.3.T W T 3.,.,.;.3.<.;.,.,.,.,.,.,.,.,.,.,.,.,.>.>.>.,.,.,.,.,.>.>.,.,.,.,.,.,.&.} } } @.@.@.@.} @.@.@.@.@.} o.Y ",
"T 3.3.T T ;.,.,.,.;.;.;.,.,.,.,.,.;.,.,.,.>.>.>.>.,.,.,.,.>.&.@.} &.>.,.,.,.;.2.2.;.,.,.,.,.,.,.>.>.&.} } } } } } } } @.+.o.| E ",
";.,.,.;.;.>.>.>.,.,.,.,.,.>.>.>.>.,.,.,.;.2.1.1.2.;.>.>.>.&.} } } } &.>.>.*.2.! ! 2.>.,.,.,.,.,.>.>.-.} } } } } } } &.>.;.<.T W ",
",.,.,.,.>.&.} &.>.,.,.,.>.&.} +.+.;.>.;.2.! ! ! ! 2.+.&.-.@.} } } o.o.o.1.1.! ! ! 1.;.>.>.>.>.>.&.} } } } } } @.&.>.>.,.,.;.;.;.",
",.,.,.>.&.} } } &.,.,.>.&.} o. .~ 1.1.1.! ! ! ! !  .o.} } } } } o. .~ ~ ! ! ! ! ! ~ o.@.@.@.@.@.} } } } } } &.>.>.>.>.>.,.,.,.,.",
">.>.&.} } } } } } >.>.>.@.o. .! ! ! ! ! ! ! ! ! ~ o.o.o.o.} } o.J ! ! ! ! ~ ~ ! ! ! J o.} } } } } } } } } &.>.,.>.&.} &.>.,.,.,.",
"} } } } } } } } } } &.-.+.o.~ ! ! ! ! ! ! ! ! ! ! ~ ~ ~  .o.o.J ! ! ! ! J o.o. .~ ! ! J o.o.} } } } } } -.>.>.>.&.} } } &.>.>.>.",
"} } } } } } o.o.o.o.o.o. .~ ! ! ~ ~ ~ ! ! ! ! ! ! ! ! ! ! ~ ~ ! ! ! ! ~ o.} } o.o. .~ ~  . .O.} } } } } } } } } } } } } } } } } ",
"} } } } } O. . . .~ ~ ~ ! ! ! J o.o.o.J ! ! ~ ~ ~ ! ! ! ! ! ! ! ~ ~ ! ~ o.} } } } o.o.o.o.o.} } } } } } } } o.o.o.} } } } } } } ",
"} } } } } } o.o.o. .~ ~ ! ! ~ o.} } } o.~ J o.o.o. .~ ! ! ! ! J o.o.J ~ o.} } } } } } } } } } } } } } } } o. .~  .o.} } } } } } ",
"} } } } } } } } } O.o.o. .~  .o.} } } o. .o.} } } o.o. .~ ~  .o.} } o. . .O.} } } } } } } } o.o.o.} } } o.J ! ! !  .o.} } } } } ",
"} } } } } &.>.>.&.} } } O.O.+.} } } } } O.} } } } } } o.o.o.o.} } } } o.o.} } } } } } } } o. .~  .o.o.o.J ! ! ! ! ~ o.} } } } } ",
"} } } } &.>.,.,.>.&.} } &.>.>.>.>.&.} } } } } } } } } o.o.o.o.} } } } } } } } } } } } } o.J ! ! ! ~ ~ ~ ! ! ! ! ! ~ o.o.o.} } } ",
"o.o.&.>.,.,.,.,.,.,.>.>.>.,.,.,.>.-.*.O.} } o.o.o.o.o. .~ ~  .o.o.} } o.o.o.o.} } } } o.J ! ! ! ! ! ! ! ! ! ! ! ! ! ~ ~  .o.o.o.",
" ...-.>.,.,.,.,.,.,.,.,.,.,.,.;.2.1.1. .o.o. .~ ~ ~ ~ ! ! ! ! ~  .o.o. .~ ~  .o.o.o.o.J ! ! ! ! ! ! ! ! ! ! ! ! ! ! ! ! ! ~ ~ ~ ",
"o.O.} @.&.>.,.,.,.,.,.,.>.>.*.2.~ ~ ~ ! ~ ~ ! ! ! ! ! ! ! ! ! ! ! ~ ! ! ! ! ! ~ ! ! ! Q ! ! ! ! ! ! ! ! ! ! ! ! ! ! ! ! ! ~ ~ ~ ",
"} } } } @.=.,.,.,.,.,.>.&... . .o.o.o. .~ ~ ~ ! ! ! ! ! ! ! ! H Q ! ! ! ! ! ! Q E E E E Q ~ ~ ~ ~ ~ ~ ~ ~ Q Q Q Q ! ! ! J o.o.o.",
"@.&.>.>.>.>.,.,.,.,.,.&.} o.o.o.} } o.o.o.o.X.~ ! ! ! ! ! ! B g D ! ! Q ! Q Q E R R R R I ..o.o.o.o.o.o.| I E E E Q Q ~ o.} } } ",
">.>.,.,.,.,.,.,.,.,.>.@.} } } } } O. . .~ ~ ~ ! ! ! ! ! ! F # t.f Q Q E E E ^ E R R R R R E E E E Y X.X.Y W W W R E E ! o.} } } ",
">.>.>.>.>.,.,.,.,.,.&.} } } } } } } o.o. .~ ! ! ! ! ! ! ! c   g.M.b I R R R W W W W R R R R W W W W E E T 3.;.3.T R R I o.+.&.>.",
"@.} } } &.>.,.,.,.,.&.} } } } } } } } } o.o. .~ ~ ~ ! ! Q 5 ; d._.m L R W T 3.;.;.3.T R R T 3.;.;.3.T T 3.,.,.,.3.T W W <.;.>.>.",
"} } } } } &.>.>.,.,.>.&.>.>.&.} } } } } } } o.o.o.o.~ ! c 2 8 d.|.C.v U 3.;.,.,.,.,.3.W T 3.,.,.,.,.;.;.,.,.,.,.,.;.;.;.;.>.&.@.",
"@.@.} } } } } &.>.,.,.>.>.>.-.&.} } } } } } } } } o. .K O 5., r.(. Xm $.,.,.,.,.,.,.;.<.3.,.,.,.,.,.,.,.,.,.,.,.,.,.,.,.,.>.@.@.",
">.>.&.} } } } } &.>.>.>.&.@.&.-.} } } } } } } } } } O.n q 8., r.x.{.n./ ,.,.,.,.,.,.,.;.,.,.,.,.,.,.,.,.,.,.,.,.,.,.,.,.,.,.=.>.",
",.,.>.@.} } } } } @.@.@.} } } } } } } } } } } } } } $.j 4.8., m.f.^. Xl %.,.,.>.>.,.,.,.,.,.,.>.>.,.,.,.,.,.,.,.,.,.,.,.,.,.,.,.",
",.,.>.@.} &.>.>.&.} } } } } } } } } } } } } } } } { N q 8.7., b.v.[.XXC.N :.>.&.@.&.>.,.,.>.>.&.&.>.>.,.>.&.&.>.,.,.,.,.,.,.,.,.",
",.,.,.&.&.>.,.,.>.>.&.} } } } } } } } } } } } } } ] & 4.8.p., l.I.^.~.].z %.&.} } } &.>.>.&.} } } } &.-.&.} } &.,.,.,.,.,.,.,.,.",
",.,.,.,.>.,.,.,.,.>.>.>.>.>.>.>.>.>.-.} } } } } } C 2 8.s.G., e.I./.)..XC.N { } } } @.>.&.} } } } } } } } } } } >.,.,.,.,.>.>.>.",
">.>.>.>.>.>.>.>.>.&.} } +.O.O.O.O.O.} } } } } } { + s.A.s.D., k.`.^.{..X Xz ' { } } @.-.} } } } } } } } } } } } >.>.>.>.>.&.} } ",
"@.} @.@.} } } } } } o.o. .~ ~ ~ ~  .o.} o.o.o.[ = 0 z.W.G.G., M.[.^.}.'._.n.Z { { } } } } } } } } } } } } } } } } } } } } } } } ",
"} } } } } } } } o.o. .~ ! ! ! ! ! ! J o. .~ J H d f.K.J.T.J.r V.y.t.u.9 e u d ] } } } } o.o.o.} } } } } } } } } } } } } } } } } ",
"} } } } } } } o. .~ ! ! ! ! ! ! ! ! ! ~ ! ! ! S i R.W.Z.Y.A.8.^.y - 4.w 8 8 1 ` o.} } o. .~  .o.} } } } } } } } } } } } } } } } ",
"} } } } } o.o.J ! ! ! ~ ~ ~ ~ ~ ! ! ! ! ! ! ! S a R.D.A.E.s.8.^.e.; 7.w t 5.: F  .o.o. .~ ~ ! J o.} } } } } } o.o.o.} } } } } } ",
"} } } o.o. .~ ! ! ! J o.o.O.O.o.J ! ! ! ~ ~ ! F h S.z.J.J.i.7.V.0.; 5.r r 8 @ H ! ~ ~  .o.o.J ! J o.} } } } o. .~  .o.} } } o.o.",
"o.} O. . .~ ~ ~ ~  .o.} } } } } o.~ ! J o.o.o.J c 0 z.D.j.8.9.N.0.- w 5.8 3 C o. .~  .o.} } o. .~  .O.} } o.J ! ! ! J o.o.o. .~ ",
" .o.o.o.o.o.o.o.o.o.} } } } } } o. . .o.} } } o.[ @ 9.D.8.a.S.B.0.X 8 7.; + ` o.o.o.o.} } o.o.o.o.o.} } o. .! ! ! ! ! ~ ~ ~ ! ! ",
"~  . . .O.} } } } } } } } } } } } o.o.} } } } o.o.C 3 G.i.D.L.N.q.X 8 4.> = K  .o.} o.o.o. .~ ~  .o.} } o.~ ! ! ~ ~ ~ ! ! ! ! ! ",
"o.o.o.o.} } } } o.o.o.o.o.} } o.o.o.} } } } O.T Y P 1 p.a.W.F.B.q.X 8 < . V ! ! J o. .~ ~ ! ! ! ! J o.o.J ! ! J o.o.o. .~ ~ ~ ~ ",
"} } } } } } } o.Y E E E Y X.X.Y E Y o.} &.>.>.;.3.U g w H.Q.F.B.q.X 8 < $ Q ! ! ! ~ ! ! ! ! ! ! ! ! ~ ~ ! ! ~ o.} } } o.o.O.o.O.",
"} } } } } o.o.Y W W W W R E E W W R Y O.>.,.,.,.,.;.( 7 H.Q.F.c.9.- 8 > M Q 1.1.! ! ! ~ ~ ! ! ~ ~ ~ ! ! ! !  .o.} } } } } } } } ",
"} } o.o.X.Y Y T 3.;.;.3.T W T 3.3.T T ;.,.,.,.,.,.,.%.x P.!.F.h.9.X - k U T *.;.2.! ~ o.o. . .o.o.o.J ! ! ~ o.o.o.o.o.o.o.} } } ",
"+.o.Y Y Y T 3.;.,.,.,.,.;.;.;.,.,.;.;.,.,.,.,.>.>.>.:.) s R.F.h.i.8 o _ ;.;.,.,.;.2. .O.} o.o.} } } o.~ ! ! ~ ~ ~ ~ ~ ~  .o.o.o.",
";.<.T 3.;.;.,.,.,.,.>.>.>.,.,.,.,.,.,.,.,.,.;.2.1.2.;.:.* P.U.f.a.4.k %.,.,.,.,.,.>.-.&.} } } } } } o.~ ! ! ! ! 1.1.1.1.1. . . .",
">.;.;.>.>.>.,.,.>.*.2.1.2.*.>.,.,.>.>.>.>.*.2.! ! ! 2.*.$.p U.f.a.4 A #.>.>.>.>.>.,.,.>.-.} } } } } o.~ 1.1.1.2.*.>.>.>.>.>.>.>.",
"} } } } } &.>.>... .~ ~ ! 1.2.*.*.2.1.1.1.1.! ! ! ! ! 1.~ v w.x.6.% [ { } } } } &.>.>.>.&.} } } } O. . .*.-.-.-.>.>.>.>.>.>.>.>.",
"} } } } } } @.} O.o.o.o. .~ ~ 2.1.! ! ! ! ! ! ! ! ! ! ! ! G 7 d.6 A [ o.} } } o.o.O.O.O.o.} } } } } o.O.} } } } } } } } } } @.@.",
"} } } } } } } } } } } } o.o.o.o. .~ ~ ~ ! ! ! ! ! ! ! ! ! ! D $ S ~ ~  .o.o.o. .~ ~ ~ ~  .o.} } } } } } } } } } } } } } } } } @.",
">.>.>.&.} } } } } } } } } } } } o.o.o.X.~ ! ! ~ ~ ~ ! ! ! ! ! ! ! ! ! ! ~ ~ ~ ! ! 1.1.1.~ O.} } } } } } } } } } } } } } } } &.>.",
",.,.,.>.&.} } } } } } o.o.o.o.o. .~ ~ ~ ! ! J o.o.o.J ! ! ! ! ! ! ! ~ ~ ~ ~ ~ ~ 2.*.>.*...O.} } } } } } } } } } } } } } } &.>.,.",
">.>.>.,.>.>.>.&.} } O. . . . . .~ ~ ~ ~ ~  .o.} } } o.~ ! ! ! ~ ~  .o.o.O.O.o.O.-.,.,.,.>.&.} } } } } } } } } } } } -.>.>.>.,.,.",
"} @.&.>.,.,.,.>.&.} } o.o.o.o.o.o.o.o.o.o.o.} } } } o. .~ ~  .o.o.O.} &.>.>.&.&.>.,.,.,.,.>.} } } } } } } } } } } } } &.>.,.,.>.",
"} } } &.>.>.>.>.-.} } } } } } } } } } } } } } } } } } o.o.o.o.} } &.>.>.,.,.,.,.,.>.>.>.,.>.&.} } } } } } } } } } } } } } &.-.&.",
"} } } } @.@.@.@.} } } } } } } } } } } } } } } } } } } } } } } } O.*.>.>.>.>.>.>.*.2.1.2.;.,.>.>.>.>.&.} } } } O.o.O.} } } } } } ",
"} } } } } } } } } } } } } } } } } } } } } } } } } } } } } } } o. .1.1.1. . .1.1.1.! ! ! 2.*.>.>.>.>.-.-.-.-.*. .~  .o.o.o.o.o.} ",
"o.o.o.o.o.o.o.o.} } } } } } } } } } } } } } } } } } } } o.o.o.J ! ! ~  .o.o.J ! ! ! ! ! ! 1.1.1.1.1.1.1.1.1.1.! ! ! ~ ~ ~ ~  .o.",
"~ ~ ~ ~  . . . .O.} } } } } } } } } } } } } } } } } } O. . . .~ ~  .o.o.} } o. .~ ~ ! ! ! ! ! ! ! ! ! ! ! ! ! ! ! ! ! ! ! ! ! ~ ",
"~ ~ ~  .o.o.o.o.} } } } } } } } } } } } } } } } } } } } o.o.o.o.o.o.} } } } } o.o.o.J ! ! ! ~ ~ ~ ~ ! ! ! ! ! ! ! ! ! ! ! ! ~ ~ ",
"o.o.O.o.} } } } } } } } } } } } } } o.o.o.o.o.} } } } o.o.o.o.o.} } } } } } } } } } o.~ ! J o.o.o.o.J ! ~ ~ ~ ! ! ~ ~ ~ ~  .o.O.",
"} } } } } } } } } } } } } } } } o.X.Y E E E Y o.} } o.Y E E E Y o.} } } } &.>.>.>.&.O.~ ~ o.} } } } o. .o.o.o. . .o.o.o.o.o.} } ",
"} } } } } } } } } } } } } } } o.Y E W W W R R Y X.X.Y R W W W W Y o.} } &.>.,.,.,.>.+.2.~ o.} } } } } O.} } } o.o.} } } } } @.@.",
"} } } } } } } } } } } } } } o.Y R W 3.;.3.W R R E E R W 3.;.;.3.W Y o.} >.,.,.,.,.,.>.*.1. .o.} } } } } } } } } } } } >.>.>.>.>."
};
