/* XPM */
static char *rcp07112537326638[] = {
/* columns rows colors chars-per-pixel */
"64 64 190 2 ",
"   c #27132F",
".  c #260437",
"X  c #2C302C",
"o  c #362C31",
"O  c #422C3F",
"+  c #404B35",
"@  c #4C5A38",
"#  c #5B6536",
"$  c #606736",
"%  c #2D0043",
"&  c #35034D",
"*  c #3E015B",
"=  c #3C2646",
"-  c #3A3146",
";  c #44075F",
":  c #422B45",
">  c #472943",
",  c #533549",
"<  c #4A2F51",
"1  c #4D3C5B",
"2  c #420161",
"3  c #49086B",
"4  c #540D6F",
"5  c #531F64",
"6  c #540A75",
"7  c #540678",
"8  c #5A1579",
"9  c #5C3F67",
"0  c #663C6E",
"q  c #622E7B",
"w  c #6D387B",
"e  c #4D4E4C",
"r  c #4D5D44",
"t  c #535E4B",
"y  c #534055",
"u  c #565C5B",
"i  c #544943",
"p  c #4B6440",
"a  c #5C7A42",
"s  c #4F6356",
"d  c #586A50",
"f  c #526648",
"g  c #6C654A",
"h  c #686D41",
"j  c #766948",
"k  c #6D7B44",
"l  c #72784D",
"z  c #776952",
"x  c #5B4060",
"c  c #685273",
"v  c #6E4E72",
"b  c #5C7D65",
"n  c #815F7D",
"m  c #71873C",
"M  c #5F8048",
"N  c #5E8352",
"B  c #6B8D54",
"V  c #6A9257",
"C  c #719556",
"Z  c #729E5D",
"A  c #739958",
"S  c #75A15C",
"D  c #78A25B",
"F  c #7FAB5E",
"G  c #668969",
"H  c #6D956F",
"J  c #73996C",
"K  c #7A9A6F",
"L  c #729068",
"P  c #679175",
"I  c #6B9472",
"U  c #719671",
"Y  c #76A464",
"T  c #79A762",
"R  c #7AA962",
"E  c #73A069",
"W  c #879C48",
"Q  c #898155",
"!  c #989448",
"~  c #A49F52",
"^  c #88A146",
"/  c #8EAA4C",
"(  c #88A247",
")  c #91AC4B",
"_  c #96B34D",
"`  c #9AB74D",
"'  c #9CB94E",
"]  c #8EAF57",
"[  c #81AB5E",
"{  c #8AAE5C",
"}  c #8FB156",
"|  c #95B651",
" . c #9AB751",
".. c #9EB850",
"X. c #A5A44F",
"o. c #A0B94F",
"O. c #A0B64F",
"+. c #AAAC5B",
"@. c #A4A95D",
"#. c #A1B751",
"$. c #A3B950",
"%. c #AEB65C",
"&. c #AFB554",
"*. c #B3BA56",
"=. c #B4B55D",
"-. c #BCB75A",
";. c #B6B959",
":. c #BDBA5A",
">. c #B8B357",
",. c #829E6B",
"<. c #82AA62",
"1. c #88AC61",
"2. c #AAAF60",
"3. c #ACB160",
"4. c #5C0187",
"5. c #5F038B",
"6. c #5F1083",
"7. c #62018F",
"8. c #6B049D",
"9. c #6C0A9C",
"0. c #660794",
"q. c #6D1697",
"w. c #72199B",
"e. c #66128A",
"r. c #692E83",
"t. c #773897",
"y. c #732395",
"u. c #6F05A1",
"i. c #6F09A0",
"p. c #790BAD",
"a. c #7307A5",
"s. c #7412A2",
"d. c #751AA4",
"f. c #7B13AC",
"g. c #7A1AA7",
"h. c #7D0AB3",
"j. c #7E16B0",
"k. c #7D23A4",
"l. c #794494",
"z. c #7E489A",
"x. c #7C4698",
"c. c #810CB9",
"v. c #880FBC",
"b. c #8013B2",
"n. c #8512BC",
"m. c #8810BF",
"M. c #901DB4",
"N. c #893FAC",
"B. c #8321B1",
"V. c #8F2DB8",
"C. c #8F36BB",
"Z. c #963ABC",
"A. c #8A45AC",
"S. c #8547A5",
"D. c #9548B9",
"F. c #A466B7",
"G. c #8A0FC4",
"H. c #8C11C6",
"J. c #9416CF",
"K. c #9117C7",
"L. c #9F1BDD",
"P. c #9716D1",
"I. c #A21ACF",
"U. c #A01BDF",
"Y. c #9223C4",
"T. c #9F25D5",
"R. c #983BC4",
"E. c #A321D5",
"W. c #A822D2",
"Q. c #A220DE",
"!. c #A733DD",
"~. c #A51DE2",
"^. c #A922E5",
"/. c #B227EA",
"(. c #B626F5",
"). c #BA27FB",
"_. c #BA28FE",
"`. c #9A45C6",
"'. c #A24CCC",
"]. c #A544D4",
"[. c #B059D8",
"{. c #B476C9",
"}. c #B762DD",
"|. c #BA59E8",
" X c #BF69E5",
".X c #C877E9",
"XX c #CF81EE",
"oX c #D388EE",
"OX c #DD90F8",
"+X c #D98CF4",
/* pixels */
"' ' ' ' } I P P P I ] ] I P P P U =.:.:.:.:.=.K U P K =.:.:.:.:.:.=.,. .:.:.:.:.:.:.:.:.;.' ' ' ' ' ' ' ' $.:.:.:.:.:.:.:.:.:.;.",
"| | ' | J P U U P P I I P U U P U 3.:.:.:.:.:.=.3.,.3.:.:.:.:.:.:.:.=.;.:.:.:.:.:.:.:.:.;.$.' ' ' ' ' ;.;.;.:.:.:.:.:.:.:.:.;.$.",
"I J { J P K 3.3.K P P P K 3.3.K U K =.:.:.:.:.:.:.=.:.:.:.:.:.:.:.:.:.:.:.:.:.:.:.:.:.:.:.:.;.o.' ' o.;.;.;.;.;.;.;.;.;.;.$.' | ",
"P U J P U 3.:.:.3.K U K 3.:.:.=.3.,.=.:.:.:.:.:.:.:.:.:.:.:.:.;.;.;.:.:.:.:.:.;.;.:.:.:.:.:.:.$.' ' ' o.o.o.o.' o.o.o.o.o.' | J ",
"K 3.3.K K =.:.:.:.=.=.=.:.:.:.:.:.=.:.:.:.;.;.;.;.:.:.:.:.;.$.o.' $.;.:.:.:.=.1.1.=.:.:.:.:.:.:.;.;.$.' ' ' ' ' ' ' ' o...| ] I ",
"=.:.:.=.=.;.;.;.:.:.:.:.:.;.;.;.;.:.:.:.=.1.<.<.1.=.;.;.;.$.' ' ' ' $.;.;.%.1.T T 1.;.:.:.:.:.:.;.;.*.' ' ' ' ' ' ' $.;.=.,.K U ",
":.:.:.:.;.$.' $.;.:.:.:.;.$.' ....=.;.=.1.T T T T 1...$.*.o.' ' ' | | | <.<.T T T <.=.;.;.;.;.;.$.' ' ' ' ' ' o.$.;.;.:.:.=.=.=.",
":.:.:.;.$.' ' ' $.:.:.;.$.' | [ R <.<.<.T T T T T [ | ' ' ' ' ' | [ R R T T T T T R | o.o.o.o.o.' ' ' ' ' ' $.;.;.;.;.;.:.:.:.:.",
";.;.$.' ' ' ' ' ' ;.;.;.o.| [ T T T T T T T T T R | | | | ' ' | F T T T T R R T T T F | ' ' ' ' ' ' ' ' ' $.;.:.;.$.' $.;.:.:.:.",
"' ' ' ' ' ' ' ' ' ' $.*...| R T T T T T T T T T T R R R [ | | F T T T T F | | [ R T T F | | ' ' ' ' ' ' *.;.;.;.$.' ' ' $.;.;.;.",
"' ' ' ' ' ' | | | | | | [ R T T R R R T T T T T T T T T T R R T T T T R | ' ' | | [ R R [ [  .' ' ' ' ' ' ' ' ' ' ' ' ' ' ' ' ' ",
"' ' ' ' '  .[ [ [ R R R T T T F | | | F T T R R R T T T T T T T R R T R | ' ' ' ' | | | | | ' ' ' ' ' ' ' ' | | | ' ' ' ' ' ' ' ",
"' ' ' ' ' ' | | | [ R R T T R | ' ' ' | R F | | | [ R T T T T F | | F R | ' ' ' ' ' ' ' ' ' ' ' ' ' ' ' ' | [ R [ | ' ' ' ' ' ' ",
"' ' ' ' ' ' ' ' '  .| | [ R [ | ' ' '  .[ | ' ' ' | | [ R R [ | ' ' | [ [  .' ' ' ' ' ' ' ' | | | ' ' ' | F T T T [ | ' ' ' ' ' ",
"' ' ' ' ' $.;.;.$.' ' '  . ...' ' ' ' '  .' ' ' ' ' ' | | | | ' ' ' ' | | ' ' ' ' ' ' ' ' | [ R [ | | | F T T T T R | ' ' ' ' ' ",
"' ' ' ' $.;.:.:.;.$.' ' $.;.;.;.;.$.' ' ' ' ' ' ' ' ' | | | | ' ' ' ' ' ' ' ' ' ' ' ' ' | F T T T R R R T T T T T R | | | ' ' ' ",
"| | $.;.:.:.:.:.:.:.;.;.;.:.:.:.;.*.%. .' ' | | | | | [ R R F | _ ' ' | | | | ' ' ' ' | F T T T T T T T T T T T T T R R [ | | | ",
"[ { *.;.:.:.:.:.:.:.:.:.:.:.:.=.1.<.<.[ | | [ R R R R T T T Z M D | | [ R R [ | | | | F T T T T T T T T T T T T T T T T T R R R ",
" . .' o.$.;.:.:.:.:.:.:.;.;.%.1.R R R T R R T T T T T T T S p 1 t D R T T T T R T T T Y T T T T T T T T T T T T T T T T T R R R ",
"' ' ' ' o.$.:.:.:.:.:.;.#.{ [ [ | | | [ R R R T T T T T T V X l.c B T T T T T Y I I I I Y R R R R R R R R Y Y Y Y T T T F | | | ",
"o.$.;.;.;.;.:.:.:.:.:.$.' | | | ' ' | | | | } R T T T T T f . S.'.e Z Y T Y Y I P P P P H { | | | | | | ] H I I I Y Y R | ' ' ' ",
";.;.:.:.:.:.:.:.:.:.;.o.' ' ' ' '  .[ [ R R R T T T T T Z = 2 l.!.q N I I I E I P P P P P I I I I J } } J U U U P I I T | ' ' ' ",
";.;.;.;.;.:.:.:.:.:.$.' ' ' ' ' ' ' | | [ R T T T T T T + 6 2 t.Y.Z.u G P P U U U U P P P P U U U U I I K 3.=.3.K P P H | ..$.;.",
"o.' ' ' $.;.:.:.:.:.$.' ' ' ' ' ' ' ' ' | | [ R R R T V = 7.2 q.c.T.v b U K 3.=.=.3.K P P K 3.=.=.3.K K 3.:.:.:.3.K U U ,.=.;.;.",
"' ' ' ' ' $.;.;.:.:.;.$.;.;.$.' ' ' ' ' ' ' | | | | S r 6 8.2 q.p.V.F.u @.=.:.:.:.:.3.U K 3.:.:.:.:.=.=.:.:.:.:.:.=.=.=.=.;.$.o.",
"o.o.' ' ' ' ' $.;.:.:.;.;.;.*.$.' ' ' ' ' ' ' ' ' _ C : b.a.2 q.].d..Xv ~ :.:.:.:.:.=.,.3.:.:.:.:.:.:.:.:.:.:.:.:.:.:.:.:.;.o.o.",
";.;.$.' ' ' ' ' $.;.;.;.$.o.$.*.' ' ' ' ' ' ' ' ' _ h 6 ~.p.2 w.|.s.[.{.g >.:.:.:.:.:.=.:.:.:.:.:.:.:.:.:.:.:.:.:.:.:.:.:.:.$.;.",
":.:.;.o.' ' ' ' ' o.o.o.' ' ' ' ' ' ' ' ' ' ' ' ' ) > p.(.J.* t. X9.`.oXn ! -.;.;.:.:.:.:.:.:.;.;.:.:.:.:.:.:.:.:.:.:.:.:.:.:.:.",
":.:.;.o.' $.;.;.$.' ' ' ' ' ' ' ' ' ' ' ' ' ' ' ' # e.H.(.L.* x.XXC. XOX{.z &.#.o.$.;.:.:.;.;.$.$.;.;.:.;.$.$.;.:.:.:.:.:.:.:.:.",
":.:.:.$.$.;.:.:.;.;.$.' ' ' ' ' ' ' ' ' ' ' ' ' ^ O n.(.).L.* x.+X}..X}.Z.v W ' ' ' $.;.;.$.' ' ' ' $.*.$.' ' $.:.:.:.:.:.:.:.:.",
":.:.:.:.;.:.:.:.:.;.;.;.;.;.;.;.;.;.*.' ' ' ' _ # d.^.)._.U.* z..X[.'.s.d.D.l _ ' ' o.;.$.' ' ' ' ' ' ' ' ' ' ' ;.:.:.:.:.;.;.;.",
";.;.;.;.;.;.;.;.;.$.' ' .. . . . . .' ' ' ' ` ^ 0 /.).).).s.& z.'.i.8.0.f.C.x ( ' ' o.*.' ' ' ' ' ' ' ' ' ' ' ' ;.;.;.;.;.$.' ' ",
"o.' o.o.' ' ' ' ' ' | | [ R R R R [ | ' | | | W w /.(.Q.f.& & t.w.4.4.d.B.R.9 ^ ' ' ' ' ' ' ' ' ' ' ' ' ' ' ' ' ' ' ' ' ' ' ' ' ",
"' ' ' ' ' ' ' ' | | [ R T T T T T T F | [ R R C w ^.J.b.s.0.4.h.7 % % r.D.A.< ^ ' ' ' ' | | | ' ' ' ' ' ' ' ' ' ' ' ' ' ' ' ' ' ",
"' ' ' ' ' ' ' | [ R T T T T T T T T T R T T T Y t w.m.).).c.7.f.i.% % . 2 * # ) | ' ' | [ R [ | ' ' ' ' ' ' ' ' ' ' ' ' ' ' ' ' ",
"' ' ' ' ' | | F T T T R R R R R T T T T T T T T C > a.^.P.8.5.s.9.% % % & > B F [ | | [ R R T F | ' ' ' ' ' ' | | | ' ' ' ' ' ' ",
"' ' ' | | [ R T T T F | |  . .| F T T T R R R T T r 6.~.h.8.u.f.9.% % % . + D R T R R [ | | F T F | ' ' ' ' | [ R [ | ' ' ' | | ",
"| '  .[ [ R R R R [ | ' ' ' ' ' | R T F | | | [ R A 5 I.u.G.m.j.8.% * *   a | | [ R [ | ' ' | [ R [  .' ' | F T T T F | | | [ R ",
"[ | | | | | | | | | ' ' ' ' ' ' | [ [ | ' ' ' | | / i 5.G.c.n.f.8.% 2 * X ( | _ | | | ' ' | | | | | ' ' | [ T T T T T R R R T T ",
"R [ [ [  .' ' ' ' ' ' ' ' ' ' ' ' | | ' ' ' ' | | | k ; J.h.K.f.8.% 2 & # | [ [ | ' | | | [ R R [ | ' ' | R T T R R R T T T T T ",
"| | | | ' ' ' ' | | | | | ' ' | | | ' ' ' '  .K J H G 1 f.v.W.g.9.% ; o A T T T F | [ R R T T T T F | | F T T F |  .| [ R R R R ",
"' ' ' ' ' ' ' | J I I I J } } J I J | ' $.;.;.=.3.K H s 4 J.E.N.w.* 2 s Y T T T T R T T T T T T T T R R T T R | ' ' ' | |  .|  .",
"' ' ' ' ' | | J U U U U P I I U U P J  .;.:.:.:.:.=.2.L - E.E.A.g.4., G I Y <.<.T T T R R T T R R R T T T T [ | ' ' ' ' ' ' ' ' ",
"' ' | | } J J K 3.=.=.3.K U K 3.3.K K =.:.:.:.:.:.:.:.3.d y.W.A.B.4 j +.K K %.=.1.T R | | [ [ | | | F T T R | | | | | | | ' ' ' ",
"..| J J J K 3.=.:.:.:.:.=.=.=.:.:.=.=.:.:.:.:.;.;.;.:.:.%.y M.A.k., X.-.=.=.:.:.=.1.[  .' | | ' ' ' | R T T R R R R R R [ | | | ",
"=.,.K 3.=.=.:.:.:.:.;.;.;.:.:.:.:.:.:.:.:.:.=.1.<.1.=.:.:.Q 8 D.r.$ O.;.:.:.:.:.:.;.*.$.' ' ' ' ' ' | R T T T T <.<.<.<.<.[ [ [ ",
";.=.=.;.;.;.:.:.;.%.1.<.1.%.;.:.:.;.;.;.;.%.1.T T T 1.%.=.+.j 0 g ) ` $.;.;.;.;.;.:.:.;.*.' ' ' ' ' | R <.<.<.1.%.;.;.;.;.;.;.;.",
"' ' ' ' ' $.;.;.{ [ R R T <.1.%.%.1.<.<.<.<.T T T T T <.<.[ / m / ' ' ' ' ' ' ' $.;.;.;.$.' ' ' '  .[ [ %.*.*.*.;.;.;.;.;.;.;.;.",
"' ' ' ' ' ' o.'  .| | | [ R R 1.<.T T T T T T T T T T T T T T F F | | | ' ' ' | |  . . .| ' ' ' ' ' |  .' ' ' ' ' ' ' ' ' ' o.o.",
"' ' ' ' ' ' ' ' ' ' ' ' | | | | [ R R R T T T T T T T T T T T T T R R [ | | | [ R R R R [ | ' ' ' ' ' ' ' ' ' ' ' ' ' ' ' ' ' o.",
";.;.;.$.' ' ' ' ' ' ' ' ' ' ' ' | | | } R T T R R R T T T T T T T T T T R R R T T <.<.<.R  .' ' ' ' ' ' ' ' ' ' ' ' ' ' ' ' $.;.",
":.:.:.;.$.' ' ' ' ' ' | | | | | [ R R R T T F | | | F T T T T T T T R R R R R R 1.%.;.%.{  .' ' ' ' ' ' ' ' ' ' ' ' ' ' ' $.;.:.",
";.;.;.:.;.;.;.$.' '  .[ [ [ [ [ R R R R R [ | ' ' ' | R T T T R R [ | |  . .|  .*.:.:.:.;.$.' ' ' ' ' ' ' ' ' ' ' ' *.;.;.;.:.:.",
"' o.$.;.:.:.:.;.$.' ' | | | | | | | | | | | ' ' ' ' | [ R R [ | |  .' $.;.;.$.$.;.:.:.:.:.;.' ' ' ' ' ' ' ' ' ' ' ' ' $.;.:.:.;.",
"' ' ' $.;.;.;.;.*.' ' ' ' ' ' ' ' ' ' ' ' ' ' ' ' ' ' | | | | ' ' $.;.;.:.:.:.:.:.;.;.;.:.;.$.' ' ' ' ' ' ' ' ' ' ' ' ' ' $.*.$.",
"' ' ' ' o.o.o.o.' ' ' ' ' ' ' ' ' ' ' ' ' ' ' ' ' ' ' ' ' ' ' '  .%.;.;.;.;.;.;.%.1.<.1.=.:.;.;.;.;.$.' ' ' '  .|  .' ' ' ' ' ' ",
"' ' ' ' ' ' ' ' ' ' ' ' ' ' ' ' ' ' ' ' ' ' ' ' ' ' ' ' ' ' ' | [ <.<.<.[ [ <.<.<.T T T 1.%.;.;.;.;.*.*.*.*.%.[ R [ | | | | | ' ",
"| | | | | | | | ' ' ' ' ' ' ' ' ' ' ' ' ' ' ' ' ' ' ' ' | | | F T T R [ | | F T T T T T T <.<.<.<.<.<.<.<.<.<.T T T R R R R [ | ",
"R R R R [ [ [ [  .' ' ' ' ' ' ' ' ' ' ' ' ' ' ' ' ' '  .[ [ [ R R [ | | ' ' | [ R R T T T T T T T T T T T T T T T T T T T T T R ",
"R R R [ | | | | ' ' ' ' ' ' ' ' ' ' ' ' ' ' ' ' ' ' ' ' | | | | | | ' ' ' ' ' | | | F T T T R R R R T T T T T T T T T T T T R R ",
"| |  .| ' ' ' ' ' ' ' ' ' ' ' ' ' ' | | | | | ' ' ' ' | | | | | ' ' ' ' ' ' ' ' ' ' | R T F | | | | F T R R R T T R R R R [ |  .",
"' ' ' ' ' ' ' ' ' ' ' ' ' ' ' ' | } J I I I J | ' ' | J I I I J | ' ' ' ' $.;.;.;.$. .R R | ' ' ' ' | [ | | | [ [ | | | | | ' ' ",
"' ' ' ' ' ' ' ' ' ' ' ' ' ' ' | J I U U U P P J } } J P U U U U J | ' ' $.;.:.:.:.;...1.R | ' ' ' ' '  .' ' ' | | ' ' ' ' ' o.o.",
"' ' ' ' ' ' ' ' ' ' ' ' ' ' | J P U 3.=.3.U P P I I P U 3.=.=.3.U J | ' ;.:.:.:.:.:.;.%.<.[ | ' ' ' ' ' ' ' ' ' ' ' ' ;.;.;.;.;."
};
