/* XPM */
static char *rcp07112968638831[] = {
/* columns rows colors chars-per-pixel */
"64 64 189 2 ",
"   c #27182C",
".  c #2F1038",
"X  c #3C2D39",
"o  c #373636",
"O  c #3E4229",
"+  c #3D4E36",
"@  c #3E5135",
"#  c #474637",
"$  c #514A3C",
"%  c #4D6339",
"&  c #2C0143",
"*  c #300047",
"=  c #360A49",
"-  c #3E005E",
";  c #3A0355",
":  c #3E1850",
">  c #3D1849",
",  c #3B3B44",
"<  c #431A58",
"1  c #4A1B55",
"2  c #441A4C",
"3  c #513E4B",
"4  c #532E5B",
"5  c #46284D",
"6  c #420162",
"7  c #4A026D",
"8  c #490765",
"9  c #471261",
"0  c #4C0171",
"q  c #54027C",
"w  c #510575",
"e  c #5A1575",
"r  c #5E2571",
"t  c #5E2D77",
"y  c #5B2A64",
"u  c #484945",
"i  c #5C5E42",
"p  c #4D4750",
"a  c #4C515B",
"s  c #5C565F",
"d  c #6A4F4B",
"f  c #685755",
"g  c #665644",
"h  c #5B7649",
"j  c #4F6C55",
"k  c #5A735B",
"l  c #586C47",
"z  c #717F45",
"x  c #746156",
"c  c #64795B",
"v  c #5A4760",
"b  c #585566",
"n  c #65446E",
"m  c #746168",
"M  c #6D843A",
"N  c #73873B",
"B  c #5D824C",
"V  c #7F9046",
"C  c #658A53",
"Z  c #6B9253",
"A  c #6C965B",
"S  c #719C5B",
"D  c #759B57",
"F  c #788B49",
"G  c #74A15F",
"H  c #7BA65E",
"J  c #7FAB5E",
"K  c #668B6C",
"L  c #6D966F",
"P  c #6F9A61",
"I  c #73996C",
"U  c #7A9A6F",
"Y  c #668F73",
"T  c #679175",
"R  c #6B9472",
"E  c #719671",
"W  c #77A564",
"Q  c #79A763",
"!  c #7AA962",
"~  c #73A069",
"^  c #85823F",
"/  c #90894B",
"(  c #859C45",
")  c #859948",
"_  c #989654",
"`  c #878443",
"'  c #87A24A",
"]  c #8DAB4B",
"[  c #95AB4C",
"{  c #95B44E",
"}  c #99B64D",
"|  c #9CB94E",
" . c #8EAF55",
".. c #81AB5E",
"X. c #8AAE5C",
"o. c #8FB156",
"O. c #95B651",
"+. c #9AB751",
"@. c #9EB850",
"#. c #A0B94F",
"$. c #AFAA54",
"%. c #AAAE5F",
"&. c #A3A75B",
"*. c #A3B950",
"=. c #AFB65C",
"-. c #A8B954",
";. c #B3BA56",
":. c #B4B55D",
">. c #BBB75B",
",. c #B6B959",
"<. c #BDBA5A",
"1. c #B5B757",
"2. c #829E6B",
"3. c #82AA62",
"4. c #88AC61",
"5. c #ACB160",
"6. c #5A0484",
"7. c #5F018C",
"8. c #61038B",
"9. c #650295",
"0. c #670992",
"q. c #6B039C",
"w. c #6A0798",
"e. c #691294",
"r. c #6F139B",
"t. c #6D1E94",
"y. c #731D9C",
"u. c #763A95",
"i. c #68278A",
"p. c #6F04A2",
"a. c #7205A5",
"s. c #7008A0",
"d. c #7909AF",
"f. c #7A15AB",
"g. c #7016A1",
"h. c #7D0AB2",
"j. c #7F19B0",
"k. c #7B4596",
"l. c #7D4899",
"z. c #830DBA",
"x. c #811BB1",
"c. c #8715BA",
"v. c #8126AC",
"b. c #8C2DB9",
"n. c #8B25B9",
"m. c #9439BB",
"M. c #835B8E",
"N. c #81489E",
"B. c #875F93",
"V. c #8D6294",
"C. c #8A43AC",
"Z. c #8443A5",
"A. c #8E45B3",
"S. c #9545BC",
"D. c #9247B6",
"F. c #8C12C3",
"G. c #8F13C9",
"H. c #9214CE",
"J. c #9117C6",
"K. c #9515D1",
"L. c #9A1AD4",
"P. c #9D19DB",
"I. c #9827C7",
"U. c #A421D4",
"Y. c #A922D3",
"T. c #A61EE3",
"R. c #AB20EA",
"E. c #B224ED",
"W. c #B927F9",
"Q. c #B526F5",
"!. c #9A43C5",
"~. c #A34BCC",
"^. c #A146CC",
"/. c #A453CA",
"(. c #A94BD5",
"). c #B04CDA",
"_. c #AB59D5",
"`. c #B767D9",
"'. c #BD6AE5",
"]. c #C273DD",
"[. c #C16EE4",
"{. c #C67CE2",
"}. c #C979E9",
"|. c #D378E9",
" X c #C682D2",
".X c #C481DD",
"XX c #D283EE",
"oX c #DA8DF6",
"OX c #DE90F4",
/* pixels */
"| | | | o.R T T T R  . .R T T T E :.<.<.<.<.:.U E T U :.<.<.<.<.<.:.2.+.<.<.<.<.<.<.<.<.,.| | | | | | | | *.<.<.<.<.<.<.<.<.<.,.",
"O.O.| O.I T E E T T R R T E E T E 5.<.<.<.<.<.:.5.2.5.<.<.<.<.<.<.<.:.,.<.<.<.<.<.<.<.<.,.*.| | | | | ,.,.,.<.<.<.<.<.<.<.<.,.*.",
"R I X.I T U 5.5.U T T T U 5.5.U E U :.<.<.<.<.<.<.:.<.<.<.<.<.<.<.<.<.<.<.<.<.<.<.<.<.<.<.<.,.#.| | #.,.,.,.,.,.,.,.,.,.,.*.| O.",
"T E I T E 5.<.<.5.U E U 5.<.<.:.5.2.:.<.<.<.<.<.<.<.<.<.<.<.<.,.,.,.<.<.<.<.<.,.,.<.<.<.<.<.<.*.| | | #.#.#.#.| #.#.#.#.#.| O.I ",
"U 5.5.U U :.<.<.<.:.:.:.<.<.<.<.<.:.<.<.<.,.,.,.,.<.<.<.<.,.*.#.| *.,.<.<.<.:.4.4.:.<.<.<.<.<.<.,.,.*.| | | | | | | | #.@.O. .R ",
":.<.<.:.:.,.,.,.<.<.<.<.<.,.,.,.,.<.<.<.:.4.3.3.4.:.,.,.,.*.| | | | *.,.,.=.4.Q Q 4.,.<.<.<.<.<.,.,.;.| | | | | | | *.,.:.2.U E ",
"<.<.<.<.,.*.| *.,.<.<.<.,.*.| @.@.:.,.:.4.Q Q Q Q 4.@.*.;.#.| | | O.O.O.3.3.Q Q Q 3.:.,.,.,.,.,.*.| | | | | | #.*.,.,.<.<.:.:.:.",
"<.<.<.,.*.| | | *.<.<.,.*.| O...! 3.3.3.Q Q Q Q Q ..O.| | | | | O...! ! Q Q Q Q Q ! O.#.#.#.#.#.| | | | | | *.,.,.,.,.,.<.<.<.<.",
",.,.*.| | | | | | ,.,.,.#.O...Q Q Q Q Q Q Q Q Q ! O.O.O.O.| | O.J Q Q Q Q ! ! Q Q Q J O.| | | | | | | | | *.,.<.,.*.| *.,.<.<.<.",
"| | | | | | | | | | *.;.@.O.! Q Q Q Q Q Q Q Q Q Q ! ! ! ..O.O.J Q Q Q Q J O.O...! Q Q J O.O.| | | | | | ;.,.,.,.*.| | | *.,.,.,.",
"| | | | | | O.O.O.O.O.O...! Q Q ! ! ! Q Q Q Q Q Q Q Q Q Q ! ! Q Q Q Q ! O.| | O.O...! ! ....+.| | | | | | | | | | | | | | | | | ",
"| | | | | +.......! ! ! Q Q Q J O.O.O.J Q Q ! ! ! Q Q Q Q Q Q Q ! ! Q ! O.| | | | O.O.O.O.O.| | | | | | | | O.O.O.| | | | | | | ",
"| | | | | | O.O.O...! ! Q Q ! O.| | | O.! J O.O.O...! Q Q Q Q J O.O.J ! O.| | | | | | | | | | | | | | | | O...! ..O.| | | | | | ",
"| | | | | | | | | +.O.O...! ..O.| | | O...O.| | | O.O...! ! ..O.| | O.....+.| | | | | | | | O.O.O.| | | O.J Q Q Q ..O.| | | | | ",
"| | | | | *.,.,.*.| | | +.+.@.| | | | | +.| | | | | | O.O.O.O.| | | | O.O.| | | | | | | | O...! ..O.O.O.J Q Q Q Q ! O.| | | | | ",
"| | | | *.,.<.<.,.*.| | *.,.,.,.,.*.| | | | | | | | | O.O.O.O.| | | | | | | | | | | | | O.J Q Q Q ! ! ! Q Q Q Q Q ! O.O.O.| | | ",
"O.O.*.,.<.<.<.<.<.<.,.,.,.<.<.<.,.;.=.+.| | O.O.O.O.O...! ! ..O.O.| | O.O.O.O.| | | | O.J Q Q Q Q Q Q Q Q Q Q Q Q Q ! ! ..O.O.O.",
"..X.;.,.<.<.<.<.<.<.<.<.<.<.<.:.4.3.3...O.O...! ! ! ! Q Q Q Q ! ..O.O...! ! ..O.O.O.O.J Q Q Q Q Q Q Q Q Q Q Q Q Q Q Q Q Q ! ! ! ",
"O.+.| #.*.,.<.<.<.<.<.<.,.,.=.4.! ! ! Q ! ! Q Q Q Q Q Q Q Q Z @ Z ! ! Q Q Q Q ! Q Q Q W Q Q Q Q Q Q Q Q Q Q Q Q Q Q Q Q Q ! ! ! ",
"| | | | #.-.<.<.<.<.<.,.*.X.....O.O.O...! ! ! Q Q Q Q Q Q S + t p S Q Q Q Q Q W R R R R W ! ! ! ! ! ! ! ! W W W W Q Q Q J O.O.O.",
"#.*.,.,.,.,.<.<.<.<.<.*.| O.O.O.| | O.O.O.O.o.! Q Q Q Q Q C   r.l.h Q W Q W W R T T T T L X.O.O.O.O.O.O. .L R R R W W ! O.| | | ",
",.,.<.<.<.<.<.<.<.<.,.#.| | | | | +.....! ! ! Q Q Q Q Q Q u & y.`.s A L R R ~ R T T T T T R R R R I o.o.I E E E T R R Q O.| | | ",
",.,.,.,.,.<.<.<.<.<.*.| | | | | | | O.O...! Q Q Q Q Q Q C : 6 e.|.B.j Y T T E E E E T T T T E E E E R R U 5.:.5.U T T L O.@.*.,.",
"#.| | | *.,.<.<.<.<.*.| | | | | | | | | O.O...! ! ! Q G o 6.6 e.). Xb K E U 5.:.:.5.U T T U 5.:.:.5.U U 5.<.<.<.5.U E E 2.:.,.,.",
"| | | | | *.,.,.<.<.,.*.,.,.*.| | | | | | | O.O.O.O.H B < 9.6 e.c.].M.c 5.:.<.<.<.<.5.E U 5.<.<.<.<.:.:.<.<.<.<.<.:.:.:.:.,.*.#.",
"#.#.| | | | | *.,.<.<.,.,.,.;.*.| | | | | | | | | { D u 6.q.6 u.j.~..Xf $.<.<.<.<.<.:.2.5.<.<.<.<.<.<.<.<.<.<.<.<.<.<.<.<.,.#.#.",
",.,.*.| | | | | *.,.,.,.*.#.*.;.| | | | | | | | | } ) 1 9.q.6 k.b.`.oXM./ <.<.<.<.<.<.:.<.<.<.<.<.<.<.<.<.<.<.<.<.<.<.<.<.<.-.,.",
"<.<.,.#.| | | | | #.#.#.| | | | | | | | | | | | } { g q q.a.6 u.!._.~.{.f $.<.,.,.<.<.<.<.<.<.,.,.<.<.<.<.<.<.<.<.<.<.<.<.<.<.<.",
"<.<.,.#.| *.,.,.*.| | | | | | | | | | | | | | | | ( 2 q.p.H.- t.I.^._.OXV.^ 1.*.#.*.,.<.<.,.,.*.*.,.,.<.,.*.*.,.<.<.<.<.<.<.<.<.",
"<.<.<.*.*.,.<.<.,.,.*.| | | | | | | | | | | | | { # 0.h.a.H.- t.(.(.[.oX Xx [ } | | *.,.,.*.| | | | *.;.*.| | *.<.<.<.<.<.<.<.<.",
"<.<.<.<.,.<.<.<.<.,.,.,.,.,.,.,.,.,.;.| | | | } N 2 z.E.F.K.- l.}.~.XX}.{.B.V | | | #.,.*.| | | | | | | | | | | ,.<.<.<.<.,.,.,.",
",.,.,.,.,.,.,.,.,.*.| | @.+.+.+.+.+.| | | | } ] $ 6.a.T.W.P.- N.'.n.m.g.b.`.m [ | | #.;.| | | | | | | | | | | | ,.,.,.,.,.*.| | ",
"#.| #.#.| | | | | | O.O...! ! ! ! ..O.| O.O.{ ( 5 q.L.E.F.7 & l.XX^.x.b.[.oXn ( | | | | | | | | | | | | | | | | | | | | | | | | ",
"| | | | | | | | O.O...! Q Q Q Q Q Q J O...! H Z 4 F.G.K.G.q 7 A./.N.!.A.D.S.5 ( | | | | O.O.O.| | | | | | | | | | | | | | | | | ",
"| | | | | | | O...! Q Q Q Q Q Q Q Q Q ! Q Q Q A v I.z.K.T.a.9.S.y.& 6.0 w 6 X ' O.| | O...! ..O.| | | | | | | | | | | | | | | | ",
"| | | | | O.O.J Q Q Q ! ! ! ! ! Q Q Q Q Q Q Q Q l e z.K.z.q.9.Z.y.& 0 7.7 8 l H ..O.O...! ! Q J O.| | | | | | O.O.O.| | | | | | ",
"| | | O.O...! Q Q Q J O.O.+.+.O.J Q Q Q ! ! ! Q G o 0.H.p.a.J.C.y.& 6 8.= o D Q Q ! ! ..O.O.J Q J O.| | | | O...! ..O.| | | O.O.",
"O.| +.....! ! ! ! ..O.| | | | | O.! Q J O.O.O...! h 9 K.q.F.Y.C.y.& 6 8.= % O.O...! ..O.| | O...! ..+.| | O.J Q Q Q J O.O.O...! ",
"..O.O.O.O.O.O.O.O.O.| | | | | | O.....O.| | | O.O.' > h.a.R.U.C.y.& 6 6   M { O.O.O.O.| | O.O.O.O.O.| | O...Q Q Q Q Q ! ! ! Q Q ",
"! ......+.| | | | | | | | | | | | O.O.| | | | O.O. .i w K.W.U.C.y.& 6 ; O ] J ..O.| O.O.O...! ! ..O.| | O.! Q Q ! ! ! Q Q Q Q Q ",
"O.O.O.O.| | | | O.O.O.O.O.| | O.O.O.| | | | +.U I L k < L.W.U.v.r.& 6 = h ! Q Q J O...! ! Q Q Q Q J O.O.J Q Q J O.O.O...! ! ! ! ",
"| | | | | | | O.I R R R I o.o.I R I O.| *.,.,.:.5.U K a n.W.U.f.w.& * , P Q Q Q Q ! Q Q Q Q Q Q Q Q ! ! Q Q ! O.| | | O.O.+.O.+.",
"| | | | | O.O.I E E E E T R R E E T I +.,.<.<.<.<.:.%.c i.E.U.f.s.; . k R W 3.3.Q Q Q ! ! Q Q ! ! ! Q Q Q Q ..O.| | | | | | | | ",
"| | O.O.o.I I U 5.:.:.5.U E U 5.5.U U :.<.<.<.<.<.<.<.%.# I.U.f.d.8.d &.U U =.:.4.Q ! O.O.....O.O.O.J Q Q ! O.O.O.O.O.O.O.| | | ",
"@.O.I I I U 5.:.<.<.<.<.:.:.:.<.<.:.:.<.<.<.<.,.,.,.<.<._ r Y.f.h.1 ` >.:.:.<.<.:.4...+.| O.O.| | | O.! Q Q ! ! ! ! ! ! ..O.O.O.",
":.2.U 5.:.:.<.<.<.<.,.,.,.<.<.<.<.<.<.<.<.<.:.4.3.4.:.<.>.x y.x.e.# [ ;.<.<.<.<.<.,.;.*.| | | | | | O.! Q Q Q Q 3.3.3.3.3.......",
",.:.:.,.,.,.<.<.,.=.4.3.4.=.,.<.<.,.,.,.,.=.4.Q Q Q 4.=.,._ y f.r M } *.,.,.,.,.,.<.<.,.;.| | | | | O.! 3.3.3.4.=.,.,.,.,.,.,.,.",
"| | | | | *.,.,.X...! ! Q 3.4.=.=.4.3.3.3.3.Q Q Q Q Q 3.3...F 3 z { | | | | | | *.,.,.,.*.| | | | +.....=.;.;.;.,.,.,.,.,.,.,.,.",
"| | | | | | #.| +.O.O.O...! ! 4.3.Q Q Q Q Q Q Q Q Q Q Q Q Q H S H O.O.O.| | | O.O.+.+.+.O.| | | | | O.+.| | | | | | | | | | #.#.",
"| | | | | | | | | | | | O.O.O.O...! ! ! Q Q Q Q Q Q Q Q Q Q Q Q Q ! ! ..O.O.O...! ! ! ! ..O.| | | | | | | | | | | | | | | | | #.",
",.,.,.*.| | | | | | | | | | | | O.O.O.o.! Q Q ! ! ! Q Q Q Q Q Q Q Q Q Q ! ! ! Q Q 3.3.3.! +.| | | | | | | | | | | | | | | | *.,.",
"<.<.<.,.*.| | | | | | O.O.O.O.O...! ! ! Q Q J O.O.O.J Q Q Q Q Q Q Q ! ! ! ! ! ! 4.=.,.=.X.+.| | | | | | | | | | | | | | | *.,.<.",
",.,.,.<.,.,.,.*.| | +...........! ! ! ! ! ..O.| | | O.! Q Q Q ! ! ..O.O.+.+.O.+.;.<.<.<.,.*.| | | | | | | | | | | | ;.,.,.,.<.<.",
"| #.*.,.<.<.<.,.*.| | O.O.O.O.O.O.O.O.O.O.O.| | | | O...! ! ..O.O.+.| *.,.,.*.*.,.<.<.<.<.,.| | | | | | | | | | | | | *.,.<.<.,.",
"| | | *.,.,.,.,.;.| | | | | | | | | | | | | | | | | | O.O.O.O.| | *.,.,.<.<.<.<.<.,.,.,.<.,.*.| | | | | | | | | | | | | | *.;.*.",
"| | | | #.#.#.#.| | | | | | | | | | | | | | | | | | | | | | | | +.=.,.,.,.,.,.,.=.4.3.4.:.<.,.,.,.,.*.| | | | +.O.+.| | | | | | ",
"| | | | | | | | | | | | | | | | | | | | | | | | | | | | | | | O...3.3.3.....3.3.3.Q Q Q 4.=.,.,.,.,.;.;.;.;.=...! ..O.O.O.O.O.| ",
"O.O.O.O.O.O.O.O.| | | | | | | | | | | | | | | | | | | | O.O.O.J Q Q ! ..O.O.J Q Q Q Q Q Q 3.3.3.3.3.3.3.3.3.3.Q Q Q ! ! ! ! ..O.",
"! ! ! ! ........+.| | | | | | | | | | | | | | | | | | +.......! ! ..O.O.| | O...! ! Q Q Q Q Q Q Q Q Q Q Q Q Q Q Q Q Q Q Q Q Q ! ",
"! ! ! ..O.O.O.O.| | | | | | | | | | | | | | | | | | | | O.O.O.O.O.O.| | | | | O.O.O.J Q Q Q ! ! ! ! Q Q Q Q Q Q Q Q Q Q Q Q ! ! ",
"O.O.+.O.| | | | | | | | | | | | | | O.O.O.O.O.| | | | O.O.O.O.O.| | | | | | | | | | O.! Q J O.O.O.O.J Q ! ! ! Q Q ! ! ! ! ..O.+.",
"| | | | | | | | | | | | | | | | O.o.I R R R I O.| | O.I R R R I O.| | | | *.,.,.,.*.+.! ! O.| | | | O...O.O.O.....O.O.O.O.O.| | ",
"| | | | | | | | | | | | | | | O.I R E E E T T I o.o.I T E E E E I O.| | *.,.<.<.<.,.@.4.! O.| | | | | +.| | | O.O.| | | | | #.#.",
"| | | | | | | | | | | | | | O.I T E 5.:.5.E T T R R T E 5.:.:.5.E I O.| ,.<.<.<.<.<.,.=.3...O.| | | | | | | | | | | | ,.,.,.,.,."
};
