/* XPM */
static char *_65c6b300fed4e16b41fba73e493f84b3uOAwnDY8Q3SjDH5[] = {
/* columns rows colors chars-per-pixel */
"64 64 139 2 ",
"   c #131516",
".  c #1A1716",
"X  c #281C19",
"o  c #311E15",
"O  c #191C24",
"+  c #24262C",
"@  c #313225",
"#  c #272831",
"$  c #2B2C32",
"%  c #2F2C3E",
"&  c #7B3C1E",
"*  c #48343F",
"=  c #4D393F",
"-  c #6E232C",
";  c #7D2025",
":  c #7C3B26",
">  c #3E4537",
",  c #3E403E",
"<  c #2A2B40",
"1  c #2E3141",
"2  c #35344A",
"3  c #3A3749",
"4  c #383C4D",
"5  c #402D43",
"6  c #453341",
"7  c #403C43",
"8  c #4B3940",
"9  c #3B4546",
"0  c #3F494F",
"q  c #3F4950",
"w  c #444B4D",
"e  c #4A514B",
"r  c #6E5E6E",
"t  c #5D7E6C",
"y  c #786677",
"u  c #863613",
"i  c #883712",
"p  c #8B3812",
"a  c #8B3D1E",
"s  c #9E3A16",
"d  c #913E1D",
"f  c #A43F12",
"g  c #832522",
"h  c #863721",
"j  c #A34013",
"k  c #A84111",
"l  c #B64F21",
"z  c #B85123",
"x  c #BE582A",
"c  c #96727A",
"v  c #9A797F",
"b  c #BD7E61",
"n  c #D56F43",
"m  c #D77145",
"M  c #D87246",
"N  c #DE784D",
"B  c #C87F57",
"V  c #CE795C",
"C  c #DD7B52",
"Z  c #D07A5C",
"A  c #E07A4F",
"S  c #E17B50",
"D  c #7B844F",
"F  c #6A8F5E",
"G  c #6C915D",
"H  c #7F9A51",
"J  c #749359",
"K  c #7CA55E",
"L  c #7FAB5E",
"P  c #638367",
"I  c #6D8567",
"U  c #678C61",
"Y  c #648269",
"T  c #6E976F",
"R  c #77956F",
"E  c #73996C",
"W  c #7A9A6F",
"Q  c #688F76",
"!  c #6E8C79",
"~  c #768F77",
"^  c #679175",
"/  c #6B9472",
"(  c #719671",
")  c #76A465",
"_  c #7BA663",
"`  c #7AA962",
"'  c #73A069",
"]  c #849C4C",
"[  c #809B50",
"{  c #9E9E57",
"}  c #95985B",
"|  c #9C9B59",
" . c #BF815E",
".. c #90A34F",
"X. c #95B24E",
"o. c #99B74E",
"O. c #9CB94E",
"+. c #8EAF55",
"@. c #81AB5E",
"#. c #8AAE5C",
"$. c #8FB156",
"%. c #95B651",
"&. c #9AB751",
"*. c #9EB850",
"=. c #A0B94F",
"-. c #A9AB5F",
";. c #A0B752",
":. c #A3B950",
">. c #AFB65C",
",. c #B3BA56",
"<. c #B4B55D",
"1. c #B6B959",
"2. c #BDBA5A",
"3. c #829E6B",
"4. c #86877B",
"5. c #8D827C",
"6. c #88897A",
"7. c #90837E",
"8. c #859672",
"9. c #82AA62",
"0. c #88AC61",
"q. c #AEAB64",
"w. c #B4AC64",
"e. c #ACB160",
"r. c #CA8257",
"t. c #CC8454",
"y. c #D48554",
"u. c #877281",
"i. c #877184",
"p. c #8A7384",
"a. c #837C84",
"s. c #8E7987",
"d. c #8B7789",
"f. c #8D7589",
"g. c #8D768A",
"h. c #8F7988",
"j. c #907687",
"k. c #828081",
"l. c #888181",
/* pixels */
"O.O.O.O.$./ ^ ^ ^ / +.+./ ^ ^ ^ ( <.2.2.2.2.<.W ( ^ W <.2.2.2.2.2.<.3.&.2.2.2.2.2.2.2.2.1.O.O.O.O.O.O.O.O.:.1.2.2.2.2.2.2.2.2.1.",
"%.%.O.%.E ^ ( ( ^ ^ / / ^ ( ( ^ ( e.2.2.2.2.2.<.e.3.e.2.2.2.2.2.2.2.<.1.2.2.2.2.2.2.2.2.1.:.O.O.O.O.O.1.1.1.2.2.2.2.2.2.2.2.1.:.",
"/ E #.E ^ W e.e.W ^ ^ ^ W e.e.W ( W <.2.2.2.2.2.2.<.2.2.2.2.2.2.2.2.2.2.2.2.2.2.2.2.2.2.2.2.1.=.O.O.=.1.1.1.1.1.1.1.1.1.1.:.O.%.",
"^ ( E ^ ( e.2.2.e.W ( W e.2.2.<.e.3.<.2.2.2.2.2.2.2.2.2.2.2.2.1.1.1.2.2.2.2.2.1.1.2.2.2.2.2.2.:.=.O.O.=.=.=.=.=.=.=.=.=.=.O.%.E ",
"W e.e.W W <.2.2.2.<.<.<.2.2.2.2.2.<.2.2.2.1.1.1.1.2.2.2.2.1.:.=.O.:.1.2.2.2.<.0.0.<.2.2.2.2.2.2.1.1.:.O.O.O.O.O.O.O.O.=.*.%.+./ ",
"<.2.2.<.<.1.1.1.2.2.2.2.2.1.1.1.1.2.2.2.<.0.9.9.0.<.1.1.1.:.O.O.O.O.:.1.1.>.0.` ` 0.1.2.2.2.2.2.1.1.,.O.O.O.O.O.O.O.:.1.<.3.W ( ",
"2.2.2.2.1.:.O.:.1.2.2.2.1.:.O.*.*.<.1.<.0.` ` ` ` 0.*.:.,.=.O.O.O.%.%.%.9.9.` ` ` 9.<.1.1.1.1.1.:.O.O.O.O.O.O.O.:.1.1.2.2.<.<.<.",
"2.2.2.1.:.O.O.O.:.2.2.1.:.O.%.@.` 9.9.9.` ` ` ` ` @.%.O.O.O.O.O.%.@.` ` ` ` ` ` ` ` %.=.O.=.=.=.O.O.O.O.O.O.:.1.1.1.1.1.2.2.2.2.",
"1.1.:.O.O.O.O.O.O.1.1.1.O.%.@.` ` ` ` ` ` ` ` ` ` %.%.%.%.O.O.%.L ` ` ` ` ` ` ` ` ` L %.O.O.O.O.O.O.O.O.O.:.1.2.1.:.O.:.1.2.2.2.",
"O.O.O.O.O.O.O.O.O.O.:.,.*.%.` ` ` ` ` ` ` ` ` ` ` ` ` ` @.%.%.L ` ` ` ` L %.%.@.` ` ` L %.%.O.O.O.O.O.O.,.1.1.1.:.O.O.O.:.1.1.1.",
"O.O.O.O.O.O.%.%.%.%.%.%.@.` ` ` ` ` ` ` ` ` ` ` ` ` ` ` ` ` ` ` ` ` ` ` %.O.O.%.%.@.` ` @.@.&.O.O.O.O.O.O.O.O.O.O.O.O.O.O.O.O.O.",
"O.O.O.O.O.&.@.@.@.` ` ` ` ` ` L %.%.%.L ` ` ` ` ` ` ` ` ` ` ` ` ` ` ` ` %.O.O.O.O.%.%.%.%.%.O.O.O.O.O.O.O.O.%.%.%.O.O.O.O.O.O.O.",
"O.O.O.O.O.O.%.%.%.@.` ` ` ` ` %.O.O.O.%.` L %.%.%.@.` ` ` ` ` L %.%.L ` %.O.O.O.O.O.O.O.O.O.O.O.O.O.O.O.O.%.@.` @.%.O.O.O.O.O.O.",
"O.O.O.O.O.O.O.O.O.&.%.%.@.` @.%.O.O.O.%.@.%.O.O.O.%.%.@.` ` @.%.O.O.%.@.@.&.O.O.O.O.O.O.O.O.%.%.%.O.O.O.%.L ` ` ` @.%.O.O.O.O.O.",
"O.O.O.O.O.:.1.1.:.O.O.O.&.&.*.O.O.O.O.O.&.O.O.O.O.O.O.%.%.%.%.O.O.O.O.%.%.O.O.O.O.O.O.O.O.%.@.` @.%.%.%.L ` ` ` ` ` %.O.O.O.O.O.",
"O.O.O.O.:.1.2.2.1.:.O.O.:.1.1.1.1.:.O.O.O.O.O.O.O.O.O.%.%.%.%.O.O.O.O.O.O.O.O.O.O.O.O.O.%.L ` ` ` ` ` ` ` ` ` ` ` ` %.%.%.O.O.O.",
"%.%.:.1.2.2.2.2.2.2.1.1.1.2.2.2.1.,.>.&.O.O.%.%.%.%.%.@.` ` @.%.%.O.O.%.%.%.%.O.O.O.O.%.L ` ` ` ` ` ` ` ` ` ` ` ` ` ` ` @.%.%.%.",
"@.#.,.1.2.2.2.2.2.2.2.2.2.2.2.<.0.9.9.@.%.%.@.` ` ` ` ` ` ` ` ` @.%.%.@.` ` @.%.%.%.%.L ` ` ` ` ` ` ` ` ` ` ` ` ` ` ` ` ` ` ` ` ",
"&.&.O.=.:.1.2.2.2.2.2.2.1.1.>.0.` ` ` ` ` ` ` ` ` ` ` ` ` ` ` ` ` ` ` ` ` ` ` ` ` ` ` ) ` ` ` ` ` ` ` ` ` ` ` ` ` ` ` ` ` ` ` ` ",
"O.O.O.O.=.:.2.2.2.2.2.1.;.#.@.@.%.%.%.@.` ` ` ` ` ` ` ` ` ` ` ` ` ` ` ` ` ` ` ) / / / / ) ` ` ` ` ` ` ` ` ) ) ) ) ` ` ` L %.%.%.",
"=.:.1.1.1.1.2.2.2.2.2.:.O.%.%.%.O.O.%.%.%.%.$.` ` ` ` ` ` ` ` ` ` ` ` ) ) ) ) / ^ ^ ^ ^ T #.%.%.%.%.%.%.+.T / / / ) ) ` %.O.O.O.",
"1.1.2.2.2.2.2.2.2.2.1.=.O.O.O.O.O.&.@.@.` _ ` ` ` ` ` ` ` ` _ _ _ ` ) / / / ' / ^ Q Q ^ ^ / / / / E $.$.E ( ( ( ^ / / _ %.O.O.O.",
"1.1.1.1.1.2.2.2.2.2.:.O.O.O.O.O.O.O.%.%.6.l.3._ _ _ _ _ _ _ 4.l.l.W ( / / / R R ( k.a.! ^ ^ ( ( ( ( / / W e.<.e.W ^ ^ T %.*.:.1.",
"=.O.O.O.:.1.2.2.2.2.:.O.O.O.O.O.O.O.O.&.5.j. .t.t.t.t.t.t.r.v g.j.b B B B r.y.y.y.v d.! ^ W e.<.<.e.W W e.2.2.2.e.W ( ( 3.<.1.1.",
"O.O.O.O.O.:.1.1.2.2.1.:.1.1.:.O.O.O.O.&.7.j.Z S S S S S S C v g.j.Z S S S S S S C v h.~ W e.2.2.2.2.<.<.2.2.2.2.2.<.<.<.<.1.:.=.",
"=.=.O.O.O.O.O.:.1.2.2.1.1.1.,.:.O.O.O.&.7.j.Z S S S S S S C v g.j.Z S S S S S S C v h.8.e.2.2.2.2.2.2.2.2.2.2.2.2.2.2.2.2.1.=.=.",
"1.1.:.O.O.O.O.O.:.1.1.1.:.=.:.,.O.O.O.&.7.j.V N N N N A S C v g.j.Z S S S S S S C v h.q.2.2.2.2.2.2.2.2.2.2.2.2.2.2.2.2.2.2.:.1.",
"2.2.1.=.O.O.O.O.O.=.=.=.O.O.O.O.O.O.O.&.7.j.V x l l z M S C v g.j.Z S S S S S S C v h.w.2.2.2.1.1.2.2.2.2.2.2.2.2.2.2.2.2.2.2.2.",
"2.2.1.=.O.:.1.1.:.O.O.O.O.O.O.O.O.O.O.&.7.j.V m n n n N S C v g.j.Z S S S S S S C v s.w.2.1.1.:.:.1.1.2.1.:.:.1.2.2.2.2.2.2.2.2.",
"2.2.2.:.:.1.2.2.1.1.:.O.O.O.O.O.O.O.O.&.7.j.Z S S S S S S C v g.j.Z S S S S S S C v s.w.1.:.O.O.O.O.:.,.:.O.O.:.2.2.2.2.2.2.2.2.",
"2.2.2.2.1.2.2.2.2.1.1.1.1.1.1.1.1.1.,.*.7.j.V C C C C C C C v g.j.V C C C C C C C v s.q.:.O.O.O.O.O.O.O.O.O.O.O.1.2.2.2.2.1.1.1.",
"1.1.1.1.1.1.1.1.1.:.O.O.*.&.&.&.&.&.O.&.5.i.c c c c c c c c g.g.g.c c c c c c c c p.u.-.O.O.O.O.O.O.O.O.O.O.O.O.1.1.1.1.1.:.O.O.",
"=.O.=.=.O.O.O.O.O.O.%.%.@.` ` ` ` @.%.X.> # # # # # # # # $ y g.i.7 $ # # # # # # # $ ] O.O.O.O.O.O.O.O.O.O.O.O.O.O.O.O.O.O.O.O.",
"O.O.O.O.O.O.O.O.%.%.@.` ` ` ` ` ` ` L +.9 < % % % % % % % O r i.u.D , % % % % % % < 1 ] %.%.%.O.O.O.O.O.O.O.O.O.O.O.O.O.O.O.O.O.",
"O.O.O.O.O.O.O.%.@.` ` ` ` ` ` ` ` ` ` _ 0 2 : d d d d d a X + + + @ & d d d d d a 6 3 H @.` @.%.O.O.O.O.O.O.O.O.O.O.O.O.O.O.O.O.",
"O.O.O.O.O.%.%.L ` ` ` ` ` ` ` ` ` ` ` ) q 2 d k k k k k f o       . p k k k k k j * 3 G ` ` ` L %.O.O.O.O.O.O.%.%.%.O.O.O.O.O.O.",
"O.O.O.%.%.@.` ` ` ` L %.%.%.%.%.L ` ` ) w 2 a f f k k k k p u u i p f k k k f f f * 2 J %.%.L ` L %.O.O.O.O.%.@.` @.%.O.O.O.%.%.",
"%.O.&.@.@.` ` ` ` @.%.O.O.O.O.O.%.` ` K w 2 - ; g s k k k f g g s k k k k f g ; ; 5 3 [ O.O.%.@.` @.&.O.O.%.L ` ` ` L %.%.%.@.` ",
"@.%.%.%.%.%.%.%.%.%.O.O.O.O.O.O.%.@.@.+.w 2 h s s f k k k k s s f k k k k k s s s 6 3 ] O.%.%.%.%.%.O.O.%.@.` ` ` ` ` ` ` ` ` ` ",
"` @.@.@.&.O.O.O.O.O.O.O.O.O.O.O.O.%.%.X.w 2 a j j j j j j j j j j j j j j j j j s * 3 ] %.@.` ` @.%.O.O.%.` ` ` ` ` ` ` ` ` ` ` ",
"%.%.%.%.O.O.O.O.%.%.%.%.%.O.O.%.%.%.O.X.e 3 8 8 8 8 8 8 8 = = = 8 8 8 8 8 8 8 8 8 3 4 G ` ` ` ` ` L %.%.L ` ` L %.%.%.@.` ` ` ` ",
"O.O.O.O.O.O.O.%.E / / / E $.$.E / E %.o...{ { | } I Y t t P J P t Y Y P U F G G G G G ) ` ` ` ` ` ` ` ` ` ` ` %.O.O.O.&.%.%.%.&.",
"O.O.O.O.O.%.%.E ( ( ( ( ^ / / ( ( ^ E &.1.2.2.2.2.<.e.W ^ ^ / ^ W e.e.W / ) 9.9.` ` ` ` ` ` ` ` ` ` ` ` ` ` @.%.O.O.O.O.O.O.O.O.",
"O.O.%.%.$.E E W e.<.<.e.W ( W e.e.W W <.2.2.2.2.2.2.2.e.W ^ ^ W e.2.2.e.W W >.<.0.` ` %.%.@.@.%.%.%.L ` ` ` %.%.%.%.%.%.%.O.O.O.",
"*.%.E E E W e.<.2.2.2.2.<.<.<.2.2.<.<.2.2.2.2.1.1.1.2.2.e.W ( e.2.1.1.2.<.<.2.2.<.0.@.&.O.%.%.O.O.O.%.` ` ` ` ` ` ` ` ` @.%.%.%.",
"<.3.W e.<.<.2.2.2.2.1.1.1.2.2.2.2.2.2.2.2.2.<.0.9.0.<.2.2.e.3.<.1.:.:.1.2.2.2.2.2.1.,.:.O.O.O.O.O.O.%.` ` ` ` ` 9.9.9.9.9.@.@.@.",
"1.<.<.1.1.1.2.2.1.>.0.9.0.>.1.2.2.1.1.1.1.>.0.` ` ` 0.>.1.<.<.1.:.O.O.:.1.1.1.1.1.2.2.1.,.O.O.O.O.O.%.` 9.9.9.0.>.1.1.1.1.1.1.1.",
"O.O.O.O.O.:.1.1.#.@.` ` ` 9.0.>.>.0.9.9.9.9.` ` ` ` ` 9.9.9.%.&.%.O.O.O.O.O.O.O.:.1.1.1.:.O.O.O.O.&.@.@.>.,.,.,.1.1.1.1.1.1.1.1.",
"O.O.O.O.O.O.=.O.&.%.%.%.@.` ` 0.9.` ` ` ` ` ` ` ` ` ` ` ` ` ` ` @.%.%.%.O.O.O.%.%.&.&.&.%.O.O.O.O.O.%.&.O.O.O.O.O.O.O.O.O.O.=.=.",
"O.O.O.O.O.O.O.O.O.O.O.O.%.%.%.%.@.` ` ` ` ` ` ` ` ` ` ` ` ` ` ` ` ` ` @.%.%.%.@.` ` ` ` @.%.O.O.O.O.O.O.O.O.O.O.O.O.O.O.O.O.O.=.",
"1.1.1.:.O.O.O.O.O.O.O.O.O.O.O.O.%.%.%.$.` ` ` ` ` ` ` ` ` ` ` ` ` ` ` ` ` ` ` ` ` 9.9.9.` &.O.O.O.O.O.O.O.O.O.O.O.O.O.O.O.O.:.1.",
"2.2.2.1.:.O.O.O.O.O.O.%.%.%.%.%.@.` ` ` ` ` L %.%.%.L ` ` ` ` ` ` ` ` ` ` ` ` ` 0.>.1.>.#.&.O.O.O.O.O.O.O.O.O.O.O.O.O.O.O.:.1.2.",
"1.1.1.2.1.1.1.:.O.O.&.@.@.@.@.@.` ` ` ` ` @.%.O.O.O.%.` ` ` ` ` ` @.%.%.&.&.%.&.,.2.2.2.1.:.O.O.O.O.O.O.O.O.O.O.O.O.,.1.1.1.2.2.",
"O.=.:.1.2.2.2.1.:.O.O.%.%.%.%.%.%.%.%.%.%.%.O.O.O.O.%.@.` ` @.%.%.&.O.:.1.1.:.:.1.2.2.2.2.1.O.O.O.O.O.O.O.O.O.O.O.O.O.:.1.2.2.1.",
"O.O.O.:.1.1.1.1.,.O.O.O.O.O.O.O.O.O.O.O.O.O.O.O.O.O.O.%.%.%.%.O.O.:.1.1.2.2.2.2.2.1.1.1.2.1.:.O.O.O.O.O.O.O.O.O.O.O.O.O.O.:.,.:.",
"O.O.O.O.=.=.=.=.O.O.O.O.O.O.O.O.O.O.O.O.O.O.O.O.O.O.O.O.O.O.O.O.&.>.1.1.1.1.1.1.>.0.9.0.<.2.1.1.1.1.:.O.O.O.O.&.%.&.O.O.O.O.O.O.",
"O.O.O.O.O.O.O.O.O.O.O.O.O.O.O.O.O.O.O.O.O.O.O.O.O.O.O.O.O.O.O.%.@.9.9.9.@.@.9.9.9.` ` ` 0.>.1.1.1.1.,.,.,.,.>.@.` L %.%.%.%.%.O.",
"%.%.%.%.%.%.%.%.O.O.O.O.O.O.O.O.O.O.O.O.O.O.O.O.O.O.O.O.%.%.%.L ` ` ` @.%.%.L ` ` ` ` ` ` 9.9.9.9.9.9.9.9.9.9.` ` ` ` ` ` ` @.%.",
"` ` ` ` @.@.@.@.&.O.O.O.O.O.O.O.O.O.O.O.O.O.O.O.O.O.O.&.@.@.@.` ` @.%.%.O.O.%.@.` ` ` ` ` ` ` ` ` ` ` ` ` ` ` ` ` ` ` ` ` ` ` ` ",
"` ` ` @.%.%.%.%.O.O.O.O.O.O.O.O.O.O.O.O.O.O.O.O.O.O.O.O.%.%.%.%.%.%.O.O.O.O.O.%.%.%.L ` ` ` ` ` ` ` ` ` ` ` ` ` ` ` ` ` ` ` ` ` ",
"%.%.&.%.O.O.O.O.O.O.O.O.O.O.O.O.O.O.%.%.%.%.%.O.O.O.O.%.%.%.%.%.O.O.O.O.O.O.O.O.O.O.%.` ` L %.%.%.%.L ` ` ` ` ` ` ` ` ` ` @.%.&.",
"O.O.O.O.O.O.O.O.O.O.O.O.O.O.O.O.%.$.E / / / E %.O.O.%.E / / / E %.O.O.O.O.:.1.1.1.:.%.` ` %.O.O.O.O.%.@.%.%.%.@.@.%.%.%.%.%.O.O.",
"O.O.O.O.O.O.O.O.O.O.O.O.O.O.O.%.E / ( ( ( ^ ^ E $.$.E ^ ( ( ( ( E %.O.O.:.1.2.2.2.1.*.0.` %.O.O.O.O.O.&.O.O.O.%.%.O.O.O.O.O.O.=.",
"O.O.O.O.O.O.O.O.O.O.O.O.O.O.%.E ^ ( e.<.e.( ^ ^ / / ^ ( e.<.<.e.( E %.O.1.2.2.2.2.2.1.>.9.@.%.O.O.O.O.O.O.O.O.O.O.O.O.1.1.1.1.1."
};
