/* XPM */
static char *rcp02595009718875[] = {
/* columns rows colors chars-per-pixel */
"64 64 213 2 ",
"   c #1D132E",
".  c #1F1531",
"X  c #221735",
"o  c #241A34",
"O  c #261A3B",
"+  c #291C3C",
"@  c #281E35",
"#  c #23192E",
"$  c #2F2D2D",
"%  c #332E2C",
"&  c #33322E",
"*  c #37352C",
"=  c #2C2435",
"-  c #2D2B33",
";  c #22243A",
":  c #2A243B",
">  c #352E37",
",  c #273239",
"<  c #353433",
"1  c #383737",
"2  c #1B2833",
"3  c #433B3A",
"4  c #39433A",
"5  c #3A732D",
"6  c #635714",
"7  c #424733",
"8  c #464B34",
"9  c #474B39",
"0  c #534B37",
"q  c #555E39",
"w  c #575739",
"e  c #4B5137",
"r  c #635A3E",
"t  c #56623A",
"y  c #746926",
"u  c #78742A",
"i  c #6A7A3E",
"p  c #6D733A",
"a  c #767934",
"s  c #626730",
"d  c #2A1C42",
"f  c #2D2344",
"g  c #2F2149",
"h  c #292B41",
"j  c #31254D",
"k  c #32294B",
"l  c #322B44",
"z  c #293E4B",
"x  c #2A3B44",
"c  c #332750",
"v  c #362A54",
"b  c #382D57",
"n  c #3A2F5A",
"m  c #392559",
"M  c #413265",
"N  c #45336B",
"B  c #493571",
"V  c #4F377A",
"C  c #51387D",
"Z  c #2D4655",
"A  c #35535C",
"S  c #395962",
"D  c #554F4A",
"F  c #6A5F41",
"G  c #655B41",
"H  c #556F4B",
"J  c #58724B",
"K  c #52634D",
"L  c #666748",
"P  c #736946",
"I  c #697B46",
"U  c #7B754A",
"Y  c #79765E",
"T  c #664D7F",
"R  c #476F74",
"E  c #5B4477",
"W  c #867E37",
"Q  c #867C4B",
"!  c #877C53",
"~  c #947B7B",
"^  c #468B38",
"/  c #7E8737",
"(  c #708D33",
")  c #758B43",
"_  c #778645",
"`  c #7C9246",
"'  c #658553",
"]  c #749D5C",
"[  c #699851",
"{  c #7FAB5E",
"}  c #7AA25B",
"|  c #68A948",
" . c #73996C",
".. c #7A9A6E",
"X. c #779969",
"o. c #75817C",
"O. c #78837A",
"+. c #679175",
"@. c #6B9472",
"#. c #719571",
"$. c #7B9570",
"%. c #6C8F69",
"&. c #77A565",
"*. c #7BA962",
"=. c #78A663",
"-. c #5C8C42",
";. c #72C558",
":. c #879539",
">. c #93893F",
",. c #958A45",
"<. c #859647",
"1. c #99954A",
"2. c #9B965B",
"3. c #8D8751",
"4. c #A3964B",
"5. c #A89D55",
"6. c #8FAB4B",
"7. c #8DA547",
"8. c #92AC4B",
"9. c #93A648",
"0. c #95B34D",
"q. c #99B64D",
"w. c #9CB94E",
"e. c #81AB5E",
"r. c #8BAC5A",
"t. c #8FB056",
"y. c #95B651",
"u. c #9AB751",
"i. c #9EB951",
"p. c #9AAC58",
"a. c #AAA757",
"s. c #B4A75A",
"d. c #B4AC58",
"f. c #A3B950",
"g. c #AEB65C",
"h. c #A2BB56",
"j. c #B3BA56",
"k. c #B4B55D",
"l. c #B6B959",
"z. c #BDBA5A",
"x. c #B5B357",
"c. c #A2B34D",
"v. c #8B8A65",
"b. c #819E6B",
"n. c #838873",
"m. c #9A8B74",
"M. c #A28E6C",
"N. c #A4966B",
"B. c #A3907C",
"V. c #82AA62",
"C. c #88AC61",
"Z. c #92AC63",
"A. c #AAA367",
"S. c #ACB160",
"D. c #BBB364",
"F. c #B6B67E",
"G. c #BAB878",
"H. c #B0A96D",
"J. c #C0B566",
"K. c #C4BB6B",
"L. c #A7C25C",
"P. c #8ED270",
"I. c #A7CD78",
"U. c #CBC677",
"Y. c #D2CD7A",
"T. c #C2D572",
"R. c #543A83",
"E. c #583C89",
"W. c #5E3F91",
"Q. c #5F4093",
"!. c #654B84",
"~. c #6D5287",
"^. c #614097",
"/. c #64429C",
"(. c #7D5E92",
"). c #715686",
"_. c #746C8A",
"`. c #7E6090",
"'. c #6F6491",
"]. c #6A45A5",
"[. c #84698E",
"{. c #8C7487",
"}. c #588D87",
"|. c #9FBA83",
" X c #B9B480",
".X c #C3BF88",
"XX c #ADDA89",
"oX c #B5E28C",
"OX c #CAC382",
"+X c #D8D582",
"@X c #DCDA85",
"#X c #D8D88A",
"$X c #D5D890",
"%X c #CDCB99",
"&X c #D7E68B",
"*X c #CFE68B",
"=X c #E4E38D",
"-X c #E8E994",
";X c #EEF39B",
":X c #EFF89E",
">X c #F3F69D",
",X c #F0FB9F",
"<X c #DDD8A0",
"1X c #E2DEA9",
"2X c #D9E6A2",
"3X c #ECF5A9",
"4X c #F6FBA2",
"5X c #FAFFA5",
"6X c #FAFFAA",
"7X c #F0F7A8",
"8X c #FAFEB8",
"9X c #E9EFAD",
"0X c #FAFDC7",
/* pixels */
"w.w.w.w.t.@.+.+.+.@.t.t.@.+.+.+.#.k.z.z.z.z.k...#.+...k.z.z.z.z.z.k.b.u.z.z.z.z.z.z.z.z.l.w.w.w.w.w.w.w.w.f.z.z.z.z.z.z.z.z.z.z.",
"y.y.w.y. .+.#.#.+.+.@.@.+.#.#.+.#.S.z.z.z.z.z.k.S.b.S.z.z.z.z.z.z.z.k.l.z.z.z.z.z.z.z.z.l.f.w.w.w.w.w.l.l.l.z.z.z.z.z.z.z.z.l.f.",
"@. .r. .+...S.S...+.+.+...S.S...#...m.D.z.z.z.z.z.k.z.z.z.z.z.z.z.z.z.z.z.z.z.z.z.z.z.z.z.A.N.w.w.w.i.l.l.l.l.l.l.l.l.l.l.f.w.y.",
"+.#. .+.#.S.z.z.S...#...S.z.z.k.a.K ~.{.D.z.z.z.z.z.z.z.z.z.z.l.l.l.z.z.z.z.z.l.l.z.z.z.A.[.T _ i.w.w.w.i.i.i.i.i.i.i.i.i.w.y. .",
"..S.S.....k.z.z.z.k.k.k.z.z.z.z.x.< N /.{.S.k.k.l.z.z.z.z.l.f.i.w.f.l.z.z.z.k.C.C.k.z.A.[.^.n 0 l.l.f.w.w.w.w.w.w.w.w.i.i.y.t.@.",
"k.z.z.k.k.l.l.l.z.z.z.z.z.l.l.x.U > v V /._...V.C.k.l.l.l.f.w.w.w.w.f.l.l.g.V.*.*.C.A.[.^.B j 3 3.l.j.w.w.w.w.w.w.w.f.l.k.b. .#.",
"z.z.z.z.l.f.w.f.l.z.z.z.l.f.w.8.< j n n Q.]._.X.*.V.i.f.j.i.w.w.w.u.y.y.V.V.*.*.*.$.[.].E.n n g 8 w.w.w.w.w.w.i.f.l.l.z.z.k.k.k.",
"z.z.z.l.f.w.w.w.f.z.z.l.f.w.y.} - j n n V /.]._.X.e.y.w.w.w.w.w.y.e.*.*.*.*.*.*.#.'.].^.B n n g 8 w.w.w.w.w.f.l.l.l.l.l.z.z.z.z.",
"l.l.f.w.w.w.w.w.w.l.l.l.w.y.{ H = v n n n V /.]._.r.y.y.y.w.w.y.{ *.*.*.*.*.*.#.'.].^.B n n n k < ) w.w.w.f.l.z.l.f.w.f.l.z.z.z.",
"w.w.w.w.w.w.w.w.w.w.f.j.u.y.} - O v n n n n W.].]._.o.o.O.n.n.o.o.o.o.o.o.n.n.'.].].R.n n n n v X 7 w.w.j.l.l.l.f.w.w.w.f.l.l.l.",
"w.w.w.w.w.w.y.y.y.y.y.y.e.*.] - O v n n n n C /.].].].].].].].].].].].].].].].].].^.B n n n n v X 7 w.w.w.w.w.w.w.w.w.w.w.w.w.w.",
"w.w.w.w.w.u.e.e.e.*.*.*.*.*.] - O v n n n n n W.].W.E.E.E.E.E.E.E.E.E.E.E.E.E.^.].R.n n n n n v X 7 w.w.w.w.y.y.y.w.w.w.w.w.w.w.",
"w.w.w.w.w.w.y.y.y.e.*.*.*.*.} $ O v n n v n N R.E.N n n n n n n n n n n n n n B E.R.N n n n n v X 7 w.w.w.y.e.*.e.y.w.w.w.w.w.w.",
"w.w.w.w.w.w.w.w.w.u.y.y.e.*.} & O j n v n n C M n n n n n n n n n n n n n n n n n B B b v n n v X 7 w.w.y.{ *.*.*.e.y.w.w.w.w.w.",
"w.w.w.w.w.f.l.l.f.w.w.w.u.u.8.& O d j n R.M n n n n n n n n n n n n n n n n n n n n n n m v b j X 7 y.y.{ *.*.*.*.*.y.w.w.w.w.w.",
"w.w.w.w.f.l.z.z.l.f.w.w.f.l.x.* O d d E.N n n n n n n n n n n n n n n n n n n n n n n B V m j d X 4 *.*.*.*.*.*.*.*.y.y.y.w.w.w.",
"y.y.f.l.z.z.z.z.z.z.l.l.l.z.x.w @ d m R.M n n n n n n N B B B B B B B B B M n n n n n n V C d + = K *.*.*.*.*.*.*.*.*.*.e.y.y.y.",
"e.r.j.l.z.z.z.z.z.z.z.z.z.z.z.a.$ X V M n n n n n N N ~.`.`.`.`.`.`.`.`.`.T N M n n n n B V j . 4 *.*.*.*.*.*.*.*.*.*.*.*.*.*.*.",
"u.u.w.i.f.l.z.z.z.z.z.z.l.l.g.e.- . v n n n n N N ~.(.M.s.s.s.s.s.s.s.s.s.m.(.!.N M n n n N N   4 *.*.*.*.*.*.*.*.*.*.*.*.*.*.*.",
"w.w.w.i.i.f.z.z.z.z.z.l.f.r.e.' > v n n n n N ~.(.N.s.s.s.s.s.s.s.s.s.s.s.s.s.m.(.!.M n n n n k 1 [ *.*.*.&.&.&.&.=.*.*.{ y.y.y.",
"i.f.l.l.l.l.z.z.z.z.z.f.w.y.6.& j n n n n N ~.N.s.s.s.J.a.4.d.K.K.K.s.4.5.s.s.s.s.m.!.M n n n n f 4 y.y.r.#.@.@.@.&.&.*.y.w.w.w.",
"l.l.z.z.z.z.z.z.z.z.l.i.w.q.` > v n n n n W.M.s.s.J.K.-Xa.W Y.5X5X5XD.W 5.K.D.s.s.s.~ R.n n n n g 1 ` t. .#.#.#.+.@.@.=.y.w.w.w.",
"l.l.l.l.l.z.z.z.z.z.f.w.q.` < v n n n n n Q.M.s.J.-X5X5X4X4X5X5X5X5X5X4X4X4X@XK.D.s.~ R.n n n n n j 1 ' ..S.k.S...+.+.#.y.i.f.l.",
"i.w.w.w.f.l.z.z.z.z.f.q.` < v n n n n n D ).H.K.Y.@X&X*X3X6X5X5X5X5X5X6X-X*X&X+XU.K.B.E v n n n n n j x 2.z.z.z.S...#.#.b.k.l.l.",
"w.w.w.w.w.f.l.l.z.z.x.<.> k n n n n n v 3.D.-X6Xa.u | 5 |.3X6X5X5X5X6X9X..^ ( a G.6X@X! > v n n n n b f 3 a.z.z.z.k.k.k.k.l.f.i.",
"i.i.w.w.w.w.w.f.l.z.d.0 @ + c v n n n o 3.-X5X0X0XXX;.5 ^ oX7X5X5X5X3XI.^ ^ ;.oX0X8X5X+XP O n n n v j O = r z.z.z.z.z.z.z.l.i.i.",
"l.l.f.w.w.w.w.w.f.l.l.a.7 % @ + c v v o U +X4X5X5X8XI.-.| P.*X6X6X6XoX;.[ [ oX8X5X5X>XU.G O v v j O : < w x.z.z.z.z.z.z.z.z.f.l.",
"z.z.l.i.w.w.w.w.w.i.i.w.0.7.7 % @ O d + o U +X4X5X5X4X;X,X,X4X9X1X3X4X,X;X;X4X5X5X>XU.F o d d O : & w d.x.l.l.z.z.z.z.z.z.z.z.z.",
"z.z.l.i.w.f.l.l.f.w.w.w.w.w.8.7.7 $ @ O O # U +X4X5X5X5X5X5X5XD.W U.5X5X5X5X5X5X>XU.G # O O = % w a.x.z.l.f.f.l.z.z.z.z.z.z.z.z.",
"z.z.z.f.f.l.z.z.l.l.f.w.w.w.w.w.8.9.8 $ $ $ * Q U.$X;X5X5X5X5X>X;X4X5X5X5X5X-X$XG.P & % % $ q 8.0.w.f.j.f.w.w.f.z.z.z.z.z.z.z.z.",
"z.z.z.z.l.z.z.z.z.l.l.l.l.l.l.l.l.l.a.8.8.8.6.e 1 1 H.$X$X$X$X$X$X$X$X$X$X$Xv.1 1 s 8.a.8.8.0.w.w.w.w.w.w.w.w.i.l.z.z.z.z.l.l.l.",
"l.l.l.l.l.l.l.l.l.f.w.w.i.u.u.u.u.u.w.w.w.w.w.8.6.<.9 - - - - - - - - - - - q <.6.0.w.j.w.w.w.w.w.w.w.w.w.w.w.i.l.l.l.l.l.f.w.w.",
"i.w.i.i.w.w.w.w.w.w.y.y.e.*.*.*.*.e.y.w.y.y.y.y.7.7 O O , z z , 2 h z x ; O @ q 8.w.w.w.w.w.w.f.L.L.w.w.w.w.w.w.w.w.w.w.w.w.w.w.",
"w.w.w.w.w.w.w.w.y.y.e.*.*.*.*.*.*.*.{ y.{ *.*.] 7 @ + h R R Z x 1 x A R S h + @ q 8.w.w.y.y.i.T.7X2Xh.w.w.w.w.w.w.w.w.w.w.w.w.w.",
"w.w.w.w.w.w.w.y.e.*.*.*.*.*.*.*.*.*.*.*.*.*.] 4 O d ; R }.R z P 5.K Z R }.A ; + @ q 8.y.e.*.I.;X5X8X2Xw.w.w.w.w.w.w.w.w.w.w.w.w.",
"w.w.w.w.w.y.y.{ *.*.*.*.*.*.*.*.*.*.*.*.*.=.4 O d d ; R R A x Q s.L x A R S ; d d @ t e.*.*.*.I.>X8X2Xw.w.w.w.y.y.y.w.w.w.w.w.w.",
"w.w.w.y.y.e.*.*.*.*.{ y.y.y.y.y.{ *.*.*.*.] < O d d ; z Z x U s.D.a.L z Z x ; d d O 9 } y.y.{ Z.Y.5X&Xw.w.w.y.e.*.e.y.w.w.w.y.y.",
"y.w.u.e.e.*.*.*.*.e.y.w.w.w.w.w.y.*.*.{ y.7 k v b g d ; , U s.@X;XY.a.L , ; d j b v h t w.w.y.p.U.4X&Xw.w.y.{ *.*.*.{ y.y.y.e.*.",
"e.y.y.y.y.y.y.y.y.y.w.w.w.w.w.w.y.e.e.y.6.< j n n b d o P s.@X4X5X>XY.a.w @ g n n n g e 8.y.0.p.Y.=Xk.w.y.e.*.*.*.*.*.*.*.*.*.*.",
"*.e.e.e.u.w.w.w.w.w.w.w.w.w.w.w.w.y.y.q.8 k n n n b : P s.@X>X5X5X5X>XY.5.r f b n n b l q } ) 1.-X+Xw.w.y.*.*.*.*.*.*.*.*.*.*.*.",
"y.y.y.y.w.w.w.w.y.y.y.y.y.w.w.y.y.y.w.8.< j n n n O P s.@X4X5X5X5X5X5X>XY.5.w f n n n g * s W a.4./ y.y.{ *.*.{ y.y.y.e.*.*.*.*.",
"w.w.w.w.w.w.w.y. .@.@.@. .t.t. .@. .t.8 k b n n n o Q @X4X5X5X5X5X5X5X5X>XY.F + n n n b : 0 5.,.a ] *.*.*.*.*.y.w.w.w.y.u.u.u.u.",
"w.w.w.w.w.y.y. .#.#.#.#.+.@.@.#.#.+. .< j n n n b : H.>X5X5X5X5X5X5X5X5X4X>Xv.f n n n n f 0 ,.a } *.*.*.*.*.e.y.w.w.w.w.w.w.w.w.",
"w.w.y.y.t. . ...S.k.k.S...#...S.S...%.< j n n n O N.;XY.-X5X5X4X4X5X5X5X@X@X-XY f n n n f * a 6.y.y.{ *.*.*.y.y.y.y.y.y.y.w.w.w.",
"i.y. . . ...S.k.z.z.z.z.k.k.k.z.z.k.0 @ v n n n o F.5XU.@X4X8X$XK.1X8X4XY.+X5Xv.+ n n n j # w w.w.w.y.*.*.*.*.*.*.*.*.*.e.y.y.y.",
"k.b...S.k.k.z.z.z.z.l.k.l.z.z.z.z.d.< O v n n n o F.5XU.>.Y.0XOXs.<X8XD.1.+X5Xv.+ n n n j X 8 0.w.w.y.*.*.*.*.*.V.V.V.V.V.e.e.e.",
"l.k.k.l.l.l.z.z.l.g.C.V.C.g.l.z.d.0 @ d v n n n o F.5X>X,..X0XA.y .X0XA.a.>X5Xv.+ n n n c + = t 0.w.y.*.V.V.V.C.g.k.k.k.k.k.k.k.",
"w.w.w.w.w.f.l.l.r.e.*.*.*.V.C.a.0 @ d c n n n n o F.5X5XK.,.%X2.6  XF.,.Y.5X5Xv.: n n n b j + = t 0.e.e.g.j.j.j.l.l.l.l.l.l.l.l.",
"w.w.w.w.w.w.i.w.u.y.y.y.e.*.} 9 @ j v n n n n O P #X5X5X;XD.,.y 6 u ,.U.>X5X5XU.D f n n n b j + = q 0.u.w.w.w.w.w.w.w.w.w.w.w.i.",
"w.w.w.w.w.w.w.w.w.w.w.w.0.6.9 k v n n n j v n X Q =X5X5X5X;XD.4.4.4.U.>X5X5X5X+XF + n v j n b v k = q q.q.w.w.w.w.w.w.w.w.w.w.i.",
"l.l.l.f.w.w.w.w.w.w.q.8.9 < k b n n n n v n n X Q =X5X5X5X5X;X-X-X-X>X5X5X5X5X+XF + n b b n n n n v l * q q.w.w.w.w.w.w.w.w.f.l.",
"z.z.z.l.f.w.w.w.w.8.8 < l j b n j b n n n n n X Q =X5X5X5X5X5X5X5X5X5X5X5X5X5X+XF + n n n n n v j n b j l * q w.w.w.w.w.w.f.l.z.",
"l.l.z.z.l.l.l.f.8.8 l j b n n n v n n k v n n X Q =X5X5X5X5X5X5X5X5X5X5X5X5X5X+XF + n n v j n b v n n n b j l q q.w.j.l.l.l.z.z.",
"i.i.f.l.z.z.z.a.9 k b n n n j b n n n v n n n X Q =X5X5X5X5X5X5X5X5X5X5X5X5X5X+XP g n n b v n n n v j n n n b l q q.w.f.l.l.z.l.",
"w.w.w.f.l.l.l.x.3.- o v n j v n n n j v n n n d 1 OX5X5X5X5X8X0X0X0X8X5X5X5X5XN.> j n n n v j n n b j j n j o < ` w.w.w.w.f.j.f.",
"w.w.w.w.i.i.i.w.q.) I - o + g b n j d v n n n g   F.5X5X5X5X#XOXOXOX-X5X5X5X5Xv.X j n n n c d j n v d O o 1 _ ` y.u.w.w.w.w.w.w.",
"w.w.w.w.w.w.w.w.w.w.0.) i -   d g d d g g g g d   2.-X5X5X@X,.u u u 5.=X5X5X=XP X d g g g d d d g +   1 _ 3.g.e.*.e.y.y.y.y.y.w.",
"y.y.y.y.y.y.y.y.w.w.w.w.0.) i -     O d d d d d   Q K.-X5Xa./ ) ) ) a K.5X=XJ.r X d d d d d O     > J ' V.V.V.*.*.*.*.*.*.*.e.y.",
"*.*.*.*.e.e.e.e.u.w.w.w.w.w.q.) i i -           q a 4.K.U.W ) *.*.e.a 1.U.J.,.p 4           1 H H ' *.*.*.*.*.*.*.*.*.*.*.*.*.*.",
"*.*.*.e.y.y.y.y.w.w.w.w.w.w.w.w.w.q.) i i i i i 7.u G.1X1X,.:.y.y.y./ A.1X1X5./ <.I J H H H ' *.*.*.*.*.*.*.*.*.*.*.*.*.*.*.*.*.",
"y.y.y.y.w.w.w.w.w.w.w.w.w.w.w.w.w.w.y.y.y.y.y.w.w.:.1.2.2.<.7.y.w.w.7.1.2.2.1.9.w.w.y.*.*.{ y.y.y.y.{ *.*.*.*.*.*.*.*.*.*.e.y.u.",
"w.w.w.w.w.w.w.w.w.w.w.w.w.w.w.w.y.t. .@.@.@. .y.w.q.<.I I %.@. .y.w.w.7.:.:.c.l.l.f.y.*.*.y.w.w.w.w.y.e.y.y.y.e.e.y.y.y.y.y.w.w.",
"w.w.w.w.w.w.w.w.w.w.w.w.w.w.w.y. .@.#.#.#.+.+. .t.t. .+.#.#.#.#. .y.w.w.f.l.z.z.z.l.i.V.*.y.w.w.w.w.w.u.w.w.w.y.y.w.w.w.w.w.w.i.",
"w.w.w.w.w.w.w.w.w.w.w.w.w.w.y. .+.#.S.k.S.#.+.+.@.@.+.#.S.k.k.S.#. .y.w.l.z.z.z.z.z.l.g.V.e.u.w.w.w.w.w.w.w.w.w.w.w.w.l.l.l.l.l."
};
