/* XPM */
static char *rcp02595644129544[] = {
/* columns rows colors chars-per-pixel */
"64 64 201 2 ",
"   c #1D152B",
".  c #261D2C",
"X  c #271A3C",
"o  c #291C3D",
"O  c #211733",
"+  c #26232E",
"@  c #2A252D",
"#  c #2D2A2C",
"$  c #2D2533",
"%  c #2C2833",
"&  c #242736",
"*  c #332C35",
"=  c #302733",
"-  c #2E3135",
";  c #2B373D",
":  c #363532",
">  c #3B3435",
",  c #383837",
"<  c #34323C",
"1  c #39333B",
"2  c #3A3838",
"3  c #332B2C",
"4  c #453D3D",
"5  c #40363D",
"6  c #3C463F",
"7  c #346929",
"8  c #6D621F",
"9  c #5A5524",
"0  c #444434",
"q  c #4D4538",
"w  c #635D24",
"e  c #4B7B36",
"r  c #736928",
"t  c #77732B",
"y  c #7D7C32",
"u  c #7C7432",
"i  c #6F6925",
"p  c #2B1D42",
"a  c #2E2047",
"s  c #31244C",
"d  c #342A4E",
"f  c #352A44",
"g  c #253440",
"h  c #3D3B43",
"j  c #362B53",
"k  c #382C57",
"l  c #3A2F5A",
"z  c #372555",
"x  c #3D315C",
"c  c #3F3162",
"v  c #403263",
"b  c #443469",
"n  c #4C3E62",
"m  c #51377E",
"M  c #443955",
"N  c #2B424E",
"B  c #3F4841",
"V  c #2D4451",
"C  c #355060",
"Z  c #3E616F",
"A  c #4A4443",
"S  c #474453",
"D  c #4E7A79",
"F  c #4D7976",
"G  c #5C7960",
"H  c #667E61",
"J  c #857A36",
"K  c #768334",
"L  c #5A8143",
"P  c #738744",
"I  c #7E9445",
"U  c #7C9249",
"Y  c #688954",
"T  c #6D965B",
"R  c #749A5A",
"E  c #759856",
"W  c #63804D",
"Q  c #59AF46",
"!  c #6BB04B",
"~  c #7FAB5E",
"^  c #7DA459",
"/  c #7ABF5E",
"(  c #6DBA53",
")  c #6E966F",
"_  c #749A6C",
"`  c #7A9A6E",
"'  c #77966D",
"]  c #679175",
"[  c #6B9472",
"{  c #719571",
"}  c #6F8A66",
"|  c #77A564",
" . c #78A663",
".. c #7BA962",
"X. c #7ABE60",
"o. c #8D843D",
"O. c #92894A",
"+. c #819646",
"@. c #849847",
"#. c #94934D",
"$. c #9A954F",
"%. c #968D52",
"&. c #988C56",
"*. c #999355",
"=. c #899247",
"-. c #A4984D",
";. c #AB9E52",
":. c #A39B5E",
">. c #AA9F5C",
",. c #A49956",
"<. c #85A24C",
"1. c #8BA549",
"2. c #8EA646",
"3. c #93AA48",
"4. c #95B44F",
"5. c #9AB64D",
"6. c #9CB94E",
"7. c #81AB5E",
"8. c #8AAE5C",
"9. c #8BAB57",
"0. c #97A856",
"q. c #8FB056",
"w. c #95B651",
"e. c #9AB751",
"r. c #9DB950",
"t. c #A0B94F",
"y. c #A3A553",
"u. c #ABA956",
"i. c #B4A65A",
"p. c #B4A95C",
"a. c #A3B950",
"s. c #AEB65B",
"d. c #A1BA56",
"f. c #B3BA56",
"g. c #B4B55D",
"h. c #BAB75A",
"j. c #B6B959",
"k. c #BDBA5A",
"l. c #B3B757",
"z. c #829E6B",
"x. c #8A9C67",
"c. c #A39169",
"v. c #AB9B63",
"b. c #82AA62",
"n. c #88AC61",
"m. c #90B66A",
"M. c #ADA466",
"N. c #B4AC61",
"B. c #BAAE61",
"V. c #B4A56A",
"C. c #ACB160",
"Z. c #BBB163",
"A. c #BCB266",
"S. c #BAAE70",
"D. c #C0B768",
"F. c #C3BA6B",
"G. c #C5BB71",
"H. c #A5C059",
"J. c #AEC767",
"K. c #91D36D",
"L. c #CCC574",
"P. c #553984",
"I. c #583B89",
"U. c #5F408D",
"Y. c #5F4094",
"T. c #674B8C",
"R. c #75598C",
"E. c #604195",
"W. c #6D4F92",
"Q. c #64429B",
"!. c #6D5997",
"~. c #6C519D",
"^. c #755996",
"/. c #6F5486",
"(. c #6945A3",
"). c #83688C",
"_. c #C9CB8A",
"`. c #D7D98E",
"'. c #DADB8A",
"]. c #CECC99",
"[. c #DEE28C",
"{. c #DDE195",
"}. c #DFE799",
"|. c #E2E38D",
" X c #E1E495",
".X c #E4ED94",
"XX c #EAEC95",
"oX c #EBED9B",
"OX c #EDF29A",
"+X c #E7F69A",
"@X c #F1F49B",
"#X c #DCDBA7",
"$X c #D9E6AC",
"%X c #DCF2AF",
"&X c #F6FCA4",
"*X c #FAFFA5",
"=X c #F9FEAA",
"-X c #E9ECB6",
";X c #F4F5BD",
":X c #E6EFAE",
">X c #F5F7C2",
/* pixels */
"6.6.6.6.q.[ ] ] ] [ q.q.[ ] ] ] { g.k.k.k.k.g.` { ] ` g.k.k.k.k.k.g.z.e.k.k.k.k.k.k.k.k.h.6.6.6.6.6.6.6.6.a.k.k.k.k.k.k.k.k.k.h.",
"w.w.6.w._ ] { { ] ] [ [ ] { { ] { C.k.k.k.k.k.g.C.z.C.k.k.k.k.k.k.k.g.h.k.k.k.k.k.k.k.k.h.a.6.6.6.6.6.j.h.h.k.k.k.k.k.k.k.k.h.a.",
"[ _ 8._ ] ` C.C.` ] ] ] ` C.C.` { ` g.k.k.k.k.k.k.g.k.k.k.k.k.k.k.k.k.k.k.k.k.k.k.k.k.k.k.h.j.t.6.6.6.j.h.h.h.h.h.h.h.h.h.a.6.w.",
"] { _ ] { C.k.k.C.` { ` C.k.k.g.C.z.g.B.k.k.k.k.k.k.k.k.k.k.k.h.h.h.k.k.k.k.k.j.h.k.k.k.k.k.N.t.6.6.6.6.t.6.6.t.6.6.6.6.t.6.w._ ",
"` C.C.` ` g.k.k.k.g.g.g.k.k.k.k.k.g.:.).M.g.g.g.j.k.k.k.k.h.a.t.6.a.j.k.k.k.g.n.n.g.k.k.k.M.).:.j.j.a.6.6.6.6.6.6.6.6.6.r.w.q.[ ",
"g.k.k.g.g.h.h.h.k.k.k.k.k.h.h.h.h.u.4 U.^.z.b.b.n.g.h.h.h.a.6.6.6.6.a.j.j.s.b.....n.j.k.M.^.U.4 u.h.f.6.6.6.6.6.6.6.a.j.g.z._ { ",
"k.k.k.k.j.a.6.a.j.k.k.k.j.a.6.r.r.#.= c E.!.{  ...b.r.a.f.6.6.6.6.w.w.w.b.b.......b.g.M.^.E.c = @.5.6.6.6.6.6.6.a.j.h.k.k.g.g.g.",
"k.k.h.j.a.6.6.6.a.h.k.h.a.6.w.7.R < d l b Q.!.{  .7.w.6.6.6.6.6.w.7.................x.^.Q.b l d > 1.6.6.6.6.a.j.h.h.h.h.k.k.k.k.",
"h.j.a.6.6.6.6.6.6.j.h.h.6.w.7...T % j l c Y.(.!.' q.w.w.w.6.6.w.~ .............. .{ !.(.Y.c l j % 1.6.6.6.a.j.k.j.a.6.a.j.k.k.k.",
"6.6.6.6.6.6.6.6.6.6.a.f.e.w...| Y $ j l l b E.(.!.' ....7.w.w.~ ........~ w.w.7.' !.(.E.b l l j % I 5.6.f.j.h.j.a.6.6.6.a.j.h.h.",
"6.6.6.6.6.6.w.w.w.w.w.w.7.....T - o k l l l b Q.(.!.{ _ _ ` ` _ _ _ _ ` 9.0.0.x.^.(.Q.b l l l k o : 1.6.6.6.6.6.6.6.6.6.6.6.6.6.",
"6.6.6.6.6.e.7.7.7.............E @ p k l l l c Y.(.(.~.~.~.~.~.~.~.~.~.~.~.~.~.~.(.(.Y.c l l l k p @ 1.6.6.6.w.w.w.6.6.6.6.6.6.6.",
"6.6.6.6.6.6.w.w.w.7...........<.@ p k l l l l b Q.(.Q.Q.Q.Q.Q.Q.Q.Q.Q.Q.Q.Q.Q.Q.(.Q.b l l l l k p @ 1.6.6.w.~ ..7.w.6.6.6.6.6.6.",
"6.6.6.6.6.6.6.6.6.w.w.w.7...7.<.@ p k l l k l b Y.Y.b v v v v v v v v v v v v b Y.Y.b l l l l k p @ 1.6.w.~ ......7.w.6.6.6.6.6.",
"6.6.6.6.6.a.j.j.a.6.6.6.e.e.r.1.@ p k l k z l P.b c l l l l l l l l l l l l l l c b P.c k l l k p @ <.w.~ ..........w.6.6.6.6.6.",
"6.6.6.6.a.j.k.k.j.a.6.6.a.j.h.y.@ X p j z P.c c l l l l l l l l l l l l l l l l l l c l z k l k p + R ..............w.w.w.6.6.6.",
"w.w.a.j.h.k.k.k.k.h.h.h.h.k.k.u.@ X p s P.b l l l l l l l l l l l l l l l l l l l l l c P.z j p X + T ..................7.w.w.w.",
"7.8.l.h.k.k.k.k.k.k.k.k.k.k.k.y.: X p z I.c l l l l l l c v v v v v v v v c l l l l l l b P.s p X - T ..........................",
"w.e.6.t.a.h.k.k.k.k.k.k.h.j.s.b.Y + p m b l l l l l c b T.W.W.W.W.W.W.W.W.T.b c l l l l c I.z X + Y |  .........................",
"6.6.t.t.t.a.h.k.k.k.k.j.t.8.7.7.<.+ O l l l l l c b T.R.c.v.v.v.v.v.v.v.v.c.R.T.b c l l l b m X + R ......| | | |  .....~ w.w.w.",
"6.a.j.h.h.h.k.k.k.k.h.a.6.w.w.4.I % d l l l l b T.R.c.v.i.i.i.i.i.i.i.i.i.i.v.c.R.T.b l l l c j $ U w.w.8.) [ [ [ | | ..w.6.6.6.",
"h.h.k.k.k.k.k.k.k.k.h.t.6.6.6.1.: d l l l l b /.c.v.i.p.B.;.;.B.Z.Z.B.;.;.i.i.i.v.c./.b l l l l d < <.q._ { { { ] [ [  .w.6.6.6.",
"h.h.h.h.h.k.k.k.k.k.a.6.6.6.5.I % k l l l c T.c.i.p.Z.F.'.o.o.|.@X@X|.o.J p.Z.p.i.i.c.T.c l l l k & G ) ` C.g.C.` ] ] ) w.r.a.j.",
"6.6.6.6.a.j.k.k.k.k.a.6.6.5.+., d l l l l v W.v.p.F.XX@X&XXXXX&X=X=X&XXXXX@XXXF.Z.p.v.W.v l l l l j < H s.k.k.k.C.` { { z.g.h.h.",
"6.6.6.6.6.a.j.h.k.k.j.a.l.$.2 d l l l l x n R.V.D.'..X+X.X=X=X=X=X=X=X=X&X.X.X[.'.D.V.R.x l l l l l j 2 $.h.k.k.k.g.g.g.g.h.a.6.",
"6.6.6.6.6.6.6.a.j.k.k.h.$.2 d l l l l l M &.S.XX XO.K ! L $X=X=X=X=X=X=X$XL ! K O. XXXv.5 j l l l l l d 2 $.h.k.k.k.k.k.k.h.t.6.",
"h.j.a.6.6.6.6.6.a.j.h.u.0 o p k k l l k = >.XX=X>X$XX.Q 7 X.%X=X=X=X=X%X/ 7 Q / $X>X=XXX*.$ k l l k k p o q u.k.k.k.k.k.k.k.a.h.",
"k.k.h.t.6.6.6.6.6.6.6.5.+.: @ o p k k j $ &.XX*X=X=X%X/ e ( K.+X=X=X+XK.( e / %X=X=X=XXX&.$ j k k p o $ > $.h.k.k.k.k.k.k.k.k.k.",
"k.k.h.6.6.a.j.j.a.6.6.6.5.1.I : @ o p p X > :.XX*X=X=X+X.X+X+X&X-X-X&X+X+X.X+X=X=X*XXX:.> X p p o $ > $.y.t.a.j.k.k.k.k.k.k.k.k.",
"k.k.h.a.a.j.k.k.h.j.a.6.6.6.5.3.+.: @ X X X > :.XX*X=X=X=X=X=XoX#.#.oX=X=X=X=X=X*XXX:.> X X X @ : +.3.l.a.6.6.a.h.k.k.k.k.k.k.k.",
"k.k.k.h.h.k.k.k.k.h.j.j.j.j.j.j.l.y.#.: @ @ @ 0 :.`. X&X=X=X=X&XXXXX&X=X=X=X&X X`.:.0 # @ @ : I 1.5.6.6.6.6.6.6.h.k.k.k.k.h.h.h.",
"h.h.h.h.h.h.h.h.j.a.6.6.r.e.e.e.e.e.5.1.1.1.1.+.0 * q _.{.{.{.{.{.{.{.{.{.{._.q * 0 @.0.1.1.1.d.H.r.6.6.6.6.6.6.j.h.h.h.j.a.6.6.",
"6.6.t.t.6.6.6.6.6.6.w.w.7.........7.w.6.w.w.w.4.P +   * h h 1 > 4 4 > 1 h S h   + P 4.6.6.r.J.:X:XJ.6.6.6.6.6.6.6.6.6.6.6.6.6.6.",
"6.6.6.6.6.6.6.6.w.w.7...............~ w.~ ..~ Y : X X ; F D C ; O.O.; C D D g X X : +.5.w.d.:X=X=X.XH.6.6.6.6.6.6.6.6.6.6.6.6.6.",
"6.6.6.6.6.6.6.w.7...........................T - X p o g D Z V B ,.,.B V Z D g o p X : <.7.m.}.=X*X.XH.6.6.6.6.6.6.6.6.6.6.6.6.6.",
"6.6.6.6.6.w.w.~ ..........................| Y & p p p & V N B %.B.B.%.B N V & p p p % Y ~ ..m.OXXXZ.5.6.6.6.6.w.w.w.6.6.6.6.6.6.",
"6.6.6.w.w.7.........~ w.w.w.w.w.~ ........R < d k k p o & 6 %.D.XXXXD.%.6 & o p k k d < <.w.m.[.Z.t 3.6.6.6.w.7...7.w.6.6.6.w.w.",
"w.6.e.7.7.........7.w.6.6.6.6.6.w.....~ w.U % k l l k o > %.D.XX*X*XXXD.%.> o k l l k % I 5.e.B.-.t 3.6.6.w.~ ......~ w.w.w.7...",
"7.w.w.w.w.w.w.w.w.w.6.6.6.6.6.6.w.7.7.w.1.: d l l l d > %.D.XX*X=X=X*XXXD.%.> d l l l d : @.u.;.t 2.5.6.w.7.....................",
"..7.7.7.e.6.6.6.6.6.6.6.6.6.6.6.6.w.w.5.I % k l l k $ O.D.XX=X=X=X=X=X*XXXD.%.$ k l l k . 9 ;.-.t 2.6.6.w.......................",
"w.w.w.w.6.6.6.6.w.w.w.w.w.6.6.w.w.w.6.1.: d l l l j = M.XX*X=X=X=X=X=X=X*XXXM.= j l l l d 3 O.u E ~ w.w.~ ....~ w.w.w.7.........",
"6.6.6.6.6.6.6.w._ [ [ [ _ q.q._ [ _ w.1.% j l l l j A '.@X*X=X=X=X=X=X=X*X@X'.A j l l l j . w E  .............w.6.6.6.e.w.w.e.w.",
"6.6.6.6.6.w.q._ { { { { ] [ [ { { ] _ U $ j l l k 1 _.OXL.@X=X=X@X@X=X=X@XL.OX_.1 k l l j . 9 R ............7.w.6.6.6.6.6.6.6.6.",
"6.6.w.w.q._ _ ` C.g.g.C.` { ` C.C.` } > o k l l j 1 {.@XF.|.=X;XG.G.;X=X|.F.@X{.1 j l l k o # <.w.w.~ ......w.w.w.w.w.w.w.6.6.6.",
"r.w._ _ _ ` C.g.k.k.k.k.g.g.g.k.k.g.%.$ p k l l j 1 {.@XZ.o.oX;XN.N.;XoXo.Z.@X{.1 j l l k p @ I 5.6.w...................7.w.w.w.",
"g.z.` C.g.g.k.k.k.k.j.g.j.k.k.k.k.u.2 X p k l l j 1 {.*X|.o.#X-Xu u -X#Xo.|.*X{.1 j l l k p X : 1.6.w...........b.b.b.b.b.7.7.7.",
"h.g.g.h.h.h.k.k.j.s.n.b.n.s.j.k.h.*.f p k l l l d 4  X=X@Xp.O.].r r ].O.p.@X=X X4 d l l l k p f +.5.w...b.b.b.n.s.g.g.g.g.g.g.g.",
"6.6.6.6.6.a.j.j.8.7.......b.n.s.#.1 j k l k l k $ *.OX=X*XXXp.J 8 8 J p.XX*X=XOX*.$ k l k l k a : 1.7.7.s.l.l.l.h.h.h.h.h.h.h.h.",
"6.6.6.6.6.6.6.6.e.w.w.w.7.....R < d l l k s k j $ >.@X=X=X*XXXZ.i.i.Z.XX*X=X=X@X>.$ j k s k l j % I 4.e.6.6.6.6.6.6.6.6.6.6.6.t.",
"6.6.6.6.6.6.6.6.6.6.6.6.w.w.4.U $ j l l l k l j $ >.@X=X=X=X*X@X@X@X@X*X=X=X=X@X>.$ j l k l l l d , +.5.6.6.6.6.6.6.6.6.6.6.6.6.",
"h.h.j.a.6.6.6.6.6.6.6.6.6.5.+., d s k l k l l j $ >.@X=X=X=X=X=X=X=X=X=X=X=X=X@X>.$ j l l k l k s d , +.5.6.6.6.6.6.6.6.6.6.a.h.",
"k.k.k.j.a.6.6.6.6.6.6.w.4.I , d l k l k s k l j $ >.@X=X=X=X=X=X=X=X=X=X=X=X=X@X>.= j l k s k l k l d , +.5.6.6.6.6.6.6.6.a.h.k.",
"h.h.h.k.h.h.j.a.6.6.e.7.Y < s s k l l k k l l j $ *.OX=X=X=X=X=X=X=X=X=X*X*X=XOX*.f k l l k k l l k s s , +.5.6.6.6.f.j.h.h.k.k.",
"t.6.a.j.k.k.k.j.a.6.6.1.0 f a j l l k a k l l k o 4  X=X=X=X=X;X;X;X;X=X*X*X=X X4 p k l l k a k l l j a f 0 2.6.6.6.6.a.j.h.k.h.",
"6.6.6.a.j.h.h.h.f.6.6.5.+.: X p k k p p k k k k X * `.*X=X*XXXF.A.A.F.XX*X=X*X`.* p k k k k p p k k p X : +.5.6.6.6.6.6.6.a.f.a.",
"6.6.6.6.6.6.6.6.6.6.6.6.5.+.: @ o p X p p p p p X @ :.XX*X@XF.;.;.;.;.D.XX@XXXM.@ X p p p p p X p o @ : @.5.6.e.w.w.6.6.6.6.6.6.",
"6.6.6.6.6.6.6.6.6.6.6.6.6.5.1.I : @ @ X X X X X X 3 r i.|.|.i.t i i r -.F.F.Z.$.: X X X X X X % @ > #.y.s.l.s.7...~ w.w.w.w.w.6.",
"w.w.w.w.w.w.w.w.6.6.6.6.6.6.6.5.1.1.I : @ @ @ @ : I 2.t t y 3.^ R E 8 o. XoXA.t W - + + + + - Y R R b.b.b.b.b...............7.w.",
"........7.7.7.7.e.6.6.6.6.6.6.6.6.6.5.1.1.1.1.1.1.5.5.3.<.^ 7...~ ^ y ].>X>X].y R R T T T T T | ................................",
"......7.w.w.w.w.6.6.6.6.6.6.6.6.6.6.6.6.6.6.6.6.6.6.6.6.w.w.w.w.4.4.2.=.'.'.=.2.4.w.~ ..........................................",
"w.w.w.w.6.6.6.6.6.6.6.6.6.6.6.6.6.6.w.w.w.w.w.6.6.6.6.w.w.w.w.w.6.6.5.2.y y 3.5.6.6.w.....~ w.w.w.w.~ ....................7.w.w.",
"6.6.6.6.6.6.6.6.6.6.6.6.6.6.6.6.w.q._ [ [ [ _ w.6.6.w._ [ [ [ _ w.6.6.5.3.3.j.h.j.a.w.....w.6.6.6.6.w.7.w.w.w.7.7.w.w.w.w.w.6.6.",
"6.6.6.6.6.6.6.6.6.6.6.6.6.6.6.w._ [ { { { ] ] _ q.q._ ] { { { { _ w.6.6.a.j.k.k.k.j.r.b...w.6.6.6.6.6.e.6.6.6.w.w.6.6.6.6.6.6.t.",
"6.6.6.6.6.6.6.6.6.6.6.6.6.6.w._ ] { C.g.C.{ ] ] [ [ ] { C.g.g.C.{ _ w.6.j.k.k.k.k.k.h.s.b.7.w.6.6.6.6.6.6.6.6.6.6.6.6.j.h.h.h.h."
};
