/* XPM */
static char *rcp03000097272425[] = {
/* columns rows colors chars-per-pixel */
"64 64 196 2 ",
"   c #271A3C",
".  c #291C3D",
"X  c #211733",
"o  c #271E2E",
"O  c #1D2936",
"+  c #26232F",
"@  c #2A252D",
"#  c #2D2533",
"$  c #2D2833",
"%  c #242735",
"&  c #332C37",
"*  c #302733",
"=  c #2E3135",
"-  c #29363E",
";  c #353432",
":  c #3B3434",
">  c #35323B",
",  c #38313B",
"<  c #3B3938",
"1  c #322B2D",
"2  c #443C3E",
"3  c #3C463F",
"4  c #346929",
"5  c #6F621F",
"6  c #454535",
"7  c #474338",
"8  c #5A5424",
"9  c #4B7B36",
"0  c #736C28",
"q  c #79722C",
"w  c #7E7C34",
"e  c #7B7633",
"r  c #6F6A26",
"t  c #2B1D42",
"y  c #2F2149",
"u  c #31234C",
"i  c #342A4E",
"p  c #392B43",
"a  c #273846",
"s  c #362B54",
"d  c #382C57",
"f  c #3A2F5A",
"g  c #372555",
"h  c #3D315C",
"j  c #3F3162",
"k  c #403263",
"l  c #443469",
"z  c #4C3E62",
"x  c #51377E",
"c  c #443955",
"v  c #2B424E",
"b  c #3F4841",
"n  c #314042",
"m  c #2D4451",
"M  c #3B5B6B",
"N  c #3E616F",
"B  c #514E45",
"V  c #4D7B79",
"C  c #5D7B61",
"Z  c #837B35",
"A  c #778638",
"S  c #5A8143",
"D  c #748845",
"F  c #7E9445",
"G  c #78944C",
"H  c #678855",
"J  c #6D965B",
"K  c #759B59",
"L  c #759856",
"P  c #6C8650",
"I  c #59AF46",
"U  c #7CA75F",
"Y  c #7FAB5E",
"T  c #7ABF5E",
"R  c #6CB54F",
"E  c #6E966F",
"W  c #74996C",
"Q  c #7A9A6E",
"!  c #7A986A",
"~  c #679175",
"^  c #6B9472",
"/  c #719571",
"(  c #6B8E66",
")  c #77A564",
"_  c #79A663",
"`  c #7BA962",
"'  c #7ABE60",
"]  c #8D853D",
"[  c #81823A",
"{  c #948B49",
"}  c #819646",
"|  c #889B4C",
" . c #94934C",
".. c #9A934F",
"X. c #958C52",
"o. c #988C56",
"O. c #8F9454",
"+. c #9B9552",
"@. c #9A9257",
"#. c #AA9F5C",
"$. c #A69B59",
"%. c #A4974D",
"&. c #8BA549",
"*. c #89A44A",
"=. c #93AA49",
"-. c #95B44F",
";. c #9AB64D",
":. c #9CB94E",
">. c #8EAF56",
",. c #8FA75D",
"<. c #81AB5E",
"1. c #8AAE5C",
"2. c #8FB056",
"3. c #95B651",
"4. c #9BB751",
"5. c #9DB950",
"6. c #A0B94F",
"7. c #AAA654",
"8. c #A8A855",
"9. c #B4A65A",
"0. c #B5AA5C",
"q. c #A3B950",
"w. c #AEB55C",
"e. c #A2B752",
"r. c #B3BA56",
"t. c #B4B55D",
"y. c #BBB75A",
"u. c #B7BA59",
"i. c #BDBA5A",
"p. c #B1B756",
"a. c #819E6B",
"s. c #889D64",
"d. c #9D9960",
"f. c #A39169",
"g. c #AB9B63",
"h. c #82AA62",
"j. c #88AC61",
"k. c #92B869",
"l. c #AFA662",
"z. c #ABA26A",
"x. c #B4AA61",
"c. c #BAAE61",
"v. c #B4A56A",
"b. c #ACB160",
"n. c #BBB163",
"m. c #BBB668",
"M. c #BAAE70",
"N. c #C0B768",
"B. c #C3B969",
"V. c #C5BB71",
"C. c #A6C15B",
"Z. c #AAC45B",
"A. c #9BCF6C",
"S. c #CCC574",
"D. c #553984",
"F. c #583B89",
"G. c #5F408D",
"H. c #5F4094",
"J. c #674B8C",
"K. c #75598C",
"L. c #6D4F92",
"P. c #64429B",
"I. c #614195",
"U. c #6E5997",
"Y. c #6C519C",
"T. c #765996",
"R. c #6F5486",
"E. c #6945A3",
"W. c #82688C",
"Q. c #558885",
"!. c #C9CC89",
"~. c #D7D98E",
"^. c #DADB88",
"/. c #D1CF9B",
"(. c #CBC897",
"). c #DCE48B",
"_. c #DDE195",
"`. c #E2E38D",
"'. c #E1E495",
"]. c #E4ED95",
"[. c #EAEC95",
"{. c #EBEE9C",
"}. c #EDF39B",
"|. c #E7F69A",
" X c #F1F49B",
".X c #DCDBA7",
"XX c #E0DFAE",
"oX c #D9E6AC",
"OX c #DCF2AF",
"+X c #F6FCA4",
"@X c #FAFFA5",
"#X c #F9FEAA",
"$X c #E9EBB7",
"%X c #F3F5BC",
"&X c #E7EFAE",
"*X c #F5F6C1",
/* pixels */
":.:.:.:.2.^ ~ ~ ~ ^ >.>.^ ~ ~ ~ / t.i.i.i.i.t.Q / ~ Q t.i.i.i.i.i.t.a.4.y.i.i.i.i.i.i.i.y.:.:.:.:.:.:.:.:.q.i.i.i.i.i.i.i.i.i.y.",
"3.3.:.3.W ~ / / ~ ~ ^ ^ ~ / / ~ / b.i.i.i.i.i.t.b.a.b.i.i.i.i.i.i.i.t.y.i.i.i.i.i.i.i.i.y.q.:.:.:.:.:.u.y.y.i.i.i.i.i.i.i.i.u.q.",
"^ W 1.W ~ Q b.b.Q ~ ~ ~ Q b.b.Q / Q t.c.i.i.i.i.i.t.i.i.i.i.i.i.i.i.i.i.i.i.i.i.i.i.i.i.i.y.w.5.:.:.:.u.y.y.y.y.y.y.y.y.y.q.:.3.",
"~ / W ~ / b.i.i.b.Q / Q b.i.i.t.b.a.d.W.z.i.i.i.i.i.i.i.i.i.i.y.y.y.i.i.i.i.i.y.y.i.i.i.i.z.W.O.;.:.:.:.6.:.:.:.:.:.:.:.6.:.3.W ",
"Q b.b.Q Q t.i.i.i.t.t.t.i.i.i.i.i.8.2 G.T.z.t.u.u.i.i.i.i.y.q.6.:.q.u.i.i.i.t.j.j.t.i.i.z.T.G.2 8.u.q.:.:.:.:.:.:.:.:.:.5.3.>.^ ",
"t.i.i.t.t.y.y.y.i.i.i.i.i.y.y.y.y...& j I.U.Q h.j.t.y.y.y.q.:.:.:.:.q.u.u.w.j.` ` j.t.z.T.I.j & ..u.r.:.:.:.:.:.:.:.q.u.t.a.W / ",
"i.i.i.i.u.q.:.q.u.i.i.i.u.q.:.5.&.: i f l P.U./ _ h.5.q.r.:.:.:.:.3.3.3.h.h.` ` ` h.z.T.P.l f i < =.:.:.:.:.:.:.q.u.y.i.i.t.t.t.",
"i.i.y.u.q.:.:.:.q.y.i.y.q.:.3.<.J # s f j H.E.U./ <.3.:.:.:.:.:.3.<.` ` ` ` ` ` _ Q T.E.H.j f s $ &.:.:.:.:.q.y.y.y.y.y.i.i.i.i.",
"y.u.q.:.:.:.:.:.:.u.y.y.:.3.Y _ H # s f f l I.E.U.s.3.3.3.:.:.3.Y ` ` ` ` ` ` _ / U.E.I.l f f s # F ;.:.:.q.u.i.u.q.:.q.u.i.i.i.",
":.:.:.:.:.:.:.:.:.:.q.r.4.3.` J = . d f f f l P.E.U.Q ! ! ,.,.! W W W W ! ,.,.Q U.E.P.l f f f d . ; &.:.r.u.y.u.q.:.:.:.q.u.y.y.",
":.:.:.:.:.:.3.3.3.3.3.3.<.` ` J + t d f f f j H.E.E.Y.Y.Y.Y.Y.Y.Y.Y.Y.Y.Y.Y.Y.Y.E.E.H.j f f f d t @ &.:.:.:.:.:.:.:.:.:.:.:.:.:.",
":.:.:.:.:.4.<.<.<.` ` ` ` ` ` L @ t d f f f f l P.E.P.P.P.P.P.P.P.P.P.P.P.P.P.P.E.P.l f f f f d t @ &.:.:.:.3.3.3.:.:.:.:.:.:.:.",
":.:.:.:.:.:.3.3.3.<.` ` ` ` ` *.@ t d f f d f l H.H.l k k k k k k k k k k k k l H.H.l f f f f d t @ &.:.:.3.<.` <.3.:.:.:.:.:.:.",
":.:.:.:.:.:.:.:.:.3.3.3.<.` <.*.@ t d f d g f F.l j f f f f f f f f f f f f f f j l F.j d f f d t @ &.:.3.Y ` ` ` <.3.:.:.:.:.:.",
":.:.:.:.:.q.u.u.q.:.:.:.4.4.5.&.@   t s g D.j j f f f f f f f f f f f f f f f f f f j f g d f d t @ *.3.Y ` ` ` ` ` 3.:.:.:.:.:.",
":.:.:.:.q.u.i.i.u.q.:.:.q.u.y.7.@   t u F.l f f f f f f f f f f f f f f f f f f f f f j D.g s t   + J ` ` ` ` ` ` ` 3.3.3.:.:.:.",
"3.3.q.u.y.i.i.i.i.y.y.y.y.i.i.7.:   t g F.j f f f f f f j k k k k k k k k j f f f f f f l F.u t   = J ` ` ` ` ` ` ` ` ` <.3.3.3.",
"<.1.p.y.i.i.i.i.i.i.i.i.i.i.i.w.P + t x l f f f f f j l J.L.L.L.L.L.L.L.L.J.l j f f f f j F.g   + H _ ` ` ` ` ` ` ` ` ` ` ` ` ` ",
"3.4.:.6.q.y.i.i.i.i.i.i.y.u.w.h.J + X f f f f f j l J.K.f.g.g.g.g.g.g.g.g.f.K.J.l j f f f l x   + J _ _ ` ` ` ` ` ` ` ` ` ` ` ` ",
":.:.:.6.6.q.y.i.i.i.i.y.e.1.<.Y G $ i f f f f l J.K.f.g.9.9.9.9.9.9.9.9.9.9.g.f.K.J.l f f f j s # H _ ` ` ) ) ) ) _ ` ` Y 3.3.3.",
":.q.u.y.y.y.i.i.i.i.y.q.:.3.3.&.; i f f f f l R.f.g.9.0.c.#.#.c.n.n.c.#.$.9.9.9.g.f.R.l f f f f i ; *.3.>.E ^ ^ ^ ) ) ` 3.:.:.:.",
"y.y.i.i.i.i.i.i.i.i.y.:.:.:.;.F $ d f f f j J.f.9.0.n.B.^.] ] `. X X`.] Z 0.n.0.9.9.f.J.j f f f d # G >.W / / / ~ ^ ^ _ 3.:.:.:.",
"y.y.y.y.y.i.i.i.i.i.q.:.:.;.} < i f f f f k L.g.0.B.[. X+X[.[.+X@X@X+X[.[. X[.B.n.0.g.L.k f f f f s > C Q b.t.b.Q ~ ~ E 3.5.q.u.",
":.:.:.:.q.u.i.i.i.i.q.:.;.} < i f f f f h z K.v.N.^.].|.].+X@X@X@X@X@X@X+X].|.).^.N.v.K.h f f f f f s > O.y.i.i.b.Q / / a.t.y.y.",
":.:.:.:.:.q.u.y.i.i.u.e. .: i f f f f f c o.M.[.'.{ A R S oX#X@X@X@X@X#XoXS R A { '.[.g.2 s f f f f f i : +.y.i.i.t.t.t.t.y.q.:.",
":.:.:.:.:.:.:.q.u.i.i.8.7 . t d d f f d & #.[.#X*XoX' I 4 ' OX#X@X@X#XOX' 4 I ' oX*X#X[.@.$ d f f d d t . 7 8.i.i.i.i.i.i.y.6.:.",
"y.u.q.:.:.:.:.:.q.u.y.p.| ; @ . t d d s # o.[.@X#X#XOXT 9 R A.|.#X#X|.A.R 9 T OX#X#X@X[.o.# s d d t . # : +.y.i.i.i.i.i.i.i.q.u.",
"i.i.y.6.:.:.:.:.:.:.:.:.;.&.F ; @ . t t   : $.[.@X@X#X|.].|.|.+X$X$X+X|.|.].|.#X@X@X[.$.:   t t . # : ..7.y.y.i.i.i.i.i.i.i.i.i.",
"i.i.y.:.:.q.u.u.q.:.:.:.:.:.;.&.F ; @       : $.[.@X@X@X@X@X@X{. . .{.@X@X@X@X@X@X[.$.:       @ ;  .8.y.y.q.q.y.i.i.i.i.i.i.i.i.",
"i.i.y.q.q.u.i.i.y.u.q.:.:.:.:.:.;.=.} ; @ @ @ 6 $.~.'.+X@X@X@X+X[.[.+X@X@X@X+X'.~.$.6 @ @ @ ; F &.;.q.r.q.:.:.q.y.i.i.i.i.i.i.i.",
"i.i.i.y.y.i.i.i.i.y.u.u.u.u.u.u.u.u.p.&.&.&.&.} 6 7 B !._._._._._._._._._._.!.B 7 6 } 8.=.&.&.;.:.:.:.:.:.:.:.:.y.i.i.i.i.y.y.y.",
"y.y.y.y.y.y.y.y.u.q.:.:.5.4.4.4.4.4.:.:.:.:.:.;.&.*.D < & > > > > > < > > & < D *.&.;.r.:.:.:.:.:.:.:.:.:.:.:.:.u.y.y.y.u.q.:.:.",
":.:.:.6.:.:.:.:.:.:.3.3.<.` ` ` ` <.3.:.3.3.3.3.;.} ;   . - a a O O a a - .   ; } ;.:.:.:.:.:.:.C.C.5.:.:.:.:.:.:.:.:.:.:.:.:.:.",
":.:.:.:.:.:.:.:.3.3.<.` ` ` ` ` ` ` Y 3.<.` ` Y G ;   . a V M v - - v M V a .   ; } ;.:.3.3.4.Z.|.&XZ.5.:.:.:.:.:.:.:.:.:.:.:.:.",
":.:.:.:.:.:.:.3.<.` ` ` ` ` ` ` ` ` ` ` ` ` _ H ;   . a V Q.M n X.X.n M Q.V a .   ; } 3.<.` j.).+X#X&XC.:.:.:.:.:.:.:.:.:.:.:.:.",
":.:.:.:.:.3.3.Y ` ` ` ` ` ` ` ` ` ` ` ` ` ` J =   t . a V N m b $.$.b m N V a . t   ; K ` ` ` k.[.#X%XC.:.:.:.3.3.3.:.:.:.:.:.:.",
":.:.:.3.3.<.` ` ` ` Y 3.3.3.3.3.Y ` ` ` ` U H % t t t % m v b o.c.c.o.b v m % t t t # H 3.3.Y h.m. X}.C.:.:.3.<.` <.3.:.:.:.3.3.",
"3.:.4.<.<.` ` ` ` <.3.:.:.:.:.:.3.` ` Y 3.&.; i d d t . % 3 o.N.[.[.m.o.3 % . t d d i ; &.:.3.<.n. X].C.:.3.Y ` ` ` Y 3.3.3.<.` ",
"<.3.3.3.3.3.3.3.3.3.:.:.:.:.:.:.3.<.<.3.;.F $ d f f d . : X.N.[.@X@X[.N.X.: . d f f d $ F -.-.=.m.[.m.5.3.<.` ` ` ` ` ` ` ` ` ` ",
"` <.<.<.4.:.:.:.:.:.:.:.:.:.:.:.:.3.3.:.&.; i f f f i : X.N.[.@X@X@X@X[.N.X.: i f f f i ; G G [ ^.).q.:.3.` ` ` ` ` ` ` ` ` ` ` ",
"3.3.3.3.:.:.:.:.3.3.3.3.3.:.:.3.3.3.:.;.F $ d f f d $ X.N.[.@X@X@X@X@X@X[.N.X.$ d f f d o 8 0 %.7.[ =.3.Y ` ` Y 3.3.3.<.` ` ` ` ",
":.:.:.:.:.:.:.3.W ^ ^ ^ W 2.2.W ^ W 3.&.: i f f f s * l.[.@X@X@X@X@X@X@X@X[.l.* s f f f i 1 { %.e L Y ` ` ` ` 3.:.:.:.4.3.3.3.3.",
":.:.:.:.:.3.2.W / / / / ~ ^ ^ / / ~ W | $ s f f f s B ~. X@X@X@X@X@X@X@X@X X~.B s f f f s # { e G Y ` ` ` ` <.3.:.:.:.:.:.:.:.:.",
":.:.3.3.2.W W Q b.t.t.b.Q / Q b.b.Q Q O.# s f f d , !.}.S. X@X#X X X#X@X XS.}.!., d f f s o 8 &.-.3.Y ` ` ` 2.3.3.3.3.3.3.:.:.:.",
"5.3.W W W Q b.t.i.i.i.i.t.t.t.i.i.t.8.: . d f f s , _. XB.`.#X%XV.V.%X#X`.B. X_., s f f d . 1 &.:.:.3.` ` ` ` ` ` ` ` ` <.3.3.3.",
"t.a.Q b.t.t.i.i.i.i.u.u.u.i.i.i.i.y...# t d f f s , _. Xn.] {.*Xx.x.*X{.] n. X_., s f f d t @ F ;.:.3.` ` ` ` ` h.h.h.h.h.<.<.<.",
"y.t.t.y.y.y.i.i.u.w.j.h.j.w.u.i.y.+.:   t d f f s , _.@X`.] .X$Xe e $X.X] `.@X_., s f f d t   ; } ;.3.` h.h.h.j.w.u.u.u.u.u.u.u.",
":.:.:.:.:.q.u.u.1.<.` ` ` h.j.w.O.; . t d f f f i 2 '.@X X0.{ (.0 0 (.{ 0. X@X'.2 i f f f d t   ; F <.h.w.p.p.p.y.y.y.y.y.y.y.y.",
":.:.:.:.:.:.:.:.4.3.3.3.<.` U H > t d d f d f d $ @.}.@X@X[.0.Z 5 5 Z 0.[.@X@X}.@.$ d f d f d t . ; F -.:.:.:.:.:.:.:.:.:.:.:.6.",
":.:.:.:.:.:.:.:.:.:.:.:.-.*.G < i d f f d u d s # #. X@X@X@X[.n.9.9.n.[.@X@X@X X#.# s d u d f d d t ; F &.;.:.:.:.:.:.:.:.:.:.:.",
"y.y.u.q.:.:.:.:.:.:.;.&.F ; $ i f d f f f d f s # #. X@X@X@X@X X X X X@X@X@X@X X#.# s f d f f f d d i $ ; F &.;.:.:.:.:.:.:.q.y.",
"i.i.i.u.q.:.:.:.:.;.} ; $ i d f d u d f d f f s # #. X@X@X@X@X@X@X@X@X@X@X@X@X X#.# s f f d f d u d f d i $ ; } ;.:.:.:.:.q.y.i.",
"y.y.y.i.y.y.u.q.;.} < i d f f d f d f d u d f s # #. X@X@X@X@X@X@X@X@X@X@X@X@X X#.* s f d u d f d f d f f d i < } ;.r.u.y.y.i.i.",
"6.:.q.u.i.i.i.u.=.6 i s f f d u d f f d d f f s # @.}.@X@X@X@X#X#X#X#X@X@X@X@X}.@.p d f f d d f f d u d f f s i 6 &.:.q.u.y.i.y.",
":.:.:.q.u.y.y.y.p.} ; $ i s y s f f d y d f f d . 2 '.@X@X@X#X%X*X*X%X#X@X@X@X'.2 t d f f d y d f f s y s i $ ; } ;.:.:.:.q.r.q.",
":.:.:.:.:.:.:.:.:.;.&.F ; #   t d d t t d d d d t & ~.@X@X@X[.n.x.x.n.[.@X@X@X~.& t d d d d t t d d t   # : } *.-.3.:.:.:.:.:.:.",
":.:.:.:.:.:.:.:.:.:.:.;.&.F ; @ . t   t t t t t   @ l.[.@X X0.q r r q 0. X@X[.l.@   t t t t t   t . # :  .8.w.<.` Y 3.3.3.3.3.:.",
"3.3.3.3.3.3.3.3.:.:.:.:.:.;.&.F ; @ @             ; ..B.[.`.Z G K K G w `.[.N...;             + + = H K h.h.` ` ` ` ` ` ` ` <.3.",
"` ` ` ` <.<.<.<.4.:.:.:.:.:.:.;.&.&.F ; @ @ @ @ ; A q x.V.n.0 K ` <.&.0 n.V.x.q P ; + + + + = H J J _ ` ` ` ` ` ` ` ` ` ` ` ` ` ",
"` ` ` <.3.3.3.3.:.:.:.:.:.:.:.:.:.:.;.&.&.&.&.&.&.=.w /.XX/.w =.3.3.=.w /.XX/.w &.*.L J J J K U ` Y ` ` ` ` ` ` ` ` ` ` ` ` ` ` ",
"3.3.3.3.:.:.:.:.:.:.:.:.:.:.:.:.:.:.3.3.3.3.3.:.:.;.=.w e w &.3.:.:.;.=.w e Z =.;.;.3.` ` Y 3.3.3.3.Y ` ` ` ` ` ` ` ` ` ` <.3.3.",
":.:.:.:.:.:.:.:.:.:.:.:.:.:.:.:.3.2.W ^ ^ ^ W 3.:.:.>.( ( ( E W 3.:.:.;.=.=.p.y.u.q.3.` ` 3.:.:.:.:.3.<.3.3.3.<.<.3.3.3.3.3.:.:.",
":.:.:.:.:.:.:.:.:.:.:.:.:.:.:.3.W ^ / / / ~ ~ W 2.2.W ~ / / / / W 3.:.:.q.u.i.i.i.u.5.h.` 3.:.:.:.:.:.4.:.:.:.3.3.:.:.:.:.:.:.6.",
":.:.:.:.:.:.:.:.:.:.:.:.:.:.3.W ~ / b.t.b./ ~ ~ ^ ^ ~ / b.t.t.b./ W 3.:.u.i.i.i.i.i.y.w.h.<.3.:.:.:.:.:.:.:.:.:.:.:.:.u.y.y.y.y."
};
