/* XPM */
static char *rcp03000625431501[] = {
/* columns rows colors chars-per-pixel */
"64 64 198 2 ",
"   c #271F2D",
".  c #271A3C",
"X  c #291C3D",
"o  c #211733",
"O  c #26232E",
"+  c #2A252D",
"@  c #2D2A2D",
"#  c #2D2533",
"$  c #2D2833",
"%  c #242636",
"&  c #322A36",
"*  c #302733",
"=  c #2E3134",
"-  c #2D3739",
";  c #353433",
":  c #3B3435",
">  c #34333B",
",  c #39333B",
"<  c #3A3A3C",
"1  c #383837",
"2  c #322A2C",
"3  c #1D142B",
"4  c #453D3E",
"5  c #403B39",
"6  c #3C463F",
"7  c #346929",
"8  c #6F621F",
"9  c #454535",
"0  c #4D4538",
"q  c #565121",
"w  c #4B7B36",
"e  c #6D6728",
"r  c #736A27",
"t  c #7B7832",
"y  c #79742B",
"u  c #2B1D42",
"i  c #2F2148",
"p  c #31244C",
"a  c #342A4E",
"s  c #342A45",
"d  c #283844",
"f  c #362B53",
"g  c #382C57",
"h  c #3A2F5A",
"j  c #372555",
"k  c #3D315C",
"l  c #3F3162",
"z  c #403263",
"x  c #443469",
"c  c #4C3E62",
"v  c #51377E",
"b  c #443955",
"n  c #2B424E",
"m  c #3F4841",
"M  c #314042",
"N  c #2D4451",
"B  c #395868",
"V  c #3E616F",
"C  c #4B4643",
"Z  c #4D7A78",
"A  c #5C7960",
"S  c #667E61",
"D  c #847B35",
"F  c #778638",
"G  c #5A8143",
"H  c #6F8140",
"J  c #7E9445",
"K  c #7A954B",
"L  c #688954",
"P  c #6D965B",
"I  c #749856",
"U  c #758D51",
"Y  c #59AF46",
"T  c #6BB04B",
"R  c #7FAB5E",
"E  c #7BA55D",
"W  c #7ABF5E",
"Q  c #6DBA53",
"!  c #6E966F",
"~  c #749A6C",
"^  c #7A9A6E",
"/  c #78956E",
"(  c #679175",
")  c #6B9472",
"_  c #719571",
"`  c #6B8E66",
"'  c #77A564",
"]  c #78A664",
"[  c #7BA962",
"{  c #7ABE60",
"}  c #8D853D",
"|  c #81823A",
" . c #8C8C42",
".. c #948B49",
"X. c #819646",
"o. c #849A49",
"O. c #94934C",
"+. c #9A964F",
"@. c #958C52",
"#. c #988C56",
"$. c #899851",
"%. c #9A9355",
"&. c #AC9E52",
"*. c #A39B5E",
"=. c #AA9F5C",
"-. c #A49956",
";. c #A4974D",
":. c #85A24C",
">. c #8BA549",
",. c #8EA748",
"<. c #93AB4A",
"1. c #95B44F",
"2. c #9AB64D",
"3. c #9CB94E",
"4. c #81AB5E",
"5. c #8AAE5C",
"6. c #8BAA58",
"7. c #97A856",
"8. c #8FB056",
"9. c #95B651",
"0. c #9AB751",
"q. c #9DB950",
"w. c #A0B94F",
"e. c #A4A554",
"r. c #ABA454",
"t. c #ABAC58",
"y. c #B4A65A",
"u. c #B5A95C",
"i. c #A3B950",
"p. c #AEB65B",
"a. c #A1B751",
"s. c #B3BA56",
"d. c #B4B55D",
"f. c #BAB75A",
"g. c #B6B959",
"h. c #BDBA5A",
"j. c #B3B757",
"k. c #829E6B",
"l. c #8A9C67",
"z. c #A39169",
"x. c #AB9B63",
"c. c #82AA62",
"v. c #88AC61",
"b. c #92B869",
"n. c #AEA566",
"m. c #B5AC61",
"M. c #BAAF62",
"N. c #B4A56A",
"B. c #ACB160",
"V. c #BCB163",
"C. c #BCB968",
"Z. c #BAAE70",
"A. c #C0B768",
"S. c #C3BA6A",
"D. c #C5BB71",
"F. c #A6C15B",
"G. c #AAC45B",
"H. c #9BCF6C",
"J. c #CCC574",
"K. c #553984",
"L. c #583B89",
"P. c #5F408D",
"I. c #5F4094",
"U. c #674B8C",
"Y. c #75598C",
"T. c #604195",
"R. c #6D4F92",
"E. c #64429B",
"W. c #6D5997",
"Q. c #6C519D",
"!. c #755996",
"~. c #6F5486",
"^. c #6945A3",
"/. c #83688C",
"(. c #558885",
"). c #D9DA8B",
"_. c #D5D39F",
"`. c #C9CA8E",
"'. c #DCE48B",
"]. c #DDE195",
"[. c #E2E38D",
"{. c #E1E495",
"}. c #E4ED95",
"|. c #EAEC95",
" X c #EBED9B",
".X c #EDF39B",
"XX c #E7F69A",
"oX c #F1F49B",
"OX c #DCDBA7",
"+X c #D9E6AC",
"@X c #DCF2AF",
"#X c #F6FCA4",
"$X c #FAFFA5",
"%X c #F9FEAA",
"&X c #E9EBB7",
"*X c #F3F5BC",
"=X c #E7EFAE",
"-X c #F6F8C3",
/* pixels */
"3.3.3.3.8.) ( ( ( ) 8.8.) ( ( ( _ d.h.h.h.h.d.^ _ ( ^ d.h.h.h.h.h.d.k.0.h.h.h.h.h.h.h.h.f.3.3.3.3.3.3.3.3.i.h.h.h.h.h.h.h.h.h.f.",
"9.9.3.9.~ ( _ _ ( ( ) ) ( _ _ ( _ B.h.h.h.h.h.d.B.k.B.h.h.h.h.h.h.h.d.f.h.h.h.h.h.h.h.h.f.i.3.3.3.3.3.g.f.f.h.h.h.h.h.h.h.h.f.i.",
") ~ 5.~ ( ^ B.B.^ ( ( ( ^ B.B.^ _ ^ d.h.h.h.h.h.h.d.h.h.h.h.h.h.h.h.h.h.h.h.h.h.h.h.h.h.h.f.g.3.3.3.3.g.f.f.f.f.f.f.f.f.f.i.3.9.",
"( _ ~ ( _ B.h.h.B.^ _ ^ B.h.h.d.B.k.d.M.h.h.h.h.h.h.h.h.h.h.h.f.f.f.h.h.h.h.h.g.f.h.h.h.h.h.m.a.3.3.3.3.w.3.3.w.3.3.3.3.w.3.9.~ ",
"^ B.B.^ ^ d.h.h.h.d.d.d.h.h.h.h.h.d.*./.n.d.d.d.g.h.h.h.h.f.i.w.3.i.g.h.h.h.d.v.v.d.h.h.h.n./.*.g.g.i.3.3.3.3.3.3.3.3.3.q.9.8.) ",
"d.h.h.d.d.f.f.f.h.h.h.h.h.f.f.f.f.r.4 P.!.k.c.c.v.d.f.f.f.i.3.3.3.3.i.g.g.p.c.[ [ v.g.h.n.!.P.4 r.f.s.3.3.3.3.3.3.3.i.g.d.k.~ _ ",
"h.h.h.h.g.i.3.i.g.h.h.h.g.i.3.q.q.O.& l T.W._ ] [ c.q.i.s.3.3.3.3.9.9.9.c.c.[ [ [ c.d.n.!.T.l & X.2.3.3.3.3.3.3.i.g.f.h.h.d.d.d.",
"h.h.f.g.i.3.3.3.i.f.h.f.i.3.9.4.I > a h x E.W._ ] 4.9.3.3.3.3.3.9.4.[ [ [ [ [ [ [ [ l.!.E.x h a ; ,.3.3.3.3.i.g.f.f.f.f.h.h.h.h.",
"f.g.i.3.3.3.3.3.3.g.f.f.3.9.4.[ P % f h l I.^.W./ 8.9.9.9.3.3.9.R [ [ [ [ [ [ [ ] _ W.^.I.l h f $ >.3.3.3.i.g.h.g.i.3.i.g.h.h.h.",
"3.3.3.3.3.3.3.3.3.3.i.s.0.9.[ ' L % f h h x T.^.W./ [ [ 4.9.9.R [ [ [ [ R 9.9.4./ W.^.T.x h h f % J 2.3.s.g.f.g.i.3.3.3.i.g.f.f.",
"3.3.3.3.3.3.9.9.9.9.9.9.4.[ [ P = X g h h h x E.^.W._ ~ ~ ^ ^ ~ ~ ~ ~ ^ 6.7.7.l.!.^.E.x h h h g X ; ,.3.3.3.3.3.3.3.3.3.3.3.3.3.",
"3.3.3.3.3.0.4.4.4.[ [ [ [ [ [ I + u g h h h l I.^.^.Q.Q.Q.Q.Q.Q.Q.Q.Q.Q.Q.Q.Q.Q.^.^.I.l h h h g u + >.3.3.3.9.9.9.3.3.3.3.3.3.3.",
"3.3.3.3.3.3.9.9.9.4.[ [ [ [ [ :.+ u g h h h h x E.^.E.E.E.E.E.E.E.E.E.E.E.E.E.E.^.E.x h h h h g u + >.3.3.9.4.[ 4.9.3.3.3.3.3.3.",
"3.3.3.3.3.3.3.3.3.9.9.9.4.[ 4.:.+ u g h h g h x I.I.x z z z z z z z z z z z z x I.I.x h h h h g u + >.3.9.R [ [ [ 4.9.3.3.3.3.3.",
"3.3.3.3.3.i.g.g.i.3.3.3.0.0.q.>.+ u g h g j h K.x l h h h h h h h h h h h h h h l x K.l g h h g u + :.9.R [ [ [ [ [ 9.3.3.3.3.3.",
"3.3.3.3.i.g.h.h.g.i.3.3.i.g.f.e.+ . u f j K.l l h h h h h h h h h h h h h h h h h h l h j g h g u O P [ [ [ [ [ [ [ 9.9.9.3.3.3.",
"9.9.i.g.f.h.h.h.h.f.f.f.f.h.h.r.+ . u p K.x h h h h h h h h h h h h h h h h h h h h h l K.j f u . O P [ [ [ [ ] [ [ [ [ 4.9.9.9.",
"4.5.j.f.h.h.h.h.h.h.h.h.h.h.h.e.; . u j L.l h h h h h h l z z z z z z z z l h h h h h h x K.p u . = P [ [ [ [ [ [ [ [ [ [ [ [ [ ",
"9.0.3.w.i.f.h.h.h.h.h.h.f.g.p.c.L O u v x h h h h h l x U.R.R.R.R.R.R.R.R.U.x l h h h h l L.j . O L ' [ [ [ [ [ [ [ [ [ [ [ [ [ ",
"3.3.w.w.w.i.f.h.h.h.h.g.a.5.4.4.:.O o h h h h h l x U.Y.z.x.x.x.x.x.x.x.x.z.Y.U.x l h h h x v . O P [ [ [ ' ' ' ' ] [ [ R 9.9.9.",
"3.i.g.f.f.f.h.h.h.h.f.i.3.9.9.1.J $ a h h h h x U.Y.z.x.y.y.y.y.y.y.y.y.y.y.x.z.Y.U.x h h h l f % U 9.9.5.! ) ) ) ' ' [ 9.3.3.3.",
"f.f.h.h.h.h.h.h.h.h.f.3.3.3.3.,.; a h h h h x ~.z.x.y.u.M.&.&.M.V.V.M.&.&.y.y.y.x.z.~.x h h h h a > o.8.~ _ _ _ ( ) ) ] 9.3.3.3.",
"f.f.f.f.f.h.h.h.h.h.i.3.3.3.2.J $ g h h h l U.z.y.u.V.S.).} } [.oXoX[.} D u.V.u.y.y.z.U.l h h h g % A ! ^ B.d.B.^ ( ( ! 9.q.i.g.",
"3.3.3.3.i.g.h.h.h.h.i.3.3.2.X.1 a h h h h z R.x.u.S.|.oX#X|.|.#X%X%X#X|.|.oX|.S.V.u.x.R.z h h h h f > S t.h.h.h.B.^ _ _ k.d.f.f.",
"3.3.3.3.3.i.g.f.h.h.g.i.j.+.1 a h h h h k c Y.N.A.).}.XX}.%X%X%X%X%X%X%X#X}.}.'.).A.N.Y.k h h h h h f < +.f.h.h.h.d.d.d.d.f.i.3.",
"3.3.3.3.3.3.3.i.g.h.h.f.+.: a h h h h h b #.Z.|.{...F T G +X%X%X%X%X%X%X+XG T F ..{.|.x.5 f h h h h h a : +.f.h.h.h.h.h.h.f.w.3.",
"f.g.i.3.3.3.3.3.i.g.f.t.9 . u g g h h g & =.|.%X-X+X{ Y 7 W @X%X%X%X%X@XW 7 Y W +X-X%X|.%.# g h h g g u . 0 t.h.h.h.h.h.h.h.i.f.",
"h.h.f.w.3.3.3.3.3.3.3.2.X.; + X u g g f # #.|.$X%X%X@XW w Q H.XX%X%XXXH.Q w W @X%X%X%X|.#.# f g g u X # : +.f.h.h.h.h.h.h.h.h.h.",
"h.h.f.3.3.i.g.g.i.3.3.3.2.,.J ; + X u u . : *.|.$X%X%XXX}.XXXX#X&X&X#XXXXX}.XX%X%X$X|.*.: . u u X # : +.e.a.i.f.h.h.h.h.h.h.h.h.",
"h.h.f.i.i.g.h.h.f.g.i.3.3.3.2.,.X.; + . . . : *.|.$X%X%X%X%X%X XO.O.|.%X%X%X%X%X$X|.*.: . . . + ; X.,.j.i.3.3.i.f.h.h.h.h.h.h.h.",
"h.h.h.f.f.h.h.h.h.f.g.g.g.g.g.g.j.e.O.; + + + 9 *.).{.#X%X%X%X#X|.|.#X%X%X%X#X{.).*.9 @ + + ; J ,.2.3.3.3.3.3.3.f.h.h.h.h.f.f.f.",
"f.f.f.f.f.f.f.f.g.i.3.3.q.0.0.0.0.0.2.,.>.>.>.X.9 5 0 `.].].].].].].].].].].`.0 5 9 X.7.,.>.,.2.3.3.3.3.3.3.3.3.g.f.f.f.g.i.3.3.",
"3.3.3.w.3.3.3.3.3.3.9.9.4.[ [ [ [ 4.9.3.9.9.9.1.>.H + & > < < > > > > < < > & + H >.2.3.3.3.3.3.F.F.q.3.3.3.3.3.3.3.3.3.3.3.3.3.",
"3.3.3.3.3.3.3.3.9.9.4.[ [ [ [ [ [ [ R 9.4.[ [ R K ; . . d Z B d - - d B Z d . . ; X.2.3.9.9.0.G.}.=XG.q.3.3.3.3.3.3.3.3.3.3.3.3.",
"3.3.3.3.3.3.3.9.4.[ [ [ [ [ [ [ [ [ [ [ [ [ ' L ; . X d Z (.B M @.@.M B (.Z d X . ; X.9.4.[ v.'.#X%X=XF.3.3.3.3.3.3.3.3.3.3.3.3.",
"3.3.3.3.3.9.9.R [ [ [ [ [ [ [ [ [ [ [ [ [ [ P = . u X d Z V N m -.-.m N V Z d X u . ; I [ [ [ b.|.%X*XF.3.3.3.9.9.9.3.3.3.3.3.3.",
"3.3.3.9.9.4.[ [ [ [ R 9.9.9.9.9.R [ [ [ [ E L % u u u % N n m #.M.M.#.m n N % u u u % L 9.9.R c.C.oX.XF.3.3.9.4.[ 4.9.3.3.3.9.9.",
"9.3.0.4.4.[ [ [ [ 4.9.3.3.3.3.3.9.[ [ R 9.>.; a g g u . % 6 #.A.|.|.A.#.6 % . u g g a ; ,.3.9.4.M.oX}.F.3.9.R [ [ [ R 9.9.9.4.[ ",
"4.9.9.9.9.9.9.9.9.9.3.3.3.3.3.3.9.4.4.9.2.J $ g h h g X : @.A.|.$X$X|.A.@.: X g h h g $ J 1.1.<.C.|.C.q.9.4.[ [ [ [ [ [ [ [ [ [ ",
"[ 4.4.4.0.3.3.3.3.3.3.3.3.3.3.3.3.9.9.3.,.; a h h h a : @.A.|.$X%X%X$X|.A.@.: a h h h a ; U K | ).'.i.3.9.[ [ [ [ [ [ [ [ [ [ [ ",
"9.9.9.9.3.3.3.3.9.9.9.9.9.3.3.9.9.9.3.2.J $ g h h g # @.A.|.$X%X%X%X%X$X|.A.@.# g h h g   q r ;.r.| <.9.R [ [ R 9.9.9.4.[ [ [ [ ",
"3.3.3.3.3.3.3.9.~ ) ) ) ~ 8.8.~ ) ~ 9.,.; a h h h f * n.|.$X%X%X%X%X%X%X$X|.n.* f h h h a 2 ..;.t I R [ [ [ [ 9.3.3.3.0.9.9.9.9.",
"3.3.3.3.3.9.8.~ _ _ _ _ ( ) ) _ _ ( ~ $.$ f h h h f C ).oX$X%X%X%X%X%X%X$XoX).C f h h h f # ..t K R [ [ [ [ 4.9.3.3.3.3.3.3.3.3.",
"3.3.9.9.8.~ ~ ^ B.d.d.B.^ _ ^ B.B.^ ^ @.# f h h g , `..XJ.oX%X%XoXoX%X%XoXJ..X`., g h h f   e >.1.9.R [ [ [ 8.9.9.9.9.9.9.3.3.3.",
"q.9.~ ~ ~ ^ B.d.h.h.h.h.d.d.d.h.h.d.e.: X g h h f , ].oXS.[.%X*XD.D.*X%X[.S.oX]., f h h f + X.2.3.3.9.[ [ [ [ [ [ [ [ [ 4.9.9.9.",
"d.k.^ B.d.d.h.h.h.h.g.d.g.h.h.h.h.f.+.# u g h h f , ].oXV.}  X-Xm.m.*X X} V.oX]., f h h f % J 2.3.3.9.[ [ [ [ [ c.c.c.c.c.4.4.4.",
"f.d.d.f.f.f.h.h.g.p.v.c.v.p.g.h.h.e.: . u g h h f , ].$X[.} OX&Xt t &XOX} [.$X]., f h h g X ; ,.3.3.9.[ c.c.c.v.p.d.d.d.d.d.d.d.",
"3.3.3.3.3.i.g.g.5.4.[ [ [ c.v.p.p.U s u g h h h a 4 {.%XoXu...`.r r `...u.oX%X{.4 a h h g u s X.2.0.4.4.p.j.j.j.f.f.f.f.f.f.f.f.",
"3.3.3.3.3.3.3.3.0.9.9.9.4.[ [ 4.L > f g h g h g # %..X%X$X|.u.D 8 8 D u.|.$X%X.X%.# g h g g f 1 X.2.9.0.3.3.3.3.3.3.3.3.3.3.3.w.",
"3.3.3.3.3.3.3.3.3.3.3.3.9.9.9.:.> a h h g p g f # =.oX%X%X$X|.V.y.y.V.|.$X%X%XoX=.# f g p g h a ; ,.3.3.3.3.3.3.3.3.3.3.3.3.3.3.",
"f.f.g.i.3.3.3.3.3.3.3.3.3.3.2.J $ f h h h g h f * =.oX%X%X%X$XoXoXoXoX$X%X%X%XoX=.# f h g h h f $ J 2.3.3.3.3.3.3.3.3.3.3.3.i.f.",
"h.h.h.g.i.3.3.3.3.3.3.9.9.1.J 1 a p g h g h h f * =.oX%X%X%X%X%X%X%X%X%X%X%X%XoX=.# f h h g g p a 1 X.2.3.3.3.3.3.3.3.3.3.i.f.h.",
"f.f.f.h.f.f.g.i.3.3.0.4.4.L > a h g h g p g h f # =.oX%X%X%X%X%X%X%X%X%X%X%X%XoX=.* f h g p g g h a : X.2.3.3.3.3.3.s.g.f.f.h.h.",
"w.3.i.g.h.h.h.g.i.3.3.1.J 1 p p g h h g g h h f # %..X%X%X%X$XoXoXoXoX$X%X%X%X.X%.s g h h g g h g p p : X.2.3.3.3.3.3.i.g.f.h.f.",
"3.3.3.i.g.f.f.f.s.3.3.,.9 s i f h h g i g h h g X 5 ).$X%X$X|.S.V.V.S.|.$X$X%X{.4 u g h h g i g h f i s 9 ,.3.3.3.3.3.3.3.i.s.i.",
"3.3.3.3.3.3.3.3.3.3.3.2.X.; . u g g u u g g g g . + n.|.oX|.S.&.&.&.&.S.oX$X$X).& u g g g g u g g u . : X.2.3.0.9.9.3.3.3.3.3.3.",
"3.3.3.3.3.3.3.3.3.3.3.3.2.J ; + X u . u u u u u . + @.V.S.S.r.r e r y u.oX$X|.*.+ . u u u u u u . 3 : O.p.j.p.4.[ R 9.9.9.9.9.3.",
"9.9.9.9.9.9.9.9.3.3.3.3.3.2.,.J ; + + . . . . . . 2 e V. X XM.r I I :.B.[.[.y.e @ . . . . . . O O = L c.c.c.c.[ [ [ [ [ [ [ 4.9.",
"[ [ [ [ 4.4.4.4.0.3.3.3.3.3.3.2.,.>.J ; + + + + ; F t _.-X-X_.t E 4.9.<.D y y K L ; O O O O = L P P ' [ [ [ [ [ [ [ [ [ [ [ [ [ ",
"[ [ [ 4.9.9.9.9.3.3.3.3.3.3.3.3.3.3.2.,.>.>.>.>.,.2.,. .).). .,.1.9.3.2.<.<.<.1.1.:.I P P P I E [ [ [ [ [ [ [ [ [ [ [ [ [ [ [ [ ",
"9.9.9.9.3.3.3.3.3.3.3.3.3.3.3.3.3.3.9.9.9.9.9.3.3.3.2.>.t t >.9.3.3.3.3.3.3.3.3.3.3.9.[ [ R 9.9.9.9.R [ [ [ [ [ [ [ [ [ [ 4.9.9.",
"3.3.3.3.3.3.3.3.3.3.3.3.3.3.3.3.9.8.~ ) ) ) ~ 9.3.3.9.~ ` ` ! ~ 9.3.3.3.3.i.g.f.g.i.9.[ [ 9.3.3.3.3.9.4.9.9.9.4.4.9.9.9.9.9.3.3.",
"3.3.3.3.3.3.3.3.3.3.3.3.3.3.3.9.~ ) _ _ _ ( ( ~ 8.8.~ ( _ _ _ _ ~ 9.3.3.i.g.h.h.h.g.q.c.[ 9.3.3.3.3.3.0.3.3.3.9.9.3.3.3.3.3.3.w.",
"3.3.3.3.3.3.3.3.3.3.3.3.3.3.9.~ ( _ B.d.B._ ( ( ) ) ( _ B.d.d.B._ ~ 9.3.g.h.h.h.h.h.f.p.c.4.9.3.3.3.3.3.3.3.3.3.3.3.3.g.f.f.f.f."
};
