/* XPM */
static char *_8e222e20c8f4ec6a47a5168fc1298cbL7YnxBegs8vgzU6B[] = {
/* columns rows colors chars-per-pixel */
"64 64 148 2 ",
"   c #2B1F1C",
".  c #2C201B",
"X  c #35221B",
"o  c #3A231B",
"O  c #282521",
"+  c #3A3525",
"@  c #40251A",
"#  c #4B2819",
"$  c #7E3515",
"%  c #6F2023",
"&  c #7E2024",
"*  c #8B3913",
"=  c #913A13",
"-  c #9E3C13",
";  c #9A3D1A",
":  c #A43E12",
">  c #832522",
",  c #812B28",
"<  c #873124",
"1  c #8D4018",
"2  c #9F4415",
"3  c #9F421A",
"4  c #9F531F",
"5  c #A74011",
"6  c #A84111",
"7  c #A54816",
"8  c #AA4A16",
"9  c #A34519",
"0  c #AD4D18",
"q  c #B24B1C",
"w  c #A3551D",
"e  c #AC551E",
"r  c #B1561E",
"t  c #9D4F22",
"y  c #9D5022",
"u  c #8E4134",
"i  c #984D36",
"p  c #A15121",
"a  c #AA5B24",
"s  c #A75B28",
"d  c #B75524",
"f  c #B95324",
"g  c #B86627",
"h  c #A05F41",
"j  c #D56F43",
"k  c #CE7241",
"l  c #CE7D47",
"z  c #C87C4B",
"x  c #D27344",
"c  c #D67748",
"v  c #DC764A",
"b  c #D07F48",
"n  c #DE7A4F",
"m  c #C87F57",
"M  c #DD7C50",
"N  c #E07A4F",
"B  c #E17B50",
"V  c #70804A",
"C  c #7F9157",
"Z  c #7DA05D",
"A  c #7FAB5E",
"S  c #738F6A",
"D  c #7F8C6D",
"F  c #6E976F",
"G  c #73996C",
"H  c #7A9A6F",
"J  c #679175",
"K  c #6B9472",
"L  c #719671",
"P  c #77A464",
"I  c #7AA662",
"U  c #7AA962",
"Y  c #969D46",
"T  c #999942",
"R  c #839654",
"E  c #879851",
"W  c #909F5E",
"Q  c #97A047",
"!  c #9CA244",
"~  c #99A048",
"^  c #96AC4E",
"/  c #99AE4B",
"(  c #9CB44D",
")  c #9CB94E",
"_  c #8EAF57",
"`  c #83A55D",
"'  c #89A45E",
"]  c #81AB5E",
"[  c #8AAE5C",
"{  c #9CAE52",
"}  c #95A25B",
"|  c #8FB056",
" . c #95B651",
".. c #9AB651",
"X. c #9EB850",
"o. c #A0A344",
"O. c #A7AE4E",
"+. c #A3B24E",
"@. c #A0B94F",
"#. c #A6AB50",
"$. c #AFAE57",
"%. c #ACA95B",
"&. c #BAA55C",
"*. c #A0B552",
"=. c #ABB050",
"-. c #A3B950",
";. c #AEB65C",
":. c #BCB256",
">. c #B3BA56",
",. c #B4B55D",
"<. c #B6B959",
"1. c #BDBA5A",
"2. c #818F6B",
"3. c #89956B",
"4. c #819F6A",
"5. c #829E6C",
"6. c #85A360",
"7. c #82AA62",
"8. c #86AB61",
"9. c #88AC61",
"0. c #ABB160",
"q. c #ACB160",
"w. c #C78A4B",
"e. c #CE8B4F",
"r. c #CB8E4F",
"t. c #D2824C",
"y. c #D2874F",
"u. c #CF8253",
"i. c #CA8653",
"p. c #CC8354",
"a. c #C48954",
"s. c #C98C51",
"d. c #D28252",
"f. c #D28750",
"g. c #D98751",
"h. c #C5AA57",
"j. c #C5AF59",
"k. c #C4B159",
"l. c #E0C05F",
"z. c #DECB6F",
"x. c #E7CF67",
"c. c #E4CC69",
"v. c #E9D46A",
"b. c #E8DD76",
"n. c #ECE075",
"m. c #F7F47E",
"M. c #F9F781",
"N. c #F9F881",
/* pixels */
") ) ) ) | K J J J K _ _ K J J J L ,.1.1.1.1.,.H L J H ,.1.1.k.k.1.,.4...1.k.1.1.1.1.1.1.<.) ) ) ) ) ) ) ) -.<.1.1.1.1.k.k.k.1.<.",
" . .)  .G J L L J J K K J L L J L q.1.1.1.1.1.,.q.5.q.1.k.1.1.k.1.1.,.<.1.k.1.1.1.1.k.k.<.-.) ) ) ) ) <.<.<.1.1.1.1.k.k.1.1.<.-.",
"K G [ G J H q.q.H J J J H q.q.H L H ,.1.1.1.1.1.1.,.1.1.1.1.1.1.1.1.1.1.k.1.1.1.1.1.k.1.1.<.<.@.) ) @.<.<.<.<.<.<.<.<.<.<.-.)  .",
"J L G J L 0.1.1.q.H L H q.1.1.,.q.5.,.1.1.1.1.1.1.1.1.1.1.1.<.<.<.<.1.1.k.1.1.<.<.1.k.1.1.k.1.-.@.@.) ) @.@.@.@.) @.@.@.@.)  .G ",
"H q.q.H H ,.1.1.1.,.,.,.1.1.1.1.1.,.1.1.1.<.<.<.<.1.1.1.1.<.-.) ) -.<.1.1.1.,.9.9.,.1.1.1.1.1.1.<.<.-.) ) ) ) ) ) ) ) @.X. ._ K ",
",.1.1.,.,.<.<.<.1.k.1.1.1.<.<.<.<.1.1.1.,.9.7.7.9.,.<.<.<.-.) ) ) ) -.<.<.;.8.U U 9.<.1.1.1.k.1.<.<.>.) ) ) ) ) ) ) -.<.,.4.H L ",
"1.1.k.1.<.-.) -.<.1.k.1.<.-.) X.X.,.<.,.8.U U U U 8.X.-.>.) ) ) )  . . .8.7.U U U 7.>.<.<.<.<.<.-.) ) ) ) ) ) @.-.<.<.1.1.,.,.,.",
"1.1.1.<.-.) ) ) -.1.1.<.-.)  .] U 7.7.7.U U U U U ]  .) ) ) ) )  .] U U U U U U U U  .) X.) -.@.) ) ) ) ) ) -.<.<.<.<.<.1.k.1.1.",
"<.<.-.) ) ) ) ) ) <.<.<.)  .] U U U U U U U U U U  . . . .) )  .A U U U U U U U U U A  .) ) ) ) ) ) ) ) ) -.<.1.<.-.) -.<.1.1.1.",
") ) ) ) ) ) ) ) ) ) -.>.X. .U U U U U U U U U U U U U U ]  . .A U U U U A  . .] U U U A  . .) ) ) ) ) ) >.<.<.<.-.) ) ) -.<.<.<.",
") ) ) ) ) )  . . . . . .] U U U U U U U U U U U U U U U U U U U U U U U  .) )  . .] U U ] ] ..) ) ) ) ) ) ) ) ) ) ) ) ) ) ) ) ) ",
") ) ) ) ) ..] ] ] U U U U U U A  . . .A U U U U U U U U U U U U U U U U  .) ) ) )  . . . . .) ) ) ) ) ) ) )  . . .) ) ) ) ) ) ) ",
") ) ) ) ) )  . . .] U U U U U  .) ) )  .U A  . . .] U U U U U A  . .A U  .) ) ) ) ) ) ) ) ) ) ) ) ) ) ) )  .] U ]  .) ) ) ) ) ) ",
") ) ) ) ) ) ) ) ) .. . .] U ]  .) ) )  .]  .) ) )  . .] U U ]  .) )  .] ] ..) ) ) ) ) ) ) )  . . .) ) )  .A U U U ]  .) ) ) ) ) ",
") ) ) ) ) -.<.<.-.) ) ) ....X.) ) ) ) ) ..) ) ) ) ) )  . . . .) ) ) )  . .) ) ) ) ) ) ) )  .] U ]  . . .A U U U U U  .) ) ) ) ) ",
") ) ) ) -.<.1.1.<.-.) ) -.<.<.<.<.-.) ) ) ) ) ) ) ) )  . . . .) ) ) ) ) ) ) ) ) ) ) ) )  .A U U U U U U U U U U U U  . . .) ) ) ",
" ...-.<.1.1.k.k.1.1.<.<.<.1.1.1.<.>.;...) )  . . . ...' ' a.u.f.y.y.e.#.......) ) ) )  .A U U U U U U U U U U U U U U U ]  . . .",
"] [ >.<.<.1.1.k.1.k.k.1.1.1.1.,.9.7.7.]  . .] U ` ' a.u.u.M B B B B B d.d.i.} .. . . .A U U U U U U U U U U U U U U U U U U U U ",
"....) ) -.<.1.k.1.1.1.1.<.<.;.8.U U U U U U U 6.a.u.M N v v v v v v v v N M d.i.W I I P I U U U U U U U U U U U U U U U U U U U ",
") ) ) ) @.-.<.1.1.1.1.<.*.[ ] ]  . . .] U U ' a.M N v v f q q q q q q q j v N M p.2.K K P U U U U U U U U P P P P I U U A  . . .",
"@.-.<.<.<.<.1.1.1.1.<.-.)  . . .) )  . . .{ s.M v v f q 6 6 6 6 6 6 6 6 q q j v n m D J F [  . . . . . ._ F K K K P P U  .) ) ) ",
"<.<.1.1.1.1.1.1.1.1.<.) ) ) ) ) ) ..] ] ' a.M v f q 6 6 5 - - - - - - 5 6 6 q q j n m D J K K K K G | | G L L L J K K P  .) ) ) ",
"<.<.<.<.<.1.1.k.k.1.-.) ) ) ) ) ) )  .{ a.M v f 6 6 5 - = # o o o o @ * - 5 6 6 q j n m D J L L L L K K H q.,.q.H J J F  .X.-.<.",
"@.) ) ) -.<.1.k.k.1.-.) ) ) ) ) ) ) ( r.n v f 6 6 5 - # o .           X @ * 5 6 6 q j n m 3.q.,.,.q.H H q.1.1.1.q.H L L 4.,.<.<.",
") ) ) ) ) -.<.<.1.1.<.-.<.<.-.) ) ) +.y.v f 6 6 5 - # .   $ = = = = * o   o * 5 6 6 q j M &.1.1.1.1.,.,.1.k.k.k.1.,.,.,.,.<.-.@.",
"@.@.) ) ) ) ) -.<.1.1.<.<.<.>.-.) ( r.v f 6 6 5 - # X $ % - 6 6 6 6 5 = * o o * 5 6 6 q x g.k.1.1.1.1.1.k.k.1.1.1.1.k.k.1.<.@.) ",
"<.<.-.) ) ) ) ) -.<.<.<.-.@.-.>.) +.t.f 6 6 5 - # X $ - & - 6 6 6 6 6 6 5 * o o * 5 6 6 q c j.1.1.1.1.1.1.1.1.1.1.1.1.1.1.<.-.<.",
"k.1.<.@.) ) ) ) ) @.@.@.) ) ) ) ) +.l q 6 5 - # X $ : : > - 6 6 6 6 5 : 5 5 * o o * 5 6 6 x h.<.<.1.1.1.1.<.<.1.1.1.1.1.1.1.<.1.",
"k.k.<.@.) -.<.<.-.) ) ) ) ) ) ) ( w.d 6 6 - # . $ : 6 5 : : 6 6 6 6 : > - 6 5 * X o = 6 6 q b =.-.<.<.1.<.-.-.<.1.k.1.1.1.1.1.1.",
"k.k.1.-.-.<.1.1.<.<.-.) ) ) ) ) +.t.q 6 5 = o X = 6 6 6 6 6 6 6 6 6 : & - 6 6 - @   * 5 6 8 x O.) ) -.>.-.) ) -.1.k.1.1.1.1.1.1.",
"k.k.1.1.<.1.1.1.1.<.<.<.<.<.<.<.:.t.q 6 - # . $ : 6 6 6 6 6 6 6 6 6 : & - 6 6 5 * X o = 6 8 x O.) ) ) ) ) ) ) @.<.k.k.k.1.<.<.<.",
"<.<.<.<.<.<.<.<.<.-.) ) X.......*.t.q 6 - o   = 6 6 6 5 : : 6 6 6 6 : & - 6 6 6 - o   = 6 8 x O.) ) ) ) ) ) ) @.<.<.<.<.<.-.) ) ",
") ) ) ) ) ) ) ) ) )  . .] U U U ` z q 6 - o   = 6 6 6 : > - 6 6 6 6 : > - 6 6 6 - o   = 6 6 k O.) ) ) ) ) ) ) ) ) ) ) ) ) ) ) ) ",
") ) ) ) ) ) ) )  . .] U U U U U Z s 6 6 - o   = 6 6 6 : & - 6 6 6 6 5 : 5 0 0 6 - o   = 6 6 e ! ) ) ) ) ) ) ) ) ) ) ) ) ) ) ) ) ",
") ) ) ) ) ) )  .] U U U U U U U Z 4 6 6 - o   = 6 6 6 : & - 6 6 6 6 6 6 r l.x.g 2 o   = 6 6 7 ~ ) ) ) ) ) ) ) ) ) ) ) ) ) ) ) ) ",
") ) ) ) )  . .A U U U U U U U U Z 4 6 6 - o   = 6 6 6 : & - 6 6 6 6 6 0 l.m.M.v.a o   = 6 6 7 E  .) ) ) ) ) )  . . .) ) ) ) ) ) ",
") ) )  . .] U U U U A  . . . . .` 4 6 6 - o   = 6 6 6 : > - 6 6 6 6 6 0 c.M.N.n.a o   = 6 6 7 R A  .) ) ) )  .] U ]  .) ) )  . .",
"..) ..] ] U U U U ]  .) ) ) ) ) ^ w 6 6 - o   = 6 6 6 5 : : 6 6 6 6 6 5 i z.b.h ; o   = 6 6 7 E U ] ..) )  .A U U U A  . . .] U ",
"]  . . . . . . . . .) ) ) ) ) ) / w 6 6 - o   = 6 6 6 6 6 6 6 6 6 6 6 5 - u u ; - o   = 6 6 7 Q  . .) )  .] U U U U U U U U U U ",
"U ] ] ] ..) ) ) ) ) ) ) ) ) ) ) ( w 6 6 - o   = 6 6 6 6 6 6 6 6 6 6 5 : 5 - - : - o   = 6 6 7 E ]  .) )  .U U U U U U U U U U U ",
" . . . .) ) ) )  . . . . .) )  .^ w 6 6 - o   = 6 6 6 5 : 5 6 6 6 6 : > - 6 6 6 - o   = 6 6 7 R U A  . .A U U A  . . .] U U U U ",
") ) ) ) ) ) )  .G K K K G | | G S y 6 6 - o   = 6 6 6 : > - 6 6 6 6 : & - 6 6 6 - o   = 6 6 7 R U U U U U U U  .) ) )  . . . ...",
") ) ) ) )  . .G L L L L J K K L S t 6 6 - o   = 6 6 6 : & - 6 6 6 6 : & - 6 6 6 - o   = 6 6 7 E U U U U U U ]  .) ) ) ) ) ) ) ) ",
") )  . .| G G H q.,.,.q.H L H q.%.p 6 6 - o   = 6 6 6 : & - 6 6 6 6 : > - 6 6 6 - o   = 6 6 7 ~  . .A U U U  . . . . . . .) ) ) ",
"X. .G G G H q.,.1.1.1.1.,.,.,.1.:.e 6 6 - o   = 6 6 6 : & - 6 6 6 6 5 : : 6 6 6 - o   = 6 6 7 ! ) )  .U U U U U U U U U ]  . . .",
",.4.H q.,.,.1.k.1.1.<.<.<.1.1.1.:.e 6 6 - o   = 6 6 6 : & - 6 6 6 6 5 : 5 6 6 6 - o   = 6 6 7 ! ) )  .U U U U U 7.7.7.7.7.] ] ] ",
"<.,.,.<.<.<.1.1.<.;.9.7.9.;.<.1.:.e 6 6 - o . 1 7 7 7 9 , 3 8 7 7 7 7 < 9 8 8 8 2 o   = 6 6 7 ! ) )  .U 7.7.7.9.;.<.<.<.<.<.<.<.",
") ) ) ) ) -.<.<.[ ] U U U 7.9.;.$.w 6 6 - o O V R R R R C E ~ ~ ~ ! ! Y ! o.o.o.T +   = 6 6 7 ! ) ..] ] ;.>.>.>.<.<.<.<.<.<.<.<.",
") ) ) ) ) ) ) ) .. . . .] U U 8.7.I I I I P P I U U U U U U U U ]  . . .) ) )  . . .....( ( ( ) ) )  ...) ) ) ) ) ) ) ) ) ) @.@.",
") ) ) ) ) ) ) ) ) ) ) )  . . . .] U U U U U U U U U U U U U U U U U U ]  . . .] U U U U ]  .) ) ) ) ) ) ) ) ) ) ) ) ) ) ) ) ) @.",
"<.<.<.-.) ) ) ) ) ) ) ) ) ) ) )  . . .| U U U A U U U U U U U U U U U U U U U U U 7.7.7.U  .) ) ) ) ) ) ) ) ) ) ) ) ) ) ) ) -.<.",
"k.1.1.<.-.) ) ) ) ) )  . . . . .] U U U U U A  . . .A U U U U U U U U U U U U U 8.;.<.;.[ ..) ) ) ) ) ) ) ) ) ) ) ) ) ) ) -.<.1.",
"<.<.1.1.<.<.<.-.) ) ..] ] ] ] ] U U U U U ]  .) ) )  .U U U U U U ]  . ..... ...>.1.1.1.<.-.) ) ) ) ) ) ) ) ) ) ) ) >.<.<.<.1.1.",
") @.-.<.1.1.1.<.-.) )  . . . . . . . . . . .) ) ) )  .] U U ]  . ...) -.<.<.-.-.<.1.1.1.1.<.) ) ) ) ) ) ) ) ) ) ) ) ) -.<.<.1.<.",
") ) ) -.<.<.<.<.>.) ) ) ) ) ) ) ) ) ) ) ) ) ) ) ) ) )  . . . .) ) -.<.<.1.1.1.1.1.<.<.<.1.<.-.) ) ) ) ) ) ) ) ) ) ) ) ) ) -.>.-.",
") ) ) ) @.@.@.@.) ) ) ) ) ) ) ) ) ) ) ) ) ) ) ) ) ) ) ) ) ) ) ) ..;.<.<.<.<.<.<.;.9.7.9.,.1.<.<.<.<.-.) ) ) ) .. ...) ) ) ) ) ) ",
") ) ) ) ) ) ) ) ) ) ) ) ) ) ) ) ) ) ) ) ) ) ) ) ) ) ) ) ) ) )  .] 7.7.7.] ] 7.7.7.U U U 8.;.<.<.<.<.>.>.>.>.;.] U A  . . . . .) ",
" . . . . . . . .) ) ) ) ) ) ) ) ) ) ) ) ) ) ) ) ) ) ) )  . . .A U U U ]  . .A U U U U U U 7.7.7.7.7.7.7.7.7.7.U U U U U U U ]  .",
"U U U U ] ] ] ] ..) ) ) ) ) ) ) ) ) ) ) ) ) ) ) ) ) ) ..] ] ] U U ]  . .) )  .] U U U U U U U U U U U U U U U U U U U U U U U U ",
"U U U ]  . . . .) ) ) ) ) ) ) ) ) ) ) ) ) ) ) ) ) ) ) )  . . . . . .) ) ) ) )  . . .A U U U U U U U U U U U U U U U U U U U U U ",
" . . . .) ) ) ) ) ) ) ) ) ) ) ) ) )  . . . . .) ) ) )  . . . . .) ) ) ) ) ) ) ) ) )  .U U A  . . . .A U U U U U U U U U U ]  ...",
") ) ) ) ) ) ) ) ) ) ) ) ) ) ) )  .| G K K K G  .) )  .G K K K G  .) ) ) ) -.<.<.<.-. .U U  .) ) ) )  .]  . . .] ]  . . . . .) ) ",
") ) ) ) ) ) ) ) ) ) ) ) ) ) )  .G K L L L J J G | | G J L L L L G  .) ) -.<.1.1.1.<.X.8.U  .) ) ) ) ) ..) ) )  . .) ) ) ) ) ) @.",
") ) ) ) ) ) ) ) ) ) ) ) ) )  .G J L 0.,.0.L J J K K J L 0.,.,.0.L G  .) <.1.1.1.1.1.<.;.7.]  .) ) ) ) ) ) ) ) ) ) ) ) <.<.<.<.<."
};
