/* XPM */
static char *rcp09520381825954[] = {
/* columns rows colors chars-per-pixel */
"64 64 199 2 ",
"   c #1D342E",
".  c #153334",
"X  c #173938",
"o  c #122D2F",
"O  c #3F3C2F",
"+  c #3C3334",
"@  c #6C1B1F",
"#  c #7D3A1C",
"$  c #521C21",
"%  c #6C1A21",
"&  c #631B22",
"*  c #542123",
"=  c #513E27",
"-  c #453535",
";  c #6D2326",
":  c #662021",
">  c #7E2627",
",  c #1B443A",
"<  c #174A37",
"1  c #1E513A",
"2  c #394935",
"3  c #25523A",
"4  c #4C4829",
"5  c #48563A",
"6  c #65593E",
"7  c #7C6632",
"8  c #756535",
"9  c #7C713A",
"0  c #1B4542",
"q  c #1C5A45",
"w  c #274A43",
"e  c #285843",
"r  c #375D46",
"t  c #266345",
"y  c #2B6C46",
"u  c #256E4B",
"i  c #266C47",
"p  c #227548",
"a  c #237A49",
"s  c #2A7346",
"d  c #35754A",
"f  c #3A7454",
"g  c #376D4E",
"h  c #495F44",
"j  c #525140",
"k  c #645843",
"l  c #47754A",
"z  c #537C4D",
"x  c #5B7E4D",
"c  c #577645",
"v  c #446E58",
"b  c #427750",
"n  c #4D7351",
"m  c #4B7B51",
"M  c #5D7C55",
"N  c #547A55",
"B  c #667B4A",
"V  c #767C4E",
"C  c #627D54",
"Z  c #666F65",
"A  c #812B19",
"S  c #8D391A",
"D  c #822627",
"F  c #832B29",
"G  c #8B2C2B",
"H  c #902E2C",
"J  c #94332C",
"K  c #9B392F",
"L  c #833231",
"P  c #9C3830",
"I  c #9C3730",
"U  c #A43D33",
"Y  c #8B461B",
"T  c #9B581A",
"R  c #934815",
"E  c #A25A1B",
"W  c #8C4C25",
"Q  c #915431",
"!  c #AE5D2A",
"~  c #A55429",
"^  c #A54232",
"/  c #AC4436",
"(  c #AF4836",
")  c #BA4E3B",
"_  c #BD543B",
"`  c #BF5A3A",
"'  c #8E633F",
"]  c #887537",
"[  c #8C712F",
"{  c #AC6A22",
"}  c #B97825",
"|  c #B97523",
" . c #BE6930",
".. c #C45C3C",
"X. c #C26F2E",
"o. c #C66937",
"O. c #D17C34",
"+. c #8F6C44",
"@. c #966D47",
"#. c #97714A",
"$. c #A0764A",
"%. c #A17850",
"&. c #906E63",
"*. c #9D7063",
"=. c #957866",
"-. c #A27A67",
";. c #298549",
":. c #288549",
">. c #3C834C",
",. c #378050",
"<. c #48854E",
"1. c #5C8148",
"2. c #568A4B",
"3. c #4D845C",
"4. c #4B8B55",
"5. c #5A8458",
"6. c #549156",
"7. c #569158",
"8. c #5A924E",
"9. c #6C844C",
"0. c #6A8548",
"q. c #738649",
"w. c #7D854F",
"e. c #758B4D",
"r. c #65974D",
"t. c #608158",
"y. c #678454",
"u. c #798251",
"i. c #6B955D",
"p. c #7A9B54",
"a. c #759D5D",
"s. c #739557",
"d. c #74A35E",
"f. c #7AA45E",
"g. c #7FAB5E",
"h. c #6EA15F",
"j. c #5F8B6E",
"k. c #6D956F",
"l. c #6C9161",
"z. c #73996C",
"x. c #7A9A6F",
"c. c #749768",
"v. c #668671",
"b. c #679175",
"n. c #6B9472",
"m. c #719671",
"M. c #7F9F73",
"N. c #75A362",
"B. c #7AA662",
"V. c #7AA962",
"C. c #C68428",
"Z. c #D18F2A",
"A. c #DD982C",
"S. c #D78235",
"D. c #E29D35",
"F. c #838651",
"G. c #888852",
"H. c #9C9F56",
"J. c #B19F54",
"K. c #8DAC4D",
"L. c #95AD4B",
"P. c #98AF4A",
"I. c #93B14D",
"U. c #9CB94E",
"Y. c #9AB14F",
"T. c #8DAF55",
"R. c #81AB5E",
"E. c #8AAE5C",
"W. c #9CA459",
"Q. c #8FB156",
"!. c #95B651",
"~. c #9AB751",
"^. c #9EB850",
"/. c #99B75B",
"(. c #8BB04D",
"). c #A0B94F",
"_. c #A4AA59",
"`. c #A3B950",
"'. c #AEB55B",
"]. c #A6B654",
"[. c #B3BA56",
"{. c #B4B55D",
"}. c #B6B959",
"|. c #BDBA5A",
" X c #BCB25B",
".X c #829E6B",
"XX c #82AA62",
"oX c #88AC61",
"OX c #82A668",
"+X c #ACB160",
"@X c #A3B278",
"#X c #B3B876",
"$X c #CCBB65",
"%X c #D4BA69",
"&X c #C7BC7D",
"*X c #B4C17B",
"=X c #DBC46E",
"-X c #DEC670",
";X c #A8BB82",
/* pixels */
"U.U.U.U.Q.n.b.b.b.n.T.T.n.b.b.b.m.{.|.|.|.|.{.x.m.b.x.{.|.|.|.|.|.{..X~.|.|.|.|.|.|.|.|.}.U.U.U.U.U.U.U.U.`.}.|.|.|.|.|.|.|.|.}.",
"!.!.U.!.z.b.m.m.b.b.n.n.b.m.m.b.m.+X|.|.|.|.|.{.+X.X+X|.|.|.|.|.|.|.{.}.|.|.|.|.|.|.|.|.}.`.U.U.U.U.U.}.}.}.|.|.|.|.|.|.|.|.}.`.",
"n.z.E.z.b.x.+X+Xx.b.b.b.x.+X+Xx.m.x.{.|.|.|.|.|.|.{.|.|.|.|.|.|.|.|.|.|.|.|.|.|.|.|.|.|.|.|.}.).U.U.).}.}.}.}.}.}.}.}.}.}.`.U.!.",
"b.m.z.b.m.+X|.|.+Xx.m.x.+X|.|.{.+X.X{.|.|.|.|.|.|.|.|.|.|.|.|.}.}.}.|.|.|.|.|.}.}.|.|.|.|.|.|.`.).U.U.).).).).).).).).).).U.!.z.",
"x.+X+Xx.x.{.|.|.|.{.{.{.|.|.|.|.|.{.|.|.|.}.}.}.}.|.|.|.|.}.`.).U.`.}.|.|.|.{.oXoX{.|.|.|.|.|.|.}.}.`.U.U.U.U.U.U.U.U.).^.!.T.n.",
"{.|.|.{.{.}.}.}.|.|.|.|.|.}.}.}.}.|.|.|.{.oXXXXXoX{.}.}.}.`.U.U.U.U.`.}.}.'.oXV.V.oX}.|.|.|.|.|.}.}.[.U.U.U.U.U.U.U.`.}.{..Xx.m.",
"|.|.|.|.}.`.U.`.}.|.|.|.}.`.U.^.^.{.}.{.oXV.V.V.V.oX^.`.[.).U.U.U.!.!.!.XXXXV.V.V.XX{.}.}.}.}.}.`.U.U.U.U.U.U.U.`.}.}.|.|.{.{.{.",
"|.|.|.}.`.U.U.U.`.|.|.}.`.U.!.R.V.XXXXXXV.V.V.V.V.R.!.U.U.U.U.U.!.R.V.V.V.V.V.V.V.V.!.).U.).).).U.U.U.U.U.U.`.}.}.}.}.}.|.|.|.|.",
"}.}.`.U.U.U.U.U.U.}.}.}.U.!.R.V.V.V.V.V.V.V.V.V.V.!.!.!.!.U.U.!.g.V.V.V.V.V.V.V.V.V.g.!.U.U.U.U.U.U.U.U.U.`.}.|.}.`.U.`.}.|.|.|.",
"U.U.U.U.U.U.U.U.U.U.`.[.^.!.V.V.V.V.V.V.V.V.V.V.V.V.V.V.R.!.!.g.V.V.V.V.g.!.!.R.V.V.V.g.!.!.U.U.U.U.U.U.[.}.}.}.`.U.U.U.`.}.}.}.",
"U.U.U.U.U.U.!.!.!.!.!.!.R.V.V.V.V.V.V.V.V.V.V.V.V.V.V.V.V.V.V.V.V.V.V.V.!.U.U.!.!.R.V.V.R.R.~.U.U.U.U.U.U.U.U.U.U.U.U.U.U.U.U.U.",
"U.U.U.U.U.~.R.R.R.V.V.V.V.V.V.g.!.!.!.g.V.V.V.V.V.V.V.V.V.V.V.V.V.V.V.V.!.U.U.U.U.!.!.!.!.!.U.U.U.U.U.U.U.U.!.!.!.U.U.U.U.U.U.U.",
"U.U.U.U.U.U.!.!.!.R.V.V.V.V.V.!.U.U.U.!.V.g.!.!.!.R.V.V.V.V.V.g.!.!.g.V.!.U.U.U.U.U.U.U.U.U.U.U.U.U.U.U.U.!.R.V.R.!.U.U.U.U.U.U.",
"U.U.U.U.U.U.U.U.U.~.!.!.R.V.R.!.U.U.U.!.R.!.U.U.U.!.!.R.V.V.R.T.I.U.!.R.R.~.U.U.U.U.U.U.U.U.!.!.!.U.U.U.!.g.V.V.V.R.!.U.U.U.U.U.",
"U.U.U.U.U.`.}.}.`.U.U.U.~.~.^.U.U.U.U.U.~.U.U.U.U.U.U.!.!.!.K.1.1.I.U.!.!.U.U.U.U.U.U.U.U.!.R.V.R.!.!.!.g.V.V.V.V.V.!.U.U.U.U.U.",
"U.U.U.U.`.}.|.|.}.`.U.U.`.}.}.}.}.`.U.U.U.U.U.U.U.U.U.!.!.K.1.s s 1.I.U.U.U.U.U.U.U.U.U.!.g.V.V.V.V.V.V.V.V.V.V.V.V.!.!.!.U.U.U.",
"!.!.`.}.|.|.|.|.|.|.}.}.}.|.|.|.}.[.'.~.U.U.!.!.!.!.!.R.f.m t :.:.i 1.I.!.!.!.U.U.U.U.!.g.V.V.V.V.V.B.B.B.V.V.V.V.V.V.V.R.!.!.!.",
"R.E.[.}.|.|.|.|.|.|.|.|.|.|.|.{.oXXXXXR.!.!.R.V.V.V.V.V.N e p a a p e N V.V.R.!.!.!.!.g.V.V.V.V.V.V.V.B.V.V.V.V.V.V.V.V.V.V.V.V.",
"~.~.U.).`.}.|.|.|.|.|.|.}.}.'.oXV.V.V.V.g.V.V.V.V.V.V.V.n w t t t t w n V.V.V.V.V.V.V.N.V.V.V.V.V.V.B.B.V.V.V.V.V.V.V.V.V.V.V.V.",
"U.U.U.U.).].|.|.|.|.|.}.`.E.R.R.!.!.!.R.V.V.V.V.V.V.V.a.6 $ * * * * $ 6 a.V.V.N.n.n.n.n.N.V.V.V.V.V.V.V.V.N.N.N.N.V.V.V.g.!.!.!.",
").`.}.}.}.}.|.|.|.|.|.`.U.!.!.!.U.U.!.!.!.!.Q.V.V.V.a.6 ; G J K K J G ; k c.N.n.b.b.b.b.k.E.!.!.!.!.!.!.T.k.n.n.n.N.N.V.!.U.U.U.",
"}.}.|.|.|.|.|.|.|.|.}.).U.U.U.U.U.~.R.R.V.V.V.N.i.s.6 ; G P / ) ) / P G ; k l.j.v.b.b.b.b.n.n.n.n.z.Q.Q.z.m.m.m.b.n.n.B.!.U.U.U.",
"}.}.}.}.}.|.|.|.|.|.`.U.U.U.U.U.U.U.!.!.R.V.N.m w - ; G I / ` o.o.` / I G ; - w v k.b.b.b.b.m.m.m.m.n.n.x.+X{.+Xx.b.b.k.!.^.`.}.",
").U.U.U.`.}.|.|.|.|.`.U.U.U.U.U.U.U.U.U.!.T.m t 2 & D J ^ X.D.D.D.D.X.^ J D & 2 t C m.b.b.x.+X{.{.+Xx.x.+X|.|.|.+Xx.m.m..X{.}.}.",
"U.U.U.U.U.`.}.}.|.|.}.`.}.}.`.U.U.U.U.U.I.1.y s O % J ! Z.A.O.` ` O.A.Z.! J % O s y C k.x.+X|.|.|.|.{.{.|.|.|.|.|.{.{.{.{.}.`.).",
").).U.U.U.U.U.`.}.|.|.}.}.}.[.`.U.U.U.U.0.y ;.2 : D ~ C.Z.S...^ / ..S.Z.C.~ D : 2 ;.y N +X|.|.|.|.|.|.|.|.|.|.|.|.|.|.|.|.}.).).",
"}.}.`.U.U.U.U.U.`.}.}.}.`.).`.[.U.U.U.I.c i a 4 A ~ } C.X._ / F F / _ X.C.} ~ A 4 a i C {.|.|.|.|.|.|.|.|.|.|.|.|.|.|.|.|.|.].}.",
"|.|.}.).U.U.U.U.U.).).).U.U.U.U.U.I.K.1.s ;.p 4 R { }  ._ ) / > > / ) _  .} { R 4 p ;.d 9._.{.}.}.|.|.|.|.|.|.|.|.|.|.|.|.|.|.|.",
"|.|.}.).U.`.}.}.`.U.U.U.U.U.U.U.U.0.r d :.p t = S { ! ( ) ) ^ L L ^ ) ) ( ! { S = t p :.d h e.`.`.}.}.|.}.`.`.}.|.|.|.|.|.|.|.|.",
"|.|.|.`.`.}.|.|.}.}.`.U.U.U.U.U.U.I.K.1.e e 1.8 # E ~ / ) / F *.*.F / ) / ~ E # 8 x e r 9.L.I.U.U.U.`.[.`.U.U.`.|.|.|.|.|.|.|.|.",
"|.|.|.|.}.|.|.|.|.}.}.}.}.}.}.}.}.}.[.I.K.K.I.L.[ A J / ) / > ' ' > / ) / J A [ L.I.K._.Y.U.U.U.U.U.U.U.U.U.U.U.}.|.|.|.|.}.}.}.",
"}.}.}.}.}.}.}.}.}.`.U.U.^.~.^.^.~.~.U.U.U.U.U.U.8 @ H / / P L +.+.L I / / H @ 8 U.U.U.[.U.U.U.U.U.U.U.U.U.U.U.U.}.}.}.}.}.`.U.U.",
").U.).).U.U.U.U.U.U.!.!.R.V.V.V.V.g.!.U.!.!.!.!.8 % H / / F *.&X&X*.F / / H % 8 U.U.U.U.U.U.U.U.U.U.U.U.U.U.U.U.U.U.U.U.U.U.U.U.",
"U.U.U.U.U.U.U.U.!.!.R.V.V.V.V.V.V.V.g.!.g.V.V.R.8 % J U P L #. X X#.L P U J % 8 U.U.U.U.!.!.!.U.U.U.U.U.U.U.U.U.U.U.U.U.U.U.U.U.",
"U.U.U.U.U.U.U.!.R.V.V.V.V.V.V.V.V.V.V.V.V.V.V.f.7 S U U F -.&X$X$X&X-.F U U S [ L.U.U.!.R.V.R.!.U.U.U.U.U.U.U.U.U.U.U.U.U.U.U.U.",
"U.U.U.U.U.!.!.g.V.V.V.V.V.V.V.V.V.V.V.V.V.V.V.9 T ! K L ' J.$X=X=X$XJ.' L K ! T 9 !.!.R.V.V.V.g.!.U.U.U.U.U.U.!.!.!.U.U.U.U.U.U.",
"U.U.U.!.!.R.V.V.V.V.g.!.!.!.!.!.g.V.V.V.V.V.f.7 E | W =.=.+.%X-X-X%X+.=.=.W | E 7 f.V.R.!.!.g.V.g.!.U.U.U.U.!.R.V.R.!.U.U.U.!.!.",
"!.U.~.R.R.V.V.V.V.R.!.U.U.U.U.U.!.V.V.g.!.!.] T T Y ] B.5.j %.%X%X%.j 5.OX] Y T T 9 R.!.U.U.!.R.V.R.~.U.U.!.g.V.V.V.g.!.!.!.R.V.",
"R.!.!.!.!.!.!.!.!.!.U.U.U.U.U.U.U.R.R.!.U.U.[ Y ] #X*Xr.2.@X&.$.$.&.@X2.r.*X#X] Y ] !.U.U.!.!.!.!.!.U.U.!.R.V.V.V.V.V.V.V.V.V.V.",
"V.R.R.R.~.U.U.U.U.U.U.U.U.U.U.U.U.U.U.U.U.U.P.#X*X/./.8.2.c - #.#.- c 2.2./.oX;X#XP.!.!.!.R.V.V.R.!.U.U.!.V.V.V.V.V.V.V.V.V.V.V.",
"!.!.!.!.U.U.U.U.!.!.!.!.!.U.U.!.!.!.U.U.U.U.~.OXM.k.n.3.e , v.&.&.Z , u 4.V.V.OXoX!.R.V.V.V.V.V.V.g.!.!.g.V.V.g.!.!.!.R.V.V.V.V.",
"U.U.U.U.U.U.U.!.z.n.n.n.z.Q.Q.z.n.z.!.U.`.}.'._._.x.n.j.f q w + + , , u 4.N.V.N.h.d.N.V.V.V.V.V.V.V.V.V.V.V.V.!.U.U.U.!.!.~.!.~.",
"U.U.U.U.U.!.!.z.m.m.m.m.b.n.n.m.m.b.z.!.].'.p.<.p._.W.N u q . . 0 X 2 f u 3.d.6.,.,.6.d.d.N.V.V.V.V.V.V.V.V.R.!.U.U.U.U.U.U.U.U.",
"U.U.!.!.Q.z.z.x.+X{.{.+Xx.m.x.+X+Xx.z.s.<.<.p._.s.b d l g < . X 0 . 5 z f v g y.a.a.6.>.>.6.f.!.!.!.g.V.V.V.!.!.!.!.!.!.!.U.U.U.",
"^.!.z.z.z.x.+X{.|.|.|.|.{.{.{.|.|.{.p.p.'.'.{.H.F.u.h   1 < o X 0 . 5 x z u.u.G.G.s.f.K.(.r.r.U.U.U.!.V.V.V.V.V.V.V.V.V.R.!.!.!.",
"{..Xx.+X{.{.|.|.|.|.}.}.}.|.|.|.|.|.}.}.|.|.W.y.M M V l 3   . . . . 5 w.x x F.G.G.G.W.`.U.I.I.U.U.U.!.V.V.V.V.V.XXXXXXXXXXR.R.R.",
"}.{.{.}.}.}.|.|.}.'.oXXXoX'.}.|.|.}.}.{.}.'.s.M b d d x V V 5     5 0.q.w.x x w.w.F._.}.[.U.U.U.U.U.!.V.XXXXXXoX'.}.}.}.}.}.}.}.",
"U.U.U.U.U.`.}.}.E.R.V.V.V.XXoX'.'.oXXXXXXXXXi.b b N N M C C B B B 0.q.q.q.q.z d d x W.}.`.U.U.U.U.~.R.R.'.[.[.[.}.}.}.}.}.}.}.}.",
"U.U.U.U.U.U.).U.~.!.!.!.R.V.V.oXXXV.V.V.V.V.7.m 5.M M M M M M C C 9.q.q.q.q.9.0.9.2.r.~.!.U.U.U.U.U.!.~.U.U.U.U.U.U.U.U.U.U.).).",
"U.U.U.U.U.U.U.U.U.U.U.U.!.!.!.!.R.V.V.V.V.V.N.N.N.i.t.t.t.M M M M C M C e.e.e.s.f.f.f.V.R.!.U.U.U.U.U.U.U.U.U.U.U.U.U.U.U.U.U.).",
"}.}.}.`.U.U.U.U.U.U.U.U.U.U.U.U.!.!.!.Q.V.V.V.V.V.V.N.N.N.i.t.t.t.t.t.i.f.f.f.N.V.XXXXXXV.!.U.U.U.U.U.U.U.U.U.U.U.U.U.U.U.U.`.}.",
"|.|.|.}.`.U.U.U.U.U.U.!.!.!.!.!.R.V.V.V.V.V.g.!.!.!.g.V.V.N.N.N.N.N.f.f.V.V.V.V.oX'.}.'.E.~.U.U.U.U.U.U.U.U.U.U.U.U.U.U.U.`.}.|.",
"}.}.}.|.}.}.}.`.U.U.~.R.R.R.R.R.V.V.V.V.V.g.!.U.U.U.!.V.V.V.V.V.V.R.!.!.~.~.!.~.[.|.|.|.}.`.U.U.U.U.U.U.U.U.U.U.U.U.[.}.}.}.|.|.",
"U.).`.}.|.|.|.}.`.U.U.!.!.!.!.!.!.!.!.!.!.!.U.U.U.U.!.R.V.V.R.!.!.~.U.`.}.}.`.`.}.|.|.|.|.}.U.U.U.U.U.U.U.U.U.U.U.U.U.`.}.}.|.}.",
"U.U.U.`.}.}.}.}.[.U.U.U.U.U.U.U.U.U.U.U.U.U.U.U.U.U.U.!.!.!.!.U.U.`.}.}.|.|.}.}.|.}.}.}.|.}.`.U.U.U.U.U.U.U.U.U.U.U.U.U.U.`.[.`.",
"U.U.U.U.).).).).U.U.U.U.U.U.U.U.U.U.U.U.U.U.U.U.U.U.U.U.U.U.U.U.~.'.}.}.}.}.}.}.'.oXXXoX{.|.}.}.}.}.`.U.U.U.U.~.!.~.U.U.U.U.U.U.",
"U.U.U.U.U.U.U.U.U.U.U.U.U.U.U.U.U.U.U.U.U.U.U.U.U.U.U.U.U.U.U.!.R.XXXXXXR.R.XXXXXXV.V.V.oX'.}.}.}.}.[.[.[.[.'.R.V.g.!.!.!.!.!.U.",
"!.!.!.!.!.!.!.!.U.U.U.U.U.U.U.U.U.U.U.U.U.U.U.U.U.U.U.U.!.!.!.g.V.V.V.R.!.!.g.V.V.V.V.V.V.XXXXXXXXXXXXXXXXXXXXV.V.V.V.V.V.V.R.!.",
"V.V.V.V.R.R.R.R.~.U.U.U.U.U.U.U.U.U.U.U.U.U.U.U.U.U.U.~.R.R.R.V.V.R.!.!.U.U.!.R.V.V.V.V.V.V.V.V.V.V.V.V.V.V.V.V.V.V.V.V.V.V.V.V.",
"V.V.V.R.!.!.!.!.U.U.U.U.U.U.U.U.U.U.U.U.U.U.U.U.U.U.U.U.!.!.!.!.!.!.U.U.U.U.U.!.!.!.g.V.V.V.V.V.V.V.V.V.V.V.V.V.V.V.V.B.V.V.V.V.",
"!.!.!.!.U.U.U.U.U.U.U.U.U.U.U.U.U.U.!.!.!.!.!.U.U.U.U.!.!.!.!.!.U.U.U.U.U.U.U.U.U.U.!.V.V.g.!.!.!.!.g.V.V.V.V.V.V.V.V.V.V.R.!.~.",
"U.U.U.U.U.U.U.U.U.U.U.U.U.U.U.U.!.Q.z.n.n.n.z.!.U.U.!.z.n.n.n.z.!.U.U.U.U.`.}.}.}.`.!.V.V.!.U.U.U.U.!.R.!.!.!.R.R.!.!.!.!.!.U.U.",
"U.U.U.U.U.U.U.U.U.U.U.U.U.U.U.!.z.n.m.m.m.b.b.z.Q.Q.z.b.m.m.m.m.z.!.U.U.`.}.|.|.|.}.^.oXV.!.U.U.U.U.U.~.U.U.U.!.!.U.U.U.U.U.U.).",
"U.U.U.U.U.U.U.U.U.U.U.U.U.U.!.z.b.m.+X{.+Xm.b.b.n.n.b.m.+X{.{.+Xm.z.!.U.}.|.|.|.|.|.}.'.XXR.!.U.U.U.U.U.U.U.U.U.U.U.U.}.}.}.}.}."
};
