/* XPM */
static char *rcp09515931820239[] = {
/* columns rows colors chars-per-pixel */
"64 64 211 2 ",
"   c #112D2D",
".  c #1C332E",
"X  c #12332E",
"o  c #153434",
"O  c #1A3C3D",
"+  c #143B32",
"@  c #253B2F",
"#  c #273C33",
"$  c #6E3015",
"%  c #763514",
"&  c #541F22",
"*  c #6E1D23",
"=  c #552425",
"-  c #593123",
";  c #432229",
":  c #622722",
">  c #632B25",
",  c #7B2426",
"<  c #782728",
"1  c #653329",
"2  c #7A3233",
"3  c #7B3E36",
"4  c #7E3F39",
"5  c #6A3D38",
"6  c #1B443C",
"7  c #1A583D",
"8  c #264A3F",
"9  c #36493A",
"0  c #7F4018",
"q  c #7A4C3D",
"w  c #184741",
"e  c #2C5B43",
"r  c #245E44",
"t  c #335D45",
"y  c #3C5C45",
"u  c #365647",
"i  c #334947",
"p  c #1C6041",
"a  c #2B6540",
"s  c #266948",
"d  c #356645",
"f  c #396445",
"g  c #376A46",
"h  c #267D48",
"j  c #2C7D49",
"k  c #287549",
"l  c #33754D",
"z  c #3B794B",
"x  c #337747",
"c  c #387651",
"v  c #405840",
"b  c #794B44",
"n  c #416448",
"m  c #436C48",
"M  c #477C4C",
"N  c #5D7247",
"B  c #557A54",
"V  c #5D7B55",
"C  c #57725A",
"Z  c #4A7057",
"A  c #687748",
"S  c #617D54",
"D  c #6C7F50",
"F  c #767A4C",
"G  c #803A17",
"H  c #802427",
"J  c #872A27",
"K  c #8D3525",
"L  c #94342E",
"P  c #98362F",
"I  c #9B3B2E",
"U  c #9A3730",
"Y  c #9E3931",
"T  c #953631",
"R  c #A23C32",
"E  c #854417",
"W  c #8F4D1A",
"Q  c #964D1C",
"!  c #88511C",
"~  c #9F551C",
"^  c #A9661F",
"/  c #B4701F",
"(  c #8D5A25",
")  c #814539",
"_  c #97552B",
"`  c #A2462E",
"'  c #AD502F",
"]  c #A84532",
"[  c #B64B39",
"{  c #B94E3B",
"}  c #B14738",
"|  c #BA523A",
" . c #BD5938",
".. c #AC6624",
"X. c #B16C22",
"o. c #BC7529",
"O. c #B97625",
"+. c #C25E3A",
"@. c #C37B2B",
"#. c #CE6C3C",
"$. c #C56439",
"%. c #845942",
"&. c #2C8549",
"*. c #268249",
"=. c #3B824D",
"-. c #3E8451",
";. c #42834B",
":. c #4B884D",
">. c #578A4F",
",. c #498654",
"<. c #548756",
"1. c #6D8A4A",
"2. c #74854A",
"3. c #7A854E",
"4. c #758C4C",
"5. c #769B4E",
"6. c #628156",
"7. c #618358",
"8. c #6E8155",
"9. c #718653",
"0. c #788953",
"q. c #679C5D",
"w. c #68985C",
"e. c #7C9B56",
"r. c #729D5D",
"t. c #7A9858",
"y. c #6A914A",
"u. c #7FA04C",
"i. c #79A45E",
"p. c #7FAB5E",
"a. c #75A35B",
"s. c #6EA15F",
"d. c #588567",
"f. c #6C966C",
"g. c #689467",
"h. c #739E60",
"j. c #73996C",
"k. c #7A9A6F",
"l. c #679175",
"z. c #6B9472",
"x. c #719671",
"c. c #638C71",
"v. c #76A363",
"b. c #79A662",
"n. c #7BA962",
"m. c #6FA160",
"M. c #828A3F",
"N. c #C78728",
"B. c #C28226",
"V. c #D9922E",
"C. c #DE9632",
"Z. c #E4A137",
"A. c #83874A",
"S. c #9D8146",
"D. c #939B42",
"F. c #858C53",
"G. c #8A9856",
"H. c #949554",
"J. c #889343",
"K. c #AE9454",
"L. c #81A14B",
"P. c #8CAB4D",
"I. c #83AB4D",
"U. c #91A347",
"Y. c #92A64A",
"T. c #91AB4E",
"R. c #8CB04D",
"E. c #95B34F",
"W. c #99B74D",
"Q. c #9CB94E",
"!. c #8CAE55",
"~. c #81AB5E",
"^. c #8AAE5C",
"/. c #86AB51",
"(. c #9DAB56",
"). c #98A656",
"_. c #8FB156",
"`. c #95B651",
"'. c #9AB751",
"]. c #9EB850",
"[. c #91B15A",
"{. c #A0B94F",
"}. c #A6AA57",
"|. c #B9A25B",
" X c #A2B553",
".X c #A3B950",
"XX c #AEB65B",
"oX c #AFBA55",
"OX c #B3BA56",
"+X c #B4B55D",
"@X c #B6B959",
"#X c #BDBA5A",
"$X c #BBB35A",
"%X c #829E6B",
"&X c #82AA62",
"*X c #88AC61",
"=X c #89AA65",
"-X c #ACB160",
";X c #BAB666",
":X c #C4A461",
">X c #C2B462",
",X c #D2BE66",
"<X c #DBC26E",
"1X c #D7C16B",
"2X c #DEC670",
"3X c #9E9584",
"4X c #AD9C86",
"5X c #B8AD8B",
"6X c #C2AF8B",
"7X c #C5B28D",
"8X c #BDC092",
/* pixels */
"Q.Q.Q.Q._.z.l.l.l.z.!.!.z.l.l.l.x.+X#X#X#X#X+Xk.x.l.k.+X#X#X#X#X#X+X%X'.#X#X#X#X#X#X#X#X@XQ.Q.Q.Q.Q.Q.Q.Q..X@X#X#X#X#X#X#X#X#X@X",
"`.`.Q.[.j.l.x.x.l.l.z.z.l.x.x.l.x.-X#X#X#X#X#X+X-X%X-X#X#X#X#X#X#X#X+X@X#X#X#X#X#X#X#X#X@X.XQ.Q.Q.Q.Q.@X@X@X#X#X#X#X#X#X#X#X@X.X",
"z.j.^.j.l.k.-X-Xk.l.l.l.k.-X-Xk.x.k.+X#X#X#X#X#X#X+X#X#X#X#X#X#X#X#X#X#X#X#X#X#X#X#X#X#X#X#X@X{.Q.Q.{.@X@X@X@X@X@X@X@X@X@X.XQ.`.",
"l.x.j.l.x.-X#X#X-Xk.x.k.-X#X#X+X-X%X+X#X#X#X#X#X#X#X#X#X#X#X#X@X@X@X#X#X#X#X#X@X@X#X#X#X#X#X#X.X{.Q.Q.{.{.{.{.{.{.{.{.{.{.Q.`.j.",
"k.-X-Xk.k.+X#X#X#X+X+X+X#X#X#X#X#X+X#X#X#X@X@X@X@X#X#X#X#X@X.X{.Q..X@X#X#X#X+X*X*X+X#X#X#X#X#X#X@X@X.XQ.Q.Q.Q.Q.Q.Q.Q.{.].`.!.z.",
"+X#X#X+X+X@X@X@X#X#X#X#X#X@X@X@X@X#X#X#X+X*X&X&X*X+X@X@X@X.XQ.Q.Q.Q..X@X@XXX*Xn.n.*X@X#X#X#X#X#X@X@XOXQ.Q.Q.Q.Q.Q.Q..X@X+X%Xk.x.",
"#X#X#X#X@X.XQ..X@X#X#X#X@X.XQ.].].+X@X+X*Xn.n.n.n.*X]..XOX{.Q.Q.Q.`.`.`.&X&Xn.n.n.&X+X@X@X@X@X@X.XQ.Q.Q.Q.Q.Q.Q..X@X@X#X#X+X+X+X",
"#X#X#X@X.XQ.Q.Q..X#X#X@X.XQ.`.~.n.&X&X&Xn.n.n.n.n.~.`.Q.Q.Q.Q.Q.`.~.n.n.n.n.n.n.n.n.`.{.Q.{.{.{.Q.Q.Q.Q.Q.Q..X@X@X@X@X@X#X#X#X#X",
"@X@X.XQ.Q.Q.Q.Q.Q.@X@X@XQ.`.~.n.n.n.n.n.n.n.n.n.n.[.`.`.`.Q.Q.`.p.n.n.n.n.n.n.n.n.n.p.`.Q.Q.Q.Q.Q.Q.Q.Q.Q..X@X#X@X.XQ..X@X#X#X#X",
"Q.Q.Q.Q.Q.Q.Q.Q.Q.Q..XOX].`.n.n.n.n.n.n.n.n.n.n.n.n.n.n.~.`.`.p.n.n.n.n.p.`.`.~.n.n.n.p.`.`.Q.Q.Q.Q.Q.Q.OX@X@X@X.XQ.Q.Q..X@X@X@X",
"Q.Q.Q.Q.Q.Q.`.`.`.`.`.`.~.n.n.n.n.n.n.n.n.n.n.n.n.n.n.n.n.n.n.n.n.n.n.n.`.Q.Q.`.`.~.n.n.~.~.'.Q.Q.Q.Q.Q.Q.Q.Q.Q.Q.Q.Q.Q.Q.Q.Q.Q.",
"Q.Q.Q.Q.Q.'.~.~.~.n.n.n.n.n.n.p.`.`.`.p.n.n.n.n.n.n.n.n.n.n.n.n.n.n.n.n.`.Q.Q.Q.Q.`.`.`.`.`.Q.Q.Q.Q.Q.Q.Q.Q.`.`.`.Q.Q.Q.Q.Q.Q.Q.",
"Q.Q.Q.Q.Q.Q.`.`.`.~.n.n.n.n.n.`.Q.Q.Q.`.n.p.`.`.`.~.n.n.n.n.n.p.`.`.p.n.`.Q.Q.Q.Q.Q.Q.Q.Q.Q.Q.Q.Q.Q.Q.Q.Q.`.~.n.~.`.Q.Q.Q.Q.Q.Q.",
"Q.Q.Q.Q.Q.Q.Q.Q.Q.'.`.`.~.n.~.`.Q.Q.Q.`.~.`.Q.Q.Q.`.`.~.n.n.p./.W.Q.`.~.~.'.Q.Q.Q.Q.Q.Q.Q.Q.`.`.`.Q.Q.Q.`.p.n.n.n.~.`.Q.Q.Q.Q.Q.",
"Q.Q.Q.Q.Q..X@X@X.XQ.Q.Q.'.'.].Q.Q.Q.Q.Q.'.Q.Q.Q.Q.Q.Q.`.`.`.u.m L.W.Q.`.`.Q.Q.Q.Q.Q.Q.Q.Q.`.~.n.~.`.`.`.p.n.n.n.n.n.`.Q.Q.Q.Q.Q.",
"Q.Q.Q.Q..X@X#X#X@X.XQ.Q..X@X@X@X@X.XQ.Q.Q.Q.Q.Q.Q.Q.Q.`.`.u.d k f L.W.Q.Q.Q.Q.Q.Q.Q.Q.Q.`.p.n.n.n.n.n.n.n.n.n.n.n.n.`.`.`.Q.Q.Q.",
"`.`..X@X#X#X#X#X#X#X@X@X@X#X#X#X@XOXXX'.Q.Q.`.`.`.`.`.p.w.d k *.k d L.`.`.`.`.Q.Q.Q.Q.`.p.n.n.n.n.n.b.b.b.b.n.n.n.n.n.n.~.`.`.`.",
"~.^.OX@X#X#X#X#X#X#X#X#X#X#X#X+X*X&X&X~.`.`.~.n.n.n.n.r.u r s k s r y r.n.n.~.`.`.`.`.p.n.n.n.n.n.n.n.b.b.n.n.n.n.n.n.n.n.n.n.n.",
"'.'.Q.{..X@X#X#X#X#X#X#X@X@XXX*Xn.n.n.n.n.n.n.n.n.n.b.9.= & = = = & = 9.b.n.n.n.b.b.b.v.b.n.n.n.n.n.b.b.n.n.n.n.n.n.n.n.n.n.n.n.",
"Q.Q.Q.Q.{..X#X#X#X#X#X@X X^.~.~.`.`.`.~.n.n.n.n.n.b.9.1 , L P P P L , 1 9.b.b.v.z.z.z.z.v.n.n.n.n.n.n.n.n.v.v.v.v.b.n.n.p.`.`.`.",
"{..X@X@X@X@X#X#X#X#X#X.XQ.`.`.`.Q.Q.`.`.`.`._.n.b.9.1 , P R [ { [ R P , 1 9.v.z.l.l.l.l.f.!.[.[.[.[.`.`.!.f.z.z.z.v.v.n.`.Q.Q.Q.",
"@X@X#X#X#X#X#X#X#X#X@X{.Q.Q.Q.Q.Q.'.~.~.n.n.n.r.9.1 , P R | +.#.+.| R P , - 8.c.l.l.l.l.l.z.z.z.z.j._._.j.x.x.x.l.l.z.b.`.Q.Q.Q.",
"@X@X@X@X@X#X#X#X#X#X.XQ.Q.Q.Q.Q.Q.Q.`.`.~.n.w.y = , J I ' V.Z.C.Z.V.' I J , = u d.z.l.l.l.l.x.x.x.x.z.z.k.-X+X-Xk.l.l.f.[.]..X@X",
"{.Q.Q.Q..X@X#X#X#X#X.XQ.Q.Q.Q.Q.Q.Q.Q.Q.`.5.d g = H ` o.V.V.$. .$.V.V.o.` H = g f G.j.l.l.k.-X+X+X-Xk.k.-X#X#X#X-Xk.x.x.%X+X@X@X",
"Q.Q.Q.Q.Q..X@X@X#X#X@X.X@X@X.XQ.Q.Q.Q.Q.P.f x - , K o.N.V.#.[ R [ #.V.N.o.K , - x n ).x.k.-X#X#X#X#X+X+X#X#X#X#X#X+X+X+X+X@X.X{.",
"{.{.Q.Q.Q.Q.Q..X@X#X#X@X@X@XOX.XQ.Q.Q.W.u.e a $ K ..B.@.+.| Y , Y | +.@.B...K $ a t H.%X-X#X#X#X#X#X#X#X#X#X#X#X#X#X#X#X#X@X{.{.",
"@X@X.XQ.Q.Q.Q.Q..X@X@X@X.X{..XOXQ.Q.Q.P.f &.a % ^ O.o. .{ [ U * U [ {  .o.O.^ % a &.n }.#X#X#X#X#X#X#X#X#X#X#X#X#X#X#X#X#X#X.X@X",
"#X#X@X{.Q.Q.Q.Q.Q.{.{.{.Q.Q.Q.Q.Q.Q.W.u.e h a % ~ X.] { { } T 2 T } { { ] X.~ % a h t ).#X#X#X@X@X#X#X#X#X#X#X#X#X#X#X#X#X#X#X#X",
"#X#X@X{.Q..X@X@X.XQ.Q.Q.Q.Q.Q.Q.Q.W.L.g &.h 8 - Q ..` [ { Y 2 4X2 Y { [ ` ..Q - 8 h &.m ).@X@X.X.X@X@X#X@X.X.X@X#X#X#X#X#X#X#X#X",
"#X#X#X.X.X@X#X#X@X@X.XQ.Q.{.Q.Q.Q.T.f j h s t M.G K Y [ [ P < K.< P [ [ Y J G A.t s h j n T.Q.Q.Q.Q..XOX.XQ.Q..X#X#X#X#X#X#X#X#X",
"#X#X#X#X@X#X#X#X#X@X@X@X@X@X@X@X@X}.y e e f L.U.: H Y [ R L 4 S.4 L R [ Y H : U.L.f e t y P.Q.Q.Q.Q.Q.Q.Q.Q.Q.Q.@X#X#X#X#X@X@X@X",
"@X@X@X@X@X@X@X@X@X.XQ.Q.].'.'.'.'.'.P.P.P.P.W.U.: H Y } U 2 6X;X6X2 P } Y H : U.W.P.P.(.T.W.Q.Q.Q.Q.Q.Q.Q.Q.Q.Q.@X@X@X@X@X.XQ.Q.",
"{.Q.{.{.Q.Q.Q.Q.Q.Q.`.`.~.n.n.n.n.~.`.Q.`.`.E.J.: H Y R L 4 |.$X|.4 L R Y H : U.Q.Q.Q.Q.Q.Q.Q.Q.Q.Q.Q.Q.Q.Q.Q.Q.Q.Q.Q.Q.Q.Q.Q.Q.",
"Q.Q.Q.Q.Q.Q.Q.Q.`.`.~.n.n.n.n.n.n.n.p.`.~.n.t.1 % P ] L ) 7X>X,X>X7X) L ] P 1 D.W.Q.Q.Q.`.`.`.Q.Q.Q.Q.Q.Q.Q.Q.Q.Q.Q.Q.Q.Q.Q.Q.Q.",
"Q.Q.Q.Q.Q.Q.Q.`.~.n.n.n.n.n.n.n.n.n.n.n.n.n.t.0 X.` P 3 S.>X1X2X1X>XS.3 P ` X.! Y.Q.Q.`.~.n.~.`.Q.Q.Q.Q.Q.Q.Q.Q.Q.Q.Q.Q.Q.Q.Q.Q.",
"Q.Q.Q.Q.Q.`.`.p.n.n.n.n.n.n.n.n.n.n.n.n.n.n.t.E O.X._ 5X%.|.<X2X<X|.%.5X_ X.O.E G.`.`.~.n.n.n.p.`.Q.Q.Q.Q.Q.Q.`.`.`.Q.Q.Q.Q.Q.Q.",
"Q.Q.Q.`.`.~.n.n.n.n.p.`.`.`.`.`.p.n.n.n.n.n.e.E / W G.=XH.%.:X<X:X%.H.;XK.W / E t.n.n.~.`.`.p.n.p.`.Q.Q.Q.Q.`.~.n.~.`.Q.Q.Q.`.`.",
"`.Q.'.~.~.n.n.n.n.~.`.Q.Q.Q.Q.Q.`.n.n.p.`.`.Y.! ^ ( 5Xv.<.5X) |.q 3X<.b.8X( ^ ! e.n.~.`.Q.Q.`.~.n.~.'.Q.Q.`.p.n.n.n.p.`.`.`.~.n.",
"~.`.`.`.`.`.`.`.`.`.Q.Q.Q.Q.Q.Q.`.~.~.`.Q.Q.W.D.( D.[.;.u.G.q K.5 9 5.M [.D.( D.E.`.`.Q.Q.`.`.`.`.`.Q.Q.`.~.n.n.n.n.n.n.n.n.n.n.",
"n.~.~.~.'.Q.Q.Q.Q.Q.Q.Q.Q.Q.Q.Q.Q.`.`.R.R.R.R.`.Y.`./.z y.v 3Xb 3X9 y.z P.`.e.p./.R.P.P.`.~.n.n.~.`.Q.Q.`.n.n.n.n.n.n.n.n.n.n.n.",
"`.`.`.`.Q.Q.Q.Q.`.`.`.`.`.Q.Q.`.`.`.I.:.;.;.:.g.f.f.g.l 6 6 # ; i o s j i.n.m.q.;.=.=.-.q.b.n.n.n.p.`.`.p.n.n.p.`.`.`.~.n.n.n.n.",
"Q.Q.Q.Q.Q.Q.Q.[.j.z.z.z.j._._.j.z.f.:.I.E. X).>.,.g.z.d.s w   O w X r k w.w.c -.q.s.s.q.,.v.n.n.n.n.n.n.n.n.n.`.Q.Q.Q.`.`.'.`.'.",
"Q.Q.Q.Q.Q.`.[.j.x.x.x.x.l.z.z.x.x.l.f.'.@X#X#XXX).M t.s s 6   w w . N k s l w.i.b.n.n.n.a.b.n.n.n.n.n.n.n.n.~.`.Q.Q.Q.Q.Q.Q.Q.Q.",
"Q.Q.`.`._.j.j.k.-X+X+X-Xk.x.k.-X-Xk.k.+X#X#X#X$X}.9 e + p o O w w . A z Z C F.}.&Xb.n.`.`.~.~.`.`.`.p.n.n.n.[.`.`.`.`.`.`.Q.Q.Q.",
"].[.j.j.j.k.-X+X#X#X#X#X+X+X+X#X#X+X+X#X#X#X}.F.3.A # X 7   o O O . F 9.M 8.3.F.0.i.~.'.Q.`.`.Q.Q.Q.`.n.n.n.n.n.n.n.n.n.~.`.`.`.",
"+X%Xk.-X+X+X#X#X#X#X@X@X@X#X#X#X#X#X#X#X#X(.:.l l B A d @ . o o o # A A.3.M z z z :.). XQ.Q.Q.Q.Q.Q.`.n.n.n.n.n.&X&X&X&X&X~.~.~.",
"@X+X+X@X@X@X#X#X@XXX*X&X*XXX@X#X#X@X@X@XXX>.B B B l c D F A # . @ N 2.2.A.3.3.3.3.3.>.XXOXQ.Q.Q.Q.Q.`.n.&X&X&X*XXX@X@X@X@X@X@X@X",
"Q.Q.Q.Q.Q..X@X@X^.~.n.n.n.&X*XXXXX*X&X&X&Xr.7.V V B B S S S A A A 2.2.2.2.2.2.2.2.H.}.@X.XQ.Q.Q.Q.'.~.&XXXOXOXOX@X@X@X@X@X@X@X@X",
"Q.Q.Q.Q.Q.Q.{.Q.'.`.`.`.~.n.n.*X&Xn.n.n.n.b.h.7.6.V V V V V V S S 2.2.2.2.2.2.4.4.T.'.'.`.Q.Q.Q.Q.Q.`.'.Q.Q.Q.Q.Q.Q.Q.Q.Q.Q.{.{.",
"Q.Q.Q.Q.Q.Q.Q.Q.Q.Q.Q.Q.`.`.`.`.~.n.n.n.n.n.b.v.h.7.6.6.6.V V V V V S 6.4.4.4.i.i.n.n.n.~.`.Q.Q.Q.Q.Q.Q.Q.Q.Q.Q.Q.Q.Q.Q.Q.Q.Q.{.",
"@X@X@X.XQ.Q.Q.Q.Q.Q.Q.Q.Q.Q.Q.Q.`.`.`._.n.n.n.n.n.i.v.v.h.7.6.6.6.6.7.h.a.i.i.b.n.&X&X&Xn.`.Q.Q.Q.Q.Q.Q.Q.Q.Q.Q.Q.Q.Q.Q.Q.Q..X@X",
"#X#X#X@X.XQ.Q.Q.Q.Q.Q.`.`.`.`.`.~.n.n.n.n.n.p.`.`.`.p.n.b.v.v.v.v.v.i.n.n.n.n.n.*XXX@XXX^.'.Q.Q.Q.Q.Q.Q.Q.Q.Q.Q.Q.Q.Q.Q.Q..X@X#X",
"@X@X#X#X@X@X@X.XQ.Q.'.~.~.~.~.~.n.n.n.n.n.~.`.Q.Q.Q.`.n.n.n.n.n.n.~.`.`.'.'.`.'.OX#X#X#X@X.XQ.Q.Q.Q.Q.Q.Q.Q.Q.Q.Q.Q.OX@X@X@X#X#X",
"Q.{..X@X#X#X#X@X.XQ.Q.`.`.`.`.`.`.`.`.`.`.`.Q.Q.Q.Q.`.~.n.n.~.`.`.'.Q..X@X@X.X.X@X#X#X#X#X@XQ.Q.Q.Q.Q.Q.Q.Q.Q.Q.Q.Q.Q..X@X@X#X@X",
"Q.Q.Q..X@X@X@X@XOXQ.Q.Q.Q.Q.Q.Q.Q.Q.Q.Q.Q.Q.Q.Q.Q.Q.Q.`.`.`.`.Q.Q..X@X@X#X#X@X#X#X@X@X@X#X@X.XQ.Q.Q.Q.Q.Q.Q.Q.Q.Q.Q.Q.Q.Q..XOX.X",
"Q.Q.Q.Q.{.{.{.{.Q.Q.Q.Q.Q.Q.Q.Q.Q.Q.Q.Q.Q.Q.Q.Q.Q.Q.Q.Q.Q.Q.Q.Q.'.XX@X@X@X@X@X@XXX*X&X*X+X#X@X@X@X@X.XQ.Q.Q.Q.'.`.'.Q.Q.Q.Q.Q.Q.",
"Q.Q.Q.Q.Q.Q.Q.Q.Q.Q.Q.Q.Q.Q.Q.Q.Q.Q.Q.Q.Q.Q.Q.Q.Q.Q.Q.Q.Q.Q.Q.`.~.&X&X&X~.~.&X&X&Xn.n.n.*XXX@X@X@X@XOXOXOXOXXX~.n.p.`.`.`.`.`.Q.",
"`.`.`.`.`.`.`.`.Q.Q.Q.Q.Q.Q.Q.Q.Q.Q.Q.Q.Q.Q.Q.Q.Q.Q.Q.Q.`.`.`.p.n.n.n.~.`.`.p.n.n.n.n.n.n.&X&X&X&X&X&X&X&X&X&Xn.n.n.n.n.n.n.~.`.",
"n.n.n.n.~.~.~.~.'.Q.Q.Q.Q.Q.Q.Q.Q.Q.Q.Q.Q.Q.Q.Q.Q.Q.Q.'.~.~.~.n.n.~.`.`.Q.Q.`.~.n.n.n.n.n.n.n.n.n.n.n.n.n.n.n.n.n.n.n.n.n.n.n.n.",
"n.n.n.~.`.`.`.`.Q.Q.Q.Q.Q.Q.Q.Q.Q.Q.Q.Q.Q.Q.Q.Q.Q.Q.Q.Q.`.`.`.`.`.`.Q.Q.Q.Q.Q.`.`.`.p.n.n.n.n.n.n.n.n.n.n.n.n.n.n.n.n.b.n.n.n.n.",
"`.`.`.`.Q.Q.Q.Q.Q.Q.Q.Q.Q.Q.Q.Q.Q.Q.`.`.`.`.`.Q.Q.Q.Q.`.`.`.`.`.Q.Q.Q.Q.Q.Q.Q.Q.Q.Q.`.n.n.p.`.`.`.`.p.n.n.n.n.n.n.n.n.n.n.~.`.'.",
"Q.Q.Q.Q.Q.Q.Q.Q.Q.Q.Q.Q.Q.Q.Q.Q.`._.j.z.z.z.j.[.Q.Q.[.j.z.z.z.j.[.Q.Q.Q.Q..X@X@X@X.X`.n.n.`.Q.Q.Q.Q.`.~.`.`.`.~.~.`.`.`.`.`.Q.Q.",
"Q.Q.Q.Q.Q.Q.Q.Q.Q.Q.Q.Q.Q.Q.Q.[.j.z.x.x.x.l.l.j._._.j.l.x.x.x.x.j.[.Q.Q..X@X#X#X#X@X].*Xn.`.Q.Q.Q.Q.Q.'.Q.Q.Q.`.`.Q.Q.Q.Q.Q.Q.{.",
"Q.Q.Q.Q.Q.Q.Q.Q.Q.Q.Q.Q.Q.Q.`.j.l.x.-X+X-Xx.l.l.z.z.l.x.-X+X+X-Xx.j.`.Q.@X#X#X#X#X#X@XXX&X~.`.Q.Q.Q.Q.Q.Q.Q.Q.Q.Q.Q.Q.@X@X@X@X@X"
};
