/* XPM */
static char *rcp09515528739557[] = {
/* columns rows colors chars-per-pixel */
"64 64 214 2 ",
"   c #112C2D",
".  c #102729",
"X  c #1D332E",
"o  c #12312F",
"O  c #193D3D",
"+  c #173435",
"@  c #253B2F",
"#  c #243B31",
"$  c #2C3735",
"%  c #6F3315",
"&  c #773914",
"*  c #541F22",
"=  c #6E1D23",
"-  c #4B2A26",
";  c #542223",
":  c #572B26",
">  c #612722",
",  c #662A21",
"<  c #7A2326",
"1  c #782728",
"2  c #623327",
"3  c #7A3233",
"4  c #7B3E36",
"5  c #7E3F39",
"6  c #6A3D38",
"7  c #18453E",
"8  c #284735",
"9  c #36473D",
"0  c #3D5439",
"q  c #30673E",
"w  c #7C4D3E",
"e  c #74503E",
"r  c #7D5325",
"t  c #174641",
"y  c #184842",
"u  c #1E5D41",
"i  c #2C5C44",
"p  c #2A5C48",
"a  c #315D46",
"s  c #365A44",
"d  c #334847",
"f  c #2C6B42",
"g  c #286749",
"h  c #376446",
"j  c #3A6445",
"k  c #376747",
"l  c #267547",
"z  c #2D7A49",
"x  c #28754A",
"c  c #317944",
"v  c #357749",
"b  c #387852",
"n  c #415E47",
"m  c #795341",
"M  c #794B44",
"N  c #496748",
"B  c #437B4C",
"V  c #487E4C",
"C  c #5E7247",
"Z  c #5D7B56",
"A  c #55785B",
"S  c #497E59",
"D  c #697747",
"F  c #797A4B",
"G  c #627D54",
"H  c #813B17",
"J  c #802427",
"K  c #872A27",
"L  c #8D3525",
"P  c #94342E",
"I  c #99362F",
"U  c #9C3D2D",
"Y  c #9A3730",
"T  c #9E3931",
"R  c #953631",
"E  c #A23C32",
"W  c #854719",
"Q  c #964D1C",
"!  c #9F551C",
"~  c #A8641F",
"^  c #924923",
"/  c #895427",
"(  c #81453A",
")  c #945629",
"_  c #A0442D",
"`  c #AD502F",
"'  c #A84532",
"]  c #B64B39",
"[  c #B94E3B",
"{  c #B14738",
"}  c #BA523A",
"|  c #BD5938",
" . c #AC6523",
".. c #AE6B23",
"X. c #BC7529",
"o. c #B97626",
"O. c #C25E3A",
"+. c #C37B2B",
"@. c #CE6C3C",
"#. c #C56439",
"$. c #2C884A",
"%. c #3D834B",
"&. c #3F8250",
"*. c #45854B",
"=. c #488A4B",
"-. c #528D4D",
";. c #468654",
":. c #53815A",
">. c #54904B",
",. c #738649",
"<. c #768C4C",
"1. c #7A9D4C",
"2. c #628156",
"3. c #6D8353",
"4. c #618358",
"5. c #718452",
"6. c #7E8450",
"7. c #7B8A52",
"8. c #65945D",
"9. c #6D9C5E",
"0. c #689354",
"q. c #7B9A55",
"w. c #759E5C",
"e. c #7F9050",
"r. c #6E844B",
"t. c #7DA34D",
"y. c #7FA94F",
"u. c #6DA15D",
"i. c #7AA55E",
"p. c #7FAB5E",
"a. c #78A558",
"s. c #5A8769",
"d. c #5F9067",
"f. c #6E976F",
"g. c #679368",
"h. c #739E61",
"j. c #73996C",
"k. c #7A9A6F",
"l. c #789468",
"z. c #679175",
"x. c #6B9472",
"c. c #719671",
"v. c #6A8F70",
"b. c #6FA160",
"n. c #76A463",
"m. c #7AA663",
"M. c #7BA962",
"N. c #C78728",
"B. c #C28226",
"V. c #D9922E",
"C. c #DE9632",
"Z. c #E4A137",
"A. c #85874F",
"S. c #9D8146",
"D. c #869C48",
"F. c #858651",
"G. c #898952",
"H. c #859A5C",
"J. c #949656",
"K. c #92914A",
"L. c #BD9F5C",
"P. c #AA8D51",
"I. c #81A14B",
"U. c #81A94D",
"Y. c #8BAB4D",
"T. c #8FA54A",
"R. c #92A447",
"E. c #91AA4C",
"W. c #8CB04E",
"Q. c #99B74D",
"!. c #9CB94E",
"~. c #95B34F",
"^. c #86AE51",
"/. c #8BAE54",
"(. c #81AB5E",
"). c #8AAE5C",
"_. c #89A554",
"`. c #97A655",
"'. c #8FB056",
"]. c #95B651",
"[. c #9AB751",
"{. c #9EB850",
"}. c #A0B94F",
"|. c #A4AA57",
" X c #B3A35A",
".X c #A0B751",
"XX c #A3B950",
"oX c #AEB55B",
"OX c #AFBA55",
"+X c #B2BA56",
"@X c #B4B55D",
"#X c #B6B959",
"$X c #BDBA5A",
"%X c #BAB259",
"&X c #829E6B",
"*X c #82AA62",
"=X c #88AC61",
"-X c #8FA363",
";X c #96A761",
":X c #ACB160",
">X c #BEB467",
",X c #C4A461",
"<X c #C2B462",
"1X c #D2BE66",
"2X c #DBC26E",
"3X c #D7C16B",
"4X c #DEC670",
"5X c #9D9585",
"6X c #B89C85",
"7X c #ADA487",
"8X c #B6A886",
"9X c #BEB18D",
"0X c #C2AF8B",
"qX c #C5B28D",
/* pixels */
"!.!.!.!.'.x.z.z.z.x././.x.z.z.z.c.@X$X$X$X$X@Xk.c.z.k.@X$X$X$X$X$X@X&X[.$X$X$X$X$X$X$X$X#X!.!.!.!.!.!.!.!.XX#X$X$X$X$X$X$X$X$X#X",
"].].!.].j.z.c.c.z.z.x.x.z.c.c.z.c.:X$X$X$X$X$X@X:X&X:X$X$X$X$X$X$X$X@X#X$X$X$X$X$X$X$X$X#XXX!.!.!.!.!.#X#X#X$X$X$X$X$X$X$X$X#XXX",
"x.j.).j.z.k.:X:Xk.z.z.z.k.:X:Xk.c.k.@X$X$X$X$X$X$X@X$X$X$X$X$X$X$X$X$X$X$X$X$X$X$X$X$X$X$X$X#X}.!.!.}.#X#X#X#X#X#X#X#X#X#XXX!.].",
"z.c.j.z.c.:X$X$X:Xk.c.k.:X$X$X@X:X&X@X$X$X$X$X$X$X$X$X$X$X$X$X#X#X#X$X$X$X$X$X#X#X$X$X$X$X$X$XXX}.!.!.}.}.}.}.}.}.}.}.}.}.!.].j.",
"k.:X:Xk.k.@X$X$X$X@X@X@X$X$X$X$X$X@X$X$X$X#X#X#X#X$X$X$X$X#XXX}.!.XX#X$X$X$X@X=X=X@X$X$X$X$X$X$X#X#XXX!.!.!.!.!.!.!.!.}.{.]./.x.",
"@X$X$X@X@X#X#X#X$X$X$X$X$X#X#X#X#X$X$X$X@X=X*X*X=X@X#X#X#XXX!.!.!.!.XX#X#XoX=XM.M.=X#X$X$X$X$X$X#X#X+X!.!.!.!.!.!.!.XX#X@X&Xk.c.",
"$X$X$X$X#XXX!.XX#X$X$X$X#XXX!.{.{.@X#X@X=XM.M.M.M.=X{.XX+X}.!.!.!.].].].*X*XM.M.M.*X@X#X#X#X#X#XXX!.!.!.!.!.!.!.XX#X#X$X$X@X@X@X",
"$X$X$X#XXX!.!.!.XX$X$X#XXX!.].(.M.*X*X*XM.M.M.M.M.(.].!.!.!.!.!.].(.M.M.M.M.M.M.M.M.].}.!.}.}.}.!.!.!.!.!.!.XX#X#X#X#X#X$X$X$X$X",
"#X#XXX!.!.!.!.!.!.#X#X#X!.].(.M.M.M.M.M.M.M.M.M.M.].].].].!.!.].p.M.M.M.M.M.M.M.M.M.p.].!.!.!.!.!.!.!.!.!.XX#X$X#XXX!.XX#X$X$X$X",
"!.!.!.!.!.!.!.!.!.!.XX+X{.].M.M.M.M.M.M.M.M.M.M.M.M.M.M.(.].].p.M.M.M.M.p.].].(.M.M.M.p.].].!.!.!.!.!.!.+X#X#X#XXX!.!.!.XX#X#X#X",
"!.!.!.!.!.!.].].].].].].(.M.M.M.M.M.M.M.M.M.M.M.M.M.M.M.M.M.M.M.M.M.M.M.].!.!.].].(.M.M.(.(.[.!.!.!.!.!.!.!.!.!.!.!.!.!.!.!.!.!.",
"!.!.!.!.!.[.(.(.(.M.M.M.M.M.M.p.].].].p.M.M.M.M.M.M.M.M.M.M.M.M.M.M.M.M.].!.!.!.!.].].].].].!.!.!.!.!.!.!.!.].].].!.!.!.!.!.!.!.",
"!.!.!.!.!.!.].].].(.M.M.M.M.M.].!.!.!.].M.p.].].].(.M.M.M.M.M.p.].].p.M.].!.!.!.!.!.!.!.!.!.!.!.!.!.!.!.!.].(.M.(.].!.!.!.!.!.!.",
"!.!.!.!.!.!.!.!.!.[.].].(.M.(.].!.!.!.].(.].!.!.!.].].(.M.M.w.U.Y.Q.].(.(.[.!.!.!.!.!.!.!.!.].].].!.!.!.].p.M.M.M.(.].!.!.!.!.!.",
"!.!.!.!.!.XX#X#XXX!.!.!.[.[.{.!.!.!.!.!.[.!.!.!.!.!.!.].].1.h i j I.Q.].].!.!.!.!.!.!.!.!.].(.M.(.].].].p.M.M.M.M.M.].!.!.!.!.!.",
"!.!.!.!.XX#X$X$X#XXX!.!.XX#X#X#X#XXX!.!.!.!.!.!.!.!.!.].1.h l l l h I.Q.!.!.!.!.!.!.!.!.].p.M.M.M.M.M.M.M.M.M.M.M.M.].].].!.!.!.",
"].].XX#X$X$X$X$X$X$X#X#X#X$X$X$X#X+XoX[.!.!.].].].].].w.s i f l f i s Y.].].].!.!.!.!.].p.M.M.M.M.M.M.M.M.M.M.M.M.M.M.M.(.].].].",
"(.).+X#X$X$X$X$X$X$X$X$X$X$X$X@X=X*X*X(.].].(.M.M.M.i.5.: * ; ; ; * : 7.i.M.(.].].].].p.M.M.M.m.M.M.M.M.M.M.M.M.M.M.M.M.M.M.M.M.",
"[.[.!.}.XX#X$X$X$X$X$X$X#X#XoX=XM.M.M.M.M.M.M.n.9.9.5.2 < P I I I P < 2 5.9.9.M.m.m.m.n.m.M.M.M.M.M.M.M.M.M.M.M.M.M.M.M.M.M.M.M.",
"!.!.!.}.}.XX$X$X$X$X$X#X.X).(.(.].].].(.M.M.M.8.a 9 : < I E ] [ ] E I < : 9 a 8.x.x.x.x.n.M.M.M.M.M.M.M.M.n.n.n.n.m.M.M.p.].].].",
"!.XX#X#X#X#X$X$X$X$X$XXX!.].].].!.!.].].].].q.k f ; < I E } O.@.O.} E I < ; f h s.z.z.z.f.).].].].].].].).f.x.x.x.n.n.M.].!.!.!.",
"#X#X$X$X$X$X$X$X$X$X#X}.!.!.!.!.!.[.(.(.M.w.h c - < K U ` V.Z.C.Z.V.` U K < - c p s.z.z.z.x.x.x.x.j.'.'.j.c.c.c.z.x.x.m.].!.!.!.",
"#X#X#X#X#X$X$X$X$X$XXX!.!.!.!.!.!.!.].].p.8.p q ; J _ X.V.V.#.| #.V.V.X._ J ; q p s.z.z.z.z.c.c.c.c.x.x.k.:X@X:Xk.z.z.f.].{.XX#X",
"}.!.!.!.XX#X$X$X$X$XXX!.!.!.!.!.!.!.!.!.Y.h c : < L X.N.V.@.] E ] @.V.N.X.L < : c j v.z.z.k.:X@X@X:Xk.k.:X$X$X$X:Xk.c.c.&X@X#X#X",
"!.!.!.!.!.XX#X#X$X$X#XXX#X#XXX!.!.!.!.Q.t.i c % L  .B.+.| } T < T } O.+.B. .L % c a H.c.k.:X$X$X$X$X@X@X$X$X$X$X$X@X@X@X@X#XXX}.",
"}.}.!.!.!.!.!.XX#X$X$X#X#X#X+XXX!.!.!.Y.h $.f & ~ o.X.| [ ] Y = Y ] [ | X.o.~ & f $.j l.:X$X$X$X$X$X$X$X$X$X$X$X$X$X$X$X$X#X}.}.",
"#X#XXX!.!.!.!.!.XX#X#X#XXX}.XX+X!.!.!.Y.i $.f % ! ..' [ [ ] R 3 R ] [ [ ' ..! % f $.a |.$X$X$X$X$X$X$X$X$X$X$X$X$X$X$X$X$X$XXX#X",
"$X$X#X}.!.!.!.!.!.}.}.}.!.!.!.!.!.!.Q.t.i l s 2 Q  .' [ [ T 3 6X3 T [ ] _  .Q 2 s l a `.$X$X$X#X#X$X$X$X$X$X$X$X$X$X$X$X$X$X$X$X",
"$X$X#X}.!.XX#X#XXX!.!.!.!.!.!.!.!.!.Y.h z k D.K.H K T ] ] I 1 P.1 I ] ] T K H K.D.k z N |.#X#XXXXX#X#X$X#XXXXX#X$X$X$X$X$X$X$X$X",
"$X$X$XXXXX#X$X$X#X#XXX!.!.!.!.!.!.!.E.s h I.Q.R., J T ] E P 5 P.5 P E ] T J , R.Q.I.h n |.XX!.!.!.!.XX+XXX!.!.XX$X$X$X$X$X$X$X$X",
"$X$X$X$X#X$X$X$X$X#X#X#X#X#X#X#X#X#X+XE.Y.Q.!.R.> J T { Y 3 0X>X0X3 Y { T J > R.!.Q.E.|..X!.!.!.!.!.!.!.!.!.!.!.#X$X$X$X$X#X#X#X",
"#X#X#X#X#X#X#X#X#XXX!.!.{.[.{.[.[.[.!.!.!.!.!.R., J T T P 5  X%X X5 P E T J > R.!.!.!.+X!.!.!.!.!.!.!.!.!.!.!.!.#X#X#X#X#XXX!.!.",
"}.!.}.}.!.!.!.!.!.!.].].(.M.M.M.M.(.].!.].].].R.& I ' P ( qX<X1X<XqX( P ' I , R.!.!.!.!.!.!.!.!.!.!.!.!.!.!.!.!.!.!.!.!.!.!.!.!.",
"!.!.!.!.!.!.!.!.].].(.M.M.M.M.M.M.M.p.].(.M.M.q.H U I 4 S.<X3X4X3X<XS.4 I U H R.!.!.!.!.].].].!.!.!.!.!.!.!.!.!.!.!.!.!.!.!.!.!.",
"!.!.!.!.!.!.!.].(.M.M.M.M.M.M.M.M.M.M.M.M.M.M.q.W ..^ 8Xe L.3X4X3XL.e 8X^ ..W R.].!.!.].(.M.(.].!.!.!.!.!.!.!.!.!.!.!.!.!.!.!.!.",
"!.!.!.!.!.].].p.M.M.M.M.M.M.M.M.M.M.M.M.M.M.M.q.W ~ ) J.N m ,X3X,Xm N J.) ..W q.(.].].(.M.M.M.p.].!.!.!.!.!.!.].].].!.!.!.!.!.!.",
"!.!.!.].].(.M.M.M.M.p.].].].].].p.M.M.M.M.M.M.q.& / 8XS ;X9X( L.w 7X;X:.8X/ e.i.M.M.M.(.].].p.M.p.].!.!.!.!.].(.M.(.].!.!.!.].].",
"].!.[.(.(.M.M.M.M.(.].!.!.!.!.!.].M.M.p.^.^.^.q.r e.m.b i.-Xw P.6 9 0.b H./ T.^.a.u.a.].!.!.].(.M.(.[.!.!.].p.M.M.M.p.].].].(.M.",
"(.].].].].].].].].].!.!.!.!.!.!.].(.(.^.=.*.=.U.E.~.Y.=.t._.7XM 5X9 1.%.Y.E.U.=.%.%.=.U.Q.].].].].].!.!.].(.M.M.M.M.M.M.M.M.M.M.",
"M.(.(.(.[.!.!.!.!.!.!.!.!.!.!.!.!.].].Q.W.W.U.-.y.].].y.v 8 $ - d # 1.%.t.y.;.u.^.W.y.-.^.(.M.M.(.].!.!.].M.M.M.M.M.M.M.M.M.M.M.",
"].].].].!.!.!.!.].].].].].!.!.].].].!.!.!.!.[.g.;.d.g.g.x 7 . + O + :.z v &.9.m.p.].p.a.M.M.M.M.M.p.].].p.M.M.p.].].].(.M.M.M.M.",
"!.!.!.!.!.!.!.].j.x.x.x.j.'.'.j.x.j.].!.XX#X#X@X`.b b s.x y   O t o g x 8.n.m.M.M.M.M.M.M.M.m.M.M.M.M.M.M.M.M.].!.!.!.].].[.].[.",
"!.!.!.!.!.].].j.c.c.c.c.z.x.x.c.c.z.j.[.#XoXoXoX`.0 3.x g 7   t y X C b d.h.m.M.n.b.u.u.M.M.M.M.M.M.M.M.M.M.(.].!.!.!.!.!.!.!.!.",
"!.!.].].'.j.j.k.:X@X@X:Xk.c.k.:X:Xk.k.oX|.-.*.B V C 8 u 7   O t t X F 3.b A 7._.&.b %.=.y.p.(.].].].p.M.M.M.].].].].].].].!.!.!.",
"{.].j.j.j.k.:X@X$X$X$X$X@X@X@X$X$X@X@XoX0.`.|.7.5.b f O X . + O O X F F.5.B b V 5.w.i.y.>.W.].!.!.!.].M.M.M.M.M.M.M.M.M.(.].].].",
"@X&Xk.:X@X@X$X$X$X$X#X#X#X$X$X$X$X$X$X$X@X@XG.G G Z 5.F D # + + + # D A.F.6.6.6.F.J.oX.X~.!.!.!.!.!.].M.M.M.M.M.*X*X*X*X*X(.(.(.",
"#X@X@X#X#X#X$X$X#XoX=X*X=XoX#X$X$X#X#X#X#XoX3.Z Z Z G F.F.D # X @ C ,.,.A.F.F.F.F.G.%X#X+X!.!.!.!.!.].M.*X*X*X=XoX#X#X#X#X#X#X#X",
"!.!.!.!.!.XX#X#X).(.M.M.M.*X=XoXoX=X*X*X*Xm.4.Z Z Z Z G G G D D D ,.,.,.,.,.,.,.,.K.@X#XXX!.!.!.!.[.(.*XoX+X+X+X#X#X#X#X#X#X#X#X",
"!.!.!.!.!.!.}.!.[.].].].(.M.M.=X*XM.M.M.M.m.h.4.2.Z Z Z Z Z Z G G r.,.,.,.,.,.<.<.E.[.[.].!.!.!.!.!.].[.!.!.!.!.!.!.!.!.!.!.}.}.",
"!.!.!.!.!.!.!.!.!.!.!.!.].].].].(.M.M.M.M.M.m.n.h.4.2.2.2.Z Z Z Z Z G 2.<.<.<.i.i.M.M.M.(.].!.!.!.!.!.!.!.!.!.!.!.!.!.!.!.!.!.}.",
"#X#X#XXX!.!.!.!.!.!.!.!.!.!.!.!.].].].'.M.M.M.M.M.i.n.n.h.4.2.2.2.2.4.h.a.i.i.m.M.*X*X*XM.].!.!.!.!.!.!.!.!.!.!.!.!.!.!.!.!.XX#X",
"$X$X$X#XXX!.!.!.!.!.!.].].].].].(.M.M.M.M.M.p.].].].p.M.m.n.n.n.n.n.i.M.M.M.M.M.=XoX#XoX).[.!.!.!.!.!.!.!.!.!.!.!.!.!.!.!.XX#X$X",
"#X#X#X$X#X#X#XXX!.!.[.(.(.(.(.(.M.M.M.M.M.(.].!.!.!.].M.M.M.M.M.M.(.].].[.[.].[.+X$X$X$X#XXX!.!.!.!.!.!.!.!.!.!.!.!.+X#X#X#X$X$X",
"!.}.XX#X$X$X$X#XXX!.!.].].].].].].].].].].].!.!.!.!.].(.M.M.(.].].[.!.XX#X#XXXXX#X$X$X$X$X#X!.!.!.!.!.!.!.!.!.!.!.!.!.XX#X#X$X#X",
"!.!.!.XX#X#X#X#X+X!.!.!.!.!.!.!.!.!.!.!.!.!.!.!.!.!.!.].].].].!.!.XX#X#X$X$X#X#X$X#X#X#X$X#XXX!.!.!.!.!.!.!.!.!.!.!.!.!.!.XX+XXX",
"!.!.!.!.}.}.}.}.!.!.!.!.!.!.!.!.!.!.!.!.!.!.!.!.!.!.!.!.!.!.!.!.[.oX#X#X#X#X#X#XoX=X*X=X@X$X#X#X#X#XXX!.!.!.!.[.].[.!.!.!.!.!.!.",
"!.!.!.!.!.!.!.!.!.!.!.!.!.!.!.!.!.!.!.!.!.!.!.!.!.!.!.!.!.!.!.].(.*X*X*X(.(.*X*X*XM.M.M.=XoX#X#X#X#X+X+X+X+XoX(.M.p.].].].].].!.",
"].].].].].].].].!.!.!.!.!.!.!.!.!.!.!.!.!.!.!.!.!.!.!.!.].].].p.M.M.M.(.].].p.M.M.M.M.M.M.*X*X*X*X*X*X*X*X*X*XM.M.M.M.M.M.M.(.].",
"M.M.M.M.(.(.(.(.[.!.!.!.!.!.!.!.!.!.!.!.!.!.!.!.!.!.!.[.(.(.(.M.M.(.].].!.!.].(.M.M.M.M.M.M.M.M.M.M.M.M.M.M.M.M.M.M.M.M.M.M.M.M.",
"M.M.M.(.].].].].!.!.!.!.!.!.!.!.!.!.!.!.!.!.!.!.!.!.!.!.].].].].].].!.!.!.!.!.].].].p.M.M.M.M.M.M.M.M.M.M.M.M.M.M.M.M.m.M.M.M.M.",
"].].].].!.!.!.!.!.!.!.!.!.!.!.!.!.!.].].].].].!.!.!.!.].].].].].!.!.!.!.!.!.!.!.!.!.].M.M.p.].].].].p.M.M.M.M.M.M.M.M.M.M.(.].[.",
"!.!.!.!.!.!.!.!.!.!.!.!.!.!.!.!.].'.j.x.x.x.j.].!.!.].j.x.x.x.j.].!.!.!.!.XX#X#X#XXX].M.M.].!.!.!.!.].(.].].].(.(.].].].].].!.!.",
"!.!.!.!.!.!.!.!.!.!.!.!.!.!.!.].j.x.c.c.c.z.z.j.'.'.j.z.c.c.c.c.j.].!.!.XX#X$X$X$X#X{.=XM.].!.!.!.!.!.[.!.!.!.].].!.!.!.!.!.!.}.",
"!.!.!.!.!.!.!.!.!.!.!.!.!.!.].j.z.c.:X@X:Xc.z.z.x.x.z.c.:X@X@X:Xc.j.].!.#X$X$X$X$X$X#XoX*X(.].!.!.!.!.!.!.!.!.!.!.!.!.#X#X#X#X#X"
};
