/* XPM */
static char *rcp03453898384319[] = {
/* columns rows colors chars-per-pixel */
"64 64 210 2 ",
"   c #112E2E",
".  c #1C332E",
"X  c #153434",
"o  c #1B3D3A",
"O  c #253B2F",
"+  c #263C35",
"@  c #6D2F15",
"#  c #743514",
"$  c #551F22",
"%  c #6E1D23",
"&  c #482226",
"*  c #552726",
"=  c #652921",
"-  c #602926",
";  c #762025",
":  c #7B2426",
">  c #792929",
",  c #673628",
"<  c #7A3233",
"1  c #7B3D36",
"2  c #7E3F39",
"3  c #6A3E38",
"4  c #1B433C",
"5  c #1C5A3E",
"6  c #39473D",
"7  c #2D5E3E",
"8  c #34533D",
"9  c #2B4333",
"0  c #7C493A",
"q  c #74503E",
"w  c #194842",
"e  c #2E4E42",
"r  c #245E43",
"t  c #2D5847",
"y  c #315A49",
"u  c #314240",
"i  c #256343",
"p  c #2B6541",
"a  c #236C47",
"s  c #226A49",
"d  c #396345",
"f  c #396A46",
"g  c #366347",
"h  c #247649",
"j  c #257D48",
"k  c #2A7548",
"l  c #33754D",
"z  c #39754C",
"x  c #3C7B4A",
"c  c #367849",
"v  c #347153",
"b  c #336C51",
"n  c #785341",
"m  c #794B44",
"M  c #426549",
"N  c #446C48",
"B  c #467B4C",
"V  c #5A7149",
"C  c #547C54",
"Z  c #5D7B55",
"A  c #4E6D51",
"S  c #687849",
"D  c #627D54",
"F  c #697D57",
"G  c #757A4D",
"H  c #813C18",
"J  c #802427",
"K  c #872A27",
"L  c #8D3525",
"P  c #94342E",
"I  c #98362F",
"U  c #9D3C2E",
"Y  c #953731",
"T  c #9A3730",
"R  c #9E3931",
"E  c #A23C32",
"W  c #844E1D",
"Q  c #8C4B18",
"!  c #854019",
"~  c #964D1C",
"^  c #9F551C",
"/  c #88501B",
"(  c #A6621E",
")  c #8E5529",
"_  c #915626",
"`  c #824037",
"'  c #A2462E",
"]  c #AD502F",
"[  c #A84532",
"{  c #B64B39",
"}  c #B94E3B",
"|  c #B14738",
" . c #BA523A",
".. c #BD5938",
"X. c #AC6724",
"o. c #B16B22",
"O. c #BC7529",
"+. c #B77424",
"@. c #C25E3A",
"#. c #C37B2B",
"$. c #CB693B",
"%. c #268249",
"&. c #2D8449",
"*. c #3B824D",
"=. c #3F8451",
"-. c #4A864C",
";. c #548A4F",
":. c #458451",
">. c #5F8855",
",. c #52904B",
"<. c #69854A",
"1. c #72854B",
"2. c #7B8D4F",
"3. c #778A4B",
"4. c #6D924C",
"5. c #618258",
"6. c #678155",
"7. c #718653",
"8. c #7A8852",
"9. c #6E9B5E",
"0. c #67985D",
"q. c #799C59",
"w. c #7B9E4F",
"e. c #7FA04C",
"r. c #6EA15D",
"t. c #79A45E",
"y. c #7FAB5E",
"u. c #73A35E",
"i. c #588567",
"p. c #6D966E",
"a. c #669465",
"s. c #739E61",
"d. c #73996C",
"f. c #7A9A6F",
"g. c #799A66",
"h. c #679175",
"j. c #6B9472",
"k. c #719671",
"l. c #638D71",
"z. c #76A463",
"x. c #79A662",
"c. c #7BA962",
"v. c #6FA260",
"b. c #C78728",
"n. c #C28226",
"m. c #D9922E",
"M. c #DE9632",
"N. c #E4A137",
"B. c #9D8146",
"V. c #959B46",
"C. c #898751",
"Z. c #8D8E53",
"A. c #879957",
"S. c #929756",
"D. c #BD9F5C",
"F. c #AA8D51",
"G. c #81A14B",
"H. c #8DAB4D",
"J. c #88A64B",
"K. c #92A447",
"L. c #93A94B",
"P. c #95B44E",
"I. c #9AB74E",
"U. c #9CB94E",
"Y. c #8CAE54",
"T. c #82A45A",
"R. c #81AB5E",
"E. c #8AAE5C",
"W. c #8BA557",
"Q. c #9DAB56",
"!. c #98A255",
"~. c #8FB055",
"^. c #95B651",
"/. c #9AB751",
"(. c #9EB850",
"). c #97B55D",
"_. c #8CB14F",
"`. c #A0B94F",
"'. c #A6AD59",
"]. c #B2A75A",
"[. c #A1B553",
"{. c #A3B950",
"}. c #AEB55B",
"|. c #AFBA55",
" X c #B2BA56",
".X c #B4B55D",
"XX c #BAB45A",
"oX c #B6B959",
"OX c #BDBA5A",
"+X c #829E6B",
"@X c #82AA62",
"#X c #88AC61",
"$X c #84AE6C",
"%X c #8AAB6E",
"&X c #ACB160",
"*X c #BEB467",
"=X c #C4A461",
"-X c #C2B462",
";X c #D2BE66",
":X c #DBC26E",
">X c #D7C16B",
",X c #DEC670",
"<X c #9D9785",
"1X c #B89C85",
"2X c #ACA387",
"3X c #B5A287",
"4X c #C2AF8B",
"5X c #C5B28D",
"6X c #BCC193",
"7X c #C4C58E",
/* pixels */
"U.U.U.U.~.j.h.h.h.j.Y.Y.j.h.h.h.k..XOXOXOXOX.Xf.k.h.f..XOXOXOXOXOX.X+X/.OXOXOXOXOXOXOXOXoXU.U.U.U.U.U.U.U.{.oXOXOXOXOXOXOXOXOXoX",
"^.^.U.^.d.h.k.k.h.h.j.j.h.k.k.h.k.&XOXOXOXOXOX.X&X+X&XOXOXOXOXOXOXOX.XoXOXOXOXOXOXOXOXOXoX{.U.U.U.U.U.oXoXoXOXOXOXOXOXOXOXOXoX{.",
"j.d.E.d.h.f.&X&Xf.h.h.h.f.&X&Xf.k.f..XOXOXOXOXOXOX.XOXOXOXOXOXOXOXOXOXOXOXOXOXOXOXOXOXOXOXOXoX`.U.U.`.oXoXoXoXoXoXoXoXoXoX{.U.^.",
"h.k.d.h.k.&XOXOX&Xf.k.f.&XOXOX.X&X+X.XOXOXOXOXOXOXOXOXOXOXOXOXoXoXoXOXOXOXOXOXoXoXOXOXOXOXOXOX{.`.U.U.`.`.`.`.`.`.`.`.`.`.U.^.d.",
"f.&X&Xf.f..XOXOXOX.X.X.XOXOXOXOXOX.XOXOXOXoXoXoXoXOXOXOXOXoX{.`.U.{.oXOXOXOX.X#X#X.XOXOXOXOXOXOXoXoX{.U.U.U.U.U.U.U.U.`.(.^.Y.j.",
".XOXOX.X.XoXoXoXOXOXOXOXOXoXoXoXOXOXOXOX.X#X@X@X#X.XoXoXoX{.U.U.U.U.{.oXoX}.#Xc.c.#XoXOXOXOXOXOXoXoX XU.U.U.U.U.U.U.{.oX.X+Xf.k.",
"OXOXOXOXoX{.U.{.oXOXOXOXoX{.U.(.(..XoX}.#Xc.c.c.c.#X(.{. X`.U.U.U.^.^.^.@X@Xc.c.c.@X.XoXoXoXoXoX{.U.U.U.U.U.U.U.{.oXoXOXOX.X.X.X",
"OXOXOXoX{.U.U.U.{.OXOXoX{.U.^.R.c.@X@X@Xc.c.c.c.c.R.^.U.U.U.U.U.^.R.c.c.c.c.c.c.c.c.^.`.U.`.`.`.U.U.U.U.U.U.{.oXoXoXoXoXOXOXOXOX",
"oXoX{.U.U.U.U.U.U.oXoXoXU.^.R.c.c.c.c.c.c.c.c.c.c.^.^.^.^.U.U.^.y.c.c.c.c.c.c.c.c.c.y.^.U.U.U.U.U.U.U.U.U.{.oXOXoX{.U.{.oXOXOXOX",
"U.U.U.U.U.U.U.U.U.U.{. X(.^.c.c.c.c.c.c.c.c.c.c.c.c.c.c.R.^.^.y.c.c.c.c.y.^.^.R.c.c.c.y.^.^.U.U.U.U.U.U. XoXoXoX{.U.U.U.{.oXoXoX",
"U.U.U.U.U.U.^.^.^.^.^.^.R.c.c.c.c.c.c.c.c.c.c.c.c.c.c.c.c.c.c.c.c.c.c.c.^.U.U.^.^.R.c.c.R.R./.U.U.U.U.U.U.U.U.U.U.U.U.U.U.U.U.U.",
"U.U.U.U.U./.R.R.R.c.c.c.c.c.c.y.^.^.^.y.c.c.c.c.c.c.c.c.c.c.c.c.c.c.c.c.^.U.U.U.U.^.^.^.^.^.U.U.U.U.U.U.U.U.^.^.^.U.U.U.U.U.U.U.",
"U.U.U.U.U.U.^.^.^.R.c.c.c.c.c.^.U.U.U.^.c.y.^.^.^.R.c.c.c.c.c.y.^.^.y.c.^.U.U.U.U.U.U.U.U.U.U.U.U.U.U.U.U.^.R.c.R.^.U.U.U.U.U.U.",
"U.U.U.U.U.U.U.U.U./.^.^.R.c.R.^.U.U.U.^.R.^.U.U.U.^.^.R.c.c.y.Y.I.U.^.R.R./.U.U.U.U.U.U.U.U.^.^.^.U.U.U.^.y.c.c.c.R.^.U.U.U.U.U.",
"U.U.U.U.U.{.oXoX{.U.U.U././.(.U.U.U.U.U./.U.U.U.U.U.U.^.^.^.e.N G.I.U.^.^.U.U.U.U.U.U.U.U.^.R.c.R.^.^.^.y.c.c.c.c.c.^.U.U.U.U.U.",
"U.U.U.U.{.oXOXOXoX{.U.U.{.oXoXoXoX{.U.U.U.U.U.U.U.U.U.^.^.e.f &.f G.I.U.U.U.U.U.U.U.U.U.^.y.c.c.c.c.c.c.c.c.c.c.c.c.^.^.^.U.U.U.",
"^.^.{.oXOXOXOXOXOXOXoXoXoXOXOXOXoX X}./.U.U.^.^.^.^.^.y.0.g h %.h g G.^.^.^.^.U.U.U.U.^.y.c.c.c.c.c.x.x.x.x.c.c.c.c.c.c.R.^.^.^.",
"R.E. XoXOXOXOXOXOXOXOXOXOXOXOX.X#X@X@XR.^.^.R.c.c.c.c.9.y s h j h s g q.c.c.R.^.^.^.^.y.c.c.c.x.c.c.x.x.c.c.c.c.c.c.c.c.c.c.c.c.",
"/./.U.`.{.oXOXOXOXOXOXOXoXoX}.#Xc.c.c.c.c.c.c.c.c.c.c.9.e i i r i i e 9.c.c.c.c.x.x.x.z.x.c.c.c.c.c.x.x.c.c.c.c.c.c.c.c.c.c.c.c.",
"U.U.U.`.`.{.OXOXOXOXOXoX[.E.R.R.^.^.^.R.c.c.c.c.c.c.x.7.* $ * $ * $ * 7.x.c.x.z.j.j.j.j.z.c.c.c.c.c.c.c.c.z.z.z.z.x.c.c.y.^.^.^.",
"U.{.oXoXoXoXOXOXOXOXOX{.U.^.^.^.U.U.^.^.^.^.~.c.c.x.7., : P I I Y P : , 7.z.z.j.h.h.h.h.p.E.^.^.^.^.^.^.Y.p.j.j.j.z.z.c.^.U.U.U.",
"oXoXOXOXOXOXOXOXOXOXoX`.U.U.U.U.U./.R.R.c.c.c.9.9.7., : I E { } { E I : - F a.l.h.h.h.h.h.j.j.j.j.d.~.~.d.k.k.k.h.j.j.x.^.U.U.U.",
"oXoXoXoXoXOXOXOXOXOX{.U.U.U.U.U.U.U.^.^.R.c.0.y 6 * : I E  .@.$.@. .E I : * u t i.j.h.h.h.h.k.k.k.k.j.j.f.&X.X&Xf.h.h.p.^.(.{.oX",
"`.U.U.U.{.oXOXOXOXOX{.U.U.U.U.U.U.U.U.U.^.w.g r & ; K U ] m.N.M.N.m.] U K ; & r d A.d.h.h.f.&X.X.X&Xf.f.&XOXOXOX&Xf.k.k.+X.XoXoX",
"U.U.U.U.U.{.oXoXOXOXoX{.oXoX{.U.U.U.U.I.G.f h 7 $ J ' O.m.m.$...$.m.m.O.' J $ 7 h M A.k.f.}.OXOXOXOX.X.XOXOXOXOXOX.X.X.X.XoX{.`.",
"`.`.U.U.U.U.U.{.oXOXOXoXoXoX X{.U.U.U.H.d &.k * ; L O.b.m.$.{ E { $.m.b.O.L ; * k &.d g.}.OXOXOXOXOXOXOXOXOXOXOXOXOXOXOXOXoX`.`.",
"oXoX{.U.U.U.U.U.{.oXoXoX{.`.{. XU.U.I.e.p j p @ L X.n.#.@. .R ; R  .@.#.n.X.L @ p j y S.XXOXOXOXOXOXOXOXOXOXOXOXOXOXOXOXOXOX{.oX",
"OXOXoX`.U.U.U.U.U.`.`.`.U.U.U.U.I.H.e.f &.%.p # ( +.O...} { T % T { } ..O.+.( # p %.&.N !.'.OXoXoXOXOXOXOXOXOXOXOXOXOXOXOXOXOXOX",
"OXOXoX`.U.{.oXoX{.U.U.U.U.U.U.U.H.N d &.j a 8 # ^ o.[ { } | Y < Y | } } [ o.^ # 8 a j &.M A '.{.{.oXoXOXoX{.{.oXOXOXOXOXOXOXOXOX",
"OXOXOX{.{.oXOXOXoXoX{.U.U.U.U.U.U.L.G.d t d 3., ~ X.' { } R < 1X< R } { ' X.~ , 3.d t M !.L.U.U.U.U.{. X{.U.U.{.OXOXOXOXOXOXOXOX",
"OXOXOXOXoXOXOXOXOXoXoXoXoXoXoXoXoXoX XL.H.H.P.V.H K R { { I > F.> I { { R K H V.P.H.H.'.[.U.U.U.U.U.U.U.U.U.U.U.oXOXOXOXOXoXoXoX",
"oXoXoXoXoXoXoXoXoX{.U.U.(./././././.U.U.U.U.U.K.= J R { E P 2 F.2 P E { R J = K.U.U.U. X`.U.U.U.U.U.U.U.U.U.U.U.oXoXoXoXoX{.U.U.",
"`.U.`.`.U.U.U.U.U.U.^.^.R.c.c.c.c.R.^.U.^.^.^.K.- J R | T < 4X*X4X< T | R J - K.U.U.U.U.U.U.U.U.U.U.U.U.U.U.U.U.U.U.U.U.U.U.U.U.",
"U.U.U.U.U.U.U.U.^.^.R.c.c.c.c.c.c.c.y.^.R.c.c.q.= J R E P 2 ].XX].2 P E R J = K.U.U.U.U.^.^.^.U.U.U.U.U.U.U.U.U.U.U.U.U.U.U.U.U.",
"U.U.U.U.U.U.U.^.R.c.c.c.c.c.c.c.c.c.c.c.c.c.x.2.H I [ P ` 5X-X;X-X5X` P [ I ! V.I.U.U.^.R.c.R.^.U.U.U.U.U.U.U.U.U.U.U.U.U.U.U.U.",
"U.U.U.U.U.^.^.y.c.c.c.c.c.c.c.c.c.c.c.c.c.c.q.W o.' Y 1 B.-X>X:X>X-XB.1 Y ' o.W A.^.^.R.c.c.c.y.^.U.U.U.U.U.U.^.^.^.U.U.U.U.U.U.",
"U.U.U.^.^.R.c.c.c.c.y.^.^.^.^.^.y.c.c.c.c.y.2.Q o.o.0 2Xq D.:X,X:XD.q 3X0 o.o.Q 2.t.c.R.^.^.y.c.y.^.U.U.U.U.^.R.c.R.^.U.U.U.^.^.",
"^.U./.R.R.c.c.c.c.R.^.U.U.U.U.U.^.c.c.y.^.L./ ( Q ) 2.s.M n =X:X=Xn M g.A.) Q ( W q.R.^.U.U.^.R.c.R./.U.U.^.y.c.c.c.y.^.^.^.R.c.",
"R.^.^.^.^.^.^.^.^.^.U.U.U.U.U.U.^.R.R.^.I.L.W _ V.7X~.B T.2X0 D.0 2XT.B ~.7XV._ W L.^.U.U.^.^.^.^.^.U.U.^.R.c.c.c.c.c.c.c.c.c.c.",
"c.R.R.R./.U.U.U.U.U.U.U.U.U.U.U.U.^.^.U.U.I.Q.7X).).Y.x 4.6 3 F.3 6 4.c Y.).%X6XQ.I.^.^.^.R.c.c.R.^.U.U.^.c.c.c.c.c.c.c.c.c.c.c.",
"^.^.^.^.U.U.U.U.^.^.^.^.^.U.U.^.^.^.U.U.U.U./.%Xf.p.l.l 4 t <Xm <X+ i l u.c.c.$X@X^.y.c.c.c.c.c.c.y.^.^.y.c.c.y.^.^.^.R.c.c.c.c.",
"U.U.U.U.U.U.U.^.d.j.j.j.d.~.~.d.j.d.^.U.{.oX}.'.&Xf.j.i.s w + & e X r k 0.x.x.v.r.u.x.c.c.c.c.c.c.c.c.c.c.c.c.^.U.U.U.^.^./.^./.",
"U.U.U.U.U.^.^.d.k.k.k.k.h.j.j.k.k.h.d.Y.[.Q.;.;.Q.'.W.v s 4   4 w . V k v a.9.:.*.=.0.u.u.x.c.c.c.c.c.c.c.c.R.^.U.U.U.U.U.U.U.U.",
"U.U.^.^.~.d.d.f.&X.X.X&Xf.k.f.&X&Xf.a.;.-.;.Q.!.-.x z V s X o w w . S z A b B W.q.0.=.*.-.r.y.^.^.^.y.c.c.c.^.^.^.^.^.^.^.U.U.U.",
"(.^.d.d.d.f.&X.XOXOXOXOX.X.X.XOXOX'.>.Q.}.}.}.Z.8.S 9 o 5   X o o . S B 7.G 8.Z.Z.T.t.H.J.,._.U.U.U.^.c.c.c.c.c.c.c.c.c.R.^.^.^.",
".X+Xf.&X.X.XOXOXOXOXoXoXoXOXOXOXOXOX.XOXOXXXZ.F Z Z S g O . X X X O S 1.B 1.C.C.C.Z.}.{.U._.U.U.U.U.^.c.c.c.c.c.@X@X@X@X@XR.R.R.",
"oX.X.XoXoXoXOXOXoX}.#X@X#X}.oXOXOXoXoXoXoX}.6.C l l z F G S O . O V 1.1.1.B 1.8.8.Z.XXoX XU.U.U.U.U.^.c.@X@X@X#X}.oXoXoXoXoXoXoX",
"U.U.U.U.U.{.oXoXE.R.c.c.c.@X#X}.}.#X@X@X@Xx.C z C C C D D D S S S 1.1.1.1.<.x c x 2..XoX{.U.U.U.U./.R.@X}. X X XoXoXoXoXoXoXoXoX",
"U.U.U.U.U.U.`.U./.^.^.^.R.c.c.#X@Xc.c.c.c.z.:.C >.Z Z Z Z Z Z D D 1.1.1.1.1.<.<.<.-.~./.^.U.U.U.U.U.^./.U.U.U.U.U.U.U.U.U.U.`.`.",
"U.U.U.U.U.U.U.U.U.U.U.U.^.^.^.^.R.c.c.c.c.x.z.z.s.5.5.5.5.Z Z Z Z Z D 6.1.3.3.t.t.u.c.c.R.^.U.U.U.U.U.U.U.U.U.U.U.U.U.U.U.U.U.`.",
"oXoXoX{.U.U.U.U.U.U.U.U.U.U.U.U.^.^.^.~.c.c.c.c.c.t.z.z.s.5.5.5.5.5.5.9.t.t.t.x.c.@X@X@Xc.^.U.U.U.U.U.U.U.U.U.U.U.U.U.U.U.U.{.oX",
"OXOXOXoX{.U.U.U.U.U.U.^.^.^.^.^.R.c.c.c.c.c.y.^.^.^.y.c.x.z.z.z.z.z.t.y.c.c.c.c.#X}.oX}.E./.U.U.U.U.U.U.U.U.U.U.U.U.U.U.U.{.oXOX",
"oXoXOXOXoXoXoX{.U.U./.R.R.R.R.R.c.c.c.c.c.y.^.U.U.U.^.c.c.c.c.c.c.R.^.^././.^./. XOXOXOXoX{.U.U.U.U.U.U.U.U.U.U.U.U. XoXoXoXOXOX",
"U.`.{.oXOXOXOXoX{.U.U.^.^.^.^.^.^.^.^.^.^.^.U.U.U.U.^.R.c.c.R.^.^./.U.{.oXoX{.{.oXOXOXOXOXoXU.U.U.U.U.U.U.U.U.U.U.U.U.{.oXoXOXoX",
"U.U.U.{.oXoXoXoX XU.U.U.U.U.U.U.U.U.U.U.U.U.U.U.U.U.U.^.^.^.^.U.U.{.oXoXOXOXoXoXOXoXoXoXOXoX{.U.U.U.U.U.U.U.U.U.U.U.U.U.U.{. X{.",
"U.U.U.U.`.`.`.`.U.U.U.U.U.U.U.U.U.U.U.U.U.U.U.U.U.U.U.U.U.U.U.U./.}.oXoXoXoXoXoX}.#X@X#X.XOXoXoXoXoX{.U.U.U.U./.^./.U.U.U.U.U.U.",
"U.U.U.U.U.U.U.U.U.U.U.U.U.U.U.U.U.U.U.U.U.U.U.U.U.U.U.U.U.U.U.^.R.@X@X@XR.R.@X@X@Xc.c.c.#X}.oXoXoXoX X X X X}.R.c.y.^.^.^.^.^.U.",
"^.^.^.^.^.^.^.^.U.U.U.U.U.U.U.U.U.U.U.U.U.U.U.U.U.U.U.U.^.^.^.y.c.c.c.R.^.^.y.c.c.c.c.c.c.@X@X@X@X@X@X@X@X@X@Xc.c.c.c.c.c.c.R.^.",
"c.c.c.c.R.R.R.R./.U.U.U.U.U.U.U.U.U.U.U.U.U.U.U.U.U.U./.R.R.R.c.c.R.^.^.U.U.^.R.c.c.c.c.c.c.c.c.c.c.c.c.c.c.c.c.c.c.c.c.c.c.c.c.",
"c.c.c.R.^.^.^.^.U.U.U.U.U.U.U.U.U.U.U.U.U.U.U.U.U.U.U.U.^.^.^.^.^.^.U.U.U.U.U.^.^.^.y.c.c.c.c.c.c.c.c.c.c.c.c.c.c.c.c.x.c.c.c.c.",
"^.^.^.^.U.U.U.U.U.U.U.U.U.U.U.U.U.U.^.^.^.^.^.U.U.U.U.^.^.^.^.^.U.U.U.U.U.U.U.U.U.U.^.c.c.y.^.^.^.^.y.c.c.c.c.c.c.c.c.c.c.R.^./.",
"U.U.U.U.U.U.U.U.U.U.U.U.U.U.U.U.^.~.d.j.j.j.d.^.U.U.^.d.j.j.j.d.^.U.U.U.U.{.oXoXoX{.^.c.c.^.U.U.U.U.^.R.^.^.^.R.R.^.^.^.^.^.U.U.",
"U.U.U.U.U.U.U.U.U.U.U.U.U.U.U.^.d.j.k.k.k.h.h.d.~.~.d.h.k.k.k.k.d.^.U.U.{.oXOXOXOXoX(.#Xc.^.U.U.U.U.U./.U.U.U.^.^.U.U.U.U.U.U.`.",
"U.U.U.U.U.U.U.U.U.U.U.U.U.U.^.d.h.k.&X.X&Xk.h.h.j.j.h.k.&X.X.X&Xk.d.^.U.oXOXOXOXOXOXoX}.@XR.^.U.U.U.U.U.U.U.U.U.U.U.U.oXoXoXoXoX"
};
