/* XPM */
static char *rcp03461382414956[] = {
/* columns rows colors chars-per-pixel */
"64 64 216 2 ",
"   c #172D2C",
".  c #1C332E",
"X  c #1F392F",
"o  c #163434",
"O  c #1B3631",
"+  c #1D3831",
"@  c #173938",
"#  c #193D3D",
"$  c #163A35",
"%  c #263B2E",
"&  c #253B31",
"*  c #273934",
"=  c #5A221E",
"-  c #4D1D22",
";  c #551B21",
":  c #661822",
">  c #6C1A23",
",  c #721D24",
"<  c #4A2225",
"1  c #582725",
"2  c #662826",
"3  c #762124",
"4  c #7D2227",
"5  c #742B29",
"6  c #742B25",
"7  c #68372C",
"8  c #763A2B",
"9  c #763A35",
"0  c #6D3431",
"q  c #783318",
"w  c #1A443E",
"e  c #1A4237",
"r  c #264C3D",
"t  c #254336",
"y  c #2C583E",
"u  c #3A5839",
"i  c #39463C",
"p  c #77441A",
"a  c #794B3D",
"s  c #785433",
"d  c #194742",
"f  c #1A5644",
"g  c #1C5C44",
"h  c #235343",
"j  c #2D5A45",
"k  c #2A5745",
"l  c #355B46",
"z  c #2B4B44",
"x  c #1E6445",
"c  c #1E6A48",
"v  c #236344",
"b  c #216B47",
"n  c #296749",
"m  c #3A6245",
"M  c #3D6449",
"N  c #346848",
"B  c #237448",
"V  c #257B48",
"C  c #277A48",
"Z  c #36764B",
"A  c #446949",
"S  c #43794B",
"D  c #497B4F",
"F  c #56734A",
"G  c #5D7B55",
"H  c #557853",
"J  c #5D6F51",
"K  c #677748",
"L  c #75784B",
"P  c #617C54",
"I  c #657751",
"U  c #636F47",
"Y  c #5A7F60",
"T  c #833614",
"R  c #812427",
"E  c #842528",
"W  c #89292A",
"Q  c #882C28",
"!  c #8B3326",
"~  c #8F3628",
"^  c #94332D",
"/  c #99352F",
"(  c #9A3D2B",
")  c #9B3630",
"_  c #9D3930",
"`  c #A23C32",
"'  c #8B441B",
"]  c #884517",
"[  c #92551E",
"{  c #8E4C1D",
"}  c #A15E1B",
"|  c #B06D1F",
" . c #8F4923",
".. c #98472C",
"X. c #8C5525",
"o. c #A4462F",
"O. c #A65926",
"+. c #A44332",
"@. c #AC4A35",
"#. c #B64B3A",
"$. c #B95438",
"%. c #AF5333",
"&. c #A96524",
"*. c #B06C23",
"=. c #BC7528",
"-. c #936D3C",
";. c #C55D3D",
":. c #CB7235",
">. c #CD6440",
",. c #2B8449",
"<. c #2C8B4A",
"1. c #268349",
"2. c #378A4A",
"3. c #48874C",
"4. c #5C8249",
"5. c #448752",
"6. c #5B8655",
"7. c #6C8349",
"8. c #72854A",
"9. c #77894B",
"0. c #7D9E4B",
"q. c #78964A",
"w. c #638357",
"e. c #618258",
"r. c #658C56",
"t. c #738451",
"y. c #798852",
"u. c #68985C",
"i. c #73965A",
"p. c #759D5B",
"a. c #7CA14E",
"s. c #6DA15A",
"d. c #75A05E",
"f. c #7AA55F",
"g. c #7FAB5E",
"h. c #77A252",
"j. c #5B8366",
"k. c #648C6C",
"l. c #6E976F",
"z. c #689467",
"x. c #739E60",
"c. c #73996C",
"v. c #7A9A6F",
"b. c #679175",
"n. c #6B9472",
"m. c #719671",
"M. c #76A363",
"N. c #79A662",
"B. c #7BA962",
"V. c #7EAB68",
"C. c #6FA260",
"Z. c #C9812B",
"A. c #DA942C",
"S. c #D18F28",
"D. c #E09C2D",
"F. c #E6A733",
"G. c #84854F",
"H. c #8D9643",
"J. c #919943",
"K. c #848952",
"L. c #929C51",
"P. c #979B56",
"I. c #8F9350",
"U. c #A8954B",
"Y. c #A99553",
"T. c #AF8F54",
"R. c #83A24B",
"E. c #8CAB4D",
"W. c #8BA64C",
"Q. c #94AB4E",
"!. c #97A848",
"~. c #8DB14D",
"^. c #9AB74D",
"/. c #9CB94E",
"(. c #96B44E",
"). c #8DAF55",
"_. c #81AB5E",
"`. c #8BAE5C",
"'. c #85AA51",
"]. c #9CA656",
"[. c #8FB156",
"{. c #95B651",
"}. c #99B751",
"|. c #9EB850",
" X c #A0B94F",
".X c #A5A956",
"XX c #B6AB58",
"oX c #A3B950",
"OX c #AEB65B",
"+X c #A4BB58",
"@X c #B3BA56",
"#X c #B4B55D",
"$X c #BBB45A",
"%X c #B6B959",
"&X c #BDBA5A",
"*X c #B5B756",
"=X c #AFAA4F",
"-X c #829E6B",
";X c #82AA62",
":X c #88AC61",
">X c #87A86A",
",X c #A9AF60",
"<X c #ACB160",
"1X c #BFB565",
"2X c #B6A562",
"3X c #C6A862",
"4X c #D1BD67",
"5X c #C1B969",
"6X c #DBC26E",
"7X c #B5AB8A",
"8X c #BDB98D",
"9X c #C6B98D",
"0X c #CABD90",
"qX c #BDC092",
"wX c #CCC093",
"eX c #C5C38C",
/* pixels */
"/./././.[.n.b.b.b.n.).).n.b.b.b.m.#X&X&X&X&X#Xv.m.b.v.#X&X&X&X&X&X#X-X}.&X&X&X&X&X&X&X&X%X/./././././././.oX%X&X&X&X&X&X&X&X&X%X",
"{.{./.{.c.b.m.m.b.b.n.n.b.m.m.b.m.<X&X&X&X&X&X#X<X-X<X&X&X&X&X&X&X&X#X%X&X&X&X&X&X&X&X&X%XoX/././././.%X%X%X&X&X&X&X&X&X&X&X%XoX",
"n.c.`.c.b.v.<X<Xv.b.b.b.v.<X<Xv.m.v.#X&X&X&X&X&X&X#X&X&X&X&X&X&X&X&X&X&X&X&X&X&X&X&X&X&X&X&X%X X/./. X%X%X%X%X%X%X%X%X%X%XoX/.{.",
"b.m.c.b.m.<X&X&X<Xv.m.v.<X&X&X#X<X-X#X&X&X&X&X&X&X&X&X&X&X&X&X%X%X%X&X&X&X&X&X%X%X&X&X&X&X&X&XoX X/./. X X X X X X X X X X/.{.c.",
"v.<X<Xv.v.#X&X&X&X#X#X#X&X&X&X&X&X#X&X&X&X%X%X%X%X&X&X&X&X%XoX X/.oX%X&X&X&X#X:X:X#X&X&X&X&X&X&X%X%XoX/./././././././. X|.{.).n.",
"#X&X&X#X#X%X%X%X&X&X&X&X&X%X%X%X%X&X&X&X#X:X;X;X:X#X%X%X%XoX/./././.oX%X%XOX:XB.B.:X%X&X&X&X&X&X%X%X@X/././././././.oX%X#X-Xv.m.",
"&X&X&X&X%XoX/.oX%X&X&X&X%XoX/.|.|.#X%X#X:XB.B.B.B.:X|.oX@X X/././.{.{.{.;X;XB.B.B.;X#X%X%X%X%X%XoX/././././././.oX%X%X&X&X#X#X#X",
"&X&X&X%XoX/././.oX&X&X%XoX/.{._.B.;X;X;XB.B.B.B.B._.{./././././.{._.B.B.B.B.B.B.B.B.{. X/. X X X/./././././.oX%X%X%X%X%X&X&X&X&X",
"%X%XoX/./././././.%X%X%X/.{._.B.B.B.B.B.B.B.B.B.B.{.{.{.{././.{.g.B.B.B.B.B.B.B.B.B.g.{./././././././././.oX%X&X%XoX/.oX%X&X&X&X",
"/./././././././././.oX@X|.{.B.B.B.B.B.B.B.B.B.B.B.B.B.B._.{.{.g.B.B.B.B.g.{.{._.B.B.B.g.{.{././././././.@X%X%X%XoX/././.oX%X%X%X",
"/./././././.{.{.{.{.{.{._.B.B.B.B.B.B.B.B.B.B.B.B.B.B.B.B.B.B.B.B.B.B.B.{././.{.{._.B.B._._.}./././././././././././././././././.",
"/././././.}._._._.B.B.B.B.B.B.g.{.{.{.g.B.B.B.B.B.B.B.B.B.B.B.B.B.B.B.B.{././././.{.{.{.{.{././././././././.{.{.{./././././././.",
"/./././././.{.{.{._.B.B.B.B.B.{./././.{.B.g.{.{.{._.B.B.B.B.B.g.{.{.g.B.{././././././././././././././././.{._.B._.{././././././.",
"/././././././././.}.{.{._.B._.{./././.{._.{./././.{.{._.B.B._.{././.{._._.}././.^.E.^./././.{.{.{./././.{.g.B.B.B._.{./././././.",
"/././././.oX%X%XoX/././.}.}.|./././././.}././././././.{.{.{.{././././.W.'.W.W.W.R.F E././.{._.B._.{.{.{.g.B.B.B.B.B.{./././././.",
"/./././.oX%X&X&X%XoX/./.oX%X%X%X%XoX/././././././././.{.{.{.{./.^.E.0.m j j j j l R.^./.{.g.B.B.B.B.B.B.B.B.B.B.B.B.{.{.{./././.",
"{.{.oX%X&X&X&X&X&X&X%X%X%X&X&X&X%X@XOX}././.}.{.{.{.{._.B.B._.{.a.m j C ,.<.<.,.m E./.{.g.B.B.B.B.B.B.B.B.B.B.B.B.B.B.B._.{.{.{.",
"_.`.@X%X&X&X&X&X&X&X&X&X&X&X&X#X:X;X;X_.{.{._.B.B.B.B.B.B.B.B.p.l b B V V ,.<.N a.{.{.g.B.B.B.B.B.B.B.B.B.B.B.B.B.B.B.B.B.B.B.B.",
"}.}./. XoX%X&X&X&X&X&X&X%X%XOX:XB.B.B.B.B.B.B.B.B.B.B.N.i.i.i.r.k x g c V C N u.N.N.N.M.N.B.B.B.B.B.B.B.B.B.B.B.B.B.B.B.B.B.B.B.",
"/././. X XoX&X&X&X&X&X%XoX`._._.{.{.{._.B.B.B.B.B.N.i.t.7 2 1 1 y h b c b N u.M.n.n.n.n.M.B.B.B.B.B.B.B.B.M.M.M.M.N.B.B.g.{.{.{.",
"/.oX%X%X%X%X&X&X&X&X&XoX/.{.{.{././.{.{.{.{.[.f.i.t.7 5 +.) ^ 4 ; < j k l u.M.n.b.b.b.b.l.`.{.{.{.{.{.{.).l.n.n.n.M.M.B.{./././.",
"%X%X&X&X&X&X&X&X&X&X%X X/././././.}._._.B.B.f.t.7 5 +.@.#.#.` / 4 3 1 J j.k.c.n.b.b.b.b.b.n.n.n.n.c.[.[.c.m.m.m.b.n.n.N.{./././.",
"%X%X%X%X%X&X&X&X&X&XoX/././././././.{.{._.f.y.8 @.;.;.$.#.#.+...Q R 3 1 z k j.k.m.m.b.b.b.b.m.m.m.m.n.n.v.<X#X<Xv.b.b.l.{.|.oX%X",
" X/././.oX%X&X&X&X&XoX/././././././././.(.J.X.%.>.>.;.$.$.@.=.=.&.~ 4 ; y v j M P.,Xv.b.b.v.<X#X#X<Xv.v.<X&X&X&X<Xv.m.m.-X#X%X%X",
"/././././.oX%X%X&X&X%XoX%X%XoX/./././.^.J.[ S.F.:.;.A.A.Z.=.=.*.*.&.! 3 < h B ,.A ].,Xm.v.<X&X&X&X&X#X#X&X&X&X&X&X#X#X#X#X%XoX X",
" X X/././././.oX%X&X&X%X%X%X@XoX/././.!.7 %.F.F.D.A.A.Z.=.o.( Q ~ &.&.6 - v c 1.<.A P.-X<X&X&X&X&X&X&X&X&X&X&X&X&X&X&X&X&X%X X X",
"%X%XoX/././././.oX%X%X%XoX XoX@X/./.^.H.5 $.A.A.A.:.@.+.+./ R , ^ ~ O. .1 v B 1.,.<.A .X&X&X&X&X&X&X&X&X&X&X&X&X&X&X&X&X&X&XoX%X",
"&X&X%X X/././././. X X X/././././.^.H.8 +.$.Z.%.+.+._ ) / R , ^ / E ! ' = z b B 1.<.N ].&X&X&X%X%X&X&X&X&X&X&X&X&X&X&X&X&X&X&X&X",
"&X&X%X X/.oX%X%XoX/././././././.^.H.8 +.#.` +._ _ ) / E 4 , ^ / W R 4 3 q I.M j b V C M ].%X%XoXoX%X%X&X%XoXoX%X&X&X&X&X&X&X&X&X",
"&X&X&XoXoX%X&X&X%X%XoX/./././.!.J.8 ^ ` ` _ _ / ^ E 4 6 > ^ _ / E R , : 2 =XQ.H.m j j j A Q././././.oX@XoX/./.oX&X&X&X&X&X&X&X&X",
"&X&X&X&X%X&X&X&X&X%X%X%X@X=XU.[ ' ( +./ / ^ E 4 5 0 8 -.6 / / W R 4 > ; i L./.^.E.W.E..XQ.^././././././././././.%X&X&X&X&X%X%X%X",
"%X%X%X%X%X%X%X%X%XoX/./.!.X.{ | | *.*.! 5 0 5 9 Y.9XU.8 ^ / W R 4 , : < h l E././././.@X/./././././././././././.%X%X%X%X%XoX/./.",
" X/. X X/./././././.{.{._.p.q.X.]  .T  .Y.0X2XwX1XY.8 ^ / W R 4 , : < r g k W./././././././././././././././././././././././././.",
"/./././././././.{.{._.B.B.B.>XqX>X7X9 9X1X$XXX5XwX9 ^ / W R 4 > : - r f x k W./././././.{.{.{./././././././././././././././././.",
"/././././././.{._.B.B.B.B.B.B.>XV.>X7 XX4X$XXX$XY.5 / / E 3 > 2 1 * g f b k W.{.{././.{._.B._.{././././././././././././././././.",
"/././././.{.{.g.B.B.B.B.B.B.B.B.>X7Xa 3X6X4XXX0X .^ / W 3 ; 1 U.Y.l v c B j u.B._.{.{._.B.B.B.g.{././././././.{.{.{././././././.",
"/././.{.{._.B.B.B.B.g.{.{.}.{.{.>Xa 3X6X3XU.a K.' ( R 3 - r % .X$X].M B B B l p.B.B.B._.{.{.g.B.g.{././././.{._.B._.{./././.{.{.",
"{./.}._._.B.B.B.B._.{././././.+XqX9 2X3Xa a 7XX.*.O.1 - * f & .X%X`.i.N C ,.j '._.B._.{././.{._.B._.}././.{.g.B.B.B.g.{.{.{._.B.",
"_.{.{.{.{.{.{.{.{.{././././././.L.7 9 a 8X]..X] } p u   @ f & W.|.}.{.a.m j l 0.{.{.{././.{.{.{.{.{././.{._.B.B.B.B.B.B.B.B.B.B.",
"B._._._.}././././././././././.!.s L.qX].+X+XeX' p u 4.X w g t W.{.{.W.R.q.q.6.M a.~.{.{.{._.B.B._.{././.{.B.B.B.B.B.B.B.B.B.B.B.",
"{.{.{.{././././.{.{.{.{.{././.{.W.{.+X|./.oX].s I n + o # $ N h.z.Y t X + + e v Z 3.s.B.B.B.B.B.B.g.{.{.g.B.B.g.{.{.{._.B.B.B.B.",
"/././././././.{.c.n.n.n.c.[.[.c.n.c.{./.oX%X$XP.D 6.O # d O 4.Z n e w w w d f e 6.u.5.u.N.B.B.B.B.B.B.B.B.B.B.{./././.}.{.{.{.}.",
"/././././.{.{.c.m.m.m.m.b.n.n.m.m.b.c.}.%X&X$X.X3.I.& d d # O o w g x x x g w w t r.u.5.u.C.B.B.B.B.B.B.B.B._.{././././././././.",
"/./.{.{.[.c.c.v.<X#X#X<Xv.m.v.<X<Xv.v.#X$XXXI.K.S K . # d d # # @ $ $ + O O . O @ t r.a.3.5.s.'.).{.g.B.B.B.{.{.{.{.{.{.{./././.",
"|.{.c.c.c.v.<X#X&X&X&X&X#X#X#X&X&X#X#X.XK.K.y.G.t.N + o # d # @ o   O K L L L U & o & K q.q.3.2.3.~.{.B.B.B.B.B.B.B.B.B._.{.{.{.",
"#X-Xv.<X#X#X&X&X&X&X%X%X%X&X&X&X&X&X.X3.Z Z S H H Z U * o o o o O h n L y.8.S S U & o . X u R.~.~./.{.B.B.B.B.B.;X;X;X;X;X_._._.",
"%X#X#X%X%X%X&X&X%XOX:X;X:XOX%X&X&XOX6.t.t.t.H Z Z H P U & . . & U 7.K Z Z S 8.y.G.L * . % 0.^./././.{.B.;X;X;X:XOX%X%X%X%X%X%X%X",
"/././././.oX%X%X`._.B.B.B.;X:XOX#X:Xd.w.P P G H H G G P J F K K 7.8.8.7.7.7.9.9.9.G.L L 8.(./././.}._.;XOX@X@X@X%X%X%X%X%X%X%X%X",
"/./././././. X/.}.{.{.{._.B.B.:X;XB.N.x.w.e.G G G G G G G G G P P 7.8.8.8.8.8.8.8.8.9.9.E./././././.{.}././././././././././. X X",
"/./././././././././././.{.{.{.{._.B.B.B.M.x.w.e.e.e.e.G G G G G G G P P 7.9.8.w.w.w.d.f._.{./././././././././././././././././. X",
"%X%X%XoX/./././././././././././.{.{.{.[.B.N.M.f.f.f.x.w.e.e.e.e.e.e.e.e.w.d.f.M.M.N.;X;XB.}././././././././././././././././.oX%X",
"&X&X&X%XoX/./././././.{.{.{.{.{._.B.B.B.B.B.g.{.{.{.g.M.M.M.M.M.M.M.f.f.f.B.B.B.:XOX%XOX`.}./././././././././././././././.oX%X&X",
"%X%X%X&X%X%X%XoX/./.}._._._._._.B.B.B.B.B._.{./././.{.B.B.B.B.B.B._.{.{.}.}.{.}.@X&X&X&X%XoX/./././././././././././.@X%X%X%X&X&X",
"/. XoX%X&X&X&X%XoX/./.{.{.{.{.{.{.{.{.{.{.{././././.{._.B.B._.{.{.}./.oX%X%XoXoX%X&X&X&X&X%X/././././././././././././.oX%X%X&X%X",
"/././.oX%X%X%X%X@X/./././././././././././././././././.{.{.{.{././.oX%X&X&X&X%X%X&X%X%X%X&X%XoX/./././././././././././././.oX@XoX",
"/./././. X X X X/./././././././././././././././././././././././.}.OX%X%X%X%X%X%XOX:X;X:X#X&X%X%X%X%XoX/./././.}.{.}././././././.",
"/././././././././././././././././././././././././././././././.{._.;X;X;X_._.;X;X;XB.B.B.:XOX%X%X%X%X@X@X@X@XOX_.B.g.{.{.{.{.{./.",
"{.{.{.{.{.{.{.{././././././././././././././././././././.{.{.{.g.B.B.B._.{.{.g.B.B.B.B.B.B.;X;X;X;X;X;X;X;X;X;XB.B.B.B.B.B.B._.{.",
"B.B.B.B._._._._.}././././././././././././././././././.}._._._.B.B._.{.{././.{._.B.B.B.B.B.B.B.B.B.B.B.B.B.B.B.B.B.B.B.B.B.B.B.B.",
"B.B.B._.{.{.{.{././././././././././././././././././././.{.{.{.{.{.{./././././.{.{.{.g.B.B.B.B.B.B.B.B.B.B.B.B.B.B.B.B.B.B.B.B.B.",
"{.{.{.{././././././././././././././.{.{.{.{.{././././.{.{.{.{.{././././././././././.{.B.B.g.{.{.{.{.g.B.B.B.B.B.B.B.B.B.B._.{.}.",
"/./././././././././././././././.{.[.c.n.n.n.c.{././.{.c.n.n.n.c.{././././.oX%X%X%XoX{.B.B.{././././.{._.{.{.{._._.{.{.{.{.{././.",
"/././././././././././././././.{.c.n.m.m.m.b.b.c.[.[.c.b.m.m.m.m.c.{././.oX%X&X&X&X%X|.:XB.{./././././.}./././.{.{././././././. X",
"/./././././././././././././.{.c.b.m.<X#X<Xm.b.b.n.n.b.m.<X#X#X<Xm.c.{./.%X&X&X&X&X&X%XOX;X_.{././././././././././././.%X%X%X%X%X"
};
