/* XPM */
static char *rcp03462113552595[] = {
/* columns rows colors chars-per-pixel */
"64 64 219 2 ",
"   c #1A2E2B",
".  c #1D332D",
"X  c #1A362F",
"o  c #163434",
"O  c #1A3432",
"+  c #1D3B32",
"@  c #173B39",
"#  c #193D3E",
"$  c #173738",
"%  c #253B32",
"&  c #283932",
"*  c #233430",
"=  c #4D1B1F",
"-  c #57231E",
";  c #723918",
":  c #692816",
">  c #4F1B21",
",  c #561A21",
"<  c #661822",
"1  c #6C1A23",
"2  c #721D24",
"3  c #4B2125",
"4  c #572726",
"5  c #662726",
"6  c #762024",
"7  c #7D2227",
"8  c #732B29",
"9  c #742B25",
"0  c #6A382B",
"q  c #76382C",
"w  c #7A3A35",
"e  c #732E31",
"r  c #1C433A",
"t  c #31443F",
"y  c #29523F",
"u  c #2A5C3F",
"i  c #38533A",
"p  c #274537",
"a  c #79471D",
"s  c #6D4433",
"d  c #794738",
"f  c #49693D",
"g  c #194742",
"h  c #1C5D44",
"j  c #235343",
"k  c #2D5B45",
"l  c #2B5545",
"z  c #335C45",
"x  c #355A46",
"c  c #1F6D49",
"v  c #1E6545",
"b  c #246245",
"n  c #276847",
"m  c #396345",
"M  c #3D6348",
"N  c #376A49",
"B  c #227248",
"V  c #257D48",
"C  c #267747",
"Z  c #3A7A49",
"A  c #377953",
"S  c #436948",
"D  c #5D7B56",
"F  c #587250",
"G  c #51794E",
"H  c #6A724A",
"J  c #637546",
"K  c #797C4C",
"L  c #637D54",
"P  c #626D47",
"I  c #5D7B63",
"U  c #843D17",
"Y  c #842528",
"T  c #89292A",
"R  c #852827",
"E  c #8C3427",
"W  c #8F342B",
"Q  c #94332D",
"!  c #99352F",
"~  c #993B2C",
"^  c #9D3930",
"/  c #9B3630",
"(  c #A23C32",
")  c #88481C",
"_  c #9A591D",
"`  c #93481E",
"'  c #A6631C",
"]  c #8C5326",
"[  c #984B28",
"{  c #A5482F",
"}  c #AA5829",
"|  c #A44332",
" . c #AC4A35",
".. c #B64B3A",
"X. c #B95438",
"o. c #AF5333",
"O. c #A96524",
"+. c #B26C25",
"@. c #BC7627",
"#. c #936D3C",
"$. c #C55D3D",
"%. c #C27C26",
"&. c #CF6E3B",
"*. c #A97F4F",
"=. c #CD6440",
"-. c #268249",
";. c #2B8449",
":. c #2D8B4A",
">. c #3F844B",
",. c #3E8451",
"<. c #47854C",
"1. c #578A4F",
"2. c #478751",
"3. c #58825E",
"4. c #6E884A",
"5. c #73854A",
"6. c #77894C",
"7. c #79974C",
"8. c #638357",
"9. c #618258",
"0. c #668B58",
"q. c #7C8450",
"w. c #7B8E52",
"e. c #738853",
"r. c #6B9E5D",
"t. c #69965B",
"y. c #74975A",
"u. c #749E5A",
"i. c #7B9A57",
"p. c #6E9248",
"a. c #7FA04B",
"s. c #74A35D",
"d. c #7AA45F",
"f. c #7FAB5E",
"g. c #7BA451",
"h. c #6DA05A",
"j. c #5C8564",
"k. c #648A68",
"l. c #6C966E",
"z. c #6D9A61",
"x. c #729C61",
"c. c #73996C",
"v. c #7A9A6F",
"b. c #72966A",
"n. c #679175",
"m. c #6B9472",
"M. c #719671",
"N. c #76A363",
"B. c #79A662",
"V. c #7BA962",
"C. c #6FA260",
"Z. c #C7812A",
"A. c #DA942C",
"S. c #D08F28",
"D. c #E09C2D",
"F. c #E6A733",
"G. c #84854E",
"H. c #868C4E",
"J. c #899746",
"K. c #989A47",
"L. c #838551",
"P. c #898A53",
"I. c #83915D",
"U. c #979854",
"Y. c #928F4E",
"T. c #A9974C",
"R. c #AA9354",
"E. c #A5894F",
"W. c #83A24C",
"Q. c #8BAB4D",
"!. c #8AA54D",
"~. c #92A649",
"^. c #8CB14E",
"/. c #94B24E",
"(. c #9AB64D",
"). c #9CB94E",
"_. c #8BAE53",
"`. c #81AB5E",
"'. c #8AAE5C",
"]. c #83AB53",
"[. c #99A456",
"{. c #9DAB57",
"}. c #8FB056",
"|. c #95B651",
" X c #9AB751",
".X c #9EB850",
"XX c #9EB95B",
"oX c #A0B94F",
"OX c #ABAD58",
"+X c #A5AB57",
"@X c #B6AB57",
"#X c #A3B950",
"$X c #AFB65B",
"%X c #A8B954",
"&X c #B3BA57",
"*X c #B4B55D",
"=X c #B6B959",
"-X c #BDBA5A",
";X c #BAB45A",
":X c #829E6B",
">X c #859E64",
",X c #82AA62",
"<X c #88AC61",
"1X c #84A063",
"2X c #8BB270",
"3X c #A9AF60",
"4X c #ACB160",
"5X c #BFB565",
"6X c #B6A562",
"7X c #C29E5E",
"8X c #C2A15F",
"9X c #C9AD62",
"0X c #CABC69",
"qX c #DBC26D",
"wX c #B5AE8E",
"eX c #C7B78E",
"rX c #BAC094",
"tX c #CCC093",
"yX c #C3C58E",
/* pixels */
").).).).}.m.n.n.n.m._._.m.n.n.n.M.*X-X-X-X-X*Xv.M.n.v.*X-X-X0X0X-X*X:X X-X0X-X-X-X-X-X-X=X).).).).).).).).#X=X-X-X-X-X-X-X0X-X=X",
"|.|.).|.c.n.M.M.n.n.m.m.n.M.M.n.M.4X-X-X-X-X-X*X4X:X4X-X0X-X-X-X-X-X*X=X-X0X-X-X-X-X-X0X=X#X).).).).).=X=X=X-X-X-X-X-X-X-X=X=X#X",
"m.c.'.c.n.v.4X4Xv.n.n.n.v.4X4Xv.M.v.*X-X-X-X-X-X-X*X-X-X-X-X-X-X-X-X-X-X0X-X-X-X-X-X-X-X-X=X=X#X).).#X=X=X=X=X=X=X=X=X=X=X#X).|.",
"n.M.c.n.M.4X-X-X4Xv.M.v.4X-X-X*X4X:X*X-X-X-X-X-X-X-X-X-X-X-X=X=X=X=X-X-X0X-X-X=X=X-X-X-X-X-X-X#X#X#X).).#X#X#X#X).#X#X#X#X).|.c.",
"v.4X4Xv.v.*X-X-X-X*X*X*X-X-X-X-X-X*X-X-X-X=X=X=X=X-X-X-X-X=X#X).).#X=X-X-X-X*X<X<X*X-X-X-X-X-X-X=X=X#X).).).).).).).).#X.X|._.m.",
"*X-X-X*X*X=X=X=X-X-X-X-X-X=X=X=X=X-X0X-X*X<X,X,X<X*X=X=X=X#X).).).).#X=X=X$X<XV.V.<X=X-X-X-X-X-X=X=X&X).).).).).).).#X=X*X:Xv.M.",
"-X-X0X-X=X#X).#X=X-X0X-X=X#X)..X.X*X=X*X<XV.V.V.V.<X.X#X&X).).).).|.|.|.,X,XV.V.V.,X*X=X=X=X=X=X#X).).).).).).).#X=X=X-X-X*X*X*X",
"-X-X-X=X#X).).).#X-X0X=X#X).|.`.V.,X,X,XV.V.V.V.V.`.|.).).).).).|.`.V.V.V.V.V.V.V.V.|.).).#X#X#X).).).).).).#X=X=X=X=X=X-X0X-X-X",
"=X=X#X).).).).).).=X=X=X).|.`.V.V.V.V.V.V.V.V.V.V.|.|.|.|.).).|.f.V.V.V.V.V.V.V.V.V.f.|.).).).).).).).).).#X=X-X=X#X).#X=X-X-X-X",
").).).).).).).).).).#X&X.X|.V.V.V.V.V.V.V.V.V.V.V.V.V.V.`.|.|.f.V.V.V.V.f.|.|.`.V.V.V.f.|.|.).).).).).).&X=X=X=X#X).).).#X=X=X=X",
").).).).).).|.|.|.|.|.|.`.V.V.V.V.V.V.V.V.V.V.V.V.V.V.V.V.V.V.V.V.V.V.V.|.).).|.|.`.V.V.`.`. X).).).).).).).).).).).).).).).).).",
").).).).). X`.`.`.V.V.V.V.V.V.f.|.|.|.f.V.V.V.V.V.V.V.V.V.V.V.V.V.V.V.V.|.).).).).|.|.|.|.|.).).).).).).).).|.|.|.).).).).).).).",
").).).).).).|.|.|.`.V.V.V.V.V.|.).).).|.V.f.|.|.|.`.V.V.V.V.V.f.|.|.f.V.|.).).).).).).).).).).).).).).).).|.`.V.`.|.).).).).).).",
").).).).).).).).). X|.|.`.V.`.|.).).).|.`.|.).).).|.|.`.V.V.`.|.).).|.`.`. X).).).).).).).).|.|.|.).).).|.f.V.V.V.`.|.).).).).).",
").).).).).#X=X=X#X).).). X X.X).).).).). X).).).).).).|.|.|.|.).(.Q.Q.!.!.Q.(.).).).).).).|.`.V.`.|.|.|.f.V.V.V.V.V.|.).).).).).",
").).).).#X=X-X-X=X#X).).#X=X=X=X=X#X).).).).).).).).).|.|.|.|.(.W.m k k k m a.Q.Q.(.).).|.f.V.V.V.V.V.V.V.V.V.V.V.V.|.|.|.).).).",
"|. X#X=X=X-X0X0X-X-X=X=X=X-X-X-X=X&X$X X).).|.|.|.|.|.`.V.V.f.7.m C V V :.:.b l x W.(.|.f.V.V.V.V.V.V.B.V.V.V.V.V.V.V.V.`.|.|.|.",
"`.'.&X=X=X-X-X-X-X0X0X-X-X-X-X*X<X,X,X`.|.|.`.V.V.V.V.B.y.y.0.x n B V -.-.;.V l l S ].f.V.V.V.B.V.V.V.B.V.V.V.V.V.V.V.V.V.V.V.V.",
" X X).).#X=X-X-X-X-X-X-X=X=X$X<XV.V.V.V.f.V.V.V.V.B.y.e.0 5 4 3 y j v B B B N t.r.x.B.N.B.V.V.V.V.V.B.B.V.V.V.V.V.V.V.V.V.V.V.V.",
").).).).).#X-X0X-X-X-X=XoX'.`.`.|.|.|.`.f.V.f.B.y.e.0 8 | / Q 7 , 3 u n l k t.N.m.m.m.m.N.V.V.V.V.V.V.V.V.N.N.N.N.B.V.V.f.|.|.|.",
"#X#X=X=X=X=X-X-X-X-X=X#X).|.|.|.).).|.|.|.|.}.e.0 8 |  .....( ! Y 6 3 t 0.z.N.m.n.n.n.n.l.'.|.|.|.|.|.|.'.l.m.m.m.N.N.V.|.).).).",
"=X=X-X-X-X-X-X-X-X-X=X).).).).).). X`.`.V.f.w.0  .$.$.X.....| | T Y 6 4 I k.c.m.n.n.n.n.n.m.m.m.m.c.}.}.c.M.M.M.n.m.m.B.|.).).).",
"=X=X=X=X=X-X-X-X0X-X#X).).).).).).).|.|.`.w.] o.=.=.$.X.X. .@.@.O.E 7 , t l j.k.M.M.n.n.n.n.M.M.M.M.m.m.v.4X*X4Xv.n.n.l.|..X#X=X",
"#X).).).#X=X-X-X0X-X#X).).).).).).).).(.J.] S.F.&.$.A.A.Z.@.@.+.+.O.E 6 3 j k M U.3Xv.n.n.v.4X*X*X4Xv.v.4X-X-X-X4Xv.M.M.:X*X=X=X",
").).).).).#X=X=X-X-X=X#X=X=X#X).).).).~.0 o.F.F.D.A.A.Z.@.{ ~ E E O.O.9 > j B C S [.3XM.v.4X-X0X-X-X*X*X-X0X0X0X-X*X*X*X*X=X#X#X",
"#X#X).).).).).#X=X-X-X-X=X=X&X#X).).(.J.8 X.A.A.A.%.{ | | ! Y 2 Q W } ` 4 b c -.;.S +X:X4X-X-X-X-X-X-X-X0X0X-X-X0X0X-X-X-X=X#X#X",
"=X=X#X).).).).).#X=X=X=X#X).#X&X).(.J.q | X.Z.o.| | ^ / ! Y 2 Q Q Y E ` - j C -.-.z [.*X-X-X-X-X-X-X-X-X-X-X-X-X-X-X-X-X-X=X#X=X",
"0X-X=X#X).).).).).#X).).).).).).(.J.q | ..( | ^ ^ / ! Y 7 2 Q ! T Y 7 6 : i B -.;.:.S OX-X-X-X=X=X-X-X-X-X=X=X-X-X-X0X-X-X-X=X-X",
"0X0X=X#X).#X=X=X#X).).).).).).).~.0 W ( ( ^ / ! Q Y 7 9 1 Q ^ ! Y Y 2 1 0 Y.M B V :.x OX-X=X=X#X#X=X=X-X=X#X#X=X-X-X-X-X-X-X-X-X",
"0X0X-X#X#X=X-X-X=X=X#X).).).).).K.q ~ ! ! Q Y 7 8 e q #.9 ! ! T Y 7 1 5 T.;XW.m k ;.k +X=X#X).).).).#X&X#X(.).#X=X-X-X-X-X-X-X-X",
"0X-X-X-X=X-X-X-X-X=X=X=X=X=X&XT._ Z.+.R 8 e 8 w R.eXE.q Q ! T Y 7 2 < 4 U.=X).Q.a.m l +X#X).).).).).).).).).).).=X0X0X0X-X=X=X=X",
"=X=X=X=X=X=X=X=X=X#X#X)..X(.K._ %.@.U w R.eX6XtX5XR.w Q ! T Y 7 2 < 3 y m W.(.).(.W.S +X).).).).).).).).).).).).=X=X=X=X=X#X).).",
").).).).).).).).).).|.|.`.i.) ' ) U q eX5X;X@X0XtXw Q ! T Y 7 1 < 3 p v n m Q.).).(.Q.).).).).).).).).).).).).).).).).).).).).).",
").).(.).).).).).|.|.`.V.V.i.a ] w.I.q @X0X;X@XT.R.8 Q ! Y 6 1 5 4 y v h B k Q.).).).).).|.|.|.).).).).).).).).).).).).).).).).).",
").).(.(.).).).|.`.V.V.V.V.B.1XrX2XwXd 9XqX9XT.d 8 Q Q T 6 , 4 T.U.n B c C k Q.|.|.).).|.`.V.`.|.).).).).).).).).).).).).).).).).",
").).).).).|.|.f.V.V.V.V.V.V.V.2XV.I.d 7X9Xd d wXq ~ T 2 > * z OXOXx B -.;.M u.V.`.|.|.`.V.V.V.f.|.).).).).).).|.|.|.).).).).).).",
").).).|.|.`.V.V.V.V.f.|.|.|.|.|.i.d *.d d w.>XI.) _ ; = * $ n OXOXM C V k y.V.V.V.V.V.`.|.|.f.V.f.|.).).).).|.`.V.`.|.).).).|.|.",
"|.). X`.`.V.V.V.V.`.|.).).).).).!.5 s w.!.XXyX] _ a i   o $ b [.$Xy.k ;.k u.|.|.`.V.`.|.).).|.`.V.`. X).).|.f.V.V.V.f.|.|.|.`.V.",
"`.|.(.|.|.|.|.|.|.|.).).).).).).~.s w.|.)..X{.) ; f p.. o o o Z |.Q.m ;.m Q.|.Q._._.Q.^.^.|.|.|.|.|.).).|.`.V.V.V.V.V.V.V.V.V.V.",
"f.`.`.`. X).).).).).).).).).).).(.~.(.).).).(.J.S 7.7.+ # o + Z g._.p.z p.W.r.2.>.>.>.>.<.h.s.V.`.|.).).|.V.V.V.V.V.V.V.V.V.V.V.",
"|.|.|.|.).).).).|.|.|.|.|.).).|.|.|.).).).). Xx.A j.% o # + 7.g.A 3.p X + r N r.s.].s.s.r.,.,.r.B.f.|.|.f.V.V.f.|.|.|.`.V.V.V.V.",
").).).).).).).|.c.m.m.m.c.}.}.c.l.l.].^./.=X=X[.2.k.O # g + 4.3.r n v v v h r 0.r.s.B.V.B.C.r.2.r.B.V.V.V.V.V.|.).).).|.|.|.|. X",
").).).).).|.|.c.M.M.M.M.n.m.m.M.l.A A <.1.{.{.1.[.U.% g g # O O # g @ @ r r r + b Z N.d.u.B.B.r.2.s.V.V.V.V.`.|.).).).).).).).).",
").).|.|.}.c.c.v.4X*X*X4Xv.M.v.4X4Xb.b.{.[.<.G q.P.G.. # g g # # $ o o . O O o o O S t.7.i u.`.|.^.|.f.V.V.V.|.|.|.|.|.|.|.).).).",
".X|.c.c.c.v.4X*X-X-X-X-X*X*X*X-X-X*X*X@XY.q.q.L.L.K & o # g # $ o . % P H P k + O   . . p !.|.).).).|.V.V.V.V.V.V.V.V.V.`.|.|.|.",
"*X:Xv.4X*X*X-X0X-X-X=X=X=X-X-X-X-X-X;XU.P.P.L.L L L H & o o o o % J J N N N K H &     % J /.).).).).|.V.V.V.V.V.,X,X,X,X,X`.`.`.",
"=X*X*X=X=X=X-X-X=X$X<X,X<X$X=X-X-X=X*XP.L.L.L D D D L H % . . % J 5.5.4.5.q.G.G.K K K K H./.).).).).|.V.,X,X,X<X$X=X=X=X=X=X=X=X",
").).).).).#X=X=X'.`.V.V.V.,X<X$X$X<XV.0.L L D D D D D L F F J J 4.5.5.5.5.5.5.5.6.G.L.G.H./.).).). X`.,X$X&X&X&X=X=X=X=X=X=X=X=X",
").).).).).).).). X|.|.|.`.V.V.<X,XV.B.x.8.9.D D D D D D D D D L L 4.5.5.5.5.5.5.5.5.6.w.Q.).).).).).|. X).).).).).).).).).).#X#X",
").).).).).).).).).).).).|.|.|.|.`.V.V.V.N.x.8.9.9.9.9.D D D D D D D L L 4.6.4.8.8.8.s.d.`.|.).).).).).).).).).).).).).).).).).#X",
"=X=X=X#X).).).).).).).).).).).).|.|.|.}.V.B.N.d.d.d.x.8.9.9.9.9.9.9.9.9.8.s.d.N.N.V.,X,XV.|.).).).).).).).).).).).).).).).).#X=X",
"0X-X-X=X#X).).).).).).|.|.|.|.|.`.V.V.V.V.V.f.|.|.|.f.N.N.N.N.N.N.N.d.d.d.V.V.V.<X$X=X$X'. X).).).).).).).).).).).).).).).#X=X-X",
"=X=X=X-X=X=X=X#X).). X`.`.`.`.`.V.V.V.V.V.`.|.).).).|.V.V.V.V.V.V.`.|.|. X X|. X&X-X-X-X=X#X).).).).).).).).).).).).&X=X=X=X-X-X",
").).#X=X-X-X-X=X#X).).|.|.|.|.|.|.|.|.|.|.|.).).).).|.`.V.V.`.|.|. X).#X=X=X#X#X=X-X-X-X-X=X).).).).).).).).).).).).).#X=X=X-X=X",
").).).#X=X=X=X=X&X).).).).).).).).).).).).).).).).).).|.|.|.|.).).#X=X-X-X-X=X=X-X=X=X=X-X=X#X).).).).).).).).).).).).).).#X&X#X",
").).).).#X#X#X#X).).).).).).).).).).).).).).).).).).).).).).).). X$X=X=X=X=X=X=X$X<X,X<X*X-X=X=X=X=X#X).).).). X|. X).).).).).).",
").).).).).).).).).).).).).).).).).).).).).).).).).).).).).).).|.`.,X,X,X`.`.,X,X,XV.V.V.<X$X=X=X=X=X&X&X&X&X$X`.V.f.|.|.|.|.|.).",
"|.|.|.|.|.|.|.|.).).).).).).).).).).).).).).).).).).).).|.|.|.f.V.V.V.`.|.|.f.V.V.V.V.V.V.,X,X,X,X,X,X,X,X,X,XV.V.V.V.V.V.V.`.|.",
"V.V.V.V.`.`.`.`. X).).).).).).).).).).).).).).).).).). X`.`.`.V.V.`.|.|.).).|.`.V.V.V.V.V.V.V.V.V.V.V.V.V.V.V.V.V.V.V.V.V.V.V.V.",
"V.V.V.`.|.|.|.|.).).).).).).).).).).).).).).).).).).).).|.|.|.|.|.|.).).).).).|.|.|.f.V.V.V.V.V.V.V.V.V.V.V.V.V.V.V.V.B.V.V.V.V.",
"|.|.|.|.).).).).).).).).).).).).).).|.|.|.|.|.).).).).|.|.|.|.|.).).).).).).).).).).|.V.V.f.|.|.|.|.f.V.V.V.V.V.V.V.V.V.V.`.|. X",
").).).).).).).).).).).).).).).).|.}.c.m.m.m.c.|.).).|.c.m.m.m.c.|.).).).).#X=X=X=X#X|.V.V.|.).).).).|.`.|.|.|.`.`.|.|.|.|.|.).).",
").).).).).).).).).).).).).).).|.c.m.M.M.M.n.n.c.}.}.c.n.M.M.M.M.c.|.).).#X=X-X-X-X=X.X<XV.|.).).).).). X).).).|.|.).).).).).).#X",
").).).).).).).).).).).).).).|.c.n.M.4X*X4XM.n.n.m.m.n.M.4X*X*X4XM.c.|.).=X-X-X-X-X-X=X$X,X`.|.).).).).).).).).).).).).=X=X=X=X=X"
};
