/* XPM */
static char *rcp03462677566830[] = {
/* columns rows colors chars-per-pixel */
"64 64 217 2 ",
"   c #122E2C",
".  c #1C332E",
"X  c #1A352D",
"o  c #153435",
"O  c #1D3A32",
"+  c #193D3E",
"@  c #193736",
"#  c #23292A",
"$  c #253B32",
"%  c #283B31",
"&  c #213B35",
"*  c #222E31",
"=  c #55171F",
"-  c #57221E",
";  c #6F3417",
":  c #4B1B22",
">  c #511D21",
",  c #661822",
"<  c #6B1B23",
"1  c #721D24",
"2  c #4B2225",
"3  c #572726",
"4  c #672726",
"5  c #762024",
"6  c #7D2227",
"7  c #732C2A",
"8  c #742B25",
"9  c #69372B",
"0  c #76382C",
"q  c #742E31",
"w  c #773C35",
"e  c #18413C",
"r  c #284737",
"t  c #28513F",
"y  c #30643E",
"u  c #7D481D",
"i  c #794839",
"p  c #194A44",
"a  c #184441",
"s  c #1B5947",
"d  c #2B5545",
"f  c #2D5A45",
"g  c #255743",
"h  c #325C46",
"j  c #395D44",
"k  c #325748",
"l  c #2E554E",
"z  c #1F6D49",
"x  c #1E6648",
"c  c #216B48",
"v  c #2A6745",
"b  c #396445",
"n  c #386647",
"m  c #217048",
"M  c #257C48",
"N  c #297648",
"B  c #38784A",
"V  c #3A7951",
"C  c #435442",
"Z  c #436848",
"A  c #5D7B56",
"S  c #587250",
"D  c #576F4C",
"F  c #667546",
"G  c #787B4B",
"H  c #637D54",
"J  c #63765E",
"K  c #636D47",
"L  c #843D17",
"P  c #842528",
"I  c #892A29",
"U  c #842827",
"Y  c #8C3427",
"T  c #8F342B",
"R  c #94332D",
"E  c #99352F",
"W  c #9A3B2C",
"Q  c #9D3930",
"!  c #9B3630",
"~  c #A23C32",
"^  c #83431C",
"/  c #8B4418",
"(  c #93481B",
")  c #955A1D",
"_  c #A45D1F",
"`  c #B06C1E",
"'  c #8A5522",
"]  c #924728",
"[  c #A5482F",
"{  c #AA5829",
"}  c #A44332",
"|  c #AC4A35",
" . c #B64B3A",
".. c #B95538",
"X. c #AF5333",
"o. c #A96524",
"O. c #B26C25",
"+. c #BC7627",
"@. c #936D3C",
"#. c #C55D3D",
"$. c #CB7235",
"%. c #855944",
"&. c #867D48",
"*. c #CD6440",
"=. c #278149",
"-. c #2C8549",
";. c #2C8A4A",
":. c #3C824C",
">. c #498A4B",
",. c #49844C",
"<. c #518D4D",
"1. c #468951",
"2. c #598458",
"3. c #6C884B",
"4. c #73864A",
"5. c #79854C",
"6. c #778C4C",
"7. c #78954A",
"8. c #638357",
"9. c #618258",
"0. c #658857",
"q. c #768954",
"w. c #68985C",
"e. c #799958",
"r. c #789A58",
"t. c #7DA24D",
"y. c #7FA94F",
"u. c #7EA850",
"i. c #74A35D",
"p. c #7AA55F",
"a. c #7FAB5E",
"s. c #78A354",
"d. c #6EA15A",
"f. c #5E886F",
"g. c #648A69",
"h. c #6E976F",
"j. c #699565",
"k. c #739E60",
"l. c #73996C",
"z. c #7A9A6F",
"x. c #679175",
"c. c #6B9472",
"v. c #719671",
"b. c #658F74",
"n. c #76A462",
"m. c #79A662",
"M. c #7BA962",
"N. c #C78228",
"B. c #DA942C",
"V. c #D08F28",
"C. c #E09C2D",
"Z. c #E6A733",
"A. c #84854E",
"S. c #888E4E",
"D. c #8C9644",
"F. c #839A4B",
"G. c #949B41",
"H. c #858651",
"J. c #8A8751",
"K. c #8B8C53",
"L. c #918D52",
"P. c #959855",
"I. c #869853",
"U. c #A1834A",
"Y. c #AC974E",
"T. c #AC9453",
"R. c #A88F51",
"E. c #82A14B",
"W. c #84AA4E",
"Q. c #8CAB4D",
"!. c #94A648",
"~. c #92AA4C",
"^. c #8CB04D",
"/. c #9AB64D",
"(. c #9CB94E",
"). c #97B34D",
"_. c #8DAE55",
"`. c #81AB5E",
"'. c #8AAE5C",
"]. c #85AD52",
"[. c #95A155",
"{. c #9AA855",
"}. c #8FB056",
"|. c #95B651",
" X c #9AB751",
".X c #9DB850",
"XX c #9DBA5C",
"oX c #A0B94F",
"OX c #AAAC57",
"+X c #B6AB58",
"@X c #A3B950",
"#X c #AEB65B",
"$X c #A7B654",
"%X c #B3BA56",
"&X c #B4B55D",
"*X c #BAB45A",
"=X c #B6B959",
"-X c #BDBA5A",
";X c #AFAA4F",
":X c #829E6B",
">X c #829D64",
",X c #82AA62",
"<X c #88AC61",
"1X c #89A768",
"2X c #8AB168",
"3X c #ACB160",
"4X c #BBAD66",
"5X c #C4A85F",
"6X c #CCAE64",
"7X c #D2BD67",
"8X c #C1B969",
"9X c #DCC46E",
"0X c #B9BA93",
"qX c #B8AA8A",
"wX c #C1AE8B",
"eX c #C8BA8F",
"rX c #CCC093",
/* pixels */
"(.(.(.(.}.c.x.x.x.c._._.c.x.x.x.v.&X-X-X-X-X&Xz.v.x.z.&X-X-X8X8X-X&X:X X-X8X-X-X-X-X-X-X=X(.(.(.(.(.(.(.(.@X=X-X-X-X-X-X-X8X-X=X",
"|.|.(.|.l.x.v.v.x.x.c.c.x.v.v.x.v.3X-X-X-X-X-X&X3X:X3X-X8X-X8X8X-X-X&X=X-X8X8X-X-X-X8X8X=X@X(.(.(.(.(.=X=X=X-X-X-X-X-X-X-X-X=X@X",
"c.l.'.l.x.z.3X3Xz.x.x.x.z.3X3Xz.v.z.&X-X-X-X-X-X-X&X-X-X-X-X-X-X-X-X-X-X8X-X-X-X8X-X8X-X-X=X=X@X(.(.@X=X=X=X=X=X=X=X=X=X=X@X(.|.",
"x.v.l.x.v.3X-X-X#Xz.v.z.3X-X-X&X3X:X&X-X-X-X-X-X-X-X-X-X-X-X=X=X=X=X-X-X8X-X-X=X=X-X-X-X8X8X-X@X(.@X(.(.@X@X@X@X(.@X@X@X@X(.|.l.",
"z.3X3Xz.z.&X-X-X-X&X&X&X-X-X-X-X-X&X-X-X-X=X=X=X=X-X-X-X-X=X@X(.(.@X=X-X-X-X&X<X<X&X-X-X-X-X-X-X=X=X@X(.(.(.(.(.(.(.(.@X.X|._.c.",
"&X-X-X&X&X=X=X=X-X8X-X-X-X=X=X=X=X-X8X-X&X<X,X,X<X&X=X=X=X@X(.(.(.(.@X=X=X#X<XM.M.<X=X-X-X-X8X-X=X=X%X(.(.(.(.(.(.(.@X=X&X:Xz.v.",
"-X-X8X-X=X@X(.@X=X-X8X-X=X@X(..X.X&X=X&X<XM.M.M.M.<X.X@X=X@X(.(.(.|.|.|.,X,XM.M.M.`.&X=X=X=X=X=X@X(.(.(.(.(.(.(.@X=X=X-X-X&X&X&X",
"-X-X-X=X@X(.(.(.@X-X8X=X@X(.|.`.M.,X,X,XM.M.M.M.M.`. X(.(.(.(.(.|.`.M.M.M.M.M.M.M.a.|.(.(.(.@X@X(.(.(.(.(.(.@X=X=X=X=X=X-X8X-X-X",
"=X=X@X(.(.(.(.(.(.=X=X=X(.|.`.M.M.M.M.M.M.M.M.M.M.|.|.|.|.(.(.|.a.M.M.M.M.M.M.M.M.M.a.|.(.(.(.(.(.(.(.(.(.@X=X-X=X@X(.@X=X-X-X-X",
"(.(.(.(.(.(.(.(.(.(.@X%X.X|.M.M.M.M.M.M.M.M.M.M.M.M.M.M.`.|.|.a.M.M.M.M.a.|.|.`.M.M.M.a.|.|.(.(.(.(.(.(.%X=X=X=X@X(.(.(.@X=X=X=X",
"(.(.(.(.(.(.|.|.|.|.|.|.`.M.M.M.M.M.M.M.M.M.M.M.M.M.M.M.M.M.M.M.M.M.M.M.|.(.(.|.|.`.M.M.`.`. X(.(.(.(.(.(.(.(.(.(.(.(.(.(.(.(.(.",
"(.(.(.(.(. X`.`.`.M.M.M.M.M.M.a.|.|.|.a.M.M.M.M.M.M.M.M.M.M.M.M.M.M.M.M.|.(.(.(.(.|.|.|.|.|.(.(.(.(.(.(.(.(.|.|.|.(.(.(.(.(.(.(.",
"(.(.(.(.(.(.|.|.|.`.M.M.M.M.M.|.(.(.(.|.M.a.|.|.|.`.M.M.M.M.M.a.|.|.a.M.|.(.(.(.(.(.(.(.(.(.(.(.(.(.(.(.(.|.`.M.`.|.(.(.(.(.(.(.",
"(.(.(.(.(.(.(.(.(. X|.|.`.M.`.|.(.(.(.|.`.|.(.(.(.|.|.`.M.M.`.|.(.(.|.`.`. X(.(.(.(.(.(.(.(.|.|.|.(.(.(.|.a.M.M.M.`.|.(.(.(.(.(.",
"(.(.(.(.(.@X=X=X@X(.(.(. X X.X(.(.(.(.(. X(.(.(.(.(.(.|.|.|.|.(./.Q.W.W.W.Q./.(.(.(.(.(.(.|.`.M.`.|.|.|.a.M.M.M.M.M.|.(.(.(.(.(.",
"(.(.(.(.@X=X-X-X=X@X(.(.@X=X=X=X=X@X(.(.(.(.(.(.(.(.(.|.|.|.|./.E.b f f f b E./.(.(.(.(.|.a.M.M.M.M.M.M.M.M.M.M.M.M.|.|.|.(.(.(.",
" X X@X=X-X-X8X8X-X-X=X=X=X-X-X-X=X%X#X X(.(.|.|.|.|.|.`.r.e.e.7.b N N M ;.;.n E./.(.(.|.a.M.M.M.M.M.M.M.M.M.M.M.M.M.M.M.`.|.|.|.",
"`.'.%X=X=X-X8X8X8X8X8X-X-X-X-X&X<X,X,X`.|.|.`.M.M.p.r.q.9 4 3 3 y v s x z =.-.n t.|.|.a.M.M.M.M.M.M.M.M.M.M.M.M.M.M.M.M.M.M.M.M.",
" X/.(.(.@X=X-X8X-X-X-X-X=X=X#X<XM.M.M.M.M.M.M.m.r.q.9 7 } ! R 6 3 2 t c c m M M h w.m.n.m.M.M.M.M.M.M.M.M.M.M.M.M.M.M.M.M.M.M.M.",
"(.(.(.(.@X@X-X8X-X-X-X=XoX'.`.`.|.|.|.`.M.M.p.q.9 7 } |  . .Q R P 5 2 t g d d d d l g.c.n.M.M.M.M.M.M.M.M.n.n.n.n.m.M.M.a.|.|.|.",
"@X@X=X=X=X=X-X8X-X-X-X@X(.|.|.|.(.(.|.|.|.|.D.0 | #.#... . .} } I P 5 3 0.j.j.g.f.f.b.x.h.'.|.|.|.|.|.|._.h.c.c.c.n.n.M.|.(.(.(.",
"=X=X-X-X-X-X-X-X-X-X=X(.(.(.(.(.(. X`.`.a.7.' X.*.*.#.....X.+.+.o.Y 6 3 J g.l.x.x.x.x.x.x.c.c.c.c.l.}.}.l.v.v.v.x.x.c.m.|.(.(.(.",
"=X=X=X=X=X-X-X-X8X-X@X(.(.(.(.(.(.(.|.|.6.' V.Z.$.#.B.B.N.+.+.O.O.o.Y 5 3 k g.v.v.v.x.x.x.x.v.v.v.v.c.c.z.3X&X3Xz.x.x.h.|..X@X=X",
"(.(.(.(.@X=X-X-X-X-X@X(.(.(.(.(.(.(.(.!.9 X.Z.Z.C.B.B.N.+.[ W I Y o.o.8 > v b P.&X3Xz.x.x.z.3X&X&X3Xz.z.3X-X-X-X3Xz.v.v.:X&X=X=X",
"(.(.(.(.(.@X=X=X-X-X=X@X=X=X@X(.(.(./.D.7 ..B.B.B.$.[ } } E P 1 R T { ( 3 v -.Z {.*X3Xv.z.3X-X8X-X-X&X&X-X8X8X8X-X=X=X&X&X=X@X@X",
"@X@X(.(.(.(.(.@X=X-X-X=X=X=X=X@X(./.D.0 } ..N.X.} } Q ! R P 1 R R P Y / - g M -.Z OX&X:X3X-X-X-X-X-X-X-X8X8X8X8X-X-X-X-X-X=X@X(.",
"=X=X@X(.(.(.(.(.@X=X=X=X@X(.@X%X(.D.0 }  .~ } Q Q ! R P 6 1 R E I P 6 1 ; v z M h {.*X&X-X8X-X-X-X-X-X-X-X-X-X-X-X-X-X-X-X=X@X=X",
"8X-X=X@X(.(.(.(.(.@X@X@X(.(.(.(.!.9 T ~ ~ Q ! E R P 6 8 < R Q E P P 1 < 3 g z m -.Z OX8X8X-X-X=X=X-X-X-X-X=X=X-X-X-X8X-X-X-X=X-X",
"8X8X=X@X(.@X=X=X@X(.(.(.(.(.(./.G.0 W E R R P 6 7 q 0 @.8 R E I P 6 < 4 &.j c M ;.k OX-X-X=X=X@X@X=X=X-X=X@X@X=X-X8X8X8X-X-X-X-X",
"8X8X-X@X@X=X-X-X=X=X@X@X(.(.(.G.) N.O.U < q 7 w T.eXU.0 R R I P 6 1 , 2 C I.b c M f ~.=X=X@X(.(.(.(.@X%X@X(.(.@X-X8X8X-X-X-X-X-X",
"8X8X-X-X=X-X-X-X-X=X=X=X=X=X;X) N.+.L 7 w wX4XrX4XT.0 R R I P 6 1 , 2 t d P.F.n c d Q.=X@X(.(.(.(.(.(.(.(.(.(.@X=X8X8X8X-X=X=X=X",
"=X=X=X=X=X=X=X=X=X@X(.(..X X!./ ` / 0 wX+X*X+X8XrXw R E I P 6 < , 2 t s s j W.E.j d Q.%X(.(.(.(.(.(.(.(.(.(.(.@X=X=X=X=X=X@X(.(.",
"(.(.(.(.(.(.(.(.(.(.|.|.`.M.e.u ' A.0 +X7X*X+XY.R.7 R E P 5 < > 3 t x s x d W./.E.Z Q.(.(.(.(.(.(.(.(.(.(.(.(.(.(.(.(.(.(.(.(.(.",
"(.(.(.(.(.(.(.(.|.|.`.M.M.M.m.r.1X0Xi 6X9X7XR.i 7 R E P 5 = : j S.d z x c d W.(./.Q./.(.|.|.|.(.(.(.(.(.(.(.(.(.(.(.(.(.(.(.(.(.",
"(.(.(.(.(.(.(.|.`.M.M.M.M.M.M.M.M.>Xw 6X7XY.%.qX0 W I 5 > *   v [.k c z M f W.|.|.(.(.|.`.M.`.|.(.(.(.(.(.(.(.(.(.(.(.(.(.(.(.(.",
"(.(.(.(.(.|.|.a.M.M.M.M.M.M.M.M.M.>Xw 5XY.%.0X1X^ _ ( > * o   v [.k m =.-.b r.M.`.|.|.`.M.M.M.a.|.(.(.(.(.(.(.|.|.|.(.(.(.(.(.(.",
"(.(.(.|.|.`.M.M.M.M.a.|.|.|.|.|.2X0Xi U.%.q.2X>XL ( ; # o o   N [.k M =.v w.m.M.i.i.i.i.].].a.M.a.|.(.(.(.(.|.`.M.`.|.(.(.(.|.|.",
" X(. X`.`.M.M.M.M.`.|.(.(.(.(.(.|.2Xq.i qXXXXX0X^ ^ G . o o   B I.d =.-.n i.|.u.1.:.:.:.:.>.u.a.M.`. X(.(.|.a.M.M.M.a.|.|.|.`.M.",
"`.|. X|.|.|.|.|.|.|.(.(.(.(.(.(.|.`.e.i {..X X[.' G.E.O o o . 7.B f -.n t.|.W.<.y.Q.Q.^.^.y.<.u.|.|.(.(.|.`.M.M.M.M.M.M.M.M.M.M.",
"a.`.`.`. X(.(.(.(.(.(.(.(.(.(.(.^.Q.Q.!././.W.,.F.}.7.O + o r t.,.3.n 7.W.u.1.d.|.(.|.|.|.a.w.1.i.|.(.(.|.M.M.M.M.M.M.M.M.M.M.M.",
"|.|.|.|.(.(.(.(.|.|.|.|.|.(.(._.>.:.>.W.^.W.,.j.l.g.& o + O 7._.2.N c N N B w.m.i.].i.r.p.M.m.k.m.a.|.|.a.M.M.a.|.|.|.`.M.M.M.M.",
"(.(.(.(.(.(.(.|.l.c.c.c.l.}.}.l.g.j.s.>.,.<.{.&X3Xg.@ + a O 3.2.& o e p p e 0.w.V B v r w.m.M.M.M.M.M.M.M.M.M.|.(.(.(.|.|.|.|. X",
"(.(.(.(.(.|.|.l.v.v.v.v.x.c.c.v.v.x.l._.$X#X*X*X*XP.$ a p + @ @ + + @ + + e O r 2.2.O O B w.m.M.M.M.M.M.M.M.`.|.(.(.(.(.(.(.(.(.",
"(.(.|.|.}.l.l.z.3X&X&X3Xz.v.z.3X3Xz.z.&X*X+XP.L.L.A.. + p p + + @ o o X   o e e X X $ 7.y.1.i.|.|.|.a.M.M.M.|.|.|.|.|.|.|.(.(.(.",
".X|.l.l.l.z.3X&X-X-X-X-X&X&X&X-X-X&X&X+XP.L.J.H.H.G % @ + a + @ o . % K b g O . . & D 6.Q.^.|.(.(.(.|.M.M.M.M.M.M.M.M.M.`.|.|.|.",
"&X:Xz.3X&X&X-X8X-X-X=X=X=X-X-X-X-X-X*XP.J.J.H.H H H F % o o o o % K F A.5.5.G G G G H.5.7.).(.(.(.(.|.M.M.M.M.M.,X,X,X,X,X`.`.`.",
"=X&X&X=X=X=X-X-X=X#X<X,X<X#X=X-X-X=X&XK.H.H.H A A A H F % . . % K 4.4.4.A.H.H.H.H.J.J.H.S.).(.(.(.(.|.M.,X,X,X<X#X=X=X=X=X=X=X=X",
"(.(.(.(.(.@X=X=X'.`.M.M.M.,X<X#X#X<Xm.0.H H A A A A A H S S F F 4.4.4.4.4.4.4.4.5.A.H.A.S.).(.(.(. X`.,X#X%X%X%X=X=X=X=X=X=X=X=X",
"(.(.(.(.(.(.@X(. X|.|.|.`.M.M.<X,XM.m.k.8.9.A A A A A A A A A H H 3.4.4.4.4.4.4.4.4.6.6.Q.(.(.(.(.(.|. X(.(.(.(.(.(.(.(.(.(.@X@X",
"(.(.(.(.(.(.(.(.(.(.(.(.|.|.|.|.`.M.M.M.n.k.8.9.9.9.9.A A A A A A A H H 3.6.4.8.8.0.i.p.`.|.(.(.(.(.(.(.(.(.(.(.(.(.(.(.(.(.(.@X",
"=X=X=X@X(.(.(.(.(.(.(.(.(.(.(.(.|.|.|.}.M.m.n.p.p.p.k.8.9.9.9.9.9.9.9.9.0.i.p.n.n.m.,X,XM.|.(.(.(.(.(.(.(.(.(.(.(.(.(.(.(.(.@X=X",
"8X-X-X=X@X(.(.(.(.(.(.|.|.|.|.|.`.M.M.M.M.M.a.|.|.|.a.n.n.n.n.n.n.n.p.p.p.M.M.M.<X#X=X#X'. X(.(.(.(.(.(.(.(.(.(.(.(.(.(.(.@X=X-X",
"=X=X=X-X=X=X=X@X(.(. X`.`.`.`.`.M.M.M.M.M.`.|.(.(.(.|.M.M.M.M.M.M.`.|.|. X X|. X%X-X-X-X=X@X(.(.(.(.(.(.(.(.(.(.(.(.%X=X=X=X-X-X",
"(.(.@X=X-X-X-X=X@X(.(.|.|.|.|.|.|.|.|.|.|.|.(.(.(.(.|.`.M.M.`.|.|. X(.@X=X=X@X@X=X-X-X-X-X=X(.(.(.(.(.(.(.(.(.(.(.(.(.@X=X=X-X=X",
"(.(.(.@X=X=X=X=X%X(.(.(.(.(.(.(.(.(.(.(.(.(.(.(.(.(.(.|.|.|.|.(.(.@X=X=X-X-X=X=X-X=X=X=X-X=X@X(.(.(.(.(.(.(.(.(.(.(.(.(.(.@X%X@X",
"(.(.(.(.@X@X@X@X(.(.(.(.(.(.(.(.(.(.(.(.(.(.(.(.(.(.(.(.(.(.(.(. X#X=X=X=X=X=X=X#X<X,X<X&X-X=X=X=X=X@X(.(.(.(. X|. X(.(.(.(.(.(.",
"(.(.(.(.(.(.(.(.(.(.(.(.(.(.(.(.(.(.(.(.(.(.(.(.(.(.(.(.(.(.(.|.`.,X,X,X`.`.,X,X,XM.M.M.<X#X=X=X=X=X%X%X%X%X#X`.M.a.|.|.|.|.|.(.",
"|.|.|.|.|.|.|.|.(.(.(.(.(.(.(.(.(.(.(.(.(.(.(.(.(.(.(.(.|.|.|.a.M.M.M.`.|.|.a.M.M.M.M.M.M.,X,X,X,X,X,X,X,X,X,XM.M.M.M.M.M.M.`.|.",
"M.M.M.M.`.`.`.`. X(.(.(.(.(.(.(.(.(.(.(.(.(.(.(.(.(.(. X`.`.`.M.M.`.|.|.(.(.|.`.M.M.M.M.M.M.M.M.M.M.M.M.M.M.M.M.M.M.M.M.M.M.M.M.",
"M.M.M.`.|.|.|.|.(.(.(.(.(.(.(.(.(.(.(.(.(.(.(.(.(.(.(.(.|.|.|.|.|.|.(.(.(.(.(.|.|.|.a.M.M.M.M.M.M.M.M.M.M.M.M.M.M.M.M.M.M.M.M.M.",
"|.|.|.|.(.(.(.(.(.(.(.(.(.(.(.(.(.(.|.|.|.|.|.(.(.(.(.|.|.|.|.|.(.(.(.(.(.(.(.(.(.(.|.M.M.a.|.|.|.|.a.M.M.M.M.M.M.M.M.M.M.`.|. X",
"(.(.(.(.(.(.(.(.(.(.(.(.(.(.(.(.|.}.l.c.c.c.l.|.(.(.|.l.c.c.c.l.|.(.(.(.(.@X=X=X=X@X|.M.M.|.(.(.(.(.|.`.|.|.|.`.`.|.|.|.|.|.(.(.",
"(.(.(.(.(.(.(.(.(.(.(.(.(.(.(.|.l.c.v.v.v.x.x.l.}.}.l.x.v.v.v.v.l.|.(.(.@X=X-X-X-X=X.X<XM.|.(.(.(.(.(. X(.(.(.|.|.(.(.(.(.(.(.@X",
"(.(.(.(.(.(.(.(.(.(.(.(.(.(.|.l.x.v.3X&X3Xv.x.x.c.c.x.v.3X&X&X3Xv.l.|.(.=X-X-X-X-X-X=X#X,X`.|.(.(.(.(.(.(.(.(.(.(.(.(.=X=X=X=X=X"
};
