/* XPM */
static char *rcp03463208763859[] = {
/* columns rows colors chars-per-pixel */
"64 64 219 2 ",
"   c #1A2E2B",
".  c #1D332D",
"X  c #1A362F",
"o  c #163435",
"O  c #1A3432",
"+  c #1D3A32",
"@  c #173B39",
"#  c #193D3E",
"$  c #163834",
"%  c #253B32",
"&  c #283932",
"*  c #233430",
"=  c #4D1B1F",
"-  c #57231E",
";  c #723918",
":  c #692816",
">  c #4F1B21",
",  c #561A21",
"<  c #661822",
"1  c #6C1A23",
"2  c #721D24",
"3  c #4B2125",
"4  c #572726",
"5  c #662726",
"6  c #762024",
"7  c #7D2227",
"8  c #732B29",
"9  c #742B25",
"0  c #6A382B",
"q  c #76382C",
"w  c #7A3A35",
"e  c #732E31",
"r  c #1C4339",
"t  c #31443F",
"y  c #29523F",
"u  c #2A5C3F",
"i  c #38533A",
"p  c #274537",
"a  c #79471D",
"s  c #6D4433",
"d  c #794738",
"f  c #49693D",
"g  c #194742",
"h  c #1C5D44",
"j  c #235343",
"k  c #2D5B45",
"l  c #2B5545",
"z  c #335C45",
"x  c #355A46",
"c  c #1F6D49",
"v  c #1E6545",
"b  c #276847",
"n  c #396345",
"m  c #3D6348",
"M  c #376A49",
"N  c #227248",
"B  c #257D48",
"V  c #267747",
"C  c #3A7B49",
"Z  c #377953",
"A  c #436948",
"S  c #5D7B56",
"D  c #587250",
"F  c #51794E",
"G  c #6A724A",
"H  c #637546",
"J  c #797C4C",
"K  c #637D54",
"L  c #626D47",
"P  c #5D7B63",
"I  c #843D17",
"U  c #842528",
"Y  c #89292A",
"T  c #852827",
"R  c #8C3427",
"E  c #8F342B",
"W  c #94332D",
"Q  c #99352F",
"!  c #993B2C",
"~  c #9D3930",
"^  c #9B3630",
"/  c #A23C32",
"(  c #88481C",
")  c #9A591D",
"_  c #93481E",
"`  c #A6631C",
"'  c #8C5326",
"]  c #984B28",
"[  c #A5482F",
"{  c #AA5829",
"}  c #A44332",
"|  c #AC4A35",
" . c #B64B3A",
".. c #B95438",
"X. c #AF5333",
"o. c #A96524",
"O. c #B26C25",
"+. c #BC7627",
"@. c #936D3C",
"#. c #C55D3D",
"$. c #C27C26",
"%. c #CF6E3B",
"&. c #A97F4F",
"*. c #CD6440",
"=. c #268249",
"-. c #2B8449",
";. c #2D8B4A",
":. c #3F844B",
">. c #3E8451",
",. c #47854C",
"<. c #578A4F",
"1. c #478751",
"2. c #58825E",
"3. c #6E884A",
"4. c #73854A",
"5. c #77894C",
"6. c #79974C",
"7. c #638357",
"8. c #618258",
"9. c #668B58",
"0. c #7C8450",
"q. c #7B8E52",
"w. c #738853",
"e. c #6B9E5D",
"r. c #69965B",
"t. c #74975A",
"y. c #749E5A",
"u. c #7B9A57",
"i. c #6E9248",
"p. c #7FA04B",
"a. c #6EA05D",
"s. c #74A35D",
"d. c #7AA45F",
"f. c #7FAB5E",
"g. c #7BA451",
"h. c #5C8564",
"j. c #648A68",
"k. c #6C966E",
"l. c #6D9A61",
"z. c #729C61",
"x. c #73996C",
"c. c #7A9A6F",
"v. c #72966A",
"b. c #679175",
"n. c #6B9472",
"m. c #719671",
"M. c #76A363",
"N. c #79A662",
"B. c #7BA962",
"V. c #6FA260",
"C. c #C7812A",
"Z. c #DA942C",
"A. c #D08F28",
"S. c #E09C2D",
"D. c #E6A733",
"F. c #84854E",
"G. c #868C4E",
"H. c #899746",
"J. c #989A47",
"K. c #838551",
"L. c #898A53",
"P. c #83915D",
"I. c #979854",
"U. c #928F4E",
"Y. c #A9974C",
"T. c #AA9354",
"R. c #A5894F",
"E. c #83A24C",
"W. c #8BAB4D",
"Q. c #8AA54D",
"!. c #92A649",
"~. c #8CB14E",
"^. c #94B24E",
"/. c #9AB64D",
"(. c #9CB94E",
"). c #8BAE53",
"_. c #81AB5E",
"`. c #8AAE5C",
"'. c #83AB53",
"]. c #9AA356",
"[. c #9DAB55",
"{. c #9BAA5A",
"}. c #8FB056",
"|. c #95B651",
" X c #9AB751",
".X c #9EB850",
"XX c #9EB95B",
"oX c #A0B94F",
"OX c #ABAD58",
"+X c #A5AB57",
"@X c #B6AB57",
"#X c #A3B950",
"$X c #AFB65B",
"%X c #A8B954",
"&X c #B3BA57",
"*X c #B4B55D",
"=X c #B6B959",
"-X c #BDBA5A",
";X c #BAB45A",
":X c #829E6B",
">X c #859E64",
",X c #82AA62",
"<X c #88AC61",
"1X c #84A063",
"2X c #8BB270",
"3X c #A9AF60",
"4X c #ACB160",
"5X c #BFB565",
"6X c #B6A562",
"7X c #C29E5E",
"8X c #C2A15F",
"9X c #C9AD62",
"0X c #CABC69",
"qX c #DBC26D",
"wX c #B5AE8E",
"eX c #C7B78E",
"rX c #BAC094",
"tX c #CCC093",
"yX c #C3C58E",
/* pixels */
"(.(.(.(.}.n.b.b.b.n.).).n.b.b.b.m.*X-X-X-X-X*Xc.m.b.c.*X-X-X0X0X-X*X:X X-X0X-X-X-X-X-X-X=X(.(.(.(.(.(.(.(.#X=X-X-X-X-X-X-X0X-X=X",
"|.|.(.|.x.b.m.m.b.b.n.n.b.m.m.b.m.4X-X-X-X-X-X*X4X:X4X-X0X-X-X-X-X-X*X=X-X0X-X-X-X-X-X0X=X#X(.(.(.(.(.=X=X=X-X-X-X-X-X-X-X=X=X#X",
"n.x.`.x.b.c.4X4Xc.b.b.b.c.4X4Xc.m.c.*X-X-X-X-X-X-X*X-X-X-X-X-X-X-X-X-X-X0X-X-X-X-X-X-X-X-X=X=X#X(.(.#X=X=X=X=X=X=X=X=X=X=X#X(.|.",
"b.m.x.b.m.4X-X-X4Xc.m.c.4X-X-X*X4X:X*X-X-X-X-X-X-X-X-X-X-X-X=X=X=X=X-X-X0X-X-X=X=X-X-X-X-X-X-X#X#X#X(.(.#X#X#X#X(.#X#X#X#X(.|.x.",
"c.4X4Xc.c.*X-X-X-X*X*X*X-X-X-X-X-X*X-X-X-X=X=X=X=X-X-X-X-X=X#X(.(.#X=X-X-X-X*X<X<X*X-X-X-X-X-X-X=X=X#X(.(.(.(.(.(.(.(.#X.X|.).n.",
"*X-X-X*X*X=X=X=X-X-X-X-X-X=X=X=X=X-X0X-X*X<X,X,X<X*X=X=X=X#X(.(.(.(.#X=X=X$X<XB.B.<X=X-X-X-X-X-X=X=X&X(.(.(.(.(.(.(.#X=X*X:Xc.m.",
"-X-X0X-X=X#X(.#X=X-X0X-X=X#X(..X.X*X=X*X<XB.B.B.B.<X.X#X&X(.(.(.(.|.|.|.,X,XB.B.B.,X*X=X=X=X=X=X#X(.(.(.(.(.(.(.#X=X=X-X-X*X*X*X",
"-X-X-X=X#X(.(.(.#X-X0X=X#X(.|._.B.,X,X,XB.B.B.B.B._.|.(.(.(.(.(.|._.B.B.B.B.B.B.B.B.|.(.(.#X#X#X(.(.(.(.(.(.#X=X=X=X=X=X-X0X-X-X",
"=X=X#X(.(.(.(.(.(.=X=X=X(.|._.B.B.B.B.B.B.B.B.B.B.|.|.|.|.(.(.|.f.B.B.B.B.B.B.B.B.B.f.|.(.(.(.(.(.(.(.(.(.#X=X-X=X#X(.#X=X-X-X-X",
"(.(.(.(.(.(.(.(.(.(.#X&X.X|.B.B.B.B.B.B.B.B.B.B.B.B.B.B._.|.|.f.B.B.B.B.f.|.|._.B.B.B.f.|.|.(.(.(.(.(.(.&X=X=X=X#X(.(.(.#X=X=X=X",
"(.(.(.(.(.(.|.|.|.|.|.|._.B.B.B.B.B.B.B.B.B.B.B.B.B.B.B.B.B.B.B.B.B.B.B.|.(.(.|.|._.B.B._._. X(.(.(.(.(.(.(.(.(.(.(.(.(.(.(.(.(.",
"(.(.(.(.(. X_._._.B.B.B.B.B.B.f.|.|.|.f.B.B.B.B.B.B.B.B.B.B.B.B.B.B.B.B.|.(.(.(.(.|.|.|.|.|.(.(.(.(.(.(.(.(.|.|.|.(.(.(.(.(.(.(.",
"(.(.(.(.(.(.|.|.|._.B.B.B.B.B.|.(.(.(.|.B.f.|.|.|._.B.B.B.B.B.f.|.|.f.B.|.(.(.(.(.(.(.(.(.(.(.(.(.(.(.(.(.|._.B._.|.(.(.(.(.(.(.",
"(.(.(.(.(.(.(.(.(. X|.|._.B._.|.(.(.(.|._.|.(.(.(.|.|._.B.B._.|.(.(.|._._. X(.(.(.(.(.(.(.(.|.|.|.(.(.(.|.f.B.B.B._.|.(.(.(.(.(.",
"(.(.(.(.(.#X=X=X#X(.(.(. X X.X(.(.(.(.(. X(.(.(.(.(.(.|.|.|.|.(./.W.W.Q.Q.W./.(.(.(.(.(.(.|._.B._.|.|.|.f.B.B.B.B.B.|.(.(.(.(.(.",
"(.(.(.(.#X=X-X-X=X#X(.(.#X=X=X=X=X#X(.(.(.(.(.(.(.(.(.|.|.|.|./.E.n k k k n p.W.W./.(.(.|.f.B.B.B.B.B.B.B.B.B.B.B.B.|.|.|.(.(.(.",
"|. X#X=X=X-X0X0X-X-X=X=X=X-X-X-X=X&X$X X(.(.|.|.|.|.|._.B.B.f.6.n V B B ;.;.b l x E./.|.f.B.B.B.B.B.B.N.B.B.B.B.B.B.B.B._.|.|.|.",
"_.`.&X=X=X-X-X-X-X0X0X-X-X-X-X*X<X,X,X_.|.|._.B.B.B.B.N.t.t.9.x b N B =.=.-.B l l A '.f.B.B.B.N.B.B.B.N.B.B.B.B.B.B.B.B.B.B.B.B.",
" X X(.(.#X=X-X-X-X-X-X-X=X=X$X<XB.B.B.B.f.B.B.B.B.N.t.w.0 5 4 3 y j v N N N M r.e.z.N.M.N.B.B.B.B.B.N.N.B.B.B.B.B.B.B.B.B.B.B.B.",
"(.(.(.(.(.#X-X0X-X-X-X=XoX`._._.|.|.|._.f.B.f.N.t.w.0 8 } ^ W 7 , 3 u b l k r.M.n.n.n.n.M.B.B.B.B.B.B.B.B.M.M.M.M.N.B.B.f.|.|.|.",
"#X#X=X=X=X=X-X-X-X-X=X#X(.|.|.|.(.(.|.|.|.|.}.w.0 8 } |  . ./ Q U 6 3 t 9.l.M.n.b.b.b.b.k.`.|.|.|.|.|.|.`.k.n.n.n.M.M.B.|.(.(.(.",
"=X=X-X-X-X-X-X-X-X-X=X(.(.(.(.(.(. X_._.B.f.q.0 | #.#... . .} } Y U 6 4 P j.x.n.b.b.b.b.b.n.n.n.n.x.}.}.x.m.m.m.b.n.n.N.|.(.(.(.",
"=X=X=X=X=X-X-X-X0X-X#X(.(.(.(.(.(.(.|.|._.q.' X.*.*.#.....| +.+.o.R 7 , t l h.j.m.m.b.b.b.b.m.m.m.m.n.n.c.4X*X4Xc.b.b.k.|..X#X=X",
"#X(.(.(.#X=X-X-X0X-X#X(.(.(.(.(.(.(.(./.H.' A.D.%.#.Z.Z.C.+.+.O.O.o.R 6 3 j k m I.3Xc.b.b.c.4X*X*X4Xc.c.4X-X-X-X4Xc.m.m.:X*X=X=X",
"(.(.(.(.(.#X=X=X-X-X=X#X=X=X#X(.(.(.(.!.0 X.D.D.S.Z.Z.C.+.[ ! R R o.o.9 > j N V A ].3Xm.c.4X-X0X-X-X*X*X-X0X0X0X-X*X*X*X*X=X#X#X",
"#X#X(.(.(.(.(.#X=X-X-X-X=X=X&X#X(.(./.H.8 ..Z.Z.Z.$.[ } } Q U 2 W E { _ 4 b c =.-.A +X:X4X-X-X-X-X-X-X-X0X0X-X-X0X0X-X-X-X=X#X#X",
"=X=X#X(.(.(.(.(.#X=X=X=X#X(.#X&X(./.H.q } ..C.X.} } ~ ^ Q U 2 W W U R _ - j V =.=.z ].*X-X-X-X-X-X-X-X-X-X-X-X-X-X-X-X-X-X=X#X=X",
"0X-X=X#X(.(.(.(.(.#X(.(.(.(.(.(./.H.q }  ./ } ~ ~ ^ Q U 7 2 W Q Y U 7 6 : i N =.-.;.A OX-X-X-X=X=X-X-X-X-X=X=X-X-X-X0X-X-X-X=X-X",
"0X0X=X#X(.#X=X=X#X(.(.(.(.(.(.(.!.0 E / / ~ ^ Q W U 7 9 1 W ~ Q U U 2 1 0 U.m b B ;.x OX-X=X=X#X#X=X=X-X=X#X#X=X-X-X-X-X-X-X-X-X",
"0X0X-X#X#X=X-X-X=X=X#X(.(.(.(.(.J.q ! Q Q W U 7 8 e q @.9 Q Q Y U 7 1 5 Y.;XE.n k -.k +X=X#X(.(.(.(.#X&X#X/.(.#X=X-X-X-X-X-X-X-X",
"0X-X-X-X=X-X-X-X-X=X=X=X=X=X&XY.) C.O.T 8 e 8 w T.eXR.q W Q Y U 7 2 < 4 I.=X(.W.p.n l +X#X(.(.(.(.(.(.(.(.(.(.(.=X0X0X0X-X=X=X=X",
"=X=X=X=X=X=X=X=X=X#X#X(..X/.J.) $.+.I w T.eX6XtX5XT.w W Q Y U 7 2 < 3 y n E./.(./.E.A +X(.(.(.(.(.(.(.(.(.(.(.(.=X=X=X=X=X#X(.(.",
"(.(.(.(.(.(.(.(.(.(.|.|._.u.( ` ( I q eX5X;X@X0XtXw W Q Y U 7 1 < 3 p v b n W.(.(./.W.(.(.(.(.(.(.(.(.(.(.(.(.(.(.(.(.(.(.(.(.(.",
"(.(./.(.(.(.(.(.|.|._.B.B.u.a ' q.P.q @X0X;X@XY.T.8 W Q U 6 1 5 4 y v h N k W.(.(.(.(.(.|.|.|.(.(.(.(.(.(.(.(.(.(.(.(.(.(.(.(.(.",
"(.(././.(.(.(.|._.B.B.B.B.N.1XrX2XwXd 9XqX9XY.d 8 W W Y 6 , 4 Y.I.b N c V k W.|.|.(.(.|._.B._.|.(.(.(.(.(.(.(.(.(.(.(.(.(.(.(.(.",
"(.(.(.(.(.|.|.f.B.B.B.B.B.B.B.2XB.P.d 7X9Xd d wXq ! Y 2 > * z OXOXx N =.-.m y.B._.|.|._.B.B.B.f.|.(.(.(.(.(.(.|.|.|.(.(.(.(.(.(.",
"(.(.(.|.|._.B.B.B.B.f.|.|.|.|.|.u.d &.d d q.>XP.( ) ; = * @ b OXOXm V B k t.B.B.B.B.B._.|.|.f.B.f.|.(.(.(.(.|._.B._.|.(.(.(.|.|.",
"|.(. X_._.B.B.B.B._.|.(.(.(.(.(.Q.5 s q.Q.XXyX' ) a i   o @ b [.$Xt.k -.k y.|.|._.B._.|.(.(.|._.B._. X(.(.|.f.B.B.B.f.|.|.|._.B.",
"_.|./.|.|.|.|.|.|.|.(.(.(.(.(.(.!.s q.|.(..X[.( ; f i.. o o $ C |.W.n -.n W.|.W.).).W.~.~.|.|.|.|.|.(.(.|._.B.B.B.B.B.B.B.B.B.B.",
"f._._._. X(.(.(.(.(.(.(.(.(.(.(./.!./.(.(.(./.H.A 6.6.+ # o + C g.).i.z i.E.e.1.:.:.:.:.,.a.s.B._.|.(.(.|.B.B.B.B.B.B.B.B.B.B.B.",
"|.|.|.|.(.(.(.(.|.|.|.|.|.(.(.|.|.|.(.(.(.(. Xz.Z h.% o # + 6.g.Z 2.p X + r M e.s.'.s.s.e.>.>.e.N.f.|.|.f.B.B.f.|.|.|._.B.B.B.B.",
"(.(.(.(.(.(.(.|.x.n.n.n.x.}.}.x.k.k.'.~.^.=X=X{.1.j.O # g + 3.2.r b v v v h r 9.a.s.N.B.N.V.e.1.e.N.B.B.B.B.B.|.(.(.(.|.|.|.|. X",
"(.(.(.(.(.|.|.x.m.m.m.m.b.n.n.m.k.Z Z ,.<.[.[.<.].I.% g g # O O # g @ @ r r r r b C M.d.y.N.N.e.1.s.B.B.B.B._.|.(.(.(.(.(.(.(.(.",
"(.(.|.|.}.x.x.c.4X*X*X4Xc.m.c.4X4Xv.v.[.].,.F 0.L.F.. # g g # # $ o O . O O o o + A r.6.i y._.|.~.|.f.B.B.B.|.|.|.|.|.|.|.(.(.(.",
".X|.x.x.x.c.4X*X-X-X-X-X*X*X*X-X-X*X*X@XU.0.0.K.K.J & o # g # @ o . % L G L k + O   . . p Q.|.(.(.(.|.B.B.B.B.B.B.B.B.B._.|.|.|.",
"*X:Xc.4X*X*X-X0X-X-X=X=X=X-X-X-X-X-X;XI.L.L.K.K K K G & o o o o % H H M M M J G &     % H ^.(.(.(.(.|.B.B.B.B.B.,X,X,X,X,X_._._.",
"=X*X*X=X=X=X-X-X=X$X<X,X<X$X=X-X-X=X*XL.K.K.K S S S K G % . . % H 4.4.3.4.0.F.F.J J J J G.^.(.(.(.(.|.B.,X,X,X<X$X=X=X=X=X=X=X=X",
"(.(.(.(.(.#X=X=X`._.B.B.B.,X<X$X$X<XB.9.K K S S S S S K D D H H 3.4.4.4.4.4.4.4.5.F.K.F.G.^.(.(.(. X_.,X$X&X&X&X=X=X=X=X=X=X=X=X",
"(.(.(.(.(.(.(.(. X|.|.|._.B.B.<X,XB.N.z.7.8.S S S S S S S S S K K 3.4.4.4.4.4.4.4.4.5.q.W.(.(.(.(.(.|. X(.(.(.(.(.(.(.(.(.(.#X#X",
"(.(.(.(.(.(.(.(.(.(.(.(.|.|.|.|._.B.B.B.M.z.7.8.8.8.8.S S S S S S S K K 3.5.3.7.7.7.s.d._.|.(.(.(.(.(.(.(.(.(.(.(.(.(.(.(.(.(.#X",
"=X=X=X#X(.(.(.(.(.(.(.(.(.(.(.(.|.|.|.}.B.N.M.d.d.d.z.7.8.8.8.8.8.8.8.8.7.s.d.M.M.B.,X,XB.|.(.(.(.(.(.(.(.(.(.(.(.(.(.(.(.(.#X=X",
"0X-X-X=X#X(.(.(.(.(.(.|.|.|.|.|._.B.B.B.B.B.f.|.|.|.f.M.M.M.M.M.M.M.d.d.d.B.B.B.<X$X=X$X`. X(.(.(.(.(.(.(.(.(.(.(.(.(.(.(.#X=X-X",
"=X=X=X-X=X=X=X#X(.(. X_._._._._.B.B.B.B.B._.|.(.(.(.|.B.B.B.B.B.B._.|.|. X X|. X&X-X-X-X=X#X(.(.(.(.(.(.(.(.(.(.(.(.&X=X=X=X-X-X",
"(.(.#X=X-X-X-X=X#X(.(.|.|.|.|.|.|.|.|.|.|.|.(.(.(.(.|._.B.B._.|.|. X(.#X=X=X#X#X=X-X-X-X-X=X(.(.(.(.(.(.(.(.(.(.(.(.(.#X=X=X-X=X",
"(.(.(.#X=X=X=X=X&X(.(.(.(.(.(.(.(.(.(.(.(.(.(.(.(.(.(.|.|.|.|.(.(.#X=X-X-X-X=X=X-X=X=X=X-X=X#X(.(.(.(.(.(.(.(.(.(.(.(.(.(.#X&X#X",
"(.(.(.(.#X#X#X#X(.(.(.(.(.(.(.(.(.(.(.(.(.(.(.(.(.(.(.(.(.(.(.(. X$X=X=X=X=X=X=X$X<X,X<X*X-X=X=X=X=X#X(.(.(.(. X|. X(.(.(.(.(.(.",
"(.(.(.(.(.(.(.(.(.(.(.(.(.(.(.(.(.(.(.(.(.(.(.(.(.(.(.(.(.(.(.|._.,X,X,X_._.,X,X,XB.B.B.<X$X=X=X=X=X&X&X&X&X$X_.B.f.|.|.|.|.|.(.",
"|.|.|.|.|.|.|.|.(.(.(.(.(.(.(.(.(.(.(.(.(.(.(.(.(.(.(.(.|.|.|.f.B.B.B._.|.|.f.B.B.B.B.B.B.,X,X,X,X,X,X,X,X,X,XB.B.B.B.B.B.B._.|.",
"B.B.B.B._._._._. X(.(.(.(.(.(.(.(.(.(.(.(.(.(.(.(.(.(. X_._._.B.B._.|.|.(.(.|._.B.B.B.B.B.B.B.B.B.B.B.B.B.B.B.B.B.B.B.B.B.B.B.B.",
"B.B.B._.|.|.|.|.(.(.(.(.(.(.(.(.(.(.(.(.(.(.(.(.(.(.(.(.|.|.|.|.|.|.(.(.(.(.(.|.|.|.f.B.B.B.B.B.B.B.B.B.B.B.B.B.B.B.B.N.B.B.B.B.",
"|.|.|.|.(.(.(.(.(.(.(.(.(.(.(.(.(.(.|.|.|.|.|.(.(.(.(.|.|.|.|.|.(.(.(.(.(.(.(.(.(.(.|.B.B.f.|.|.|.|.f.B.B.B.B.B.B.B.B.B.B._.|. X",
"(.(.(.(.(.(.(.(.(.(.(.(.(.(.(.(.|.}.x.n.n.n.x.|.(.(.|.x.n.n.n.x.|.(.(.(.(.#X=X=X=X#X|.B.B.|.(.(.(.(.|._.|.|.|._._.|.|.|.|.|.(.(.",
"(.(.(.(.(.(.(.(.(.(.(.(.(.(.(.|.x.n.m.m.m.b.b.x.}.}.x.b.m.m.m.m.x.|.(.(.#X=X-X-X-X=X.X<XB.|.(.(.(.(.(. X(.(.(.|.|.(.(.(.(.(.(.#X",
"(.(.(.(.(.(.(.(.(.(.(.(.(.(.|.x.b.m.4X*X4Xm.b.b.n.n.b.m.4X*X*X4Xm.x.|.(.=X-X-X-X-X-X=X$X,X_.|.(.(.(.(.(.(.(.(.(.(.(.(.=X=X=X=X=X"
};
