/* XPM */
static char *rcp03454179560494[] = {
/* columns rows colors chars-per-pixel */
"64 64 219 2 ",
"   c #172D2C",
".  c #1C332D",
"X  c #1F382F",
"o  c #163434",
"O  c #1B3631",
"+  c #1E3931",
"@  c #173938",
"#  c #193D3D",
"$  c #163A37",
"%  c #253A2F",
"&  c #243B32",
"*  c #283A34",
"=  c #5A221E",
"-  c #4D1D22",
";  c #551B21",
":  c #661822",
">  c #6C1A23",
",  c #721D24",
"<  c #4A2225",
"1  c #592825",
"2  c #682726",
"3  c #762124",
"4  c #7D2227",
"5  c #732C29",
"6  c #762925",
"7  c #67362D",
"8  c #793A2C",
"9  c #683532",
"0  c #763A35",
"q  c #732E31",
"w  c #753317",
"e  c #1A443F",
"r  c #1A4138",
"t  c #264C3D",
"y  c #264433",
"u  c #344737",
"i  c #2C583E",
"p  c #395A3C",
"a  c #75441A",
"s  c #455337",
"d  c #794B3D",
"f  c #745334",
"g  c #194742",
"h  c #1A5644",
"j  c #1C5C44",
"k  c #225443",
"l  c #2B5545",
"z  c #2D5A45",
"x  c #275947",
"c  c #3A5E45",
"v  c #315D49",
"b  c #355643",
"n  c #2D4E42",
"m  c #1E6445",
"M  c #1E6A48",
"N  c #236344",
"B  c #216B47",
"V  c #2C6B4A",
"C  c #286747",
"Z  c #386345",
"A  c #326349",
"S  c #376A48",
"D  c #237448",
"F  c #257B48",
"G  c #277A48",
"H  c #38764C",
"J  c #367A4D",
"K  c #37764D",
"L  c #3C7C53",
"P  c #476948",
"I  c #596D4A",
"U  c #42794B",
"Y  c #55734B",
"T  c #5D7B55",
"R  c #567853",
"E  c #4A7459",
"W  c #677747",
"Q  c #777B4C",
"!  c #627C53",
"~  c #6E7E58",
"^  c #737E58",
"/  c #656D4A",
"(  c #647763",
")  c #833614",
"_  c #842528",
"`  c #89292A",
"'  c #842727",
"]  c #8B3326",
"[  c #8F3628",
"{  c #94332D",
"}  c #99352F",
"|  c #9A3D2B",
" . c #9B3630",
".. c #9D3930",
"X. c #A23C32",
"o. c #8B451B",
"O. c #8B521B",
"+. c #93481E",
"@. c #A15E1B",
"#. c #B06D1F",
"$. c #98472C",
"%. c #8A5724",
"&. c #935624",
"*. c #8E4A26",
"=. c #A4462F",
"-. c #A65926",
";. c #A44332",
":. c #AC4A35",
">. c #B64B3A",
",. c #B95538",
"<. c #AF5333",
"1. c #A96524",
"2. c #B06C23",
"3. c #BC7528",
"4. c #936D3C",
"5. c #C55D3D",
"6. c #CB7235",
"7. c #CD6440",
"8. c #2B8449",
"9. c #2C8B4A",
"0. c #268349",
"q. c #2E904A",
"w. c #49864D",
"e. c #55884C",
"r. c #5E904F",
"t. c #5C8555",
"y. c #6C864A",
"u. c #72844B",
"i. c #778A4C",
"p. c #7D9F4D",
"a. c #79944A",
"s. c #638356",
"d. c #618258",
"f. c #688A56",
"g. c #788554",
"h. c #6E9C5F",
"j. c #68945B",
"k. c #759B5C",
"l. c #789759",
"z. c #7EA14D",
"x. c #76A05D",
"c. c #7AA45F",
"v. c #7FAB5E",
"b. c #6D976D",
"n. c #659165",
"m. c #739E60",
"M. c #73996C",
"N. c #7A9A6F",
"B. c #78976E",
"V. c #678F73",
"C. c #679175",
"Z. c #6B9472",
"A. c #719671",
"S. c #688767",
"D. c #76A463",
"F. c #7AA662",
"G. c #7AA962",
"H. c #959B3F",
"J. c #C9812B",
"K. c #D6922B",
"L. c #DC962D",
"P. c #E09C2D",
"I. c #E6A733",
"U. c #86884E",
"Y. c #949941",
"T. c #889753",
"R. c #959A51",
"E. c #848F4F",
"W. c #A7954D",
"Q. c #A99553",
"!. c #AF8F55",
"~. c #82A14C",
"^. c #8BAB4D",
"/. c #87A94D",
"(. c #98AA46",
"). c #93A94A",
"_. c #8EB24D",
"`. c #9AB74D",
"'. c #9CB94E",
"]. c #8DAD55",
"[. c #81AB5E",
"{. c #8AAE5C",
"}. c #82A853",
"|. c #9AA758",
" X c #8FB056",
".X c #95B651",
"XX c #9AB751",
"oX c #9EB850",
"OX c #9BB95A",
"+X c #A0B94F",
"@X c #A4A858",
"#X c #B7AA58",
"$X c #A3B950",
"%X c #AEB65B",
"&X c #A4B957",
"*X c #B2BA56",
"=X c #B4B55D",
"-X c #BCB45B",
";X c #B6B959",
":X c #BDBA5A",
">X c #829E6B",
",X c #829F66",
"<X c #82AA62",
"1X c #88AC61",
"2X c #8AA96B",
"3X c #88B06A",
"4X c #ACB160",
"5X c #BFB565",
"6X c #B6A562",
"7X c #C6A862",
"8X c #D1BD67",
"9X c #C1B969",
"0X c #DBC26E",
"qX c #B9B18B",
"wX c #B6B48E",
"eX c #C6B98D",
"rX c #CABD90",
"tX c #CCC093",
"yX c #C5C58D",
/* pixels */
"'.'.'.'. XZ.C.C.C.Z.].].Z.C.C.C.A.=X:X:X:X:X=XN.A.C.N.=X:X:X:X:X:X=X>XXX:X:X:X:X:X:X:X:X;X'.'.'.'.'.'.'.'.$X;X:X:X:X:X:X:X:X:X;X",
".X.X'..XM.C.A.A.C.C.Z.Z.C.A.A.C.A.4X:X:X:X:X:X=X4X>X4X:X:X:X:X:X:X:X=X;X:X:X:X:X:X:X:X:X;X$X'.'.'.'.'.;X;X;X:X:X:X:X:X:X:X:X;X$X",
"Z.M.{.M.C.N.4X4XN.C.C.C.N.4X4XN.A.N.=X:X:X:X:X:X:X=X:X:X:X:X:X:X:X:X:X:X:X:X:X:X:X:X:X:X:X:X;X+X'.'.+X;X;X;X;X;X;X;X;X;X;X$X'..X",
"C.A.M.C.A.4X:X:X4XN.A.N.4X:X:X=X4X>X=X:X:X:X:X:X:X:X:X:X:X:X:X;X;X;X:X:X:X:X:X;X;X:X:X:X:X:X:X$X+X'.'.+X+X+X+X+X+X+X+X+X+X'..XM.",
"N.4X4XN.N.=X:X:X:X=X=X=X:X:X:X:X:X=X:X:X:X;X;X;X;X:X:X:X:X;X$X+X'.$X;X:X:X:X=X1X1X=X:X:X:X:X:X:X;X;X$X'.'.'.'.'.'.'.'.+XoX.X].Z.",
"=X:X:X=X=X;X;X;X:X:X:X:X:X;X;X;X:X:X:X:X=X1X<X<X1X=X;X;X;X$X'.'.'.'.$X;X;X%X1XG.G.1X;X:X:X:X:X:X;X;X*X'.'.'.'.'.'.'.$X;X=X>XN.A.",
":X:X:X:X;X$X'.$X;X:X:X:X;X$X'.oXoX=X;X%X1XG.G.G.G.1XoX$X*X+X'.'.'..X.X.X<X<XG.G.G.<X=X;X;X;X;X;X$X'.'.'.'.'.'.'.$X;X;X:X:X=X=X=X",
":X:X:X;X$X'.'.'.$X:X:X;X$X'..X[.G.<X<X<XG.G.G.G.G.[..X'.'.'.'.'..X[.G.G.G.G.G.G.G.G..X+X'.+X+X+X'.'.'.'.'.'.$X;X;X;X;X;X:X:X:X:X",
";X;X$X'.'.'.'.'.'.;X;X;X'..X[.G.G.G.G.G.G.G.G.G.G..X.X.X.X'.'..Xv.G.G.G.G.G.G.G.G.G.v..X'.'.'.'.'.'.'.'.'.$X;X:X;X$X'.$X;X:X:X:X",
"'.'.'.'.'.'.'.'.'.'.$X*XoX.XG.G.G.G.G.G.G.G.G.G.G.G.G.G.[..X.Xv.G.G.G.G.v..X.X[.G.G.G.v..X.X'.'.'.'.'.'.*X;X;X;X$X'.'.'.$X;X;X;X",
"'.'.'.'.'.'..X.X.X.X.X.X[.G.G.G.G.G.G.G.G.G.G.G.G.G.G.G.G.G.G.G.G.G.G.G..X'.'..X.X[.G.G.[.[.XX'.'.'.'.'.'.'.'.'.'.'.'.'.'.'.'.'.",
"'.'.'.'.'.XX[.[.[.G.G.G.G.G.G.v..X.X.Xv.G.G.G.G.G.G.G.G.G.G.G.G.G.G.G.G..X'.'.'.'..X.X.X.X.X'.'.'.'.'.'.'.'..X.X.X'.'.'.'.'.'.'.",
"'.'.'.'.'.'..X.X.X[.G.G.G.G.G..X'.'.'..XG.v..X.X.X[.G.G.G.G.G.v..X.Xv.G..X'.'.'.'.'.'.'.'.'.'.'.'.'.'.'.'..X[.G.[..X'.'.'.'.'.'.",
"'.'.'.'.'.'.'.'.'.XX.X.X[.G.[..X'.'.'..X[..X^.`.'..X.X[.G.G.[..X'.'..X[.[.XX'.'.'.'.'.'.'.'..X.X.X'.'.'..Xv.G.G.G.[..X'.'.'.'.'.",
"'.'.'.'.'.$X;X;X$X'.'.'.XXXXoX'.'.'.'.'.XX^.Y ~.^.^.^./.^..X.X'.'.'.'..X.X'.'.'.'.'.'.'.'..X[.G.[..X.X.Xv.G.G.G.G.G..X'.'.'.'.'.",
"'.'.'.'.$X;X:X:X;X$X'.'.$X;X;X;X;X$X'.'.'.`.~.c z z z z Z p.^.`.'.'.'.'.'.'.'.'.'.'.'.'..Xv.G.G.G.G.G.G.G.G.G.G.G.G..X.X.X'.'.'.",
".X.X$X;X:X:X:X:X:X:X;X;X;X:X:X:X;X*X%XXX'.'.^.Z 8.q.9.9.G x v p..X'.'..X.X.X.X'.'.'.'..Xv.G.G.G.G.G.F.F.F.G.G.G.G.G.G.G.[..X.X.X",
"[.{.*X;X:X:X:X:X:X:X:X:X:X:X:X=X1X<X<X[..X.Xv.j.S 9.8.F F D B v x..X.X[.G.G.[..X.X.X.Xv.G.G.G.F.G.G.F.F.F.G.G.G.G.G.G.G.G.G.G.G.",
"XXXX'.+X$X;X:X:X:X:X:X:X;X;X%X1XG.G.G.G.G.G.G.D.j.A G F M j m x f.l.l.l.F.G.G.G.F.F.F.D.F.G.G.G.G.G.F.F.G.G.G.G.G.G.G.G.G.G.G.G.",
"'.'.'.+X+X$X:X:X:X:X:X;X$X{.[.[..X.X.X[.G.G.G.G.D.j.A B M B k i 1 1 2 9 g.l.F.D.Z.Z.Z.Z.D.G.G.G.G.G.G.G.G.D.D.D.D.F.G.G.v..X.X.X",
"'.$X;X;X;X;X:X:X:X:X:X$X'..X.X.X'.'..X.X.X.X XG.G.D.j.v x i < ; 4 { ..;.5 9 g.S.V.C.C.C.b.{..X.X.X.X.X.X].b.Z.Z.Z.D.D.G..X'.'.'.",
";X;X:X:X:X:X:X:X:X:X;X+X'.'.'.'.'.XX[.[.G.G.G.G.G.D.h.j.! 1 3 _ { X.>.>.:.;.5 9 ( V.C.C.C.Z.Z.Z.Z.M. X XM.A.A.A.C.C.Z.F..X'.'.'.",
";X;X;X;X;X:X:X:X:X:X$X'.'.'.'.'.'.'..X.X[.G.G.D.h.j.v n 1 3 _ ` $.;.>.>.,.5.5.:.9 ~ C.C.C.C.A.A.A.A.Z.Z.N.4X=X4XN.C.C.b..XoX$X;X",
"+X'.'.'.$X;X:X:X:X:X$X'.'.'.'.'.'.'.'.'..X.Xv.j.A x N i ; 4 ] 1.3.3.:.,.,.5.7.7.<.&.g.C.C.N.4X=X=X4XN.N.4X:X:X:X4XN.A.A.>X=X;X;X",
"'.'.'.'.'.$X;X;X:X:X;X$X;X;X$X'.'.'.'.'.'.`.z.S 8.D k < 3 ] 1.2.2.3.3.J.K.K.5.6.I.K.&.~ B.4X:X:X:X:X=X=X:X:X:X:X:X=X=X=X=X;X$X+X",
"+X+X'.'.'.'.'.$X;X:X:X;X;X;X*X$X'.'.'.'.`.~.S 9.0.M N - 6 1.1.] ] | =.3.J.K.L.P.I.I.<.9 @X:X:X:X:X:X:X:X:X:X:X:X:X:X:X:X:X;X+X+X",
";X;X$X'.'.'.'.'.$X;X;X;X$X+X$X*X'.'.'.'.^.Z 9.9.0.D N 1 +.-.[ { , _ } ;.;.:.6.K.L.L.,.5 W.:X:X:X:X:X:X:X:X:X:X:X:X:X:X:X:X:X$X;X",
":X:X;X+X'.'.'.'.'.+X+X+X'.'.'.'.'.'.'.`.z.A 9.0.D B n = o.] _ { { , _ {  ...;.;.<.J.,.;.8 W.:X;X;X:X:X:X:X:X:X:X:X:X:X:X:X:X:X:X",
":X:X;X+X'.$X;X;X$X'.'.'.'.'.'.'.'.'.`.~.Z G F B x Z E.w 3 4 _ ` } { , 4 _ {  .....;.X.>.;.8 W.$X$X;X;X:X;X$X$X;X:X:X:X:X:X:X:X:X",
":X:X:X$X$X;X:X:X;X;X$X'.'.'.'.'.'.'.).P l z z Z p.^.).1 : , _ _ } ..{ > 2 4 _ { }  ...X.X.{ 8 Y.(.'.$X*X$X'.'.$X:X:X:X:X:X:X:X:X",
":X:X:X:X;X:X:X:X:X;X;X;X;X;X;X;X;X;X*X).^.^.^.^.`.`.~.u ; > 4 _ ` } { 5 4.8 q 5 _ _ { { } ;.| o.O.H.(.'.'.'.'.'.;X:X:X:X:X;X;X;X",
";X;X;X;X;X;X;X;X;X$X'.'.oXXXXXXXXXXX'.'.'.'.'.'.'.^.c k < : , 4 _ ` { { 8 W.eXQ.0 5 q 5 ] 2.2.#.#.O.%.(.'.'.'.'.;X;X;X;X;X$X'.'.",
"+X'.+X+X'.'.'.'.'.'..X.X[.G.G.G.G.[..X'..X.X.X.X'.^.x j t < : , 4 _ ` { { 8 Q.5XtX6XrXQ.*.) +.o.&.Y.(.`.'.'.'.'.'.'.'.'.'.'.'.'.",
"'.'.'.'.'.'.'.'..X.X[.G.G.G.G.G.G.G.v..X[.G.G.[..X^.l m h t - : > 4 _ ` } { 0 tX9X#X-X9XeXd qX@XyX&X'.'.'.'.'.'.'.'.'.'.'.'.'.'.",
"'.'.'.'.'.'.'..X[.G.G.G.G.G.G.G.G.G.G.G.G.G.G.G.[.].l B h j * 1 2 > 3 _ } { 5 Q.-X#X-X8X#X7 2XOX&XoX'.'.'.'.'.'.'.'.'.'.'.'.'.'.",
"'.'.'.'.'..X.Xv.G.G.G.G.G.G.G.G.G.G.G.G.G.G.G.G.G.T.z D M N c W.W.1 ; 3 ` { { *.rX#X8X0X7Xd wX1X.X'.'.'.'.'.'..X.X.X'.'.'.'.'.'.",
"'.'.'..X.X[.G.G.G.G.v..X.X.X.X.Xv.G.G.G.G.G.G.G.h.A G F D Z |.:X@X* t - 3 _ | o.U.d W.7X8X7Xd ,X<X.X'.'.'.'..X[.G.[..X'.'.'..X.X",
".X'.XX[.[.G.G.G.G.[..X'.'.'.'.'..XG.G.v..X.X.X[.k.x 8.G A l.=X;X@X& h & - 1 -.#.%.qXd d 7X6X0 wX3X[.XX'.'..Xv.G.G.G.v..X.X.X[.G.",
"[..X.X.X.X.X.X.X.X.X'.'.'.'.'.'..X[.[..X'.'.'..Xp.c z Z z..X'.'.^.& h @   p a @.o.@X|.qXd 0 7 T..X.X'.'..X[.G.G.G.G.G.G.G.G.G.G.",
"G.[.[.[.XX'.'.'.'.'.'.'.'.'.'.'.'..X.X'.'.'._.z.P y.a.a.~./.`.'.~.y j e . e.p a o.yX&XOX|.wXl.f l..X'.'..XG.G.G.G.G.G.G.G.G.G.G.",
".X.X.X.X'.'.'.'..X.X.X.X.X'.'..X.X.X'.'.'./.w.J N r + + + y a.}.n.V o # @ + V y.f |.[.v.G.3XF.k.F.v..X.Xv.G.G.v..X.X.X[.G.G.G.G.",
"'.'.'.'.'.'.'..XM.Z.Z.Z.M. X XM.Z.M..X`.^.r.|.a.y h g e e e y V V E o g # O t.L j.v.G.G.G.G.G.G.G.G.G.G.G.G.G..X'.'.'.XX.X.X.XXX",
"'.'.'.'.'..X.XM.A.A.A.A.C.Z.Z.A.A.C.b.}.r.|.R.u e e j m m m j e o + e g g O f.J h.D.F.G.G.G.G.G.G.G.G.G.G.G.[..X'.'.'.'.'.'.'.'.",
"'.'..X.X XM.M.N.4X=X=X4XN.A.N.|.|.n.L e.|.R.u @ + . X + O $ $ @ # # g g # O W U d.s.x. X.X[.[..X.X.Xv.G.G.G..X.X.X.X.X.X.X'.'.'.",
"oX.XM.M.M.N.4X=X:X:X:X:X=X=X@Xe.w.w.T.R.Q y o & I W Q Q / O   o @ # g # o + S u.g.T d.y.^..X.X'.'.'..XG.G.G.G.G.G.G.G.G.[..X.X.X",
"=X>XN.4X=X=X:X:X:X:X;X;X;X:X:X%X%X|.s % . o & P K H u.g.Q A k + o @ @ @ * / U u.u.U H H w./.'.'.'.'..XG.G.G.G.G.<X<X<X<X<X[.[.[.",
";X=X=X;X;X;X:X:X;X%X1X<X1X%X;X:X:X=XR.*   & I T R R K H S ~ Q W % . . % W U.u.U U u.g.g.u.e._.'.'.'..XG.<X<X<X1X%X;X;X;X;X;X;X;X",
"'.'.'.'.'.$X;X;X{.[.G.G.G.<X1X%X=X1XF.T Y Y T T T T R T T ! u.u.W W W W u.u.u.y.y.U.U.U.a.^.'.'.'.XX[.[.%X*X*X*X;X;X;X;X;X;X;X;X",
"'.'.'.'.'.'.+X'.XX.X.X.X[.G.G.1X<XG.F.m.s.d.T T T T T T T T T ! ! y.u.u.u.u.u.u.u.u.i.a.^.'.'.'.'.'..XXX'.'.'.'.'.'.'.'.'.'.+X+X",
"'.'.'.'.'.'.'.'.'.'.'.'..X.X.X.X[.G.G.G.D.m.s.d.d.d.d.T T T T T T T ! ! y.i.i.s.s.s.x.c.[..X'.'.'.'.'.'.'.'.'.'.'.'.'.'.'.'.'.+X",
";X;X;X$X'.'.'.'.'.'.'.'.'.'.'.'..X.X.X XG.F.D.c.c.c.m.s.d.d.d.d.d.d.d.d.s.x.c.D.D.F.<X<XG.XX'.'.'.'.'.'.'.'.'.'.'.'.'.'.'.'.$X;X",
":X:X:X;X$X'.'.'.'.'.'..X.X.X.X.X[.G.G.G.G.G.v..X.X.Xv.D.D.D.D.D.D.D.c.c.c.G.G.G.1X%X;X%X{.XX'.'.'.'.'.'.'.'.'.'.'.'.'.'.'.$X;X:X",
";X;X:X:X;X;X;X$X'.'.XX[.[.[.[.[.G.G.G.G.G.[..X'.'.'..XG.G.G.G.G.G.[..X.XXXXX.XXX*X:X:X:X;X$X'.'.'.'.'.'.'.'.'.'.'.'.*X;X;X;X:X:X",
"'.+X$X;X:X:X:X;X$X'.'..X.X.X.X.X.X.X.X.X.X.X'.'.'.'..X[.G.G.[..X.XXX'.$X;X*X$X$X;X:X:X:X:X;X'.'.'.'.'.'.'.'.'.'.'.'.'.$X;X;X:X;X",
"'.'.'.$X;X;X;X;X*X'.'.'.'.'.'.'.'.'.'.'.'.'.'.'.'.'.'..X.X.X.X'.'.$X;X;X:X:X;X;X:X;X;X;X:X;X$X'.'.'.'.'.'.'.'.'.'.'.'.'.'.$X*X$X",
"'.'.'.'.+X+X+X+X'.'.'.'.'.'.'.'.'.'.'.'.'.'.'.'.'.'.'.'.'.'.'.'.XX%X;X;X;X;X;X;X%X1X<X1X=X:X;X;X;X;X$X'.'.'.'.XX.XXX'.'.'.'.'.'.",
"'.'.'.'.'.'.'.'.'.'.'.'.'.'.'.'.'.'.'.'.'.'.'.'.'.'.'.'.'.'.'..X[.<X<X<X[.[.<X<X<XG.G.G.1X%X;X;X;X;X*X*X*X*X%X[.G.v..X.X.X.X.X'.",
".X.X.X.X.X.X.X.X'.'.'.'.'.'.'.'.'.'.'.'.'.'.'.'.'.'.'.'..X.X.Xv.G.G.G.[..X.Xv.G.G.G.G.G.G.<X<X<X<X<X<X<X<X<X<XG.G.G.G.G.G.G.[..X",
"G.G.G.G.[.[.[.[.XX'.'.'.'.'.'.'.'.'.'.'.'.'.'.'.'.'.'.XX[.[.[.G.G.[..X.X'.'..X[.G.G.G.G.G.G.G.G.G.G.G.G.G.G.G.G.G.G.G.G.G.G.G.G.",
"G.G.G.[..X.X.X.X'.'.'.'.'.'.'.'.'.'.'.'.'.'.'.'.'.'.'.'..X.X.X.X.X.X'.'.'.'.'..X.X.Xv.G.G.G.G.G.G.G.G.G.G.G.G.G.G.G.G.F.G.G.G.G.",
".X.X.X.X'.'.'.'.'.'.'.'.'.'.'.'.'.'..X.X.X.X.X'.'.'.'..X.X.X.X.X'.'.'.'.'.'.'.'.'.'..XG.G.v..X.X.X.Xv.G.G.G.G.G.G.G.G.G.G.[..XXX",
"'.'.'.'.'.'.'.'.'.'.'.'.'.'.'.'..X XM.Z.Z.Z.M..X'.'..XM.Z.Z.Z.M..X'.'.'.'.$X;X;X;X$X.XG.G..X'.'.'.'..X[..X.X.X[.[..X.X.X.X.X'.'.",
"'.'.'.'.'.'.'.'.'.'.'.'.'.'.'..XM.Z.A.A.A.C.C.M. X XM.C.A.A.A.A.M..X'.'.$X;X:X:X:X;XoX1XG..X'.'.'.'.'.XX'.'.'..X.X'.'.'.'.'.'.+X",
"'.'.'.'.'.'.'.'.'.'.'.'.'.'..XM.C.A.4X=X4XA.C.C.Z.Z.C.A.4X=X=X4XA.M..X'.;X:X:X:X:X:X;X%X<X[..X'.'.'.'.'.'.'.'.'.'.'.'.;X;X;X;X;X"
};
