/* XPM */
static char *rcp03454715593313[] = {
/* columns rows colors chars-per-pixel */
"64 64 218 2 ",
"   c #1B2E2B",
".  c #1B322D",
"X  c #19362F",
"o  c #153434",
"O  c #1B3532",
"+  c #1D3A32",
"@  c #173B39",
"#  c #193D3E",
"$  c #173738",
"%  c #172F30",
"&  c #24382E",
"*  c #223932",
"=  c #273832",
"-  c #222E31",
";  c #4D1B1F",
":  c #57231E",
">  c #6E3317",
",  c #4F1B21",
"<  c #561A21",
"1  c #661822",
"2  c #6B1A23",
"3  c #721D24",
"4  c #4B2125",
"5  c #582725",
"6  c #682926",
"7  c #762024",
"8  c #7D2227",
"9  c #732B29",
"0  c #762925",
"q  c #68352A",
"w  c #77382C",
"e  c #663531",
"r  c #7A3A35",
"t  c #732E31",
"y  c #1B423D",
"u  c #1C4338",
"i  c #274537",
"p  c #324339",
"a  c #29523F",
"s  c #2A5C3F",
"d  c #38543C",
"f  c #74441A",
"g  c #425338",
"h  c #73472F",
"j  c #7B4837",
"k  c #48683E",
"l  c #194742",
"z  c #1C5D44",
"x  c #235343",
"c  c #265B44",
"v  c #2D5B45",
"b  c #2B5344",
"n  c #335B46",
"m  c #294F46",
"M  c #1E6746",
"N  c #286847",
"B  c #396445",
"V  c #396749",
"C  c #227248",
"Z  c #257D48",
"A  c #257747",
"S  c #38794B",
"D  c #476748",
"F  c #5D7B55",
"G  c #557451",
"H  c #52704D",
"J  c #687648",
"K  c #757A4C",
"L  c #77774A",
"P  c #627D54",
"I  c #6D7E5F",
"U  c #567B61",
"Y  c #677961",
"T  c #873B16",
"R  c #842528",
"E  c #89292A",
"W  c #852827",
"Q  c #8C3427",
"!  c #8F342B",
"~  c #94332D",
"^  c #99352F",
"/  c #993B2C",
"(  c #9D3930",
")  c #9B3630",
"_  c #A23C32",
"`  c #87461A",
"'  c #924B1A",
"]  c #985A1C",
"[  c #8A511A",
"{  c #A7631C",
"}  c #8B5127",
"|  c #934C29",
" . c #A5482F",
".. c #AA5829",
"X. c #A44332",
"o. c #AC4A35",
"O. c #B64B3A",
"+. c #B95438",
"@. c #AF5333",
"#. c #A96524",
"$. c #B26C25",
"%. c #BC7627",
"&. c #936D3C",
"*. c #C55D3D",
"=. c #C27C26",
"-. c #CF6E3B",
";. c #A97F4F",
":. c #CD6440",
">. c #268249",
",. c #2B8449",
"<. c #2D8B4A",
"1. c #3B824D",
"2. c #3E8451",
"3. c #47874B",
"4. c #428257",
"5. c #6D864B",
"6. c #72854A",
"7. c #778A4B",
"8. c #77964A",
"9. c #638357",
"0. c #618258",
"q. c #678B58",
"w. c #778553",
"e. c #64925B",
"r. c #6D9B5D",
"t. c #69985C",
"y. c #77985A",
"u. c #6E9248",
"i. c #7DA14D",
"p. c #7FA94F",
"a. c #75A35D",
"s. c #7AA55F",
"d. c #7FAB5E",
"f. c #7FA850",
"g. c #5F8E64",
"h. c #688E69",
"j. c #6E976F",
"k. c #649267",
"l. c #739D61",
"z. c #73996C",
"x. c #7A9A6F",
"c. c #678F73",
"v. c #679175",
"b. c #6B9472",
"n. c #719671",
"m. c #758B66",
"M. c #6FA260",
"N. c #76A463",
"B. c #7AA662",
"V. c #7BA962",
"C. c #C7812A",
"Z. c #DA942C",
"A. c #D18F28",
"S. c #E09C2D",
"D. c #E6A733",
"F. c #86894E",
"G. c #869647",
"H. c #959C41",
"J. c #96994E",
"K. c #858651",
"L. c #898651",
"P. c #878A53",
"I. c #859259",
"U. c #999D53",
"Y. c #9B8F51",
"T. c #A9974D",
"R. c #AA9354",
"E. c #A5894F",
"W. c #81A14C",
"Q. c #85A94E",
"!. c #8BAB4D",
"~. c #8DA34C",
"^. c #95AA4A",
"/. c #8CB04D",
"(. c #94B24E",
"). c #99B64D",
"_. c #9CB94E",
"`. c #8CAD54",
"'. c #81AB5E",
"]. c #8AAE5C",
"[. c #88AB52",
"{. c #9AAA55",
"}. c #8FB156",
"|. c #95B651",
" X c #9AB751",
".X c #9CB850",
"XX c #9CBA5E",
"oX c #A0B94F",
"OX c #ABAD58",
"+X c #A1A659",
"@X c #B7AA57",
"#X c #A3B950",
"$X c #AEB65B",
"%X c #A8B954",
"&X c #B3BA56",
"*X c #B4B55D",
"=X c #BCB55A",
"-X c #B6B959",
";X c #BDBA5A",
":X c #B4B757",
">X c #829E6B",
",X c #859E64",
"<X c #82AA62",
"1X c #88AC61",
"2X c #ACB160",
"3X c #A4BD68",
"4X c #BFB565",
"5X c #B6A562",
"6X c #C29E5E",
"7X c #C2A15F",
"8X c #C9AD62",
"9X c #CABC69",
"0X c #DBC26D",
"qX c #B6AF8D",
"wX c #C7B78E",
"eX c #BCC093",
"rX c #CCC093",
"tX c #C5C68D",
/* pixels */
"_._._._.}.b.v.v.v.b.`.`.b.v.v.v.n.*X;X;X;X;X*Xx.n.v.x.*X9X;X;X9X;X*X>X.X;X9X;X;X;X;X;X9X-X_._._._._._._._.#X-X;X;X;X;X;X;X9X;X-X",
"|.|._.|.z.v.n.n.v.v.b.b.v.n.n.v.n.2X;X;X;X;X;X*X2X>X2X;X9X;X;X;X;X;X*X-X;X9X;X;X;X;X;X;X-X#X_._._._._.-X-X-X;X;X;X;X;X;X;X;X-X#X",
"b.z.].z.v.x.2X2Xx.v.v.v.x.2X2Xx.n.x.*X;X;X;X;X;X;X*X;X;X;X;X;X;X;X;X;X;X9X;X;X;X;X;X;X;X;X-X-X#X_._.#X-X-X-X-X-X-X-X-X-X-X#X_.|.",
"v.n.z.v.n.2X;X;X2Xx.n.x.2X;X;X*X2X>X*X;X;X;X;X;X;X;X;X;X;X;X-X-X-X-X;X;X;X;X;X-X-X;X;X;X;X;X;X#X#X#X_._.#X#X#X#X_.#X#X#X#X_.|.z.",
"x.2X2Xx.x.*X;X;X;X*X*X*X;X;X;X;X;X*X;X;X;X-X-X-X-X;X;X;X;X-X#X_._.#X-X;X;X;X*X1X1X*X;X;X;X;X;X;X-X-X#X_._._._._._._._.#X.X|.`.b.",
"*X;X;X*X*X-X-X-X;X;X;X;X;X-X-X-X-X;X9X;X*X1X<X<X1X*X-X-X-X#X_._._._.#X-X-X$X1XV.V.1X-X;X;X;X;X;X-X-X&X_._._._._._._.#X&X*X>Xx.n.",
";X;X9X;X-X#X_.#X-X;X9X;X-X#X_..X.X*X-X*X1XV.V.V.V.1X.X#X&X_._._._.|.|.|.<X<XV.V.V.<X*X-X-X-X-X-X#X_._._._._._._.#X-X-X;X;X*X*X*X",
";X;X;X-X#X_._._.#X;X9X-X#X_.|.'.V.<X<X<XV.V.V.V.V.'.|._._._._._.|.'.V.V.V.V.V.V.V.V.|._._.#X#X#X_._._._._._.#X-X-X-X-X-X;X9X;X;X",
"-X-X#X_._._._._._.-X-X-X_.|.'.V.V.V.V.V.V.V.V.V.V.|.|.|.|._._.|.d.V.V.V.V.V.V.V.V.V.d.|._._._._._._._._._.#X-X;X-X#X_.#X-X;X;X;X",
"_._._._._._._._._._.#X&X.X|.V.V.V.V.V.V.V.V.V.V.V.V.V.V.'.|.|.d.V.V.V.V.d.|.|.'.V.V.V.d.|.|._._._._._._.&X-X-X-X#X_._._.#X-X-X-X",
"_._._._._._.|.|.|.|.|.|.'.V.V.V.V.V.V.V.V.V.V.V.V.V.V.V.V.V.V.V.V.V.V.V.|._._.|.|.'.V.V.'.'. X_._._._._._._._._._._._._._._._._.",
"_._._._._. X'.'.'.V.V.V.V.V.V.d.|.|.|.d.V.V.V.V.V.V.V.V.V.V.V.V.V.V.V.V.|._._._._.|.|.|.|.|._._._._._._._._.|.|.|._._._._._._._.",
"_._._._._._.|.|.|.'.V.V.V.V.V.|._._._.|.V.d.|.|.|.'.V.V.V.V.V.d.|.|.d.V.|._._._._._._._._._._._._._._._._.|.'.V.'.|._._._._._._.",
"_._._._._._._._._. X|.|.'.V.'.|._._._.|.'.|._._._.|.|.'.V.V.'.|._._.|.'.'. X_._._._._._._._.|.|.|._._._.|.d.V.V.V.'.|._._._._._.",
"_._._._._.#X-X-X#X_._._. X X.X_._._._._. X_._._._.).!.Q.Q.Q.!.)._._._.|.|._._._._._._._._.|.'.V.'.|.|.|.d.V.V.V.V.V.|._._._._._.",
"_._._._.#X-X;X;X-X#X_._.#X-X-X-X-X#X_._._._.).!.!.i.B v v v B W.)._._._._._._._._._._._.|.d.V.V.V.V.V.V.V.V.V.V.V.V.|.|.|._._._.",
"|. X#X&X-X;X9X;X;X;X-X-X-X;X;X;X-X:X$X X_.).8.n b N <.<.Z Z A B i.)._.|.|.|.|._._._._.|.d.V.V.V.V.V.V.V.V.V.V.V.V.V.V.V.'.|.|.|.",
"'.].:X-X-X;X;X9X;X9X9X;X;X;X;X*X1X<X<X'.|.[.V m b Z ,.,.>.Z C N n G.~.y.s.V.'.|.|.|.|.d.V.V.V.B.V.V.V.V.V.V.V.V.V.V.V.V.V.V.V.V.",
" X X_._.#X&X;X;X;X;X;X;X-X-X$X1XV.V.V.V.V.V.r.r.e.V C C C M x a 4 5 6 q w.y.B.V.B.B.B.N.B.V.V.V.V.V.V.V.V.V.V.V.V.V.V.V.V.V.V.V.",
"_._._._._.#X;X9X;X;X;X-X#X].'.'.|.|.|.'.V.V.V.V.N.e.n b N s 4 < 8 ~ ) X.9 q w.r.b.b.b.b.N.V.V.V.V.V.V.V.V.N.N.N.N.B.V.V.d.|.|.|.",
"#X#X-X-X-X-X;X;X;X;X-X#X_.|.|.|._._.|.|.|.|.}.V.V.N.r.e.p 4 7 8 ^ _ O.O.o.X.9 e Y c.v.v.j.].|.|.|.|.|.|.].j.b.b.b.N.N.V.|._._._.",
"-X-X;X;X;X;X;X;X;X;X&X_._._._._._. X'.'.V.V.V.V.V.N.r.q.5 7 R E X.X.O.O.+.*.*.o.e Y c.v.v.b.b.b.b.z.}.}.z.n.n.n.v.v.b.B.|._._._.",
"-X-X-X-X-X;X;X;X9X;X#X_._._._._._._.|.|.'.V.V.N.r.e.n p < 8 Q #.%.%.o.+.+.*.:.:.@.} I c.v.v.n.n.n.n.b.b.x.2X*X2Xx.v.v.j.|..X#X-X",
"#X_._._.#X-X;X;X9X;X#X_._._._._._._._._.|.|.d.t.n c c 4 7 Q #.$.$.%.%.C.Z.Z.-.-.D.A.} Y c.x.2X*X*X2Xx.x.2X;X;X;X2Xx.n.n.>X*X-X-X",
"_._._._._.#X&X-X;X;X-X#X-X-X#X_._._._._._.).i.V A C x , 0 #.#.Q E /  .%.C.Z.Z.S.D.D.@.e m.2X;X;X;X;X*X*X;X9X9X9X;X*X*X*X*X-X#X#X",
"#X#X_._._._._.#X-X;X;X-X-X-X&X#X_._._._._.!.B ,.>.M N 5 ' ..! ~ 3 R ^ X.X. .=.Z.Z.Z.+.9 Y.=X;X;X;X;X;X;X9X9X;X;X9X9X;X;X;X-X#X#X",
"-X-X#X_._._._._.#X-X-X-X#X_.#X&X_._._._.).i.v >.>.Z c : ` Q R ~ ~ 3 R ^ ) ( X.X.@.C.+.X.w T.=X;X;X;X;X;X;X;X;X;X;X;X;X;X;X-X#X-X",
"9X;X-X#X_._._._._._.#X#X_._._._._._._._.!.B <.,.>.C d > 7 8 R E ^ ~ 3 8 R ^ ) ( ( X._ O.X.w T.-X-X;X;X;X;X-X-X;X;X;X9X;X;X;X-X;X",
"9X9X-X#X_.#X-X-X#X#X_._._._._._._._._._.!.v <.Z C B F.q 2 3 R R ^ ( ~ 2 9 8 R ~ ^ ) ( _ _ ! w ^.#X-X-X;X&X#X#X&X;X;X;X;X;X;X;X;X",
"9X9X;X#X#X-X;X;X-X-X#X#X_._._._._._._._.!.v ,.v B W.).G.5 2 8 R E ^ ^ 9 &.w t 9 8 R ~ ^ ^ / w H.)._.#X&X#X)._.#X-X;X;X;X;X;X;X;X",
"9X;X;X;X-X;X;X;X;X-X-X-X-X-X-X-X-X-X&X_.!.b B i.!.).).G.5 1 3 8 R E ^ ~ w E.wXR.r 9 t 9 E $.C.] H.)._._._._._.#X-X9X9X9X;X-X-X-X",
"-X-X-X-X-X-X-X-X-X#X_._..X X X X X X_._.!.D W.)._.).W.B a , 1 3 8 R E ^ ~ r R.4XrX5XwXR.r T %.=.] H.)._._._._.#X-X-X-X-X-X#X_._.",
"_._._._._._._._._._.|.|.'.V.V.V.V.d.|._.|.!.|.|._.!.B N M i 4 1 2 8 R E ^ ~ r rX9X@X=X4XwXt ` ' { [ ^._._._._._._._._._._._._._.",
"_._.)._._._._._.|.|.'.V.V.V.V.V.V.V.d.|.d.V.V.d.|.!.v C z M a 5 6 2 8 R ^ ^ 9 R.T.@X=X9X@Xw J.H.} [ ^._._._._._._._._._._._._._.",
"_._.).)._._._.|.'.V.V.V.V.V.V.V.V.V.V.V.V.V.V.V.'.[.v Z M M N U.T.5 < 8 E ^ ~ 9 j T.8X0X8Xj qX3XtX{.)._._._._._._._._._._._._._.",
"_._._._._.|.|.d.V.V.V.V.V.V.V.V.V.V.V.V.V.V.V.V.<X{.V ,.>.C n OXOXn - , 8 W / t qXj j 7X6Xj I.<XXX X_._._._._.|.|.|._._._._._._.",
"_._._.|.|.'.V.V.V.V.d.|.|.|.|.|.d.V.V.V.V.V.V.B.V.V.t.v Z A D OXOXN @ - ; > ] ` I.,Xw.h j ;.h y.d.|._._._._.|.'.V.'.|._._._.|.|.",
"|._. X'.'.V.V.V.V.'.|._._._._._.|.V.V.d.|. X|.'.V.V.r.v ,.v U.*X{.c @ o   d f ] } eX1X~.G.h 6 y.V.'. X_._.|.d.V.V.V.d.|.|.|.'.V.",
"'.|.).|.|.|.|.|.|.|._._._._._._.|.'.d.[./././.!.[.|.!.B ,.B !.(.S o o o . u.k > ` {. X_.).G.h ~.|.|._._.|.'.V.V.V.V.V.V.V.V.V.V.",
"d.'.'.'. X_._._._._._._._._._._.).!.p.3.3.3.1.1.3.p.W.5.n u.).Q.S + o # + 8.t.V G.). X|.|.'.y.s.'.|._._.|.V.V.V.V.V.V.V.V.V.V.V.",
"|.|.|.|._._._._.|.|.|.|.|._._.|.f.3.3.Q./.(.`.l.k.N u + % i 8.H g.U O # o i e.S a.|.d.V.V.V.V.V.V.d.|.|.d.V.V.d.|.|.|.'.V.V.V.V.",
"_._._._._._._.|.z.b.b.b.z.}.`.k.4.k.[.).#X:XOX+XI.u z M M N N u U U $ l # O e.2.t.V.V.M.M.M.M.B.V.V.V.V.V.V.V.|._._._.|.|.|.|. X",
"_._._._._.|.|.z.n.n.n.n.v.b.h.4.k.v.z.~.:X$X3.N i y y y @ @ l # $ * # l l O t.t.4.t.t.2.1.1.2.a.V.V.V.V.V.V.'.|._._._._._._._._.",
"_._.|.|.}.z.z.x.2X*X*X2Xx.n.x.+X2Xx.m.g J.+XJ + o o . . . o o $ # # l l # O K P.F S 1.i.[.a.a.|.|.|.d.V.V.V.|.|.|.|.|.|.|._._._.",
".X|.z.z.z.x.2X*X;X;X;X;X*X*X*X;X;X*X+Xp & & . o + v J J H O % o @ # l # $ = K L.w.F F 7.(.|.|._._._.|.V.V.V.V.V.V.V.V.V.'.|.|.|.",
"*X>Xx.2X*X*X;X9X;X;X-X-X-X;X;X;X;X;X*XL =     * H G V V V J H = o o o o = L L.L.L.L.K.7.8.(._._._._.|.V.V.V.V.V.<X<X<X<X<X'.'.'.",
"-X*X*X-X-X-X;X;X-X$X1X<X1X$X-X;X;X-X*XP.K K G G F F F w.w.K.K.J & . . & J K.L.L.L.L.L.L.F.)._._._._.|.V.<X<X<X1X$X-X-X-X-X-X-X-X",
"_._._._._.#X-X-X].'.V.V.V.<X1X$X$X1XB.q.P P F F F F F P P P 6.6.J J J J 6.6.6.6.7.K.L.K.G.(._._._. X'.'.$X:X:X:X-X-X-X-X-X-X-X-X",
"_._._._._._._._. X|.|.|.'.V.V.1X<XV.B.l.9.0.F F F F F F F F F P P 5.6.6.6.6.6.6.6.6.7.7.!._._._._._.|. X_._._._._._._._._._.#X#X",
"_._._._._._._._._._._._.|.|.|.|.'.V.V.V.N.l.9.0.0.0.0.F F F F F F F P P 5.7.7.9.9.9.a.s.'.|._._._._._._._._._._._._._._._._._.#X",
"-X-X-X#X_._._._._._._._._._._._.|.|.|.}.V.B.N.s.s.s.l.9.0.0.0.0.0.0.0.0.9.a.s.N.N.B.<X<XV. X_._._._._._._._._._._._._._._._.#X-X",
"9X;X;X-X#X_._._._._._.|.|.|.|.|.'.V.V.V.V.V.d.|.|.|.d.N.N.N.N.N.N.N.s.s.s.V.V.V.1X$X-X$X]. X_._._._._._._._._._._._._._._.#X-X;X",
"-X-X-X;X-X-X-X#X_._. X'.'.'.'.'.V.V.V.V.V.'.|._._._.|.V.V.V.V.V.V.'.|.|. X X|. X:X;X;X;X-X#X_._._._._._._._._._._._.&X-X-X-X;X;X",
"_._.#X-X;X;X;X-X#X_._.|.|.|.|.|.|.|.|.|.|.|._._._._.|.'.V.V.'.|.|. X_.#X-X-X#X#X-X;X;X;X;X-X_._._._._._._._._._._._._.#X-X-X;X-X",
"_._._.#X-X-X-X-X&X_._._._._._._._._._._._._._._._._._.|.|.|.|._._.#X-X-X;X;X-X-X;X-X-X-X;X-X#X_._._._._._._._._._._._._._.#X&X#X",
"_._._._.#X#X#X#X_._._._._._._._._._._._._._._._._._._._._._._._. X$X-X-X-X-X-X-X$X1X<X1X*X;X-X-X-X-X#X_._._._. X|. X_._._._._._.",
"_._._._._._._._._._._._._._._._._._._._._._._._._._._._._._._.|.'.<X<X<X'.'.<X<X<XV.V.V.1X$X-X-X-X-X:X:X:X:X$X'.V.d.|.|.|.|.|._.",
"|.|.|.|.|.|.|.|._._._._._._._._._._._._._._._._._._._._.|.|.|.d.V.V.V.'.|.|.d.V.V.V.V.V.V.<X<X<X<X<X<X<X<X<X<XV.V.V.V.V.V.V.'.|.",
"V.V.V.V.'.'.'.'. X_._._._._._._._._._._._._._._._._._. X'.'.'.V.V.'.|.|._._.|.'.V.V.V.V.V.V.V.V.V.V.V.V.V.V.V.V.V.V.V.V.V.V.V.V.",
"V.V.V.'.|.|.|.|._._._._._._._._._._._._._._._._._._._._.|.|.|.|.|.|._._._._._.|.|.|.d.V.V.V.V.V.V.V.V.V.V.V.V.V.V.V.V.V.V.V.V.V.",
"|.|.|.|._._._._._._._._._._._._._._.|.|.|.|.|._._._._.|.|.|.|.|._._._._._._._._._._.|.V.V.d.|.|.|.|.d.V.V.V.V.V.V.V.V.V.V.'.|. X",
"_._._._._._._._._._._._._._._._.|.}.z.b.b.b.z.|._._.|.z.b.b.b.z.|._._._._.#X-X-X-X#X|.V.V.|._._._._.|.'.|.|.|.'.'.|.|.|.|.|._._.",
"_._._._._._._._._._._._._._._.|.z.b.n.n.n.v.v.z.}.}.z.v.n.n.n.n.z.|._._.#X-X;X;X;X-X.X1XV.|._._._._._. X_._._.|.|._._._._._._.#X",
"_._._._._._._._._._._._._._.|.z.v.n.2X*X2Xn.v.v.b.b.v.n.2X*X*X2Xn.z.|._.-X;X;X;X;X;X-X$X<X'.|._._._._._._._._._._._._.-X-X-X-X-X"
};
