/* XPM */
static char *rcp03455318670181[] = {
/* columns rows colors chars-per-pixel */
"64 64 214 2 ",
"   c #122E2C",
".  c #1B332D",
"X  c #1A352D",
"o  c #153435",
"O  c #1A3532",
"+  c #193D3E",
"@  c #193837",
"#  c #172F30",
"$  c #23292A",
"%  c #24392E",
"&  c #233B32",
"*  c #273B33",
"=  c #222E31",
"-  c #55171F",
";  c #57221E",
":  c #6F3417",
">  c #4B1B22",
",  c #511D21",
"<  c #661822",
"1  c #6B1B23",
"2  c #721D24",
"3  c #4B2225",
"4  c #562725",
"5  c #672926",
"6  c #762124",
"7  c #7D2227",
"8  c #732C2A",
"9  c #762925",
"0  c #68362C",
"q  c #78382C",
"w  c #742E31",
"e  c #673532",
"r  c #773C35",
"t  c #18413C",
"y  c #2A4736",
"u  c #28513F",
"i  c #324735",
"p  c #31643E",
"a  c #7B4938",
"s  c #194A44",
"d  c #184441",
"f  c #1B5947",
"g  c #2B5545",
"h  c #2D5B45",
"j  c #255743",
"k  c #385D44",
"l  c #345945",
"z  c #1F6D49",
"x  c #1E6648",
"c  c #216C48",
"v  c #286645",
"b  c #356446",
"n  c #396545",
"m  c #376848",
"M  c #217048",
"N  c #257C48",
"B  c #287549",
"V  c #367649",
"C  c #497E4C",
"Z  c #59724F",
"A  c #5D7B56",
"S  c #5B7350",
"D  c #51674B",
"F  c #687846",
"G  c #75784A",
"H  c #637D54",
"J  c #6D7E5F",
"K  c #737E57",
"L  c #577B61",
"P  c #687A61",
"I  c #853D17",
"U  c #842528",
"Y  c #892A29",
"T  c #842827",
"R  c #8C3427",
"E  c #8F342B",
"W  c #94332D",
"Q  c #99352F",
"!  c #9A3B2C",
"~  c #9D3930",
"^  c #9B3630",
"/  c #A23C32",
"(  c #87451A",
")  c #93481B",
"_  c #8C531C",
"`  c #965E1D",
"'  c #A45D1F",
"]  c #8B4F2C",
"[  c #A5482F",
"{  c #AA5829",
"}  c #A44332",
"|  c #AC4A35",
" . c #B64B3A",
".. c #B95438",
"X. c #AE5333",
"o. c #A96524",
"O. c #B26C25",
"+. c #BC7627",
"@. c #A26D2D",
"#. c #C55D3D",
"$. c #CB7235",
"%. c #875B45",
"&. c #CD6440",
"*. c #278149",
"=. c #2C8549",
"-. c #2C8A4A",
";. c #3D834C",
":. c #3E8451",
">. c #378050",
",. c #48844C",
"<. c #518E4D",
"1. c #458653",
"2. c #54904B",
"3. c #6E844B",
"4. c #72854A",
"5. c #76884B",
"6. c #6B944C",
"7. c #7A984B",
"8. c #648356",
"9. c #618259",
"0. c #6B8756",
"q. c #788853",
"w. c #6B955A",
"e. c #6C9D5D",
"r. c #66975C",
"t. c #759B5A",
"y. c #7EA04C",
"u. c #7FA94E",
"i. c #6EA15D",
"p. c #73A25D",
"a. c #7AA45F",
"s. c #7FAB5E",
"d. c #7EA751",
"f. c #5E8E67",
"g. c #6E976E",
"h. c #639266",
"j. c #739D61",
"k. c #73996C",
"l. c #7A9A6F",
"z. c #73966B",
"x. c #678F73",
"c. c #679175",
"v. c #6B9472",
"b. c #719671",
"n. c #66836A",
"m. c #6FA260",
"M. c #76A362",
"N. c #7AA662",
"B. c #7AA962",
"V. c #C78228",
"C. c #DA942C",
"Z. c #D08F28",
"A. c #E09C2D",
"S. c #E6A733",
"D. c #868A4F",
"F. c #83934B",
"G. c #939945",
"H. c #848551",
"J. c #898651",
"K. c #898B53",
"L. c #909451",
"P. c #A1834A",
"I. c #AB974E",
"U. c #AC9453",
"Y. c #A88F51",
"T. c #84A94E",
"R. c #8CAB4D",
"E. c #84A24B",
"W. c #94A748",
"Q. c #8CB14D",
"!. c #96B44E",
"~. c #99B64D",
"^. c #9CB94E",
"/. c #8CAD54",
"(. c #81AB5E",
"). c #8AAE5C",
"_. c #84AA51",
"`. c #95A155",
"'. c #9AAA56",
"]. c #8FB056",
"[. c #95B651",
"{. c #9AB751",
"}. c #9DB851",
"|. c #9CB85C",
" X c #A1B84F",
".X c #ABAC5A",
"XX c #B6AA58",
"oX c #A3B950",
"OX c #AEB65C",
"+X c #A8B954",
"@X c #B3BA56",
"#X c #B4B55D",
"$X c #BCB45A",
"%X c #B6B959",
"&X c #BDBA5A",
"*X c #829E6B",
"=X c #849D62",
"-X c #82AA62",
";X c #88AC61",
":X c #86AA68",
">X c #8EAA69",
",X c #ACB160",
"<X c #BBAD66",
"1X c #C4A85F",
"2X c #CCAE64",
"3X c #D2BD67",
"4X c #C1B969",
"5X c #DCC46E",
"6X c #BCB58E",
"7X c #BBBF93",
"8X c #B7A288",
"9X c #C1AE8B",
"0X c #C4BC8F",
"qX c #CCC093",
/* pixels */
"^.^.^.^.].v.c.c.c.v././.v.c.c.c.b.#X&X&X&X&X#Xl.b.c.l.#X4X&X4X4X&X#X*X}.&X4X&X&X&X&X&X&X%X^.^.^.^.^.^.^.^.oX%X&X&X&X&X&X&X4X&X%X",
"[.[.^.[.k.c.b.b.c.c.v.v.c.b.b.c.b.,X&X&X&X&X&X#X,X*X,X&X4X4X4X4X&X&X#X%X&X4X&X&X&X&X4X4X%XoX^.^.^.^.^.%X%X%X&X&X&X&X&X&X&X&X%XoX",
"v.k.).k.c.l.,X,Xl.c.c.c.l.,X,Xl.b.l.#X&X&X&X&X&X&X#X&X&X&X&X&X&X&X&X&X&X4X&X&X&X&X4X4X4X&X%X%XoX^.^.oX%X%X%X%X%X%X%X%X%X%XoX^.[.",
"c.b.k.c.b.,X&X&XOXl.b.l.,X&X&X#X,X*X#X&X&X&X&X&X&X&X&X&X&X&X%X%X%X%X&X&X4X&X&X%X%X&X4X4X4X4X&XoXoXoX^.^.oXoXoXoX^.oXoXoXoX^.[.k.",
"l.,X,Xl.l.#X&X&X&X#X#X#X&X&X&X&X&X#X&X&X&X%X%X%X%X&X&X&X&X%XoX^.^.oX%X&X&X&X#X;X).@X&X&X&X&X&X&X%X%XoX^.^.^.^.^.^.^.^.oX}.[./.v.",
"#X&X&X#X#X%X%X%X&X4X&X&X&X%X%X%X%X&X4X&X#X;X-X-X;X#X%X%X%XoX^.^.^.^.oX%X%XOX;XB.B.).%X&X&X&X&X&X%X%X@X^.^.^.^.^.^.^.oX%X#X*Xl.b.",
"&X&X4X&X%XoX^.oX%X&X4X&X%XoX^.}.}.#X%X#X;XB.B.B.B.;X}.oX@X^.^.^.^.[.[.[.-X-XB.B.B.(.@X%X%X%X%X%XoX^.^.^.^.^.^.^.oX%X%X&X&X#X#X#X",
"&X&X&X%XoX^.^.^.oX&X4X%XoX^.[.(.B.-X-X-XB.B.B.B.B.(.~.^.^.^.^.^.[.(.B.B.B.B.B.B.B.s.[.^.^.^.oXoX^.^.^.^.^.^.oX%X%X%X%X%X&X4X&X&X",
"%X%XoX^.^.^.^.^.^.%X%X%X^.[.(.B.B.B.B.B.B.B.B.B.B.[.[.[.[.^.^.[.s.B.B.B.B.B.B.B.B.B.s.[.^.^.^.^.^.^.^.^.^.oX%X&X%XoX^.oX%X&X&X&X",
"^.^.^.^.^.^.^.^.^.^.oX@X}.[.B.B.B.B.B.B.B.B.B.B.B.B.B.B.(.[.[.s.B.B.B.B.s.[.[.(.B.B.B.s.[.[.^.^.^.^.^.^.@X%X%X%XoX^.^.^.oX%X%X%X",
"^.^.^.^.^.^.[.[.[.[.[.[.(.B.B.B.B.B.B.B.B.B.B.B.B.B.B.B.B.B.B.B.B.B.B.B.[.^.^.[.[.(.B.B.(.(.{.^.^.^.^.^.^.^.^.^.^.^.^.^.^.^.^.^.",
"^.^.^.^.^.{.(.(.(.B.B.B.B.B.B.s.[.[.[.s.B.B.B.B.B.B.B.B.B.B.B.B.B.B.B.B.[.^.^.^.^.[.[.[.[.[.^.^.^.^.^.^.^.^.[.[.[.^.^.^.^.^.^.^.",
"^.^.^.^.^.^.[.[.[.(.B.B.B.B.B.[.^.^.^.[.B.s.[.[.[.(.B.B.B.B.B.s.[.[.s.B.[.^.^.^.^.^.^.^.^.^.^.^.^.^.^.^.^.[.(.B.(.[.^.^.^.^.^.^.",
"^.^.^.^.^.^.^.^.^.{.[.[.(.B.(.[.^.^.^.[.(.[.^.^.^.[.[.(.B.B.(.[.^.^.[.(.(.{.^.^.^.^.^.^.^.^.[.[.[.^.^.^.[.s.B.B.B.(.[.^.^.^.^.^.",
"^.^.^.^.^.oX%X%XoX^.^.^.{.{.}.^.^.^.^.^.{.^.^.^.^.~.R.T.T.T.R.~.^.^.^.[.[.^.^.^.^.^.^.^.^.[.(.B.(.[.[.[.s.B.B.B.B.B.[.^.^.^.^.^.",
"^.^.^.^.oX%X&X&X%XoX^.^.oX%X%X%X%XoX^.^.^.^.^.^.~.E.n h h h n E.~.^.^.^.^.^.^.^.^.^.^.^.[.s.B.B.B.B.B.B.B.B.B.B.B.B.[.[.[.^.^.^.",
"[.[.oX%X&X&X&X&X&X&X%X%X%X&X&X&X%X@XOX{.^.^.[.[.y.m -.-.N B B n F.W.W.W.~.[.[.^.^.^.^.[.s.B.B.B.B.B.B.B.B.B.B.B.B.B.B.B.(.[.[.[.",
"(.).@X%X%X&X&X&X&X4X4X&X&X&X&X#X;X-X-X(.[.[.s.w.m =.*.z x f v p 4 5 5 0 q.t.s.[.[.[.[.s.B.B.B.B.B.B.B.B.B.B.B.B.B.B.B.B.B.B.B.B.",
"[.{.^.oXoX%X&X&X&X&X&X&X%X%XOX;XB.B.B.B.B.B.r.h N N M c c u 3 4 7 W ^ } 5 0 q.t.N.N.N.M.N.B.B.B.B.B.N.B.B.B.B.B.B.B.B.B.B.B.B.B.",
"^.^.oXoXoX+X%X&X&X&X&X%X X).(.(.[.[.[.(.B.p.n g g g g j u 3 6 U W /  . .| } 8 0 P c.v.v.M.B.B.B.B.B.B.B.B.M.M.M.M.N.B.B.s.[.[.[.",
"^.oX%X%X%X&X&X&X&X4X&XoX^.[.[.[.^.^.[.[.[.[._.e.e.e.e.0.4 6 U Y } }  . ...#.#.| e P x.c.g.).[.[.[.[.[.[.).g.v.v.v.M.M.B.[.^.^.^.",
"%X%X&X&X4X4X4X&X4X&X%X^.^.^.^.^.^.{.(.(.B.B.B.B.B.M.e.0.5 7 R o.+.+.| ....#.&.&.X.] J x.c.v.v.v.v.k.].].k.b.b.b.c.c.v.N.[.^.^.^.",
"%X%X%X%X&X&X&X&X&X%XoX^.^.^.^.^.^.^.[.[.(.B.B.B.M.r.l 4 6 R o.O.O.+.+.V.C.C.#.$.S.Z.] P x.c.b.b.b.b.v.v.l.,X#X,Xl.c.c.g.[.}.oX%X",
"oX^.^.^.oX%X&X&X&X%XoX^.^.^.^.^.^.^.^.^.[.[.(.B.w.b v , 9 o.o.R Y ! [ +.V.C.C.A.S.S.X.e n.l.,X#X#X,Xl.l.,X&X&X&X,Xl.b.b.*X@X%X%X",
"^.^.^.^.^.oX%X%X&X&X%XoX%X%XoX^.^.^.^.^.^.^.[.y.m =.v 4 ) { E W 2 U Q } } [ $.C.C.C...5 K .X&X&X&X&X#X#X&X4X4X4X&X#X#X#X#X%XoXoX",
"oXoX^.^.^.^.^.oX%X&X&X%X%X%X%XoX^.^.^.^.^.^.R.n =.N j ; ) R U W W 2 U W ^ ~ } } X.V...} q I.&X&X&X&X&X&X4X4X4X4X&X&X&X&X&X%XoXoX",
"%X%XoX^.^.^.^.^.oX%X%X%XoX^.oX@X^.^.^.^.^.~.y.h N z v : 6 7 U Y Q W 2 7 U W ^ ~ ~ } /  .} q I.&X&X&X&X&X&X&X&X&X&X&X&X&X4X%XoX%X",
"4X&X%XoX^.^.^.^.^.^.oXoX^.^.^.^.^.^.^.^.^.R.n =.M z j 4 1 2 7 U Q ~ W 1 9 7 U W Q ^ ~ / / E q XX%X&X&X&X&X%X%X&X&X&X4X4X4X&X%X&X",
"4X4X%XoX^.oX%X%XoXoX^.^.^.^.^.^.^.^.^.^.^.R.h -.N c k G 4 1 7 U T Q W 9 @.q w 8 7 U W W Q ! q G. X%X%X&X%XoXoX%X&X4X4X4X&X&X&X&X",
"4X4X&XoXoX%X&X&X%X%XoXoX^.^.^.^.^.^.^.^.^.R.h N c b 7.k 3 < 2 7 U Y W W q P.0XU.r 8 w 1 T O.V.` G.^.oX@XoX^.^.oX&X4X4X&X&X&X&X&X",
"4X4X&X&X%X&X&X&X&X%X%X%X%X%X%X%X%X%X@X^.^.R.g c b 7.7.g u 3 < 2 7 U Y W W q U.<XqX<X9Xr 8 I +.V._ W.^.^.^.^.^.oX%X4X4X4X&X%X%X%X",
"%X%X%X%X%X%X%X%X%XoX^.^.}.{.{.{.{.{.^.^.^.R.g k E.R.k f f u 3 < 1 7 U Y ^ W r qX4XXX$XXX9Xq ( O.( W.^.^.^.^.^.oX%X%X%X%X%XoX^.^.",
"^.^.^.^.^.^.^.^.^.^.[.[.(.B.B.B.B.(.[.^.[.R.D 7.~.R.g x f c g 4 , 1 7 U W W 8 Y.I.XX$X3XXXq G._ ( W.^.^.^.^.^.^.^.^.^.^.^.^.^.^.",
"^.^.^.^.^.^.^.^.[.[.(.B.B.B.B.B.B.B.s.[.s.B.p.s.[.R.g z x z g D.k > - 7 T W W 8 a I.3X5X2Xa 0X'.W.~.^.^.^.^.^.^.^.^.^.^.^.^.^.^.",
"^.^.^.^.^.^.^.[.(.B.B.B.B.B.B.B.B.B.B.B.B.B.B.B.(._.h N z c l `.b   = , 6 Y ! w 8X%.U.3X2Xr =X[.^.^.^.^.^.^.^.^.^.^.^.^.^.^.^.^.",
"^.^.^.^.^.[.[.s.B.B.B.B.B.B.B.B.B.B.B.B.B.B.B.B.-X'.n =.*.M l `.b   o = , ) ' ( >X6X] I.1Xr =X-X[.^.^.^.^.^.^.[.[.[.^.^.^.^.^.^.",
"^.^.^.[.[.(.B.B.B.B.s.[.[.[.[.[.s.N.m.i.p.p.p.m.N.B.w.h *.N l `.m   o o $ : ) I -X:Xq.%.P.a 7X:Xs.[.^.^.^.^.[.(.B.(.[.^.^.^.[.[.",
"~.^.{.(.(.B.B.B.B.(.[.^.^.^.^.^.[.e.:.>.;.;.;.1.e.B.e.b =.*.h E.V   o o X 4.( ( 7X:X;X6Xa G.|.-XB.(.{.^.^.[.s.B.B.B.s.[.[.[.(.B.",
"(.[.~.[.[.[.[.[.[.[.^.^.^.^.^.^.T.1.i._.Q.Q.Q.u.<.T.[.y.m =.h V 6.X o o X E.G._ `.[.{.'.a W.[.[.[.[.^.^.[.(.B.B.B.B.B.B.B.B.B.B.",
"s.(.(.(.{.^.^.^.^.^.^.^.^.^.^.Q.2.T.[.^.^.^.^.[.d.<.d._.6.b 6.,.7.y o + X 7.s.t.,.T.[.~.R.p.p.p.s.[.^.^.[.B.B.B.B.B.B.B.B.B.B.B.",
"[.[.[.[.^.^.^.^.[.[.[.[.[.^.^.[./.[.^.~.R.R./.j.z.f.V B B c V 6.g.L O + @ y e.N.e.,.e.p.e.:.>.:.M.s.[.[.s.B.B.s.[.[.[.(.B.B.B.B.",
"^.^.^.^.^.^.^.[.k.v.v.v.k.].].k.v.k.].y.i m ,.C L.H t s s t o & L L @ d + O w.N.N.e.:.>.:.e.m.m.M.B.B.B.B.B.B.[.^.^.^.[.[.[.[.{.",
"^.^.^.^.^.[.[.k.b.b.b.b.c.v.v.b.b.c.h.C & % F.F.i & t + + @ + + @ & t s d O w.N.M.M.i.p.p.N.B.B.B.B.B.B.B.B.(.[.^.^.^.^.^.^.^.^.",
"^.^.[.[.].k.k.l.,X#X#X,Xl.b.l.,X,Xz.1.`.L.* % % t t o   O o o @ + + s s + O G K.0.8.t./.[.(.(.[.[.[.s.B.B.B.[.[.[.[.[.[.[.^.^.^.",
"}.[.k.k.k.l.,X#X&X&X&X&X#X#X#X&X&X#X.X.XL.G % . . O j b Z & # o @ + d + o * G J.H.H 8.5.Q.[.[.^.^.^.[.B.B.B.B.B.B.B.B.B.(.[.[.[.",
"#X*Xl.,X#X#X&X4X&X&X%X%X%X&X&X&X&X&X$XL.J.H.G Z Z S K q.H.G D * o o o o * G J.J.J.H.H.5.7.!.^.^.^.^.[.B.B.B.B.B.-X-X-X-X-X(.(.(.",
"%X#X#X%X%X%X&X&X%XOX;X-X;XOX%X&X&X%X#XK.H.H.H A A A H H.H.H.H.F % . . % F H.H.J.H.J.J.H.D.!.^.^.^.^.[.B.-X-X-X;XOX%X%X%X%X%X%X%X",
"^.^.^.^.^.oX%X%X).(.B.B.B.-X;XOXOX;XN.0.H H A A A A A H H H 4.4.F F F F 5.5.5.5.5.H.H.H.F.!.^.^.^.{.(.(.OX@X@X@X%X%X%X%X%X%X%X%X",
"^.^.^.^.^.^.oX^.{.[.[.[.(.B.B.;X-XB.N.j.8.9.A A A A A A A A A H H 3.4.4.4.4.4.4.4.4.5.5.R.^.^.^.^.^.[.{.^.^.^.^.^.^.^.^.^.^.oXoX",
"^.^.^.^.^.^.^.^.^.^.^.^.[.[.[.[.(.B.B.B.M.j.8.9.9.9.9.A A A A A A A H H 3.5.5.8.8.8.p.a.(.[.^.^.^.^.^.^.^.^.^.^.^.^.^.^.^.^.^.oX",
"%X%X%XoX^.^.^.^.^.^.^.^.^.^.^.^.[.[.[.].B.N.M.a.a.a.j.8.9.9.9.9.9.9.9.9.8.p.a.M.M.N.-X-XB.{.^.^.^.^.^.^.^.^.^.^.^.^.^.^.^.^.oX%X",
"4X&X&X%XoX^.^.^.^.^.^.[.[.[.[.[.(.B.B.B.B.B.s.[.[.[.s.M.M.M.M.M.M.M.a.a.a.B.B.B.;XOX%XOX).{.^.^.^.^.^.^.^.^.^.^.^.^.^.^.^.oX%X&X",
"%X%X%X&X%X%X%XoX^.^.{.(.(.(.(.(.B.B.B.B.B.(.[.^.^.^.[.B.B.B.B.B.B.(.[.[.{.{.[.{.@X&X&X&X%XoX^.^.^.^.^.^.^.^.^.^.^.^.@X%X%X%X&X&X",
"^.^.oX%X&X&X&X%XoX^.^.[.[.[.[.[.[.[.[.[.[.[.^.^.^.^.[.(.B.B.(.[.[.{.^.oX%X%XoXoX%X&X&X&X&X%X^.^.^.^.^.^.^.^.^.^.^.^.^.oX%X%X&X%X",
"^.^.^.oX%X%X%X%X@X^.^.^.^.^.^.^.^.^.^.^.^.^.^.^.^.^.^.[.[.[.[.^.^.oX%X%X&X&X%X%X&X%X%X%X&X%XoX^.^.^.^.^.^.^.^.^.^.^.^.^.^.oX@XoX",
"^.^.^.^.oXoXoXoX^.^.^.^.^.^.^.^.^.^.^.^.^.^.^.^.^.^.^.^.^.^.^.^.{.OX%X%X%X%X%X%XOX;X-X;X#X&X%X%X%X%XoX^.^.^.^.{.[.{.^.^.^.^.^.^.",
"^.^.^.^.^.^.^.^.^.^.^.^.^.^.^.^.^.^.^.^.^.^.^.^.^.^.^.^.^.^.^.[.(.-X-X-X(.(.-X-X-XB.B.B.;XOX%X%X%X%X@X@X@X@XOX(.B.s.[.[.[.[.[.^.",
"[.[.[.[.[.[.[.[.^.^.^.^.^.^.^.^.^.^.^.^.^.^.^.^.^.^.^.^.[.[.[.s.B.B.B.(.[.[.s.B.B.B.B.B.B.-X-X-X-X-X-X-X-X-X-XB.B.B.B.B.B.B.(.[.",
"B.B.B.B.(.(.(.(.{.^.^.^.^.^.^.^.^.^.^.^.^.^.^.^.^.^.^.{.(.(.(.B.B.(.[.[.^.^.[.(.B.B.B.B.B.B.B.B.B.B.B.B.B.B.B.B.B.B.B.B.B.B.B.B.",
"B.B.B.(.[.[.[.[.^.^.^.^.^.^.^.^.^.^.^.^.^.^.^.^.^.^.^.^.[.[.[.[.[.[.^.^.^.^.^.[.[.[.s.B.B.B.B.B.B.B.B.B.B.B.B.B.B.B.B.N.B.B.B.B.",
"[.[.[.[.^.^.^.^.^.^.^.^.^.^.^.^.^.^.[.[.[.[.[.^.^.^.^.[.[.[.[.[.^.^.^.^.^.^.^.^.^.^.[.B.B.s.[.[.[.[.s.B.B.B.B.B.B.B.B.B.B.(.[.{.",
"^.^.^.^.^.^.^.^.^.^.^.^.^.^.^.^.[.].k.v.v.v.k.[.^.^.[.k.v.v.v.k.[.^.^.^.^.oX%X%X%XoX[.B.B.[.^.^.^.^.[.(.[.[.[.(.(.[.[.[.[.[.^.^.",
"^.^.^.^.^.^.^.^.^.^.^.^.^.^.^.[.k.v.b.b.b.c.c.k.].].k.c.b.b.b.b.k.[.^.^.oX%X&X&X&X%X}.;XB.[.^.^.^.^.^.{.^.^.^.[.[.^.^.^.^.^.^.oX",
"^.^.^.^.^.^.^.^.^.^.^.^.^.^.[.k.c.b.,X#X,Xb.c.c.v.v.c.b.,X#X#X,Xb.k.[.^.%X&X&X&X&X&X%XOX-X(.[.^.^.^.^.^.^.^.^.^.^.^.^.%X%X%X%X%X"
};
