/* XPM */
static char *rcp03460581062104[] = {
/* columns rows colors chars-per-pixel */
"64 64 218 2 ",
"   c #1B2E2B",
".  c #1B322D",
"X  c #19362F",
"o  c #163435",
"O  c #1B3532",
"+  c #1D3A32",
"@  c #173B39",
"#  c #193D3E",
"$  c #163834",
"%  c #172F30",
"&  c #24382E",
"*  c #223932",
"=  c #273832",
"-  c #222E31",
";  c #4D1B1F",
":  c #57231E",
">  c #6E3317",
",  c #4F1B21",
"<  c #561A21",
"1  c #661822",
"2  c #6B1A23",
"3  c #721D24",
"4  c #4B2125",
"5  c #582725",
"6  c #682926",
"7  c #762024",
"8  c #7D2227",
"9  c #732B29",
"0  c #762925",
"q  c #68352A",
"w  c #77382C",
"e  c #663531",
"r  c #7A3A35",
"t  c #732E31",
"y  c #1B423D",
"u  c #1C4338",
"i  c #274637",
"p  c #324339",
"a  c #29523F",
"s  c #2A5C3F",
"d  c #38543C",
"f  c #74441A",
"g  c #425338",
"h  c #73472F",
"j  c #7B4837",
"k  c #48683E",
"l  c #194742",
"z  c #1C5D44",
"x  c #235343",
"c  c #2D5B45",
"v  c #295644",
"b  c #335B46",
"n  c #294F46",
"m  c #1E6746",
"M  c #276947",
"N  c #396445",
"B  c #396848",
"V  c #227248",
"C  c #257D48",
"Z  c #257747",
"A  c #38794B",
"S  c #476748",
"D  c #5D7B55",
"F  c #557451",
"G  c #52704D",
"H  c #687648",
"J  c #757A4C",
"K  c #77774A",
"L  c #627D54",
"P  c #6D7E5F",
"I  c #567B61",
"U  c #677961",
"Y  c #873B16",
"T  c #842528",
"R  c #89292A",
"E  c #852827",
"W  c #8C3427",
"Q  c #8F342B",
"!  c #94332D",
"~  c #99352F",
"^  c #993B2C",
"/  c #9D3930",
"(  c #9B3630",
")  c #A23C32",
"_  c #87461A",
"`  c #924B1A",
"'  c #985A1C",
"]  c #8A511A",
"[  c #A7631C",
"{  c #8B5127",
"}  c #934C29",
"|  c #A5482F",
" . c #AA5829",
".. c #A44332",
"X. c #AC4A35",
"o. c #B64B3A",
"O. c #B95438",
"+. c #AF5333",
"@. c #A96524",
"#. c #B26C25",
"$. c #BC7627",
"%. c #936D3C",
"&. c #C55D3D",
"*. c #C27C26",
"=. c #CF6E3B",
"-. c #A97F4F",
";. c #CD6440",
":. c #268249",
">. c #2B8449",
",. c #2D8B4A",
"<. c #3B824D",
"1. c #3E8451",
"2. c #47874B",
"3. c #428257",
"4. c #6D864B",
"5. c #72854A",
"6. c #778A4B",
"7. c #77964A",
"8. c #638357",
"9. c #618258",
"0. c #678B58",
"q. c #778553",
"w. c #64925B",
"e. c #6D9B5D",
"r. c #69985C",
"t. c #77985A",
"y. c #6E9248",
"u. c #7DA14D",
"i. c #7FA94F",
"p. c #75A35D",
"a. c #7AA55F",
"s. c #7FAB5E",
"d. c #7FA850",
"f. c #5F8E64",
"g. c #688E69",
"h. c #6E976F",
"j. c #649267",
"k. c #739D61",
"l. c #73996C",
"z. c #7A9A6F",
"x. c #678F73",
"c. c #688F73",
"v. c #679175",
"b. c #6B9472",
"n. c #719671",
"m. c #758B66",
"M. c #6FA260",
"N. c #76A463",
"B. c #7AA662",
"V. c #7BA962",
"C. c #C7812A",
"Z. c #DA942C",
"A. c #D18F28",
"S. c #E09C2D",
"D. c #E6A733",
"F. c #86894E",
"G. c #869647",
"H. c #959C41",
"J. c #96994E",
"K. c #858651",
"L. c #898651",
"P. c #878A53",
"I. c #859259",
"U. c #999D53",
"Y. c #9B8F51",
"T. c #A9974D",
"R. c #AA9354",
"E. c #A5894F",
"W. c #81A14C",
"Q. c #85A94E",
"!. c #8BAB4D",
"~. c #8DA34C",
"^. c #95AA4A",
"/. c #8CB04D",
"(. c #94B24E",
"). c #99B64D",
"_. c #9CB94E",
"`. c #8CAD54",
"'. c #81AB5E",
"]. c #8AAE5C",
"[. c #88AB52",
"{. c #9AAB55",
"}. c #8FB156",
"|. c #95B651",
" X c #9AB751",
".X c #9CB850",
"XX c #9CBA5E",
"oX c #A0B94F",
"OX c #ABAD58",
"+X c #A1A759",
"@X c #B7AA57",
"#X c #A3B950",
"$X c #AEB65B",
"%X c #A8B954",
"&X c #B3BA56",
"*X c #B4B55D",
"=X c #BCB55A",
"-X c #B6B959",
";X c #BDBA5A",
":X c #B4B757",
">X c #829E6B",
",X c #859E64",
"<X c #82AA62",
"1X c #88AC61",
"2X c #ACB160",
"3X c #A4BD68",
"4X c #BFB565",
"5X c #B6A562",
"6X c #C29E5E",
"7X c #C2A15F",
"8X c #C9AD62",
"9X c #CABC69",
"0X c #DBC26D",
"qX c #B6AF8D",
"wX c #C7B78E",
"eX c #BCC093",
"rX c #CCC093",
"tX c #C5C68D",
/* pixels */
"_._._._.}.b.v.v.v.b.`.`.b.v.v.v.n.*X;X;X;X;X*Xz.n.v.z.*X9X;X;X9X;X*X>X.X;X9X;X;X;X;X;X9X-X_._._._._._._._.#X-X;X;X;X;X;X;X9X;X-X",
"|.|._.|.l.v.n.n.v.v.b.b.v.n.n.v.n.2X;X;X;X;X;X*X2X>X2X;X9X;X;X;X;X;X*X-X;X9X;X;X;X;X;X;X-X#X_._._._._.-X-X-X;X;X;X;X;X;X;X;X-X#X",
"b.l.].l.v.z.2X2Xz.v.v.v.z.2X2Xz.n.z.*X;X;X;X;X;X;X*X;X;X;X;X;X;X;X;X;X;X9X;X;X;X;X;X;X;X;X-X-X#X_._.#X-X-X-X-X-X-X-X-X-X-X#X_.|.",
"v.n.l.v.n.2X;X;X2Xz.n.z.2X;X;X*X2X>X*X;X;X;X;X;X;X;X;X;X;X;X-X-X-X-X;X;X;X;X;X-X-X;X;X;X;X;X;X#X#X#X_._.#X#X#X#X_.#X#X#X#X_.|.l.",
"z.2X2Xz.z.*X;X;X;X*X*X*X;X;X;X;X;X*X;X;X;X-X-X-X-X;X;X;X;X-X#X_._.#X-X;X;X;X*X1X1X*X;X;X;X;X;X;X-X-X#X_._._._._._._._.#X.X|.`.b.",
"*X;X;X*X*X-X-X-X;X;X;X;X;X-X-X-X-X;X9X;X*X1X<X<X1X*X-X-X-X#X_._._._.#X-X-X$X1XV.V.1X-X;X;X;X;X;X-X-X&X_._._._._._._.#X&X*X>Xz.n.",
";X;X9X;X-X#X_.#X-X;X9X;X-X#X_..X.X*X-X*X1XV.V.V.V.1X.X#X&X_._._._.|.|.|.<X<XV.V.V.<X*X-X-X-X-X-X#X_._._._._._._.#X-X-X;X;X*X*X*X",
";X;X;X-X#X_._._.#X;X9X-X#X_.|.'.V.<X<X<XV.V.V.V.V.'.|._._._._._.|.'.V.V.V.V.V.V.V.V.|._._.#X#X#X_._._._._._.#X-X-X-X-X-X;X9X;X;X",
"-X-X#X_._._._._._.-X-X-X_.|.'.V.V.V.V.V.V.V.V.V.V.|.|.|.|._._.|.s.V.V.V.V.V.V.V.V.V.s.|._._._._._._._._._.#X-X;X-X#X_.#X-X;X;X;X",
"_._._._._._._._._._.#X&X.X|.V.V.V.V.V.V.V.V.V.V.V.V.V.V.'.|.|.s.V.V.V.V.s.|.|.'.V.V.V.s.|.|._._._._._._.&X-X-X-X#X_._._.#X-X-X-X",
"_._._._._._.|.|.|.|.|.|.'.V.V.V.V.V.V.V.V.V.V.V.V.V.V.V.V.V.V.V.V.V.V.V.|._._.|.|.'.V.V.'.'. X_._._._._._._._._._._._._._._._._.",
"_._._._._. X'.'.'.V.V.V.V.V.V.s.|.|.|.s.V.V.V.V.V.V.V.V.V.V.V.V.V.V.V.V.|._._._._.|.|.|.|.|._._._._._._._._.|.|.|._._._._._._._.",
"_._._._._._.|.|.|.'.V.V.V.V.V.|._._._.|.V.s.|.|.|.'.V.V.V.V.V.s.|.|.s.V.|._._._._._._._._._._._._._._._._.|.'.V.'.|._._._._._._.",
"_._._._._._._._._. X|.|.'.V.'.|._._._.|.'.|._._._.|.|.'.V.V.'.|._._.|.'.'. X_._._._._._._._.|.|.|._._._.|.s.V.V.V.'.|._._._._._.",
"_._._._._.#X-X-X#X_._._. X X.X_._._._._. X_._._._.).!.Q.Q.Q.!.)._._._.|.|._._._._._._._._.|.'.V.'.|.|.|.s.V.V.V.V.V.|._._._._._.",
"_._._._.#X-X;X;X-X#X_._.#X-X-X-X-X#X_._._._.).!.!.u.N c c c N W.)._._._._._._._._._._._.|.s.V.V.V.V.V.V.V.V.V.V.V.V.|.|.|._._._.",
"|. X#X&X-X;X9X;X;X;X-X-X-X;X;X;X-X:X$X X_.).7.b n N ,.,.C C Z N u.)._.|.|.|.|._._._._.|.s.V.V.V.V.V.V.V.V.V.V.V.V.V.V.V.'.|.|.|.",
"'.].:X-X-X;X;X9X;X9X9X;X;X;X;X*X1X<X<X'.|.[.B n v C >.>.:.C V M b G.~.t.a.V.'.|.|.|.|.s.V.V.V.B.V.V.V.V.V.V.V.V.V.V.V.V.V.V.V.V.",
" X X_._.#X&X;X;X;X;X;X;X-X-X$X1XV.V.V.V.V.V.e.e.w.B V V V m x a 4 5 6 q q.t.B.V.B.B.B.N.B.V.V.V.V.V.V.V.V.V.V.V.V.V.V.V.V.V.V.V.",
"_._._._._.#X;X9X;X;X;X-X#X].'.'.|.|.|.'.V.V.V.V.N.w.b v M s 4 < 8 ! ( ..9 q q.e.b.b.b.b.N.V.V.V.V.V.V.V.V.N.N.N.N.B.V.V.s.|.|.|.",
"#X#X-X-X-X-X;X;X;X;X-X#X_.|.|.|._._.|.|.|.|.}.V.V.N.e.w.p 4 7 8 ~ ) o.o.X...9 e U x.v.v.h.].|.|.|.|.|.|.].h.b.b.b.N.N.V.|._._._.",
"-X-X;X;X;X;X;X;X;X;X&X_._._._._._. X'.'.V.V.V.V.V.N.e.0.5 7 T R ....o.o.O.&.&.X.e U x.v.v.b.b.b.b.l.}.}.l.n.n.n.v.v.b.B.|._._._.",
"-X-X-X-X-X;X;X;X9X;X#X_._._._._._._.|.|.'.V.V.N.e.w.b p < 8 W @.$.$.X.O.O.&.;.;.+.{ P x.v.v.n.n.n.n.b.b.z.2X*X2Xz.v.v.h.|..X#X-X",
"#X_._._.#X-X;X;X9X;X#X_._._._._._._._._.|.|.s.r.b v v 4 7 W @.#.#.$.$.C.Z.Z.=.=.D.A.{ U c.z.2X*X*X2Xz.z.2X;X;X;X2Xz.n.n.>X*X-X-X",
"_._._._._.#X&X-X;X;X-X#X-X-X#X_._._._._._.).u.B Z V x , 0 @.@.W R ^ | $.C.Z.Z.S.D.D.+.e m.2X;X;X;X;X*X*X;X9X9X9X;X*X*X*X*X-X#X#X",
"#X#X_._._._._.#X-X;X;X-X-X-X&X#X_._._._._.!.N >.:.m M 5 `  .W ! 3 T ~ ....| *.Z.Z.Z.O.9 Y.=X;X;X;X;X;X;X9X9X;X;X9X9X;X;X;X-X#X#X",
"-X-X#X_._._._._.#X-X-X-X#X_.#X&X_._._._.).u.c :.:.C v : _ W T ! ! 3 T ~ ( / ....+.C.O...w T.=X;X;X;X;X;X;X;X;X;X;X;X;X;X;X-X#X-X",
"9X;X-X#X_._._._._._.#X#X_._._._._._._._.!.N ,.>.:.V d > 7 8 T R ~ ! 3 8 T ~ ( / / ..) o...w T.-X-X;X;X;X;X-X-X;X;X;X9X;X;X;X-X;X",
"9X9X-X#X_.#X-X-X#X#X_._._._._._._._._._.!.c ,.C V N F.q 2 3 T T ~ / ! 2 9 8 T ! ~ ( / ) ) Q w ^.#X-X-X;X&X#X#X&X;X;X;X;X;X;X;X;X",
"9X9X;X#X#X-X;X;X-X-X#X#X_._._._._._._._.!.c >.c N W.).G.5 2 8 T R ~ ~ 9 %.w t 9 8 T ! ~ ~ ^ w H.)._.#X&X#X)._.#X-X;X;X;X;X;X;X;X",
"9X;X;X;X-X;X;X;X;X-X-X-X-X-X-X-X-X-X&X_.!.n N u.!.).).G.5 1 3 8 T R ~ ! w E.wXR.r 9 t 9 R #.C.' H.)._._._._._.#X-X9X9X9X;X-X-X-X",
"-X-X-X-X-X-X-X-X-X#X_._..X X X X X X_._.!.S W.)._.).W.N a , 1 3 8 T R ~ ! r R.4XrX5XwXR.r Y $.*.' H.)._._._._.#X-X-X-X-X-X#X_._.",
"_._._._._._._._._._.|.|.'.V.V.V.V.s.|._.|.!.|.|._.!.N M m i 4 1 2 8 T R ~ ! r rX9X@X=X4XwXt _ ` [ ] ^._._._._._._._._._._._._._.",
"_._.)._._._._._.|.|.'.V.V.V.V.V.V.V.s.|.s.V.V.s.|.!.c V z m a 5 6 2 8 T ~ ~ 9 R.T.@X=X9X@Xw J.H.{ ] ^._._._._._._._._._._._._._.",
"_._.).)._._._.|.'.V.V.V.V.V.V.V.V.V.V.V.V.V.V.V.'.[.c C m m M U.T.5 < 8 R ~ ! 9 j T.8X0X8Xj qX3XtX{.)._._._._._._._._._._._._._.",
"_._._._._.|.|.s.V.V.V.V.V.V.V.V.V.V.V.V.V.V.V.V.<X{.B >.:.V b OXOXb - , 8 E ^ t qXj j 7X6Xj I.<XXX X_._._._._.|.|.|._._._._._._.",
"_._._.|.|.'.V.V.V.V.s.|.|.|.|.|.s.V.V.V.V.V.V.V.V.V.r.c C Z S OXOXM @ - ; > ' _ I.,Xq.h j -.h t.s.|._._._._.|.'.V.'.|._._._.|.|.",
"|._. X'.'.V.V.V.V.'.|._._._._._.|.V.V.s.|.|.|.'.V.V.e.v >.c U.*X{.M @ o   d f ' { eX1X~.G.h 6 t.V.'. X_._.|.s.V.V.V.s.|.|.|.'.V.",
"'.|.).|.|.|.|.|.|.|._._._._._._.|.'.s.[./././.!.[.|.!.N >.N !.(.A $ o o . y.k > _ {. X_.).G.h ~.|.|._._.|.'.V.V.V.V.V.V.V.V.V.V.",
"s.'.'.'. X_._._._._._._._._._._.).!.i.2.2.2.<.<.2.i.W.4.b y.).Q.A + o # + 7.r.B G.). X|.|.'.t.a.'.|._._.|.V.V.V.V.V.V.V.V.V.V.V.",
"|.|.|.|._._._._.|.|.|.|.|._._.|.d.2.2.Q./.(.`.k.j.M u + % i 7.G f.I O # o i w.A p.|.s.V.V.V.V.V.V.s.|.|.s.V.V.s.|.|.|.'.V.V.V.V.",
"_._._._._._._.|.l.b.b.b.l.}.`.j.3.j.[.).#X:XOX+XI.u z m m M M u I I o l # O w.1.r.V.V.M.M.M.M.B.V.V.V.V.V.V.V.|._._._.|.|.|.|. X",
"_._._._._.|.|.l.n.n.n.n.v.b.g.3.j.v.l.~.:X$X2.B i y y y @ @ l # o * # l l O r.r.3.r.r.1.<.<.1.p.V.V.V.V.V.V.'.|._._._._._._._._.",
"_._.|.|.}.l.l.z.2X*X*X2Xz.n.z.+X2Xz.m.g J.+XH + o o . . . o o o # # l l # O J P.D A <.u.[.p.p.|.|.|.s.V.V.V.|.|.|.|.|.|.|._._._.",
".X|.l.l.l.z.2X*X;X;X;X;X*X*X*X;X;X*X+Xp & & . o + c H H G O % o @ # l # o = J L.q.D D 6.(.|.|._._._.|.V.V.V.V.V.V.V.V.V.'.|.|.|.",
"*X>Xz.2X*X*X;X9X;X;X-X-X-X;X;X;X;X;X*XK =     * G F B B B H G = o o o o = K L.L.L.L.K.6.7.(._._._._.|.V.V.V.V.V.<X<X<X<X<X'.'.'.",
"-X*X*X-X-X-X;X;X-X$X1X<X1X$X-X;X;X-X*XP.J J F F D D D q.q.K.K.H & . . & H K.L.L.L.L.L.L.F.)._._._._.|.V.<X<X<X1X$X-X-X-X-X-X-X-X",
"_._._._._.#X-X-X].'.V.V.V.<X1X$X$X1XB.0.L L D D D D D L L L 5.5.H H H H 5.5.5.5.6.K.L.K.G.(._._._. X'.'.$X:X:X:X-X-X-X-X-X-X-X-X",
"_._._._._._._._. X|.|.|.'.V.V.1X<XV.B.k.8.9.D D D D D D D D D L L 4.5.5.5.5.5.5.5.5.6.6.!._._._._._.|. X_._._._._._._._._._.#X#X",
"_._._._._._._._._._._._.|.|.|.|.'.V.V.V.N.k.8.9.9.9.9.D D D D D D D L L 4.6.6.8.8.8.p.a.'.|._._._._._._._._._._._._._._._._._.#X",
"-X-X-X#X_._._._._._._._._._._._.|.|.|.}.V.B.N.a.a.a.k.8.9.9.9.9.9.9.9.9.8.p.a.N.N.B.<X<XV. X_._._._._._._._._._._._._._._._.#X-X",
"9X;X;X-X#X_._._._._._.|.|.|.|.|.'.V.V.V.V.V.s.|.|.|.s.N.N.N.N.N.N.N.a.a.a.V.V.V.1X$X-X$X]. X_._._._._._._._._._._._._._._.#X-X;X",
"-X-X-X;X-X-X-X#X_._. X'.'.'.'.'.V.V.V.V.V.'.|._._._.|.V.V.V.V.V.V.'.|.|. X X|. X:X;X;X;X-X#X_._._._._._._._._._._._.&X-X-X-X;X;X",
"_._.#X-X;X;X;X-X#X_._.|.|.|.|.|.|.|.|.|.|.|._._._._.|.'.V.V.'.|.|. X_.#X-X-X#X#X-X;X;X;X;X-X_._._._._._._._._._._._._.#X-X-X;X-X",
"_._._.#X-X-X-X-X&X_._._._._._._._._._._._._._._._._._.|.|.|.|._._.#X-X-X;X;X-X-X;X-X-X-X;X-X#X_._._._._._._._._._._._._._.#X&X#X",
"_._._._.#X#X#X#X_._._._._._._._._._._._._._._._._._._._._._._._. X$X-X-X-X-X-X-X$X1X<X1X*X;X-X-X-X-X#X_._._._. X|. X_._._._._._.",
"_._._._._._._._._._._._._._._._._._._._._._._._._._._._._._._.|.'.<X<X<X'.'.<X<X<XV.V.V.1X$X-X-X-X-X:X:X:X:X$X'.V.s.|.|.|.|.|._.",
"|.|.|.|.|.|.|.|._._._._._._._._._._._._._._._._._._._._.|.|.|.s.V.V.V.'.|.|.s.V.V.V.V.V.V.<X<X<X<X<X<X<X<X<X<XV.V.V.V.V.V.V.'.|.",
"V.V.V.V.'.'.'.'. X_._._._._._._._._._._._._._._._._._. X'.'.'.V.V.'.|.|._._.|.'.V.V.V.V.V.V.V.V.V.V.V.V.V.V.V.V.V.V.V.V.V.V.V.V.",
"V.V.V.'.|.|.|.|._._._._._._._._._._._._._._._._._._._._.|.|.|.|.|.|._._._._._.|.|.|.s.V.V.V.V.V.V.V.V.V.V.V.V.V.V.V.V.V.V.V.V.V.",
"|.|.|.|._._._._._._._._._._._._._._.|.|.|.|.|._._._._.|.|.|.|.|._._._._._._._._._._.|.V.V.s.|.|.|.|.s.V.V.V.V.V.V.V.V.V.V.'.|. X",
"_._._._._._._._._._._._._._._._.|.}.l.b.b.b.l.|._._.|.l.b.b.b.l.|._._._._.#X-X-X-X#X|.V.V.|._._._._.|.'.|.|.|.'.'.|.|.|.|.|._._.",
"_._._._._._._._._._._._._._._.|.l.b.n.n.n.v.v.l.}.}.l.v.n.n.n.n.l.|._._.#X-X;X;X;X-X.X1XV.|._._._._._. X_._._.|.|._._._._._._.#X",
"_._._._._._._._._._._._._._.|.l.v.n.2X*X2Xn.v.v.b.b.v.n.2X*X*X2Xn.l.|._.-X;X;X;X;X;X-X$X<X'.|._._._._._._._._._._._._.-X-X-X-X-X"
};
