/* XPM */
static char *rcp0559033325185[] = {
/* columns rows colors chars-per-pixel */
"64 64 212 2 ",
"   c #0F2729",
".  c #0F292B",
"X  c #1E2729",
"o  c #122D2D",
"O  c #1D2A2B",
"+  c #17262A",
"@  c #12302E",
"#  c #1D332D",
"$  c #132F31",
"%  c #143334",
"&  c #1B3431",
"*  c #183A3B",
"=  c #1A3A37",
"-  c #272C2C",
";  c #263B31",
":  c #223735",
">  c #2D312C",
",  c #57362F",
"<  c #4D2C2C",
"1  c #652921",
"2  c #642B2A",
"3  c #71272A",
"4  c #65362B",
"5  c #7F332F",
"6  c #6C3C34",
"7  c #663834",
"8  c #733730",
"9  c #793C36",
"0  c #15433E",
"q  c #25453F",
"w  c #214032",
"e  c #35443F",
"r  c #38443F",
"t  c #374C3C",
"y  c #35553F",
"u  c #465D3F",
"i  c #7B4536",
"p  c #56683F",
"a  c #1E4743",
"s  c #1B5646",
"d  c #1B5B47",
"f  c #2D4641",
"g  c #2A4942",
"h  c #274942",
"j  c #364740",
"k  c #3F4741",
"l  c #314E43",
"z  c #275343",
"x  c #2A5544",
"c  c #2D5A46",
"v  c #1F6747",
"b  c #1F6847",
"n  c #1E6B49",
"m  c #236346",
"M  c #226A47",
"N  c #216F48",
"B  c #29654A",
"V  c #356344",
"C  c #3A6545",
"Z  c #3A6C46",
"A  c #37664A",
"S  c #237548",
"D  c #2A744D",
"F  c #257C49",
"G  c #34764B",
"H  c #3C754C",
"J  c #397449",
"K  c #3C7F53",
"L  c #436A48",
"P  c #526949",
"I  c #44784C",
"U  c #5E7242",
"Y  c #467756",
"T  c #527953",
"R  c #5C7B55",
"E  c #4D6B57",
"W  c #697B46",
"Q  c #667A4F",
"!  c #757A4C",
"~  c #627D54",
"^  c #696F4B",
"/  c #607F62",
"(  c #803A17",
")  c #823F1B",
"_  c #802427",
"`  c #872B27",
"'  c #873A32",
"]  c #943730",
"[  c #9D3931",
"{  c #923B32",
"}  c #9A382C",
"|  c #844E1D",
" . c #8C4B18",
".. c #854019",
"X. c #88501B",
"o. c #A7631C",
"O. c #884B20",
"+. c #8E5529",
"@. c #915626",
"#. c #934134",
"$. c #87473A",
"%. c #A4482E",
"&. c #AD4537",
"*. c #A04738",
"=. c #A54938",
"-. c #B54B3A",
";. c #B84C3A",
":. c #8F632B",
">. c #AA6524",
",. c #B16B22",
"<. c #B47020",
"1. c #268249",
"2. c #2C8549",
"3. c #2B8949",
"4. c #3B814C",
"5. c #2E904A",
"6. c #3D8351",
"7. c #4A834E",
"8. c #47894B",
"9. c #45834E",
"0. c #548B4E",
"q. c #53854D",
"w. c #438752",
"e. c #5D8A54",
"r. c #54904B",
"t. c #6A834A",
"y. c #72844B",
"u. c #748C4C",
"i. c #7B8E4F",
"p. c #6D934A",
"a. c #789046",
"s. c #7B9F4F",
"d. c #638156",
"f. c #618258",
"g. c #6A8C58",
"h. c #748453",
"j. c #7D8451",
"k. c #788953",
"l. c #6E9D5E",
"z. c #66985C",
"x. c #749D5B",
"c. c #7B9756",
"v. c #7EA14D",
"b. c #7FA94F",
"n. c #6EA15F",
"m. c #79A45E",
"M. c #7FAB5E",
"N. c #76A55A",
"B. c #5F8969",
"V. c #6D966D",
"C. c #669368",
"Z. c #739E60",
"A. c #73996C",
"S. c #7A9A6F",
"D. c #789468",
"F. c #679175",
"G. c #6B9472",
"H. c #719671",
"J. c #638D71",
"K. c #6FA260",
"L. c #76A463",
"P. c #79A662",
"I. c #7BA962",
"U. c #909741",
"Y. c #989D4A",
"T. c #8C8E54",
"R. c #848451",
"E. c #889757",
"W. c #949D58",
"Q. c #81A14B",
"!. c #8DAB4C",
"~. c #8EA249",
"^. c #92A447",
"/. c #94A748",
"(. c #91AB4E",
"). c #97A946",
"_. c #8CB04F",
"`. c #96B44E",
"'. c #9AB74E",
"]. c #9CB94E",
"[. c #8CAE54",
"{. c #81AB5E",
"}. c #8AAE5C",
"|. c #8AA755",
" X c #9CAB55",
".X c #97A456",
"XX c #8FB055",
"oX c #95B651",
"OX c #9AB751",
"+X c #9EB850",
"@X c #98B65D",
"#X c #A0B94F",
"$X c #A7AD58",
"%X c #A2B553",
"&X c #A3B950",
"*X c #AEB55B",
"=X c #AFBA55",
"-X c #B2BA56",
";X c #B4B55D",
":X c #B6B959",
">X c #BDBA5A",
",X c #BAB65B",
"<X c #B3AF59",
"1X c #829E6B",
"2X c #82AA62",
"3X c #88AC61",
"4X c #84AE6C",
"5X c #8AAB6E",
"6X c #ACB160",
"7X c #A8A78A",
"8X c #BCC193",
"9X c #C4C58E",
/* pixels */
"].].].].XXG.F.F.F.G.[.[.G.F.F.F.H.;X>X>X>X>X;XS.H.F.S.;X>X>X>X>X>X;X1XOX>X>X>X>X>X>X>X>X:X].].].].].].].].&X:X>X>X>X>X>X>X>X>X:X",
"oXoX].oXA.F.H.H.F.F.G.G.F.H.H.F.H.6X>X>X>X>X>X;X6X1X6X>X>X>X>X>X>X>X;X:X>X>X>X>X>X>X>X>X:X&X].].].].].:X:X:X>X>X>X>X>X>X>X>X:X&X",
"G.A.}.A.F.S.6X6XS.F.F.F.S.6X6XS.H.S.;X>X>X>X>X>X>X,X>X>X>X>X>X>X>X>X>X>X>X>X>X>X>X>X>X>X>X>X:X#X].].#X:X:X:X:X:X:X:X:X:X:X&X].oX",
"F.H.A.F.H.6X>X>X6XS.H.S.6X>X>X;X6X1X;X>X>X>X>X>X>X>X>X>X>X>X>X:X:X:X>X>X>X>X>X:X:X>X>X>X>X>X>X&X#X].].#X#X#X#X#X#X#X#X#X#X].oXA.",
"S.6X6XS.S.;X>X>X>X;X;X;X>X>X>X>X>X;X>X>X>X:X:X:X:X>X>X>X>X:X&X#X].&X:X>X>X>X;X3X3X;X>X>X>X>X>X>X:X:X&X].].].].].].].].#X+XoX[.G.",
";X>X>X;X;X:X:X:X>X>X>X>X>X:X:X:X>X>X>X>X;X3X2X2X3X;X:X:X:X&X].].].].&X:X:X*X3XI.I.3X:X>X>X>X>X>X:X:X-X].].].].].].].&X:X;X1XS.H.",
">X>X>X>X:X&X].&X:X>X>X>X:X&X].+X+X;X:X*X3XI.I.I.I.3X+X&X-X#X].].].oXoXoX2X2XI.I.I.2X;X:X:X:X:X:X&X].].].].].].].&X:X:X>X>X;X;X;X",
">X>X>X:X&X].].].&X>X>X:X&X].oX{.I.2X2X2XI.I.I.I.I.{.oX].].].].].oX{.I.I.I.I.I.I.I.I.oX#X].#X#X#X].].].].].].&X:X:X:X:X:X>X>X>X>X",
":X:X&X].].].].].].:X:X:X].oX{.I.I.I.I.I.I.I.I.I.I.oXoXoXoX].].oXM.I.I.I.I.I.I.I.I.I.M.oX].].].].].].].].].&X:X>X:X&X].&X:X>X>X>X",
"].].].].].].].].].].&X-X+XoXI.I.I.I.I.I.I.I.I.I.I.I.I.I.{.oXoXM.I.I.I.I.M.oXoX{.I.I.I.M.oXoX].].].].].].-X:X:X:X&X].].].&X:X:X:X",
"].].].].].].oXoXoXoXoXoX{.I.I.I.I.I.I.I.I.I.I.I.I.I.I.I.I.I.I.I.I.I.I.I.oX].].oXoX{.I.I.{.{.OX].].].].].].].].].].].].].].].].].",
"].].].].].OX{.{.{.I.I.I.I.I.I.M.oXoXoXM.I.I.I.I.I.I.I.I.I.I.I.I.I.I.I.I.oX].].].].oXoXoXoXoX].].].].].].].].oXoXoX].].].].].].].",
"].].].].].].oXoXoX{.I.I.I.I.I.oX].].].oXI.M.oXoXoX{.I.I.I.I.I.M.oXoXM.I.oX].].].].].].].].].].].].].].].].oX{.I.{.oX].].].].].].",
"].].].].].].].].].OXoXoX{.I.{.oX].].].oX{.oX].].].oXoX{.I.I.M.|.'.].oX{.{.OX].].].].].].].].oXoXoX].].].oXM.I.I.I.{.oX].].].].].",
"].].].].].&X:X:X&X].].].OXOX+X].].].].].OX].].].].].].oXoXoXv.L Q.'.].oXoX].].].].].].].].oX{.I.{.oXoXoXM.I.I.I.I.I.oX].].].].].",
"].].].].&X:X>X>X:X&X].].&X:X:X:X:X&X].].].].].].].].].oXoXv.Z 2.Z Q.'.].].].].].].].].].oXM.I.I.I.I.I.I.I.I.I.I.I.I.oXoXoX].].].",
"oXoX&X:X>X>X>X>X>X>X:X:X:X>X>X>X:X-X*XOX].].oXoXoXoXoXM.z.A 2.3.3.Z Q.oXoXoXoX].].].].oXM.I.I.I.I.I.I.I.I.I.I.I.I.I.I.I.{.oXoXoX",
"{.}.-X:X>X>X>X>X>X>X>X>X>X>X>X;X3X2X2X{.oXoX{.I.I.I.I.l.A 2.3.1.3.2.C x.I.I.{.oXoXoXoXM.I.I.I.I.I.I.I.I.I.I.I.I.I.I.I.I.I.I.I.I.",
"OXOX].#X&X:X>X>X>X>X>X>X:X:X*X3XI.I.I.I.I.I.I.I.I.I.I.l.x F 1.S 1.F x l.I.I.I.I.P.P.P.L.P.I.I.I.I.I.I.I.I.I.I.I.I.I.I.I.I.I.I.I.",
"].].].#X#X&X>X>X>X>X>X:X%X}.{.{.oXoXoX{.I.I.I.I.I.I.P.g.z S F n F S z g.P.I.P.L.G.G.G.G.L.I.I.I.I.I.I.I.I.L.L.L.L.P.I.I.M.oXoXoX",
"].&X:X:X:X:X>X>X>X>X>X&X].oXoXoX].].oXoXoXoXXXI.I.P.h., q N F d F N q , h.L.L.G.F.F.F.F.V.}.oXoXoXoXoXoX[.V.G.G.G.L.L.I.oX].].].",
":X:X>X>X>X>X>X>X>X>X:X#X].].].].].OX{.{.I.I.I.l.l.g.4 3 e M N s N M e 3 2 / C.J.F.F.F.F.F.G.G.G.G.A.XXXXA.H.H.H.F.F.G.P.oX].].].",
":X:X:X:X:X>X>X>X>X>X&X].].].].].].].oXoX{.I.z.A x l 2 ' 9 g v s v g 9 ' 2 g x c B.G.F.F.F.F.H.H.H.H.G.G.S.6X;X6XS.F.F.V.oX+X&X:X",
"#X].].].&X:X>X>X>X>X&X].].].].].].].].].oXs.A 2.F M g r 9 f d s d f 9 r g M F 2.Z E.A.F.F.S.6X;X;X6XS.S.6X>X>X>X6XS.H.H.1X;X:X:X",
"].].].].].&X:X:X>X>X:X&X:X:X&X].].].].'.Q.Z 3.3.1.F M m g a s h s a g m M F 1.3.3.L E.H.S.6X>X>X>X>X;X;X>X>X>X>X>X;X;X;X;X:X&X#X",
"#X#X].].].].].&X:X>X>X:X:X:X-X&X].].].!.C 3.2.F n n d s d s e 7 e s d s d n n F 2.3.C D.6X>X>X>X>X>X>X>X>X>X>X>X>X>X>X>X>X:X#X#X",
":X:X&X].].].].].&X:X:X:X&X#X&X-X].].'.v.V 3.F n F S b d d j 7 > 7 j d d b S F n F 3.V W.,X>X>X>X>X>X>X>X>X>X>X>X>X>X>X>X>X>X&X:X",
">X>X:X#X].].].].].#X#X#X].].].].'.!.v.Z 3.3.F S M x f f k $.> = > $.k f f x M S F 3.3.L .X$X>X:X:X>X>X>X>X>X>X>X>X>X>X>X>X>X>X>X",
">X>X:X#X].&X:X:X&X#X].].].].].].!.L C 2.5.3.c q t :.#.=.=.*.- * - *.=.=.#.:.t q c 3.5.2.L P $X&X&X:X:X>X:X&X&X:X>X>X>X>X>X>X>X>X",
">X>X>X&X&X:X>X>X:X:X&X].].].].].].(.Q.C c C a.4 O.>.%.;.;.{ - 0 - { ;.;.%.>.O.4 a.C c L .X(.].].].].&X-X&X].].&X>X>X>X>X>X>X>X>X",
">X>X>X>X:X>X>X>X>X:X:X:X:X:X:X:X:X:X-X(.!.!.`.U.( ` [ ;.-.' O 0 O ' -.;.[ ` ( U.`.!.!.$X%X].].].].].].].].].].].:X>X>X>X>X:X:X:X",
":X:X:X:X:X:X:X:X:X&X].].+XOXOXOXOXOX].].].].].^.1 _ [ -.#.y o 0 o y #.-.[ _ 1 ^.].].].-X#X].].].].].].].].].].].:X:X:X:X:X&X].].",
"#X].#X#X].].].].].].oXoX{.I.I.I.I.{.oX].oXoXoX~.1 3 [ &.5 z @ 0 @ z ' &.[ _ 1 ^.].].].].].].].].].].].].].].].].].].].].].].].].",
"].].].].].].].].oXoX{.I.I.I.I.I.I.I.M.oX{.I.I.c.1 _ [ [ 8 y @ 0 @ y 8 [ [ _ 1 ^.].].].].oXoXoX].].].].].].].].].].].].].].].].].",
"].].].].].].].oX{.I.I.I.I.I.I.I.I.I.I.I.I.I.P.i.) } &.' u 6 O * O 6 u ' &.} ..U.`.].].oX{.I.{.oX].].].].].].].].].].].].].].].].",
"].].].].].oXoXM.I.I.I.I.I.I.I.I.I.I.I.I.I.I.c.| ,.%.] 7 V 4 X * X 4 V 7 ] %.,.| E.oXoX{.I.I.I.M.oX].].].].].].oXoXoX].].].].].].",
"].].].oXoX{.I.I.I.I.M.oXoXoXoXoXM.I.I.I.I.M.i. .<.,.i 7XI 2 X * X 2 I 7Xi ,.<. .i.m.I.{.oXoXM.I.M.oX].].].].oX{.I.{.oX].].].oXoX",
"oX].OX{.{.I.I.I.I.{.oX].].].].].oXI.I.M.oX/.X.o. .+.i.L.H < + * + , H P.E.+. .o.| c.{.oX].].oX{.I.{.OX].].oXM.I.I.I.M.oXoXoX{.I.",
"{.oXoXoXoXoXoXoXoXoX].].].].].].oX{.{.oX].).| @.Y.9XXX8.p.# % * : 7X|.8.XX9XY.@.| /.oX].].oXoXoXoXoX].].oX{.I.I.I.I.I.I.I.I.I.I.",
"I.{.{.{.OX].].].].].].].].].].].].oXoX].].'. X9X@X@X[.4.p.# % % o t p.4.[.@X5X8X X'.oXoXoX{.I.I.{.oX].].oXI.I.I.I.I.I.I.I.I.I.I.",
"oXoXoXoX].].].].oXoXoXoXoX].].oXoXoX].].].].OX5XS.G.C.D m o % o * 0 = G l.I.I.4X2XoXM.I.I.I.I.I.I.M.oXoXM.I.I.M.oXoXoX{.I.I.I.I.",
"].].].].].].].oXA.G.G.G.A.XXXXA.G.A.oX].&X%X$X$X6XS.B.D m o $ . % 0 & Y 6.K.P.K.K.I.I.I.I.I.I.I.I.I.I.I.I.I.I.oX].].].oXoXOXoXOX",
"].].].].].oXoXA.H.H.H.H.F.G.G.H.H.F.C.[. X0.7.0. X.XI D Y o   % o * @ B D z.l.w.6.z.n.n.I.I.I.I.I.I.I.I.I.I.{.oX].].].].].].].].",
"].].oXoXXXA.A.S.6X;X;X6XS.H.S.6X6XC.K 9.0. X*X.X7.I Q G E o   % o * & P D D 7.|.x.6.4.8.b.M.{.oXoXoXM.I.I.I.oXoXoXoXoXoXoX].].].",
"+XoXA.A.A.S.6X;X>X>X>X>X;X;X;X>X*Xe..X*X*X:X<XT.j.h.y.I Q : % % % & * = m Q j.T.T.x.m.b.r._.oX].].].oXI.I.I.I.I.I.I.I.I.{.oXoXoX",
";X1XS.6X;X;X>X>X>X>X:X:X:X>X>X>X>X;X>X>X>X,XT.~ ~ R I y.R.^ : # ; p ; % % V y.j.j.T.*X%X`.].].].].].oXI.I.I.I.I.2X2X2X2X2X{.{.{.",
":X;X;X:X:X:X>X>X:X*X3X2X3X*X:X>X>X:X:X:X:X*Xf.T T H R j.R.R.! ! W y.U ; # w J H I j.,X:X-X].].].].].oXI.2X2X2X3X*X:X:X:X:X:X:X:X",
"].].].].].&X:X:X}.{.I.I.I.2X3X*X*X3X2X2X2Xl.K G G T R ~ ~ ~ y.y.y.y.y.W W W t.t.t.q. X:X&X].].].].OX{.2X*X-X-X-X:X:X:X:X:X:X:X:X",
"].].].].].].#X].OXoXoXoX{.I.I.3X2XI.I.I.L.w.z.e.R R R R R R R ~ ~ y.y.y.y.y.y.u.u.v.0.XXoX].].].].].oXOX].].].].].].].].].].#X#X",
"].].].].].].].].].].].].oXoXoXoX{.I.I.I.P.L.P.L.Z.f.f.f.f.R R R R R ~ d.u.u.u.m.m.I.m.I.{.oX].].].].].].].].].].].].].].].].].#X",
":X:X:X&X].].].].].].].].].].].].oXoXoXXXI.I.I.I.I.m.L.L.Z.f.f.f.f.f.f.x.m.m.m.P.I.2X2X2XI.oX].].].].].].].].].].].].].].].].&X:X",
">X>X>X:X&X].].].].].].oXoXoXoXoX{.I.I.I.I.I.M.oXoXoXM.I.P.L.L.L.L.L.m.I.I.I.I.I.3X*X:X*X}.OX].].].].].].].].].].].].].].].&X:X>X",
":X:X>X>X:X:X:X&X].].OX{.{.{.{.{.I.I.I.I.I.{.oX].].].oXI.I.I.I.I.I.{.oXoXOXOXoXOX-X>X>X>X:X&X].].].].].].].].].].].].-X:X:X:X>X>X",
"].#X&X:X>X>X>X:X&X].].oXoXoXoXoXoXoXoXoXoXoX].].].].oX{.I.I.{.oXoXOX].&X:X:X&X&X:X>X>X>X>X:X].].].].].].].].].].].].].&X:X:X>X:X",
"].].].&X:X:X:X:X-X].].].].].].].].].].].].].].].].].].oXoXoXoX].].&X:X>X>X>X:X:X>X:X:X:X>X:X&X].].].].].].].].].].].].].].&X-X&X",
"].].].].#X#X#X#X].].].].].].].].].].].].].].].].].].].].].].].].OX*X:X:X:X:X:X:X*X3X2X3X;X>X:X:X:X:X&X].].].].OXoXOX].].].].].].",
"].].].].].].].].].].].].].].].].].].].].].].].].].].].].].].].oX{.2X2X2X{.{.2X2X2XI.I.I.3X*X:X:X:X:X-X-X-X-X*X{.I.M.oXoXoXoXoX].",
"oXoXoXoXoXoXoXoX].].].].].].].].].].].].].].].].].].].].oXoXoXM.I.I.I.{.oXoXM.I.I.I.I.I.I.2X2X2X2X2X2X2X2X2X2XI.I.I.I.I.I.I.{.oX",
"I.I.I.I.{.{.{.{.OX].].].].].].].].].].].].].].].].].].OX{.{.{.I.I.{.oXoX].].oX{.I.I.I.I.I.I.I.I.I.I.I.I.I.I.I.I.I.I.I.I.I.I.I.I.",
"I.I.I.{.oXoXoXoX].].].].].].].].].].].].].].].].].].].].oXoXoXoXoXoX].].].].].oXoXoXM.I.I.I.I.I.I.I.I.I.I.I.I.I.I.I.I.I.I.I.I.I.",
"oXoXoXoX].].].].].].].].].].].].].].oXoXoXoXoX].].].].oXoXoXoXoX].].].].].].].].].].oXI.I.M.oXoXoXoXM.I.I.I.I.I.I.I.I.I.I.{.oXOX",
"].].].].].].].].].].].].].].].].oXXXA.G.G.G.A.oX].].oXA.G.G.G.A.oX].].].].&X:X:X:X&XoXI.I.oX].].].].oX{.oXoXoX{.{.oXoXoXoXoX].].",
"].].].].].].].].].].].].].].].oXA.G.H.H.H.F.F.A.XXXXA.F.H.H.H.H.A.oX].].&X:X>X>X>X:X+X3XI.oX].].].].].OX].].].oXoX].].].].].].#X",
"].].].].].].].].].].].].].].oXA.F.H.6X;X6XH.F.F.G.G.F.H.6X;X;X6XH.A.oX].:X>X>X>X>X>X:X*X2X{.oX].].].].].].].].].].].].:X:X:X:X:X"
};
