/* XPM */
static char *rcp05590809863362[] = {
/* columns rows colors chars-per-pixel */
"64 64 201 2 ",
"   c #0F2C2A",
".  c #0F2729",
"X  c #1E2729",
"o  c #112D2D",
"O  c #1D2B2B",
"+  c #1D332E",
"@  c #18352E",
"#  c #132F31",
"$  c #143233",
"%  c #1A3633",
"&  c #183B3B",
"*  c #193B37",
"=  c #222B2B",
"-  c #2F2D2D",
";  c #253B31",
":  c #243A37",
">  c #372D2C",
",  c #7F3014",
"<  c #55332A",
"1  c #553432",
"2  c #622722",
"3  c #652920",
"4  c #6F272A",
"5  c #672D2C",
"6  c #7F2628",
"7  c #66332A",
"8  c #683834",
"9  c #793B32",
"0  c #15433E",
"q  c #27453C",
"w  c #36493D",
"e  c #34513F",
"r  c #7F4018",
"t  c #714034",
"y  c #194D46",
"u  c #1E4643",
"i  c #1B5346",
"p  c #1C5B47",
"a  c #2C4440",
"s  c #254A41",
"d  c #2B4942",
"f  c #3B4640",
"g  c #314F43",
"h  c #2B5142",
"j  c #2D5A44",
"k  c #2B574A",
"l  c #345D45",
"z  c #395E47",
"x  c #1F6946",
"c  c #1E6A48",
"v  c #1D6547",
"b  c #216547",
"n  c #226B47",
"m  c #2B6A4A",
"M  c #366144",
"N  c #3A6444",
"B  c #376948",
"V  c #237448",
"C  c #257D48",
"Z  c #2B7A48",
"A  c #39754B",
"S  c #377752",
"D  c #475E40",
"F  c #416548",
"G  c #416C49",
"H  c #4C794D",
"J  c #446150",
"K  c #427350",
"L  c #557A54",
"P  c #5D7B55",
"I  c #57715A",
"U  c #686F4A",
"Y  c #667644",
"T  c #767A4B",
"R  c #617D54",
"E  c #803A17",
"W  c #802427",
"Q  c #872B27",
"!  c #99392D",
"~  c #96352E",
"^  c #8C3D34",
"/  c #863732",
"(  c #9E3931",
")  c #923B32",
"_  c #854417",
"`  c #8F4D1A",
"'  c #88511C",
"]  c #AD6A1F",
"[  c #B4701F",
"{  c #884B20",
"}  c #8F5628",
"|  c #8C5E21",
" . c #83483C",
".. c #934134",
"X. c #974A3C",
"o. c #97552B",
"O. c #A5482E",
"+. c #AC4537",
"@. c #A24738",
"#. c #A54736",
"$. c #B54B3A",
"%. c #B84D3B",
"&. c #8F632B",
"*. c #A96424",
"=. c #B16C22",
"-. c #BA7722",
";. c #278349",
":. c #2C8649",
">. c #2B8A4A",
",. c #3C824B",
"<. c #3E8451",
"1. c #4A8A4C",
"2. c #46844C",
"3. c #578A4F",
"4. c #478754",
"5. c #588A50",
"6. c #55835C",
"7. c #73854A",
"8. c #79854E",
"9. c #758C4C",
"0. c #769C4D",
"q. c #628156",
"w. c #6E8150",
"e. c #628359",
"r. c #6A8C57",
"t. c #778853",
"y. c #679C5D",
"u. c #6E9E5E",
"i. c #67965C",
"p. c #7D9B55",
"a. c #769C5A",
"s. c #6D8A4A",
"d. c #7FA04C",
"f. c #6EA15F",
"g. c #74A35E",
"h. c #79A45E",
"j. c #7FAB5E",
"k. c #7EA850",
"l. c #598668",
"z. c #6C966C",
"x. c #689467",
"c. c #739E60",
"v. c #73996C",
"b. c #7A9A6F",
"n. c #679175",
"m. c #6B9472",
"M. c #719671",
"N. c #638D71",
"B. c #6FA160",
"V. c #76A363",
"C. c #79A662",
"Z. c #7BA962",
"A. c #828A3F",
"S. c #939B42",
"D. c #848B53",
"F. c #838451",
"G. c #889857",
"H. c #899349",
"J. c #AC9F56",
"K. c #81A14B",
"L. c #8CAB4D",
"P. c #83AB4D",
"I. c #91A347",
"U. c #92A64A",
"Y. c #91AB4E",
"T. c #8CB04D",
"R. c #95B34F",
"E. c #99B74D",
"W. c #9CB94E",
"Q. c #8DAF56",
"!. c #81AB5E",
"~. c #8AAE5C",
"^. c #86AC51",
"/. c #9EAB56",
"(. c #98A656",
"). c #8FB156",
"_. c #95B651",
"`. c #9AB751",
"'. c #9EB850",
"]. c #92B25A",
"[. c #A0B94F",
"{. c #A6AC58",
"}. c #A2B553",
"|. c #A3B950",
" X c #AEB65B",
".X c #AFBA55",
"XX c #B3BA56",
"oX c #B4B55D",
"OX c #B6B959",
"+X c #BDBA5A",
"@X c #B9B45A",
"#X c #B1AD58",
"$X c #829E6B",
"%X c #82AA62",
"&X c #88AC61",
"*X c #84A865",
"=X c #ACB160",
"-X c #959D87",
";X c #B3AD8A",
":X c #A1AA8C",
">X c #BCC093",
/* pixels */
"W.W.W.W.).m.n.n.n.m.Q.Q.m.n.n.n.M.oX+X+X+X+XoXb.M.n.b.oX+X+X+X+X+XoX$X`.+X+X+X+X+X+X+X+XOXW.W.W.W.W.W.W.W.|.+X+X+X+X+X+X+X+X+XOX",
"_._.W.].v.n.M.M.n.n.m.m.n.M.M.n.M.=X+X+X+X+X+XoX=X$X=X+X+X+X+X+X+X+XoXOX+X+X+X+X+X+X+X+XOX|.W.W.W.W.W.OXOXOX+X+X+X+X+X+X+X+XOX|.",
"m.v.~.v.n.b.=X=Xb.n.n.n.b.=X=Xb.M.b.oX+X+X+X+X+X+XoX+X+X+X+X+X+X+X+X+X+X+X+X+X+X+X+X+X+X+X+XOX[.W.W.[.OXOXOXOXOXOXOXOXOXOX|.W._.",
"n.M.v.n.M.=X+X+X=Xb.M.b.=X+X+XoX=X$XoX+X+X+X+X+X+X+X+X+X+X+X+XOXOXOX+X+X+X+X+XOXOX+X+X+X+X+X+X|.W.W.W.[.[.[.[.W.[.[.[.[.[.W._.v.",
"b.=X=Xb.b.oX+X+X+XoXoXoX+X+X+X+X+XoX+X+X+XOXOXOXOX+X+X+X+XOX|.[.W.|.OX+X+X+XoX&X&XoX+X+X+X+X+X+XOXOX|.W.W.W.W.W.W.W.W.[.'._.Q.m.",
"oX+X+XoXoXOXOXOX+X+X+X+X+XOXOXOXOX+X+X+XoX&X%X%X&XoXOXOXOX|.W.W.W.W.|.OXOX X&XC.C.&XOX+X+X+X+X+XOXOXXXW.W.W.W.W.W.W.|.OXoX$Xb.M.",
"+X+X+X+XOX|.W.|.OX+X+X+XOX|.W.'.'.oXOXoX&XC.C.C.C.&X'.|.XX[.W.W.W._._._.%X%XC.C.C.%XoXOXOXOXOXOX|.W.W.W.W.W.W.[.|.OXOX+X+XoXoXoX",
"+X+X+XOX|.W.W.W.|.+X+XOX|.W._.!.Z.%X%X%XC.C.C.C.C.!._.W.W.W.W.W._.!.Z.Z.C.C.C.C.C.Z._.[.[.[.[.[.W.W.W.W.W.W.|.OXOXOXOXOX+X+X+X+X",
"OXOX|.W.W.W.W.W.W.OXOXOX[._.!.C.C.C.C.C.C.C.C.C.Z.]._._._.W.W._.j.C.C.C.C.Z.Z.C.C.C.j._.W.W.W.W.W.W.W.W.W.|.OX+XOX|.W.|.OX+X+X+X",
"W.W.W.W.W.W.W.W.W.W.|.XX'._.Z.C.C.C.C.C.C.C.C.C.C.Z.Z.Z.!._._.j.C.C.C.C.j._._.!.Z.C.C.j._._.W.W.W.W.W.W.XXOXOXOX|.W.W.W.|.OXOXOX",
"W.W.W.W.W.W._._._._._._.!.Z.C.C.Z.Z.Z.C.C.C.C.C.C.C.C.C.C.Z.Z.C.C.C.C.Z._.W.W.`._.!.Z.Z.!.!.`.W.W.W.W.W.W.W.W.W.W.W.W.W.W.W.W.W.",
"W.W.W.W.W.`.!.!.!.Z.Z.Z.C.C.C.j._.`._.j.C.C.Z.Z.Z.C.C.C.C.C.C.C.Z.Z.C.Z._.W.W.W.W._._._._._.W.W.W.W.W.W.W.W._._._.W.W.W.W.W.W.W.",
"W.W.W.W.W.W._._._.!.Z.Z.C.C.Z._.W.W.W._.Z.j._._._.!.Z.C.C.C.C.j._._.j.Z._.W.W.W.W.W.W.W.W.W.W.W.W.W.W.W.W._.!.Z.!._.W.W.W.W.W.W.",
"W.W.W.W.W.W.W.W.W.`._._.!.Z.!._.W.W.W.`.!._.W.W.W._._.!.Z.Z.!._.W.W._.!.!.`.W.W.W.W.W.W.W.W.`._._.W.W.W._.j.C.C.C.!._.W.W.W.W.W.",
"W.W.W.W.W.|.OXOX|.W.W.W.`.`.'.W.W.W.W.W.`.W.W.W.W.W.W._._._.L.L.L.E.W._._.W.W.W.W.W.W.W.W._.!.Z.!._._._.j.C.C.C.C.Z._.W.W.W.W.W.",
"W.W.W.W.|.OX+X+XOX|.W.W.|.OXOXOXOX|.W.W.W.W.W.W.W.W.W._._.d.N j N K.E.W.W.W.W.W.W.W.W.W._.j.C.C.C.Z.Z.Z.C.C.C.C.C.Z._._._.W.W.W.",
"_._.|.OX+X+X+X+X+X+XOXOXOX+X+X+XOXXX X`.W.W._._._._._.j.i.B :.C :.B K._._._._.W.W.W.W._.j.C.C.C.C.C.C.C.C.C.C.C.C.C.Z.Z.!._._._.",
"!.~.XXOX+X+X+X+X+X+X+X+X+X+X+XoX&X%X%X!._._.!.Z.Z.Z.Z.u.l V ;.V ;.V M a.Z.Z.!._._._._.j.C.C.C.C.C.C.C.C.C.C.C.C.C.C.C.C.C.Z.Z.Z.",
"`.`.W.[.|.OX+X+X+X+X+X+XOXOX X&XZ.Z.Z.C.Z.Z.C.C.C.C.C.r.g n C c C n g r.C.C.C.Z.C.C.C.V.C.C.C.C.C.C.C.C.C.C.C.C.C.C.C.C.C.Z.Z.Z.",
"W.W.W.W.[.|.+X+X+X+X+XOX}.~.!.!._._._.!.Z.Z.Z.C.C.C.t.7 5 d n p n d 5 7 t.C.C.V.m.m.m.m.V.Z.Z.Z.Z.Z.Z.Z.Z.V.V.V.V.C.C.C.j._._._.",
"[.|.OXOXOXOX+X+X+X+X+X|.W._._._.W.W._._._._.).Z.C.t.7 6 / f b i b f / 6 7 r.V.m.n.n.n.n.z.Q.].].].]._._.Q.z.m.m.m.V.V.Z._.W.W.W.",
"OXOX+X+X+X+X+X+X+X+XOX[.W.W.W.W.W.`.!.!.Z.Z.C.u.r.< 4 / ^  .d y d  .^ / 4 1 e.N.n.n.n.n.n.m.m.m.m.v.).).v.M.M.M.n.m.m.C._.W.W.W.",
"OXOXOXOXOX+X+X+X+X+X|.W.W.W.W.W.W.W._._.!.C.i.M h q q a a a u y u a a a q q h k l.m.n.n.n.n.M.M.M.M.m.m.b.=XoX=Xb.n.n.M.].'.|.OX",
"[.W.W.W.|.OX+X+X+X+X|.W.W.W.W.W.W.W.W.W._.0.B :.C V x i y i i s i i y i x V C :.B G.v.n.n.b.=XoXoX=Xb.b.=X+X+X+X=Xb.M.M.$XoXOXOX",
"W.W.W.W.W.|.OXOX+X+XOX|.OXOX|.W.W.W.W.W.L.N >.>.C c c c p p w 8 w p p c c c C >.>.F (.M.b.=X+X+X+X+XoXoX+X+X+X+X+XoXoXoXoXOX|.[.",
"[.[.W.W.W.W.W.|.OX+X+XOXOXOXXX|.W.W.W.E.d.M >.;.c c c p d f 8 > 8 f d p c c c ;.>.M (.$X=X+X+X+X+X+X+X+X+X+X+X+X+X+X+X+X+XOX[.[.",
"OXOX|.W.W.W.W.W.|.OXOXOX|.[.|.XXW.W.W.L.N :.;.V b h a f X.X.- * - X.X.f a h b V ;.:.F {.+X+X+X+X+X+X+X+X+X+X+X+X+X+X+X+X+X+X|.OX",
"+X+XOX[.W.W.W.W.W.[.[.[.W.W.W.W.W.W.E.d.j C n q w &...@.%.@.= & = @.%.@...&.w q n C l (.+X+X+XOXOX+X+X+X+X+X+X+X+X+X+X+X+X+X+X+X",
"+X+XOX[.W.|.OXOX|.W.W.W.W.W.W.W.W.E.K.B :.C s < { *.#.%.%.) = 0 = ) %.%.#.*.{ < s C :.G (.OXOX|.|.OXOX+XOX|.|.OX+X+X+X+X+X+X+X+X",
"+X+X+X|.|.OX+X+XOXOX|.W.W.[.W.W.W.Y.N Z C n l A.E Q ( %.$./ O 0 O / $.%.( Q E H.l n C Z F Y.W.W.W.W.|.XX|.W.W.|.+X+X+X+X+X+X+X+X",
"+X+X+X+XOX+X+X+X+XOXOXOXOXOXOXOXOX{.z j j M K.I.3 W ( $...e o 0 o e ) $.( W 3 I.K.M j l z L.W.W.W.W.W.W.W.W.W.W.OX+X+X+X+XOXOXOX",
"OXOXOXOXOXOXOXOXOX|.W.W.'.`.`.`.`.`.L.L.L.L.E.I.2 W ( +.9 e o 0 o e 9 +.( W 2 I.E.L.L./.Y.E.W.W.W.W.W.W.W.W.W.W.OXOXOXOXOX|.W.W.",
"[.W.[.[.W.W.W.W.W.W._._.!.Z.Z.Z.Z.!._.W._._.R.H.3 W ( ..D t O 0 O t D ..( W 2 I.W.W.W.W.W.W.W.W.W.W.W.W.W.W.W.W.W.W.W.W.W.W.W.W.",
"W.W.W.W.W.W.W.W._._.!.Z.C.C.C.C.C.C.j._.!.Z.a.7 , ! +.^ N 9 = 0 = 9 N ^ +.~ 7 S.E.W.W.W._._._.W.W.W.W.W.W.W.W.W.W.W.W.W.W.W.W.W.",
"W.W.W.W.W.W.W._.!.Z.C.C.C.C.C.C.C.C.C.Z.C.C.a.r =.O.! 8 M 5 X & X 5 M 8 ! O.=.' U.W.W._.!.Z.!._.W.W.W.W.W.W.W.W.W.W.W.W.W.W.W.W.",
"W.W.W.W.W._._.j.C.C.C.Z.Z.Z.Z.Z.C.C.C.C.C.C.p._ -.=.o.;XK 5 X & X 5 K ;Xo.=.-._ G._._.!.Z.Z.C.j._.W.W.W.W.W.W._._._.W.W.W.W.W.W.",
"W.W.W._._.!.Z.C.C.C.j._.`.`.`._.j.C.C.C.Z.Z.p._ [ ` G.*XA 1 O & O 1 A =XJ.` [ _ p.Z.Z.!._._.j.C.j._.W.W.W.W._.!.Z.!._.W.W.W._._.",
"_.W.`.!.!.Z.Z.Z.Z.!._.W.W.W.W.W._.Z.C.j._._.U.' ] } >XV.4.-X: & : :X4.C.>X} ] ' p.Z.!._.W.W._.!.Z.!.`.W.W._.j.C.C.C.j._._._.!.Z.",
"!._._._._._._._._._.W.W.W.W.W.W._.!.!._.W.W.E.S.| S.].1.0.w % & ; p.k.1.].S.| S.R._._.W.W._._._._._.W.W._.!.C.C.C.C.C.Z.Z.Z.C.C.",
"Z.!.!.!.`.W.W.W.W.W.W.W.W.W.W.W.W._._.T.T.T.T._.U._.^.,.0.+ $ $ o q s.,.L._.p.j.^.T.L.L._.!.Z.Z.!._.W.W._.Z.C.C.Z.Z.Z.C.C.C.C.C.",
"_._._._.W.W.W.W._._._._._.W.W._._._.P.1.2.2.1.x.z.z.x.S 6.+ $ o & 0 * Z g.C.V.u.2.,.,.<.u.C.C.C.C.j._._.j.C.C.j._._._.!.Z.Z.Z.Z.",
"W.W.W.W.W.W.W.].v.m.m.m.v.).).v.m.z.1.P.R.}./.3.4.x.m.l.m o #   $ 0 # n i.i.S <.y.g.f.y.4.V.C.C.C.C.Z.Z.C.C.Z._.W.W.W._._.`._.`.",
"W.W.W.W.W._.].v.M.M.M.M.n.m.m.M.M.n.z.`.OX+X+X X/.5.G.S x   . $ o & $ v m S i.h.C.C.C.C.g.C.C.Z.Z.Z.C.C.C.C.!._.W.W.W.W.W.W.W.W.",
"W.W._._.).v.v.b.=XoXoX=Xb.M.b.=X=Xb.b.oX+X+X+X@X#Xt.H R n   . $ o & 0 * J I D.{.%XC.Z._._.!.!._._._.j.C.C.Z.]._._._._._._.W.W.W.",
"'.].v.v.v.b.=XoX+X+X+X+XoXoXoX+X+XoXoX+X+X+X{.D.D.F.8.7.B % $ $ $ + % & ; U 8.D.t.h.!.`.W._._.W.W.W._.Z.C.C.Z.Z.Z.Z.Z.Z.!._._._.",
"oX$Xb.=XoXoX+X+X+X+XOXOXOX+X+X+X+X+X+X+X+X/.2.A A L w.H 7.U ; + ; Y Y ; + q A A A 2.(.}.W.W.W.W.W.W._.Z.C.C.C.C.%X%X%X%X%X!.!.!.",
"OXoXoXOXOXOX+X+XOX X&X%X&X XOX+X+XOXOXOX X5.L L L A A w.F.F.T T Y 7.7.Y T T 8.8.8.8.5. XXXW.W.W.W.W._.Z.%X%X%X&X XOXOXOXOXOXOXOX",
"W.W.W.W.W.|.OXOX~.!.Z.Z.C.%X&X X X&X%X%X%Xu.e.P P L L R R R 7.7.7.7.7.7.7.7.7.7.8.H.{.OX|.W.W.W.W.`.!.!. XXXXXXXOXOXOXOXOXOXOXOX",
"W.W.W.W.W.W.[.W.`._._._.!.Z.Z.&X%XC.C.C.C.C.c.e.q.P P P P P P R R 7.7.7.7.7.7.9.9.Y.`.`._.W.W.W.W.W._.`.W.W.W.W.W.W.W.W.W.W.[.[.",
"W.W.W.W.W.W.W.W.W.W.W.W._._._._.!.Z.Z.Z.C.C.C.V.c.e.q.q.q.P P P P P R q.9.9.9.h.h.Z.Z.Z.!._.W.W.W.W.W.W.W.W.W.W.W.W.W.W.W.W.W.[.",
"OXOXOX|.W.W.W.W.W.W.W.W.W.W.W.W._._._.).Z.C.C.Z.Z.h.V.V.c.e.q.q.q.q.e.c.h.h.h.C.C.%X%X%XZ.`.W.W.W.W.W.W.W.W.W.W.W.W.W.W.W.W.|.OX",
"+X+X+XOX|.W.W.W.W.W.W._._._._._.!.Z.Z.Z.C.C.j._._._.j.C.C.V.V.V.V.V.h.Z.Z.Z.Z.Z.&X XOX X~.`.W.W.W.W.W.W.W.W.W.W.W.W.W.W.W.|.OX+X",
"OXOX+X+XOXOXOX|.W.W.`.!.!.!.!.!.Z.Z.Z.Z.Z.!._.W.W.W._.Z.C.C.C.Z.Z.!._._.`.`._.`.XX+X+X+XOX|.W.W.W.W.W.W.W.W.W.W.W.W.XXOXOXOX+X+X",
"W.[.|.OX+X+X+XOX|.W.W._._._._._._._._._._._.W.W.W.W._.!.Z.Z.!._._.`.W.|.OXOX|.|.OX+X+X+X+XOXW.W.W.W.W.W.W.W.W.W.W.W.W.|.OX+X+XOX",
"W.W.W.|.OXOXOXOXXXW.W.W.W.W.W.W.W.W.W.W.W.W.W.W.W.W.W._._._._.W.W.|.OX+X+X+XOXOX+XOXOXOX+XOX|.W.W.W.W.W.W.W.W.W.W.W.W.W.W.|.XX|.",
"W.W.W.W.[.[.[.[.W.W.W.W.W.W.W.W.W.W.W.W.W.W.W.W.W.W.W.W.W.W.W.W.`. XOXOXOXOXOXOX X&X%X&XoX+XOXOXOXOX|.W.W.W.W.`._.`.W.W.W.W.W.W.",
"W.W.W.W.W.W.W.W.W.W.W.W.W.W.W.W.W.W.W.W.W.W.W.W.W.W.W.W.W.W.W._.!.%X%X%X!.!.%X%X%XC.C.C.&X XOXOXOXOXXXXXXXXX X!.Z.!._._._._._.W.",
"_._._._._._._._.W.W.W.W.W.W.W.W.W.W.W.W.W.W.W.W.W.W.W.W._._._.j.C.C.Z.!._._.j.C.C.C.C.C.C.%X%X%X%X%X%X%X%X%X%XC.C.C.Z.Z.Z.Z.!._.",
"Z.Z.Z.Z.!.!.!.!.`.W.W.W.W.W.W.W.W.W.W.W.W.W.W.W.W.W.W.`.!.!.!.Z.Z.!._._.W.W._.!.Z.Z.C.C.C.C.C.C.C.C.C.C.C.C.C.C.C.C.C.C.C.C.C.Z.",
"Z.Z.Z.!._._._._.W.W.W.W.W.W.W.W.W.W.W.W.W.W.W.W.W.W.W.W._._._._._._.W.W.W.W.W._._._.j.C.C.C.Z.Z.Z.Z.C.C.C.C.C.C.C.C.C.C.C.C.Z.Z.",
"_._._._.W.W.W.W.W.W.W.W.W.W.W.W.W.W._._._._._.W.W.W.W._._._._._.W.W.W.W.W.W.W.W.W.W._.Z.C.j._._._._.j.C.Z.Z.Z.C.C.Z.Z.Z.Z.!._.`.",
"W.W.W.W.W.W.W.W.W.W.W.W.W.W.W.W._.).v.m.m.m.v.].W.W.].v.m.m.m.v.].W.W.W.W.[.OXOXOX|.`.Z.Z._.W.W.W.W._.!._._._.!.!._._.`._._.W.W.",
"W.W.W.W.W.W.W.W.W.W.W.W.W.W.W.].v.m.M.M.M.n.n.v.).).v.n.M.M.M.M.v.].W.W.|.OX+X+X+XOX'.&XZ._.W.W.W.W.W.`.W.W.W._._.W.W.W.W.W.W.[.",
"W.W.W.W.W.W.W.W.W.W.W.W.W.W._.v.n.M.=XoX=XM.n.n.m.m.n.M.=XoXoX=XM.v._.W.OX+X+X+X+X+XOX X%X!._.W.W.W.W.W.W.W.W.W.W.W.W.OXOXOXOXOX"
};
