/* XPM */
static char *rcp05591717655844[] = {
/* columns rows colors chars-per-pixel */
"64 64 204 2 ",
"   c #0F2729",
".  c #112D2D",
"X  c #1D2A2B",
"o  c #1D2629",
"O  c #1D332E",
"+  c #12302C",
"@  c #132F31",
"#  c #143234",
"$  c #183C3C",
"%  c #1B3738",
"&  c #212B2B",
"*  c #342D2C",
"=  c #243A31",
"-  c #253A35",
";  c #7E3B16",
":  c #4E3932",
">  c #583533",
",  c #593429",
"<  c #612722",
"1  c #662A21",
"2  c #632C2A",
"3  c #6A302C",
"4  c #683B37",
"5  c #793B32",
"6  c #753C36",
"7  c #15433E",
"8  c #1C4337",
"9  c #2F423E",
"0  c #294735",
"q  c #38433F",
"w  c #30483B",
"e  c #34513F",
"r  c #3A533C",
"t  c #40523D",
"y  c #714034",
"u  c #7D5325",
"i  c #1B4A43",
"p  c #1A5446",
"a  c #1B5B47",
"s  c #2D4541",
"d  c #284842",
"f  c #275246",
"g  c #2C5243",
"h  c #2C5C45",
"j  c #2B5C4C",
"k  c #315D46",
"l  c #345A44",
"z  c #1E6247",
"x  c #1E6A48",
"c  c #226446",
"v  c #226C47",
"b  c #226D49",
"n  c #2B6C4A",
"m  c #376344",
"M  c #3A6344",
"N  c #396846",
"B  c #32624B",
"V  c #3A654A",
"C  c #267547",
"Z  c #227449",
"A  c #257C49",
"S  c #2B7849",
"D  c #38774B",
"F  c #347253",
"G  c #3B7753",
"H  c #455E42",
"J  c #437C4B",
"K  c #497B4B",
"L  c #417552",
"P  c #5D7B56",
"I  c #44664E",
"U  c #667747",
"Y  c #757A4C",
"T  c #637D54",
"R  c #696F4B",
"E  c #813B17",
"W  c #823A18",
"Q  c #802427",
"!  c #872B27",
"~  c #9A3B2C",
"^  c #97352D",
"/  c #843730",
"(  c #873C32",
")  c #913B33",
"_  c #9E3931",
"`  c #854719",
"'  c #954D1D",
"]  c #AD691F",
"[  c #924923",
"{  c #845526",
"}  c #8E5328",
"|  c #934135",
" . c #945729",
".. c #AC4537",
"X. c #A84A30",
"o. c #A54738",
"O. c #A44736",
"+. c #B54B3A",
"@. c #B94E3B",
"#. c #A8523B",
"$. c #BA5838",
"%. c #936A2A",
"&. c #9E6C31",
"*. c #AC6422",
"=. c #AC6C26",
"-. c #268149",
";. c #2B8549",
":. c #2C894A",
">. c #3D824B",
",. c #3C8150",
"<. c #498A4B",
"1. c #46854C",
"2. c #528D4D",
"3. c #498555",
"4. c #558E52",
"5. c #73864A",
"6. c #7B8F4D",
"7. c #758A4B",
"8. c #6D9449",
"9. c #7C9C4B",
"0. c #628156",
"q. c #618358",
"w. c #6B8B57",
"e. c #748350",
"r. c #7C8550",
"t. c #7C8951",
"y. c #65945D",
"u. c #6D9C5E",
"i. c #67965A",
"p. c #7B9A55",
"a. c #77995A",
"s. c #6E844B",
"d. c #7EA34C",
"f. c #7FA94F",
"g. c #6EA15F",
"h. c #7CA550",
"j. c #74A35D",
"k. c #7AA55E",
"l. c #7FAB5E",
"z. c #7DA851",
"x. c #5A8769",
"c. c #6E8F6B",
"v. c #6E976F",
"b. c #669268",
"n. c #739E60",
"m. c #73996C",
"M. c #7A9A6F",
"N. c #789468",
"B. c #679175",
"V. c #6B9472",
"C. c #719671",
"Z. c #658F74",
"A. c #6EA160",
"S. c #76A463",
"D. c #7AA663",
"F. c #7BA962",
"G. c #869C48",
"H. c #858651",
"J. c #888751",
"K. c #8C8F54",
"L. c #908D52",
"P. c #879B5B",
"I. c #909153",
"U. c #8C8E49",
"Y. c #81A14B",
"T. c #83AA4E",
"R. c #8BAB4D",
"E. c #8FA54A",
"W. c #92A447",
"Q. c #91AA4C",
"!. c #8CB04E",
"~. c #99B74D",
"^. c #9CB94E",
"/. c #95B34F",
"(. c #86AD51",
"). c #8BAF54",
"_. c #81AB5E",
"`. c #8AAE5C",
"'. c #89A554",
"]. c #98A557",
"[. c #8FB056",
"{. c #95B651",
"}. c #9AB751",
"|. c #9EB850",
" X c #A0B94F",
".X c #A4AC56",
"XX c #A6AA59",
"oX c #A0B751",
"OX c #A3B950",
"+X c #AEB55B",
"@X c #AFBA55",
"#X c #B2BA56",
"$X c #B4B55D",
"%X c #B6B959",
"&X c #BDBA5A",
"*X c #B8B359",
"=X c #829E6B",
"-X c #82AA62",
";X c #88AC61",
":X c #84A261",
">X c #99AB62",
",X c #ACB160",
"<X c #B3AC87",
"1X c #B3B18C",
/* pixels */
"^.^.^.^.[.V.B.B.B.V.).).V.B.B.B.C.$X&X&X&X&X$XM.C.B.M.$X&X&X&X&X&X$X=X}.&X&X&X&X&X&X&X&X%X^.^.^.^.^.^.^.^.OX%X&X&X&X&X&X&X&X&X%X",
"{.{.^.{.m.B.C.C.B.B.V.V.B.C.C.B.C.,X&X&X&X&X&X$X,X=X,X&X&X&X&X&X&X&X$X%X&X&X&X&X&X&X&X&X%XOX^.^.^.^.^.%X%X%X&X&X&X&X&X&X&X&X%XOX",
"V.m.`.m.B.M.,X,XM.B.B.B.M.,X,XM.C.M.$X&X&X&X&X&X&X$X&X&X&X&X&X&X&X&X&X&X&X&X&X&X&X&X&X&X&X&X%X X^.^. X%X%X%X%X%X%X%X%X%X%XOX^.{.",
"B.C.m.B.C.,X&X&X,XM.C.M.,X&X&X$X,X=X$X&X&X&X&X&X&X&X&X&X&X&X&X%X%X%X&X&X&X&X&X%X%X&X&X&X&X&X&XOX X^.^. X X X X X X X X X X^.{.m.",
"M.,X,XM.M.$X&X&X&X$X$X$X&X&X&X&X&X$X&X&X&X%X%X%X%X&X&X&X&X%XOX X^.OX%X&X&X&X$X;X;X$X&X&X&X&X&X&X%X%XOX^.^.^.^.^.^.^.^. X|.{.).V.",
"$X&X&X$X$X%X%X%X&X&X&X&X&X%X%X%X%X&X&X&X$X;X-X-X;X$X%X%X%XOX^.^.^.^.OX%X%X+X;XF.F.;X%X&X&X&X&X&X%X%X#X^.^.^.^.^.^.^.OX%X$X=XM.C.",
"&X&X&X&X%XOX^.OX%X&X&X&X%XOX^.|.|.$X%X$X;XF.F.F.F.;X|.OX#X X^.^.^.{.{.{.-X-XF.F.F.-X$X%X%X%X%X%XOX^.^.^.^.^.^.^.OX%X%X&X&X$X$X$X",
"&X&X&X%XOX^.^.^.OX&X&X%XOX^.{._.F.-X-X-XF.F.F.F.F._.{.^.^.^.^.^.{._.F.F.F.F.F.F.F.F.{. X^. X X X^.^.^.^.^.^.OX%X%X%X%X%X&X&X&X&X",
"%X%XOX^.^.^.^.^.^.%X%X%X^.{._.F.F.F.F.F.F.F.F.F.F.{.{.{.{.^.^.{.l.F.F.F.F.F.F.F.F.F.l.{.^.^.^.^.^.^.^.^.^.OX%X&X%XOX^.OX%X&X&X&X",
"^.^.^.^.^.^.^.^.^.^.OX#X|.{.F.F.F.F.F.F.F.F.F.F.F.F.F.F._.{.{.l.F.F.F.F.l.{.{._.F.F.F.l.{.{.^.^.^.^.^.^.#X%X%X%XOX^.^.^.OX%X%X%X",
"^.^.^.^.^.^.{.{.{.{.{.{._.F.F.F.F.F.F.F.F.F.F.F.F.F.F.F.F.F.F.F.F.F.F.F.{.^.^.{.{._.F.F._._.}.^.^.^.^.^.^.^.^.^.^.^.^.^.^.^.^.^.",
"^.^.^.^.^.}._._._.F.F.F.F.F.F.l.{.{.{.l.F.F.F.F.F.F.F.F.F.F.F.F.F.F.F.F.{.^.^.^.^.{.{.{.{.{.^.^.^.^.^.^.^.^.{.{.{.^.^.^.^.^.^.^.",
"^.^.^.^.^.^.{.{.{._.F.F.F.F.F.{.^.^.^.{.F.l.{.{.{._.F.F.F.F.F.l.{.{.l.F.{.^.^.^.^.^.^.^.^.^.^.^.^.^.^.^.^.{._.F._.{.^.^.^.^.^.^.",
"^.^.^.^.^.^.^.^.^.}.{.{._.F._.{.^.^.^.{._.{.^.^.^.{.{._.F.F.a.T.R.~.{._._.}.^.^.^.^.^.^.^.^.{.{.{.^.^.^.{.l.F.F.F._.{.^.^.^.^.^.",
"^.^.^.^.^.OX%X%XOX^.^.^.}.}.|.^.^.^.^.^.}.^.^.^.^.^.^.{.{.9.m h m Y.~.{.{.^.^.^.^.^.^.^.^.{._.F._.{.{.{.l.F.F.F.F.F.{.^.^.^.^.^.",
"^.^.^.^.OX%X&X&X%XOX^.^.OX%X%X%X%XOX^.^.^.^.^.^.^.^.^.{.9.m C A C m Y.~.^.^.^.^.^.^.^.^.{.l.F.F.F.F.F.F.F.F.F.F.F.F.{.{.{.^.^.^.",
"{.{.OX%X&X&X&X&X&X&X%X%X%X&X&X&X%X#X+X}.^.^.{.{.{.{.{.j.k b Z A Z v m R.{.{.{.^.^.^.^.{.l.F.F.F.F.F.F.F.F.F.F.F.F.F.F.F._.{.{.{.",
"_.`.#X%X&X&X&X&X&X&X&X&X&X&X&X$X;X-X-X_.{.{._.F.F.F.k.w.f b Z x Z b g w.k.F._.{.{.{.{.l.F.F.F.F.F.F.F.F.F.F.F.F.F.F.F.F.F.F.F.F.",
"}.}.^. XOX%X&X&X&X&X&X&X%X%X+X;XF.F.F.F.F.F.F.D.u.u.w.: 9 a x a x a 9 : w.u.u.F.D.D.D.S.D.F.F.F.F.F.F.F.F.F.F.F.F.F.F.F.F.F.F.F.",
"^.^.^. X XOX&X&X&X&X&X%XoX`._._.{.{.{._.F.F.F.y.B f f 9 4 d a p a d 4 9 f f B y.V.V.V.V.S.F.F.F.F.F.F.F.F.S.S.S.S.D.F.F.l.{.{.{.",
"^.OX%X%X%X%X&X&X&X&X&XOX^.{.{.{.^.^.{.{.{.{.p.B ;.C v c d i a p a i d c v C ;.B x.Z.B.B.v.`.{.{.{.{.{.{.`.v.V.V.V.S.S.F.{.^.^.^.",
"%X%X&X&X&X&X&X&X&X&X%X X^.^.^.^.^.}._._.F.u.B ;.-.z p p a a i p i a a p p z -.;.j x.B.B.B.V.V.V.V.m.[.[.m.C.C.C.B.V.V.D.{.^.^.^.",
"%X%X%X%X%X&X&X&X&X&XOX^.^.^.^.^.^.^.{.{.l.i.h A Z Z b z p p p d p p p z b Z Z A j x.B.B.B.B.C.C.C.C.V.V.M.,X$X,XM.B.B.v.{.|.OX%X",
" X^.^.^.OX%X&X&X&X&XOX^.^.^.^.^.^.^.^.^.R.m ;.A A b z g s s q 6 q s s g z b A A ;.V c.B.B.M.,X$X$X,XM.M.,X&X&X&X,XM.C.C.=X$X%X%X",
"^.^.^.^.^.OX%X%X&X&X%XOX%X%XOX^.^.^.^.~.d.B -.A v g t &.#.o.) ) ) o.#.&.t g v A -.k P.C.M.,X&X&X&X&X$X$X&X&X&X&X&X$X$X$X$X%XOX X",
" X X^.^.^.^.^.OX%X&X&X%X%X%X#XOX^.^.^.R.m :.-.v r %.=.$.@.+./ * / +.@.$.=.%.r v -.:.V N.,X&X&X&X&X&X&X&X&X&X&X&X&X&X&X&X&X%X X X",
"%X%XOX^.^.^.^.^.OX%X%X%XOX XOX#X^.^.^.R.h :.v w { =.X.@.@.o.* % * o.@.@.X.=.{ w v :.l XX&X&X&X&X&X&X&X&X&X&X&X&X&X&X&X&X&X&XOX%X",
"&X&X%X X^.^.^.^.^. X X X^.^.^.^.^.^.~.d.h C g , ' *.O.+.@.) & $ & ) @.+.O.*.' , g C k ].&X&X&X%X%X&X&X&X&X&X&X&X&X&X&X&X&X&X&X&X",
"&X&X%X X^.OX%X%XOX^.^.^.^.^.^.^.^.^.R.m S N G.U.E ! _ +.+.( X 7 X ( +.+._ ! W U.G.N S I XX%X%XOXOX%X%X&X%XOXOX%X&X&X&X&X&X&X&X&X",
"&X&X&XOXOX%X&X&X%X%XOX^.^.^.^.^.^.^.Q.l m Y.~.W.1 Q _ +.| e . 7 . e | +._ Q 1 W.~.Y.m H .XOX^.^.^.^.OX#XOX^.^.OX&X&X&X&X&X&X&X&X",
"&X&X&X&X%X&X&X&X&X%X%X%X%X%X%X%X%X%X#XQ.R.~.^.W.< Q _ ..5 e . 7 . e 5 .._ Q < W.^.~.Q..XoX^.^.^.^.^.^.^.^.^.^.^.%X&X&X&X&X%X%X%X",
"%X%X%X%X%X%X%X%X%XOX^.^.|.}.|.|.}.}.^.^.^.^.^.W.1 Q _ | H y X 7 X y H | _ Q < W.^.^.^.#X^.^.^.^.^.^.^.^.^.^.^.^.%X%X%X%X%XOX^.^.",
" X^. X X^.^.^.^.^.^.{.{._.F.F.F.F._.{.^.{.{.{.W.; ^ ..( M 5 & 7 & 5 M ( ..^ 1 W.^.^.^.^.^.^.^.^.^.^.^.^.^.^.^.^.^.^.^.^.^.^.^.^.",
"^.^.^.^.^.^.^.^.{.{._.F.F.F.F.F.F.F.l.{._.F.F.p.E ~ ~ 4 m 3 X 7 X 3 m 4 ~ ~ E W.^.^.^.^.{.{.{.^.^.^.^.^.^.^.^.^.^.^.^.^.^.^.^.^.",
"^.^.^.^.^.^.^.{._.F.F.F.F.F.F.F.F.F.F.F.F.F.F.a.` *.[ <XL 2 o $ o 2 L <X[ *.` W.{.^.^.{._.F._.{.^.^.^.^.^.^.^.^.^.^.^.^.^.^.^.^.",
"^.^.^.^.^.{.{.l.F.F.F.F.F.F.F.F.F.F.F.F.F.F.F.a.` ]  .].K > X $ X > K ]. .=.` p._.{.{._.F.F.F.l.{.^.^.^.^.^.^.{.{.{.^.^.^.^.^.^.",
"^.^.^.{.{._.F.F.F.F.l.{.{.{.{.{.l.F.F.F.F.F.F.p.; } 1X3.>X1X- $ - 1X>X4.<X} 6.D.F.F.F._.{.{.l.F.l.{.^.^.^.^.{._.F._.{.^.^.^.{.{.",
"{.^.}._._.F.F.F.F._.{.^.^.^.^.^.{.F.F.l.(.(.(.p.u 6.D.,.k.a.= $ = :Xk.,.P.{ E.(.j.j.j.{.^.^.{._.F._.}.^.^.{.l.F.F.F.l.{.{.{._.F.",
"_.{.{.{.{.{.{.{.{.{.^.^.^.^.^.^.{._._.(.<.1.<.T.Q./.R.<.8.0 # $ O 9.T.>.R.Q.d.J >.>.<.T.~.{.{.{.{.{.^.^.{._.F.F.F.F.F.F.F.F.F.F.",
"F._._._.}.^.^.^.^.^.^.^.^.^.^.^.^.{.{.~.!.!.T.2.h.{.{.h.D + # # . 0 8.>.d.h.1.u.(.!.f.2.(._.F.F._.{.^.^.{.F.F.F.F.F.F.F.F.F.F.F.",
"{.{.{.{.^.^.^.^.{.{.{.{.{.^.^.{.{.{.^.^.^.^.}.b.L x.b.b.n . # . 7 i 8 v F G u.D.l.{.l.j.F.F.F.F.F.l.{.{.l.F.F.l.{.{.{._.F.F.F.F.",
"^.^.^.^.^.^.^.{.m.V.V.V.m.[.[.m.V.m.{.^.OX%X%X$X].G F x.v . @ . $ i a C y.A.D.F.F.F.F.F.F.F.F.D.F.F.F.F.F.F.F.{.^.^.^.{.{.}.{.}.",
"^.^.^.^.^.{.{.m.C.C.C.C.B.V.V.C.C.B.m.}.%X+X+X+XXX].P.F c .   # . $ p n x.u.D.F.S.A.g.j.F.F.F.F.F.F.F.F.F.F._.{.^.^.^.^.^.^.^.^.",
"^.^.{.{.[.m.m.M.,X$X$X,XM.C.M.,X,XM.M.+X.X2.1.J 1.t.t.D I .   # . # $ p n 0 e.'.,.D >.<.z.l._.{.{.{.l.F.F.F.{.{.{.{.{.{.{.^.^.^.",
"|.{.m.m.m.M.,X$X&X&X&X&X$X$X$X&X&X$X$X+Xi.]..Xt.e.J J e.Y = # # # O O = U D D K e.a.k.f.2.!.{.^.^.^.{.F.F.F.F.F.F.F.F.F._.{.{.{.",
"$X=XM.,X$X$X&X&X&X&X%X%X%X&X&X&X&X&X&X&X$X*XK.T T P e.J.H.R = O = U U Y H.r.r.r.J.I.+XoX/.^.^.^.^.^.{.F.F.F.F.F.-X-X-X-X-X_._._.",
"%X$X$X%X%X%X&X&X%X+X;X-X;X+X%X&X&X%X$X$X%X+Xw.P P P T H.H.H.Y Y U 5.5.5.H.H.H.H.H.L.*X%X#X^.^.^.^.^.{.F.-X-X-X;X+X%X%X%X%X%X%X%X",
"^.^.^.^.^.OX%X%X`._.F.F.F.-X;X+X+X;X-X-X-XD.q.P P P P T T T 5.5.5.5.5.5.5.5.5.5.7.I.$X%XOX^.^.^.^.}._.-X+X#X#X#X%X%X%X%X%X%X%X%X",
"^.^.^.^.^.^. X^.}.{.{.{._.F.F.;X-XF.F.F.F.D.n.q.0.P P P P P P T T s.5.5.5.5.5.7.6.Q.}.}.{.^.^.^.^.^.{.}.^.^.^.^.^.^.^.^.^.^. X X",
"^.^.^.^.^.^.^.^.^.^.^.^.{.{.{.{._.F.F.F.F.F.D.S.n.q.0.0.0.P P P P P T 0.7.7.7.k.k.F.F.F._.{.^.^.^.^.^.^.^.^.^.^.^.^.^.^.^.^.^. X",
"%X%X%XOX^.^.^.^.^.^.^.^.^.^.^.^.{.{.{.[.F.F.F.F.F.k.S.S.n.q.0.0.0.0.q.n.k.k.k.D.F.-X-X-XF.{.^.^.^.^.^.^.^.^.^.^.^.^.^.^.^.^.OX%X",
"&X&X&X%XOX^.^.^.^.^.^.{.{.{.{.{._.F.F.F.F.F.l.{.{.{.l.F.D.S.S.S.S.S.k.F.F.F.F.F.;X+X%X+X`.}.^.^.^.^.^.^.^.^.^.^.^.^.^.^.^.OX%X&X",
"%X%X%X&X%X%X%XOX^.^.}._._._._._.F.F.F.F.F._.{.^.^.^.{.F.F.F.F.F.F._.{.{.}.}.{.}.#X&X&X&X%XOX^.^.^.^.^.^.^.^.^.^.^.^.#X%X%X%X&X&X",
"^. XOX%X&X&X&X%XOX^.^.{.{.{.{.{.{.{.{.{.{.{.^.^.^.^.{._.F.F._.{.{.}.^.OX%X%XOXOX%X&X&X&X&X%X^.^.^.^.^.^.^.^.^.^.^.^.^.OX%X%X&X%X",
"^.^.^.OX%X%X%X%X#X^.^.^.^.^.^.^.^.^.^.^.^.^.^.^.^.^.^.{.{.{.{.^.^.OX%X%X&X&X%X%X&X%X%X%X&X%XOX^.^.^.^.^.^.^.^.^.^.^.^.^.^.OX#XOX",
"^.^.^.^. X X X X^.^.^.^.^.^.^.^.^.^.^.^.^.^.^.^.^.^.^.^.^.^.^.^.}.+X%X%X%X%X%X%X+X;X-X;X$X&X%X%X%X%XOX^.^.^.^.}.{.}.^.^.^.^.^.^.",
"^.^.^.^.^.^.^.^.^.^.^.^.^.^.^.^.^.^.^.^.^.^.^.^.^.^.^.^.^.^.^.{._.-X-X-X_._.-X-X-XF.F.F.;X+X%X%X%X%X#X#X#X#X+X_.F.l.{.{.{.{.{.^.",
"{.{.{.{.{.{.{.{.^.^.^.^.^.^.^.^.^.^.^.^.^.^.^.^.^.^.^.^.{.{.{.l.F.F.F._.{.{.l.F.F.F.F.F.F.-X-X-X-X-X-X-X-X-X-XF.F.F.F.F.F.F._.{.",
"F.F.F.F._._._._.}.^.^.^.^.^.^.^.^.^.^.^.^.^.^.^.^.^.^.}._._._.F.F._.{.{.^.^.{._.F.F.F.F.F.F.F.F.F.F.F.F.F.F.F.F.F.F.F.F.F.F.F.F.",
"F.F.F._.{.{.{.{.^.^.^.^.^.^.^.^.^.^.^.^.^.^.^.^.^.^.^.^.{.{.{.{.{.{.^.^.^.^.^.{.{.{.l.F.F.F.F.F.F.F.F.F.F.F.F.F.F.F.F.D.F.F.F.F.",
"{.{.{.{.^.^.^.^.^.^.^.^.^.^.^.^.^.^.{.{.{.{.{.^.^.^.^.{.{.{.{.{.^.^.^.^.^.^.^.^.^.^.{.F.F.l.{.{.{.{.l.F.F.F.F.F.F.F.F.F.F._.{.}.",
"^.^.^.^.^.^.^.^.^.^.^.^.^.^.^.^.{.[.m.V.V.V.m.{.^.^.{.m.V.V.V.m.{.^.^.^.^.OX%X%X%XOX{.F.F.{.^.^.^.^.{._.{.{.{._._.{.{.{.{.{.^.^.",
"^.^.^.^.^.^.^.^.^.^.^.^.^.^.^.{.m.V.C.C.C.B.B.m.[.[.m.B.C.C.C.C.m.{.^.^.OX%X&X&X&X%X|.;XF.{.^.^.^.^.^.}.^.^.^.{.{.^.^.^.^.^.^. X",
"^.^.^.^.^.^.^.^.^.^.^.^.^.^.{.m.B.C.,X$X,XC.B.B.V.V.B.C.,X$X$X,XC.m.{.^.%X&X&X&X&X&X%X+X-X_.{.^.^.^.^.^.^.^.^.^.^.^.^.%X%X%X%X%X"
};
