/* XPM */
static char *rcp07121208110699[] = {
/* columns rows colors chars-per-pixel */
"64 64 224 2 ",
"   c #161C2E",
".  c #191E2E",
"X  c #171F30",
"o  c #1D2433",
"O  c #1D2939",
"+  c #1C222F",
"@  c #232431",
"#  c #232D3A",
"$  c #272933",
"%  c #26323E",
"&  c #2C373D",
"*  c #36373A",
"=  c #302C34",
"-  c #4A3D3B",
";  c #3A483C",
":  c #4A463C",
">  c #52433D",
",  c #58463D",
"<  c #46543C",
"1  c #53563F",
"2  c #55653D",
"3  c #5F723F",
"4  c #75753F",
"5  c #2E3B44",
"6  c #273441",
"7  c #333D45",
"8  c #2F424B",
"9  c #334245",
"0  c #33434B",
"q  c #3A4C4D",
"w  c #394848",
"e  c #364A52",
"r  c #3B4D53",
"t  c #3E5559",
"y  c #3E5549",
"u  c #3E5961",
"i  c #444A47",
"p  c #594644",
"a  c #465847",
"s  c #595545",
"d  c #445A5C",
"f  c #475958",
"g  c #585951",
"h  c #6A5746",
"j  c #755945",
"k  c #765B49",
"l  c #6B584B",
"z  c #4E6749",
"x  c #556848",
"c  c #5D794C",
"v  c #4B6458",
"b  c #566858",
"n  c #5B7D52",
"m  c #577456",
"M  c #666645",
"N  c #687845",
"B  c #77774A",
"V  c #617E51",
"C  c #617559",
"Z  c #777658",
"A  c #716752",
"S  c #445C61",
"D  c #485F63",
"F  c #4B6364",
"G  c #4C6A6C",
"H  c #486467",
"J  c #526D6B",
"K  c #576C67",
"L  c #587968",
"P  c #4E7377",
"I  c #537374",
"U  c #567976",
"Y  c #557A7B",
"T  c #5A7D7C",
"R  c #54777A",
"E  c #4A6D74",
"W  c #65786C",
"Q  c #71776A",
"!  c #89674C",
"~  c #946D4D",
"^  c #96744C",
"/  c #987452",
"(  c #8C7353",
")  c #A67A53",
"_  c #A87A53",
"`  c #B07F54",
"'  c #837A63",
"]  c #5E8153",
"[  c #6D8545",
"{  c #6C8449",
"}  c #728744",
"|  c #738944",
" . c #778A49",
".. c #7B9447",
"X. c #618353",
"o. c #688B57",
"O. c #7D8657",
"+. c #6B935A",
"@. c #6E965A",
"#. c #729C5C",
"$. c #789957",
"%. c #7FAB5E",
"&. c #78A25E",
"*. c #6D956C",
"=. c #73996C",
"-. c #7A9A6F",
";. c #73906A",
":. c #64847C",
">. c #679175",
",. c #6B9472",
"<. c #719572",
"1. c #73917F",
"2. c #75846B",
"3. c #76A462",
"4. c #79A762",
"5. c #7BA962",
"6. c #5C817B",
"7. c #83864E",
"8. c #85894B",
"9. c #8B8A4D",
"0. c #978B4A",
"q. c #839C48",
"w. c #88845D",
"e. c #989951",
"r. c #8E9054",
"t. c #AE8156",
"y. c #AA885A",
"u. c #B58759",
"i. c #A9964F",
"p. c #8CA64B",
"a. c #88A54B",
"s. c #92AD4C",
"d. c #95B34E",
"f. c #99B64E",
"g. c #9CB94E",
"h. c #8EAE55",
"j. c #82AB5E",
"k. c #8AAE5C",
"l. c #9EA256",
"z. c #8FB156",
"x. c #95B651",
"c. c #9AB751",
"v. c #9EB850",
"b. c #AAAB57",
"n. c #B5AC57",
"m. c #A3B950",
"M. c #AEB65C",
"N. c #A0B751",
"B. c #B4B55D",
"V. c #B6B959",
"C. c #BDBA5A",
"Z. c #B5B858",
"A. c #A0B54E",
"S. c #829E6B",
"D. c #85967D",
"F. c #99987A",
"G. c #8B8866",
"H. c #BB9361",
"J. c #A49B61",
"K. c #82AA62",
"L. c #88AC61",
"P. c #84A660",
"I. c #ACB160",
"U. c #AFAD71",
"Y. c #C3B05A",
"T. c #C59C63",
"R. c #C8B97B",
"E. c #BAC246",
"W. c #CDC953",
"Q. c #D2CD70",
"!. c #E0E26F",
"~. c #527C81",
"^. c #5B8383",
"/. c #5E8B8C",
"(. c #5A8386",
"). c #5F9090",
"_. c #5F908F",
"`. c #628C8C",
"'. c #638788",
"]. c #66928F",
"[. c #789588",
"{. c #648D92",
"}. c #629494",
"|. c #6A9292",
" X c #659995",
".X c #659C9B",
"XX c #6B9D9C",
"oX c #6B9897",
"OX c #739996",
"+X c #758E89",
"@X c #6BA19E",
"#X c #7AA392",
"$X c #699FA1",
"%X c #719FA1",
"&X c #6DA3A3",
"*X c #73A4A4",
"=X c #7EACA3",
"-X c #75ABAB",
";X c #7AACAD",
":X c #77A6A6",
">X c #7CAEB1",
",X c #7CB2B3",
"<X c #7EB1AB",
"1X c #849A87",
"2X c #8D9E90",
"3X c #8EAE95",
"4X c #85ADA3",
"5X c #87B4AB",
"6X c #96BAA9",
"7X c #81B5B5",
"8X c #85BBBC",
"9X c #8ABDBB",
"0X c #86BAB7",
"qX c #94BDB4",
"wX c #A9B49D",
"eX c #92C2BC",
"rX c #9DC6B8",
"tX c #A9C9B2",
"yX c #D7D186",
"uX c #EFEF96",
"iX c #89BFC0",
"pX c #8BC2C2",
"aX c #97C7C1",
"sX c #A2CCC0",
/* pixels */
"g.g.g.g.z.,.>.>.>.,.h.h.,.>.>.>.<.B.C.C.C.C.B.-.<.>.-.B.C.C.C.C.Y.B.S.v.C.Y.C.C.C.C.C.Y.V.g.g.g.g.g.g.g.g.m.V.Y.C.C.Y.Y.Y.Y.C.C.",
"x.x.g.x.=.>.<.<.>.>.,.,.>.<.<.>.<.I.C.C.C.C.C.B.I.S.I.C.C.C.C.C.C.C.B.V.C.Y.C.C.C.C.Y.Y.V.m.g.g.g.g.g.V.V.V.C.C.C.C.Y.Y.C.C.V.m.",
",.=.k.=.>.-.I.I.-.>.>.>.-.I.I.-.<.-.B.C.C.C.C.C.C.B.C.C.Y.Y.C.C.C.C.C.C.Y.C.C.C.C.C.C.C.C.V.V.v.g.g.v.V.V.V.V.V.V.V.V.V.V.m.g.x.",
">.<.=.>.<.I.C.C.I.-.<.-.I.C.C.B.I.S.B.C.C.C.C.C.Y.Y.Y.C.Y.C.C.V.V.V.C.C.C.C.C.V.V.C.Y.C.Y.Y.C.m.g.v.g.v.v.v.v.v.v.v.v.v.v.g.x.=.",
"-.I.I.-.-.B.C.C.C.B.B.B.C.C.C.C.C.B.C.C.C.V.V.V.V.C.C.C.C.V.m.g.g.m.V.C.C.C.B.L.L.B.C.C.C.C.C.C.V.V.m.g.g.g.g.g.g.g.g.v.v.x.h.,.",
"B.C.C.B.B.V.V.V.C.Y.C.C.C.V.V.V.C.C.C.C.B.L.K.K.L.B.V.V.V.m.g.g.g.g.m.V.V.M.L.4.4.L.V.C.C.C.Y.C.V.V.Z.g.g.g.g.g.g.g.m.V.B.S.-.<.",
"C.C.Y.C.V.m.g.m.V.C.Y.C.V.m.g.v.v.B.V.M.L.4.4.4.4.L.v.m.Z.g.g.g.g.x.x.x.K.K.4.4.4.K.Z.V.V.V.V.V.m.g.g.g.g.g.g.v.m.V.V.C.C.B.B.B.",
"C.C.C.V.m.g.g.g.m.C.Y.V.m.g.x.j.5.K.K.K.4.4.4.4.4.j.x.g.g.g.g.g.x.j.5.5.4.4.4.4.4.5.x.g.g.g.m.v.g.g.g.g.g.g.m.V.V.V.V.V.C.Y.C.C.",
"V.V.m.g.g.g.g.g.g.V.V.V.v.x.j.4.4.4.4.4.4.4.4.4.5.x.x.x.x.g.g.x.%.4.4.4.4.5.5.4.4.4.%.x.g.g.g.g.g.g.g.g.g.m.V.C.V.m.g.m.V.C.C.C.",
"g.g.g.g.g.g.g.g.g.g.m.Z.v.x.5.4.4.4.4.4.4.4.4.4.4.5.5.5.j.x.x.%.4.4.4.4.%.x.x.j.5.4.4.%.x.x.g.g.g.g.g.g.Z.V.V.V.m.g.g.g.m.V.V.V.",
"g.g.g.g.g.g.x.x.x.x.x.x.j.5.4.4.5.5.5.4.4.4.4.4.4.4.4.4.4.5.5.4.4.4.4.5.x.g.g.x.x.j.5.5.j.j.c.g.g.g.g.g.g.g.g.g.g.g.g.g.g.g.g.g.",
"g.g.g.g.g.c.j.j.j.5.5.5.4.4.4.%.x.x.x.%.4.4.5.5.5.4.4.4.4.4.3.3.&.&.4.5.x.f.g.g.g.x.x.x.x.x.g.g.g.g.g.g.g.g.x.x.x.g.g.g.g.g.g.g.",
"g.g.g.g.g.g.x.x.x.j.5.5.4.4.5.x.g.g.g.x.5.%.x.x.x.#.+.o.m y a b x x a c ..a.p.f.f.g.g.g.g.g.g.g.g.g.g.g.g.x.j.5.j.x.g.g.g.g.g.g.",
"g.g.g.g.g.g.g.g.g.c.x.x.j.5.j.x.g.g.g.x.j.x.d.} x f y U P G I }././.P t v B O.x } d.g.g.g.g.x.x.x.g.g.g.x.%.4.4.4.j.x.g.g.g.g.g.",
"g.g.g.g.g.m.V.V.m.g.g.g.c.c.v.g.g.g.g.f.f.q.a H :XY XX,X-X.X`. X.X.X.X/. X2.3XoXF a q.f.f.x.j.5.j.x.x.x.%.4.4.4.4.5.x.g.g.g.g.g.",
"g.g.g.g.m.V.C.C.V.m.g.g.m.V.V.V.V.N.s.} N ; G -XpXXX+X*X-X*X}.XX-X,X,X&X-X`. XpX-XG ; N [ &.4.4.4.5.5.5.4.4.4.4.4.5.x.x.x.g.g.g.",
"x.c.m.V.V.C.C.C.C.C.V.V.V.C.C.C.B.e.x e 8 5 U &XeX3XR.3X,X-X}.|.7XpXiX8X(.G -XeX&XU 5 0 e a +.3.4.4.4.4.4.4.4.4.4.4.5.5.j.x.x.x.",
"j.k.Z.V.V.C.C.C.C.Y.C.C.C.C.C.M.X.q 8  Xd 0 F /.4X3XJ.K  X.X.X}. X-X|.:XH ^.-X=X/.F 0 S  X8 q n 4.4.4.4.4.4.4.4.4.4.4.4.4.5.5.5.",
"c.c.g.v.m.V.C.C.C.C.C.C.V.V.M.$.d ).G 1Xw.F I `..X^.F U -X&X&X-X X}.XX8X|.w.J.OX}.H S G }.G ).t +.4.4.4.4.4.4.4.4.4.4.4.4.5.5.5.",
"g.g.v.v.v.m.V.C.C.C.C.V.N.k.$.w e }.d U.U.K ,X8X:Xd r F *X8X8X=XK G -X&XF n.uXwX8XiXT (./.D }.e w +.5.5.5.4.4.4.4.4.4.4.%.x.x.x.",
"g.m.V.V.V.C.C.Y.C.Y.C.m.f.p.< d d d i a * F oXrX9X$X6 G  X&X-X5X4XU .X.XI ( W.2X8X%XG 0 r w d d d a p.x.h.*.,.,.,.3.4.5.x.g.g.g.",
"V.V.C.C.Y.C.Y.Y.Y.C.V.g...< 5 F r F F.B 0 T .X*XXXE u J )..X X X}.S }. XP e f `.&X.XT r & r D r F 5 < $.=.<.<.<.>.,.,.4.x.g.g.g.",
"V.V.V.V.V.C.C.C.C.V.m.s.a d r 6 XX=XQ.Z g Q ^.P  XiXiX*X'.^./. X^.e ^.-X;X9XqX|.P R S F R ,XpX{.% q d q ;.I.B.I.-.>.>.*.x.v.m.V.",
"v.g.g.g.m.V.C.C.C.V.m.N d F 5 d :X8X#XO.yXQ.l t T -XeXaXsX4Xe F d # S `.qX6X=X`.t 0 H &X8XpXpX:Xd % F d Z C.C.C.I.-.<.<.S.B.V.V.",
"g.g.g.g.g.m.V.V.C.C.e.i d 7 e J  X-X6XW.!.Q.s F I }.@X=X6X[.r '.`.*X;X|.U  X.X/.F w.J.2X,X,X&X XJ q 7 b a e.C.C.C.B.B.B.B.V.m.v.",
"v.v.g.g.g.g.g.m.V.Z.1 5 & o 0 F ^.XX.X[.4 B 7 F ^.}..X.X.XP 0 |.,X9XqX`.H  X2.D.a W.uXQ. X@X.X/.F 0 : U.9 1 Z.C.C.C.Y.Y.C.V.v.g.",
"V.V.m.g.g.g.g.g.N.B 7 F q r I *X`.H /. Xd d % t /..X.X.X}.W f (..X.XXXE S ~.B U.: i.Q.E.U /.H {.*XI r a F 7 B Z.C.C.C.C.C.V.m.V.",
"Y.C.V.v.g.g.g.g.p.a f w.A d |.pXpX;X>X7X|.r 6 {.oX`. X XU i.U.T ^.-X>X|.;X8X|.4X`.w Z [.7X>X;XpXpX|.d t G f i e.C.C.C.C.C.C.V.C.",
"Y.Y.V.g.g.m.V.Z. .v Z !.i.U ;XiXpXpXpXpX;XF 0 '.8X0X0X;XOX1XD.F 0 '.;X5X5X&X$X&X'.0 F ;XpXpXpXeXeX;XR 7 d q v O.n.C.Y.C.C.C.C.C.",
"Y.Y.C.m.m.V.C.n.N d a 0.h ~..X&X-XrXtX4XI F 7 G `.5XtXtXtX<X$XU 0 U }. X X X X(.J 5 F J 4XtXtX6X*X.X).# o 9 f N b.C.C.C.C.C.C.C.",
"Y.Y.C.V.V.C.Z.e.s w 5 d G Y  X.X.XXXXX`.J d # d ^.}.XXXXXX X(.b g d ^. X X X}.(.F 5 d J `.XX XW U.OX~.G t 5 w < 9.b.C.Y.C.V.V.V.",
"V.V.V.V.V.V.b.B * 9 % G `.%X,X*X&X.X.X XS # , ( ' 2.Q F.F.Z A T.T.A A ' ' Q g Z ( h # S  X+X2.s yX1X*X`.K M g * B e.V.V.V.m.g.g.",
"v.g.g.g.g.g.d.2 & 5 r G J +X5X8X8X-X}.^.F 0 : y.y.h h u.H.h k H.y.h l H.) h h u.y.p 0 F K n.yXw.[.%X`.J f U.Z % 2 p.g.g.g.g.g.g.",
"g.g.g.g.g.f.q.2 5 I :X'.F.Y.i.T XXXXG D G d : ) ` j j t.t.j j ` _ j j t.` j h t.) : d J i Y.uX!.:.J F J T 4XF 5 1 ..s.g.g.g.g.g.",
"g.g.g.g.g.p.[ ; G &XpX=X!.uXW.: F.2.u S F % = ! ! > > ~ ! > , ! ~ > , ^ j > > ~ ~ = % S d Z J.r.5 F |.;XpXpX&XG * [ q.g.g.g.g.g.",
"g.g.g.g.g.a.N 9 ^..X-XT A.W.^ ; I.B {.eXOXF # $ @ $ + .       . .     .   . $ @ $ # F OXrXeXiX>X0 ^.0XrXqX,XXX^.9 N ..f.g.g.g.g.",
"g.g.g.x.x.o.z 0 }..X.X X X1.f r 6.`.5X4X`.J 7 l p k p                     p p p l 7 J `.=X6X:X].r G  X@XXX.X.X}.9 z | s.g.g.x.x.",
"x.g.c.j.@.] a % /.*X.X X X|.G.w /..X X.X XU 0 h ~ ) k o                 . k ! / j 0 U  X.X XoXD.g 7 P .X.X.X*X/.% a n  .d.x.j.5.",
"j.x.x.x.a.[ ; d }.7X7X;X,X6XyX: E .X.X X}.I 0 h ) ) ~ @                 @ / t.) h i G.OX X.XW Y.yXOX;X7X;X7X7X}.d ; n o.4.4.4.4.",
"5.j.j.j...3 % I  X$X9XqX9XeX[.r `.*X-X*XT t O - _ / ) @                 @ y.y.u.- : yXD.*X-XD 0.l.oXeX9XqX9X&X.XI % z ] 3.4.4.4.",
"x.x.x.d...2 5 G }. XXX}.oX*X/.XXpXpXpXpX8X;X~.* ) y.t.=                 = u./ t.* H 1X9XpXpX,X:XXX/.*XoX].XX X}.G 5 2 X.#.5.5.5.",
"g.g.g.f.q.[ a ; e u }..X.X/.T 6XrXaX9X7X7X:XH # ~ T.u.-                 - u._ ~ # G ;X7X7X9XaXaX6XT _..X.X}.u q ; a [ | d.x.x.c.",
"g.g.g.g.p.} { m v v L }./.u 0 :.=X=XXX X X}.I r k u._ - X o o o o $ +   - t.t.j r J }. X XXX=X=X:.0 t _.].L x N } [ } q.f.g.g.g.",
"g.f.x.x.h.*.o.m O.7.7.O.b a w H  X X.XXX/.t f f h ` ) > o 9 v b M M *   > ) ) > w 0 t (..X.X X XH # a z n n { [ [ | a.d.x.g.g.g.",
"v.x.=.=.=.-.l.7.9.9.9.9.7.7.7.B m 2.<.G.Z B B M * ! ! j . & a M B 1 : $ p ! / > x x z c o.,.L b x 3 [ n n X.X.X.n o.5.5.j.x.x.x.",
"B.S.-.I.B.B.Z.n.n.Z.e.r.e.9.9.9.9.9.9.9.9.9.7.z & : h B : N C 7.7.N 2 1 M M h M 9.8.8.| | } } | | | | n n #.3.3.#.5.K.K.K.j.j.j.",
"V.B.B.V.V.C.C.C.V.M.L.&.P.b.b.r.9.7.7.7.7.7.V n n n V O.7.7.7.8.| | [ } 8.8.8.8.8.9.9.8.8.| | | | p.h.#.#.K.K.L.M.V.V.V.V.V.V.V.",
"g.g.g.g.g.m.V.V.k.j.5.5.4.K.L.b.r.X.X.+.+.V n n n n n n V V { } [ } } } | } | } | 8.8.e.p...a.q.p.x.j.j.M.Z.Z.V.V.V.V.V.V.V.V.V.",
"g.g.g.g.g.g.g.g.c.x.x.x.j.5.5.L.5.3.3.4.4.#.+.n n n n n n n n n X.[ [ [ | | | [ [  .p.x.x.f.g.f.g.g.x.c.g.g.g.g.g.g.g.g.g.g.v.v.",
"g.g.g.g.g.g.g.g.g.g.g.g.x.x.x.x.j.5.5.5.4.4.#.] n n X.n n n n n n n n X.[ | } o.n +.5.5.j.x.g.g.g.g.g.g.g.g.g.g.g.g.g.g.g.g.g.v.",
"V.V.V.m.g.g.g.g.g.g.g.g.g.g.g.g.x.x.x.z.5.4.4.&.o.#.4.+.o.#.@.o.o.+.+.#.#.&.&.4.#.5.K.K.5.c.g.g.g.g.g.g.g.g.g.g.g.g.g.g.g.g.m.V.",
"Y.C.C.V.m.g.g.g.g.g.g.x.x.x.x.x.j.5.5.5.4.4.%.x.x.x.%.4.4.4.4.4.4.4.5.5.5.5.5.5.L.M.V.M.k.c.g.g.g.g.g.g.g.g.g.g.g.g.g.g.g.m.V.C.",
"V.V.C.C.V.V.V.m.g.g.c.j.j.j.j.j.5.5.5.5.5.j.x.g.g.g.x.5.4.4.4.5.5.j.x.x.c.c.x.c.Z.C.C.C.V.m.g.g.g.g.g.g.g.g.g.g.g.g.Z.V.V.V.C.C.",
"v.v.m.V.C.C.C.V.m.g.g.x.x.x.x.x.x.x.x.x.x.x.g.g.g.g.x.j.5.5.j.x.x.c.g.m.V.V.m.m.V.C.C.C.C.V.g.g.g.g.g.g.g.g.g.g.g.g.g.m.V.V.C.V.",
"g.g.g.m.V.V.V.V.Z.g.g.g.g.g.g.g.g.g.g.g.g.g.g.g.g.g.g.x.x.x.x.g.g.m.V.V.C.C.V.V.C.V.V.V.C.V.m.g.g.g.g.g.g.g.g.g.g.g.g.g.g.m.Z.m.",
"g.g.g.g.v.v.v.v.g.g.g.g.g.g.g.g.g.g.g.g.g.g.g.g.g.g.g.g.g.g.g.g.c.M.V.V.V.V.V.V.M.L.K.L.B.C.V.V.V.V.m.g.g.g.g.c.x.c.g.g.g.g.g.g.",
"g.g.g.g.g.g.g.g.g.g.g.g.g.g.g.g.g.g.g.g.g.g.g.g.g.g.g.g.g.g.g.x.j.K.K.K.j.j.K.K.K.4.4.4.L.M.V.V.V.V.Z.Z.Z.Z.M.j.5.j.x.x.x.x.x.g.",
"x.x.x.x.x.x.x.x.g.g.g.g.g.g.g.g.g.g.g.g.g.g.g.g.g.g.g.g.x.x.x.%.4.4.5.j.x.x.%.4.4.4.4.4.4.K.K.K.K.K.K.K.K.K.K.4.4.4.5.5.5.5.j.x.",
"5.5.5.5.j.j.j.j.c.g.g.g.g.g.g.g.g.g.g.g.g.g.g.g.g.g.g.c.j.j.j.5.5.j.x.x.g.g.x.j.5.5.4.4.4.4.4.4.4.4.4.4.4.4.4.4.4.4.4.4.4.4.4.5.",
"5.5.5.j.x.x.x.x.g.g.g.g.g.g.g.g.g.g.g.g.g.g.g.g.g.g.g.g.x.x.x.x.x.x.g.g.g.g.g.x.x.x.%.4.4.4.5.5.5.5.4.4.4.4.4.4.4.4.4.4.4.4.5.5.",
"x.x.x.x.g.g.g.g.g.g.g.g.g.g.g.g.g.g.x.x.x.x.x.g.g.g.g.x.x.x.x.x.g.g.g.g.g.g.g.g.g.g.x.5.4.%.x.x.x.x.%.4.5.5.5.4.4.5.5.5.5.j.x.c.",
"g.g.g.g.g.g.g.g.g.g.g.g.g.g.g.g.x.z.=.,.,.,.=.x.g.g.x.=.,.,.,.=.x.g.g.g.g.m.V.V.V.m.c.5.5.x.g.g.g.g.x.j.x.x.x.j.j.x.x.x.x.x.g.g.",
"g.g.g.g.g.g.g.g.g.g.g.g.g.g.g.x.=.,.<.<.<.>.>.=.z.z.=.>.<.<.<.<.=.x.g.g.m.V.C.C.C.V.v.L.5.x.g.g.g.g.g.c.g.g.g.x.x.g.g.g.g.g.v.v.",
"g.g.g.g.g.g.g.g.g.g.g.g.g.g.x.=.>.<.I.B.I.<.>.>.,.,.>.<.I.B.B.I.<.=.x.g.V.C.C.C.C.C.V.M.K.j.x.g.g.g.g.g.g.g.g.g.g.g.g.V.V.V.V.V."
};
