/* XPM */
static char *rcp03001122342398[] = {
/* columns rows colors chars-per-pixel */
"64 64 207 2 ",
"   c #1B132A",
".  c #191227",
"X  c #231926",
"o  c #251C2A",
"O  c #271A3C",
"+  c #291B3D",
"@  c #1C2634",
"#  c #27232F",
"$  c #29242E",
"%  c #2C2226",
"&  c #322A2C",
"*  c #262232",
"=  c #2D2533",
"-  c #2A2C37",
";  c #342D3A",
":  c #2E3634",
">  c #343431",
",  c #3B3334",
"<  c #393835",
"1  c #39333A",
"2  c #3D3839",
"3  c #32353A",
"4  c #463F3F",
"5  c #38433C",
"6  c #5A4E16",
"7  c #564D18",
"8  c #524C1D",
"9  c #675B1D",
"0  c #6B621C",
"q  c #554C2D",
"w  c #695E24",
"e  c #4D7536",
"r  c #6A6625",
"t  c #746A27",
"y  c #78762C",
"u  c #2B1D42",
"i  c #2F2149",
"p  c #31244C",
"a  c #332A4F",
"s  c #3C2F45",
"d  c #362A54",
"f  c #382C57",
"g  c #3A2F5A",
"h  c #372655",
"j  c #333648",
"k  c #3F3162",
"l  c #403263",
"z  c #443469",
"x  c #493671",
"c  c #334F57",
"v  c #364E4D",
"b  c #5C7850",
"n  c #504372",
"m  c #5C417D",
"M  c #567563",
"N  c #507D7B",
"B  c #667E61",
"V  c #837831",
"C  c #7B8338",
"Z  c #5C8241",
"A  c #6F8140",
"S  c #7E9445",
"D  c #799148",
"F  c #6C8B52",
"G  c #648755",
"H  c #6D965B",
"J  c #749B59",
"K  c #7A9C58",
"L  c #59AF46",
"P  c #7FAB5E",
"I  c #7DA55D",
"U  c #6AAE4F",
"Y  c #5B8573",
"T  c #6D966F",
"R  c #71906A",
"E  c #749A6C",
"W  c #7A9A6E",
"Q  c #779968",
"!  c #679175",
"~  c #6B9472",
"^  c #719671",
"/  c #658B6E",
"(  c #76A465",
")  c #79A663",
"_  c #7AA962",
"`  c #78A86C",
"'  c #7DBF62",
"]  c #91883F",
"[  c #8C8139",
"{  c #968E49",
"}  c #829746",
"|  c #87944A",
" . c #96964E",
".. c #968950",
"X. c #938750",
"o. c #9C9652",
"O. c #9B9158",
"+. c #AA9F5C",
"@. c #A69B54",
"#. c #A6994E",
"$. c #86A24A",
"%. c #8BA54A",
"&. c #8FA442",
"*. c #98AD48",
"=. c #94AA49",
"-. c #9BB64E",
";. c #9CB94E",
":. c #96B54F",
">. c #8DAD55",
",. c #81AB5E",
"<. c #8AAE5B",
"1. c #84A659",
"2. c #92A35E",
"3. c #94AB58",
"4. c #8FB056",
"5. c #95B651",
"6. c #9AB751",
"7. c #9DB950",
"8. c #9EBD5C",
"9. c #A0B94F",
"0. c #ABA559",
"q. c #B2AA5C",
"w. c #B0A759",
"e. c #A1B751",
"r. c #A3B950",
"t. c #AEB65C",
"y. c #A8BE58",
"u. c #A5BC5A",
"i. c #B3BA56",
"p. c #B4B55D",
"a. c #BAB75A",
"s. c #B6B959",
"d. c #BDBA5A",
"f. c #B0B755",
"g. c #829E6B",
"h. c #8A9D64",
"j. c #938262",
"k. c #AC9C71",
"l. c #82AA62",
"z. c #88AC61",
"x. c #86A268",
"c. c #8DB46C",
"v. c #97BA72",
"b. c #90B56C",
"n. c #ADA566",
"m. c #B4AB63",
"M. c #B6AC62",
"N. c #ACB160",
"B. c #B5B362",
"V. c #B9B363",
"C. c #BCBB69",
"Z. c #B2A479",
"A. c #BBAF72",
"S. c #BEBC73",
"D. c #C0BB5D",
"F. c #C0B768",
"G. c #C3BB6B",
"H. c #C4BC70",
"J. c #A5C15A",
"K. c #ABC25D",
"L. c #A5C057",
"P. c #ADC466",
"I. c #B0C861",
"U. c #C5C167",
"Y. c #CAC976",
"T. c #C2C575",
"R. c #5B3E8D",
"E. c #5E3E92",
"W. c #5F4293",
"Q. c #684C8D",
"!. c #654C8D",
"~. c #68588E",
"^. c #6D5282",
"/. c #644598",
"(. c #6E5092",
"). c #6C559A",
"_. c #735A95",
"`. c #755A8A",
"'. c #7A6193",
"]. c #6845A1",
"[. c #578883",
"{. c #6FA38D",
"}. c #D8DB86",
"|. c #D3D793",
" X c #E1DF9E",
".X c #DEE394",
"XX c #E1E38C",
"oX c #E5EC94",
"OX c #EAEB95",
"+X c #EBED99",
"@X c #E3E69A",
"#X c #EDF49A",
"$X c #F1F49C",
"%X c #DEE6AC",
"&X c #DCF2B9",
"*X c #E6EAAB",
"=X c #F6FBA5",
"-X c #F9FEA5",
";X c #F9FEAC",
":X c #F3F5A1",
">X c #EBEEB3",
",X c #E8EDBA",
"<X c #EBF2B7",
"1X c #F3F4BC",
"2X c #F3F6C2",
"3X c #FAFECA",
"4X c #FBFEC7",
/* pixels */
";.;.;.;.4.~ ! ! ! ~ >.>.~ ! ! ! ^ p.d.d.d.d.p.W ^ ! W p.d.d.D.D.d.p.g.6.d.d.d.D.d.d.D.d.a.;.;.;.;.;.;.;.;.r.d.D.d.d.D.D.D.D.d.a.",
"5.5.;.5.E ! ^ ^ ! ! ~ ~ ! ^ ^ ! ^ N.d.d.d.d.d.p.N.g.N.d.D.d.D.D.d.d.p.a.d.d.D.d.D.D.D.d.d.r.;.;.;.;.;.s.a.a.d.D.d.d.D.D.d.d.s.9.",
"~ E <.E ! W N.N.W ! ! ! W N.N.W ^ W p.d.d.d.d.d.d.p.d.d.d.d.d.d.d.d.d.d.d.d.d.d.d.d.d.d.d.a.s.;.;.;.;.s.a.a.a.a.a.a.a.a.a.r.;.5.",
"! ^ E ! ^ N.d.d.N.W ^ W N.d.d.p.N.g.p.d.d.d.d.d.d.d.d.d.d.d.a.a.a.a.d.d.d.D.d.s.s.d.d.d.d.d.a.r.;.;.;.;.9.;.;.9.;.;.;.;.;.;.5.E ",
"W N.N.W W p.d.d.d.p.p.p.d.d.d.d.d.p.d.d.d.a.s.s.s.d.d.d.d.s.r.;.;.r.s.d.d.d.p.z.z.p.d.d.d.d.d.a.a.s.r.;.;.;.;.;.;.;.;.;.7.5.>.~ ",
"p.d.d.p.p.a.a.a.d.d.d.d.d.a.a.a.a.d.d.d.p.z.l.l.z.p.a.a.a.r.;.;.;.;.r.s.s.t.z.Q Q g.n.m.m.M.d.d.a.a.i.;.;.;.;.;.;.;.r.s.p.g.E ^ ",
"d.d.d.d.s.r.;.r.s.d.d.d.s.r.;.7.7.p.s.t.z._ _ _ _ z.7.r.i.;.;.;.;.5.5.5.z.W R ~.n !.(.(.(.`.q.s.r.;.;.;.;.;.;.;.r.s.a.d.d.p.p.p.",
"d.d.a.s.r.;.;.;.r.a.d.a.r.;.5.,._ l.l.l._ _ _ _ _ ,.5.;.;.;.;.;.5.,._ Q R ~.n W.R.z l l g ; %.;.;.;.;.;.;.;.r.s.a.a.a.a.d.d.d.d.",
"a.s.r.;.;.;.;.;.;.s.a.a.;.5.,._ _ _ _ _ _ _ _ _ _ 5.5.5.5.;.;.5.P Q R ~.n W.R.z k g g g d = %.;.;.;.;.;.;.r.s.d.s.r.;.r.s.d.d.d.",
";.;.;.;.;.;.;.;.;.;.r.i.6.5._ _ _ _ _ _ _ _ _ _ _ _ _ _ ,.5.5.) R ~.n W.R.z k g g g g f u > %.;.;.;.;.;.i.s.a.s.r.;.;.;.r.s.a.a.",
";.;.;.;.;.;.5.5.5.5.5.5.,._ _ _ _ _ _ _ _ _ _ _ _ _ ) Q Q Q W ~.n W.R.z k g g g g g f u * F :.;.;.;.;.;.;.;.;.;.;.;.;.;.;.;.;.;.",
";.;.;.;.;.6.,.,.,._ _ _ _ _ _ P 5.5.5.P _ _ _ _ _ Q ^ ).).).).].R.l k g g g g g f f u + > %.;.;.;.;.;.;.;.;.5.5.5.;.;.;.;.;.;.;.",
";.;.;.;.;.;.5.5.5.,._ _ _ _ _ 5.;.;.;.5._ P 5.3.h.)./././././.E.h p f g g g f f u u + $ S -.;.;.;.;.;.;.;.5.,._ ,.5.;.;.;.;.;.;.",
";.;.;.;.;.;.;.;.;.5.5.5.,._ ,.5.;.;.;.5.,.5.2._.(./.z l l l l k g f p f f f u u u u O > %.;.5.5.5.;.;.;.5.P _ _ _ ,.5.;.;.;.;.;.",
";.;.;.;.;.r.s.s.r.;.;.;.6.6.7.;.;.;.;.;.5.2._./.z k g g g g g g g g f f i u u u u O $ S -.5.,._ ,.5.5.5.P _ _ _ _ _ 5.;.;.;.;.;.",
";.;.;.;.r.s.d.d.s.r.;.;.r.s.a.a.s.r.;.;.3._./.x g g g g g g g g g g g g f u u u u O $ $.5.P _ _ _ _ _ _ _ _ _ _ _ _ 5.5.5.;.;.;.",
"5.5.r.a.a.d.d.d.d.a.a.a.a.d.d.d.s.i.t.6.3.'.).Q.z k g g g g g g g g g g g f u u u O $ $.P _ _ _ _ _ _ _ _ _ _ _ _ _ _ _ ,.5.5.5.",
",.<.i.a.a.d.d.d.d.d.d.d.d.d.d.p.z.l.l.,.5.2.n.k.`.Q.z k g g g g g g g g g g f f u O > J ) _ _ _ _ _ _ _ _ _ _ _ _ _ _ _ _ _ _ _ ",
"5.6.;.9.r.s.d.d.d.d.d.d.a.s.t.z._ _ _ _ l.B.OXOXA.k.'.Q.z g g g g g g g g g g g d = b ( ) ) _ _ _ _ ) ) _ _ _ _ _ _ _ _ _ _ _ _ ",
";.;.9.9.9.r.a.d.d.d.d.s.e.<.,.,.5.5.5.,.z.C.*XoXOX#X@XZ.Q.k g g g g g g g g g g g a - / ( _ _ _ _ _ _ _ _ ( ( ( ( ) _ _ P 5.5.5.",
";.r.s.a.a.a.d.D.d.d.a.r.;.5.5.5.;.;.5.5.8.}.{ ] G.$X-X@X'.z g g g g g g g g g g g d * M T <.5.5.5.5.5.5.>.T ~ ~ ~ ( ( _ 5.;.;.;.",
"a.a.d.d.d.d.d.D.d.d.a.9.;.;.;.;.;.6.,.,.c.#XOXXX$X-X-X$XZ.Q.k g g g g g g g g g g f + - Y ~ ~ ~ ~ E 4.4.E ^ ^ ^ ! ! ~ ) 5.;.;.;.",
"a.a.a.a.a.d.d.d.d.d.r.;.;.;.;.;.;.;.5.5.b.#X$XS.*XOXOX=X X_.k g g g g g g g g g g f u * M ! ^ ^ ^ ^ ~ ~ W N.p.N.W ! ! T 5.7.r.s.",
";.;.;.;.r.s.d.d.d.d.r.;.;.;.;.;.;.;.;.;.J.#XoXe U C { +X*X'.g f g g g g g g g g g g f u - B t.p.p.N.W W N.d.d.d.N.W ^ ^ g.p.s.a.",
";.;.;.;.;.r.s.a.d.d.s.r.s.s.r.;.;.;.;.;.I.#X.Xe L ' %X;X$XZ.^.f f g g g g g g g g g g f a 1 o.a.d.d.p.p.d.d.d.d.d.p.p.p.p.a.r.;.",
";.;.;.;.;.;.;.r.s.d.d.d.a.a.i.r.;.;.-.-.}.=XoXZ ' &X3X4X;XOXk.^.f f g g g g g g g g g f u + , o.a.d.d.d.d.d.D.D.D.d.D.D.D.a.9.;.",
"a.a.r.;.;.;.;.;.r.s.a.s.r.;.r.f.;.;.*.y { >X=XoX<X3X;X;X-XOXM.j.m h f g g g g g g g f u u u + q w.d.d.d.d.d.D.D.d.d.d.d.D.a.r.s.",
"d.d.a.9.;.;.;.;.;.;.9.;.;.;.;.;.;.;.-.w.XX-X-X-X;X;X-X-XOXF..., a f g g g g g g f f u u u + ,  .a.d.d.d.d.a.d.d.d.d.d.d.d.d.a.d.",
"d.d.a.;.;.r.s.s.r.;.;.;.;.;.;.;.;.;.-.p.OX-X-X-X-X-X-XOXF..., u f g g g g g g f u u u O O <  .e.r.s.a.d.s.r.r.s.d.d.d.d.d.d.d.d.",
"d.d.a.r.r.s.d.d.a.s.r.;.;.;.;.9.;.;.;.e.C.OX-X-X-X-XOXF..., u f g g g g f f f u u O O = , } -.;.;.;.r.i.r.;.;.r.a.D.d.d.d.d.d.d.",
"d.d.d.a.a.d.d.d.d.a.s.s.s.s.s.s.s.s.i.;.e.C.OX$X$XOXm.X., + d f f f f f u u u + O $ >  .=.-.;.;.;.;.;.;.;.;.;.;.a.D.d.d.d.a.a.a.",
"a.a.a.a.a.a.a.a.s.r.;.;.7.6.7.7.6.6.;.;.;.7.y.B.V.O., $ O O u u u u u u O O O $ > S =.f.;.;.;.;.;.;.;.;.;.;.;.;.s.a.a.a.s.r.;.;.",
";.9.9.9.;.;.;.;.;.;.5.5.,._ _ _ _ ,.5.;.5.5.5.6.%.<   . . .         . . $ $ > S %.-.;.;.;.;.;.;.;.;.;.;.;.;.;.;.;.;.;.;.;.;.;.;.",
";.;.;.;.;.;.;.;.5.5.,._ _ _ _ _ _ _ P 5.,._ _ ,.1.v j @ . O O O O O O # A $.%.-.;.;.;.;.5.5.5.;.;.;.;.;.;.;.;.;.;.;.;.;.;.;.;.;.",
";.;.;.;.;.;.;.5.,._ _ _ _ _ _ _ _ _ _ _ _ _ ) ` {.N v -   O u u u u u O > %.6.5.5.;.;.5.,._ ,.5.;.;.;.;.;.;.;.;.;.;.;.;.;.;.;.;.",
";.;.;.;.;.5.5.P _ _ _ _ _ _ _ _ _ _ _ _ _ _ ` {.[.c : 8 X O u u u u u O = | ,._ ,.5.5.,._ _ _ P 5.;.;.;.;.;.;.5.5.5.;.;.;.;.;.;.",
";.;.;.5.5.,._ _ _ _ P 5.5.5.5.5.P _ _ _ _ _ ) Y c : 7 7 X O u d u u u u O > J _ _ _ _ ,.5.5.P _ P 5.;.;.;.;.5.,._ ,.5.;.;.;.5.5.",
"5.;.6.,.,._ _ _ _ ,.5.;.;.;.;.;.5._ _ P 5.5.>.v 5 r 9 6 X u f f u d u u + * D 5.,._ ,.5.;.;.5.,._ ,.6.;.;.5.P _ _ _ P 5.5.5.,._ ",
",.5.5.5.5.5.5.5.5.5.;.;.;.;.;.;.5.,.,.5.;.;.-.%.0.}.@.w X u f f i f f f u + > %.5.5.5.;.;.5.5.5.5.5.;.;.5.,._ _ _ _ _ _ _ _ _ _ ",
"_ ,.,.,.6.;.;.;.;.;.;.;.;.;.;.;.;.5.5.;.;.;.;.6.V.OXG.{ & + f g f i f f i a = F 5.;.5.5.5.,._ _ ,.5.;.;.5._ _ _ _ _ _ _ _ _ _ _ ",
"5.5.5.5.;.;.;.;.5.5.5.5.5.;.;.5.5.5.;.;.;.;.6.x.S.1X+XM.6 o d g f i f g f g a 3 J 5.,._ _ _ _ _ _ P 5.5.P _ _ P 5.5.5.,._ _ _ _ ",
";.;.;.;.;.;.;.5.E ~ ~ ~ E 4.4.E ~ E 5.;.r.s.a.T.,X3X-X}.w o d g g f g g g g f = G ) _ _ _ _ _ _ _ _ _ _ _ _ _ 5.;.;.;.6.5.5.5.5.",
";.;.;.;.;.5.4.E ^ ^ ^ ^ ! ~ ~ ^ ^ ! E 6.s.d.U.<X3X;XOXw.9 o d g f a f g g g g a 3 H _ _ _ _ _ _ _ _ _ _ _ _ ,.5.;.;.;.;.;.;.;.;.",
";.;.5.5.4.E E W N.p.p.N.W ^ W N.N.W W p.d.D.Y.2X;XOXV.t 6 o d g g f g g g g g f = G I 5.5.,.,.5.5.5.P _ _ _ 5.5.5.5.5.5.5.;.;.;.",
"7.5.E E E W N.p.d.d.d.d.p.p.p.d.d.p.p.d.d.G.*X4X:XG.#.t 6 o d g g g g g g g g g d 3 F :.;.5.5.;.;.;.5._ _ _ _ _ _ _ _ _ ,.5.5.5.",
"p.g.W N.p.p.d.D.d.d.s.s.s.d.d.d.d.d.d.d.d.d.H.:XOX0.] Y.t o d g g g g g g g g g g d 2 } -.;.;.;.;.;.5._ _ _ _ _ l.l.l.l.l.,.,.,.",
"a.p.p.a.a.a.d.d.s.t.z.l.z.t.s.d.d.s.s.s.s.p.q.oXq.[ }.#X@.= d g g g g g g g g g g g d 2  .-.;.;.;.;.5.c.b.b.c.z.t.s.s.s.s.s.s.s.",
";.;.;.;.;.r.s.s.<.,._ _ _ l.z.t.t.z.l.l.l.I C Y.V 0.$X$X+.= d g g g g g g g g g g g g d 2 } -.;.;.7.v.,X2X2X>XT.a.a.a.a.a.a.a.a.",
";.;.;.;.;.;.;.;.6.5.5.5.,._ _ z.l._ _ _ _ ) J y t w.$X$X+.= d g g g g g g g g g g f g g a < } -.7.P.>X;X;X;X;X>XK.;.;.;.;.;.;.9.",
";.;.;.;.;.;.;.;.;.;.;.;.5.5.5.5.,._ _ _ _ _ ) J K B.$X$X+.= d g g f g g f g g g f a f g g a < } u.*X;X-X-X-X-XoXJ.;.;.;.;.;.;.9.",
"a.a.s.r.;.;.;.;.;.;.;.;.;.;.;.;.5.5.5.4._ _ _ _ ,.B.$X#XO.= f g f a f f a f g g g f f g g g a < u.OX$X$X#X#XoXK.;.;.;.;.;.;.r.a.",
"d.d.d.a.r.;.;.;.;.;.;.5.5.5.5.5.,._ _ _ _ _ P 5.6.V.$X@X4 a g g g f g g f f g g g f p f g g d ; S.M.q.p.K.J.L.;.;.;.;.;.;.r.s.d.",
"a.a.a.d.a.a.s.r.;.;.6.,.,.,.,.,._ _ _ _ _ ,.5.;.-.V.$X.X1 d g g f i f g f i f g g g f p f f + % w 0 y *.;.;.;.;.;.;.i.s.a.a.d.d.",
"9.9.r.s.d.d.d.s.r.;.;.5.5.5.5.5.5.5.5.5.5.5.;.;.-.V.$X.X1 d g g f i f g f i f g g g g d u + & 6 0 r &.-.;.;.;.;.;.;.;.r.s.a.d.a.",
";.;.;.r.s.a.a.a.i.;.;.;.;.;.;.;.;.;.;.;.;.;.;.;.-.B.$X|.1 d g g g f i f g d i f f f f u + < | *.*.*.-.;.;.;.;.;.;.;.;.;.;.r.i.r.",
";.;.;.;.;.;.;.;.;.;.;.;.;.;.;.;.;.;.;.;.;.;.;.;.;.y.XXn.s f g g g f u f f u + u u u + * , o.a.a.a.s.r.;.;.;.;.6.5.5.;.;.;.;.;.;.",
";.;.;.;.;.;.;.;.;.;.;.;.;.;.;.;.;.;.;.;.;.;.;.7.J.P.G.n.s u f f f u + u u O * # # # : G K t.s.s.s.s.i.i.i.i.t.,._ P 5.5.5.5.5.;.",
"5.5.5.5.5.5.5.5.;.;.;.;.;.;.;.;.;.;.;.;.;.;.7.P.%X>XOX}.s O u u u O * # $ > F H H H H ) _ l.l.l.l.l.l.l.l.l.l._ _ _ _ _ _ _ ,.5.",
"_ _ _ _ ,.,.,.,.6.;.;.;.;.;.;.;.;.;.;.;.;.;.u. XS.V.V.0.< # # # # > D $.$.%.5.,._ _ _ _ _ _ _ _ _ _ _ _ _ _ _ _ _ _ _ _ _ _ _ _ ",
"_ _ _ ,.5.5.5.5.;.;.;.;.;.;.;.;.;.;.;.;.;.;.7.u.7.-.-.-.%.$.$.$.$.%.-.;.;.;.;.5.5.5.P _ _ _ _ _ _ _ _ _ _ _ _ _ _ _ _ ) _ _ _ _ ",
"5.5.5.5.;.;.;.;.;.;.;.;.;.;.;.;.;.;.5.5.5.5.5.;.;.;.;.5.5.5.5.5.;.;.;.;.;.;.;.;.;.;.5._ _ P 5.5.5.5.P _ _ _ _ _ _ _ _ _ _ ,.5.6.",
";.;.;.;.;.;.;.;.;.;.;.;.;.;.;.;.5.4.E ~ ~ ~ E 5.-.-.5.E ~ ~ ~ E 5.;.;.;.;.r.s.a.s.r.5._ _ 5.;.;.;.;.5.,.5.5.5.,.,.5.5.5.5.5.;.;.",
";.;.;.;.;.;.;.;.;.;.;.;.;.;.;.5.E ~ ^ ^ ^ ! ! E >.4.E ! ^ ^ ^ ^ E 5.;.;.r.s.d.d.d.s.7.z._ 5.;.;.;.;.;.6.;.;.;.5.5.;.;.;.;.;.;.9.",
";.;.;.;.;.;.;.;.;.;.;.;.;.;.5.E ! ^ N.p.N.^ ! ! ~ ~ ! ^ N.p.p.N.^ E 5.;.s.d.d.d.d.d.a.t.l.,.5.;.;.;.;.;.;.;.;.;.;.;.;.s.a.a.a.a."
};
