/* XPM */
static char *rcp0300160519409[] = {
/* columns rows colors chars-per-pixel */
"64 64 210 2 ",
"   c #1B132A",
".  c #191227",
"X  c #231925",
"o  c #251C29",
"O  c #27193C",
"+  c #281C3D",
"@  c #1C2634",
"#  c #26222E",
"$  c #2A252D",
"%  c #2A2124",
"&  c #312A2C",
"*  c #2C2633",
"=  c #282835",
"-  c #312A3B",
";  c #2F3534",
":  c #343533",
">  c #3B3334",
",  c #393836",
"<  c #38313B",
"1  c #37363A",
"2  c #463F3F",
"3  c #38433C",
"4  c #5A4E16",
"5  c #574D1A",
"6  c #5D561D",
"7  c #4A441C",
"8  c #655A1A",
"9  c #68621A",
"0  c #564F2B",
"q  c #695E24",
"w  c #4D7536",
"e  c #696725",
"r  c #746925",
"t  c #787428",
"y  c #757732",
"u  c #2B1D42",
"i  c #2F2149",
"p  c #31244C",
"a  c #342A4E",
"s  c #3B2D44",
"d  c #362B54",
"f  c #382C57",
"g  c #3A2F5A",
"h  c #372656",
"j  c #32354A",
"k  c #3F3162",
"l  c #462D6B",
"z  c #403263",
"x  c #44346A",
"c  c #493671",
"v  c #334F57",
"b  c #354E4E",
"n  c #5C417D",
"m  c #587763",
"M  c #507D7B",
"N  c #837831",
"B  c #768334",
"V  c #5C8241",
"C  c #6E8143",
"Z  c #7C9548",
"A  c #6C8B53",
"S  c #668855",
"D  c #728D55",
"F  c #6D965C",
"G  c #759956",
"H  c #719759",
"J  c #749B5A",
"K  c #7C9D58",
"L  c #59AF46",
"P  c #7FAB5E",
"I  c #7CA75E",
"U  c #6AAE4F",
"Y  c #57867B",
"T  c #6D966F",
"R  c #73996C",
"E  c #7A9A6F",
"W  c #7D9F67",
"Q  c #679175",
"!  c #6B9472",
"~  c #719671",
"^  c #789370",
"/  c #648866",
"(  c #76A465",
")  c #78A662",
"_  c #7BA962",
"`  c #7BA96A",
"'  c #7DBF62",
"]  c #88823A",
"[  c #91883F",
"{  c #81923E",
"}  c #958C49",
"|  c #819646",
" . c #899944",
".. c #9C974C",
"X. c #97944E",
"o. c #968950",
"O. c #938750",
"+. c #9D9652",
"@. c #9B9158",
"#. c #8E9055",
"$. c #A59A4D",
"%. c #AA9F5C",
"&. c #A69C57",
"*. c #86A34C",
"=. c #8AA449",
"-. c #8FA442",
";. c #94AD47",
":. c #96AE49",
">. c #93A84A",
",. c #96B44F",
"<. c #9BB64E",
"1. c #9CB94E",
"2. c #8DAD57",
"3. c #81AB5E",
"4. c #8AAE5B",
"5. c #8FA05E",
"6. c #90A15F",
"7. c #99A958",
"8. c #8FB056",
"9. c #95B651",
"0. c #9AB751",
"q. c #9DB850",
"w. c #9FBE5D",
"e. c #A0B94F",
"r. c #ABA154",
"t. c #A8A856",
"y. c #B2AA5B",
"u. c #B0A759",
"i. c #A1B751",
"p. c #A3B950",
"a. c #AEB65C",
"s. c #A8BD59",
"d. c #B3BA56",
"f. c #B4B55D",
"g. c #BBB75A",
"h. c #B6B959",
"j. c #BDBA5A",
"k. c #B4B757",
"l. c #A4A14E",
"z. c #829E6B",
"x. c #8B9E63",
"c. c #938262",
"v. c #AC9C71",
"b. c #A19D6A",
"n. c #82AA62",
"m. c #88AC61",
"M. c #8CB46A",
"N. c #87B16F",
"B. c #95B766",
"V. c #96B877",
"C. c #8AB371",
"Z. c #A9A368",
"A. c #B5AD62",
"S. c #B6AB64",
"D. c #ACB160",
"F. c #B6B362",
"G. c #B9B362",
"H. c #BDBB69",
"J. c #B2A479",
"K. c #BBAF72",
"L. c #BDBC71",
"P. c #C0B768",
"I. c #C3BA6A",
"U. c #C3BC72",
"Y. c #A5C057",
"T. c #A6C15B",
"R. c #AEC865",
"E. c #C3C167",
"W. c #CAC976",
"Q. c #5C3D8E",
"!. c #5E3F93",
"~. c #623F98",
"^. c #5F4194",
"/. c #684C8D",
"(. c #674D8E",
"). c #6D5586",
"_. c #614294",
"`. c #64429A",
"'. c #664D93",
"]. c #6D5498",
"[. c #725C92",
"{. c #755798",
"}. c #76598D",
"|. c #7A6193",
" X c #6945A2",
".X c #856B8D",
"XX c #578883",
"oX c #71A48C",
"OX c #D8DA86",
"+X c #E1DF9E",
"@X c #DEE796",
"#X c #E1E38C",
"$X c #E4EB93",
"%X c #EAEB95",
"&X c #E6E89A",
"*X c #EDF39B",
"=X c #F1F49C",
"-X c #DFECB7",
";X c #DCECB4",
":X c #E4EEAE",
">X c #E7E6A8",
",X c #F6FBA5",
"<X c #F9FEA5",
"1X c #F9FEAC",
"2X c #F3F5A1",
"3X c #E8EDB8",
"4X c #EFF6B3",
"5X c #FAFECA",
"6X c #F9FBC5",
"7X c #ECF4C1",
/* pixels */
"1.1.1.1.8.! Q Q Q ! 2.2.! Q Q Q ~ f.j.j.j.j.f.E ~ Q E f.j.j.j.j.j.f.z.0.j.j.j.j.j.j.j.j.g.1.1.1.1.1.1.1.1.p.j.j.j.j.j.j.j.j.j.g.",
"9.9.1.9.R Q ~ ~ Q Q ! ! Q ~ ~ Q ~ D.j.j.j.j.j.f.D.z.D.j.j.j.j.j.j.j.f.g.j.j.j.j.j.j.j.j.g.p.1.1.1.1.1.h.g.g.j.j.j.j.j.j.j.j.g.p.",
"! R 4.R Q E D.D.E Q Q Q E D.D.E ~ E f.j.j.j.j.j.j.f.j.j.j.j.j.j.j.j.j.j.A.j.j.j.A.j.j.j.j.g.h.1.1.1.1.h.g.g.g.g.g.g.g.g.g.p.1.9.",
"Q ~ R Q ~ D.j.j.D.E ~ E D.j.j.f.D.z.f.j.j.j.j.j.j.j.j.j.j.j.j.g.g.g.j.Z..XA.j.Z..XA.j.j.j.j.g.p.1.1.1.1.e.1.1.e.1.1.1.1.e.1.9.R ",
"E D.D.E E f.j.j.j.f.f.f.j.j.j.j.j.f.j.j.j.h.h.h.h.j.j.j.j.g.p.e.1.i.Z.{.].&.b.[./.Z.j.j.j.j.j.j.g.h.p.1.1.1.1.1.1.1.1.1.q.9.2.! ",
"f.j.j.f.f.g.g.g.j.j.j.j.j.g.g.g.g.j.j.j.f.m.n.n.m.f.g.g.g.p.1.1.0.6.[._.z s (.Q.a D f.j.j.j.j.j.g.g.d.1.1.1.1.1.1.1.p.h.f.z.R ~ ",
"j.j.j.j.h.p.1.p.h.j.j.j.h.p.1.q.q.f.h.a.m._ _ _ _ m.q.p.d.1.1.<.6.[._.z h Q.!.x d : t.g.g.g.g.h.p.1.1.1.1.1.1.1.p.h.g.j.j.f.f.f.",
"j.j.g.h.p.1.1.1.p.g.j.g.p.1.9.3._ n.n.n._ _ _ _ _ 3.9.1.1.1.<.6.[._.x g Q.!.x g d = *.1.1.1.e.e.1.1.1.1.1.1.p.h.g.g.g.g.j.j.j.j.",
"g.h.p.1.1.1.1.1.1.h.g.g.1.9.3._ _ _ _ _ _ _ _ _ _ 9.9.9.9.<.5.).`.l !.`.!.x g g d = A 9.1.1.1.1.1.1.1.1.1.p.h.j.h.p.1.p.h.j.j.j.",
"1.1.1.1.1.1.1.1.1.1.p.d.0.9._ _ _ _ _ _ _ _ _ _ _ _ _ W W x.).l `.`.`.^.x g g g f + ; J 9.9.1.1.1.1.1.1.d.h.g.h.p.1.1.1.p.h.g.g.",
"1.1.1.1.1.1.9.9.9.9.9.9.3._ _ _ _ _ _ _ _ _ _ _ ) R ^ ].].]. X`.~.!.x k g g g g f u # H 3.3.0.1.1.1.1.1.1.1.1.1.1.1.1.1.1.1.1.1.",
"1.1.1.1.1.0.3.3.3._ _ _ _ _ _ P 9.9.9.P _ _ _ W ^ ].'.`.`.`.`.!.h h f g g g g f u O $ *.9.9.1.1.1.1.1.1.1.1.9.9.9.1.1.1.1.1.1.1.",
"1.1.1.1.1.1.9.9.9.3._ _ _ _ _ 9.1.1.1.9._ _ x.[.'.^.x z z z z k g f p f f f f u u O $ =.1.1.1.1.1.1.1.1.1.9.3._ 3.9.1.1.1.1.1.1.",
"1.1.1.1.1.1.1.1.1.9.9.9.3._ 3.9.1.1.1.9.3.x.[._.x k g g g g g g g g f f i u u u u O $ =.1.1.9.9.9.1.1.1.9.P _ _ _ 3.9.1.1.1.1.1.",
"1.1.1.1.1.p.h.h.p.1.1.1.0.0.q.1.1.1.1.1.7.[.`.c g g g g g g g g g g g g f u u u u O $ =.1.9.3._ 3.9.9.9.P _ _ _ _ _ 9.1.1.1.1.1.",
"1.1.1.1.p.h.j.j.h.p.1.1.p.h.g.g.h.p.1.1.7.|.]./.x k g g g g g g g g g g g f u u u O $ =.9.P _ _ _ _ _ _ _ _ _ _ _ _ 9.9.9.1.1.1.",
"9.9.p.h.g.j.j.j.j.g.g.g.g.j.j.j.h.k.a.0.<.7.Z.v.}./.x k g g g g g g g g g g f f u + : *.P _ _ _ _ _ _ _ _ _ _ _ _ _ _ _ 3.9.9.9.",
"3.4.k.g.j.j.j.j.j.j.j.j.j.j.j.f.m.n.n.3.9.F.%X%XK.v.|./.x g g g g g g g g g g g d * C I _ _ _ _ _ _ _ _ _ _ _ _ _ _ _ _ _ _ _ _ ",
"9.0.1.e.p.g.j.j.j.j.j.j.g.h.a.m._ _ _ _ m.H.>X&X%X*X&XJ./.k g g g g g g g g g g g a : F ) _ _ _ _ _ _ _ _ _ _ _ _ _ _ _ _ _ _ _ ",
"1.1.e.e.e.p.g.j.j.j.j.h.i.4.3.3.9.9.9.3.M.OX} [ I.=X<X&X|.x g g g g g g g g g g g d = m ( _ _ _ _ _ _ _ _ ( ( ( ( ) _ _ P 9.9.9.",
"1.p.h.g.g.g.j.j.j.j.g.p.1.9.9.9.1.1.9.9.w.*X%X#X=X<X<X=XJ./.k g g g g g g g g g g f + = / 4.9.9.9.9.9.9.2.T ! ! ! ( ( _ 9.1.1.1.",
"g.g.j.j.j.j.j.j.j.j.g.1.1.1.1.1.1.0.3.3.M.*X=XL.:X&X%X,X+X{.k g g g g g g g g g g f u # m T ! ! ! R 8.8.R ~ ~ ~ Q Q ! ) 9.1.1.1.",
"g.g.g.g.g.j.j.j.j.j.p.1.1.1.1.1.1.1.9.9.M.*X$Xw U B } %X>X|.g f g g g g g g g g g g f u - m ! ~ ~ ~ ! ! E D.f.D.E Q Q T 9.q.p.h.",
"1.1.1.1.p.h.j.j.j.j.p.1.1.1.1.1.1.1.1.1.R.*X@Xw L ' ;X1X=XJ.).f f g g g g g g g g g g f a - #.f.f.D.E E D.j.j.j.D.E ~ ~ z.f.g.g.",
"1.1.1.1.1.p.h.g.j.j.h.p.h.h.p.1.1.1.<.<.OX,X$XV ' -X5X5X1X%Xv.).f f g g g g g g g g g f u O > +.g.j.f.f.j.j.j.j.j.f.f.f.f.g.p.1.",
"1.1.1.1.1.1.1.p.h.j.j.g.g.g.d.p.1.1.:.t } 4X,X&X4X5X1X1X<X%XA.c.n h f g g g g g g g f u u u + 0 u.j.j.j.j.j.j.j.j.j.j.j.j.g.e.1.",
"g.h.p.1.1.1.1.1.p.h.g.h.p.1.p.d.1.1.<.y.#X<X<X<X1X1X<X<X%XP.o.> p f g g g g g g f f u u u O > +.g.j.j.j.j.j.j.j.j.j.j.j.j.j.p.h.",
"j.j.g.e.1.1.1.1.1.1.1.e.1.1.1.1.1.1.<.f.%X<X<X<X<X<X<X%XP.o.> u f g g g g g g f u u u O + > +.g.g.j.j.j.j.j.j.j.j.j.j.j.j.j.j.j.",
"j.j.g.1.1.p.h.h.p.1.1.1.1.1.1.1.1.1.1.i.H.%X<X<X<X<X%XP.o.> u f g g g g f f f u u O + * > X.k.p.p.h.g.j.g.p.p.g.j.j.j.j.j.j.j.j.",
"j.j.g.p.p.h.j.j.g.h.p.1.1.1.1.1.1.1.1.1.i.H.%X=X=X%XS.O.> + d f f f f f u u u O O $ : X.t.i.1.1.1.1.p.d.p.1.1.p.g.j.j.j.j.j.j.j.",
"j.j.j.g.g.j.j.j.j.g.h.h.h.h.h.h.h.h.d.1.1.q.s.f.G.@.> $ O O u u u u u u O O O $ : Z >.k.p.1.1.1.1.1.1.1.1.1.1.1.g.j.j.j.j.g.g.g.",
"g.g.g.g.g.g.g.g.h.p.1.1.q.0.0.0.0.0.1.1.1.1.<.<.>.,   . .               $ $ : Z =.<.1.d.1.1.1.1.1.1.1.1.1.1.1.1.h.g.g.g.h.p.1.1.",
"1.1.1.e.1.1.1.1.1.1.9.9.3._ _ _ _ 3.9.1.9.9.9.9.2.b j @   O O O O O O # C =.=.<.1.1.1.1.1.1.1.1.1.1.1.1.1.1.1.1.1.1.1.1.1.1.1.1.",
"1.1.1.1.1.1.1.1.9.9.3._ _ _ _ _ _ _ P 9.3._ _ ` oXM b =   O u u u u u O : =.1.1.1.1.1.1.9.9.9.1.1.1.1.1.1.1.1.1.1.1.1.1.1.1.1.1.",
"1.1.1.1.1.1.1.9.3._ _ _ _ _ _ _ _ _ _ _ _ _ ` oXXXv ; 7 X O u u u u u O $ | ,.9.9.1.1.9.3._ 3.9.1.1.1.1.1.1.1.1.1.1.1.1.1.1.1.1.",
"1.1.1.1.1.9.9.P _ _ _ _ _ _ _ _ _ _ _ _ _ _ ( Y v ; 5 4 X O u d u u u u + > J _ 3.9.9.3._ _ _ P 9.1.1.1.1.1.1.9.9.9.1.1.1.1.1.1.",
"1.1.1.9.9.3._ _ _ _ P 9.9.9.9.9.P _ _ _ _ _ J b 3 e 8 4 X u f f u d u u O # S I _ _ _ 3.9.9.P _ P 9.1.1.1.1.9.3._ 3.9.1.1.1.9.9.",
"9.1.0.3.3._ _ _ _ 3.9.1.1.1.1.1.9._ _ P 9.9.9.K t.OX&.q X u f f i f f f u + : *.3._ 3.9.1.1.9.3._ 3.0.1.1.9.P _ _ _ P 9.9.9.3._ ",
"3.9.9.9.9.9.9.9.9.9.1.1.1.1.1.1.9.3.3.9.1.1.1.0.F.%XI.X.& + f g f i f f i p * Z ,.9.9.1.1.9.9.9.9.9.1.1.9.3._ _ _ _ _ _ _ _ _ _ ",
"_ 3.3.3.0.1.1.1.1.1.1.1.1.1.1.1.1.9.9.1.1.1.1.0.L.4X%XA.6 o d g f i f g f g a : *.1.9.9.9.3._ _ 3.9.1.1.9._ _ _ _ _ _ _ _ _ _ _ ",
"9.9.9.9.1.1.1.1.9.9.9.9.9.1.1.9.9.9.1.1.1.1.0.V.3X5X<XOXq o d g g f g g g g f = A 8.3._ _ _ _ _ _ P 9.9.P _ _ P 9.9.9.3._ _ _ _ ",
"1.1.1.1.1.1.1.9.R ! ! ! R 8.8.R ! R 9.1.p.h.E.3X5X1X%Xu.8 o d g f p f g g g g a : H _ _ _ _ _ _ _ _ _ M.C.N._ 9.1.1.1.0.9.9.9.9.",
"1.1.1.1.1.9.8.R ~ ~ ~ ~ Q ! ! ~ ~ Q R 0.h.j.W.6X1X%XG.r 4 o d g g f g g g g g f = S ) _ _ _ _ _ _ _ V.-X7X-XV.0.1.1.1.1.1.1.1.1.",
"1.1.9.9.8.R R E D.f.f.D.E ~ E D.D.E E f.j.E.>X6X2XI.$.t 4 o d g g g g g g g g g d 1 A 9.9.3.3.9.9.B.:X1X1X1X:Xs.9.9.9.9.9.1.1.1.",
"q.9.R R R E D.f.j.j.j.j.f.f.f.j.j.f.f.j.j.j.U.2X%Xr.[ W.r o d g g g g g g g g g g d 1 Z <.9.9.1.q.R.2X<X<X<X@XM._ _ _ _ 3.9.9.9.",
"f.z.E D.f.f.j.j.j.j.h.h.h.j.j.j.j.j.j.j.j.g.y.$Xy.] OX*X&.* d g g g g g g g g g g g d , | <.1.1.T.:X<X=X*X@XV._ n.n.n.n.n.3.3.3.",
"g.f.f.g.g.g.j.j.h.a.m.n.m.a.h.j.j.h.h.h.h.t.] W.N r.=X=X%.* d g g g g g g g g g g g g d , | <.1.T.*X%XH.B.M.m.m.a.h.h.h.h.h.h.h.",
"1.1.1.1.1.p.h.h.4.3._ _ _ n.m.a.a.m.n.n.n.n.G y r y.=X=X%.* d g g g g g g g g g g f g g a , | <.Y.#XI.y.a.k.k.k.g.g.g.g.g.g.g.g.",
"1.1.1.1.1.1.1.1.0.9.9.9.3._ _ m.n._ _ _ _ _ ) J K A.=X=X%.* d g g f g g f g g g f p f g g a , | q.f.&.r.i.1.1.1.1.1.1.1.1.1.1.e.",
"1.1.1.1.1.1.1.1.1.1.1.1.9.9.9.9.3._ _ _ _ _ _ _ n.F.=X*X@.* f g f p f f p f g g g f f g g g a :  ...r t ;.1.1.1.1.1.1.1.1.1.1.e.",
"g.g.h.p.1.1.1.1.1.1.1.1.1.1.1.1.9.9.9.8._ _ _ _ 3.F.=X#X2 a g g g f g g f f g g g f p f g g d o 6 8 9 -.<.1.1.1.1.1.1.1.1.1.p.g.",
"j.j.j.h.p.1.1.1.1.1.1.9.9.9.9.9.3._ _ _ _ _ P 9.0.G.=X@X< d g g f i f g f i f g g g f p f f + % 4 8 r ;.1.1.1.1.1.1.1.1.1.p.g.j.",
"g.g.g.j.g.g.h.p.1.1.0.3.3.3.3.3._ _ _ _ _ 3.9.1.<.G.=X@X< d g g f i f g f i f g g g g d u + & 6 9 r -.<.1.1.1.1.1.1.d.h.g.g.j.j.",
"e.1.p.h.j.j.j.h.p.1.1.9.9.9.9.9.9.9.9.9.9.9.1.1.<.y.%XOX< d g g g f i f g d i f f f f u O > | ;.;.;.<.1.1.1.1.1.1.1.1.p.h.g.j.g.",
"1.1.1.p.h.g.g.g.d.1.1.1.1.1.1.1.1.1.1.1.1.1.1.<.-.t r.%.s f g g g f u f f u O u u u + * > X.i.1.1.1.1.1.1.1.1.1.1.1.1.1.1.p.d.p.",
"1.1.1.1.1.1.1.1.1.1.1.1.1.1.1.1.1.1.1.1.1.1.Y.i.t 8 r } s u f f f u O u u O o $ $ # ; A 7.g.g.g.g.h.p.1.1.1.1.0.9.9.1.1.1.1.1.1.",
"1.1.1.1.1.1.1.1.1.1.1.1.1.1.1.1.1.1.1.1.1.Y.$X$Xr.r 8 q - O u u u O X X X % 0 D H F F ) m.a.h.h.h.h.k.k.k.k.a.3._ P 9.9.9.9.9.1.",
"9.9.9.9.9.9.9.9.1.1.1.1.1.1.1.1.1.1.1.1.1.Y.$X%XA.$.t { : $ $ # # % 5 8 8 e G ) _ _ _ _ _ n.n.n.n.n.n.n.n.n.n._ _ _ _ _ _ _ 3.9.",
"_ _ _ _ 3.3.3.3.0.1.1.1.1.1.1.1.1.1.1.1.1.1.s.f.y.u.:.,.K G G H A e ..$.l.:.9.3._ P _ _ _ _ _ _ _ _ _ _ _ _ _ _ _ _ _ _ _ _ _ _ ",
"_ _ _ 3.9.9.9.9.1.1.1.1.1.1.1.1.1.1.1.1.1.1.1.<.<.<.1.1.9.9.9.9.,.:.<.<.<.1.1.9.9.9.P _ _ _ _ _ _ _ _ _ _ _ _ _ _ _ _ _ _ _ _ _ ",
"9.9.9.9.1.1.1.1.1.1.1.1.1.1.1.1.1.1.9.9.9.9.9.1.1.1.1.9.9.9.9.9.1.1.1.1.1.1.1.1.1.1.9._ _ P 9.9.9.9.P _ _ _ _ _ _ _ _ _ _ 3.9.9.",
"1.1.1.1.1.1.1.1.1.1.1.1.1.1.1.1.9.8.R ! ! ! R 9.1.1.9.R ! ! ! R 9.1.1.1.1.p.h.g.h.p.9._ _ 9.1.1.1.1.9.3.9.9.9.3.3.9.9.9.9.9.1.1.",
"1.1.1.1.1.1.1.1.1.1.1.1.1.1.1.9.R ! ~ ~ ~ Q Q R 8.8.R Q ~ ~ ~ ~ R 9.1.1.p.h.j.j.j.h.q.m._ 9.1.1.1.1.1.0.1.1.1.9.9.1.1.1.1.1.1.e.",
"1.1.1.1.1.1.1.1.1.1.1.1.1.1.9.R Q ~ D.f.D.~ Q Q ! ! Q ~ D.f.f.D.~ R 9.1.h.j.j.j.j.j.g.a.n.3.9.1.1.1.1.1.1.1.1.1.1.1.1.h.g.g.g.g."
};
