/* XPM */
static char *rcp03002794126699[] = {
/* columns rows colors chars-per-pixel */
"64 64 211 2 ",
"   c #1B132A",
".  c #191227",
"X  c #231925",
"o  c #251C29",
"O  c #27193C",
"+  c #281C3D",
"@  c #1C2634",
"#  c #26222E",
"$  c #2A252D",
"%  c #2A2124",
"&  c #312A2C",
"*  c #2C2633",
"=  c #282835",
"-  c #2F3534",
";  c #343533",
":  c #3B3334",
">  c #393836",
",  c #38313C",
"<  c #37363A",
"1  c #302F3B",
"2  c #463F3F",
"3  c #38433C",
"4  c #5A4E16",
"5  c #574D1A",
"6  c #5D561D",
"7  c #4A441C",
"8  c #655A1B",
"9  c #68621A",
"0  c #564F2B",
"q  c #695E24",
"w  c #4D7536",
"e  c #696725",
"r  c #746A26",
"t  c #78762C",
"y  c #2B1D42",
"u  c #2F2149",
"i  c #31244C",
"p  c #342A4E",
"a  c #3B2D43",
"s  c #362B54",
"d  c #382C57",
"f  c #3A2F5A",
"g  c #372656",
"h  c #32354A",
"j  c #3F3162",
"k  c #42374C",
"l  c #462D6B",
"z  c #403263",
"x  c #44346A",
"c  c #493671",
"v  c #334F57",
"b  c #354E4E",
"n  c #5C417D",
"m  c #587763",
"M  c #507D7B",
"N  c #837B31",
"B  c #768334",
"V  c #5C8241",
"C  c #6E8143",
"Z  c #7C9548",
"A  c #6C8B53",
"S  c #668855",
"D  c #728D55",
"F  c #6D965C",
"G  c #759956",
"H  c #719759",
"J  c #749B5A",
"K  c #7C9D58",
"L  c #59AF46",
"P  c #7FAB5E",
"I  c #7CA75E",
"U  c #6AAE4F",
"Y  c #57867B",
"T  c #6D966F",
"R  c #73996C",
"E  c #7A9A6F",
"W  c #7D9F67",
"Q  c #679175",
"!  c #6B9472",
"~  c #719671",
"^  c #789370",
"/  c #648866",
"(  c #76A465",
")  c #78A662",
"_  c #7BA962",
"`  c #7BA96A",
"'  c #7DBF62",
"]  c #88823A",
"[  c #91883F",
"{  c #968E49",
"}  c #819646",
"|  c #8A9A45",
" . c #9C974C",
".. c #97944E",
"X. c #968950",
"o. c #938750",
"O. c #9D9652",
"+. c #9B9158",
"@. c #8E9055",
"#. c #A79C4F",
"$. c #A79C58",
"%. c #86A34C",
"&. c #8AA449",
"*. c #8FA442",
"=. c #94AD47",
"-. c #96AE49",
";. c #93A84A",
":. c #96B44F",
">. c #9BB64E",
",. c #9CB94E",
"<. c #8DAD57",
"1. c #81AB5E",
"2. c #8AAE5B",
"3. c #8FA05E",
"4. c #90A15F",
"5. c #99A958",
"6. c #8FB056",
"7. c #95B651",
"8. c #9AB751",
"9. c #9DB950",
"0. c #9FBE5D",
"q. c #A0B94F",
"w. c #ADAB56",
"e. c #A7A355",
"r. c #B3AA5B",
"t. c #B0A759",
"y. c #A1B651",
"u. c #A3B950",
"i. c #AEB65C",
"p. c #A8BD59",
"a. c #B3BA56",
"s. c #B4B55D",
"d. c #BBB75A",
"f. c #B6B959",
"g. c #BDBA5A",
"h. c #B4B757",
"j. c #A4A14E",
"k. c #829E6B",
"l. c #8B9E63",
"z. c #938262",
"x. c #AC9C71",
"c. c #A19D6A",
"v. c #82AA62",
"b. c #88AC61",
"n. c #8CB46A",
"m. c #87B16F",
"M. c #95B766",
"N. c #96B877",
"B. c #8AB371",
"V. c #A9A368",
"C. c #B5AD62",
"Z. c #B3A966",
"A. c #ACB160",
"S. c #B6B362",
"D. c #B9B262",
"F. c #BDBB69",
"G. c #B4A777",
"H. c #BDBC71",
"J. c #C0B768",
"K. c #C3BA6A",
"L. c #C2BC72",
"P. c #A5C05B",
"I. c #A5C057",
"U. c #AEC766",
"Y. c #B0C86B",
"T. c #C3C167",
"R. c #CAC976",
"E. c #5C3D8E",
"W. c #5E3F93",
"Q. c #623F98",
"!. c #5F4194",
"~. c #684C8D",
"^. c #674D8E",
"/. c #6D5586",
"(. c #614294",
"). c #64429A",
"_. c #664D93",
"`. c #6D5498",
"'. c #725C92",
"]. c #755798",
"[. c #76598D",
"{. c #7A6193",
"}. c #6945A2",
"|. c #856B8D",
" X c #578883",
".X c #71A48C",
"XX c #D8DB85",
"oX c #D9DA91",
"OX c #E1DF9E",
"+X c #DEE697",
"@X c #E1E38C",
"#X c #E4EB95",
"$X c #EAEC95",
"%X c #E6E89A",
"&X c #EDF39B",
"*X c #F1F49C",
"=X c #DFECB7",
"-X c #DCECB4",
";X c #E4EEAE",
":X c #E7E6A8",
">X c #F2F4A1",
",X c #F6FBA5",
"<X c #F9FEA5",
"1X c #F9FDAC",
"2X c #E8EEB5",
"3X c #E9F3B6",
"4X c #F3F5BB",
"5X c #EFF7A1",
"6X c #FAFECA",
"7X c #F9FBC5",
"8X c #ECF4C1",
/* pixels */
",.,.,.,.6.! Q Q Q ! <.<.! Q Q Q ~ s.g.g.g.g.s.E ~ Q E s.g.g.g.g.g.s.k.8.g.g.g.g.g.g.g.g.d.,.,.,.,.,.,.,.,.u.g.g.g.g.g.g.g.g.g.d.",
"7.7.,.7.R Q ~ ~ Q Q ! ! Q ~ ~ Q ~ A.g.g.g.g.g.s.A.k.A.g.g.g.g.g.g.g.s.d.g.g.g.g.g.g.g.g.d.u.,.,.,.,.,.f.d.d.g.g.g.g.g.g.g.g.d.u.",
"! R 2.R Q E A.A.E Q Q Q E A.A.E ~ E s.g.g.g.g.g.g.s.g.g.g.g.g.g.g.g.g.g.C.g.g.g.C.g.g.g.g.d.f.,.,.,.,.f.d.d.d.d.d.d.d.d.d.u.,.7.",
"Q ~ R Q ~ A.g.g.A.E ~ E A.g.g.s.A.k.s.g.g.g.g.g.g.g.g.g.g.g.g.d.d.d.g.V.|.C.g.V.|.C.g.g.g.g.d.u.,.,.,.,.q.,.,.q.,.,.,.,.q.,.7.R ",
"E A.A.E E s.g.g.g.s.s.s.g.g.g.g.g.s.g.g.g.f.f.f.f.g.g.g.g.d.u.q.,.y.V.].`.$.c.'.~.V.g.g.g.g.g.g.d.f.u.,.,.,.,.,.,.,.,.,.9.7.<.! ",
"s.g.g.s.s.d.d.d.g.g.g.g.g.d.d.d.d.g.g.g.s.b.v.v.b.s.d.d.d.u.,.,.>.4.'.(.z a ^.E.p D s.g.g.g.g.g.d.d.a.,.,.,.,.,.,.,.u.f.s.k.R ~ ",
"g.g.g.g.f.u.,.u.f.g.g.g.f.u.,.9.9.s.f.i.b._ _ _ _ b.9.u.a.,.,.>.4.'.(.z g E.W.x s ; e.d.d.d.d.f.u.,.,.,.,.,.,.,.u.f.d.g.g.s.s.s.",
"g.g.d.f.u.,.,.,.u.d.g.d.u.,.7.1._ v.v.v._ _ _ _ _ 1.7.,.,.,.>.4.'.(.x f E.W.x f s = %.,.,.,.q.q.,.,.,.,.,.,.u.f.d.d.d.d.g.g.g.g.",
"d.f.u.,.,.,.,.,.,.f.d.d.,.7.1._ _ _ _ _ _ _ _ _ _ 7.7.7.7.>.3./.).l W.).W.x f f s = A 7.,.,.,.,.,.,.,.,.,.u.f.g.f.u.,.u.f.g.g.g.",
",.,.,.,.,.,.,.,.,.,.u.a.8.7._ _ _ _ _ _ _ _ _ _ _ _ _ W W l./.l ).).).!.x f f f d + - J 7.7.,.,.,.,.,.,.a.f.d.f.u.,.,.,.u.f.d.d.",
",.,.,.,.,.,.7.7.7.7.7.7.1._ _ _ _ _ _ _ _ _ _ _ ) R ^ `.`.`.}.).Q.W.x j f f f f d y # H 1.1.8.,.,.,.,.,.,.,.,.,.,.,.,.,.,.,.,.,.",
",.,.,.,.,.8.1.1.1._ _ _ _ _ _ P 7.7.7.P _ _ _ W ^ `._.).).).).W.g g d f f f f d y O $ %.7.7.,.,.,.,.,.,.,.,.7.7.7.,.,.,.,.,.,.,.",
",.,.,.,.,.,.7.7.7.1._ _ _ _ _ 7.,.,.,.7._ _ l.'._.!.x z z z z j f d i d d d d y y O $ &.,.,.,.,.,.,.,.,.,.7.1._ 1.7.,.,.,.,.,.,.",
",.,.,.,.,.,.,.,.,.7.7.7.1._ 1.7.,.,.,.7.1.l.'.(.x j f f f f f f f f d d u y y y y O $ &.,.,.7.7.7.,.,.,.7.P _ _ _ 1.7.,.,.,.,.,.",
",.,.,.,.,.u.f.f.u.,.,.,.8.8.9.,.,.,.,.,.5.'.).c f f f f f f f f f f f f d y y y y O $ &.,.7.1._ 1.7.7.7.P _ _ _ _ _ 7.,.,.,.,.,.",
",.,.,.,.u.f.g.g.f.u.,.,.u.f.d.d.f.u.,.,.5.{.`.~.x j f f f f f f f f f f f d y y y O $ &.7.P _ _ _ _ _ _ _ _ _ _ _ _ 7.7.7.,.,.,.",
"7.7.u.f.d.g.g.g.g.d.d.d.d.g.g.g.f.h.i.8.>.5.Z.x.[.~.x j f f f f f f f f f f d d y + ; %.P _ _ _ _ _ _ _ _ _ _ _ _ _ _ _ 1.7.7.7.",
"1.2.h.d.g.g.g.g.g.g.g.g.g.g.g.s.b.v.v.1.7.S.$X$XG.x.{.~.x f f f f f f f f f f f s * C I _ _ _ ) _ _ _ _ _ _ _ _ _ _ _ _ _ _ _ _ ",
"7.8.,.q.u.d.g.g.g.g.g.g.d.f.i.b._ _ _ _ b.F.:X#X$X&X%XG.~.j f f f f f f f f f f f p ; F ) _ _ _ _ _ _ _ _ _ _ _ _ _ _ _ _ _ _ _ ",
",.,.q.q.q.u.d.g.g.g.g.f.y.2.1.1.7.7.7.1.n.XX{ [ K.*X<X%X{.x f f f f f f f f f f f s = m ( _ _ _ _ _ _ _ _ ( ( ( ( ) _ _ P 7.7.7.",
",.u.f.d.d.d.g.g.g.g.d.u.,.7.7.7.,.,.7.7.0.&X$X@X*X<X<X*XG.~.j f f f f f f f f f f d + = / 2.7.7.7.7.7.7.<.T ! ! ! ( ( _ 7.,.,.,.",
"d.d.g.g.g.g.g.g.g.g.d.,.,.,.,.,.,.8.1.1.n.&X*XH.;X%X$X,XOX].j f f f f f f f f f f d y # m T ! ! ! R 6.6.R ~ ~ ~ Q Q ! ) 7.,.,.,.",
"d.d.d.d.d.g.g.g.g.g.u.,.,.,.,.,.,.,.7.7.n.&X#Xw U B { $X:X{.f d f f f f f f f f f f d y 1 m ! ~ ~ ~ ! ! E A.s.A.E Q Q T 7.9.u.f.",
",.,.,.,.u.f.g.g.g.g.u.,.,.,.,.,.,.,.,.,.U.&X+Xw L ' -X1X*XG./.d d f f f f f f f f f f d p 1 @.s.s.A.E E A.g.g.g.A.E ~ ~ k.s.d.d.",
",.,.,.,.,.u.f.d.g.g.f.u.f.f.u.,.,.,.>.>.XX,X#XV ' =X6X6X1X$Xx./.d d f f f f f f f f f d y + : O.d.g.s.s.g.g.g.g.g.s.s.s.s.d.u.,.",
",.,.,.,.,.,.,.u.f.g.g.g.d.d.a.u.,.,.-.t { 2X,X%X3X6X1X1X<X$XC.z.n g d f f f f f f f d y y y + 0 w.g.g.g.g.g.g.g.g.g.g.g.g.d.q.,.",
"d.f.u.,.,.,.,.,.u.f.d.f.u.,.u.a.,.,.>.r.@X<X<X<X1X1X<X<X$XJ.X.: i d f f f f f f d d y y y O : O.d.g.g.g.g.g.g.g.g.g.g.g.g.g.u.f.",
"g.g.d.q.,.,.,.,.,.,.q.,.,.,.,.,.,.,.>.s.$X<X<X<X<X<X<X$XJ.X.: y d f f f f f f d y y y O + : O.d.d.g.g.g.g.g.g.g.g.g.g.g.g.g.g.g.",
"g.g.d.,.,.u.f.f.u.,.,.,.,.,.,.,.,.,.,.y.F.$X<X<X<X<X$XJ.X.: y d f f f f d d d y y O + * : ..h.u.u.f.d.g.d.u.u.d.g.g.g.g.g.g.g.g.",
"g.g.d.u.u.f.g.g.d.f.u.,.,.,.,.,.,.,.,.,.y.F.$X*X*X$XZ.o.: + s d d d d d y y y O O $ ; ..e.y.,.,.,.,.u.a.u.,.,.u.d.g.g.g.g.g.g.g.",
"g.g.g.d.d.g.g.g.g.d.f.f.f.f.f.f.f.f.a.,.,.,.p.s.D.+.: $ O O y y y y y y O O O $ ; Z ;.h.u.,.,.,.,.,.,.,.,.,.,.,.d.g.g.g.g.d.d.d.",
"d.d.d.d.d.d.d.d.f.u.,.,.9.8.9.8.8.8.,.,.,.,.,.>.;.>   . .               $ $ ; Z &.>.,.a.,.,.,.,.,.,.,.,.,.,.,.,.f.d.d.d.f.u.,.,.",
",.,.,.q.,.,.,.,.,.,.7.7.1._ _ _ _ 1.7.,.7.7.7.7.<.b h @   O O O O O O # C &.&.>.,.,.,.,.,.,.,.,.,.,.,.,.,.,.,.,.,.,.,.,.,.,.,.,.",
",.,.,.,.,.,.,.,.7.7.1._ _ _ _ _ _ _ P 7.1._ _ ` .XM b =   O y y y y y O ; &.,.,.,.,.,.,.7.7.7.,.,.,.,.,.,.,.,.,.,.,.,.,.,.,.,.,.",
",.,.,.,.,.,.,.7.1._ _ _ _ _ _ _ _ _ _ _ _ _ ` .X Xv - 7 X O y y y y y O $ } :.7.7.,.,.7.1._ 1.7.,.,.,.,.,.,.,.,.,.,.,.,.,.,.,.,.",
",.,.,.,.,.7.7.P _ _ _ _ _ _ _ _ _ _ _ _ _ _ ( Y v - 5 4 X O y s y y y y + : J _ 1.7.7.1._ _ _ P 7.,.,.,.,.,.,.7.7.7.,.,.,.,.,.,.",
",.,.,.7.7.1._ _ _ _ P 7.7.7.7.7.P _ _ _ _ _ J b 3 e 8 4 X y d d y s y y O # S I _ _ _ 1.7.7.P _ P 7.,.,.,.,.7.1._ 1.7.,.,.,.7.7.",
"7.,.8.1.1._ _ _ _ 1.7.,.,.,.,.,.7._ _ P 7.7.7.K e.XX#.q X y d d u d d d y + ; %.1._ 1.7.,.,.7.1._ 1.8.,.,.7.P _ _ _ P 7.7.7.1._ ",
"1.7.7.7.7.7.7.7.7.7.,.,.,.,.,.,.7.1.1.7.,.,.,.8.S.$XK...& + d f d u d d u i * Z :.7.7.,.,.7.7.7.7.7.,.,.7.1._ _ _ _ _ _ _ _ _ _ ",
"_ 1.1.1.8.,.,.,.,.,.,.,.,.,.,.,.,.7.7.,.,.,.,.8.H.4X$XC.6 o s f d u d f d f p ; %.,.7.7.7.1._ _ 1.7.,.,.7._ _ _ _ _ _ _ _ _ _ _ ",
"7.7.7.7.,.,.,.,.7.7.7.7.7.,.,.7.7.7.,.,.,.,.8.N.2X6X<XXXq o s f f d f f f f d = A 6.1._ _ _ _ _ _ P 7.7.P _ _ P 7.7.7.1._ _ _ _ ",
",.,.,.,.,.,.,.7.R ! ! ! R 6.6.R ! R 7.,.u.f.T.2X6X1X$Xt.8 o s f d i d f f f f p ; H _ _ _ _ _ _ _ _ _ n.B.m._ 7.,.,.,.8.7.7.7.7.",
",.,.,.,.,.7.6.R ~ ~ ~ ~ Q ! ! ~ ~ Q R 8.f.g.R.7X1X$XD.r 4 o s f f d f f f f f d = S ) _ _ _ _ _ _ _ N.=X8X=XN.8.,.,.,.,.,.,.,.,.",
",.,.7.7.6.R R E A.s.s.A.E ~ E A.A.E E s.g.T.:X7X>XK.#.r 4 o s f f f f f f f f f s < A 7.7.1.1.7.7.M.;X1X1X1X;Xp.7.7.7.7.7.,.,.,.",
"9.7.R R R E A.s.g.g.g.g.s.s.s.g.g.s.s.g.g.g.L.>X$Xe.[ R.r o s f f f f f f f f f f s < Z >.7.7.,.9.U.5X<X<X<X+Xn._ _ _ _ 1.7.7.7.",
"s.k.E A.s.s.g.g.g.g.f.f.f.g.g.g.g.g.g.g.g.d.r.#Xr.] XX&X$.* s f f f f f f f f f f f s > } >.,.,.P.;X<X*X&X+XN._ v.v.v.v.v.1.1.1.",
"d.s.s.d.d.d.g.g.f.i.b.v.b.i.f.g.g.f.f.f.f.w.] R.N e.*X*X$.* s f f f f f f f f f f f f s > } >.,.I.&X$XF.M.n.b.b.i.f.f.f.f.f.f.f.",
",.,.,.,.,.u.f.f.2.1._ _ _ v.b.i.i.b.v.v.v.v.G t r r.*X*X$.* s f f f f f f f f f f d f f p > } >.I.@XK.r.i.h.h.h.d.d.d.d.d.d.d.d.",
",.,.,.,.,.,.,.,.8.7.7.7.1._ _ b.v._ _ _ _ _ ) J K C.*X*X$.* s f f d f f d f f f d i d f f p > } 9.s.#.j.y.,.,.,.,.,.,.,.,.,.,.q.",
",.,.,.,.,.,.,.,.,.,.,.,.7.7.7.7.1._ _ _ _ _ _ _ v.S.*X&X+.* d f d i d d i d f f f d d f f f p ; |  .r t =.,.,.,.,.,.,.,.,.,.,.q.",
"d.d.f.u.,.,.,.,.,.,.,.,.,.,.,.,.7.7.7.6._ _ _ _ 1.S.*X#X2 p f f f d f f d d f f f d i d f f s o 6 8 9 *.>.,.,.,.,.,.,.,.,.,.u.d.",
"g.g.g.f.u.,.,.,.,.,.,.7.7.7.7.7.1._ _ _ _ _ P 7.8.D.*X+X, s f f d u d f d u d f f f d i d d + % 4 8 e =.,.,.,.,.,.,.,.,.,.u.d.g.",
"d.d.d.g.d.d.f.u.,.,.8.1.1.1.1.1._ _ _ _ _ 1.7.,.>.D.>X+X, s f f d u d f d u d f f f f s y + & 6 9 e *.>.,.,.,.,.,.,.a.f.d.d.g.g.",
"q.,.u.f.g.g.g.f.u.,.,.7.7.7.7.7.7.7.7.7.7.7.,.,.9.L.4X+X, s f f f d u d f s u d d d d y O : } =.=.=.>.,.,.,.,.,.,.,.,.u.f.d.g.d.",
",.,.,.u.f.d.d.d.a.,.,.,.,.,.,.,.,.,.,.,.,.,.,.9.Y.2X1XoXk d f f f d y d d y O y y y + * : ..y.,.,.,.,.,.,.,.,.,.,.,.,.,.,.u.a.u.",
",.,.,.,.,.,.,.,.,.,.,.,.,.,.,.,.,.,.,.,.,.9.P.Y.;X1X$XZ.a y d d d y O y y O o $ $ # - A 5.d.d.d.d.f.u.,.,.,.,.8.7.7.,.,.,.,.,.,.",
",.,.,.,.,.,.,.,.,.,.,.,.,.,.,.,.,.,.,.,.,.P.;X4X1X$XD.$.a O y y y O X X X % 0 D H F F ) b.i.f.f.f.f.h.h.h.h.i.1._ P 7.7.7.7.7.,.",
"7.7.7.7.7.7.7.7.,.,.,.,.,.,.,.,.,.,.,.,.,.I.#X>X$XD.N | ; $ $ # # % 5 8 8 e G ) _ _ _ _ _ v.v.v.v.v.v.v.v.v.v._ _ _ _ _ _ _ 1.7.",
"_ _ _ _ 1.1.1.1.8.,.,.,.,.,.,.,.,.,.,.,.,.,.p.S.D.w.-.:.K G G H A e  .#.j.-.7.1._ P _ _ _ _ _ _ _ _ _ _ _ _ _ _ _ _ _ _ _ _ _ _ ",
"_ _ _ 1.7.7.7.7.,.,.,.,.,.,.,.,.,.,.,.,.,.,.,.>.>.>.,.,.7.7.7.7.:.-.>.>.>.,.,.7.7.7.P _ _ _ _ _ _ _ _ _ _ _ _ _ _ _ _ _ _ _ _ _ ",
"7.7.7.7.,.,.,.,.,.,.,.,.,.,.,.,.,.,.7.7.7.7.7.,.,.,.,.7.7.7.7.7.,.,.,.,.,.,.,.,.,.,.7._ _ P 7.7.7.7.P _ _ _ _ _ _ _ _ _ _ 1.7.7.",
",.,.,.,.,.,.,.,.,.,.,.,.,.,.,.,.7.6.R ! ! ! R 7.,.,.7.R ! ! ! R 7.,.,.,.,.u.f.d.f.u.7._ _ 7.,.,.,.,.7.1.7.7.7.1.1.7.7.7.7.7.,.,.",
",.,.,.,.,.,.,.,.,.,.,.,.,.,.,.7.R ! ~ ~ ~ Q Q R 6.6.R Q ~ ~ ~ ~ R 7.,.,.u.f.g.g.g.f.9.b._ 7.,.,.,.,.,.8.,.,.,.7.7.,.,.,.,.,.,.q.",
",.,.,.,.,.,.,.,.,.,.,.,.,.,.7.R Q ~ A.s.A.~ Q Q ! ! Q ~ A.s.s.A.~ R 7.,.f.g.g.g.g.g.d.i.v.1.7.,.,.,.,.,.,.,.,.,.,.,.,.f.d.d.d.d."
};
