/* XPM */
static char *rcp030040004288[] = {
/* columns rows colors chars-per-pixel */
"64 64 203 2 ",
"   c #1B132A",
".  c #191227",
"X  c #231925",
"o  c #251C29",
"O  c #27193C",
"+  c #281C3D",
"@  c #1C2634",
"#  c #26232F",
"$  c #29242E",
"%  c #2B2327",
"&  c #2C2533",
"*  c #272633",
"=  c #312638",
"-  c #2E3535",
";  c #353432",
":  c #3B3235",
">  c #38313B",
",  c #363639",
"<  c #32282B",
"1  c #423A3B",
"2  c #38433C",
"3  c #5A4E16",
"4  c #574D1A",
"5  c #554E1C",
"6  c #62571D",
"7  c #675B18",
"8  c #67611B",
"9  c #5B5521",
"0  c #424533",
"q  c #685E25",
"w  c #4D7536",
"e  c #686625",
"r  c #746924",
"t  c #7E742C",
"y  c #79762A",
"u  c #2B1D42",
"i  c #2F2149",
"p  c #31244C",
"a  c #342A4E",
"s  c #3B2D44",
"d  c #362B54",
"f  c #382C57",
"g  c #3A2F5A",
"h  c #372656",
"j  c #33354A",
"k  c #3F3162",
"l  c #462D6C",
"z  c #403263",
"x  c #44346A",
"c  c #493671",
"v  c #334F57",
"b  c #354E4E",
"n  c #5C417D",
"m  c #507D7B",
"M  c #837831",
"N  c #768334",
"B  c #5C8241",
"V  c #6E8243",
"C  c #7D9345",
"Z  c #7C984B",
"A  c #6C8B54",
"S  c #668556",
"D  c #6E965B",
"F  c #749959",
"G  c #738D55",
"H  c #59AF46",
"J  c #7FAB5E",
"K  c #6AAE4F",
"L  c #58877A",
"P  c #6E976F",
"I  c #73996C",
"U  c #7A9A6F",
"Y  c #75936E",
"T  c #679175",
"R  c #6B9472",
"E  c #719671",
"W  c #799F7B",
"Q  c #77A565",
"!  c #79A564",
"~  c #7AA962",
"^  c #7DBF62",
"/  c #7DA278",
"(  c #8E8339",
")  c #91883F",
"_  c #958C49",
"`  c #819646",
"'  c #859A43",
"]  c #9C954C",
"[  c #968950",
"{  c #938750",
"}  c #9D9652",
"|  c #999455",
" . c #A5984D",
".. c #AA9F5C",
"X. c #A69C55",
"o. c #8BA549",
"O. c #8AA448",
"+. c #93AC49",
"@. c #94A94A",
"#. c #96B54E",
"$. c #9AB64E",
"%. c #9CB94E",
"&. c #8DAE57",
"*. c #81AB5E",
"=. c #8AAD5C",
"-. c #95AC57",
";. c #91A15F",
":. c #9AA758",
">. c #8FB056",
",. c #8CB058",
"<. c #95B651",
"1. c #9AB651",
"2. c #9EB850",
"3. c #92B35B",
"4. c #A7A44C",
"5. c #A0B94F",
"6. c #ABA254",
"7. c #ABA75A",
"8. c #B3AA5B",
"9. c #B3AB57",
"0. c #A2B652",
"q. c #A3B950",
"w. c #AEB55C",
"e. c #ABBB56",
"r. c #B3BA56",
"t. c #B4B55D",
"y. c #BCB75B",
"u. c #B6B959",
"i. c #BDBA5A",
"p. c #B5B054",
"a. c #829E6B",
"s. c #8B9F63",
"d. c #909F61",
"f. c #938262",
"g. c #AC9C71",
"h. c #AA9F69",
"j. c #82AA62",
"k. c #89AC61",
"l. c #80A764",
"z. c #89B26B",
"x. c #93B468",
"c. c #85A67B",
"v. c #99BC79",
"b. c #ABA468",
"n. c #B5AD62",
"m. c #B6AB64",
"M. c #ACB160",
"N. c #B5B362",
"B. c #BAB362",
"V. c #BABB6A",
"C. c #B2A479",
"Z. c #BBAF72",
"A. c #BEBB72",
"S. c #C0BB5C",
"D. c #C0B768",
"F. c #C3BB6A",
"G. c #C6C367",
"H. c #C8C875",
"J. c #5C3D8E",
"K. c #5E3F93",
"L. c #623F98",
"P. c #5F4094",
"I. c #684C8D",
"U. c #674B8C",
"Y. c #6A5389",
"T. c #604294",
"R. c #64429A",
"E. c #6A4F93",
"W. c #6C5099",
"Q. c #735D92",
"!. c #765897",
"~. c #76598D",
"^. c #7A6193",
"/. c #6945A2",
"(. c #856B8C",
"). c #588983",
"_. c #76A689",
"`. c #8CAB85",
"'. c #D7D987",
"]. c #CDD68B",
"[. c #E1DF9E",
"{. c #DDE695",
"}. c #DEE38D",
"|. c #E2E38D",
" X c #E4EA94",
".X c #EAEC95",
"XX c #E6E99A",
"oX c #E7F19F",
"OX c #EDF19B",
"+X c #F1F49C",
"@X c #DBE6B7",
"#X c #DCECB4",
"$X c #E4E8A8",
"%X c #F6FBA5",
"&X c #F9FEA5",
"*X c #F9FEAC",
"=X c #F2F5A1",
"-X c #E8EEB7",
";X c #EDF3B6",
":X c #F3F4BC",
">X c #ECF3C4",
",X c #FAFECA",
"<X c #FBFEC7",
/* pixels */
"%.%.%.%.>.R T T T R &.&.R T T T E t.i.i.i.i.t.U E T U t.S.i.S.S.i.t.a.1.i.S.i.i.i.i.i.i.u.%.%.%.%.%.%.%.%.q.u.S.i.i.i.S.S.S.i.u.",
"<.<.%.3.I T E E T T R R T E E T E M.i.i.i.i.i.t.M.a.M.i.S.S.i.S.i.i.t.u.i.S.S.i.i.i.i.i.u.q.%.%.%.%.%.u.u.u.i.i.i.i.S.S.i.i.u.q.",
"R I =.I T U M.M.U T T T U M.M.U E U t.i.i.i.y.n.y.t.y.n.y.i.i.i.i.i.i.i.S.S.i.i.S.i.S.S.i.i.u.5.%.%.5.u.u.u.u.u.u.u.u.u.u.q.%.<.",
"T E I T E M.i.i.M.U E U M.i.i.t.M.a.t.i.i.i.n.(.b.y.n.(.b.y.u.u.u.u.i.i.S.S.i.u.u.i.S.S.S.S.i.q.%.%.%.5.5.5.5.%.%.5.5.5.5.%.<.I ",
"U M.M.U U t.i.i.i.t.t.t.i.i.i.i.i.t.i.i.i.u.b.E.!.h...E.!.b.0.5.%.q.u.i.i.i.t.k.k.t.i.i.i.i.i.i.u.u.q.%.%.%.%.%.%.%.%.5.2.<.&.R ",
"t.i.i.t.t.u.u.u.i.S.i.i.i.u.u.u.i.i.i.i.t.k.A a K.I.s z T.Q.;.$.%.%.q.u.u.w.k.~ ~ k.u.i.i.i.S.i.u.u.r.%.%.%.%.%.%.%.q.u.t.a.U E ",
"i.i.S.i.u.q.%.q.u.i.S.i.u.q.%.2.2.t.u.w.k.D - d x K.J.h z T.Q.;.$.<.<.<.j.j.~ ~ ~ j.t.u.u.u.u.u.q.%.%.%.%.%.%.5.q.u.u.i.i.t.t.t.",
"i.i.i.u.q.%.%.%.q.i.S.u.q.%.<.*.~ j.j.j.~ D * d g x K.J.g x T.Q.s.*.~ ~ ~ ~ ~ ~ ~ ~ <.%.%.%.5.5.%.%.%.%.%.%.q.u.u.u.u.u.i.S.i.i.",
"u.u.q.%.%.%.%.%.%.u.u.u.%.<.*.~ ~ ~ ~ ~ ! S * d g g x K.R.K.l R.Y.Y ! ~ ~ ~ ~ ~ ~ ~ J <.%.%.%.%.%.%.%.%.%.q.u.i.u.q.%.q.u.i.i.i.",
"%.%.%.%.%.%.%.%.%.%.q.r.2.<.~ ~ ~ ~ ~ ~ D - + f g g g x P.R.R.R.l Y.E I ! 3.<.*.~ ~ ~ J <.<.%.%.%.%.%.%.r.u.u.u.q.%.%.%.q.u.u.u.",
"%.%.%.%.%.%.<.<.<.<.<.<.*.~ ~ ~ ~ ~ ~ ~ D # u d g g g g k x K.L.R./.W.W.Q.d.-.<.<.*.~ ~ *.*.1.%.%.%.%.%.%.%.%.%.%.%.%.%.%.%.%.%.",
"%.%.%.%.%.1.*.*.*.~ ~ ~ ~ ~ ~ J <.<.<.J D # O u d g g g g d p h K.R.R.R.R.E.Q.d.-.<.<.<.<.<.%.%.%.%.%.%.%.%.<.<.<.%.%.%.%.%.%.%.",
"%.%.%.%.%.%.<.<.<.*.~ ~ ~ ~ ~ <.%.%.%.<.F # O u u d f f f p d g k z z z z x T.E.Q.;.$.%.%.%.%.%.%.%.%.%.%.<.*.~ *.<.%.%.%.%.%.%.",
"%.%.%.%.%.%.%.%.%.1.<.<.*.~ *.<.%.%.%.<.F $ O u u u u i f f g g g g g g g g k x T.Q.;.$.%.%.<.<.<.%.%.%.<.J ~ ~ ~ *.<.%.%.%.%.%.",
"%.%.%.%.%.q.u.u.q.%.%.%.1.1.2.%.%.%.%.%.O.$ O u u u u d g g g g g g g g g g g g c R.Q.-.%.<.*.~ *.<.<.<.J ~ ~ ~ ~ ~ <.%.%.%.%.%.",
"%.%.%.%.q.u.i.i.u.q.%.%.q.u.u.u.u.q.%.%.O.$ O u u u d g g g g g g g g g g g k x I.W.^.-.<.J ~ ~ ~ ~ ~ ~ ~ ~ ~ ~ ~ ~ <.<.<.%.%.%.",
"<.<.q.u.i.i.i.i.i.i.u.u.u.i.i.i.u.r.w.1.o.; + u d f g g g g g g g g g g k x U.~.g.b.:.<.J ~ ~ ~ ~ ~ ~ ~ ~ ~ ~ ~ ~ ~ ~ ~ *.<.<.<.",
"*.=.r.u.u.i.i.i.i.S.S.i.i.i.i.t.k.j.j.*.>.V * d g g g g g g g g g g g x I.^.g.Z..X.XN.*.~ ~ ~ ~ ~ ~ ~ ~ ~ ~ ~ ~ ~ ~ ~ ~ ~ ~ ~ ~ ",
"<.1.%.5.q.u.i.i.i.i.i.i.u.u.w.k.~ ~ ~ ~ F , a g g g g g g g g g g g k I.C.XXOX.XXX$XV.l.! ~ ~ ~ ~ ~ ~ ~ ~ ~ ~ ~ ~ ~ ~ ~ ~ ~ ~ ~ ",
"%.%.5.5.5.e.u.i.i.i.i.u.0.=.*.*.<.<.<.J S * d g g g g g g g g g g g x ^.XX&X+XF.) _ './ Q ~ ~ ~ ~ ~ ~ ~ ~ Q Q Q Q ! ~ ~ J <.<.<.",
"%.q.u.u.u.i.i.i.S.S.i.q.%.<.<.<.%.%.<.O.; + f g g g g g g g g g g k I.C.+X&X&X+X|..XoXW P =.3.3.3.3.<.<.&.P R R R Q Q ~ <.%.%.%.",
"u.u.i.i.S.S.S.S.S.i.u.%.%.%.%.%.%.1.*.A # u f g g g g g g g g g g k !.[.%X.XXX$XA.+XoXW T R R R R I >.>.I E E E T R R ! <.%.%.%.",
"u.u.u.u.i.i.i.i.i.u.q.%.%.%.%.%.%.$.C ; u d g g g g g g g g g g d g ^.$XOX_ N K w  XoXW T T E E E E R R U M.t.M.U T T P 3.2.q.u.",
"5.%.%.%.q.u.i.i.i.u.q.%.%.%.%.%.$.` ; a f g g g g g g g g g g d f Y.C.+X*X#X^ H w {.oXc.T U M.t.t.M.U U M.i.i.i.M.U E E a.t.u.u.",
"%.%.%.%.%.q.u.u.i.i.u.q.u.u.q.$.` ; O u d g g g g g g g g g d f Y.g..X*X<X,X#X^ B  X%X].a.w.i.S.i.i.t.t.i.S.S.S.i.t.t.t.t.u.q.5.",
"5.5.%.%.%.%.%.q.u.i.i.u.u.u.r.@.0 + u u u d g g g g g g g f p n f.n..X&X*X*X,X;XXX%X;X_ M p.i.i.i.i.i.i.S.S.S.S.i.i.i.i.i.u.5.5.",
"u.u.q.%.%.%.%.%.q.u.u.u.q.5.q.e.` ; O u u u d f g g g g g g d p : [ D..X&X&X*X*X&X&X&X|.8.y.i.i.i.i.i.i.i.i.S.S.i.i.S.i.S.i.q.u.",
"S.i.u.5.%.%.%.%.%.5.5.5.%.%.%.%.$.` ; O O u u u d g g g g g g d u : [ D..X&X&X&X&X&X&X.XB.y.i.u.u.i.i.i.i.u.u.i.i.i.S.S.S.i.u.i.",
"S.S.u.5.%.q.u.u.q.%.%.%.%.%.%.%.%.$.` ; $ O O u u d f f g g g g d u : [ D..X&X&X&X&X.XF.y.u.u.q.q.u.u.i.u.q.q.u.i.S.S.S.i.i.i.i.",
"S.S.i.q.q.u.i.i.u.u.q.%.%.%.%.%.%.%.$.o.C ; $ O O u u u d f g f f d + : { m..X+X+X.XV.y.u.q.%.%.%.%.q.r.q.%.%.q.i.S.S.S.i.i.i.i.",
"S.S.i.i.u.i.i.i.i.u.u.u.u.u.u.u.u.u.r.%.$.o.C ; $ O O O u u u u u u O O $ : | B.N.e.q.u.q.%.%.%.%.%.%.%.%.%.%.5.u.S.S.S.i.u.u.u.",
"u.u.u.u.u.u.u.u.u.q.%.%.2.1.2.1.1.1.%.%.%.%.$.o.C ; $ $               . .   ; @.$.%.%.r.%.%.%.%.%.%.%.%.%.%.%.5.u.u.u.u.u.q.%.%.",
"5.%.%.%.%.%.%.%.%.%.<.<.*.~ ~ ~ ~ *.<.%.<.<.<.<.$.O.O.V # O O O O O O   @ j b &.%.%.%.%.%.%.%.%.%.%.%.%.%.%.%.%.%.%.%.%.%.%.%.%.",
"%.%.%.%.%.%.%.%.<.<.*.~ ~ ~ ~ ~ ~ ~ J <.*.~ ~ *.<.%.o.; O u u u u u O   * b m _.3.%.%.%.<.<.<.%.%.%.%.%.%.%.%.%.%.%.%.%.%.%.%.%.",
"%.%.%.%.%.%.%.<.*.~ ~ ~ ~ ~ ~ ~ ~ ~ ~ ~ ~ ~ ~ ~ *.1.` $ O u u u u u O X 5 - v )._.<.%.<.*.~ J <.%.%.%.%.%.%.%.%.%.%.%.%.%.%.%.%.",
"%.%.%.%.%.<.<.J ~ ~ ~ ~ ~ ~ ~ ~ ~ ~ ~ ~ ~ ~ ~ ~ j.:.: + u u u u d u O X 3 5 - v L =.<.J ~ ~ ~ J <.%.%.%.%.%.%.<.<.<.%.%.%.%.%.%.",
"%.%.%.<.<.*.~ ~ ~ ~ J <.<.<.<.<.J ~ ~ ~ ~ ~ ~ ~ ! A # O u u d u f d u X 3 7 e 2 b F ~ *.<.<.J ~ J <.%.%.%.%.<.*.~ *.<.%.%.%.<.<.",
"<.%.1.*.*.~ ~ ~ ~ *.<.%.%.%.%.%.<.~ ~ J <.<.<.*.F - + u d f d i f f u X q X.'.7.F J *.<.%.%.<.*.~ *.1.%.%.<.J ~ ~ ~ J <.<.<.*.~ ",
"*.<.<.<.<.<.<.<.<.<.%.%.%.%.%.%.<.*.*.<.%.%.%.#.C & p i f f i d g f + < ] F..XB.1.<.<.%.%.<.<.<.<.<.%.%.<.*.~ ~ ~ ~ ~ ~ ~ ~ ~ ~ ",
"~ *.*.*.1.%.%.%.%.%.%.%.%.%.%.%.%.<.<.%.%.%.%.O.; a g f g f i f g d o 9 n.OX:XA.1.%.<.<.<.*.~ ~ *.<.%.%.<.~ ~ ~ ~ ~ ~ ~ ~ ~ ~ ~ ",
"<.<.<.<.%.%.%.%.<.<.<.<.<.%.%.<.<.<.%.%.%.%.1.S * d g g g g d g g d o q '.&X,X-Xv.<.*.~ ~ ~ ~ ~ ~ J <.<.J ~ ~ J <.<.<.*.~ ~ ~ ~ ",
"%.%.%.%.%.%.%.3.I R / c.c.>.>.I R I 3.%.q.u.6.: a g g g g f p f g d o 6 8..X*X,X-Xz.~ ~ ~ ~ ~ ~ ~ ~ ~ ~ ~ ~ ~ <.%.%.%.<.<.<.<.1.",
"%.%.%.%.%.<.3.I E `.@X>X@X`.E E E T I 1.u.y.] = d g g g g g f g g d o 3 r B..X*X>Xv.~ ~ ~ ~ ~ ~ ~ ~ ~ ~ ~ ~ *.<.%.%.%.%.%.%.%.%.",
"%.%.<.<.>.I I U V.-X*X*X*X@Xc.M.M.U U t.y.} 1 d g g g g g g g g g d o 3 r  .F.=X<X@Xz.<.<.*.*.<.<.<.J ~ ~ ~ 3.<.<.<.<.<.<.%.%.%.",
"2.3.I I I U M.t.G.OX&X&X&X=XH.y.i.t.t.y.} 1 d g g g g g g g g g g d o r H.) 6..X=XA.k.1.%.<.<.%.%.%.<.~ ~ ~ ~ ~ ~ ~ ~ ~ *.<.<.<.",
"t.a.U M.t.t.i.S.S.G..X+X+X&X;XG.i.i.y.} 1 d g g g g g g g g g g g d & X.OX'.( 8. X8.t.q.%.%.%.%.%.%.<.~ ~ ~ ~ ~ j.j.j.j.j.*.*.*.",
"u.t.t.u.u.u.i.i.u.t.x.x.V..X+XG.i.t.| : d g g g g g g g g g g g g d & ..+X+X6.M H.( p.u.r.%.%.%.%.%.<.~ j.j.j.k.w.u.u.u.u.u.u.u.",
"%.%.%.%.%.q.u.u.=.*.~ k.7.F.}.V.w.G , d g g f g g g g g g g g g g d & ..+X+X8.r t 4.u.u.q.%.%.%.%.1.*.j.w.r.r.r.u.u.u.u.u.u.u.u.",
"%.%.%.%.%.%.5.%.1.<.<.<.X.X.8.=.A - d g g f p f g g g f g g f g g d & ..+X+XB.@.+.1.1.1.<.%.%.%.%.%.<.1.%.%.%.%.%.%.%.%.%.%.5.5.",
"%.%.%.%.%.%.%.%.%.%.%.+.y r ] ` ; a g g g f f g g g f p f f p f g d & | OX+XB.*.~ ~ ~ ~ *.<.%.%.%.%.%.%.%.%.%.%.%.%.%.%.%.%.%.5.",
"u.u.u.q.%.%.%.%.%.%.%.$.O.8 7 6 o d g g d p f g g g f f g g d g g g a 1  X+XN.j.~ j.j.j.~ <.%.%.%.%.%.%.%.%.%.%.%.%.%.%.%.%.q.u.",
"S.i.i.u.q.%.%.%.%.%.%.<.+.e 7 3 % + d d p d g g g f i f g f i f g g d > {.+XN.k.k.w.u.w.=.1.%.%.%.%.%.%.%.%.%.%.%.%.%.%.%.q.u.i.",
"u.u.u.i.u.u.u.q.%.%.1.*.*.Z e 8 9 < + u d g g g g d i f g d i f g g d > {.+XB.2.r.i.i.i.u.q.%.%.%.%.%.%.%.%.%.%.%.%.r.u.u.u.i.i.",
"%.5.q.u.i.i.i.u.q.%.%.<.<.#.+.+.+.C ; O u d f f d i d g f i d g g g d > '..X8.0.u.i.i.i.i.u.%.%.%.%.%.%.%.%.%.%.%.%.%.q.u.u.i.u.",
"%.%.%.q.u.u.u.u.r.%.%.%.%.%.%.%.%.$.` ; $ + u u u O u d d u d g g g d s ..X.t 4.i.u.u.u.i.u.q.%.%.%.%.%.%.%.%.%.%.%.%.%.%.q.r.q.",
"%.%.%.%.5.5.5.5.%.%.%.%.%.%.%.%.%.%.$.o.C ; $ $ $ o O u u O u d f d u s { r 7 t t.x.j.k.t.i.u.u.u.u.q.%.%.%.%.1.<.1.%.%.%.%.%.%.",
"%.%.%.%.%.%.%.%.%.%.%.%.%.%.%.%.%.%.%.%.$.o.O.O.' 9 % X X X O u u u O = q 7 r 6. X{.z.~ k.w.u.u.u.u.r.r.r.r.w.*.~ J <.<.<.<.<.%.",
"<.<.<.<.<.<.<.<.%.%.%.%.%.%.%.%.%.%.%.%.%.%.%.%.$.O.e 6 6 4 % # # # # ; C y  .n..X{.z.~ ~ j.j.j.j.j.j.j.j.j.j.~ ~ ~ ~ ~ ~ ~ *.<.",
"~ ~ ~ ~ *.*.*.*.1.%.%.%.%.%.%.%.%.%.%.%.%.%.%.%.%.$.+.4.X.] e A F F O.O.#.+.7.8.N.x.~ ~ ~ ~ ~ ~ ~ ~ ~ ~ ~ ~ ~ ~ ~ ~ ~ ~ ~ ~ ~ ~ ",
"~ ~ ~ *.<.<.<.<.%.%.%.%.%.%.%.%.%.%.%.%.%.%.%.%.%.%.%.$.1.1.+.#.<.<.%.%.%.%.$.1.1.<.J ~ ~ ~ ~ ~ ~ ~ ~ ~ ~ ~ ~ ~ ~ ~ ~ ~ ~ ~ ~ ~ ",
"<.<.<.<.%.%.%.%.%.%.%.%.%.%.%.%.%.%.<.<.<.<.<.%.%.%.%.<.<.<.<.<.%.%.%.%.%.%.%.%.%.%.<.~ ~ J <.<.<.<.J ~ ~ ~ ~ ~ ~ ~ ~ ~ ~ *.<.1.",
"%.%.%.%.%.%.%.%.%.%.%.%.%.%.%.%.<.>.I R R R I 3.%.%.3.I R R R I 3.%.%.%.%.q.u.u.u.q.<.~ ~ <.%.%.%.%.<.*.<.<.<.*.*.<.<.<.<.<.%.%.",
"%.%.%.%.%.%.%.%.%.%.%.%.%.%.%.3.I R E E E T T I >.>.I T E E E E I 3.%.%.q.u.i.i.i.u.2.k.~ <.%.%.%.%.%.1.%.%.%.<.<.%.%.%.%.%.%.5.",
"%.%.%.%.%.%.%.%.%.%.%.%.%.%.<.I T E M.t.M.E T T R R T E M.t.t.M.E I <.%.u.i.i.i.i.i.u.w.j.*.<.%.%.%.%.%.%.%.%.%.%.%.%.u.u.u.u.u."
};
