/* XPM */
static char *rcp03004670759163[] = {
/* columns rows colors chars-per-pixel */
"64 64 203 2 ",
"   c #1B132A",
".  c #191227",
"X  c #231926",
"o  c #251C2A",
"O  c #271A3C",
"+  c #281C3D",
"@  c #1C2634",
"#  c #27232F",
"$  c #29252E",
"%  c #2C2226",
"&  c #312A2C",
"*  c #262331",
"=  c #2E2532",
"-  c #2A2935",
";  c #322A39",
":  c #2E3734",
">  c #343432",
",  c #3B3234",
"<  c #3B3835",
"1  c #38313B",
"2  c #35343B",
"3  c #423A3C",
"4  c #38443B",
"5  c #5A4E16",
"6  c #564D18",
"7  c #524C1D",
"8  c #675B1D",
"9  c #6B621C",
"0  c #504C2B",
"q  c #695E24",
"w  c #4D7536",
"e  c #6A6625",
"r  c #756B27",
"t  c #77762D",
"y  c #2B1D42",
"u  c #2F2149",
"i  c #31244C",
"p  c #332A4E",
"a  c #3C2F45",
"s  c #362A54",
"d  c #382C57",
"f  c #3A2F5A",
"g  c #372655",
"h  c #333648",
"j  c #3F3162",
"k  c #403263",
"l  c #443469",
"z  c #493671",
"x  c #334F57",
"c  c #364E4D",
"v  c #5E7A4F",
"b  c #514471",
"n  c #5C417D",
"m  c #507D7B",
"M  c #83782F",
"N  c #768334",
"B  c #5C8241",
"V  c #708141",
"C  c #7E9445",
"Z  c #799149",
"A  c #678854",
"S  c #6B8B53",
"D  c #6E965C",
"F  c #759A5A",
"G  c #59AF46",
"H  c #7BA55D",
"J  c #7FAB5E",
"K  c #6AAE4F",
"L  c #57877A",
"P  c #6E976F",
"I  c #73996C",
"U  c #7A9A6E",
"Y  c #799666",
"T  c #679175",
"R  c #6B9472",
"E  c #719671",
"W  c #799F7A",
"Q  c #7B9B70",
"!  c #738F61",
"~  c #77A465",
"^  c #7AA663",
"/  c #7AA962",
"(  c #7DBF62",
")  c #8D8339",
"_  c #91883F",
"`  c #968E49",
"'  c #819646",
"]  c #96944F",
"[  c #968950",
"{  c #938750",
"}  c #8C9D5A",
"|  c #9D9552",
" . c #979354",
".. c #AA9F5C",
"X. c #A69B54",
"o. c #A6994E",
"O. c #86A34C",
"+. c #8AA44A",
"@. c #8CA343",
"#. c #92A948",
"$. c #95B44F",
"%. c #9AB64E",
"&. c #9CB94E",
"*. c #8DAE57",
"=. c #81AB5E",
"-. c #8BAD5B",
";. c #84A256",
":. c #95AC57",
">. c #93A35F",
",. c #97AB58",
"<. c #8FB056",
"1. c #95B651",
"2. c #9AB751",
"3. c #9EB850",
"4. c #99B65C",
"5. c #A0B94F",
"6. c #A9A657",
"7. c #B4AA5B",
"8. c #B0A759",
"9. c #A3B752",
"0. c #A3B950",
"q. c #AEB65C",
"w. c #A5BE5B",
"e. c #B3B254",
"r. c #B3BA56",
"t. c #B4B55D",
"y. c #BCB75A",
"u. c #B6B959",
"i. c #BDBA5A",
"p. c #829E6B",
"a. c #909F61",
"s. c #938262",
"d. c #AC9C71",
"f. c #82AA62",
"g. c #88AC61",
"h. c #85A067",
"j. c #88B16E",
"k. c #92B46D",
"l. c #95B568",
"z. c #96B977",
"x. c #8EAC7D",
"c. c #AAA662",
"v. c #B4AB63",
"b. c #B4AA64",
"n. c #ACB160",
"m. c #B5B363",
"M. c #BAB362",
"N. c #BDBD68",
"B. c #B2A479",
"V. c #BBAF72",
"C. c #BDBC74",
"Z. c #B8B570",
"A. c #A5BE76",
"S. c #C0B768",
"D. c #C3BB6A",
"F. c #C4BC70",
"G. c #A8C25A",
"H. c #CACA77",
"J. c #5B3E8D",
"K. c #5E3E92",
"L. c #5F4293",
"P. c #684C8D",
"I. c #654C8D",
"U. c #6C5A8C",
"Y. c #6D5282",
"T. c #604293",
"R. c #694F93",
"E. c #65459A",
"W. c #6C519A",
"Q. c #745E91",
"!. c #73559A",
"~. c #755A8A",
"^. c #7C6194",
"/. c #6845A1",
"(. c #578883",
"). c #73A48B",
"_. c #D3D98C",
"`. c #D9D984",
"'. c #D0CF87",
"]. c #E1DF9E",
"[. c #DEE394",
"{. c #E2E38D",
"}. c #E5EC94",
"|. c #EAEB95",
" X c #E6E99A",
".X c #EDF39B",
"XX c #E7F19F",
"oX c #F1F49C",
"OX c #CCDBA4",
"+X c #DAE4AF",
"@X c #DCEBB5",
"#X c #E4EEAE",
"$X c #E6E6A6",
"%X c #F6FBA5",
"&X c #F9FEA5",
"*X c #F9FEAC",
"=X c #F3F5A1",
"-X c #E2ECB5",
";X c #E7EDB9",
":X c #EFF5BC",
">X c #EDF4C2",
",X c #FAFECA",
"<X c #FBFEC7",
/* pixels */
"&.&.&.&.<.R T T T R *.*.R T T T E t.i.i.i.i.t.U E T U t.i.i.i.i.i.t.p.2.i.i.i.i.i.i.i.i.u.&.&.&.&.&.&.&.&.0.u.i.i.i.i.i.i.i.i.u.",
"1.1.&.1.I T E E T T R R T E E T E n.i.i.i.i.i.t.n.p.n.i.i.i.i.i.i.i.t.u.i.i.i.i.i.i.i.i.u.0.&.&.&.&.&.u.u.u.i.i.i.i.i.i.i.i.u.0.",
"R I -.I T U n.n.U T T T U n.n.U E U t.i.i.i.i.i.i.t.i.i.i.i.i.i.i.i.i.i.i.i.i.i.i.i.i.i.i.i.u.5.&.&.5.u.u.u.u.u.u.u.u.u.u.0.&.1.",
"T E I T E n.i.i.n.U E U n.i.i.t.n.p.t.i.i.i.i.i.i.i.i.i.i.i.i.u.u.u.i.i.i.i.i.u.u.i.i.i.i.i.i.0.5.&.&.5.5.5.5.&.5.5.5.5.5.&.1.I ",
"U n.n.U U t.i.i.i.t.t.t.i.i.i.i.i.t.i.i.i.u.t.t.u.i.i.i.i.u.0.5.&.0.u.i.i.i.t.g.g.t.i.i.i.i.i.i.u.u.0.&.&.&.&.&.&.&.&.5.3.1.*.R ",
"t.i.i.t.t.u.u.u.i.i.i.i.i.u.u.u.u.i.v.b.c.p.U Y h.q.u.u.u.0.&.&.&.&.0.u.u.q.g./ / g.u.i.i.i.i.i.u.u.r.&.&.&.&.&.&.&.0.u.t.p.I E ",
"i.i.i.i.u.0.&.0.u.i.i.i.u.0.&.3.3.c.~.R.R.R.I.b U.Y ,.9.r.5.&.&.&.1.1.1.g.f./ / / f.t.u.u.u.u.u.0.&.&.&.&.&.&.5.0.u.u.i.i.t.t.t.",
"i.i.i.u.0.&.&.&.0.i.i.u.0.&.1.=./ F ; f k k l J.L.b U.} ,.%.&.&.1.=./ / / / / / / / 1.5.&.&.5.5.&.&.&.&.&.&.0.u.u.u.u.u.i.i.i.i.",
"u.u.0.&.&.&.&.&.&.u.u.u.&.1.=./ / D * s f f f j l J.T.b U.} :.1.J / / / / / / / / / J 1.&.&.&.&.&.&.&.&.&.0.u.i.u.0.&.0.u.i.i.i.",
"&.&.&.&.&.&.&.&.&.&.0.r.3.1./ / / D : y s f f f f j l J.T.b U.Y I ~ / / J 1.1.=./ / / J 1.1.&.&.&.&.&.&.r.u.u.u.0.&.&.&.0.u.u.u.",
"&.&.&.&.&.&.1.1.1.1.1.1.=./ / / / H A * y s f f f f f j l J.L.b U.E I U -.%.&.1.1.=./ / =.=.2.&.&.&.&.&.&.&.&.&.&.&.&.&.&.&.&.&.",
"&.&.&.&.&.2.=.=.=./ / / / / / J 1.1.O.> O y s d f f f f f j k J./.W.W.W.Q.a.:.%.&.1.1.1.1.1.&.&.&.&.&.&.&.&.1.1.1.&.&.&.&.&.&.&.",
"&.&.&.&.&.&.1.1.1.=./ / / / / 1.&.&.%.Z * O y y s d f f f s i g K.E.E.E.E.R.Q.a.:.%.&.&.&.&.&.&.&.&.&.&.&.1.=./ =.1.&.&.&.&.&.&.",
"&.&.&.&.&.&.&.&.&.2.1.1.=./ =.1.&.&.&.+.> O y y y y s d d i s f j k k k k l T.R.Q.>.%.&.&.&.1.1.1.&.&.&.1.J / / / =.1.&.&.&.&.&.",
"&.&.&.&.&.0.u.u.0.&.&.&.2.2.3.&.&.&.&.%.C $ O y y y y u d d f f f f f f f f j l T.Q.>.%.&.1.=./ =.1.1.1.J / / / / / 1.&.&.&.&.&.",
"&.&.&.&.0.u.i.i.u.0.&.&.0.u.u.u.u.0.&.&.+.$ O y y y y s f f f f f f f f f f f f z E.Q.:.1.J / / / / / / / / / / / / 1.1.1.&.&.&.",
"1.1.0.u.i.i.i.i.i.i.u.u.u.i.i.i.u.r.q.2.+.$ O y y y s f f f f f f f f f f f j l P.!.Q.-.J / / / / / / / / / / / / / / / =.1.1.1.",
"=.-.r.u.i.i.i.i.i.i.i.i.i.i.i.t.g.f.f.=.O.> O y s d f f f f f f f f f f j l P.~.d.b.>.f./ / / / / / / / / / / / / / / / / / / / ",
"2.2.&.5.0.u.i.i.i.i.i.i.u.u.q.g./ / / / H v - s f f f f f f f f f f f l P.^.d.V.|.|.m./ ^ / / / / / / / / / / / / / / / / / / / ",
"&.&.&.&.5.0.i.i.i.i.i.u.9.-.=.=.1.1.1.=.F 2 p f f f f f f f f f f f j P.B. X.X|. X$XZ.I ~ / / / / / / / / ~ ~ ~ ~ ^ / / J 1.1.1.",
"5.0.u.u.u.u.i.i.i.i.i.0.&.$.1.1.&.&.1.1.Z = s f f f f f f f f f f f l ^. X&XoXD._ ` _.W P -.1.1.1.1.1.1.*.P R R R ~ ~ / 1.&.&.&.",
"u.u.i.i.i.i.i.i.i.i.u.5.&.&.&.&.&.2.=.F > + d f f f f f f f f f f j P.B.oX&X&XoX{.|.XXW T R R R R I <.<.I E E E T R R ~ 1.&.&.&.",
"u.u.u.u.u.i.i.i.i.i.0.&.&.&.&.&.&.&.$.Z * y d f f f f f f f f f f j !.].%X|. X#XC.oXXXW T T E E E E R R U n.t.n.U T T P 1.3.0.u.",
"5.&.&.&.0.u.i.i.i.i.0.&.&.&.&.&.&.%.' < y s f f f f f f f f f f s f ^.$X.X` N K w }.XXW T U n.t.t.n.U U n.i.i.i.n.U E E p.t.u.u.",
"&.&.&.&.&.0.u.u.i.i.u.0.u.u.0.&.%.' < p d f f f f f f f f f f s d Y.B.oX*X+X( G w [.oXx.Q n.i.i.i.i.t.t.i.i.i.i.i.t.t.t.t.u.0.5.",
"5.5.&.&.&.&.&.0.u.i.i.u.u.u.r.5.' > O y s f f f f f f f f f s d Y.d.|.*X<X,X@X( B }.%X_.q.y.i.i.i.i.i.i.i.i.i.i.i.i.i.i.i.u.5.5.",
"u.u.0.&.&.&.&.&.0.u.u.u.0.5.0.6.0 + y y y s f f f f f f f d g n s.M.|.&X*X*X,X:X X%X;X` M e.i.i.i.i.i.i.i.i.i.i.i.i.i.i.i.i.0.u.",
"i.i.u.5.&.&.&.&.&.5.5.5.&.&.&.%.' > O y y y s d f f f f f f s i , [ S.|.&X&X*X*X&X&X&X{.7.y.i.u.u.i.i.i.i.i.i.i.i.i.i.i.i.i.i.i.",
"i.i.u.5.&.0.u.u.0.&.&.&.&.&.&.&.%.' > O O y y y s f f f f f f s y , [ S.|.&X&X&X&X&X&X|.M.y.u.0.0.u.u.i.u.0.0.u.i.i.i.i.i.i.i.i.",
"i.i.i.0.0.u.i.i.u.u.0.&.&.&.&.&.&.%.' > $ O O y y s d d f f f f s y , [ S.|.&X&X&X&X|.D.t.0.&.&.&.&.0.r.0.&.&.0.i.i.i.i.i.i.i.i.",
"i.i.i.i.u.i.i.i.i.u.u.u.u.u.u.u.u.u.r.+.C > $ O O y y y s d d d d s + , { b.|.oXoX|.N.t.0.&.&.&.&.&.&.&.&.&.&.&.u.i.i.i.i.u.u.u.",
"u.u.u.u.u.u.u.u.u.0.&.&.3.2.2.2.2.2.&.&.%.+.C > $ O O O y y y y y y O O # , | M.m.w.0.r.&.&.&.&.&.&.&.&.&.&.&.&.u.u.u.u.u.0.&.&.",
"5.&.5.5.&.&.&.&.&.&.1.1.=./ / / / =.1.&.1.1.$.+.C > $ #               . .   < #.%.&.&.&.&.&.&.&.&.&.&.&.&.&.&.&.&.&.&.&.&.&.&.&.",
"&.&.&.&.&.&.&.&.1.1.=./ / / / / / / J 1.=./ / =.1.+.+.V # O O O O O O   @ h c *.&.&.&.&.1.1.1.&.&.&.&.&.&.&.&.&.&.&.&.&.&.&.&.&.",
"&.&.&.&.&.&.&.1.=./ / / / / / / / / / / / / / / =.2.#.> O y y y y y O   - c m ).l.&.&.1.=./ J 1.&.&.&.&.&.&.&.&.&.&.&.&.&.&.&.&.",
"&.&.&.&.&.1.1.J / / / / / / / / / / / / / / / / f.q.] = O y y y y y O X 7 : x (.).<.1.=./ / / J 1.&.&.&.&.&.&.1.1.1.&.&.&.&.&.&.",
"&.&.&.1.1.=./ / / / J 1.1.1.1.1.J / / / / / / / / F > O y y y y s y O X 6 6 : x L ~ / =.1.1.J / J 1.&.&.&.&.1.=./ =.1.&.&.&.1.1.",
"1.&.2.=.=./ / / / =.1.&.&.&.&.&.1./ / J 1.$.1.=.H A * O y y s y d s y X 5 8 e 4 c F =.1.&.&.1.=./ =.2.&.&.1.J / / / J 1.1.1.=./ ",
"=.1.1.1.1.1.1.1.1.1.&.&.&.&.&.&.1.=.=.1.&.&.&.1.+.> + y s d s u d d y X q X.`.6.+.1.1.&.&.1.1.1.1.1.&.&.1.=./ / / / / / / / / / ",
"/ =.=.=.2.&.&.&.&.&.&.&.&.&.&.&.&.1.1.&.&.&.&.1.Z - i u d d u s f d + & ` D.|.m.2.&.1.1.1.=./ / =.1.&.&.1./ / / / / / / / / / / ",
"1.1.1.1.&.&.&.&.1.1.1.1.1.&.&.1.1.1.&.&.&.&.2.! 2 p f d f d u d f s o 5 v..X:XC.g.1.=./ / / ^ / / J 1.1.J / / J 1.1.1.=./ / / / ",
"&.&.&.&.&.&.&.1.I R R R I <.<.I R I 1.&.0.u.t. .; s f f f f s f f s o q `.&X,X;Xz./ / ^ ^ ^ / / / / / / / / / 1.&.&.&.1.2.2.2.2.",
"&.&.&.&.&.1.1.I E E E E T R R E E T I 2.u.i.6.< p f f f f d i d f s o 8 8.|.*X,X-Xj./ / / / / / / / / / / / =.1.&.&.&.&.&.&.&.&.",
"&.&.1.1.<.I I U n.t.t.n.U E U n.n.U U t.i.y.| ; s f f f f f d f f s o 5 r M.|.*X>Xz./ 1.1.=.=.1.1.1.J / / / 1.1.1.1.1.1.1.&.&.&.",
"3.1.I I I U n.t.i.i.i.i.t.t.t.i.i.t.t.i.y.| 3 s f f f f f f f f f s o 5 r o.D.=X<X+Xk.2.&.1.1.&.&.&.1./ / / / / / / / / =.1.1.1.",
"t.p.U n.t.t.i.i.i.i.u.t.u.i.i.i.i.i.i.y.| 3 s f f f f f f f f f f s o r H._ 6.|.=XF.t.0.&.&.&.&.&.&.1./ / / / / f.f.f.f.f.=.=.=.",
"u.t.t.u.u.u.i.i.u.N.k.k.k.t.u.i.i.u.t.] < s f f f f f f f f f f f s = X..X`.) 7.}.7.y.u.r.&.&.&.&.&.1./ f.f.f.g.q.t.t.t.t.t.t.t.",
"&.&.&.&.3.0.u.t.A.-X>X>X-Xz.g.q.q.=.S 2 s f f f f f f f f f f f f s = ..oXoX6.M H.) e.u.0.&.&.&.&.2.=.=.q.r.r.r.u.u.u.u.u.u.u.u.",
"&.&.&.&.&.&.5.G.#X*X*X*X*X-Xz.g./ A 2 s f f d f f f f f f f f f f s = ..oXoX7.r t #.2.2.1.&.&.&.&.&.1.2.&.&.&.&.&.&.&.&.&.&.&.5.",
"&.&.&.&.&.&.&.G.}.&X&X&X&X*X#X4.S 2 s f f d i d f f f d f f d f f s = ..oXoXM.;.H J / / =.1.&.&.&.&.&.&.&.&.&.&.&.&.&.&.&.&.&.5.",
"u.u.u.0.&.&.&.&.G.}..X.XoXoX|.4.< p f f f d d f f f d i d d i d f s =  ..XoXm.f./ f.f.f./ 1.&.&.&.&.&.&.&.&.&.&.&.&.&.&.&.&.0.u.",
"i.i.i.u.0.&.&.&.&.G.G.w.m.7.M.C.; s f f s i d f f f d d f f s f f f p 3 {.oXm.g.g.q.t.q.-.2.&.&.&.&.&.&.&.&.&.&.&.&.&.&.&.0.u.i.",
"u.u.u.i.u.u.u.0.&.&.2.=.;.t 9 q % + s s i s f f f d u d f d u d f f s 1 [.oXM.3.r.i.i.i.u.0.&.&.&.&.&.&.&.&.&.&.&.&.r.u.u.u.i.i.",
"&.5.0.u.i.i.i.u.0.&.&.1.$.@.e 9 5 & + y s f f f f s u d f s u d f f s 1 [.oXM.9.u.i.i.i.i.u.&.&.&.&.&.&.&.&.&.&.&.&.&.0.u.i.i.u.",
"&.&.&.0.u.u.u.u.r.&.&.&.&.%.#.#.#.C > O y s d d s u s f d u s f f f s 1 _.oXM.y.i.u.t.u.i.u.0.&.&.&.&.&.&.&.&.&.&.&.&.&.&.0.r.0.",
"&.&.&.&.5.5.5.5.&.&.&.&.&.&.&.&.&.%.' > $ + y y y O y s s y s f f f s a b.{.N.t.q.g.f.g.t.i.u.u.u.u.0.&.&.&.&.2.1.2.&.&.&.&.&.&.",
"&.&.&.&.&.&.&.&.&.&.&.&.&.&.&.&.&.&.%.+.C > $ $ $ $ O y y O y s d s y a c.N.k.k.f./ / ^ g.q.t.t.t.u.r.r.r.r.q.=./ J 1.1.1.1.1.&.",
"1.1.1.1.1.1.1.1.&.&.&.&.&.&.&.&.&.&.&.&.%.+.+.+.+.C > $ $ # O y y y O a '.|.-X+Xz.^ / ^ / f.f.f.f.f.f.f.f.f.f./ / / / / / / =.1.",
"/ / / / =.=.=.=.2.&.&.&.&.&.&.&.&.&.&.&.&.&.&.&.&.%.+.+.F S > # # # $ < 6.M.M.C.OXj.^ / / / / / / / / / / / / / / / / / / / / / ",
"/ / / =.1.1.1.1.&.&.&.&.&.&.&.&.&.&.&.&.&.&.&.&.&.&.&.&.1.$.+.O.O.+.+.+.%.%.%.3.w.1.J ^ / / / / / / / / / / / / / / / ^ / / / / ",
"1.1.1.1.&.&.&.&.&.&.&.&.&.&.&.&.&.&.1.1.1.1.1.&.&.&.&.1.1.1.1.1.&.&.&.&.&.&.&.&.3.&.1./ / J 1.1.1.1.J / / / / / / / / / / =.1.2.",
"&.&.&.&.&.&.&.&.&.&.&.&.&.&.&.&.1.<.I R R R I 1.&.&.1.I R R R I 1.&.&.&.&.0.u.u.u.0.1./ / 1.&.&.&.&.1.=.1.1.1.=.=.1.1.1.1.1.&.&.",
"&.&.&.&.&.&.&.&.&.&.&.&.&.&.&.1.I R E E E T T I <.<.I T E E E E I 1.&.&.0.u.i.i.i.u.3.g./ 1.&.&.&.&.&.2.&.&.&.1.1.&.&.&.&.&.&.5.",
"&.&.&.&.&.&.&.&.&.&.&.&.&.&.1.I T E n.t.n.E T T R R T E n.t.t.n.E I 1.&.u.i.i.i.i.i.u.q.f.=.1.&.&.&.&.&.&.&.&.&.&.&.&.u.u.u.u.u."
};
