/* XPM */
static char *rcp03005467616200[] = {
/* columns rows colors chars-per-pixel */
"64 64 201 2 ",
"   c #1B132A",
".  c #191227",
"X  c #231925",
"o  c #251C29",
"O  c #27193C",
"+  c #281C3D",
"@  c #1C2634",
"#  c #26232F",
"$  c #29242E",
"%  c #2B2327",
"&  c #2C2533",
"*  c #272633",
"=  c #2E3535",
"-  c #353432",
";  c #3B3235",
":  c #38313C",
">  c #363639",
",  c #322831",
"<  c #423A3B",
"1  c #38433C",
"2  c #5A4E16",
"3  c #574D1A",
"4  c #554E1C",
"5  c #62571D",
"6  c #685C19",
"7  c #67611B",
"8  c #5B5521",
"9  c #424533",
"0  c #695E24",
"q  c #4D7536",
"w  c #686625",
"e  c #756A26",
"r  c #7C772C",
"t  c #2B1D42",
"y  c #2F2149",
"u  c #31244C",
"i  c #342A4E",
"p  c #3A2D43",
"a  c #362B54",
"s  c #382C57",
"d  c #3A2F5A",
"f  c #372656",
"g  c #33354A",
"h  c #3F3162",
"j  c #42374C",
"k  c #462D6C",
"l  c #403263",
"z  c #44346A",
"x  c #493671",
"c  c #334F57",
"v  c #354E4E",
"b  c #5C417D",
"n  c #507D7B",
"m  c #827B31",
"M  c #768334",
"N  c #5C8241",
"B  c #6E8243",
"V  c #7D9446",
"C  c #7C984B",
"Z  c #6C8B54",
"A  c #668556",
"S  c #6E965B",
"D  c #749959",
"F  c #738D55",
"G  c #59AF46",
"H  c #7FAB5E",
"J  c #6AAE4F",
"K  c #58877A",
"L  c #6E976F",
"P  c #73996C",
"I  c #7A9A6F",
"U  c #75936E",
"Y  c #679175",
"T  c #6B9472",
"R  c #719671",
"E  c #799F7B",
"W  c #77A565",
"Q  c #79A564",
"!  c #7AA962",
"~  c #7DBF62",
"^  c #7DA278",
"/  c #8E8339",
"(  c #91883F",
")  c #968E49",
"_  c #819646",
"`  c #859A46",
"'  c #9C954C",
"]  c #968950",
"[  c #938750",
"{  c #9D9653",
"}  c #999455",
"|  c #AA9F5C",
" . c #A69C55",
".. c #A6994E",
"X. c #8BA549",
"o. c #8AA448",
"O. c #93AC49",
"+. c #94A94A",
"@. c #96B54E",
"#. c #9AB64E",
"$. c #9CB94E",
"%. c #8DAE57",
"&. c #81AB5E",
"*. c #8AAD5C",
"=. c #95AC57",
"-. c #91A15F",
";. c #9AA758",
":. c #8FB056",
">. c #8CB058",
",. c #95B651",
"<. c #9AB651",
"1. c #9EB850",
"2. c #92B35B",
"3. c #A6A44D",
"4. c #A0B94F",
"5. c #ABA558",
"6. c #B4AB5A",
"7. c #A3B950",
"8. c #AEB55C",
"9. c #A6B954",
"0. c #B3BA56",
"q. c #B4B55D",
"w. c #BCB75B",
"e. c #B6B959",
"r. c #BDBA5A",
"t. c #B5B054",
"y. c #829E6B",
"u. c #8B9F63",
"i. c #909F61",
"p. c #938262",
"a. c #AC9C71",
"s. c #AA9F69",
"d. c #82AA62",
"f. c #89AC61",
"g. c #80A764",
"h. c #89B26D",
"j. c #94B46A",
"k. c #85A67B",
"l. c #99BC79",
"z. c #ABA468",
"x. c #B5AD62",
"c. c #B3A966",
"v. c #ACB160",
"b. c #B5B363",
"n. c #BAB262",
"m. c #BABB6A",
"M. c #B2A479",
"N. c #BBAF72",
"B. c #BEBB72",
"V. c #C0BB5C",
"C. c #C0B768",
"Z. c #C3BB6A",
"A. c #C1BC72",
"S. c #C6C367",
"D. c #C7C775",
"F. c #5C3D8E",
"G. c #5E3F93",
"H. c #623F98",
"J. c #5F4094",
"K. c #684C8D",
"L. c #674B8C",
"P. c #6A5389",
"I. c #604294",
"U. c #64429A",
"Y. c #6A4F93",
"T. c #6C5099",
"R. c #735D92",
"E. c #765897",
"W. c #76598D",
"Q. c #7A6193",
"!. c #6945A2",
"~. c #856B8C",
"^. c #588983",
"/. c #76A689",
"(. c #8CAB85",
"). c #D8D986",
"_. c #D3D88E",
"`. c #E1DF9E",
"'. c #DEE497",
"]. c #DEE38D",
"[. c #E2E38D",
"{. c #E4EA95",
"}. c #EAEC95",
"|. c #E6E99A",
" X c #E7F19F",
".X c #EDF19B",
"XX c #F1F49C",
"oX c #DCE7B7",
"OX c #DCECB4",
"+X c #E4E8A8",
"@X c #F2F5A1",
"#X c #F6FBA5",
"$X c #F9FEA5",
"%X c #F9FDAC",
"&X c #EDEFB3",
"*X c #E4EDBC",
"=X c #EEF3B7",
"-X c #F4F5BB",
";X c #ECF3C4",
":X c #FAFECA",
">X c #FBFEC7",
/* pixels */
"$.$.$.$.:.T Y Y Y T %.%.T Y Y Y R q.r.r.r.r.q.I R Y I q.r.r.V.V.r.q.y.<.r.V.r.r.r.r.r.r.e.$.$.$.$.$.$.$.$.7.e.V.r.r.r.V.V.V.r.e.",
",.,.$.2.P Y R R Y Y T T Y R R Y R v.r.r.r.r.r.q.v.y.v.r.V.V.r.V.r.r.q.e.r.V.V.r.r.r.r.r.e.7.$.$.$.$.$.e.e.e.r.r.r.r.V.V.r.r.e.7.",
"T P *.P Y I v.v.I Y Y Y I v.v.I R I q.r.r.r.w.x.w.q.w.x.w.r.r.r.r.r.r.r.V.V.r.r.V.r.V.V.r.r.e.4.$.$.4.e.e.e.e.e.e.e.e.e.e.7.$.,.",
"Y R P Y R v.r.r.v.I R I v.r.r.q.v.y.q.r.r.r.x.~.z.w.x.~.z.w.e.e.e.e.r.r.V.V.r.e.e.r.V.V.V.V.r.7.$.$.$.4.4.4.4.$.$.4.4.4.4.$.,.P ",
"I v.v.I I q.r.r.r.q.q.q.r.r.r.r.r.q.r.r.r.e.z.Y.E.s.| Y.E.z.7.4.$.7.e.r.r.r.q.f.f.q.r.r.r.r.r.r.e.e.7.$.$.$.$.$.$.$.$.4.1.,.%.T ",
"q.r.r.q.q.e.e.e.r.V.r.r.r.e.e.e.e.r.r.r.q.f.Z i G.K.p l I.R.-.#.$.$.7.e.e.8.f.! ! f.e.r.r.r.V.r.e.e.0.$.$.$.$.$.$.$.7.e.q.y.I R ",
"r.r.V.r.e.7.$.7.e.r.V.r.e.7.$.1.1.q.e.q.f.S = a z G.F.f l I.R.-.#.,.,.,.d.d.! ! ! d.q.e.e.e.e.e.7.$.$.$.$.$.$.4.7.e.e.r.r.q.q.q.",
"r.r.r.e.7.$.$.$.7.r.V.e.7.$.,.&.! d.d.d.! S * a d z G.F.d z I.R.u.&.! ! ! ! ! ! ! ! ,.$.$.$.4.4.$.$.$.$.$.$.7.e.e.e.e.e.r.V.r.r.",
"e.e.7.$.$.$.$.$.$.e.e.e.$.,.&.! ! ! ! ! Q A * a d d z G.U.G.k U.P.U Q ! ! ! ! ! ! ! H ,.$.$.$.$.$.$.$.$.$.7.e.r.e.7.$.7.e.r.r.r.",
"$.$.$.$.$.$.$.$.$.$.7.0.1.,.! ! ! ! ! ! S = + s d d d z J.U.U.U.k P.R P Q 2.,.&.! ! ! H ,.,.$.$.$.$.$.$.0.e.e.e.7.$.$.$.7.e.e.e.",
"$.$.$.$.$.$.,.,.,.,.,.,.&.! ! ! ! ! ! ! S # t a d d d d h z G.H.U.!.T.T.R.i.=.,.,.&.! ! &.&.<.$.$.$.$.$.$.$.$.$.$.$.$.$.$.$.$.$.",
"$.$.$.$.$.<.&.&.&.! ! ! ! ! ! H ,.,.,.H S # O t a d d d d a u f G.U.U.U.U.Y.R.i.=.,.,.,.,.,.$.$.$.$.$.$.$.$.,.,.,.$.$.$.$.$.$.$.",
"$.$.$.$.$.$.,.,.,.&.! ! ! ! ! ,.$.$.$.,.D # O t t a s s s u a d h l l l l z I.Y.R.-.#.$.$.$.$.$.$.$.$.$.$.,.&.! &.,.$.$.$.$.$.$.",
"$.$.$.$.$.$.$.$.$.<.,.,.&.! &.,.$.$.$.,.D $ O t t t t y s s d d d d d d d d h z I.R.-.#.$.$.,.,.,.$.$.$.,.H ! ! ! &.,.$.$.$.$.$.",
"$.$.$.$.$.7.e.e.7.$.$.$.<.<.1.$.$.$.$.$.o.$ O t t t t a d d d d d d d d d d d d x U.R.=.$.,.&.! &.,.,.,.H ! ! ! ! ! ,.$.$.$.$.$.",
"$.$.$.$.7.e.r.r.e.7.$.$.7.e.e.e.e.7.$.$.o.$ O t t t a d d d d d d d d d d d h z K.T.Q.=.,.H ! ! ! ! ! ! ! ! ! ! ! ! ,.,.,.$.$.$.",
",.,.7.e.r.r.r.r.r.r.e.e.e.r.r.r.e.0.8.<.X.- + t a s d d d d d d d d d d h z L.W.a.z.;.,.H ! ! ! ! ! ! ! ! ! ! ! ! ! ! ! &.,.,.,.",
"&.*.0.e.e.r.r.r.r.V.V.r.r.r.r.q.f.d.d.&.:.B * a d d d d d d d d d d d z K.Q.a.N.}.}.b.&.! ! ! ! ! ! ! ! ! ! ! ! ! ! ! ! ! ! ! ! ",
",.<.$.4.7.e.r.r.r.r.r.r.e.e.8.f.! ! ! ! D > i d d d d d d d d d d d h K.M.|..X}.|.+Xm.g.Q ! ! ! ! ! ! ! ! ! ! ! ! ! ! ! ! ! ! ! ",
"$.$.4.4.4.9.e.r.r.r.r.e.7.*.&.&.,.,.,.H A * a d d d d d d d d d d d z Q.|.$XXXZ.( ) _.^ W ! ! ! ! ! ! ! ! W W W W Q ! ! H ,.,.,.",
"$.7.e.e.e.r.r.r.V.V.r.7.$.,.,.,.$.$.,.o.- + s d d d d d d d d d d h K.M.XX$X$XXX[.}. XE L *.2.2.2.2.,.,.%.L T T T W W ! ,.$.$.$.",
"e.e.r.r.V.V.V.V.V.r.e.$.$.$.$.$.$.<.&.Z # t s d d d d d d d d d d h E.`.#X}.|.+XB.XX XE Y T T T T P :.:.P R R R Y T T Q ,.$.$.$.",
"e.e.e.e.r.r.r.r.r.e.7.$.$.$.$.$.$.#.V - t a d d d d d d d d d d a d Q.+X.X) M J q {. XE Y Y R R R R T T I v.q.v.I Y Y L 2.1.7.e.",
"4.4.$.$.7.e.r.r.r.e.7.$.$.$.$.$.#._ - i s d d d d d d d d d d a s P.M.XX%XOX~ G q '. Xk.Y I v.q.q.v.I I v.r.r.r.v.I R R y.q.e.e.",
"$.$.$.$.$.7.e.e.r.r.e.7.e.e.7.#._ - O t a d d d d d d d d d a s P.a.}.%X>X:XOX~ N {.#X_.y.8.r.V.r.r.q.q.r.V.V.V.r.q.q.q.q.e.7.4.",
"4.4.$.$.$.$.$.7.e.r.r.e.e.e.0.+.9 + t t t a d d d d d d d s u b p.x.}.$X%X%X:X=X|.#X&X) m t.r.r.r.r.r.r.V.V.V.V.r.r.r.r.r.e.4.4.",
"e.e.7.$.$.$.$.$.7.e.e.e.7.4.7.0._ - O t t t a s d d d d d d a u ; ] C.}.$X$X%X%X$X$X$X[.6.w.r.r.r.r.r.r.r.r.V.V.r.r.V.r.V.r.7.e.",
"V.r.e.4.$.$.$.$.$.4.4.4.$.$.$.$.#._ - O O t t t a d d d d d d a t ; ] C.}.$X$X$X$X$X$X}.n.w.r.e.e.r.r.r.r.e.e.r.r.r.V.V.V.r.e.r.",
"V.V.e.4.$.7.e.e.7.$.$.$.$.$.$.$.$.#._ - $ O O t t a s s d d d d a t ; ] C.}.$X$X$X$X}.Z.w.e.e.7.7.e.e.r.e.7.7.e.r.V.V.V.r.r.r.r.",
"V.V.r.7.7.e.r.r.e.e.7.$.$.$.$.$.$.$.#.X.V - $ O O t t t a s d s s a + ; [ c.}.XXXX}.m.w.e.7.$.$.$.$.7.0.7.$.$.7.r.V.V.V.r.r.r.r.",
"V.V.r.r.e.r.r.r.r.e.e.e.e.e.e.e.e.e.0.$.#.X.V - $ O O O t t t t t t O O $ ; } n.b.9.7.e.7.$.$.$.$.$.$.$.$.$.$.4.e.V.V.V.r.e.e.e.",
"e.e.e.e.e.e.e.e.e.7.$.$.1.<.1.<.<.<.$.$.$.$.#.X.V - $ $               . .   - X.#.$.$.0.$.$.$.$.$.$.$.$.$.$.$.4.e.e.e.e.e.7.$.$.",
"4.$.$.$.$.$.$.$.$.$.,.,.&.! ! ! ! &.,.$.,.,.,.,.#.o.o.B # O O O O O O   @ g v %.$.$.$.$.$.$.$.$.$.$.$.$.$.$.$.$.$.$.$.$.$.$.$.$.",
"$.$.$.$.$.$.$.$.,.,.&.! ! ! ! ! ! ! H ,.&.! ! &.,.$.X.- O t t t t t O   * v n /.2.$.$.$.,.,.,.$.$.$.$.$.$.$.$.$.$.$.$.$.$.$.$.$.",
"$.$.$.$.$.$.$.,.&.! ! ! ! ! ! ! ! ! ! ! ! ! ! ! &.<._ $ O t t t t t O X 4 = c ^./.,.$.,.&.! H ,.$.$.$.$.$.$.$.$.$.$.$.$.$.$.$.$.",
"$.$.$.$.$.,.,.H ! ! ! ! ! ! ! ! ! ! ! ! ! ! ! ! d.;.; + t t t t a t O X 2 4 = c K *.,.H ! ! ! H ,.$.$.$.$.$.$.,.,.,.$.$.$.$.$.$.",
"$.$.$.,.,.&.! ! ! ! H ,.,.,.,.,.H ! ! ! ! ! ! ! Q Z # O t t a t s a t X 2 6 w 1 v D ! &.,.,.H ! H ,.$.$.$.$.,.&.! &.,.$.$.$.,.,.",
",.$.<.&.&.! ! ! ! &.,.$.$.$.$.$.,.! ! H ,.,.,.&.D = + t a s a y s s t X 0  .).5.D H &.,.$.$.,.&.! &.<.$.$.,.H ! ! ! H ,.,.,.&.! ",
"&.,.,.,.,.,.,.,.,.,.$.$.$.$.$.$.,.&.&.,.$.$.$.@.V & u y s s y a d s + , ) Z.}.n.<.,.,.$.$.,.,.,.,.,.$.$.,.&.! ! ! ! ! ! ! ! ! ! ",
"! &.&.&.<.$.$.$.$.$.$.$.$.$.$.$.$.,.,.$.$.$.$.o.- i d s d s y s d a o 8 x..X-XB.<.$.,.,.,.&.! ! &.,.$.$.,.! ! ! ! ! ! ! ! ! ! ! ",
",.,.,.,.$.$.$.$.,.,.,.,.,.$.$.,.,.,.$.$.$.$.,.A * a d d d d a d d a o 0 ).$X:X*Xl.,.&.! ! ! ! ! ! H ,.,.H ! ! H ,.,.,.&.! ! ! ! ",
"$.$.$.$.$.$.$.2.P T ^ k.k.2.:.P T P 2.$.7.e.5.; i d d d d s u s d a o 5 6.}.%X:X*Xh.! ! ! ! ! ! ! ! ! ! ! ! ! ,.$.$.$.,.,.,.,.<.",
"$.$.$.$.$.,.2.P R (.oX;XoX(.R R R Y P <.e.w.' , a d d d d d s d d a o 2 e n.}.%X;Xl.! ! ! ! ! ! ! ! ! ! ! ! &.,.$.$.$.$.$.$.$.$.",
"$.$.,.,.:.P P I m.&X%X%X%XoXk.v.v.I I q.w.{ < a d d d d d d d d d a o 2 e ..Z.@X>XoXh.,.,.&.&.,.,.,.H ! ! ! 2.,.,.,.,.,.,.$.$.$.",
"1.2.P P P I v.q.S..X$X$X$X@XD.w.r.q.q.w.{ < a d d d d d d d d d d a o e D.( 5.}.@XB.f.<.$.,.,.$.$.$.,.! ! ! ! ! ! ! ! ! &.,.,.,.",
"q.y.I v.q.q.r.V.V.S.}.XXXX$X&XS.r.r.w.{ < a d d d d d d d d d d d a &  ..X)./ 6.{.6.q.7.$.$.$.$.$.$.,.! ! ! ! ! d.d.d.d.d.&.&.&.",
"e.q.q.e.e.e.r.r.e.q.j.j.m.}.XXS.r.q.} ; a d d d d d d d d d d d d a & | XXXX5.m D./ t.e.0.$.$.$.$.$.,.! d.d.d.f.8.e.e.e.e.e.e.e.",
"$.$.$.$.$.7.e.e.*.&.! f.5.Z.].m.8.F > a d d s d d d d d d d d d d a & | XXXX6.e r 3.e.e.7.$.$.$.$.<.&.d.8.0.0.0.e.e.e.e.e.e.e.e.",
"$.$.$.$.$.$.4.$.<.,.,.,. . .6.*.Z = a d d s u s d d d s d d s d d a & | XXXXn.+.O.<.<.<.,.$.$.$.$.$.,.<.$.$.$.$.$.$.$.$.$.$.4.4.",
"$.$.$.$.$.$.$.$.$.$.$.O.r e ' ` - i d d d s s d d d s u s s u s d a & } .XXXn.&.! ! ! ! &.,.$.$.$.$.$.$.$.$.$.$.$.$.$.$.$.$.$.4.",
"e.e.e.7.$.$.$.$.$.$.$.#.o.7 6 5 o a d d a u s d d d s s d d a d d d i < {.XXb.d.! d.d.d.! ,.$.$.$.$.$.$.$.$.$.$.$.$.$.$.$.$.7.e.",
"V.r.r.e.7.$.$.$.$.$.$.,.O.w 6 2 % + a a u a d d d s y s d s y s d d a : '.XXb.f.f.8.e.8.*.<.$.$.$.$.$.$.$.$.$.$.$.$.$.$.$.7.e.r.",
"e.e.e.r.e.e.e.7.$.$.<.&.&.C w 7 8 , + t a d d d d a y s d a y s d d a : '.@Xn.1.0.r.r.w.e.7.$.$.$.$.$.$.$.$.$.$.$.$.0.e.e.e.r.r.",
"$.4.7.e.r.r.r.e.7.$.$.,.,.@.O.O.O.V - O t a s s a y a d s y a d d d a : '.-XA.9.e.r.r.w.r.e.$.$.$.$.$.$.$.$.$.$.$.$.$.7.e.e.r.e.",
"$.$.$.7.e.e.e.e.0.$.$.$.$.$.$.$.$.#._ - $ + t t t O t a a t a d d d a j _.%X&XD.w.e.e.e.r.e.7.$.$.$.$.$.$.$.$.$.$.$.$.$.$.7.0.7.",
"$.$.$.$.4.4.4.4.$.$.$.$.$.$.$.$.$.$.#.X.V - $ $ $ o O t t O t a s a t p c.}.%X&XD.j.d.f.q.r.e.e.e.e.7.$.$.$.$.<.,.<.$.$.$.$.$.$.",
"$.$.$.$.$.$.$.$.$.$.$.$.$.$.$.$.$.$.$.$.#.X.o.o.` 8 % X X X O t t t O p { n.}.%X-XOXh.! f.8.e.e.e.e.0.0.0.0.8.&.! H ,.,.,.,.,.$.",
",.,.,.,.,.,.,.,.$.$.$.$.$.$.$.$.$.$.$.$.$.$.$.$.#.o.w 5 5 3 % # # # # > ` m n.}.@X'.h.! ! d.d.d.d.d.d.d.d.d.d.! ! ! ! ! ! ! &.,.",
"! ! ! ! &.&.&.&.<.$.$.$.$.$.$.$.$.$.$.$.$.$.$.$.$.#.O.3. .' w Z D D o.o.@.O.6.b.b.j.! ! ! ! ! ! ! ! ! ! ! ! ! ! ! ! ! ! ! ! ! ! ",
"! ! ! &.,.,.,.,.$.$.$.$.$.$.$.$.$.$.$.$.$.$.$.$.$.$.$.#.<.<.O.@.,.,.$.$.$.$.#.<.<.,.H ! ! ! ! ! ! ! ! ! ! ! ! ! ! ! ! ! ! ! ! ! ",
",.,.,.,.$.$.$.$.$.$.$.$.$.$.$.$.$.$.,.,.,.,.,.$.$.$.$.,.,.,.,.,.$.$.$.$.$.$.$.$.1.$.,.! ! H ,.,.,.,.H ! ! ! ! ! ! ! ! ! ! &.,.<.",
"$.$.$.$.$.$.$.$.$.$.$.$.$.$.$.$.,.:.P T T T P 2.$.$.2.P T T T P 2.$.$.$.$.4.e.e.e.7.,.! ! ,.$.$.$.$.,.&.,.,.,.&.&.,.,.,.,.,.$.$.",
"$.$.$.$.$.$.$.$.$.$.$.$.$.$.$.2.P T R R R Y Y P :.:.P Y R R R R P 2.$.$.7.e.r.r.r.e.1.f.! ,.$.$.$.$.$.<.$.$.$.,.,.$.$.$.$.$.$.4.",
"$.$.$.$.$.$.$.$.$.$.$.$.$.$.,.P Y R v.q.v.R Y Y T T Y R v.q.q.v.R P ,.$.e.r.r.r.r.r.e.8.d.&.,.$.$.$.$.$.$.$.$.$.$.$.$.e.e.e.e.e."
};
