/* XPM */
static char *rcp03005991048580[] = {
/* columns rows colors chars-per-pixel */
"64 64 177 2 ",
"   c #1D132C",
".  c #1E1A31",
"X  c #241A24",
"o  c #241A28",
"O  c #27193D",
"+  c #291C3D",
"@  c #201632",
"#  c #2A2025",
"$  c #26232F",
"%  c #2A252E",
"&  c #2F2C2D",
"*  c #262332",
"=  c #2B2533",
"-  c #2D2833",
";  c #2E2E3A",
":  c #2B2738",
">  c #332937",
",  c #2E3135",
"<  c #363532",
"1  c #3B3534",
"2  c #383837",
"3  c #333538",
"4  c #443B3F",
"5  c #524717",
"6  c #584C1A",
"7  c #5C501F",
"8  c #56511F",
"9  c #625715",
"0  c #61551C",
"q  c #675B1A",
"w  c #6E621E",
"e  c #66601C",
"r  c #434736",
"t  c #4C4538",
"y  c #645825",
"u  c #6F6924",
"i  c #746722",
"p  c #726B24",
"a  c #75682E",
"s  c #767226",
"d  c #777329",
"f  c #2B1C42",
"g  c #2B2245",
"h  c #2F2249",
"j  c #2E294B",
"k  c #302A40",
"l  c #30234B",
"z  c #342A4E",
"x  c #362A54",
"c  c #382C57",
"v  c #3A2F5A",
"b  c #3C315B",
"n  c #3F3162",
"m  c #493A47",
"M  c #493E5B",
"N  c #463B59",
"B  c #403263",
"V  c #433369",
"C  c #33445D",
"Z  c #384E66",
"A  c #354B62",
"S  c #375267",
"D  c #3A546B",
"F  c #544859",
"G  c #4F4567",
"H  c #514762",
"J  c #524963",
"K  c #5D5463",
"L  c #615972",
"P  c #5D7B60",
"I  c #708141",
"U  c #778E4B",
"Y  c #7E9445",
"T  c #7A9249",
"R  c #648755",
"E  c #668855",
"W  c #6B8A54",
"Q  c #708A54",
"!  c #6E965B",
"~  c #719659",
"^  c #749A59",
"/  c #739857",
"(  c #7CA75F",
")  c #7FAB5E",
"_  c #6B8E66",
"`  c #6E966F",
"'  c #6F9062",
"]  c #7D9E67",
"[  c #7B956F",
"{  c #74996C",
"}  c #7A9A6E",
"|  c #679175",
" . c #6B9472",
".. c #719571",
"X. c #77A564",
"o. c #79A663",
"O. c #7BA962",
"+. c #998D43",
"@. c #9A8D4C",
"#. c #819646",
"$. c #879B49",
"%. c #93954E",
"&. c #9A954F",
"*. c #9A8C5A",
"=. c #998B55",
"-. c #8F9053",
";. c #8F9C55",
":. c #9C9550",
">. c #929551",
",. c #A19449",
"<. c #AB9D51",
"1. c #A69857",
"2. c #8CA143",
"3. c #86A24C",
"4. c #8BA54A",
"5. c #8FA94A",
"6. c #91A643",
"7. c #91A54B",
"8. c #92AB49",
"9. c #98AD48",
"0. c #95B44F",
"q. c #9AB64D",
"w. c #9CB94E",
"e. c #8EAF57",
"r. c #8FA75D",
"t. c #81AB5E",
"y. c #8AAE5C",
"u. c #8FB056",
"i. c #95B651",
"p. c #9AB751",
"a. c #9EB850",
"s. c #A0B94F",
"d. c #A3A454",
"f. c #AAA754",
"g. c #ADAC53",
"h. c #AFAF5F",
"j. c #B3A559",
"k. c #A2B752",
"l. c #A3B950",
"z. c #AEB55C",
"x. c #B1B756",
"c. c #B3BA56",
"v. c #B4B55D",
"b. c #BBB75A",
"n. c #B7BA59",
"m. c #BDBA5A",
"M. c #819E6B",
"N. c #889D64",
"B. c #9D9960",
"V. c #82AA62",
"C. c #88AC61",
"Z. c #ACA26A",
"A. c #A8A166",
"S. c #B7AF62",
"D. c #B5AC69",
"F. c #ACB160",
"G. c #BCB062",
"H. c #5F408D",
"J. c #5F4094",
"K. c #604195",
"L. c #64439B",
"P. c #6B4F9C",
"I. c #6E5997",
"U. c #6C519C",
"Y. c #7A5C95",
"T. c #70539A",
"R. c #735B94",
"E. c #6946A2",
"W. c #82688C",
"Q. c #DBDC95",
"!. c #E2E59B",
"~. c #EBEC94",
"^. c #F0F39C",
"/. c #D2D1B3",
"(. c #E2E5A0",
"). c #FAFFA5",
"_. c #F7FBAD",
/* pixels */
"w.w.w.w.u. .| | |  .e.e. .| | | ..v.m.m.m.m.v.} ..| } v.m.m.m.m.m.v.M.p.b.m.m.m.m.m.m.m.b.w.w.w.w.w.w.w.w.l.b.m.m.m.m.m.m.m.m.b.",
"i.i.w.i.{ | ....| |  . .| ....| ..F.m.m.m.m.m.v.F.M.F.m.m.m.m.m.m.m.v.b.m.m.m.m.m.m.m.m.b.l.w.w.w.w.w.n.b.b.m.m.m.m.m.m.m.m.b.l.",
" .{ y.{ | } F.F.} | | | } F.F.} ..} v.S.m.m.m.m.m.v.m.m.m.m.m.m.m.m.m.m.m.m.m.m.m.m.m.m.m.b.h.p.w.w.w.n.b.b.b.b.b.b.b.b.b.l.w.i.",
"| ..{ | ..F.m.m.F.} ..} F.m.m.v.F.M.B.W.Z.m.m.m.m.m.m.m.m.m.m.b.b.b.m.m.m.m.m.b.b.m.m.m.m.Z.W.;.w.w.w.w.s.w.w.w.w.w.w.w.s.w.i.{ ",
"} F.F.} } v.m.m.m.v.v.v.m.m.m.m.m.d.4 H.Y.Z.v.v.n.m.m.m.m.b.l.s.w.l.n.m.m.m.v.C.C.v.m.m.Z.Y.H.4 f.n.l.w.w.w.w.w.w.w.w.w.a.i.e. .",
"v.m.m.v.v.b.b.b.m.m.m.m.m.b.b.b.b.&.> n K.I.[ V.C.v.b.b.b.l.w.w.w.w.l.n.n.z.V.O.O.C.v.Z.Y.K.n > &.n.c.w.w.w.w.w.w.w.l.n.v.M.{ ..",
"m.m.m.m.n.l.w.l.n.m.m.m.n.l.w.p.4.1 z v V L.I...o.V.p.l.c.w.w.w.w.p.i.i.V.V.O.O.O.V.A.Y.L.V v z 1 7.w.w.w.w.w.w.l.n.b.m.m.v.v.v.",
"m.m.b.n.l.w.w.w.l.b.m.b.l.w.i.t.~ = x v n J.E.I...t.i.w.w.w.w.w.i.t.O.O.O.O.O.O.o.[ R.E.J.n v x - 4.w.w.w.w.l.b.b.b.b.b.m.m.m.m.",
"b.n.l.w.w.w.w.w.w.n.b.b.w.i.t.o.R * x v v V K.E.I.N.i.i.i.w.w.i.) O.O.O.O.O.O.o...I.E.K.V v v x = Y q.w.w.l.n.m.n.l.w.l.n.m.m.m.",
"w.w.w.w.w.w.w.w.w.w.l.c.p.i.O.! , + c v v v V K.E.I.[ ] ] r.r.] { { { { ] r.r.[ I.E.K.V v v v c + < 4.w.c.n.b.n.l.w.w.w.l.n.b.b.",
"w.w.w.w.w.w.i.i.i.i.i.i.t.O.O.! $ f c v v v v V J.L.P.U.U.U.U.U.U.U.U.U.U.T.T.U.L.J.V v v v v v f % 4.w.w.w.w.w.w.w.w.w.w.w.w.w.",
"w.w.w.w.w.p.t.t.t.O.O.O.O.O.O./ % f c v v v v v n V J.L.L.L.L.L.L.L.L.L.L.L.L.J.V n v v v v v c f % 4.w.w.w.i.i.i.w.w.w.w.w.w.w.",
"w.w.w.w.w.w.i.i.i.t.O.O.O.O.O.3.% f c v v v v v v v n B B B B B B B B B B B B n v v v v v v v c f % 4.w.w.i.t.O.t.i.w.w.w.w.w.w.",
"w.w.w.w.w.w.w.w.w.i.i.i.t.O.t.3.% f x v v v c c v v v v v v v v v v v v v v v v v v v c c v v c f % 4.w.i.) O.O.O.t.i.w.w.w.w.w.",
"w.w.w.w.w.l.n.n.l.w.w.w.p.p.p.4.% O f x c x f h c v v v v v v v v v v v v v v v v v c h f x c x f % 3.i.) O.O.O.O.O.i.w.w.w.w.w.",
"w.w.w.w.l.n.m.m.n.l.w.w.l.n.b.d.% O f f f f f x v v v v v v v v v v v v v v v v v v v x f f f f O $ ~ O.O.O.O.O.O.O.i.i.i.w.w.w.",
"i.i.l.n.b.m.m.m.m.b.b.b.b.m.m.f.1 + f f f x c v v v v v v v v v v v v v v v v v v v v v x f f f O , ! O.O.O.O.O.O.O.O.O.t.i.i.i.",
"t.y.x.b.m.m.m.m.m.m.m.m.m.m.m.z.Q * O f x v v v v v v v v v v v v v v v v v v v v v v v v x f + * R X.O.O.O.O.O.O.O.O.O.O.O.O.O.",
"i.p.w.s.l.b.m.m.m.m.m.m.b.n.z.V.~ $ @ x v v v v v v v v v v v v v v v v v v v v v v v v v v x f k ! o.o.O.O.O.O.O.O.O.O.O.O.O.O.",
"w.w.w.s.s.l.b.m.m.m.m.b.k.y.t.) T - z v v v v v v v v v v v v v v v v v v v v v v v v v v v v x : E o.O.O.X.X.X.X.o.O.O.) i.i.i.",
"w.l.n.b.b.b.m.m.m.m.b.l.w.i.i.4.< z v v v v v v v v v v v v v v v v v v v v v v v v v v v v v v z < 3.i.e.`  . . .X.X.O.i.w.w.w.",
"b.b.m.m.m.m.m.m.m.m.b.w.w.w.q.Y = x v v v v v v v v v v v v v v v v v v v v v v v v v v v v v v x * U e.{ ......|  . .o.i.w.w.w.",
"b.b.b.b.b.m.m.m.m.m.l.w.w.q.#.< + x v v v v v v v v v v v v v v v v v v v v v v v v v v v v v v c z ; P } F.v.F.} | | ` i.a.l.n.",
"w.w.w.w.l.n.m.m.m.m.l.w.w.#.< + f f x v v v v v v v v v v v v v v v v v v v v v v v v v v v c x f f O ; -.b.m.m.F.} ....M.v.b.b.",
"w.w.w.w.w.l.n.b.m.m.n.k.%.1 + f f f f x c v v v v v v v v v v v v v v v v v v v v v v c c x f f f f f + 1 :.b.m.m.v.v.v.v.b.l.w.",
"w.w.w.w.w.w.w.l.n.m.m.g.t + O f f f f f f x c c c v v v v v v v v v v v v v v c c c x f f f f f f f f O + t g.m.m.m.m.m.m.b.s.w.",
"b.n.l.w.w.w.w.w.l.n.b.x.$.< % + O f f f f f f f f x c c c c c c c c c c c c x f f f f f f f f f f O + = 1 :.b.m.m.m.m.m.m.m.l.n.",
"m.m.b.s.w.w.w.w.w.w.s.w.q.4.Y < % O O f f f f f f f f f f f f f f f f f f f f f f f f f f f f O + = 1 &.f.b.b.m.m.m.m.m.m.m.m.m.",
"m.m.b.w.w.l.n.n.l.w.w.w.w.w.q.4.Y < % O O O O O f f f f f f f f f f f f f f f f f f O O O O + % < %.f.b.n.l.l.n.m.m.m.m.m.m.m.m.",
"m.m.b.l.l.n.m.m.b.n.l.w.w.w.w.w.w.7.#.< % % % % O O O f f f f f f f f f f f f O O O % % % % < Y 4.w.l.c.l.w.w.l.b.m.m.m.m.m.m.m.",
"m.m.m.b.b.m.m.m.m.b.n.n.n.n.n.n.n.n.x.4.4.4.4.Y < % % O O O O O O O O O O O O % % < #.d.7.4.4.q.w.w.w.w.w.w.w.w.b.m.m.m.m.b.b.b.",
"b.b.b.b.b.b.b.b.n.l.w.w.p.p.p.p.p.p.w.w.w.w.w.q.4.3.I $ . . . . . . . . . . $ I 3.4.w.c.w.w.w.w.w.w.w.w.w.w.w.w.n.b.b.b.n.l.w.w.",
"w.w.w.s.w.w.w.w.w.w.i.i.t.O.O.O.O.t.i.w.i.i.i.i.q.#.< g C A S S S S S S A C g < #.q.w.w.w.w.w.w.w.w.w.w.w.w.w.w.w.w.w.w.w.w.w.w.",
"w.w.w.w.w.w.w.w.i.i.t.O.O.O.O.O.O.O.) i.t.O.O.) T < + f g j Z D D D D Z j g f + < #.q.w.i.i.i.w.w.w.w.w.w.w.w.w.w.w.w.w.w.w.w.w.",
"w.w.w.w.w.w.w.i.t.O.O.O.O.O.O.O.O.O.O.O.O.O.X.E 3 + f f f f g g g g g g f f f f + < #.i.t.O.t.i.w.w.w.w.w.w.w.w.w.w.w.w.w.w.w.w.",
"w.w.w.w.w.i.i.) O.O.O.O.O.O.O.O.O.O.O.O.O.O.! , O f f f f f f f f f f f f f f f f O < ^ O.O.O.) i.w.w.w.w.w.w.i.i.i.w.w.w.w.w.w.",
"w.w.w.i.i.t.O.O.O.O.) i.i.i.i.i.) O.O.O.O.( E * f f f f f f f f f f f f f f f f f f = W i.i.) O.) i.w.w.w.w.i.t.O.t.i.w.w.w.i.i.",
"i.w.p.t.t.O.O.O.O.t.i.w.w.w.w.w.i.O.O.) i.4.< z c c x f f f f f f f f f f f f f x c z < 4.w.i.t.O.t.p.w.w.i.) O.O.O.) i.i.i.t.O.",
"t.i.i.i.i.i.i.i.i.i.w.w.w.w.w.w.i.t.t.i.q.Y - x v v v c c x f f f f f f x c c c v v x - Y 0.i.i.i.i.w.w.i.t.O.O.O.O.O.O.O.O.O.O.",
"O.t.t.t.p.w.w.w.w.w.w.w.w.w.w.w.w.i.i.w.4.< z v v v v v v v c c c c c c v v v v v v v z < ^ O.O.t.i.w.w.i.O.O.O.O.O.O.O.O.O.O.O.",
"i.i.i.i.w.w.w.w.i.i.i.i.i.w.w.i.i.i.w.q.Y - x v v v v v v v v v v v v v v b G G b v v x * R X.O.O.) i.i.) O.O.) i.i.i.t.O.O.O.O.",
"w.w.w.w.w.w.w.i.{  . . .{ u.u.{  .{ i.4.1 z v v v v v v v v v v v v v v b L /./.L b v v z 3 ! O.O.O.O.O.O.O.O.i.w.w.w.p.i.i.i.i.",
"w.w.w.w.w.i.u.{ ........|  . .....| { $.- x v v v v v v v v v v v v v v G /._._./.G v v x = ! O.O.O.O.O.O.O.t.i.w.w.w.w.w.w.w.w.",
"w.w.i.i.u.{ { } F.v.v.F.} ..} F.F.} } -.= x v v v v v v v v v v v v v v J (.).).Q.H v v x * W i.i.i.) O.O.O.i.i.i.i.i.i.i.w.w.w.",
"a.i.{ { { } F.v.m.m.m.m.v.v.v.m.m.v.d.1 + c v v v v v v v v v v v v v v J !.).^.Z.M v v c + < 4.w.w.i.O.O.O.O.O.O.O.O.O.t.i.i.i.",
"v.M.} F.v.v.m.m.m.m.n.v.n.m.m.m.m.b.&.= f c v v v v v v v v v v v v v v J !.).!.K b v v c f % Y q.w.i.O.O.O.O.O.V.V.V.V.V.t.t.t.",
"b.v.v.b.b.b.m.m.n.z.C.V.C.z.n.m.b.:.1 + f c v v v v v v v v v v v v v v J !.).!.J v v v c f + < #.q.i.O.V.V.V.C.z.v.v.v.v.v.v.v.",
"w.w.w.w.w.l.n.n.y.t.O.O.O.V.C.z.>.3 + f x v v v v v v v v v v v v v v v J !.).!.J v v v v x f O < Y t.t.z.x.x.x.b.b.b.b.b.b.b.b.",
"w.w.w.w.w.w.w.w.p.i.i.i.t.O.( W 3 f x c v v v v v v v v v v v v v v v v J !.).!.J v c v v v x f + < Y 0.w.w.w.w.w.w.w.w.w.w.w.s.",
"w.w.w.w.w.w.w.w.w.w.w.w.0.3.T 2 z c v v v v v v v v v c v v v v v v v v H Q.).!.J c l c v v v c x f < Y 4.q.w.w.w.w.w.w.w.w.w.w.",
"b.b.n.l.w.w.w.w.w.w.q.4.Y < - z v v v v v v v v v v c l c v v v v v v b F D.~.Q.H v c v v v v v v c z - < Y 4.q.w.w.w.w.w.w.l.b.",
"m.m.m.n.l.w.w.w.w.q.#.< - z x v v v v v v v c v v v c c v v v v v c c N *.j.G.A.M v v v c v v v v v v x z - < #.q.w.w.w.w.l.b.m.",
"b.b.b.m.b.b.n.l.q.#.1 z x v c v v v v v v x l c v c l c v v v v x f f m 1.j.j.*.N v v c l c v v c v v v v x z 2 #.w.c.n.b.b.m.m.",
"s.w.l.n.m.m.m.n.8.r z x c x l c v v v v c l x v v c x v v v v x + o 1 =.j.j.*.F b v v v c c v c l x v v v v x z r 5.w.l.n.b.m.b.",
"w.w.w.l.n.b.b.b.x.#.< = + f x c v v v c v c v v x f h c c c x + # 7 @.j.j.:.m g x c v v c l x v x l x c x z - < #.q.w.w.w.l.c.l.",
"w.w.w.w.w.w.w.w.w.q.4.Y < % + f x c x h x c c x f f x x f f + # 7 i <.j.<.a >   O f x c c x h x c x f + = 1 #.3.0.i.w.w.w.w.w.w.",
"w.w.w.w.w.w.w.w.w.w.w.q.4.Y < % + f f f f f f f f + f + o X # y ,.<.j.j.j.+.7 X   f f f f f f f f + = 1 %.d.z.t.O.) i.i.i.i.i.w.",
"i.i.i.i.i.i.i.i.w.w.w.w.w.q.4.Y < % % O O O O O O o X # 5 6 0 +.<.<.<.<.,.i 9 5 # h + O O O O * $ , E ^ V.V.O.O.O.O.O.O.O.O.t.i.",
"O.O.O.O.t.t.t.t.p.w.w.w.w.w.w.q.4.4.Y < % % % % & 5 0 0 q 9 e u p p p w i w q 9 8 & * $ $ $ , R ! ! X.O.O.O.O.O.O.O.O.O.O.O.O.O.",
"O.O.O.t.i.i.i.i.w.w.w.w.w.w.w.w.w.w.q.4.4.4.4.4.$.s +.,.+.s 2.8.8.8.2.s +.,.+.s 2.3./ ! ! ! ^ ( O.O.O.O.O.O.O.O.O.O.O.O.O.O.O.O.",
"i.i.i.i.w.w.w.w.w.w.w.w.w.w.w.w.w.w.i.i.i.i.i.w.q.6.d p d 2.i.i.w.w.q.2.d p d 6.w.w.i.O.O.) i.i.i.i.) O.O.O.O.O.O.O.O.O.O.t.i.i.",
"w.w.w.w.w.w.w.w.w.w.w.w.w.w.w.w.i.u.{  . . .{ i.w.q.3.' _ `  .{ i.w.w.q.9.9.g.b.n.l.i.O.O.i.w.w.w.w.i.t.i.i.i.t.t.i.i.i.i.i.w.w.",
"w.w.w.w.w.w.w.w.w.w.w.w.w.w.w.i.{  .......| | { u.u.{ | ........{ i.w.w.l.n.m.m.m.n.p.V.O.i.w.w.w.w.w.p.w.w.w.i.i.w.w.w.w.w.w.s.",
"w.w.w.w.w.w.w.w.w.w.w.w.w.w.i.{ | ..F.v.F...| |  . .| ..F.v.v.F...{ i.w.n.m.m.m.m.m.b.z.V.t.i.w.w.w.w.w.w.w.w.w.w.w.w.n.b.b.b.b."
};
