/* XPM */
static char *rcp03010736382400[] = {
/* columns rows colors chars-per-pixel */
"64 64 183 2 ",
"   c #1D132C",
".  c #1E1A31",
"X  c #241A24",
"o  c #241A28",
"O  c #27193D",
"+  c #291C3D",
"@  c #201632",
"#  c #2A2025",
"$  c #26232F",
"%  c #2A252E",
"&  c #302C2A",
"*  c #272333",
"=  c #2B2532",
"-  c #2D2833",
";  c #2C2A39",
":  c #332936",
">  c #2F3235",
",  c #353532",
"<  c #3B3433",
"1  c #3C3836",
"2  c #38363A",
"3  c #524717",
"4  c #594E15",
"5  c #5B4F1F",
"6  c #5B501E",
"7  c #625614",
"8  c #6B5E1A",
"9  c #635717",
"0  c #6D611D",
"q  c #6D6A1F",
"w  c #555120",
"e  c #434736",
"r  c #4C4537",
"t  c #645825",
"y  c #6F6924",
"u  c #686722",
"i  c #746722",
"p  c #736C2C",
"a  c #726B22",
"s  c #767326",
"d  c #777428",
"f  c #747638",
"g  c #7A7831",
"h  c #2B1C42",
"j  c #2B2245",
"k  c #2F2249",
"l  c #2E294B",
"z  c #30234B",
"x  c #332A4E",
"c  c #302A40",
"v  c #362A54",
"b  c #382C57",
"n  c #3A2F5A",
"m  c #3C315B",
"M  c #3F3162",
"N  c #453943",
"B  c #4A3B48",
"V  c #483D5A",
"C  c #403263",
"Z  c #433369",
"A  c #33445D",
"S  c #384E66",
"D  c #354B62",
"F  c #375267",
"G  c #3A546B",
"H  c #55495A",
"J  c #4F4567",
"K  c #514762",
"L  c #524963",
"P  c #615972",
"I  c #667E60",
"U  c #708141",
"Y  c #7D9445",
"T  c #77934E",
"R  c #7C9249",
"E  c #7A994D",
"W  c #648756",
"Q  c #678854",
"!  c #6A8A53",
"~  c #718E5D",
"^  c #6E965B",
"/  c #729759",
"(  c #73995A",
")  c #779858",
"_  c #7CA75F",
"`  c #7FAB5E",
"'  c #6F8A66",
"]  c #718F66",
"[  c #788E64",
"{  c #6E976F",
"}  c #71976B",
"|  c #7C966E",
" . c #749A6C",
".. c #7A9A6E",
"X. c #7D9E67",
"o. c #679175",
"O. c #6B9472",
"+. c #719571",
"@. c #77A564",
"#. c #78A664",
"$. c #7BA962",
"%. c #998D43",
"&. c #9A8D4C",
"*. c #819646",
"=. c #94944F",
"-. c #9A954F",
";. c #998B57",
":. c #939251",
">. c #9D9650",
",. c #8C9C54",
"<. c #A19449",
"1. c #AA9D51",
"2. c #A69857",
"3. c #8CA242",
"4. c #86A24C",
"5. c #8BA549",
"6. c #8FA94A",
"7. c #91A64B",
"8. c #93AC49",
"9. c #99AC4B",
"0. c #93AB45",
"q. c #96B54F",
"w. c #9AB64D",
"e. c #9CB94E",
"r. c #8EAF56",
"t. c #81AB5E",
"y. c #8BAD5C",
"u. c #93AA5A",
"i. c #99AE57",
"p. c #8FB056",
"a. c #95B651",
"s. c #9AB751",
"d. c #9EB850",
"f. c #A0B94F",
"g. c #A0B64F",
"h. c #A3A452",
"j. c #AAA754",
"k. c #ACAC5B",
"l. c #B3A559",
"z. c #B3A85A",
"x. c #A1B751",
"c. c #A3B950",
"v. c #AEB65B",
"b. c #B4B757",
"n. c #B3BA56",
"m. c #B4B55D",
"M. c #BBB75A",
"N. c #B6BA59",
"B. c #BDBA5A",
"V. c #819E6B",
"C. c #8D9E63",
"Z. c #9D9960",
"A. c #A89F69",
"S. c #82AA61",
"D. c #88AB61",
"F. c #A7A16A",
"G. c #ACA26A",
"H. c #ADA162",
"J. c #B6AE66",
"K. c #ACB160",
"L. c #BCB062",
"P. c #BDB571",
"I. c #CFCF7B",
"U. c #5F408D",
"Y. c #5F4094",
"T. c #604195",
"R. c #64439B",
"E. c #6B4F9C",
"W. c #6D5997",
"Q. c #6D529C",
"!. c #7A5C95",
"~. c #725B94",
"^. c #6946A2",
"/. c #82688B",
"(. c #DEDF89",
"). c #DBDD95",
"_. c #E2E59B",
"`. c #EBEC95",
"'. c #F3F79E",
"]. c #D2D1B3",
"[. c #E2E5A0",
"{. c #F9FEA4",
"}. c #F7FBAD",
/* pixels */
"e.e.e.e.p.O.o.o.o.O.r.r.O.o.o.o.+.m.B.B.B.B.m...+.o...m.B.B.B.B.B.m.V.s.B.B.B.B.B.B.B.B.N.e.e.e.e.e.e.e.e.c.N.B.B.B.B.B.B.B.B.N.",
"a.a.e.a. .o.+.+.o.o.O.O.o.+.+.o.+.K.M.J.B.B.B.m.K.V.K.B.B.B.B.B.B.B.m.N.B.B.B.B.B.B.B.B.N.x.i.w.e.e.e.N.N.N.B.B.B.B.B.B.B.B.N.c.",
"O. .y. .o...K.K...o.o.o...K.K...+...Z./.G.B.B.B.B.m.B.B.B.B.B.B.B.B.B.B.B.B.B.B.B.B.B.B.B.G./.,.w.e.f.N.N.N.N.N.N.N.N.N.N.c.e.a.",
"o.+. .o.+.K.B.B.K...+...K.B.B.m.K.[ N U.!.G.B.B.B.B.B.B.B.B.B.N.N.N.B.B.B.B.B.N.N.B.B.B.G.!.U.1 7.e.e.e.f.f.f.f.f.f.f.f.f.e.a. .",
"..K.K.....m.B.B.B.m.m.m.B.B.B.B.M.:.: M T.!.F.m.N.B.B.B.B.N.c.f.e.c.N.B.B.B.m.D.D.m.B.G.!.T.M : -.b.c.e.e.e.e.e.e.e.e.f.d.a.r.O.",
"m.B.B.m.m.N.N.N.B.B.B.B.B.N.N.N.j.1 x n Z R.W.| D.m.N.N.N.c.e.e.e.e.c.N.N.v.S.$.$.D.F.!.R.Z n x 1 j.n.e.e.e.e.e.e.e.c.N.m.V. .+.",
"B.B.B.B.N.c.e.c.N.B.B.B.N.c.e.d.5.- v n M Y.^.W.+.S.d.c.n.f.e.e.e.a.a.a.S.S.$.$.#.| !.^.Y.M n v - 5.e.e.e.e.e.e.c.N.N.B.B.m.m.m.",
"B.B.B.N.c.e.e.e.c.B.B.N.c.e.a.` Q * v n n Z T.^.W.| a.e.e.e.e.e.a.t.$.$.$.$.$.#.+.W.^.T.Z n n v = Y w.e.e.e.c.N.N.N.N.N.B.B.B.B.",
"N.N.c.e.e.e.e.e.e.N.N.N.e.a.t.^ > + b n n n Z T.^.~.C.u.u.u.u.y.X. . . . .X.X.+.W.^.T.Z n n n b + , 5.e.e.c.N.B.N.c.e.c.N.B.B.B.",
"e.e.e.e.e.e.e.e.e.e.c.n.s.a.$.^ $ h b n n n n Z T.R.Q.Q.Q.Q.Q.Q.Q.Q.Q.Q.Q.Q.Q.E.R.Y.Z n n n n n h % 5.e.n.N.N.N.c.e.e.e.c.N.N.N.",
"e.e.e.e.e.e.a.a.a.a.a.a.t.$.$.^ $ h b n n n n n C Z Y.R.R.R.R.R.R.R.R.R.R.R.R.Y.Z M n n n n n b h % 5.e.e.e.e.e.e.e.e.e.e.e.e.e.",
"e.e.e.e.e.s.t.t.t.$.$.$.$.$.$./ % h b n n n n n n n M C C C C C C C C C C C C M n n n n n n n b h % 5.e.e.e.a.a.a.e.e.e.e.e.e.e.",
"e.e.e.e.e.e.a.a.a.t.$.$.$.$.$.4.% h v n n n b b n n n n n n n n n n n n n n n n n n n b b n n b h % 5.e.e.a.t.$.t.a.e.e.e.e.e.e.",
"e.e.e.e.e.e.e.e.e.s.a.a.t.$.t.4.% O h v b v h k b n n n n n n n n n n n n n n n n n b k h v b v h % 5.e.a.` $.$.$.t.a.e.e.e.e.e.",
"e.e.e.e.e.c.N.N.c.e.e.e.s.s.d.5.% O h h h h h v n n n n n n n n n n n n n n n n n n n v h h h h O % 4.a.` $.$.$.$.$.a.e.e.e.e.e.",
"e.e.e.e.c.N.B.B.N.c.e.e.c.N.N.j.< + h h h v b n n n n n n n n n n n n n n n n n n n n n v h h h O > ( $.$.$.$.$.$.$.a.a.a.e.e.e.",
"a.a.c.N.B.B.B.B.B.B.N.N.N.B.B.M.:.% O h v n n n n n n n n n n n n n n n n n n n n n n n n v h + * W @.$.$.$.$.#.$.$.$.$.t.a.a.a.",
"t.y.n.N.B.B.B.B.B.B.B.B.B.B.B.m.) $ @ v n n n n n n n n n n n n n n n n n n n n n n n n n n v h c ^ $.$.$.$.#.$.$.$.$.$.$.$.$.$.",
"s.s.e.f.c.N.B.B.B.B.B.B.N.N.v.S.Q * x n n n n n n n n n n n n n n n n n n n n n n n n n n n n v ; W @.$.$.$.$.$.$.$.$.$.$.$.$.$.",
"e.e.e.f.f.c.B.B.B.B.B.N.x.y.t.) , x n n n n n n n n n n n n n n n n n n n n n n n n n n n n n n x , ( $.$.@.@.@.@.#.$.$.` a.a.a.",
"e.c.N.N.N.N.B.B.B.B.B.c.e.q.q.R = v n n n n n n n n n n n n n n n n n n n n n n n n n n n n n n v - R a.r.{ O.O.O.@.@.$.a.e.e.e.",
"N.N.B.B.B.B.B.B.B.B.N.f.e.w.*., + v n n n n n n n n n n n n n n n n n n n n n n n n n n n n n n b x , T } +.+.+.o.O.O.#.a.e.e.e.",
"N.N.N.N.N.B.B.B.B.B.c.e.w.*., + h h v n n n n n n n n n n n n n n n n n n n n n n n n n n n b v h h O ; I k.m.K...o.o.{ a.d.c.N.",
"f.e.e.e.c.N.B.B.B.B.c.w.*., + h h h h v b n n n n n n n n n n n n n n n n n n n n n n b b v h h h h h O < >.M.B.K...+.+.V.m.N.N.",
"e.e.e.e.e.c.N.N.B.B.N.9.r + O h h h h h h v b b b n n n n n n n n n n n n n n b b b v h h h h h h h h O + r z.B.B.m.m.m.m.N.c.f.",
"f.f.e.e.e.e.e.c.N.B.B.M.-.< = + O h h h h h h h h v b b b b b b b b b b b b v h h h h h h h h h h O + = < >.M.B.B.B.B.B.B.N.f.f.",
"N.N.c.e.e.e.e.e.c.N.N.N.x.7.*.< % O O h h h h h h h h h h h h h h h h h h h h h h h h h h h h O + = < -.j.M.B.B.B.B.B.B.B.B.c.N.",
"B.B.N.f.e.e.e.e.e.f.f.f.e.e.w.5.Y , % O O O O O h h h h h h h h h h h h h h h h h h O O O O + = < -.j.M.B.N.N.B.B.B.B.B.B.B.B.B.",
"B.B.N.f.e.c.N.N.c.e.e.e.e.e.e.e.w.5.Y , % % % % O O O h h h h h h h h h h h h + O O = % % % < *.7.b.N.B.N.c.c.N.B.B.B.B.B.B.B.B.",
"B.B.B.c.c.N.B.B.N.N.c.e.e.e.e.e.e.e.w.5.5.5.5.Y , % % O O O O O O O O O O O O % % , *.h.h.7.5.w.e.e.c.n.c.e.e.c.B.B.B.B.B.B.B.B.",
"B.B.B.B.N.B.B.B.B.N.N.N.N.N.N.N.N.N.n.e.e.e.e.w.5.4.U $ . . . . . . . . . . $ U 4.5.w.N.c.e.e.e.e.e.e.e.e.e.e.f.N.B.B.B.B.N.N.N.",
"N.N.N.N.N.N.N.N.N.c.e.e.d.s.d.s.s.s.e.e.e.e.e.e.w.*., j A D F F F F F F D A j , *.w.e.n.e.e.e.e.e.e.e.e.e.e.e.f.N.N.N.N.N.c.e.e.",
"f.e.f.f.e.e.e.e.e.e.a.a.t.$.$.$.$.t.a.e.a.a.a.q.*., + h j l S G G G G S l j h + , *.w.e.e.e.e.e.e.e.e.e.e.e.e.e.e.e.e.e.e.e.e.e.",
"e.e.e.e.e.e.e.e.a.a.t.$.$.$.$.$.$.$.` a.t.$._ ! , + h h h h j j j j j j h h h h + , *.w.a.a.a.e.e.e.e.e.e.e.e.e.e.e.e.e.e.e.e.e.",
"e.e.e.e.e.e.e.a.t.$.$.$.$.$.$.$.$.$.$.$.$.$.^ > O h h h h h h h h h h h h h h h h O , 4.t.$.t.a.e.e.e.e.e.e.e.e.e.e.e.e.e.e.e.e.",
"e.e.e.e.e.a.a.` $.$.$.$.$.$.$.$.$.$.$.$.$.@.W * h h h h h h h h h h h h h h h h h h = Q _ $.$.` a.e.e.e.e.e.e.a.a.a.e.e.e.e.e.e.",
"e.e.e.a.a.t.$.$.$.$.` a.a.a.a.a.` $.$.$.$.( , x b b v h h h h h h h h h h h h h v b x , 4.a.` $.` a.e.e.e.e.a.t.$.t.a.e.e.e.a.a.",
"a.e.s.t.t.$.$.$.$.t.a.e.e.e.e.e.a.$.$.` a.R - v n n n b b v h h h h h h v b b b n n v - Y w.a.t.$.t.s.e.e.a.` $.$.$.` a.a.a.t.$.",
"t.a.a.a.a.a.a.a.a.a.e.e.e.e.e.e.a.t.t.a.5., x n n n n n n n b b b b b b n n n n n n n x , 5.a.a.a.a.e.e.a.t.$.$.$.$.$.$.$.$.$.$.",
"$.t.t.t.s.e.e.e.e.e.e.e.e.e.e.e.e.a.a.w.Y - v n n n n n n n n n n n n n m J J m n n n v - Q _ $.t.a.e.e.a.$.$.$.$.$.$.$.$.$.$.$.",
"a.a.a.a.e.e.e.e.a.a.a.a.a.e.e.a.a.a.e.5., x n n n n n n n n n n n n n m P ].].P m n n n x > ^ $.$.` a.a.` $.$.` a.a.a.t.$.$.$.$.",
"e.e.e.e.e.e.e.a. .O.O.O. .p.p. .O. .a.4.- v n n n n n n n n n n n n n J ].}.}.].J n n n v = ^ $.$.$.$.$.$.$.$.a.e.e.e.a.a.a.a.s.",
"e.e.e.e.e.a.a. .+.+.+.+.o.O.O.+.+.o.} R = v n n n n n n n n n n n n n K ).{.{.[.L n n n v * W _ $.$.$.$.$.$.t.a.e.e.e.e.e.e.e.e.",
"e.e.a.a.p. . ...K.m.m.K...+...K.K...' < + b n n n n n n n n n n n n n V A.`.{._.L n n n b + , 4.a.a.` $.$.$.a.a.a.a.a.a.a.e.e.e.",
"d.a. . . ...K.m.B.B.B.B.m.m.m.B.B.m.:.= h b n n n n n n n n n n n n n m H P.'._.L n n n b h % Y w.e.a.$.$.$.$.$.$.$.$.$.t.a.a.a.",
"m.V...K.m.m.B.B.B.B.N.N.N.B.B.B.M.>.< + h b n n n n n n n n n n n n n n K ).{._.L n n n b h + , *.w.a.$.$.#.$.$.S.S.S.S.S.t.t.t.",
"N.m.m.N.N.N.B.B.N.v.D.S.D.v.N.M.>.< + h v n n n n n n n n n n n n n n n L _.{._.L n n n n v h + , *.a.$.S.S.S.D.v.N.N.N.N.N.N.N.",
"e.e.e.e.e.c.N.N.y.t.$.$.$.S.S.:.1 h v b n n n n n n n n n n n n n n n n L _.{._.L n b n n n v h + , ! t.v.n.n.n.N.N.N.N.N.N.N.N.",
"e.e.e.e.e.e.f.e.s.a.a.a.` ( Q 2 x b n n n n n n n n n b n n n n n n n n K ).{._.L b z b n n n b v h , R 7.w.e.e.e.e.e.e.e.e.e.f.",
"e.e.e.e.e.e.e.e.e.e.w.5.R , - x n n n n n n n n n n b z b n n n n n n m H J.`.).K n b n n n n n n b x - , Y 5.w.e.e.e.e.e.e.e.f.",
"N.N.N.c.e.e.e.e.e.w.*., - x v n n n n n n n b n n n b b n n n n n b b V ;.z.L.H.V n n n b n n n n n n v x - , *.w.e.e.e.e.e.c.N.",
"B.B.B.N.c.e.e.e.w.*.2 x v n b n n n n n n v z b n b z b n n n n v h h B 2.z.l.;.V n n b z b n n b n n n n v x 2 *.w.e.e.e.c.N.B.",
"N.N.B.B.N.N.N.c.6.e x v b v z b n n n n b z v n n b v n n n n v + o < ;.l.l.;.H m n n n b b n b z v n n n n v x e 8.n.N.N.N.B.B.",
"e.f.c.N.B.B.B.N.g.*., = + h v b n n n b n b n n v h k b b b v + # 5 &.l.l.>.N j v b n n b z v n v z v b v x - , *.w.e.c.N.N.B.N.",
"e.e.e.c.N.N.N.N.n.w.5.Y , % + h v b v k v b b v h h v v h h + # 6 i 1.z.1.p :   O h v b b v k v b v h + = , Y 5.w.e.e.e.e.c.n.c.",
"e.e.e.e.f.f.f.e.e.e.e.w.5.Y , % + h h h h h h h h + h + o X # t <.1.l.z.l.%.6 X   h h h h h h h h + % , *.7.w.s.a.s.e.e.e.e.e.e.",
"e.e.e.e.e.e.e.e.e.e.e.e.e.w.5.Y , % % O O O O O O o X # 3 4 9 %.1.1.1.1.<.i 7 3 # k + O O O + = % < =.h.v.n.v.t.$.` a.a.a.a.a.e.",
"a.a.a.a.a.a.a.a.e.e.e.e.e.e.e.w.5.5.Y , % % % % & 6 4 4 7 7 7 8 0 y y 0 i 0 8 7 w - * $ $ $ > Q / ) S.S.S.S.S.$.$.$.$.$.$.$.t.a.",
"$.$.$.$.t.t.t.t.s.e.e.e.e.e.e.e.e.e.w.5.5.5.5.5.5.3.q 9 8 0 8 7 u E 3.s %.<.%.p T / ^ ^ ^ ^ ^ @.$.$.$.$.$.$.$.$.$.$.$.$.$.$.$.$.",
"$.$.$.t.a.a.a.a.e.e.e.e.e.e.e.e.e.e.e.e.e.e.e.e.e.w.3.a 1.z.1.a 3.q.w.3.d a d 3.q.a.` $.$.$.$.$.$.$.$.$.$.$.$.$.$.$.$.$.$.$.$.$.",
"a.a.a.a.e.e.e.e.e.e.e.e.e.e.e.e.e.e.a.a.a.a.a.e.e.e.8.g I.(.I.g 8.e.e.w.8.8.9.w.e.e.a.$.$.` a.a.a.a.` $.$.$.$.$.$.$.$.$.$.t.a.s.",
"e.e.e.e.e.e.e.e.e.e.e.e.e.e.e.e.a.p. .O.O.O. .a.e.e.r.~ f f f ~ r.e.e.e.e.c.N.N.N.c.a.$.$.a.e.e.e.e.a.t.a.a.a.t.t.a.a.a.a.a.e.e.",
"e.e.e.e.e.e.e.e.e.e.e.e.e.e.e.a. .O.+.+.+.o.o. .p.p. .O.] ] ] +. .a.e.e.c.N.B.B.B.N.d.S.$.a.e.e.e.e.e.s.e.e.e.a.a.e.e.e.e.e.e.f.",
"e.e.e.e.e.e.e.e.e.e.e.e.e.e.a. .o.+.K.m.K.+.o.o.O.O.o.+.K.m.m.K.+. .a.e.N.B.B.B.B.B.N.v.S.t.a.e.e.e.e.e.e.e.e.e.e.e.e.N.N.N.N.N."
};
