/* XPM */
static char *rcp03011881613699[] = {
/* columns rows colors chars-per-pixel */
"64 64 184 2 ",
"   c #1D132C",
".  c #1E1A31",
"X  c #241A24",
"o  c #241A28",
"O  c #27193D",
"+  c #291C3D",
"@  c #201632",
"#  c #2A2025",
"$  c #26232F",
"%  c #2A252E",
"&  c #2D2A2E",
"*  c #302C2A",
"=  c #272333",
"-  c #2B2532",
";  c #2D2834",
":  c #2C2A39",
">  c #332936",
",  c #2F3235",
"<  c #353532",
"1  c #3B3433",
"2  c #3C3836",
"3  c #38363A",
"4  c #524717",
"5  c #594E16",
"6  c #574C1C",
"7  c #5B501E",
"8  c #625614",
"9  c #645915",
"0  c #6B5E1A",
"q  c #62561C",
"w  c #6C601C",
"e  c #434736",
"r  c #4C4537",
"t  c #645825",
"y  c #6E6923",
"u  c #6B6723",
"i  c #736C2B",
"p  c #736922",
"a  c #7F7C2F",
"s  c #787428",
"d  c #7F7E30",
"f  c #2B1C42",
"g  c #2B2245",
"h  c #2F2249",
"j  c #2E294B",
"k  c #30234B",
"l  c #332A4E",
"z  c #302A40",
"x  c #362A54",
"c  c #382C57",
"v  c #3A2F5A",
"b  c #3C315B",
"n  c #3F3162",
"m  c #453943",
"M  c #4A3B48",
"N  c #483D5A",
"B  c #403263",
"V  c #433369",
"C  c #33445D",
"Z  c #384E66",
"A  c #354B62",
"S  c #375267",
"D  c #3A546B",
"F  c #54485A",
"G  c #4F4566",
"H  c #514762",
"J  c #524963",
"K  c #5D5463",
"L  c #615972",
"P  c #667E60",
"I  c #867E32",
"U  c #708141",
"Y  c #7D9445",
"T  c #7C9249",
"R  c #79994F",
"E  c #77904C",
"W  c #648756",
"Q  c #678854",
"!  c #6A8A53",
"~  c #6E965B",
"^  c #6F9051",
"/  c #73995A",
"(  c #759759",
")  c #7CA75F",
"_  c #7FAB5E",
"`  c #7AA056",
"'  c #6E976F",
"]  c #71976B",
"[  c #7C966E",
"{  c #74996C",
"}  c #7A9A6E",
"|  c #7D9E67",
" . c #679175",
".. c #6B9472",
"X. c #719571",
"o. c #748C65",
"O. c #77A564",
"+. c #78A664",
"@. c #7BA962",
"#. c #998C43",
"$. c #9A8D4C",
"%. c #819646",
"&. c #94944F",
"*. c #9A954F",
"=. c #998B57",
"-. c #939251",
";. c #9D9650",
":. c #8C9C54",
">. c #A19449",
",. c #AA9D51",
"<. c #A69857",
"1. c #8DA342",
"2. c #86A24C",
"3. c #8BA549",
"4. c #8FA94B",
"5. c #91A744",
"6. c #91A64B",
"7. c #99AC4A",
"8. c #93AC49",
"9. c #96B54F",
"0. c #9AB64D",
"q. c #9CB94E",
"w. c #8EAF57",
"e. c #81AB5E",
"r. c #8BAD5C",
"t. c #93AA5A",
"y. c #99AE57",
"u. c #8FB056",
"i. c #95B651",
"p. c #9AB751",
"a. c #9EB850",
"s. c #A0B94F",
"d. c #A0B64F",
"f. c #A3A452",
"g. c #AAA754",
"h. c #AEAC53",
"j. c #A9AE5F",
"k. c #B3A559",
"l. c #B4AC57",
"z. c #A1B751",
"x. c #A3B950",
"c. c #AEB65B",
"v. c #B4B757",
"b. c #B3BA56",
"n. c #B4B55D",
"m. c #BBB75A",
"M. c #B6BA59",
"N. c #BDBA5A",
"B. c #ABA84D",
"V. c #819E6B",
"C. c #8D9E63",
"Z. c #9D9960",
"A. c #A89F6D",
"S. c #82AA61",
"D. c #88AB61",
"F. c #A7A16A",
"G. c #ACA26A",
"H. c #ADA162",
"J. c #B6AE66",
"K. c #ACB160",
"L. c #BCB062",
"P. c #CFCF7B",
"I. c #D0CF7B",
"U. c #5F408D",
"Y. c #5F4094",
"T. c #604195",
"R. c #64439B",
"E. c #6B4F9C",
"W. c #6D5997",
"Q. c #6D529C",
"!. c #7A5C95",
"~. c #725B94",
"^. c #6946A2",
"/. c #82688B",
"(. c #DEDF89",
"). c #DBDC94",
"_. c #E2E59B",
"`. c #EBEC95",
"'. c #F0F39C",
"]. c #D3D2B4",
"[. c #CBC9AA",
"{. c #E2E5A0",
"}. c #FAFEA5",
"|. c #F7FBAD",
/* pixels */
"q.q.q.q.u... . . ...w.w... . . .X.n.N.N.N.N.n.} X. .} n.N.N.N.N.N.n.V.p.N.N.N.N.N.N.N.N.M.q.q.q.q.q.q.q.q.x.M.N.N.N.N.N.N.N.N.M.",
"i.i.q.i.{  .X.X. . ..... .X.X. .X.K.m.J.N.N.N.n.K.V.K.N.N.N.N.N.N.N.n.M.N.N.N.N.N.N.N.N.M.z.y.0.q.q.q.M.M.M.N.N.N.N.N.N.N.N.M.x.",
"..{ r.{  .} K.K.}  . . .} K.K.} X.} Z./.G.N.N.N.N.n.N.N.N.N.N.N.N.N.N.N.N.N.N.N.N.N.N.N.N.G./.:.0.q.s.M.M.M.M.M.M.M.M.M.M.x.q.i.",
" .X.{  .X.K.N.N.K.} X.} K.N.N.n.K.o.m U.!.G.N.N.N.N.N.N.N.N.N.M.M.M.N.N.N.N.N.M.M.N.N.N.G.!.U.2 6.q.q.q.s.s.s.s.s.s.s.s.s.q.i.{ ",
"} K.K.} } n.N.N.N.n.n.n.N.N.N.N.m.-.> n T.!.F.n.M.N.N.N.N.M.x.s.q.x.M.N.N.N.n.D.D.n.N.G.!.T.n > *.v.x.q.q.q.q.q.q.q.q.s.a.i.w...",
"n.N.N.n.n.M.M.M.N.N.N.N.N.M.M.M.g.2 l v V R.W.[ D.n.M.M.M.x.q.q.q.q.x.M.M.c.S.@.@.D.F.!.R.V v l 2 g.b.q.q.q.q.q.q.q.x.M.n.V.{ X.",
"N.N.N.N.M.x.q.x.M.N.N.N.M.x.q.a.3.; x v n Y.^.W.X.S.a.x.b.s.q.q.q.i.i.i.S.S.@.@.+.[ !.^.Y.n v x ; 3.q.q.q.q.q.q.x.M.M.N.N.n.n.n.",
"N.N.N.M.x.q.q.q.x.N.N.M.x.q.i._ Q = x v v V T.^.W.[ i.q.q.q.q.q.i.e.@.@.@.@.@.+.X.W.^.T.V v v x - Y 0.q.q.q.x.M.M.M.M.M.N.N.N.N.",
"M.M.x.q.q.q.q.q.q.M.M.M.q.i.e.~ , + c v v v V T.^.~.C.t.t.t.t.r.| { { { { | | X.W.^.T.V v v v c + < 3.q.q.x.M.N.M.x.q.x.M.N.N.N.",
"q.q.q.q.q.q.q.q.q.q.x.b.p.i.@.~ $ f c v v v v V T.R.Q.Q.Q.Q.Q.Q.Q.Q.Q.Q.Q.Q.Q.E.R.Y.V v v v v v f % 3.q.b.M.M.M.x.q.q.q.x.M.M.M.",
"q.q.q.q.q.q.i.i.i.i.i.i.e.@.@.~ $ f c v v v v v B V Y.R.R.R.R.R.R.R.R.R.R.R.R.Y.V n v v v v v c f % 3.q.q.q.q.q.q.q.q.q.q.q.q.q.",
"q.q.q.q.q.p.e.e.e.@.@.@.@.@.@./ % f c v v v v v v v n B B B B B B B B B B B B n v v v v v v v c f % 3.q.q.q.i.i.i.q.q.q.q.q.q.q.",
"q.q.q.q.q.q.i.i.i.e.@.@.@.@.@.2.% f x v v v c c v v v v v v v v v v v v v v v v v v v c c v v c f % 3.q.q.i.e.@.e.i.q.q.q.q.q.q.",
"q.q.q.q.q.q.q.q.q.p.i.i.e.@.e.2.% O f x c x f h c v v v v v v v v v v v v v v v v v c h f x c x f % 3.q.i._ @.@.@.e.i.q.q.q.q.q.",
"q.q.q.q.q.x.M.M.x.q.q.q.p.p.a.3.% O f f f f f x v v v v v v v v v v v v v v v v v v v x f f f f O % 2.i._ @.@.@.@.@.i.q.q.q.q.q.",
"q.q.q.q.x.M.N.N.M.x.q.q.x.M.M.g.1 + f f f x c v v v v v v v v v v v v v v v v v v v v v x f f f O , / @.@.@.@.@.@.@.i.i.i.q.q.q.",
"i.i.x.M.N.N.N.N.N.N.M.M.M.N.N.m.-.% O f x v v v v v v v v v v v v v v v v v v v v v v v v x f + = W O.@.@.@.@.@.@.@.@.@.e.i.i.i.",
"e.r.b.M.N.N.N.N.N.N.N.N.N.N.N.n.( $ @ x v v v v v v v v v v v v v v v v v v v v v v v v v v x f z ~ @.+.@.@.@.@.@.@.@.@.@.@.@.@.",
"p.p.q.s.x.M.N.N.N.N.N.N.M.M.c.S.Q = l v v v v v v v v v v v v v v v v v v v v v v v v v v v v x : W O.+.@.@.@.@.@.@.@.@.@.@.@.@.",
"q.q.q.s.s.x.N.N.N.N.N.M.z.r.e.( < l v v v v v v v v v v v v v v v v v v v v v v v v v v v v v v l < / @.@.O.O.O.O.+.@.@._ i.i.i.",
"q.x.M.M.M.M.N.N.N.N.N.x.q.9.9.T - x v v v v v v v v v v v v v v v v v v v v v v v v v v v v v v x ; T i.w.' ......O.O.@.i.q.q.q.",
"M.M.N.N.N.N.N.N.N.N.M.s.q.0.%.< + x v v v v v v v v v v v v v v v v v v v v v v v v v v v v v v c l < E ] X.X.X. .....+.i.q.q.q.",
"M.M.M.M.M.N.N.N.N.N.x.q.0.%.< + f f x v v v v v v v v v v v v v v v v v v v v v v v v v v v c x f f O : P j.n.K.}  . .' i.a.x.M.",
"s.q.q.q.x.M.N.N.N.N.x.0.%.< + f f f f x c v v v v v v v v v v v v v v v v v v v v v v c c x f f f f f O 1 ;.m.N.K.} X.X.V.n.M.M.",
"q.q.q.q.q.x.M.M.N.N.M.7.r + O f f f f f f x c c c v v v v v v v v v v v v v v c c c x f f f f f f f f O + r h.N.N.n.n.n.n.M.x.s.",
"s.s.q.q.q.q.q.x.M.N.N.m.*.1 - + O f f f f f f f f x c c c c c c c c c c c c x f f f f f f f f f f O + - 1 ;.m.N.N.N.N.N.N.M.s.s.",
"M.M.x.q.q.q.q.q.x.M.M.M.z.6.%.1 % O O f f f f f f f f f f f f f f f f f f f f f f f f f f f f O + - 1 *.g.m.N.N.N.N.N.N.N.N.x.M.",
"N.N.M.s.q.q.q.q.q.s.s.s.q.q.0.3.Y < % O O O O O f f f f f f f f f f f f f f f f f f O O O O + - 1 *.g.m.N.M.M.N.N.N.N.N.N.N.N.N.",
"N.N.M.s.q.x.M.M.x.q.q.q.q.q.q.q.0.3.Y < % % % % O O O f f f f f f f f f f f f + O O - % % % 1 %.6.v.M.N.M.x.x.M.N.N.N.N.N.N.N.N.",
"N.N.N.x.x.M.N.N.M.M.x.q.q.q.q.q.q.q.q.3.3.3.3.Y < % % O O O O O O O O O O O O % % < %.f.f.6.3.0.q.q.x.b.x.q.q.x.N.N.N.N.N.N.N.N.",
"N.N.N.N.M.N.N.N.N.M.M.M.M.M.M.M.M.M.b.q.q.q.q.0.3.2.U $ . . . . . . . . . . $ U 2.3.q.M.x.q.q.q.q.q.q.q.q.q.q.s.M.N.N.N.N.M.M.M.",
"M.M.M.M.M.M.M.M.M.x.q.q.a.p.a.p.p.p.q.q.q.q.q.q.0.%.< g C A S S S S S S A C g < %.0.q.b.q.q.q.q.q.q.q.q.q.q.q.s.M.M.M.M.M.x.q.q.",
"s.q.s.s.q.q.q.q.q.q.i.i.e.@.@.@.@.e.i.q.i.i.i.9.%.< + f g j Z D D D D Z j g f + < %.0.q.q.q.q.q.q.q.q.q.q.q.q.q.q.q.q.q.q.q.q.q.",
"q.q.q.q.q.q.q.q.i.i.e.@.@.@.@.@.@.@._ i.e.@.) ! < + f f f f g g g g g g f f f f + < %.0.i.i.i.q.q.q.q.q.q.q.q.q.q.q.q.q.q.q.q.q.",
"q.q.q.q.q.q.q.i.e.@.@.@.@.@.@.@.@.@.@.@.@.@.~ , O f f f f f f f f f f f f f f f f O < 2.e.@.e.i.q.q.q.q.q.q.q.q.q.q.q.q.q.q.q.q.",
"q.q.q.q.q.i.i._ @.@.@.@.@.@.@.@.@.@.@.@.@.O.W = f f f f f f f f f f f f f f f f f f - Q ) @.@._ i.q.q.q.q.q.q.i.i.i.q.q.q.q.q.q.",
"q.q.q.i.i.e.@.@.@.@._ i.i.i.i.i._ @.@.@.@./ < l c c x f f f f f f f f f f f f f x c l < 2.i._ @._ i.q.q.q.q.i.e.@.e.i.q.q.q.i.i.",
"i.q.p.e.e.@.@.@.@.e.i.q.q.q.q.q.i.@.@._ i.T ; x v v v c c x f f f f f f x c c c v v x ; Y 0.i.e.@.e.p.q.q.i._ @.@.@._ i.i.i.e.@.",
"e.i.i.i.i.i.i.i.i.i.q.q.q.q.q.q.i.e.e.i.3.< l v v v v v v v c c c c c c v v v v v v v l < 3.i.i.i.i.q.q.i.e.@.@.@.@.@.@.@.@.@.@.",
"@.e.e.e.p.q.q.q.q.q.q.q.q.q.q.q.q.i.i.0.Y ; x v v v v v v v v v v v v v v v v v v v v x ; Q ) @.e.i.q.q.i.@.@.@.@.@.@.@.@.@.@.@.",
"i.i.i.i.q.q.q.q.i.i.i.i.i.q.q.i.i.i.q.3.< l v v v v v v v v v v v v v b G G b v v v v v l , ~ @.@._ i.i._ @.@._ i.i.i.e.@.@.@.@.",
"q.q.q.q.q.q.q.i.{ ......{ u.u.{ ..{ i.2.; x v v v v v v v v v v v v b L ].].L b v v v v x - ~ @.@.@.@.@.@.@.@.i.q.q.q.i.i.i.i.p.",
"q.q.q.q.q.i.i.{ X.X.X.X. .....X.X. .] T - x v v v v v v v v v v v v G [.|.|.].L b v v v x = W ) @.@.@.@.@.@.e.i.q.q.q.q.q.q.q.q.",
"q.q.i.i.u.{ { } K.n.n.K.} X.} K.K.} o.1 + c v v v v v v v v v v v v N A.`.}.|.].G v v v c + < 2.i.i._ @.@.@.i.i.i.i.i.i.i.q.q.q.",
"a.i.{ { { } K.n.N.N.N.N.n.n.n.N.N.n.-.- f c v v v v v v v v v v v v b F G.'.}.{.J v v v c f % Y 0.q.i.@.@.@.@.@.@.@.@.@.e.i.i.i.",
"n.V.} K.n.n.N.N.N.N.M.M.M.N.N.N.m.;.1 + f c v v v v v v v v v v v v v b K _.}._.J v v v c f + < %.0.i.@.@.+.@.@.S.S.S.S.S.e.e.e.",
"M.n.n.M.M.M.N.N.M.c.D.S.D.c.M.m.;.1 + f x v v v v v v v v v v v v v v v J _.}._.J v v v v x f + < %.i.@.S.S.S.D.c.M.M.M.M.M.M.M.",
"q.q.q.q.q.x.M.M.r.e.@.@.@.S.S.-.2 f x c v v v v v v v v v v v v v v v v J _.}._.J v c v v v x f + < ! e.c.b.b.b.M.M.M.M.M.M.M.M.",
"q.q.q.q.q.q.s.q.p.i.i.i._ / Q 3 l c v v v v v v v v v c v v v v v v v v H ).}._.J c k c v v v c x f < T 6.q.q.q.q.q.q.q.q.q.q.s.",
"q.q.q.q.q.q.q.q.q.q.0.3.T < ; l v v v v v v v v v v c k c v v v v v v b F J.`.).H v c v v v v v v c l ; < Y 3.0.q.q.q.q.q.q.q.s.",
"M.M.M.x.q.q.q.q.q.0.%.< ; l x v v v v v v v c v v v c c v v v v v c c N =.k.L.H.N v v v c v v v v v v x l ; < %.0.q.q.q.q.q.x.M.",
"N.N.N.M.x.q.q.q.0.%.3 l x v c v v v v v v x k c v c k c v v v v x f f M <.k.k.=.N v v c k c v v c v v v v x l 3 %.0.q.q.q.x.M.N.",
"M.M.N.N.M.M.M.x.4.e l x c x k c v v v v c k x v v c x v v v v x + o 1 =.k.k.=.F b v v v c c v c k x v v v v x l e 8.b.M.M.M.N.N.",
"q.s.x.M.N.N.N.M.d.%.< - + f x c v v v c v c v v x f h c c c x + # 7 $.k.k.;.m g x c v v c k x v x k x c x l ; < %.0.q.x.M.M.N.M.",
"q.q.q.x.M.M.M.M.b.q.3.Y < % + f x c x h x c c x f f x x f f + # 7 p ,.k.,.i >   O f x c c x h x c x f + - < Y 3.0.q.q.q.q.x.b.x.",
"q.q.q.q.s.s.s.q.q.q.q.0.3.Y < % + f f f f f f f f + f + o X # t >.,.k.k.k.#.7 X   f f f f f f f f + % < %.6.q.p.i.p.q.q.q.q.q.q.",
"q.q.q.q.q.q.q.q.q.q.q.q.q.0.3.Y < % % O O O O O O o X # 4 5 q #.,.,.,.,.>.p 8 4 # h + O O O + - % 1 &.f.c.b.c.e.@._ i.i.i.i.i.q.",
"i.i.i.i.i.i.i.i.q.q.q.q.q.q.q.0.3.3.Y < % % % % * 7 5 q 0 0 9 y y y w w 0 8 8 8 4 & = $ $ $ , Q / ( S.S.S.S.S.@.@.@.@.@.@.@.e.i.",
"@.@.@.@.e.e.e.e.p.q.q.q.q.q.q.q.q.q.0.3.3.3.3.3.3.1.s #.>.#.i R ` R y 9 0 w 0 9 u ^ ~ ~ ~ ~ ~ O.@.@.@.@.@.@.@.@.@.@.@.@.@.@.@.@.",
"@.@.@.e.i.i.i.i.q.q.q.q.q.q.q.q.q.q.q.q.q.q.q.q.q.0.5.s p s 1.9.i.9.1.p ,.k.,.p 1.i._ @.@.@.@.@.@.@.@.@.@.@.@.@.@.@.@.@.@.@.@.@.",
"i.i.i.i.q.q.q.q.q.q.q.q.q.q.q.q.q.q.i.i.i.i.i.q.q.q.0.4.3.4.i.i.q.q.8.a P.(.I.a 7.q.i.@.@._ i.i.i.i._ @.@.@.@.@.@.@.@.@.@.e.i.p.",
"q.q.q.q.q.q.q.q.q.q.q.q.q.q.q.q.i.u.{ ......{ i.q.q.i.{ ......{ i.q.0.5.d a I B.b.x.i.@.@.i.q.q.q.q.i.e.i.i.i.e.e.i.i.i.i.i.q.q.",
"q.q.q.q.q.q.q.q.q.q.q.q.q.q.q.i.{ ..X.X.X. . .{ u.u.{  .X.X.X.X.{ i.q.0.7.h.l.N.N.M.a.S.@.i.q.q.q.q.q.p.q.q.q.i.i.q.q.q.q.q.q.s.",
"q.q.q.q.q.q.q.q.q.q.q.q.q.q.i.{  .X.K.n.K.X. . ..... .X.K.n.n.K.X.{ i.q.M.N.N.N.N.N.M.c.S.e.i.q.q.q.q.q.q.q.q.q.q.q.q.M.M.M.M.M."
};
