/* XPM */
static char *_1738919736[] = {
/* columns rows colors chars-per-pixel */
"64 64 89 1 ",
"  c #361F0C",
". c #29270C",
"X c #272A0D",
"o c #2C2D0E",
"O c #36230D",
"+ c #3A220D",
"@ c #322E0E",
"# c #3D290E",
"$ c #2D320F",
"% c #32320F",
"& c #3D2511",
"* c #322E10",
"= c #3F2C14",
"- c #323210",
"; c #393711",
": c #363C12",
"> c #3C3D13",
", c #41260E",
"< c #44290E",
"1 c #4C2E0E",
"2 c #4C320F",
"3 c #53330F",
"4 c #402712",
"5 c #452D16",
"6 c #492D17",
"7 c #4A2F18",
"8 c #512F16",
"9 c #463217",
"0 c #4C3314",
"q c #413E13",
"w c #4B3A11",
"e c #4C3219",
"r c #543413",
"t c #5B3613",
"y c #543A11",
"u c #5D3A12",
"i c #553319",
"p c #5A3319",
"a c #5D3818",
"s c #603717",
"d c #603B12",
"f c #6A3E16",
"g c #643A18",
"h c #3D4113",
"j c #434214",
"k c #4A4615",
"l c #454B16",
"z c #4B4C16",
"x c #4A4A18",
"c c #574013",
"v c #5B4013",
"b c #504C16",
"n c #4C5116",
"m c #495018",
"M c #525116",
"N c #545619",
"B c #5B5618",
"V c #565A19",
"C c #5B5A19",
"Z c #634714",
"A c #694714",
"S c #664B15",
"D c #6A4815",
"F c #774615",
"G c #754A16",
"H c #7C4C15",
"J c #645B19",
"K c #735317",
"L c #7D5116",
"P c #735718",
"I c #5F611B",
"U c #63631B",
"Y c #6F641B",
"T c #6F701E",
"R c #814D16",
"E c #825115",
"W c #895215",
"Q c #875B17",
"! c #8C5C17",
"~ c #845518",
"^ c #8D8421",
"/ c #958621",
"( c #948922",
") c #9B8B22",
"_ c #9B9123",
"` c #A18F23",
"' c #A19224",
"] c #A99A25",
"[ c #B4A728",
/* pixels */
"hhhjhhhhhhhhhhmndddddddddddd3$o>>3ddddddddd,++tuuddddddddddddddd",
">wzcujhhh>hq>hlnvddddddddduy%>>hyudddddddddt3,8t8ddddddddddddddd",
"hjzzvuuuuuuyuhhnzvddddddu3@o:>q3uddddddddddddddt,uddgudddddddddd",
"hhmVMudduut<uuhhnzvdddddy%o>hy3uddduddddddddddDAuudduZuddddddddd",
"wjI(Vuut,88,uujhhmzuddu3%>>z3uddtdd3uddddddddK']Cbvuvnzvvdduuddd",
"2z`Pbz0r,tdduuuhhznuuuu@$lzyuddu,8p3ddddddddD/U_Vnnnzmmmzzu<888u",
">z)Avk<ttddduuuhz^V3<ty%:zyudddd,3ddddduddduuzjznlmhhjzmjzuut,,t",
"hjvy3y3333333t3wjzj0,33>>w333333333u3333333t3h;wjhhlhhwhhj333333",
"2>2313333333333189qq212o$233138r3333733333330>>022>>>>>;22313331",
"+.O+++ +  ,      ++;O++.:>+++++ ++  +    +   O& ++OOOOO++++++ ++",
"OX.+++++,          +  O.:h:O                    +   +   +++++,+ ",
"2hh3utut3+             Oo:>+                          O+3uuut333",
"ujhjudddt   +  ++++++ ++.Xh:OO+   ++O+O&   O++   ++++  +dddddddd",
"uhh>udddt, 6pssspppppt865o:h557&56666555675557&&+4ei5+ +udddd33d",
"3hh>t38dd  6sRRWRWWWRsp86oo:9766,666e59k097755ee&&eeii +udddd33d",
"3jh23tddt, 6tRWWWWWWWRg889.o>976ii7ek-$:jk97757ieie57<+ udddd333",
"w>>23ddtt++5<HWWWWWWWWRgp865>>9655eell$$hh-577757eie&+ +pddddyq2",
"hX@33dd3t++58gRWWWRWWWWRgp87o;997577elx9lh>e7777555555++tddduy>h",
":o233budt+ 678gRWR3RWRWWRgp8@o;e77777ee77>je7777777775++tdduzhhh",
"ho23ybvdt++6758gRWRWRfRWWRgp7@>97775557777777777777776 +truuzmj2",
"lo233zud8++67**0sRWWWRWWWWRgp7*;9e75*o5777e7e577777775 &y<uznmhy",
"loo2yzuu& O6ej$;8sRWWWWWWWWFgp0o>9e9::*5=eiee&&5777777 +tuuzhhh2",
"nho3ybAvkOO7exl$*8gRWWWWRWR3Fgi@:h9*:ll955e7eeO&577775O&udumhlhh",
"ll$33U'SzOO55exlk0tfRWWR3RR3RRgi*:>:hlhxe7775555777777 &tu<znzhh",
"hl$2v_[Ck++5556el*6pgRWWRWWRWWRa*:hhhe9he7777777777775 ,uuuvzy2j",
"hl$$zT'S0++5&46ek$*7pgRWWWWWWWWF->e>>eeej-977777777777 +tddub32h",
"hl:$N(Jr8++56467ek678psRWWWWWWWRhhiiq>979>>57777767776 +uddduyj>",
"yjllcurrt++676777e777ipsRWWWWWWRjhhii>h777>-9757667776 ,tdddu3j2",
"3ynmk,uut++5677777667548sRWWWWWRkhhiiiq9e77>>7ie055577 +3ddddyq3",
"33zhjyddt++67766555555&ipsRWWWWWKjhjaiqh9ee9>7&&+&6555++ddddd3j2",
"3yh>yuddu++677555&&&+&57ppsRWWWWRkhjHgijq>9777665+&&77++uduuu3q2",
"32o>2uddt++577+,eeee76777ppsRWWWWHkx~Rgieq>77776665++,  udu<+2jh",
"32@X>uddt  577&eiee7777567iigHWWW~MMEWHgpej99777777765 +ddd3<33>",
"332o>uddu&O7ee7e77777777*o6iigRWW!(ULWWRgiqe7777777777 +tdddd33>",
"332o>uddt+ 7lx9e7777777ej$;eipgRW~J(YEWWRgqqi777777777  tdddu3jh",
"33o$huddu+O7qmmee7575745ej*.5pigRWHC(QWWWRaqi777777777+,tdddu2hh",
"32$jhuddt++59hzzx7&555&&79j$;eiigREznJEWWWLCq087777e76  udddujhh",
"2@hl%udu+ +5o:hhx9&ee7=557ej-57iigHkz(!WWW!)Nqi8876,+  ,udddSjhh",
"X$hlhudu, +5$Xhh:>=557757e79:oo5i8pGbMLWWW~Y(zii877666 +uudK(z:h",
"X$hljudd3++55o::o*5e775779ee7>Xo6tid/NkEWWWLCBgpi87777 +3uA(Ihh2",
"XX$njuddu++665@.o5777777e77777;*58iizmjHWWW!C(Qgpp8886++t,uVmh>3",
"2$hnwuddt++6e6655777777757777799670ihlj~WW!)VMERsp8866++3<uzjwqw",
"2@lj3dddu+ 6777777777779o;977777e6e>>$jHWEBIbHWWRsp886++uduzjwqh",
"+2nh3uddt++677657777777>$X7777775ee>>>>aREC'!WWWWRgpp8++utdub33>",
"+2zkydddu++67755ee77777::$5e7755&e>$.&6igGJ'!WWWWWRgpp +3,udu33j",
"+1%lydddt++5755ei777777-l>755&++&e>XO=77irjbEWWWWWWRsp +3#udu33j",
"+O$lyuddp+ 5555eee77779hh$5665559>$=5577ei0jRWWWWWWWRt++31udd333",
"1OXlb3udp& 55&eeee775o$hh:o766e>hXX77777exjjHWWWWWWWWd  uuudd333",
"3#.ol33uu++<,eie77775@:>>:5e6e9>:o577777ehhisRWWWWWWWp +ddddd33q",
"31O$zuu3u++56iee777765oo9*76e9>:o*577777ee>qrpRWWWWWRp, tdddd33j",
"31ojzud33++57e6e77776767e779eh>$=5556ee76e9qqigHWWWWRs ,tdddu3#>",
"2o$ljudu3,+177767777066e7669>h:o5e55eieie569>jrtRWWWWs +tddd332q",
"2@ll##33,  5665657577555759;h:o4555 ++++&+&5<>q3pHHRHr +3udduqq2",
"2@lh1+++    & ++ ++  +++OO:$XX.OO&          +OO+++,,,   +,3uyq>2",
"+$jh#+O+ ++++       +  +&;oXXO+++  &  +  +  ++#+ +++  + +++,,#+,",
"2$lj13313313328r333333330>X-o2323+ 5333331333132922>23333utut333",
"3llj3333333333333333u3333:X@333331,3333333u33333hhhlk3t333ddd333",
"wzh>33uddddddt88tddddduuj$X2ddddd8,tdddduududdy>jjV_zyudddtt8,td",
"%lho33<uddddddd,,tdddddujj$@udddtptddddduuuvAujhyZ`]bjuddd3p8,ud",
"hzhX23tddddddddtr3dddddun^l@3ddu,8tdddddujjn/bhhhjSDuuuddddddtdd",
"mlhX@3tdddddddddd3ddddddunl:@uu3,3ddduujhjhjNhhhhjjuuddddd3ddddd",
"nhhho1tudddddddddudddddduhhhoudu<uduuj>hjv3jnlhh>whhuddddddddddd",
"mh:X@88<tddddddddddddddduuj:@yduuddujjjuuuduuvjhjjqhjudddddddddd",
"mhXX18dtddddddddddddddddddyj:@udddujhyuuddddduuuuv3hhquddddddddd"
};
